<svg xmlns="http://www.w3.org/2000/svg" width="2048" height="2048" viewBox="0 0 541.86665 541.86668">
  <g fill-rule="evenodd">
    <circle cx="270.93332" cy="270.93332" r="270.93332" paint-order="fill markers stroke"/>
    <rect width="84.666664" height="84.666664" x="169.33334" y="50.800064" fill="#ff0e57" rx="28.222221" ry="28.222221" style="font-variation-settings:normal;-inkscape-stroke:none"/>
    <rect width="84.666664" height="84.666664" x="287.86667" y="50.800064" fill="#20e546" rx="28.222221" ry="28.222221" style="font-variation-settings:normal;-inkscape-stroke:none"/>
    <path fill="#323232" d="M254 80.962608h33.866665v24.341667H254z" style="font-variation-settings:normal;-inkscape-stroke:none"/>
    <rect width="84.666664" height="84.666664" x="287.86664" y="169.33339" fill="#0fd1a5" rx="28.222221" ry="28.222221" style="font-variation-settings:normal;-inkscape-stroke:none"/>
    <rect width="84.666664" height="84.666664" x="406.40012" y="169.33339" fill="#ff3a18" rx="28.222221" ry="28.222221" style="font-variation-settings:normal;-inkscape-stroke:none"/>
    <path fill="#323232" d="M372.53345 199.4959h33.866665v24.341667H372.53345z" style="font-variation-settings:normal;-inkscape-stroke:none"/>
    <rect width="84.666664" height="84.666664" x="50.800034" y="287.86667" fill="#ff0" rx="28.222221" ry="28.222221" style="font-variation-settings:normal;-inkscape-stroke:none"/>
    <rect width="84.666664" height="84.666664" x="169.33339" y="287.86667" fill="#2976ff" rx="28.222221" ry="28.222221" style="font-variation-settings:normal;-inkscape-stroke:none"/>
    <path fill="#323232" d="M135.46677 318.02924h33.866665v24.341667H135.46677z" style="font-variation-settings:normal;-inkscape-stroke:none"/>
    <rect width="84.666664" height="84.666664" x="50.800034" y="169.33339" fill="#b900d3" rx="28.222221" ry="28.222221" style="font-variation-settings:normal;-inkscape-stroke:none"/>
    <rect width="84.666664" height="84.666664" x="169.33339" y="169.33339" fill="#ffc103" rx="28.222221" ry="28.222221" style="font-variation-settings:normal;-inkscape-stroke:none"/>
    <path fill="#323232" d="M135.46677 199.4959h33.866665v24.341667H135.46677z" style="font-variation-settings:normal;-inkscape-stroke:none"/>
    <rect width="84.666664" height="84.666664" x="287.86664" y="287.8667" fill="#ff16a8" rx="28.222221" ry="28.222221" style="font-variation-settings:normal;-inkscape-stroke:none"/>
    <rect width="84.666664" height="84.666664" x="406.39999" y="287.8667" fill="#ff7b0a" rx="28.222221" ry="28.222221" style="font-variation-settings:normal;-inkscape-stroke:none"/>
    <path fill="#323232" d="M372.53336 318.02924h33.866665v24.341667H372.53336z" style="font-variation-settings:normal;-inkscape-stroke:none"/>
    <rect width="84.666664" height="84.666664" x="169.33334" y="406.40005" fill="#9bf123" rx="28.222221" ry="28.222221" style="font-variation-settings:normal;-inkscape-stroke:none"/>
    <rect width="84.666664" height="84.666664" x="287.86667" y="406.40005" fill="#894efa" rx="28.222221" ry="28.222221" style="font-variation-settings:normal;-inkscape-stroke:none"/>
    <path fill="#323232" d="M254 436.56259h33.866665v24.341667H254z" style="font-variation-settings:normal;-inkscape-stroke:none"/>
  </g>
</svg>
