<svg width="80" height="80" viewBox="0 0 250 250" style="fill:#000;color:#fff;position:absolute;top:0; border:0;left:0;" aria-hidden="true" xml:space="preserve" xmlns="http://www.w3.org/2000/svg"><path style="fill:#000;stroke-width:50;stroke-linecap:round;stroke-linejoin:round;paint-order:stroke fill markers;fill-opacity:1" d="M0 0v250L250 0Z"/><g fill-rule="evenodd" transform="translate(13.281242 13.281234) scale(.23068407)"><rect width="84.666664" height="84.666664" x="169.33334" y="50.800064" fill="#ff0e57" rx="28.222221" ry="28.222221" style="font-variation-settings:normal;-inkscape-stroke:none"/><rect width="84.666664" height="84.666664" x="287.86667" y="50.800064" fill="#20e546" rx="28.222221" ry="28.222221" style="font-variation-settings:normal;-inkscape-stroke:none"/><path fill="#323232" d="M254 80.962608h33.86666v24.341672H254Z" style="font-variation-settings:normal;-inkscape-stroke:none"/><rect width="84.666664" height="84.666664" x="287.86664" y="169.33339" fill="#0fd1a5" rx="28.222221" ry="28.222221" style="font-variation-settings:normal;-inkscape-stroke:none"/><rect width="84.666664" height="84.666664" x="406.40012" y="169.33339" fill="#ff3a18" rx="28.222221" ry="28.222221" style="font-variation-settings:normal;-inkscape-stroke:none"/><path fill="#323232" d="M372.53345 199.4959h33.86667v24.34167h-33.86667z" style="font-variation-settings:normal;-inkscape-stroke:none"/><rect width="84.666664" height="84.666664" x="50.800034" y="287.86667" fill="#ff0" rx="28.222221" ry="28.222221" style="font-variation-settings:normal;-inkscape-stroke:none"/><rect width="84.666664" height="84.666664" x="169.33339" y="287.86667" fill="#2976ff" rx="28.222221" ry="28.222221" style="font-variation-settings:normal;-inkscape-stroke:none"/><path fill="#323232" d="M135.46677 318.02924h33.86666v24.34167h-33.86666z" style="font-variation-settings:normal;-inkscape-stroke:none"/><rect width="84.666664" height="84.666664" x="50.800034" y="169.33339" fill="#b900d3" rx="28.222221" ry="28.222221" style="font-variation-settings:normal;-inkscape-stroke:none"/><rect width="84.666664" height="84.666664" x="169.33339" y="169.33339" fill="#ffc103" rx="28.222221" ry="28.222221" style="font-variation-settings:normal;-inkscape-stroke:none"/><path fill="#323232" d="M135.46677 199.4959h33.86666v24.34167h-33.86666z" style="font-variation-settings:normal;-inkscape-stroke:none"/><rect width="84.666664" height="84.666664" x="287.86664" y="287.8667" fill="#ff16a8" rx="28.222221" ry="28.222221" style="font-variation-settings:normal;-inkscape-stroke:none"/><rect width="84.666664" height="84.666664" x="406.39999" y="287.8667" fill="#ff7b0a" rx="28.222221" ry="28.222221" style="font-variation-settings:normal;-inkscape-stroke:none"/><path fill="#323232" d="M372.53336 318.02924h33.86667v24.34167h-33.86667z" style="font-variation-settings:normal;-inkscape-stroke:none"/><rect width="84.666664" height="84.666664" x="169.33334" y="406.40005" fill="#9bf123" rx="28.222221" ry="28.222221" style="font-variation-settings:normal;-inkscape-stroke:none"/><rect width="84.666664" height="84.666664" x="287.86667" y="406.40005" fill="#894efa" rx="28.222221" ry="28.222221" style="font-variation-settings:normal;-inkscape-stroke:none"/><path fill="#323232" d="M254 436.56259h33.86666v24.34167H254Z" style="font-variation-settings:normal;-inkscape-stroke:none"/></g></svg>