<?xml version="1.0" encoding="UTF-8" standalone="no"?>
<svg
   width="1000"
   height="1000"
   viewBox="0 0 264.58333 264.58333"
   xml:space="preserve"
   version="1.1"
   id="svg30"
   sodipodi:docname="cultcompass.svg"
   inkscape:version="1.2 (dc2aedaf03, 2022-05-15)"
   xmlns:inkscape="http://www.inkscape.org/namespaces/inkscape"
   xmlns:sodipodi="http://sodipodi.sourceforge.net/DTD/sodipodi-0.dtd"
   xmlns="http://www.w3.org/2000/svg"
   xmlns:svg="http://www.w3.org/2000/svg"><defs
     id="defs34" /><sodipodi:namedview
     id="namedview32"
     pagecolor="#505050"
     bordercolor="#eeeeee"
     borderopacity="1"
     inkscape:showpageshadow="0"
     inkscape:pageopacity="0"
     inkscape:pagecheckerboard="0"
     inkscape:deskcolor="#505050"
     showgrid="false"
     inkscape:zoom="0.525"
     inkscape:cx="307.61905"
     inkscape:cy="500.95238"
     inkscape:window-width="1366"
     inkscape:window-height="705"
     inkscape:window-x="-8"
     inkscape:window-y="-8"
     inkscape:window-maximized="1"
     inkscape:current-layer="svg30" /><path
     style="fill:#894efa;fill-opacity:1;stroke:none;stroke-width:1.05833;stroke-linecap:round;stroke-linejoin:bevel"
     d="M264.58333 264.58333H-.000002L132.29167 132.29167Z"
     id="path2" /><path
     style="fill:#9bf122;fill-opacity:1;stroke:none;stroke-width:1.05833;stroke-linecap:round;stroke-linejoin:bevel"
     d="M0 0h264.58333L132.29166 132.29166Z"
     id="path4" /><path
     style="fill:#ff7b09;fill-opacity:1;stroke:none;stroke-width:1.05833;stroke-linecap:round;stroke-linejoin:bevel"
     d="M264.58332.00000267V264.58334L132.29167 132.29167Z"
     id="path6" /><path
     style="fill:#ff15a8;fill-opacity:1;stroke:none;stroke-width:1.05833;stroke-linecap:round;stroke-linejoin:bevel"
     d="M.00000133 264.58332V-.00000317L132.29167 132.29167Z"
     id="path8" /><path
     style="fill:silver;fill-opacity:.50196081;stroke-width:1.05833;stroke-linecap:round;stroke-linejoin:bevel"
     d="M92.604166 92.604166v79.374994h79.374994V92.604166Z"
     id="path10" /><path
     style="fill:#cd8365;fill-opacity:.50196081;stroke-width:1.05833;stroke-linecap:round;stroke-linejoin:bevel"
     d="M0 0v92.604166h92.604166V0Z"
     id="path12" /><path
     style="fill:#cdb616;fill-opacity:.50196081;stroke-width:1.05833;stroke-linecap:round;stroke-linejoin:bevel"
     d="M171.97916 0v92.604166h92.60417V0Z"
     id="path14" /><path
     style="fill:#c46582;fill-opacity:.50196081;stroke-width:1.05833;stroke-linecap:round;stroke-linejoin:bevel"
     d="M171.97916 171.97916h92.60417v92.60417h-92.60417z"
     id="path16" /><path
     style="fill:#c432d1;fill-opacity:.50196081;stroke-width:1.05833;stroke-linecap:round;stroke-linejoin:bevel"
     d="M0 171.97916h92.604166v92.60417H0Z"
     id="path18" /><path
     d="M142.22873 147.92762c-1.87101-.81497-4.24508-3.49146-4.69816-5.29665-.17743-.70692-.20027-2.37046-.0508-3.69676.48464-4.29966 4.21833-6.15553 6.92948-3.44438 1.14257 1.14258 1.28421 1.62474.99977 3.40353-.45122 2.82173.18594 2.26203 3.02175-2.65445 1.97267-3.42001 2.66575-4.19827 4.05565-4.5541 1.49016-.38151 2.20846-1.3442 6.46565-8.66543 2.63409-4.52994 4.78927-8.74543 4.78927-9.36775 0-2.78245-6.24257-5.93402-8.21617-4.14795-1.71525 1.55228-2.98231.99759-2.67942-1.173.22612-1.62053-.59275-3.14233-2.23804-4.15918-2.06729-1.27765-4.08537-1.38912-5.00863-.27666-.36591.44089-1.15166.73213-1.74611.6472-.90602-.12945-1.08082-.51754-1.08082-2.39956 0-1.73451-.27799-2.470477-1.22232-3.23598-1.46158-1.184823-3.83711-1.292368-4.7319-.214223-.84336 1.016187-2.53745.995091-2.93332-.03654-.69778-1.818373 7.79367-8.722898 14.87501-12.095097 5.42551-2.583674 9.32085-3.624343 14.98172-4.002467 5.01996-.335315 9.02561.282051 13.46532 2.075333 2.58378 1.043636 3.17847 1.129878 3.674.532802.32517-.391808 1.04624-.71238 1.60237-.71238.80604 0 .97929.303604.85414 1.496766-.13307 1.268596.25924 1.825788 2.57352 3.655125 5.11411 4.042465 8.80978 10.062131 11.09136 18.066091 1.49271 5.23658 1.61474 15.54528.25224 21.30918-1.15526 4.88719-1.58868 5.63312-2.82107 4.85529-.65144-.41116-.87498-1.09673-.76412-2.34348.30143-3.38969-4.09172-5.58436-6.61228-3.30328-.84198.76198-1.17665.81473-1.81383.28593-.4837-.40143-.66786-1.10061-.48344-1.83539.84501-3.36676-4.97199-6.47-7.62591-4.06824-1.40382 1.27044-2.67704.53919-2.27201-1.30487.61515-2.80073-4.27002-6.74271-7.35402-5.9342-.5266.13806-3.04306 3.90314-5.89684 8.82273-4.51261 7.77923-4.92805 8.71486-4.44171 10.00333.58202 1.54196-.4482 3.9808-4.09214 9.68722-2.70374 4.23407-6.88565 5.80746-10.8482 4.08148zm5.87616-2.58401c1.41259-.73099 6.39092-8.43039 6.51247-10.07207.0388-.52461-.32832-.85398-.95194-.85398-.72367 0-1.73471 1.22563-3.52085 4.26816-2.77834 4.7326-4.06976 5.54905-6.38141 4.03441-1.07792-.70629-1.30983-1.23459-1.21825-2.77531.16397-2.75838.0555-3.19735-.79005-3.19735-1.80967 0-2.45136 4.26624-.97955 6.51252 1.68093 2.56542 4.72583 3.43101 7.32958 2.08362zm47.502-22.90691c.66782-7.12666-.49644-14.0509-3.41781-20.32687-.84826-1.82232-1.63414-3.220264-1.7464-3.106549-.11226.113714.0349 1.488209.32686 3.054419.70943 3.80477.16974 12.20103-1.12529 17.50713-1.26255 5.17299-1.24985 4.75347-.14446 4.77003.49834.008 1.83804.45459 2.97711.99361 1.13907.53901 2.2259.99888 2.41517 1.02193.18928.023.51095-1.73811.71482-3.9137zm-8.02691-5.43575c1.72878-8.37825 1.14764-16.45638-1.55156-21.56758l-1.01325-1.918669-.0229 2.481176c-.0342 3.709642-1.40249 9.663913-3.70085 16.104743-1.12826 3.16178-2.10197 5.96725-2.16381 6.23439-.0618.26712.70303.63173 1.69972.81021 2.11425.37862 3.69427 1.16498 4.64674 2.31264.37312.44958.77455.72126.89208.60373.11753-.11753.66374-2.39481 1.21381-5.06064zm-9.21854-4.07033c2.07554-5.32124 3.56675-11.19848 3.8748-15.271659.28564-3.776961-.10694-7.52374-.78515-7.493321-.20067.009-.99662 1.057461-1.76877 2.32991-.77215 1.272451-1.65319 2.313544-1.95784 2.313544-1.07206 0-1.17569-1.667816-.22008-3.541924.53131-1.041991 1.04977-2.069275 1.15212-2.282849.34911-.728479-1.64016-.390323-3.77048.640951-3.40062 1.646215-8.7459 6.371038-13.0275 11.515328l-3.96702 4.76633 1.50108.64082c.8256.35246 1.77573.65133 2.11141.66418.33569.0129 1.4782.84185 2.53891 1.84223 1.06072 1.00039 1.9858 1.75761 2.05573 1.68272.07-.0749 1.68409-2.81557 3.58701-6.09039 3.82038-6.574623 4.56039-7.537287 5.39668-7.020434 1.05728.653438.57492 1.965474-3.05687 8.314834-1.99337 3.48494-3.62431 6.4833-3.62431 6.663 0 .1797.59177.32673 1.31503.32673 1.70957 0 5.2472 1.81506 6.05326 3.10578.78874 1.26296.97504 1.03973 2.59199-3.10578zm-17.1337-15.051632c3.44882-3.926868 6.66382-6.82829 10.53885-9.510921l2.07103-1.433749-2.63305.278603c-5.97891.632627-13.09598 4.262563-19.03551 9.708721l-3.54706 3.252408 2.16461 1.01877c1.19053.56032 2.65991 1.68872 3.26529 2.50754l1.1007 1.48877 1.31625-1.69515c.72394-.93234 2.86544-3.45908 4.75889-5.614992zm-12.53802-1.264627c4.25039-4.140205 8.08258-6.902945 12.20396-8.798181 1.99337-.916659 4.20678-1.936934 4.9187-2.267276 1.89217-.878003-5.00488-.319827-9.06076.733285-3.85841 1.001837-10.55539 4.258084-13.96033 6.787871-2.35727 1.751404-2.48702 1.955653-1.56985 2.471313.5499.309163 1.70624 1.289691 2.56966 2.17895.86342.889257 1.65946 1.646477 1.76898 1.682711.10953.03624 1.51786-1.218668 3.12964-2.788673z"
     style="fill:#000;fill-opacity:.501961;stroke:none;stroke-width:.868056"
     transform="translate(-119.72179 16.74791)"
     id="path22" /><path
     d="M236.92231 66.316234c-.16224-.422596-.21909-2.658186-.12645-4.967966l.16845-4.199611 3.3686-.173289 3.36862-.173289-2.85653-1.631432c-3.43709-1.962987-7.54488-6.391601-9.20552-9.924495-3.68415-7.837682-2.95797-16.015245 2.49286-28.072617 3.70121-8.1871949 3.69769-7.7963915.0677-7.4953664-2.85531.236784-3.20762.122712-5.16731-1.6732133-1.68065-1.5402047-2.15499-2.4359177-2.36163-4.4594489-.49111-4.8092486 2.64182-8.4347323 7.70959-8.9216824 5.87129-.5641554 10.69756 2.8301943 11.88293 8.3573433.34296 1.5992497.62357 3.2779081.62357 3.7303518 0 .4994511.55691.8226258 1.41757.8226258 1.38721 0 1.41754-.091876 1.41754-4.29211 0-4.12674791.0491-4.2851294 1.27582-4.11091737 1.1707.1662668 1.28951.51983644 1.4424 4.29210997.15987 3.9421925.22375 4.1109174 1.5593 4.1109174 1.38674 0 1.39272-.024534 1.39272-5.7096677 0-5.5968077.0253-5.7060861 1.2758-5.5284741 1.21029.1718871 1.28413.4650874 1.43809 5.7096668.15945 5.4304733.18667 5.528475 1.53877 5.528475 1.35208 0 1.37937-.098004 1.53879-5.528475.15388-5.2445794.22779-5.5377797 1.43809-5.7096668 1.25058-.177612 1.27579-.068332 1.27579 5.5284741 0 5.6851395.007 5.7096677 1.39271 5.7096677 1.33557 0 1.39956-.1687249 1.55932-4.1109174.15281-3.77227353.2717-4.12584317 1.44241-4.29210997 1.22665-.17421113 1.27579-.0158391 1.27579 4.11091737 0 4.2002356.0304 4.29211 1.41756 4.29211 1.10445 0 1.41755-.290373 1.41755-1.3146425 0-2.5571263 1.69484-6.9725511 3.24705-8.4593261 5.86162-5.6144676 15.61976-3.6759281 16.94073 3.3654227.98575 5.2545547-2.26817 8.91174-7.57977 8.5191126-3.53742-.2614827-3.54476-.6371319.1468 7.5288234 5.45084 12.057372 6.177 20.234935 2.49285 28.072617-1.66065 3.532894-5.76843 7.961508-9.2055 9.924508l-2.85654 1.631432 3.3686.173289 3.36862.17329v9.639389l-22.55446.14828c-18.55529.121963-22.60672.01201-22.84927-.620106zm42.85212-4.347881v-2.268092h-40.25861v4.536183h40.25861zm-11.03432-5.966001c11.07853-2.828363 17.6629-9.96505 18.26997-19.802531.32776-5.311167-.85978-10.141746-4.39629-17.882952-1.56708-3.430229-3.11881-7.493833-3.44832-9.03023-1.18579-5.5290647.2235-9.66499355 1.91467-5.6191487 1.17897 2.820512 2.44407 3.5752465 5.64033 3.3649271 1.71765-.1130256 3.26036-2.1767967 3.26036-4.3615862 0-3.09020854-2.50384-5.3431014-5.93827-5.3431014-4.66377 0-7.88685 2.63936882-8.53097 6.9859397-.24236 1.6354628.11165 4.302951 1.14198 8.6071945 4.3743 18.272088 4.19795 26.734158-.66135 31.737641-2.7192 2.799858-5.83148 4.132028-11.53934 4.939219-5.45147.770943-12.70453.02763-16.61687-1.703019-8.72412-3.859097-10.37557-13.100478-5.79391-32.422237 1.51053-6.3701924 1.98792-9.441058 1.73471-11.1587985-.6405-4.3451915-3.86458-6.9859397-8.52911-6.9859397-2.14349 0-2.92657.3031918-4.28083 1.6574511-3.24571 3.2457143-1.5766 7.9819413 2.81293 7.9819413 2.34882 0 3.56407-.9557589 4.566-3.591021.79395-2.088227 1.96825-1.6642624 2.21469.7995731.3104 3.1034287-.97014 7.7269547-3.95446 14.2780717-5.08248 11.156883-5.74038 18.534407-2.2797 25.564037 2.96111 6.01487 8.03177 9.806209 15.96293 11.935476 4.18143 1.122581 14.14226 1.149089 18.45085.0491zm-7.67743-27.204844V10.36926h-2.83511v36.856493h2.83511zm-5.67021-.283512V10.36926h-2.83512v36.289471h2.83512zm11.34043 0V10.36926h-2.8351v36.289471h2.8351zm-17.14423-.425269-.15002-17.435956-1.76589-.17194c-1.53166-.149136-1.81248.03892-2.11702 1.417557-3.30336 14.95488-3.98036 22.117464-2.54372 26.912522.6354 2.120813 4.83492 6.713778 6.13864 6.713778.39634 0 .53903-5.681053.43794-17.435956zm23.60559 15.162082c1.69567-1.563004 2.69147-3.076065 3.18529-4.839877 1.08458-3.873701.38964-13.413264-1.54708-21.237397-1.60641-6.489625-1.62216-6.520764-3.29752-6.520764h-1.68342l-.15001 17.435956c-.10116 11.754903.0416 17.435957.43794 17.435957.32335 0 1.69797-1.023243 3.05473-2.273875z"
     style="fill:#000;fill-opacity:.501961;stroke:none;stroke-width:.951297"
     transform="translate(-127.4018994 15.5663541)"
     id="path24" /><path
     d="M233.4549 223.41459c-4.08904-1.08624-7.95259-3.15949-11.22637-6.0243l-2.84602-2.49049h-14.03143l-1.51696-1.51696c-1.94714-1.94714-2.05541-4.5457-.2756-6.61484 1.1249-1.30778 1.62392-1.46182 5.31935-1.64197 4.41584-.21526 5.37541-.64041 5.37541-2.38159 0-2.01774-.95758-2.37558-6.35711-2.37558-3.45489 0-5.58417-.24437-6.56963-.75397-2.95139-1.52623-3.34793-5.99174-.71592-8.06207 1.17956-.92784 2.09938-1.04424 8.25158-1.04424 6.81298 0 6.93768-.0208 7.77414-1.29741.78748-1.20185.78748-1.39296 0-2.59481-.49067-.74886-1.34476-1.29741-2.02006-1.29741-2.93647 0-5.19219-3.858-3.97453-6.79769 1.13914-2.75013 2.12357-3.06259 9.64884-3.06259 5.40967 0 7.53384-.21807 10.13404-1.04037 9.92339-3.13824 19.53694-1.07349 26.60565 5.71423 7.36278 7.0701 9.82779 17.12769 6.53934 26.68147-4.24885 12.34393-17.871 19.85307-30.11472 16.60059zm12.18693-2.39025c8.38088-2.1129 15.5849-10.3032 16.80216-19.10248 2.46118-17.79133-14.72547-31.29689-32.04912-25.18475-1.59463.56261-4.27453.7974-9.10165.7974-7.88212 0-8.77497.32917-8.50793 3.13669.15066 1.58385.41321 1.87043 2.24644 2.45198 4.22218 1.33941 5.59555 4.8603 3.06764 7.86454l-1.34353 1.5967h-6.86068c-6.93431 0-8.1273.28352-8.73471 2.07585-.14515.42814-.0761 1.28343.15338 1.90063.38941 1.04734.82055 1.13387 6.4649 1.2974 5.8875.17059 6.08084.2138 7.29903 1.63131 1.64663 1.91607 1.65409 4.50484.0184 6.40637-1.11419 1.29532-1.65023 1.46047-5.56841 1.71556-4.14433.26982-4.35734.34452-4.82986 1.6937-.39117 1.11692-.29535 1.63129.45922 2.46507.86981.96114 1.57729 1.05365 8.05783 1.05365h7.1043l3.06478 2.68243c6.53108 5.71631 14.06372 7.58374 22.2577 5.51795zm-11.92745-2.66697c-5.8894-1.96259-10.49836-5.88066-13.06234-11.10429-1.34183-2.73372-1.46861-3.4848-1.46861-8.70059 0-5.10729.1465-6.02115 1.39085-8.67604 7.36357-15.71064 29.4716-16.02534 37.13052-.52855 1.87175 3.78721 1.95771 4.19019 1.95771 9.17767 0 4.58115-.17041 5.58017-1.39907 8.20195-1.92271 4.1028-6.06454 8.34052-10.08744 10.32098-2.74019 1.34899-4.0209 1.64447-7.83086 1.80669-2.91186.12399-5.30371-.0556-6.63076-.49782zm4.5096-3.32351c.10999-1.32622.43844-1.99432 1.03603-2.10751.67574-.12798.91208.28464 1.03793 1.81205.16131 1.9578.18385 1.97648 2.2306 1.84947 2.82304-.17518 7.29269-2.45821 9.88215-5.04766 2.58946-2.58946 4.87249-7.0591 5.04767-9.88215.127-2.04675.10833-2.06929-1.84947-2.2306-1.52741-.12584-1.94003-.36219-1.81205-1.03793.11416-.60271.78588-.92603 2.15881-1.03909 1.99102-.16396 1.99275-.16611 1.65956-2.07585-1.27941-7.3331-8.0008-13.99615-15.1003-14.96924l-2.3135-.3171v2.18444c0 1.80001-.15984 2.15415-.90818 2.01234-.63471-.12029-.95669-.75685-1.06925-2.11391-.13766-1.65947-.34232-1.94179-1.40769-1.94179-.68563 0-2.59818.50501-4.2501 1.12225-5.63353 2.10495-11.56639 9.64221-11.56639 14.69424 0 1.06536.28232 1.27003 1.9418 1.40768 1.35705.11257 1.99361.43455 2.1139 1.06925.14181.74836-.21233.90818-2.01234.90818h-2.18444l.31965 2.33213c.88457 6.45358 6.22404 12.45958 12.94394 14.55971 3.54194 1.10693 3.92032.99725 4.10167-1.18891zm-10.23224-3.78953c-.38102-.61651-.50267-.43445 3.90131-5.83855 3.13097-3.84199 3.2984-4.18795 3.33728-6.89572.0386-2.69045-.0831-2.97253-2.16465-5.01523-1.21308-1.19044-2.2056-2.45233-2.2056-2.8042 0-1.57256 1.33105-1.15173 3.68237 1.16423 2.2876 2.2532 2.75364 2.49179 4.60599 2.35805 1.63237-.11786 2.33376.12408 3.37329 1.16362 1.84857 1.84856 1.74929 4.11634-.26855 6.13417-1.33148 1.33149-1.86273 1.53523-3.36661 1.29119-1.72067-.27923-1.92887-.12098-5.71975 4.34718-3.92701 4.62864-4.54379 5.11672-5.17508 4.09526zm12.95104-11.17202c1.56749-1.56748.66562-3.85515-1.51981-3.85515-3.1353 0-3.04424 4.57394.0927 4.65488.3364.009.97861-.3512 1.42714-.79973zm-39.02577-15.61966c-.85501-.34401-2.19467-2.943-2.19467-4.25773 0-.56314.60459-1.7424 1.34353-2.62058 1.70146-2.02207 4.1639-2.16635 6.25628-.36656 3.88895 3.34514-.49454 9.22064-5.40514 7.24487zm3.92908-2.35126c1.32341-1.32341.39036-4.04791-1.38628-4.04791-.97065 0-2.66162 1.51122-2.66162 2.37869 0 1.77737 2.78947 2.92765 4.0479 1.66922z"
     style="fill:#000;fill-opacity:.501961;stroke:none;stroke-width:.671765"
     transform="translate(-99.6353384 19.7017994)"
     id="path26" /><path
     d="M288.94906 112.53113c-6.22998-3.90976-10.09258-6.96765-11.09193-8.7811-.88923-1.61363-1.06915-11.869719-.21838-12.448439.35784-.24342-.83634-1.81163-2.86085-3.75689-3.39578-3.262842-3.46638-3.396146-3.0935-5.841238.61929-4.060871.55548-5.25143-.53353-9.953475-2.24371-9.687783-.0733-18.659868 5.95059-24.598669 9.12167-8.992805 26.91365-9.947794 37.6302-2.019807 4.12568 3.052134 7.55606 8.415819 8.60448 13.453832.81722 3.927046.36544 11.53891-.94721 15.959088-.6659 2.242334-.74691 3.476339-.30458 4.639752 1.29275 3.40019.79186 4.923966-2.77127 8.430597-1.85563 1.82621-3.11618 3.49684-2.80122 3.71251.81819.56026.59886 10.864239-.26461 12.431409-.88694 1.60979-6.08572 5.64593-12.02408 9.33505-6.32205 3.92748-8.23148 3.85715-15.27411-.56262zm16.78372-3.97181c8.23217-5.52812 8.8512-6.34623 8.27734-10.939279-.36615-2.93055-.54657-3.32587-1.09661-2.40289-3.02658 5.078589-4.15672 6.391309-5.35512 6.220309-.79678-.11369-1.3364-.68924-1.45933-1.556469-.25925-1.82899-2.02253-1.48737-2.48741.481919-.43383 1.83773-2.1174 2.27763-2.5395.66354-.22514-.86093-.65135-1.093029-1.56733-.8535-.69195.18096-1.2581.70009-1.2581 1.15364 0 .45354-.53649.82463-1.1922.82463-.65572 0-1.19221-.37109-1.19221-.82463 0-1.413019-2.24072-1.557199-3.14048-.20207-.93664 1.41065-2.22445.94937-2.22445-.79679 0-.636359-.11217-1.157019-.2493-1.157019-.13711 0-.64051-.15012-1.11866-.33361-.5784-.22194-.99753.17706-1.25232 1.192209-.21063.83919-.79302 1.52581-1.29421 1.52581-1.17598 0-3.45794-2.472499-4.70243-5.095069-.53717-1.13199-1.16526-2.05743-1.39577-2.05654-.23051.0009-.50043 1.5902-.5998 3.53178-.16215 3.167999-.009 3.715669 1.49026 5.338599.91902.99464 4.34049 3.56317 7.60328 5.70781 7.93605 5.21641 8.37382 5.20537 16.75435-.42238zm-9.87047-12.667179c0-1.09286.31792-1.49026 1.19221-1.49026.88288 0 1.1922.3974 1.1922 1.53172 0 1.24748.24889 1.49637 1.34123 1.34123.86194-.1224 1.40931-.66978 1.53172-1.53172.20584-1.44928 1.25099-1.74767 2.33269-.66597 1.19852 1.19851 2.38411.0823 2.7904-2.62697.21796-1.45345.9611-3.24889 1.65143-3.98986 1.05384-1.13116 1.6889-1.29835 3.95969-1.04239 2.44691.2758 2.95009.0996 5.28194-1.84958l2.57737-2.154418-.37103-3.621476c-.2588-2.526059-.0561-4.917153.67009-7.905015 2.81735-11.591633-1.35264-21.891045-10.73762-26.520715-8.74372-4.313332-20.35795-3.493121-27.97284 1.975472-7.00915 5.033585-9.80972 14.726829-7.1449 24.729634.6368 2.390303.83671 4.798477.61095 7.35968l-.33555 3.806848 2.51859 2.249354c2.32418 2.075716 2.73017 2.224926 5.2595 1.932846 2.31795-.26766 2.93524-.10792 4.00025 1.03524.69264.74346 1.43768 2.54093 1.65564 3.99438.3791 2.52805 1.97314 4.22366 2.49601 2.65506.41068-1.23203 1.93264-.75669 2.51951.78691.34689.91237 1.03463 1.49026 1.77356 1.49026.89002 0 1.20696-.39133 1.20696-1.49026zm-3.22471-5.60347c-1.33564-1.47586-1.17725-3.4725.54474-6.866686.81827-1.612881 1.48776-3.369895 1.48776-3.90447 0-2.644902 3.28129-3.236619 4.2329-.763323.3469.901605 1.28001 2.984763 2.07358 4.629242 2.7371 5.671937 1.58492 7.952877-4.01724 7.952817-2.46135-.00003-3.63011-.28333-4.32174-1.04758zm5.27707-2.47213c.52633.43681 1.12827.6229 1.33764.41353.38495-.38495-1.6468-5.138827-2.19779-5.14238-.48509-.0032-2.87305 4.66584-2.55105 4.98784.16233.16233.78096-.008 1.3747-.37902.82364-.51438 1.30637-.48592 2.0365.12004zm-19.0684-6.799869c-1.20067-1.200677-1.46316-2.054491-1.46316-4.759417 0-2.799452.2621-3.589659 1.73899-5.242991 1.68724-1.888799 1.90054-1.952953 7.16659-2.155573 7.07984-.272406 8.38141.442917 8.38141 4.606302 0 3.529469-1.52191 5.410128-6.10471 7.543708-4.18993 1.950674-7.77347 1.953614-9.71912.0079zm9.32197-2.900606c2.75149-1.448695 4.38072-3.794186 3.75969-5.412558-.37878-.987098-1.50338-1.182396-6.3881-1.109368-4.38063.06549-6.24043 2.399628-4.99256 6.265898.4526 1.402293.85182 1.639282 2.76143 1.639282 1.22779 0 3.41458-.622464 4.85954-1.383254zm18.35542 3.541371c-2.67867-.957248-5.70351-3.075528-6.48984-4.544793-.32719-.611359-.59489-2.330121-.59489-3.819471 0-3.96254 1.39125-4.704135 8.31918-4.434482 4.89797.190648 5.50582.349341 6.97762 1.821717 1.29072 1.291238 1.66183 2.301691 1.86088 5.066873.22043 3.062193.0761 3.639935-1.27282 5.093269-1.21619 1.31037-2.03549 1.634032-4.08336 1.613117-1.40905-.01442-3.5316-.372693-4.71677-.79623zm6.85992-3.101025c.68306-1.780033.36077-4.29124-.72242-5.628926-.93792-1.158271-1.66376-1.342423-5.37796-1.364435-2.36154-.01397-4.57094.251785-4.90978.590625-1.58184 1.581833 1.031 5.157666 4.90138 6.707846 2.3184.928577 5.70018.759669 6.10878-.30511zm-27.8684 16.590599c-.16154-.57375-.46918-1.91498-.68364-2.98051-.32611-1.6203-.65043-1.93048-1.98184-1.89544-.87555.0231-2.12841.27244-2.78412.55421-.99197.42626-.85938.51934.78939.5542 1.73163.0366 2.10761.34192 2.98052 2.42025.98802 2.3524 2.24702 3.36226 1.67969 1.34729zm24.6536-1.34123c1.02899-2.01698 1.51311-2.39087 3.14166-2.42631 1.61658-.0352 1.73409-.12403.73302-.5542-.65572-.28177-1.90858-.53117-2.78413-.55421-1.33141-.035-1.65573.27514-1.98184 1.89544-.21446 1.06553-.52209 2.40676-.68364 2.98051-.5158 1.83194.31863 1.12134 1.57493-1.34123z"
     style="fill:#000;fill-opacity:.501961;stroke:none"
     transform="matrix(.86806 0 0 .86806 -39.5450114 64.7160084)"
     id="path28" /></svg>
