<svg width="1000" height="1000" viewBox="0 0 264.583 264.583" xml:space="preserve" xmlns="http://www.w3.org/2000/svg"><path style="fill:#894efa;fill-opacity:1;stroke:none;stroke-width:1.05833;stroke-linecap:round;stroke-linejoin:bevel" d="M264.583 264.583H0l132.292-132.291Z"/><path style="fill:#9bf122;fill-opacity:1;stroke:none;stroke-width:1.05833;stroke-linecap:round;stroke-linejoin:bevel" d="M0 0h264.583L132.292 132.292Z"/><path style="fill:#ff7b09;fill-opacity:1;stroke:none;stroke-width:1.05833;stroke-linecap:round;stroke-linejoin:bevel" d="M264.583 0v264.583L132.292 132.292Z"/><path style="fill:#ff15a8;fill-opacity:1;stroke:none;stroke-width:1.05833;stroke-linecap:round;stroke-linejoin:bevel" d="M0 264.583V0l132.292 132.292Z"/><path style="fill:silver;fill-opacity:.50196081;stroke-width:1.05833;stroke-linecap:round;stroke-linejoin:bevel" d="M92.604 92.604v79.375h79.375V92.604Z"/><path style="fill:#cd8365;fill-opacity:.50196081;stroke-width:1.05833;stroke-linecap:round;stroke-linejoin:bevel" d="M0 0v92.604h92.604V0Z"/><path style="fill:#cdb616;fill-opacity:.50196081;stroke-width:1.05833;stroke-linecap:round;stroke-linejoin:bevel" d="M171.98 0v92.604h92.603V0Z"/><path style="fill:#c46582;fill-opacity:.50196081;stroke-width:1.05833;stroke-linecap:round;stroke-linejoin:bevel" d="M171.98 171.98h92.603v92.603H171.98z"/><path style="fill:#c432d1;fill-opacity:.50196081;stroke-width:1.05833;stroke-linecap:round;stroke-linejoin:bevel" d="M0 171.98h92.604v92.603H0Z"/><path d="M142.229 147.928c-1.871-.815-4.245-3.492-4.698-5.297-.178-.707-.2-2.37-.051-3.697.484-4.3 4.218-6.155 6.93-3.444 1.142 1.142 1.283 1.625.999 3.403-.451 2.822.186 2.262 3.022-2.654 1.972-3.42 2.666-4.198 4.055-4.554 1.49-.382 2.209-1.344 6.466-8.666 2.634-4.53 4.79-8.745 4.79-9.367 0-2.783-6.243-5.934-8.217-4.148-1.715 1.552-2.982.997-2.68-1.173.227-1.62-.592-3.143-2.237-4.16-2.068-1.277-4.086-1.389-5.009-.276-.366.44-1.152.732-1.746.647-.906-.13-1.08-.518-1.08-2.4 0-1.734-.279-2.47-1.223-3.236-1.462-1.184-3.837-1.292-4.732-.214-.843 1.016-2.538.995-2.933-.036-.698-1.819 7.793-8.723 14.875-12.095 5.425-2.584 9.32-3.625 14.981-4.003 5.02-.335 9.026.282 13.466 2.076 2.583 1.043 3.178 1.13 3.674.532.325-.392 1.046-.712 1.602-.712.806 0 .98.304.854 1.497-.133 1.268.26 1.825 2.574 3.655 5.114 4.042 8.81 10.062 11.091 18.066 1.493 5.236 1.615 15.545.252 21.31-1.155 4.886-1.588 5.632-2.82 4.854-.652-.41-.876-1.096-.765-2.343.302-3.39-4.092-5.584-6.612-3.303-.842.762-1.177.814-1.814.286-.484-.402-.668-1.101-.483-1.836.845-3.367-4.972-6.47-7.626-4.068-1.404 1.27-2.677.54-2.272-1.305.615-2.8-4.27-6.743-7.354-5.934-.527.138-3.043 3.903-5.897 8.823-4.513 7.779-4.928 8.714-4.442 10.003.582 1.542-.448 3.98-4.092 9.687-2.704 4.234-6.886 5.808-10.848 4.082zm5.876-2.584c1.412-.731 6.39-8.43 6.512-10.072.04-.525-.328-.854-.952-.854-.723 0-1.734 1.225-3.52 4.268-2.779 4.732-4.07 5.549-6.382 4.034-1.078-.706-1.31-1.234-1.218-2.775.164-2.759.055-3.198-.79-3.198-1.81 0-2.451 4.267-.98 6.513 1.681 2.565 4.726 3.431 7.33 2.084zm47.502-22.907c.668-7.127-.497-14.051-3.418-20.327-.848-1.822-1.634-3.22-1.746-3.107-.113.114.035 1.488.327 3.055.709 3.804.17 12.2-1.126 17.507-1.262 5.173-1.25 4.753-.144 4.77.498.008 1.838.454 2.977.993 1.139.54 2.226 1 2.415 1.022.19.023.511-1.738.715-3.913zM187.58 117c1.729-8.378 1.148-16.456-1.552-21.568l-1.013-1.918-.023 2.48c-.034 3.71-1.402 9.665-3.7 16.106-1.129 3.161-2.103 5.967-2.164 6.234-.062.267.703.632 1.7.81 2.114.379 3.694 1.165 4.646 2.313.373.45.775.721.892.604.118-.118.664-2.395 1.214-5.061zm-9.219-4.07c2.076-5.322 3.567-11.199 3.875-15.272.286-3.777-.107-7.524-.785-7.493-.2.009-.997 1.057-1.769 2.33-.772 1.272-1.653 2.313-1.958 2.313-1.072 0-1.175-1.668-.22-3.542.532-1.042 1.05-2.07 1.153-2.283.349-.728-1.64-.39-3.771.641-3.4 1.646-8.746 6.371-13.027 11.516l-3.967 4.766 1.5.64c.826.353 1.776.652 2.112.665.336.013 1.478.842 2.539 1.842 1.06 1 1.986 1.758 2.056 1.683.07-.075 1.684-2.816 3.587-6.09 3.82-6.575 4.56-7.538 5.396-7.02 1.058.652.575 1.965-3.057 8.314-1.993 3.485-3.624 6.483-3.624 6.663 0 .18.592.327 1.315.327 1.71 0 5.247 1.815 6.053 3.105.79 1.263.975 1.04 2.592-3.105zm-17.133-15.052c3.449-3.927 6.664-6.828 10.539-9.51l2.07-1.435-2.632.279c-5.98.633-13.096 4.262-19.036 9.709l-3.547 3.252 2.165 1.019c1.19.56 2.66 1.689 3.265 2.507l1.1 1.49 1.317-1.696c.724-.932 2.865-3.46 4.759-5.615zm-12.538-1.265c4.25-4.14 8.082-6.903 12.204-8.798 1.993-.916 4.206-1.937 4.918-2.267 1.893-.878-5.004-.32-9.06.733-3.859 1.002-10.556 4.258-13.96 6.788-2.358 1.751-2.488 1.956-1.57 2.471.55.31 1.706 1.29 2.57 2.18.863.889 1.659 1.646 1.768 1.682.11.036 1.518-1.219 3.13-2.789z" style="fill:#000;fill-opacity:.501961;stroke:none;stroke-width:.868056" transform="translate(-119.722 16.748)"/><path d="M236.922 66.316c-.162-.422-.219-2.658-.126-4.968l.168-4.2 3.369-.173 3.369-.173-2.857-1.631c-3.437-1.963-7.545-6.392-9.206-9.925-3.684-7.838-2.957-16.015 2.493-28.072 3.702-8.188 3.698-7.797.068-7.496-2.855.237-3.208.123-5.167-1.673-1.68-1.54-2.155-2.436-2.362-4.46-.491-4.809 2.642-8.434 7.71-8.921 5.871-.564 10.697 2.83 11.883 8.357.343 1.6.623 3.278.623 3.73 0 .5.557.823 1.418.823 1.387 0 1.417-.092 1.417-4.292 0-4.127.05-4.285 1.276-4.11 1.17.165 1.29.519 1.443 4.291.16 3.942.223 4.111 1.559 4.111 1.387 0 1.393-.024 1.393-5.71 0-5.596.025-5.706 1.275-5.528 1.21.172 1.284.465 1.438 5.71.16 5.43.187 5.528 1.54 5.528 1.351 0 1.379-.098 1.538-5.528.154-5.245.228-5.538 1.438-5.71 1.25-.178 1.276-.068 1.276 5.528 0 5.686.007 5.71 1.393 5.71 1.335 0 1.4-.169 1.559-4.11.153-3.773.272-4.127 1.442-4.293 1.227-.174 1.276-.016 1.276 4.111 0 4.2.03 4.292 1.418 4.292 1.104 0 1.417-.29 1.417-1.314 0-2.558 1.695-6.973 3.247-8.46 5.862-5.614 15.62-3.676 16.941 3.366.986 5.254-2.268 8.911-7.58 8.519-3.537-.262-3.545-.637.147 7.529 5.45 12.057 6.177 20.234 2.493 28.072-1.66 3.533-5.769 7.962-9.206 9.925l-2.856 1.631 3.368.173 3.369.174v9.64l-22.554.147c-18.556.122-22.607.012-22.85-.62zm42.852-4.348V59.7h-40.258v4.536h40.258zm-11.034-5.966c11.079-2.828 17.663-9.965 18.27-19.802.328-5.311-.86-10.142-4.396-17.883-1.567-3.43-3.119-7.494-3.449-9.03-1.185-5.53.224-9.665 1.915-5.62 1.18 2.821 2.444 3.576 5.64 3.365 1.718-.113 3.26-2.176 3.26-4.361 0-3.09-2.503-5.343-5.937-5.343-4.664 0-7.887 2.64-8.531 6.986-.243 1.635.111 4.303 1.142 8.607 4.374 18.272 4.198 26.734-.662 31.738-2.719 2.8-5.831 4.132-11.54 4.939-5.45.77-12.704.027-16.616-1.703-8.724-3.86-10.376-13.1-5.794-32.423 1.51-6.37 1.988-9.44 1.735-11.158-.64-4.346-3.865-6.986-8.53-6.986-2.143 0-2.926.303-4.28 1.657-3.246 3.246-1.577 7.982 2.813 7.982 2.349 0 3.564-.956 4.566-3.59.794-2.09 1.968-1.665 2.214.799.31 3.103-.97 7.727-3.954 14.278-5.082 11.157-5.74 18.534-2.28 25.564 2.961 6.015 8.032 9.806 15.963 11.935 4.182 1.123 14.143 1.15 18.451.05zm-7.677-27.204V10.369h-2.835v36.857h2.835zm-5.67-.284V10.369h-2.836v36.29h2.835zm11.34 0V10.369h-2.835v36.29h2.835zm-17.144-.425-.15-17.436-1.766-.172c-1.532-.15-1.813.039-2.117 1.417-3.304 14.955-3.98 22.118-2.544 26.913.635 2.12 4.835 6.714 6.139 6.714.396 0 .539-5.681.438-17.436zm23.605 15.162c1.696-1.563 2.692-3.076 3.186-4.84 1.084-3.874.39-13.413-1.548-21.237-1.606-6.49-1.622-6.521-3.297-6.521h-1.683l-.15 17.436c-.102 11.755.041 17.436.437 17.436.324 0 1.698-1.024 3.055-2.274z" style="fill:#000;fill-opacity:.501961;stroke:none;stroke-width:.951297" transform="translate(-127.402 15.566)"/><path d="M233.455 223.415c-4.09-1.087-7.953-3.16-11.226-6.025l-2.846-2.49H205.35l-1.517-1.517c-1.947-1.947-2.055-4.546-.275-6.615 1.124-1.308 1.623-1.462 5.319-1.642 4.416-.215 5.375-.64 5.375-2.382 0-2.017-.957-2.375-6.357-2.375-3.455 0-5.584-.245-6.57-.754-2.95-1.526-3.347-5.992-.715-8.062 1.18-.928 2.099-1.044 8.251-1.044 6.813 0 6.938-.021 7.774-1.298.788-1.202.788-1.393 0-2.595-.49-.749-1.344-1.297-2.02-1.297-2.936 0-5.192-3.858-3.974-6.798 1.139-2.75 2.123-3.062 9.649-3.062 5.41 0 7.533-.218 10.134-1.04 9.923-3.139 19.537-1.074 26.605 5.714 7.363 7.07 9.828 17.127 6.54 26.681-4.25 12.344-17.871 19.853-30.115 16.6zm12.187-2.39c8.38-2.114 15.585-10.304 16.802-19.103 2.461-17.791-14.725-31.297-32.05-25.185-1.594.563-4.274.798-9.1.798-7.883 0-8.776.329-8.509 3.136.15 1.584.413 1.87 2.247 2.452 4.222 1.34 5.595 4.86 3.067 7.865l-1.343 1.596h-6.86c-6.935 0-8.128.284-8.736 2.076-.145.428-.076 1.284.154 1.9.39 1.048.82 1.135 6.465 1.298 5.887.17 6.08.214 7.299 1.632 1.646 1.916 1.654 4.504.018 6.406-1.114 1.295-1.65 1.46-5.568 1.716-4.145.27-4.358.344-4.83 1.693-.391 1.117-.295 1.632.46 2.465.869.961 1.576 1.054 8.057 1.054h7.104l3.065 2.682c6.531 5.717 14.064 7.584 22.258 5.518zm-11.928-2.668c-5.889-1.962-10.498-5.88-13.062-11.104-1.342-2.734-1.469-3.485-1.469-8.7 0-5.108.147-6.022 1.391-8.677 7.364-15.71 29.472-16.025 37.13-.528 1.873 3.787 1.959 4.19 1.959 9.178 0 4.58-.17 5.58-1.4 8.202-1.922 4.102-6.064 8.34-10.087 10.32-2.74 1.35-4.02 1.645-7.83 1.807-2.913.124-5.305-.055-6.632-.498zm4.51-3.323c.11-1.326.438-1.994 1.036-2.108.676-.128.912.285 1.038 1.812.161 1.958.184 1.977 2.23 1.85 2.824-.175 7.293-2.458 9.883-5.048 2.59-2.59 4.872-7.059 5.047-9.882.127-2.047.109-2.07-1.85-2.23-1.527-.126-1.94-.363-1.811-1.038.114-.603.786-.926 2.159-1.04 1.99-.164 1.992-.166 1.66-2.075-1.28-7.334-8.002-13.997-15.101-14.97l-2.314-.317v2.185c0 1.8-.16 2.154-.908 2.012-.634-.12-.956-.757-1.069-2.114-.138-1.66-.342-1.942-1.408-1.942-.685 0-2.598.505-4.25 1.123-5.633 2.105-11.566 9.642-11.566 14.694 0 1.065.282 1.27 1.942 1.408 1.357.112 1.993.434 2.114 1.069.141.748-.213.908-2.013.908h-2.184l.32 2.332c.884 6.454 6.223 12.46 12.943 14.56 3.542 1.107 3.92.997 4.102-1.19zm-10.232-3.79c-.381-.616-.503-.434 3.901-5.838 3.131-3.842 3.298-4.188 3.337-6.896.039-2.69-.083-2.972-2.164-5.015-1.213-1.19-2.206-2.453-2.206-2.804 0-1.573 1.331-1.152 3.682 1.164 2.288 2.253 2.754 2.492 4.606 2.358 1.633-.118 2.334.124 3.374 1.164 1.848 1.848 1.749 4.116-.269 6.134-1.331 1.331-1.863 1.535-3.366 1.29-1.721-.278-1.93-.12-5.72 4.348-3.927 4.629-4.544 5.117-5.175 4.095zm12.95-11.172c1.568-1.567.666-3.855-1.519-3.855-3.135 0-3.044 4.574.093 4.655.336.009.978-.351 1.427-.8zm-39.025-15.62c-.855-.343-2.195-2.942-2.195-4.257 0-.563.605-1.742 1.344-2.62 1.701-2.023 4.164-2.167 6.256-.367 3.89 3.345-.494 9.22-5.405 7.245zm3.93-2.35c1.323-1.324.39-4.049-1.387-4.049-.97 0-2.662 1.512-2.662 2.38 0 1.777 2.79 2.927 4.048 1.668z" style="fill:#000;fill-opacity:.501961;stroke:none;stroke-width:.671765" transform="translate(-99.635 19.702)"/><path d="M288.95 112.531c-6.23-3.91-10.094-6.968-11.093-8.781-.89-1.614-1.069-11.87-.218-12.448.358-.244-.837-1.812-2.861-3.757-3.396-3.263-3.466-3.396-3.094-5.842.62-4.06.556-5.251-.533-9.953-2.244-9.688-.073-18.66 5.95-24.599 9.122-8.992 26.914-9.947 37.63-2.02 4.126 3.053 7.557 8.416 8.605 13.454.817 3.927.366 11.54-.947 15.96-.666 2.242-.747 3.476-.305 4.64 1.293 3.4.792 4.923-2.77 8.43-1.857 1.826-3.117 3.497-2.802 3.712.818.56.599 10.865-.265 12.432-.887 1.61-6.085 5.646-12.024 9.335-6.322 3.927-8.231 3.857-15.274-.563zm16.783-3.972c8.232-5.528 8.851-6.346 8.277-10.939-.366-2.93-.546-3.326-1.096-2.403-3.027 5.079-4.157 6.391-5.356 6.22-.796-.113-1.336-.689-1.459-1.556-.26-1.829-2.022-1.487-2.487.482-.434 1.838-2.118 2.278-2.54.663-.225-.86-.651-1.093-1.567-.853-.692.18-1.258.7-1.258 1.154 0 .453-.537.824-1.192.824-.656 0-1.193-.37-1.193-.824 0-1.413-2.24-1.558-3.14-.202-.937 1.41-2.225.949-2.225-.797 0-.637-.112-1.157-.249-1.157s-.64-.15-1.119-.334c-.578-.222-.997.177-1.252 1.192-.21.84-.793 1.526-1.294 1.526-1.176 0-3.458-2.472-4.703-5.095-.537-1.132-1.165-2.057-1.395-2.056-.23 0-.5 1.59-.6 3.531-.162 3.168-.01 3.716 1.49 5.339.92.995 4.34 3.563 7.603 5.708 7.936 5.216 8.374 5.205 16.755-.423zm-9.87-12.667c0-1.093.317-1.49 1.192-1.49.882 0 1.192.397 1.192 1.532 0 1.247.249 1.496 1.34 1.34.863-.122 1.41-.669 1.533-1.53.206-1.45 1.25-1.749 2.332-.667 1.199 1.199 2.384.082 2.79-2.627.219-1.453.962-3.249 1.652-3.99 1.054-1.13 1.69-1.298 3.96-1.042 2.447.276 2.95.1 5.282-1.85l2.577-2.154-.37-3.622c-.26-2.526-.057-4.917.67-7.905 2.817-11.591-1.353-21.89-10.738-26.52-8.744-4.314-20.358-3.493-27.973 1.975-7.01 5.034-9.81 14.727-7.145 24.73.637 2.39.837 4.798.61 7.36l-.335 3.806 2.519 2.25c2.324 2.075 2.73 2.225 5.26 1.933 2.317-.268 2.935-.108 4 1.035.692.743 1.437 2.54 1.655 3.994.38 2.528 1.973 4.224 2.496 2.655.411-1.232 1.933-.756 2.52.787.347.913 1.034 1.49 1.773 1.49.89 0 1.207-.39 1.207-1.49zm-3.225-5.603c-1.336-1.476-1.178-3.473.544-6.867.819-1.613 1.488-3.37 1.488-3.904 0-2.645 3.281-3.237 4.233-.764.347.902 1.28 2.985 2.074 4.63 2.737 5.671 1.584 7.952-4.018 7.952-2.461 0-3.63-.283-4.321-1.047zm5.277-2.472c.526.436 1.128.622 1.337.413.385-.385-1.646-5.139-2.197-5.142-.486-.004-2.874 4.666-2.552 4.988.163.162.781-.008 1.375-.38.824-.514 1.307-.485 2.037.12zm-19.069-6.8c-1.2-1.201-1.463-2.055-1.463-4.76 0-2.8.262-3.59 1.74-5.243 1.686-1.889 1.9-1.953 7.166-2.155 7.08-.273 8.381.443 8.381 4.606 0 3.53-1.522 5.41-6.105 7.544-4.19 1.95-7.773 1.953-9.719.008zm9.322-2.9c2.752-1.45 4.381-3.795 3.76-5.413-.379-.988-1.503-1.183-6.388-1.11-4.38.066-6.24 2.4-4.993 6.266.453 1.402.852 1.64 2.762 1.64 1.227 0 3.414-.623 4.86-1.384zm18.356 3.54c-2.679-.957-5.704-3.075-6.49-4.544-.327-.612-.595-2.33-.595-3.82 0-3.962 1.391-4.704 8.32-4.434 4.897.19 5.505.349 6.977 1.821 1.29 1.292 1.662 2.302 1.86 5.067.221 3.062.077 3.64-1.272 5.094-1.216 1.31-2.036 1.634-4.084 1.613-1.409-.015-3.531-.373-4.716-.797zm6.86-3.1c.683-1.78.36-4.292-.723-5.63-.938-1.158-1.664-1.342-5.378-1.364-2.361-.014-4.57.252-4.91.59-1.581 1.583 1.031 5.158 4.902 6.709 2.318.928 5.7.76 6.109-.306zm-27.869 16.59c-.161-.574-.469-1.915-.683-2.98-.327-1.62-.65-1.931-1.982-1.896-.876.023-2.129.273-2.784.554-.992.427-.86.52.789.554 1.732.037 2.108.342 2.98 2.42.989 2.353 2.248 3.363 1.68 1.348zm24.654-1.341c1.029-2.017 1.513-2.391 3.141-2.427 1.617-.035 1.735-.124.733-.554-.655-.281-1.908-.53-2.784-.554-1.331-.035-1.655.275-1.982 1.896-.214 1.065-.522 2.406-.683 2.98-.516 1.832.318 1.121 1.575-1.341z" style="fill:#000;fill-opacity:.501961;stroke:none" transform="translate(-39.545 64.716) scale(.86806)"/></svg>