<?xml version="1.0" encoding="UTF-8" standalone="no"?>
<svg
   width="1000"
   height="1000"
   viewBox="0 0 264.58333 264.58333"
   xml:space="preserve"
   version="1.1"
   id="svg34"
   sodipodi:docname="econcompass.svg"
   inkscape:version="1.2 (dc2aedaf03, 2022-05-15)"
   xmlns:inkscape="http://www.inkscape.org/namespaces/inkscape"
   xmlns:sodipodi="http://sodipodi.sourceforge.net/DTD/sodipodi-0.dtd"
   xmlns="http://www.w3.org/2000/svg"
   xmlns:svg="http://www.w3.org/2000/svg"><defs
     id="defs38" /><sodipodi:namedview
     id="namedview36"
     pagecolor="#505050"
     bordercolor="#eeeeee"
     borderopacity="1"
     inkscape:showpageshadow="0"
     inkscape:pageopacity="0"
     inkscape:pagecheckerboard="0"
     inkscape:deskcolor="#505050"
     showgrid="false"
     inkscape:zoom="0.525"
     inkscape:cx="307.61905"
     inkscape:cy="500.95238"
     inkscape:window-width="1366"
     inkscape:window-height="705"
     inkscape:window-x="-8"
     inkscape:window-y="-8"
     inkscape:window-maximized="1"
     inkscape:current-layer="svg34" /><path
     style="fill:#ffc100;fill-opacity:1;stroke:none;stroke-width:1.05833;stroke-linecap:round;stroke-linejoin:bevel"
     d="M264.58333 264.58333H-.000002L132.29167 132.29167Z"
     id="path2" /><path
     style="fill:#b900d3;fill-opacity:1;stroke:none;stroke-width:1.05833;stroke-linecap:round;stroke-linejoin:bevel"
     d="M0 0h264.58333L132.29166 132.29166Z"
     id="path4" /><path
     style="fill:#1fe545;fill-opacity:1;stroke:none;stroke-width:1.05833;stroke-linecap:round;stroke-linejoin:bevel"
     d="M264.58332.00000267V264.58334L132.29167 132.29167Z"
     id="path6" /><path
     style="fill:#ff0c57;fill-opacity:1;stroke:none;stroke-width:1.05833;stroke-linecap:round;stroke-linejoin:bevel"
     d="M.00000133 264.58332V-.00000317L132.29167 132.29167Z"
     id="path8" /><path
     style="fill-opacity:.50196081;stroke-width:1.05833;stroke-linecap:round;stroke-linejoin:bevel;fill:silver"
     d="M92.604164 92.604164h79.374996v79.374996H92.604164Z"
     id="path10" /><path
     style="fill:#dc0695;fill-opacity:.50196081;stroke:none;stroke-width:1.05833;stroke-linecap:round;stroke-linejoin:bevel"
     d="M0 0v92.604166h92.604166V0Z"
     id="path12" /><path
     style="fill:#6c738c;fill-opacity:.50196081;stroke:none;stroke-width:1.05833;stroke-linecap:round;stroke-linejoin:bevel"
     d="M171.97916 0v92.604163h92.60417V0Z"
     id="path14" /><path
     style="fill:#8fd323;fill-opacity:.50196081;stroke:none;stroke-width:1.05833;stroke-linecap:round;stroke-linejoin:bevel"
     d="M171.97916 171.97917v92.60416h92.60417v-92.60416z"
     id="path16" /><path
     style="fill:#ff672c;fill-opacity:.50196081;stroke:none;stroke-width:1.05833;stroke-linecap:round;stroke-linejoin:bevel"
     d="M0 171.97917v92.60417h92.604163v-92.60417z"
     id="path18" /><path
     d="M189.18188 53.360493c-6.3868-2.38921-6.74357-2.83229-5.38325-6.68558.81035-2.2954.80193-2.36972-.37051-3.272-1.51624-1.16688-1.55705-1.16532-3.77531.14349-3.05851 1.80455-3.87107 1.32723-7.22203-4.24246-1.65161-2.74516-3.019-5.53225-3.03866-6.19354-.0262-.87932.59498-1.58508 2.31192-2.62695 1.84041-1.1168 2.35122-1.73279 2.36424-2.85094.0179-1.58601-.81791-2.19468-3.73967-2.72153-3.10171-.55931-3.31221-1.17267-2.31468-6.74436 1.07448-6.001555 1.72174-8.116015 2.58593-8.4476288.367-.14083 1.71501-.05382 2.99558.193345 1.28057.2471788 2.47695.4597088 2.65861.4722888.18168.0125.62107-.6790838.97645-1.5370438.59268-1.43086.51102-1.730525-.98704-3.62198-.89826-1.134135-1.63318-2.431165-1.63318-2.882295 0-.861205 9.63829-9.273654 10.62499-9.273654.31398 0 1.48693.96296 2.60654 2.139915 1.76176 1.851995 2.24564 2.09379 3.59638 1.797115 1.4606-.3208 1.56073-.50115 1.56073-2.81109 0-1.38368.35939-2.981405.81787-3.635985.76717-1.0952912 1.20506-1.1676862 7.06297-1.1676862s6.2958.0724 7.06297 1.1676862c.45849.65458.81788 2.252305.81788 3.635985 0 2.30994.10014 2.49029 1.56073 2.81109 1.35074.296675 1.83462.05488 3.59638-1.797115 1.11961-1.176955 2.29255-2.139915 2.60654-2.139915.9867 0 10.62498 8.412449 10.62498 9.273654 0 .45113-.73493 1.74816-1.63317 2.882295-1.49807 1.891455-1.57972 2.19112-.98704 3.621985.35537.85796.79477 1.5496288.97644 1.5370438.18166-.0125 1.37805-.225115 2.65862-.4722888 1.28057-.247175 2.62857-.33418 2.99557-.19335.86419.3316188 1.51146 2.4460788 2.58595 8.4476388.99751 5.57169.78701 6.18505-2.31469 6.74435-2.92176.52686-3.75814 1.13553-3.73968 2.72153.0131 1.11816.52385 1.73414 2.36426 2.85095 1.71692 1.04187 2.33804 1.74762 2.3119 2.62694-.0196.66129-1.38704 3.44838-3.03865 6.19355-3.35096 5.56969-4.16352 6.04701-7.22203 4.24245-2.21827-1.30881-2.25907-1.31036-3.77531-.14349-1.17244.90229-1.18086.97661-.37052 3.272 1.37665 3.89954 1.04848 4.282-5.81976 6.78233-5.83215 2.12314-6.13736 2.17909-7.106 1.30249-.55666-.50376-1.28391-1.82315-1.61612-2.93197-.55834-1.86357-.75036-2.01602-2.53925-2.01602-1.79893 0-1.97908.14637-2.55784 2.07809-.66576 2.2221-1.85701 3.73721-2.86493 3.64383-.34057-.0316-3.16437-1.00948-6.27511-2.17317zm6.79496-3.78613c.91187-2.63605 1.36061-2.8971 4.99674-2.90691 3.3475-.009 4.34688.63788 4.904 3.17437.19533.8894.64434 1.72805.99779 1.86369 1.13108.43402 8.47537-2.70175 8.24476-3.52027-.11432-.40576-.45592-1.61393-.75911-2.68483-.63032-2.22637-.16016-2.98886 3.33763-5.41282l2.01804-1.39851 2.37042 1.38916 2.37042 1.38915.7438-1.21307c.4091-.66719 1.4886-2.45951 2.3989-3.98294l1.6551-2.76986-2.35071-1.41988c-1.29289-.78094-2.43049-1.78054-2.52799-2.22134-.28439-1.28577 1.02711-6.41407 1.75545-6.86421.3661-.22626 1.70124-.56668 2.96699-.75649 1.82935-.27433 2.24724-.52635 2.03744-1.22875-.14517-.486-.53681-2.49046-.8703-4.45437l-.60637-3.570735-2.94074.1557-2.94076.1557-1.72957-2.62094c-.95128-1.4415038-1.72959-2.8866538-1.72959-3.2114288 0-.324775.71552-1.49087 1.59005-2.59132.87453-1.10045 1.5247-2.16942 1.44482-2.375495-.0799-.20607-1.64532-1.62345394-3.47875-3.14974394l-3.33352-2.77506506-1.30427 1.666545c-2.08161 2.65981006-2.79568 2.828365-6.27836 1.48201006l-3.08819-1.19384506-.15757-2.9918-.15756-2.9918h-9.35214l-.15757 2.9918-.15757 2.9918-3.08818 1.19384506c-3.48268 1.34635494-4.19675 1.1778-6.27836-1.48201006l-1.30426-1.666545-3.33353 2.77506506c-1.83343 1.52629-3.39888 2.94367394-3.47874 3.14974394-.0799.206075.57029 1.275045 1.44481 2.375495.87453 1.10045 1.59005 2.266545 1.59005 2.59132 0 .324775-.77831 1.769925-1.72958 3.2114438l-1.72958 2.62094-2.94075-.1557-2.94076-.1557-.60635 3.57074c-.33349 1.9639-.72513 3.96837-.87031 4.45437-.2098.70239.2081.95442 2.03744 1.22874 1.26575.18982 2.60091.53024 2.967.75649.72833.45014 2.03984 5.57845 1.75545 6.86421-.0975.44081-1.2351 1.44041-2.528 2.22134l-2.3507 1.41988 1.65509 2.76987c.91031 1.52342 1.98981 3.31574 2.3989 3.98294l.74381 1.21306 2.37042-1.38916 2.37042-1.38915 2.01804 1.3985c3.49778 2.42397 3.96794 3.18646 3.33762 5.41283-.3032 1.0709-.64479 2.27979-.75911 2.68643-.14048.49973.98412 1.21475 3.46988 2.20616 2.02275.80676 4.00884 1.41975 4.41354 1.36222.40469-.0575 1.05901-1.03893 1.45402-2.18085zm-.0883-8.87407c-5.55781-1.84552-10.26378-5.88895-12.4734-10.71731-1.64283-3.58981-1.63909-11.40091.007-14.99972 2.82933-6.1851338 9.53613-10.7922788 16.42864-11.2854338 3.87444-.277215 5.75732.376755 5.75732 1.999665 0 .925205-.37164 1.032295-3.58237 1.032295-5.64913 0-8.69843 1.16302-12.17565 4.6438688-4.571 4.575765-5.94409 10.519235-3.85169 16.672165 1.27801 3.75809 5.91333 8.26766 9.63392 9.37255 5.93187 1.76159 11.45529.66047 15.66278-3.12242 3.64315-3.27551 4.99136-6.25951 5.33341-11.80448.25359-4.11093.36794-4.47896 1.43903-4.63127.88548-.12591 1.24693.16673 1.51239 1.22442.58016 2.31151-.12198 8.24013-1.29267 10.91507-1.62967 3.72361-5.78741 7.84652-9.66989 9.58888-3.84846 1.72707-9.4124 2.21303-12.72898 1.11172zm16.34133-29.08476c-3.17563-3.1503988-3.7818-4.8857438-1.70662-4.8857438 1.56813 0 6.77961 5.3388388 6.33712 6.4919738-.62363 1.62515-1.77627 1.225334-4.6305-1.60623z"
     style="fill:#000;fill-opacity:.501961;stroke:none;stroke-width:.868055;stroke-opacity:1"
     transform="translate(-154.57768 109.82682)"
     id="path20" /><path
     d="M345.36519 131.77835c-.19095-.19096-.3472-12.63359-.3472-27.65028V76.824986l3.97755-5.420904c2.35581-3.210673 4.34008-5.420904 4.8667-5.420904.53279 0 2.48713 2.220786 4.87617 5.54096l3.987 5.540963v9.229516h6.77049v-9.229516l3.987-5.540963c2.36028-3.280188 4.34593-5.54096 4.86672-5.54096.52077 0 2.50643 2.260772 4.86669 5.54096l3.98701 5.540963v9.229516h6.77048v-9.20672l4.00302-5.552359c2.34761-3.25624 4.3641-5.55236 4.87617-5.55236.50635 0 2.54592 2.279782 4.8553 5.427207l3.98219 5.427208-.13482 27.513777-.13482 27.51378-8.29371.14389c-6.28619.10906-8.3958-.0171-8.71553-.52081-.232-.36558-.42541-2.24664-.4298-4.18013l-.008-3.51544h-6.77048v3.34264c0 5.30209.55327 4.99025-8.85371 4.99025-9.40698 0-8.85371.31184-8.85371-4.99025v-3.34265h-6.77041v3.34265c0 5.30089.54921 4.99025-8.82263 4.99025-4.50471 0-8.34662-.15623-8.53758-.3472zm14.23538-28.18124V77.672684l-2.61298-3.631326c-1.43713-1.997231-2.80869-3.697907-3.04789-3.779281-.2392-.08137-1.64135 1.505553-3.11589 3.526504l-2.68097 3.67446v52.058479h11.45774zm-6.94408 14.64029c-.63592-.63593-.35802-2.64112.46015-3.32013 1.19686-.99331 2.56866.51248 2.11468 2.32124-.32085 1.27839-1.74344 1.83028-2.57483.99889zm0-22.915477c-.63592-.635919-.35802-2.64112.46015-3.320131 1.19686-.993303 2.56866.512487 2.11468 2.321241-.32085 1.278402-1.74344 1.830283-2.57483.99889zm31.42199 8.260117V77.642557l-2.63953-3.746465c-1.45173-2.060554-2.81272-3.746464-3.0244-3.746464-.21167 0-1.54329 1.576091-2.95914 3.502424l-2.57427 3.502423-.26041 5.741885-.26038 5.741885-4.94767.260404-4.94768.260402-.15211 4.036247-.1521 4.036249h7.79303l.16165-1.953025c.12844-1.551938.37555-1.953022 1.20326-1.953022 1.019 0 1.04459.392854 1.17856 18.09801l.13694 18.09801h11.44425zm-7.08849 13.65647c-.2284-.90999-.0629-1.62106.51088-2.19483.78444-.78444.91303-.78444 1.69747 0 .57378.57377.73928 1.28484.51088 2.19483-.45845 1.82662-2.26078 1.82662-2.71923 0zm0-22.915477c-.2284-.909993-.0629-1.621061.51088-2.194824.78444-.78444.91303-.78444 1.69747 0 1.14281 1.142804.56799 3.540919-.84872 3.540919-.66447 0-1.13993-.470721-1.35963-1.346095zm31.5664 9.169247V77.463041l-2.66803-3.656706c-1.46742-2.011189-2.83107-3.656707-3.03035-3.656707-.19927 0-1.51805 1.581949-2.93063 3.51544l-2.56833 3.515443-.26041 19.530228-.26039 19.530231-1.13849.16206c-.97769.13917-1.16157-.11826-1.30201-1.82282l-.16353-1.98488h-7.2913v7.81209l4.94767.2604 4.94766.2604.15127 4.29665.15127 4.29665h11.41562zm-7.01502 14.10074c-.34566-1.08911.46943-3.17488 1.24069-3.17488.83855 0 1.68681 1.51224 1.51764 2.70558-.2263 1.59638-2.28921 1.94737-2.75833.4693zm-.065-23.236176c-.46883-1.868009.89504-3.360228 2.13254-2.333199 1.22202 1.014182.80654 3.344422-.63279 3.549091-.87813.124875-1.23607-.165327-1.49975-1.215892zM369.7563 116.50137v-3.90604h-7.29129l-.15254 4.05951-.15252 4.05952 3.79818-.15348 3.79817-.15346zm-.26041-11.45773v-4.68726h-6.77048v9.37451h6.77048zm24.47791.5208v-4.16645h-6.77048v8.3329h6.77048zm.41089-11.848336-.15049-4.557053h-7.29128l-.15466 3.857306c-.0851 2.121519-.0339 4.172194.11385 4.557053.18976.494494 1.34862.699748 3.95078.699748h3.68227z"
     style="fill:#000;fill-opacity:.501961;stroke:none;stroke-width:.868056"
     transform="translate(-160.07298 33.235578)"
     id="path22" /><g
     style="stroke:none;fill:#000;fill-opacity:.50196081"
     id="g28"><path
       d="m198.35112 80.28743-1.26937-1.269371V22.554442l1.26937-1.269374c1.24226-1.242248 1.44669-1.269374 9.56733-1.269374h8.29794v-1.522132c0-2.457556 1.52861-3.132238 7.09664-3.132238 5.30724 0 6.86648.76333 6.86648 3.36149v1.29288h8.21717c9.95257 0 10.41963.209259 10.80367 4.840433l.24412 2.943651 2.74823-2.59916c2.43072-2.298868 3.00738-2.599162 4.99131-2.599162 1.23369 0 2.76162.363204 3.39541.807121 2.34805 1.644647 3.3451 5.225294 2.12477 7.6306-.3152.621277-3.44967 4.038575-6.96549 7.593997l-6.39237 6.464401-.14536 17.241526-.14536 17.241533-1.22089.988085c-1.1618.940271-2.35799.988086-24.71754.988086h-23.49669zm48.06338-2.134412c.45987-1.198391.38415-30.211105-.0789-30.211105-.21601 0-.73963.523616-1.16359 1.163593-.61342.925965-.82365 3.8567-1.02942 14.350974l-.25858 13.187381-20.36723.135355c-14.60432.09705-20.56719-.03061-21.07395-.451192-.97248-.807072-1.05565-50.067908-.0862-51.037378.37659-.376593 2.20652-.620582 4.65438-.620582 3.71137 0 4.03378-.08406 4.03378-1.0518 0-1.001508-.26583-1.044782-5.55938-.905018l-5.5594.14679-.13447 27.409066c-.0738 15.074989-.0231 27.699964.11316 28.055506.19293.503737 5.31908.646442 23.22167.646442 20.4724 0 23.00838-.08907 23.28811-.818028zm-4.45927-14.825825c.12578-9.65641-.16926-12.38723-1.08149-10.009967-.38218.995931-14.7426 8.215397-15.64934 7.867446-1.21053-.464525-.87794-1.591805 2.42188-8.208477 2.91709-5.849199 3.58301-6.762482 8.81537-12.089811l5.65992-5.762649-.15305-3.804667-.15307-3.804665-3.25676-.154608c-2.86009-.135766-3.44755.0059-4.82335 1.163591-1.55185 1.305795-1.65399 1.318195-10.85915 1.318195-9.22254 0-9.3023-.0098-10.58545-1.292882-1.112-1.111998-1.75989-1.292879-4.63087-1.292879h-3.33798v47.073758l18.74677-.135747 18.7468-.135746zm-11.54146-7.193856c1.50623-.686286 1.62372-1.087421.5737-1.95887-.60619-.50308-.89525-.323705-1.56475.97098-.91989 1.778874-.86503 1.833567.99105.98789zm5.96654-2.840609c1.30124-.768669 1.39504-1.005265.92874-2.342898-.64641-1.854272-3.24779-3.351721-4.30232-2.476555-1.43878 1.194082-1.404 2.528563.1077 4.130137 1.71451 1.816517 1.45166 1.761041 3.26595.689316zm11.85065-11.249084c6.16814-6.177778 7.87469-8.174717 7.59929-8.892394-.28904-.753194-1.88305.600133-8.56122 7.268521-4.93426 4.927019-8.09923 8.472478-7.93808 8.892395.14739.384095.42043.698356.60677.698356.18633 0 3.9183-3.585095 8.29324-7.966878zm-2.64139-3.564353c4.34436-4.351142 7.73535-8.074637 7.53555-8.274435-.19979-.199799-.73456-.363269-1.18836-.363269-1.01476 0-16.76567 15.679372-16.25945 16.185601.9926.992602 2.62987-.254125 9.91226-7.547897zm.19309-6.907824c.73547-.665587.94575-1.619934.94575-4.292364 0-1.983283-.26243-3.698911-.62058-4.057065-.40235-.40234-2.49384-.620582-5.94727-.620582-4.94664 0-5.32668.07235-5.32668 1.01417 0 .918803.42552 1.028221 4.5251 1.163592l4.52509.149429.15194 3.749352c.0836 2.062145.29797 3.749354.47644 3.749354.17847 0 .75006-.385145 1.27022-.85588zm14.90887-3.112907c0-2.961796-4.0112-4.314549-6.12421-2.065354l-1.13297 1.205989 1.26569.576688c.69613.317177 1.79072 1.286828 2.43243 2.15478l1.16674 1.578093 1.19616-1.123731c.65789-.618053 1.19616-1.664963 1.19616-2.326465zm-28.54296-3.659208.15911-2.197896h-18.67696v1.509159c0 3.252389-.21842 3.182755 9.49795 3.027876l8.86097-.141238zm-4.65179-5.688675c-.14406-.754898-.85069-.93032-4.25954-1.057576-3.91052-.145988-4.91571.174154-4.94431 1.574729-.004.213325 2.10361.387864 4.68438.387864 4.1899 0 4.67378-.09689 4.51947-.905017z"
       style="stroke-width:.868707;stroke:none;fill:#000;fill-opacity:.50196081"
       transform="translate(-97.863004 -2.1569829)"
       id="path26" /></g><g
     style="fill:#000;fill-opacity:.501961;stroke:none"
     id="g32"><path
       d="M195.83539 236.35322c-3.51423-1.5301-5.11355-5.60165-3.72124-9.47353l.79244-2.20366h-2.70391c-1.95972 0-3.18758-.32548-4.46123-1.18256-5.22021-3.51288-2.45912-11.22976 4.01799-11.22976 2.07666 0 2.23952-.0947 2.00069-1.16365-1.96397-8.79-1.95959-8.66277-.29829-8.66277.76828 0 1.1185.77325 1.81541 4.00814.47492 2.20448.97943 4.41543 1.12112 4.91322.31288 1.09913 2.77383 1.25546 2.77383.17621 0-1.42648-7.6931-35.42106-8.25243-36.4662-.73582-1.37489-2.07178-1.68134-6.49799-1.49049-3.21278.13853-3.60944.2693-3.60944 1.18999 0 .92595.39561 1.05033 3.77467 1.18681 2.66081.10748 3.85719.36748 4.05429.88113.65181 1.69861 2.5611 10.98073 2.37408 11.54178-.11233.33701-.63461.61273-1.16062.61273-.78966 0-1.15769-.90164-2.11111-5.1718l-1.15473-5.1718h-3.04109c-2.53924 0-3.25058-.20949-4.31054-1.26944-1.63558-1.6356-1.61728-3.60153.0491-5.26788 1.25773-1.25772 1.54332-1.31027 6.19704-1.14014 4.66662.1706 4.94851.24837 6.48982 1.79046 1.29765 1.29833 1.83 2.55669 2.7349 6.46476l1.12362 4.85263 2.43035.157 2.43035.15698.14496-6.62174.14496-6.62174 12.25428-.1386 12.25428-.13858.15801 2.4659.15803 2.46589 5.17179.25859 5.17179.2586.15104 4.00814.15105 4.00815h2.49441c2.87795 0 5.21829 1.46541 5.22223 3.26991.005 2.32423-6.84875 24.91472-7.91255 26.08006l-1.06225 1.16365h-22.66574c-21.97617 0-22.69721.0314-23.7001 1.03436-1.32984 1.32984-1.32984 3.84196 0 5.1718 1.00398 1.00398 1.72393 1.03436 24.51068 1.03436 19.46818 0 23.52301.1217 23.74983.71275.47032 1.22565-.78375 1.87314-3.62794 1.87314-1.50758 0-2.74106.0807-2.74106.17913 0 .0985.37686.93458.83747 1.85788 2.31115 4.63283-1.65341 10.37965-7.1563 10.37338-5.10482-.006-8.73812-6.2447-6.33877-10.88452l.78904-1.52587h-11.79349l.79243 2.20367c2.31646 6.44181-3.76531 12.1947-10.01512 9.47353zm6.54839-3.36253c1.11923-1.11923 1.51176-2.00241 1.51176-3.40145 0-2.62767-2.28554-4.91321-4.91321-4.91321s-4.9132 2.28554-4.9132 4.91321c0 1.39904.39253 2.28222 1.51176 3.40145 2.08646 2.08647 4.71642 2.08647 6.80289 0zm-4.50604-2.88081c-.17913-.46682-.0777-1.09674.22539-1.39984.78798-.78799 2.28097-.0678 2.07514 1.00099-.22927 1.19049-1.8865 1.4778-2.30053.39885zm28.29628 2.88081c1.11922-1.11923 1.51176-2.00241 1.51176-3.40145 0-2.62767-2.28554-4.91321-4.91321-4.91321s-4.9132 2.28554-4.9132 4.91321c0 1.39904.39252 2.28222 1.51176 3.40145 2.08646 2.08647 4.71642 2.08647 6.80289 0zm-4.52071-2.91903c-.47064-1.22646.63241-2.09146 1.6209-1.27108.61256.50837.66428.83574.21718 1.37446-.77447.93317-1.455.8949-1.83808-.10338zm-15.33495-19.74738c-.16239-1.06668-.45494-3.62672-.6501-5.68898l-.35484-3.74955h-3.81202c-2.70327 0-3.81287.18804-3.81495.64647-.002.35557.50232 2.91561 1.11985 5.68899l1.12278 5.0425h6.68455zm9.4723-3.74955v-5.68898h-4.19351c-4.08564 0-4.18641.0299-3.91805 1.16366.15149.64.42817 2.79277.61483 4.78391.52939 5.64738.36277 5.43039 4.16991 5.43039h3.32682zm9.52402 2.19801c.1967-1.92003.49463-4.49045.66206-5.71205l.30441-2.22109-4.0816.15236-4.0816.15237-.14989 4.87441c-.0825 2.68093-.0316 5.18279.11305 5.55969.18036.47003 1.30151.68527 3.56944.68527h3.30648zm7.54288 3.36059c0-.0717.69819-2.57308 1.55154-5.5586.85335-2.98551 1.55154-5.48688 1.55154-5.55859 0-.0717-1.61343-.13038-3.5854-.13038-4.12624 0-3.92007-.26471-4.43088 5.68898-.18304 2.13337-.44814 4.28613-.58913 4.78392-.22213.78428.12791.90506 2.623.90506 1.58363 0 2.87933-.0587 2.87933-.13038zm-28.19438-16.29009c-.16629-1.35113-.46565-3.85299-.66524-5.55968l-.36289-3.10308-4.52436-.14944c-3.42376-.11308-4.5251.0127-4.52732.51718-.002.36664.50232 2.93574 1.11985 5.70912l1.12278 5.0425h8.13952zm11.12748-3.23237v-5.68898h-9.94153l.29889 1.68084c.16439.92445.45511 3.48449.64607 5.68897l.34719 4.00815h8.64938zm11.03284 3.23237c.16795-1.35113.46072-3.91117.65061-5.68898l.34526-3.23237h-9.96v5.34419c0 2.93931.15514 5.49935.34479 5.68898.18962.18963 2.13785.34479 4.32939.34479h3.98461zm11.43505-2.49342c.77262-2.72251 1.27715-5.28255 1.1212-5.68898-.21467-.55939-1.34-.73895-4.63118-.73895h-4.3476l-.31174 1.55864c-.17145.85725-.46673 3.4173-.65618 5.68898l-.34446 4.13034h7.76522zm-21.84318-13.02198.15106-4.00814 2.4566-.15763c2.21793-.14232 2.4566-.28049 2.4566-1.42224v-1.26462h-20.16998V184.336h14.95468zm15.40784 1.16366v-2.84449h-12.92948v5.68898h12.92948zm-42.87194 15.2903c-.88058-.54443-.38033-2.10221.67509-2.10221 1.13551 0 1.55995 1.03578.75441 1.84106-.44443.44429-.97617.54143-1.4295.26115z"
       style="fill:#000;fill-opacity:.501961;stroke:none;stroke-width:.868972"
       transform="translate(-76.804723 14.302686)"
       id="path30" /></g></svg>
