<svg width="1000" height="1000" viewBox="0 0 264.583 264.583" xml:space="preserve" xmlns="http://www.w3.org/2000/svg"><path style="fill:#ffc100;fill-opacity:1;stroke:none;stroke-width:1.05833;stroke-linecap:round;stroke-linejoin:bevel" d="M264.583 264.583H0l132.292-132.291Z"/><path style="fill:#b900d3;fill-opacity:1;stroke:none;stroke-width:1.05833;stroke-linecap:round;stroke-linejoin:bevel" d="M0 0h264.583L132.292 132.292Z"/><path style="fill:#1fe545;fill-opacity:1;stroke:none;stroke-width:1.05833;stroke-linecap:round;stroke-linejoin:bevel" d="M264.583 0v264.583L132.292 132.292Z"/><path style="fill:#ff0c57;fill-opacity:1;stroke:none;stroke-width:1.05833;stroke-linecap:round;stroke-linejoin:bevel" d="M0 264.583V0l132.292 132.292Z"/><path style="fill-opacity:.50196081;stroke-width:1.05833;stroke-linecap:round;stroke-linejoin:bevel;fill:silver" d="M92.604 92.604h79.375v79.375H92.604Z"/><path style="fill:#dc0695;fill-opacity:.50196081;stroke:none;stroke-width:1.05833;stroke-linecap:round;stroke-linejoin:bevel" d="M0 0v92.604h92.604V0Z"/><path style="fill:#6c738c;fill-opacity:.50196081;stroke:none;stroke-width:1.05833;stroke-linecap:round;stroke-linejoin:bevel" d="M171.98 0v92.604h92.603V0Z"/><path style="fill:#8fd323;fill-opacity:.50196081;stroke:none;stroke-width:1.05833;stroke-linecap:round;stroke-linejoin:bevel" d="M171.98 171.98v92.603h92.603V171.98z"/><path style="fill:#ff672c;fill-opacity:.50196081;stroke:none;stroke-width:1.05833;stroke-linecap:round;stroke-linejoin:bevel" d="M0 171.98v92.603h92.604V171.98z"/><path d="M189.182 53.36c-6.387-2.389-6.744-2.832-5.383-6.685.81-2.295.802-2.37-.37-3.272-1.517-1.167-1.558-1.165-3.776.143-3.059 1.805-3.871 1.328-7.222-4.242-1.652-2.745-3.02-5.532-3.039-6.194-.026-.879.595-1.585 2.312-2.627 1.84-1.116 2.351-1.732 2.364-2.85.018-1.586-.818-2.195-3.74-2.722-3.101-.56-3.312-1.173-2.314-6.744 1.074-6.002 1.722-8.116 2.586-8.448.367-.14 1.715-.054 2.995.193 1.281.248 2.477.46 2.659.473.182.012.621-.68.977-1.537.592-1.431.51-1.73-.988-3.622-.898-1.135-1.633-2.432-1.633-2.883 0-.86 9.639-9.273 10.625-9.273.314 0 1.487.963 2.607 2.14 1.762 1.852 2.245 2.093 3.596 1.797 1.46-.321 1.56-.501 1.56-2.811 0-1.384.36-2.982.819-3.636.767-1.096 1.205-1.168 7.063-1.168s6.296.072 7.063 1.168c.458.654.818 2.252.818 3.636 0 2.31.1 2.49 1.56 2.81 1.351.297 1.835.056 3.597-1.796 1.12-1.177 2.292-2.14 2.606-2.14.987 0 10.625 8.412 10.625 9.273 0 .451-.735 1.748-1.633 2.883-1.498 1.891-1.58 2.19-.987 3.622.355.858.795 1.55.976 1.537.182-.013 1.379-.225 2.66-.473 1.28-.247 2.628-.334 2.995-.193.864.332 1.511 2.446 2.586 8.448.997 5.571.787 6.185-2.315 6.744-2.922.527-3.758 1.136-3.74 2.722.013 1.118.524 1.734 2.364 2.85 1.717 1.042 2.339 1.748 2.312 2.627-.02.662-1.387 3.449-3.038 6.194-3.351 5.57-4.164 6.047-7.222 4.242-2.219-1.308-2.26-1.31-3.776-.143-1.172.902-1.18.977-.37 3.272 1.377 3.9 1.048 4.282-5.82 6.782-5.832 2.123-6.137 2.18-7.106 1.303-.557-.504-1.284-1.823-1.616-2.932-.558-1.864-.75-2.016-2.54-2.016-1.798 0-1.978.146-2.557 2.078-.666 2.222-1.857 3.737-2.865 3.644-.34-.032-3.164-1.01-6.275-2.174zm6.795-3.786c.912-2.636 1.36-2.897 4.997-2.907 3.347-.009 4.346.638 4.904 3.175.195.89.644 1.728.997 1.864 1.131.434 8.476-2.702 8.245-3.52l-.759-2.686c-.63-2.226-.16-2.988 3.338-5.412l2.018-1.399 2.37 1.39 2.37 1.388.744-1.213c.41-.667 1.489-2.46 2.4-3.983l1.654-2.77-2.35-1.42c-1.293-.78-2.43-1.78-2.528-2.22-.285-1.286 1.027-6.415 1.755-6.865.366-.226 1.701-.567 2.967-.756 1.83-.275 2.247-.527 2.038-1.23-.146-.485-.537-2.49-.87-4.454l-.607-3.57-2.94.155-2.942.156-1.73-2.62c-.95-1.442-1.729-2.887-1.729-3.212 0-.325.716-1.491 1.59-2.592.875-1.1 1.525-2.169 1.445-2.375-.08-.206-1.645-1.623-3.479-3.15l-3.333-2.775-1.304 1.667c-2.082 2.66-2.796 2.828-6.279 1.482l-3.088-1.194-.158-2.992-.157-2.992h-9.352l-.158 2.992-.157 2.992L192.8-.278c-3.482 1.346-4.196 1.178-6.278-1.482l-1.304-1.667-3.334 2.775c-1.833 1.527-3.399 2.944-3.479 3.15-.08.206.57 1.275 1.445 2.375.875 1.1 1.59 2.267 1.59 2.592 0 .325-.778 1.77-1.73 3.211l-1.729 2.621-2.94-.156-2.941-.155-.607 3.57c-.333 1.964-.725 3.969-.87 4.455-.21.702.208.954 2.037 1.229 1.266.19 2.601.53 2.967.756.729.45 2.04 5.579 1.756 6.864-.098.441-1.235 1.44-2.528 2.222l-2.35 1.42 1.654 2.77c.91 1.523 1.99 3.315 2.4 3.982l.743 1.213 2.37-1.389 2.37-1.389 2.019 1.399c3.498 2.424 3.968 3.186 3.338 5.412-.304 1.071-.645 2.28-.76 2.687-.14.5.985 1.215 3.47 2.206 2.023.807 4.01 1.42 4.414 1.362.405-.057 1.059-1.039 1.454-2.18zm-.088-8.874c-5.558-1.845-10.264-5.889-12.474-10.717-1.643-3.59-1.639-11.4.007-15 2.83-6.185 9.536-10.792 16.429-11.285 3.874-.277 5.757.377 5.757 2 0 .925-.372 1.032-3.582 1.032-5.65 0-8.699 1.163-12.176 4.644-4.57 4.575-5.944 10.519-3.852 16.672 1.278 3.758 5.914 8.267 9.634 9.372 5.932 1.762 11.456.66 15.663-3.122 3.643-3.276 4.991-6.26 5.334-11.805.253-4.11.367-4.478 1.439-4.63.885-.127 1.246.166 1.512 1.224.58 2.311-.122 8.24-1.293 10.915-1.63 3.723-5.787 7.846-9.67 9.589-3.848 1.727-9.412 2.213-12.729 1.111zm16.34-29.084c-3.175-3.15-3.78-4.886-1.706-4.886 1.568 0 6.78 5.339 6.337 6.492-.623 1.625-1.776 1.225-4.63-1.606z" style="fill:#000;fill-opacity:.501961;stroke:none;stroke-width:.868055;stroke-opacity:1" transform="translate(-154.578 109.827)"/><path d="M345.365 131.778c-.19-.19-.347-12.633-.347-27.65V76.825l3.978-5.42c2.355-3.212 4.34-5.422 4.866-5.422.533 0 2.487 2.221 4.876 5.541l3.987 5.541v9.23h6.77v-9.23l3.988-5.54c2.36-3.281 4.346-5.542 4.867-5.542.52 0 2.506 2.26 4.866 5.541l3.987 5.541v9.23h6.77v-9.207l4.004-5.552c2.347-3.257 4.364-5.553 4.876-5.553.506 0 2.546 2.28 4.855 5.427l3.982 5.428-.134 27.513-.135 27.514-8.294.144c-6.286.11-8.396-.017-8.715-.52-.232-.366-.426-2.247-.43-4.18l-.008-3.516h-6.77v3.342c0 5.302.553 4.99-8.854 4.99s-8.854.312-8.854-4.99v-3.342h-6.77v3.342c0 5.301.549 4.99-8.823 4.99-4.505 0-8.347-.156-8.538-.347zm14.236-28.18V77.672l-2.613-3.632c-1.438-1.997-2.81-3.698-3.048-3.779-.24-.081-1.642 1.506-3.116 3.527l-2.681 3.674v52.059H359.6zm-6.945 14.64c-.635-.637-.358-2.642.46-3.32 1.198-.994 2.57.512 2.115 2.32-.32 1.279-1.743 1.83-2.575 1zm0-22.916c-.635-.636-.358-2.641.46-3.32 1.198-.994 2.57.512 2.115 2.321-.32 1.278-1.743 1.83-2.575.999zm31.422 8.26v-25.94l-2.639-3.746c-1.452-2.06-2.813-3.746-3.024-3.746-.212 0-1.544 1.576-2.96 3.502l-2.574 3.502-.26 5.742-.26 5.742-4.948.26-4.948.261-.152 4.036-.152 4.037h7.793l.161-1.953c.129-1.552.376-1.954 1.204-1.954 1.019 0 1.044.393 1.178 18.099l.137 18.098h11.444zm-7.088 13.657c-.228-.91-.063-1.622.51-2.195.785-.785.914-.785 1.698 0 .574.573.74 1.285.511 2.195-.458 1.826-2.26 1.826-2.719 0zm0-22.916c-.228-.91-.063-1.621.51-2.195.785-.784.914-.784 1.698 0 1.143 1.143.568 3.541-.848 3.541-.665 0-1.14-.47-1.36-1.346zm31.566 9.17v-26.03l-2.668-3.657c-1.467-2.01-2.83-3.656-3.03-3.656-.2 0-1.518 1.582-2.93 3.515l-2.569 3.516-.26 19.53-.26 19.53-1.14.162c-.977.14-1.16-.118-1.301-1.823l-.164-1.985h-7.291v7.812l4.948.26 4.947.261.152 4.297.15 4.297h11.416zm-7.015 14.1c-.345-1.09.47-3.175 1.241-3.175.839 0 1.687 1.512 1.518 2.706-.227 1.596-2.29 1.947-2.759.469zm-.065-23.236c-.468-1.868.895-3.36 2.133-2.333 1.222 1.014.806 3.344-.633 3.549-.878.125-1.236-.166-1.5-1.216zm-31.72 22.144v-3.906h-7.291l-.153 4.06-.152 4.06 3.798-.154 3.798-.154zm-.26-11.457v-4.688h-6.77v9.375h6.77zm24.478.52v-4.166h-6.77v8.333h6.77zm.41-11.848-.15-4.557h-7.291l-.155 3.857c-.085 2.122-.034 4.173.114 4.557.19.495 1.349.7 3.95.7h3.683z" style="fill:#000;fill-opacity:.501961;stroke:none;stroke-width:.868056" transform="translate(-160.073 33.236)"/><g style="stroke:none;fill:#000;fill-opacity:.50196081"><path d="m198.351 80.287-1.27-1.269V22.554l1.27-1.269c1.242-1.242 1.447-1.27 9.567-1.27h8.298v-1.521c0-2.458 1.529-3.133 7.097-3.133 5.307 0 6.867.764 6.867 3.362v1.293h8.217c9.952 0 10.42.209 10.803 4.84l.244 2.944 2.749-2.6c2.43-2.298 3.007-2.599 4.991-2.599 1.234 0 2.762.364 3.395.808 2.348 1.644 3.346 5.225 2.125 7.63-.315.621-3.45 4.039-6.965 7.594l-6.393 6.465-.145 17.241-.145 17.242-1.221.988c-1.162.94-2.358.988-24.718.988H199.62zm48.064-2.134c.46-1.198.384-30.211-.08-30.211-.215 0-.739.524-1.163 1.164-.613.925-.824 3.856-1.03 14.35l-.258 13.188-20.367.135c-14.605.097-20.567-.03-21.074-.451-.973-.807-1.056-50.068-.086-51.037.376-.377 2.206-.62 4.654-.62 3.711 0 4.034-.085 4.034-1.053 0-1.001-.266-1.045-5.56-.905l-5.559.147-.134 27.41c-.074 15.074-.024 27.7.113 28.055.193.503 5.319.646 23.221.646 20.473 0 23.009-.089 23.288-.818zm-4.46-14.826c.126-9.656-.169-12.387-1.081-10.01-.382.996-14.743 8.216-15.65 7.868-1.21-.465-.878-1.592 2.422-8.209 2.917-5.849 3.583-6.762 8.816-12.09l5.66-5.762-.153-3.805-.154-3.805-3.256-.154c-2.86-.136-3.448.006-4.824 1.163-1.552 1.306-1.654 1.319-10.859 1.319-9.222 0-9.302-.01-10.585-1.293-1.112-1.112-1.76-1.293-4.631-1.293h-3.338V74.33l18.747-.136 18.746-.136zm-11.541-7.194c1.506-.686 1.623-1.087.573-1.959-.606-.503-.895-.323-1.564.971-.92 1.78-.865 1.834.99.988zm5.966-2.84c1.302-.769 1.395-1.006.93-2.343-.647-1.854-3.249-3.352-4.303-2.477-1.44 1.194-1.404 2.529.107 4.13 1.715 1.817 1.452 1.761 3.266.69zm11.851-11.25c6.168-6.177 7.875-8.174 7.6-8.892-.29-.753-1.884.6-8.562 7.269-4.934 4.927-8.1 8.472-7.938 8.892.147.384.42.699.607.699.186 0 3.918-3.586 8.293-7.967zm-2.641-3.564c4.344-4.35 7.735-8.074 7.535-8.274-.2-.2-.734-.363-1.188-.363-1.015 0-16.766 15.679-16.26 16.185.993.993 2.63-.254 9.913-7.548zm.193-6.908c.735-.665.945-1.62.945-4.292 0-1.983-.262-3.699-.62-4.057-.403-.402-2.494-.62-5.947-.62-4.947 0-5.327.072-5.327 1.014 0 .918.425 1.028 4.525 1.163l4.525.15.152 3.749c.084 2.062.298 3.75.476 3.75.179 0 .75-.386 1.27-.857zm14.909-3.112c0-2.962-4.012-4.315-6.125-2.066l-1.133 1.206 1.266.577c.696.317 1.79 1.287 2.432 2.155l1.167 1.578 1.196-1.124c.658-.618 1.197-1.665 1.197-2.326zm-28.543-3.66.159-2.198H213.63v1.51c0 3.252-.219 3.182 9.498 3.027l8.86-.14zm-4.652-5.688c-.144-.755-.85-.93-4.26-1.058-3.91-.146-4.915.174-4.944 1.575-.004.213 2.104.388 4.684.388 4.19 0 4.674-.097 4.52-.905z" style="stroke-width:.868707;stroke:none;fill:#000;fill-opacity:.50196081" transform="translate(-97.863 -2.157)"/></g><g style="fill:#000;fill-opacity:.501961;stroke:none"><path d="M195.835 236.353c-3.514-1.53-5.113-5.601-3.72-9.473l.792-2.204h-2.704c-1.96 0-3.188-.325-4.462-1.183-5.22-3.512-2.459-11.23 4.018-11.23 2.077 0 2.24-.094 2.001-1.163-1.964-8.79-1.96-8.663-.298-8.663.768 0 1.118.774 1.815 4.008.475 2.205.98 4.416 1.121 4.914.313 1.099 2.774 1.255 2.774.176 0-1.427-7.693-35.421-8.252-36.466-.736-1.375-2.072-1.682-6.498-1.49-3.213.138-3.61.268-3.61 1.19 0 .925.396 1.05 3.775 1.186 2.66.107 3.857.367 4.054.881.652 1.699 2.561 10.98 2.374 11.542-.112.337-.634.613-1.16.613-.79 0-1.158-.902-2.111-5.172l-1.155-5.172h-3.041c-2.54 0-3.25-.21-4.31-1.27-1.636-1.635-1.618-3.601.048-5.267 1.258-1.258 1.544-1.31 6.197-1.14 4.667.17 4.949.248 6.49 1.79 1.298 1.298 1.83 2.557 2.735 6.465l1.124 4.852 2.43.157 2.43.157.145-6.621.145-6.622 12.255-.139 12.254-.138.158 2.466.158 2.466 5.172.258 5.172.259.15 4.008.152 4.008h2.494c2.878 0 5.218 1.465 5.222 3.27.005 2.324-6.848 24.915-7.912 26.08l-1.063 1.164H210.53c-21.976 0-22.697.031-23.7 1.034-1.33 1.33-1.33 3.842 0 5.172 1.004 1.004 1.724 1.034 24.51 1.034 19.469 0 23.523.122 23.75.713.47 1.226-.784 1.873-3.628 1.873-1.507 0-2.74.08-2.74.18 0 .098.376.934.837 1.857 2.31 4.633-1.654 10.38-7.157 10.373-5.104-.006-8.738-6.244-6.338-10.884l.789-1.526h-11.794l.793 2.204c2.316 6.442-3.766 12.194-10.016 9.473zm6.549-3.362c1.119-1.12 1.512-2.003 1.512-3.402 0-2.627-2.286-4.913-4.914-4.913s-4.913 2.286-4.913 4.913c0 1.4.393 2.282 1.512 3.402 2.086 2.086 4.716 2.086 6.803 0zm-4.506-2.881c-.18-.467-.078-1.097.225-1.4.788-.788 2.281-.068 2.075 1.001-.229 1.19-1.886 1.478-2.3.399zm28.296 2.88c1.12-1.119 1.512-2.002 1.512-3.4 0-2.628-2.286-4.914-4.913-4.914s-4.914 2.286-4.914 4.913c0 1.4.393 2.282 1.512 3.402 2.087 2.086 4.717 2.086 6.803 0zm-4.52-2.918c-.471-1.227.632-2.092 1.62-1.271.613.508.664.835.217 1.374-.774.933-1.455.895-1.838-.103zm-15.336-19.748c-.162-1.066-.455-3.626-.65-5.689l-.355-3.75h-3.812c-2.703 0-3.812.189-3.815.647-.002.356.503 2.916 1.12 5.69l1.123 5.042h6.685zm9.473-3.75v-5.688h-4.194c-4.085 0-4.186.03-3.918 1.163.152.64.428 2.793.615 4.784.53 5.648.363 5.43 4.17 5.43h3.327zm9.524 2.199c.196-1.92.494-4.49.662-5.712l.304-2.221-4.081.152-4.082.152-.15 4.875c-.082 2.68-.032 5.183.113 5.56.18.47 1.302.685 3.57.685h3.306zm7.543 3.36c0-.071.698-2.573 1.551-5.558.853-2.986 1.552-5.487 1.552-5.559 0-.072-1.614-.13-3.586-.13-4.126 0-3.92-.265-4.43 5.689-.184 2.133-.449 4.286-.59 4.784-.222.784.128.905 2.623.905 1.584 0 2.88-.059 2.88-.13zm-28.195-16.29c-.166-1.35-.465-3.853-.665-5.56l-.363-3.103-4.524-.149c-3.424-.113-4.525.013-4.528.517-.002.367.503 2.936 1.12 5.71l1.123 5.042h8.14zm11.128-3.232v-5.69h-9.942l.299 1.682c.164.924.455 3.484.646 5.689l.347 4.008h8.65zm11.032 3.232c.168-1.35.461-3.91.651-5.689l.345-3.232h-9.96v5.344c0 2.94.156 5.5.345 5.69.19.189 2.138.344 4.33.344h3.984zm11.436-2.493c.772-2.723 1.277-5.283 1.12-5.69-.214-.559-1.34-.738-4.63-.738H230.4l-.312 1.559c-.171.857-.467 3.417-.656 5.689l-.344 4.13h7.765zm-21.844-13.022.151-4.008 2.457-.158c2.218-.142 2.457-.28 2.457-1.422v-1.265h-20.17v10.861h14.954zm15.408 1.164v-2.845h-12.93v5.689h12.93zm-42.872 15.29c-.88-.545-.38-2.102.675-2.102 1.136 0 1.56 1.035.755 1.84-.445.445-.976.542-1.43.262z" style="fill:#000;fill-opacity:.501961;stroke:none;stroke-width:.868972" transform="translate(-76.805 14.303)"/></g></svg>