<svg width="1000" height="1000" viewBox="0 0 264.583 264.583" xml:space="preserve" xmlns="http://www.w3.org/2000/svg"><path style="fill:#ff3a17;fill-opacity:1;stroke:none;stroke-width:1.05833;stroke-linecap:round;stroke-linejoin:bevel" d="M264.583 264.583H0l132.292-132.291Z"/><path style="fill:#0cd1a5;fill-opacity:1;stroke:none;stroke-width:1.05833;stroke-linecap:round;stroke-linejoin:bevel" d="M0 0h264.583L132.292 132.292Z"/><path style="fill:#2876ff;fill-opacity:1;stroke:none;stroke-width:1.05833;stroke-linecap:round;stroke-linejoin:bevel" d="M264.583 0v264.583L132.292 132.292Z"/><path style="fill:#ff0;fill-opacity:1;stroke:none;stroke-width:1.05833;stroke-linecap:round;stroke-linejoin:bevel" d="M0 264.583V0l132.292 132.292Z"/><path style="fill:silver;fill-opacity:.501961;stroke-width:1.05833;stroke-linecap:round;stroke-linejoin:bevel" d="M92.604 92.604v79.375h79.375V92.604Z"/><path style="fill:#86e853;fill-opacity:.50196081;stroke-width:1.05833;stroke-linecap:round;stroke-linejoin:bevel" d="M0 0v92.604h92.604V0Z"/><path style="fill:#1aa4d2;fill-opacity:.50196081;stroke-width:1.05833;stroke-linecap:round;stroke-linejoin:bevel" d="M171.98 0v92.604h92.603V0Z"/><path style="fill:#ff9d0c;fill-opacity:.50196081;stroke-width:1.05833;stroke-linecap:round;stroke-linejoin:bevel" d="M0 171.98h92.604v92.603H0Z"/><path style="fill:#94588b;fill-opacity:.50196081;stroke-width:1.05833;stroke-linecap:round;stroke-linejoin:bevel" d="M171.98 171.98h92.603v92.603H171.98z"/><path d="M124.431 120.205c-7.367-2.425-11.083-6.098-11.138-11.008-.016-1.457.154-3.209.377-3.893.398-1.217.339-1.236-2.889-.898-2.805.293-3.754.134-6.373-1.065-3.81-1.744-7.475-5.068-10.374-9.41-2.742-4.106-2.784-5.35-.254-7.572 7.435-6.528 18.584-7.041 29.793-1.37 1.45.732 2.635 1.078 2.635.767 0-1.047-4.402-4.846-7.48-6.454-3.029-1.583-3.807-2.731-2.254-3.328 1.115-.427 6.063 2.364 9.22 5.201l2.626 2.361-.779-2.588c-1.043-3.464-1.052-11.062-.015-11.46 1.277-.49 1.878.682 1.604 3.125-.332 2.966.72 8.696 1.796 9.77.734.735.828.562.828-1.532 0-3.856 1.631-10.669 3.44-14.362 3.059-6.25 11.734-12.727 15.345-11.458 3.02 1.063 6.17 8.082 6.593 14.697.314 4.899-.38 7.54-2.66 10.138l-1.57 1.788 2.432.65c3.39.907 6.063 3.726 6.92 7.298 1.081 4.509-.483 12.415-3.065 15.482-3.291 3.912-10.593 4.535-14.677 1.253-1.22-.98-2.22-1.614-2.22-1.408 0 .206.773 1.724 1.717 3.373 1.62 2.832 1.817 4.624.508 4.624-.503 0-1.687-1.652-4.198-5.86-.443-.743-.54-.111-.393 2.577.159 2.934-.031 3.947-1.082 5.756-2.923 5.032-8.289 6.821-14.413 4.806zm9.417-2.966c3.116-1.873 4.222-5.503 3.186-10.461-.612-2.928-3.132-8.273-3.901-8.273-.379 0-1.053-.548-1.497-1.218-.769-1.157-.96-1.184-3.812-.544-8.198 1.838-12.155 5.803-12.155 12.18 0 4.048 3.906 7.444 10.597 9.214 3.347.885 4.926.698 7.582-.898zm-10.087-5.465c-1.882-2.236-1.825-4.09.185-6.101 2.555-2.555 6.074-2.11 7.718.977 1.04 1.953.754 3.48-.976 5.21-2.275 2.274-4.97 2.24-6.927-.086zm5.315-1.43c1.244-1.125 1.285-2.06.143-3.202-1.28-1.279-2.86-1.065-3.904.53-.86 1.311-.854 1.47.074 2.495 1.209 1.336 2.346 1.391 3.687.177zm25.86-5.179c3.485-1.582 4.81-4.732 4.82-11.467.009-4.659-.107-5.21-1.378-6.589-1.666-1.808-3.829-2.788-7.295-3.305-2.221-.331-2.946-.171-5.194 1.147-3.752 2.199-8.208 6.784-7.707 7.93.218.5.439 1.43.49 2.068.134 1.677 2.088 4.6 4.835 7.237 4.391 4.213 7.134 4.928 11.429 2.98zm-7.54-6.12c-3.359-3.13-1.32-8.305 3.272-8.305 2.792 0 5.2 2.674 4.71 5.231-.706 3.683-5.39 5.487-7.982 3.073zm5.12-2.317c.728-1.04.744-1.392.106-2.357-.964-1.46-2.732-1.72-3.881-.57-1.135 1.134-1.144 2.163-.03 3.278 1.228 1.227 2.8 1.082 3.804-.35zm-38.591 4.223c.806-.468 2.84-1.721 4.517-2.785 1.678-1.064 4.86-2.471 7.072-3.127 2.212-.657 4.022-1.429 4.022-1.716 0-.966-8.492.032-12.912 1.517-2.373.797-5.975 2.498-8.005 3.78l-3.69 2.33 1.626.72c1.892.837 5.251.509 7.37-.72zm-7.755-3.552c5.796-3.957 13.444-6.624 19.067-6.65 2.653-.012 2.632-.604-.075-2.126-2.598-1.46-6.642-1.592-11.456-.376-3.262.824-12.242 4.99-14.4 6.68-1.087.852-1.068.907.963 2.778 1.14 1.05 2.203 1.91 2.364 1.91.16 0 1.752-.998 3.537-2.216zm29.144-1.45c1.33-.51 1.093-1.422-1.522-5.855-2.354-3.992-4.284-5.41-4.96-3.647-.292.759 4.535 9.826 5.234 9.835.204.001.766-.147 1.248-.332zm-34.262-4.748c4.443-2.702 8.93-4.55 13.38-5.51l3.178-.686-2.218-.695c-3.058-.959-10.735-.956-13.457.004-2.93 1.034-6.755 3.474-7.18 4.58-.344.897 1.337 4.619 2.086 4.619.226 0 2.121-1.04 4.211-2.312zm38.593-4.365c1.61-1.537 4.922-3.804 7.363-5.037 2.44-1.234 4.865-2.628 5.388-3.098 1.024-.921 2.99-5.56 2.544-6.006-.568-.568-8.064 3.696-10.936 6.221-4.359 3.832-9.207 10.714-7.548 10.714.145 0 1.58-1.257 3.19-2.794zm-2.94-3.363c2.777-4.092 8.016-8.577 12.84-10.992 2.326-1.163 4.552-2.224 4.949-2.356.586-.195.592-.776.028-3.125-.38-1.586-.817-2.884-.971-2.884-.154 0-1.97.888-4.037 1.974-5.247 2.757-10.524 7.28-13.238 11.344-1.916 2.869-2.303 3.903-2.303 6.158 0 1.49.187 2.704.416 2.696.229-.008 1.271-1.275 2.317-2.815zm1.321-11.835c3.108-3.108 9.458-7.522 12.877-8.95l1.941-.811-1.127-2.209c-1.306-2.56-2.303-2.751-5.588-1.075-3.021 1.541-6.39 4.675-8.024 7.462-1.291 2.203-3.75 8.6-3.306 8.6.116 0 1.568-1.358 3.227-3.017z" style="stroke-width:.868056;stroke:none;fill:#000;fill-opacity:.50196099" transform="translate(-80.962 44.348)"/><path d="M362.51 141.766c-1.028-1.306-1.076-1.99-1.076-15.344v-13.977l-1.168.166c-1.016.145-1.21.567-1.499 3.254-.503 4.682-3.225 6.375-5.919 3.682-1.175-1.176-1.273-1.659-1.273-6.251 0-4.592.098-5.075 1.273-6.25.7-.701 1.625-1.274 2.054-1.274.66 0 .803-1.47.931-9.578l.152-9.577-1.556-.152c-1.511-.148-1.562-.24-1.713-3.136l-.155-2.984h13.996l.163-1.686.162-1.687h6.227l.163 1.687.163 1.686h13.996l-.155 2.984c-.15 2.874-.213 2.993-1.727 3.243l-1.572.26.018 9.256.019 9.256 1.642.69c2.322.977 2.761 2.156 2.761 7.417 0 3.903-.17 4.85-1.075 6.002-1.255 1.596-2.994 1.76-4.625.44-.905-.733-1.162-1.524-1.225-3.762-.082-2.92-.46-3.592-2.026-3.605-.842-.008-.908.998-.908 13.932 0 13.318-.048 14.002-1.076 15.308-1.327 1.688-3.55 1.812-4.94.276-.822-.906-1.033-2.158-1.249-7.394-.241-5.871-.33-6.304-1.297-6.304-.967 0-1.056.433-1.297 6.305-.216 5.238-.427 6.49-1.248 7.395-1.392 1.534-3.615 1.41-4.942-.278zm3.594-7.928c.288-7.057.671-7.829 3.892-7.829 3.225 0 3.604.767 3.892 7.87.212 5.228.402 6.4 1.038 6.4.668 0 .815-2.133 1.037-15.048l.26-15.049 2.529.09c4.833.171 4.928.25 5.101 4.19.126 2.872.319 3.525 1.082 3.67.846.162.915-.248.778-4.628-.17-5.464.133-5.155-5.72-5.836l-2.975-.347-.755 1.809c-2.144 5.13-10.39 5.13-12.534 0l-.755-1.809-2.976.347c-5.859.681-5.57.387-5.57 5.665 0 3.773.145 4.633.779 4.633.6 0 .813-.803.932-3.498.173-3.947.267-4.025 5.101-4.196l2.529-.09.132 14.53c.072 7.991.247 14.841.389 15.221.142.38.55.596.906.478.452-.15.727-2.141.908-6.573zm6.706-24.22c1.997-1.681 2.203-4.432.468-6.278-1.544-1.644-1.896-1.518-2.083.745-.128 1.547-.374 1.946-1.199 1.946-.825 0-1.07-.4-1.199-1.946-.187-2.26-.389-2.341-2.01-.817-1.838 1.725-1.657 4.623.395 6.35.878.738 2.144 1.343 2.814 1.343.67 0 1.936-.605 2.814-1.344zm-8.941-6.57c.806-1.214 2.217-2.556 3.136-2.984l1.671-.779.011-4.74c.01-4.307-.083-4.763-1.026-5.01-.701-.183-1.038-.708-1.038-1.617 0-1.337-.03-1.346-4.151-1.346h-4.152v18.68h2.042c1.825 0 2.196-.232 3.507-2.205zm17.802-7.136v-9.34h-4.15c-4.123 0-4.152.01-4.152 1.346 0 .91-.337 1.434-1.038 1.617-.945.247-1.038.708-1.038 5.14 0 4.118.128 4.87.83 4.87.734 0 2.456 1.6 5.086 4.722.524.623 1.5.986 2.646.986h1.816zm-10.8-9.989.163-1.686 7.135-.145c5.805-.117 7.135-.283 7.135-.893 0-.61-1.33-.776-7.135-.893l-7.135-.145-.164-1.427c-.213-1.852-1.535-1.852-1.748 0l-.164 1.427-7.135.145c-5.806.117-7.135.284-7.135.893s1.33.776 7.135.893l7.135.145.163 1.686c.097 1.005.45 1.687.875 1.687s.778-.682.875-1.687z" style="fill:#000;fill-opacity:.501961;stroke:none;stroke-width:.868057" transform="translate(-151.715 22.247)"/><path d="M218.12 47.017c-.482-1.254.28-1.831 2.414-1.831h2.034v-6.692c0-6.548-.033-6.743-1.548-9.132-2.657-4.19-1.602-8.187 2.753-10.429 2.988-1.538 5.366-1.2 7.896 1.124 2.098 1.927 2.74 4.142 2.757 9.517l.012 3.741h29.933v11.87h6.71V30.614l1.548-1.763c3.8-4.329-.514-10.333-5.552-7.728-1.833.948-2.2 1.712-2.636 5.484l-.328 2.839-12.58.138c-12.91.142-14.795-.105-13.426-1.755.464-.558 2.99-.706 12.09-.706H261.7l.334-1.978c.986-5.83 5.81-8.655 10.557-6.18 4.272 2.228 5.354 7.118 2.424 10.959-1.3 1.706-1.354 2.038-1.354 8.49v6.713l2.193.159c1.797.13 2.194.345 2.194 1.19 0 .98-.392 1.04-7.702 1.176-5.816.109-7.805-.018-8.12-.516-.231-.362-.423-3.156-.427-6.207l-.008-5.548h-29.934v-5.445c0-6.17-.61-7.976-3.038-8.982-4.99-2.067-9.135 4.06-5.22 7.718l1.55 1.446v15.069h6.708v-2.784c0-3.011 1.064-4.248 2.057-2.392.573 1.07.711 5.635.21 6.94-.447 1.167-15.559 1.23-16.005.067zm19.769.038c-.616-1.604.834-1.87 10.226-1.87 9.392 0 10.842.266 10.226 1.87-.401 1.047-20.05 1.047-20.452 0zm-12.05-21.258c-.47-1.224.63-2.087 1.617-1.268.611.507.663.834.216 1.371-.772.932-1.451.893-1.834-.103zm42.719.103c-.447-.537-.395-.864.216-1.371.987-.819 2.087.044 1.618 1.268-.382.997-1.062 1.035-1.834.103zM236.503 8.847V-4.267l2.193-1.05c3.582-1.713 6.863-2.303 11.169-2.007 4.356.298 9.054 1.971 9.883 3.519.535 1 .685 22.685.17 24.605-.311 1.16-.32 1.161-11.863 1.161h-11.552Zm21.16-.591V-2.87l-2.452-1.117c-3.487-1.589-10.705-1.589-14.192 0l-2.452 1.117v22.25h19.096zM230.31.039v-15.802l1.365-1.266c2.697-2.5 6.429-.906 7.174 3.064.402 2.143.228 2.09 3.542 1.084 3.24-.982 8.209-.982 11.448 0 1.393.423 2.68.771 2.86.774.179.004.58-1.01.894-2.251.955-3.796 4.568-5.162 7.06-2.67l1.267 1.267V.004c0 15.42-.022 15.764-1.032 15.764-.568 0-1.081-.058-1.142-.129-.06-.07-.234-7.096-.387-15.612l-.277-15.483h-1.29c-1.165 0-1.304.226-1.427 2.323-.075 1.277-.26 2.87-.41 3.54-.312 1.379-.607 1.355-5.647-.465-4.345-1.569-10.716-1.27-14.517.681-1.455.747-2.79 1.214-2.967 1.038-.177-.177-.321-1.516-.321-2.975 0-2.993-.879-4.604-2.357-4.32-.953.183-1.01.886-1.256 15.668l-.258 15.476-1.161.165-1.161.165z" style="stroke-width:.868056;stroke:none;fill:#000;fill-opacity:.50196099" transform="translate(-115.723 31.517)"/><path d="M215.788 256.38c-.48-.01-1.339-.27-1.908-.581-.57-.311-3.21-2.694-5.865-5.294-2.656-2.601-5.183-5.399-5.615-6.217-.53-1.003-.672-2.094-.436-3.352.285-1.523 1.973-3.505 9.21-10.818 5.37-5.424 9.704-9.361 10.998-9.987 1.487-.72 3.198-1.035 5.625-1.035 2.014 0 4.08-.31 4.887-.736.77-.405 2.56-1.924 3.979-3.376 2.329-2.384 2.515-2.744 1.914-3.706-.6-.96-.435-1.298 1.655-3.388 2.037-2.037 2.444-2.244 3.33-1.69.87.544 1.3.389 3.093-1.117 1.679-1.41 2.143-2.19 2.396-4.036.172-1.259.784-3.051 1.36-3.983.576-.932 1.4-1.83 1.83-1.995.5-.192.949.118 1.243.855.253.636.603 1.603.778 2.149.24.75.464.847.915.396.328-.328.728-2.272.89-4.32.16-2.047.554-3.808.875-3.914.32-.105 1.344.45 2.275 1.233.931.783 2.12 2.367 2.644 3.518.523 1.152.956 2.618.962 3.26.008.79.324 1.165.985 1.165.535 0 1.31-.507 1.72-1.127.522-.786 1.035-1.017 1.692-.765.824.316.904.78.633 3.678-.17 1.824-.645 4.119-1.054 5.098-.668 1.599-.645 2.069.219 4.572.746 2.16.967 4.342.98 9.67.014 5.85-.107 6.929-.815 7.2-.458.176-1.821-.161-3.03-.749-2.198-1.068-2.198-1.068-4.55 1.285-1.309 1.308-2.608 2.194-2.928 1.997-.37-.229-.575-2.579-.575-6.582 0-6.225 0-6.225-1.63-7.855-1.54-1.54-1.65-1.573-2.013-.591-.211.57-1.36 1.92-2.552 2.997-1.816 1.64-2.297 1.852-2.958 1.303-.668-.555-1.337-.093-4.366 3.015-3.576 3.67-3.576 3.67-3.588 7.487-.008 2.628-.313 4.462-.982 5.889-.587 1.255-4.412 5.483-9.702 10.724-4.802 4.759-9.387 8.897-10.19 9.195-.801.3-1.85.537-2.33.528zm.234-2.575c1.315 0 2.631-1.056 8.152-6.54 3.621-3.598 6.516-6.593 6.433-6.656-.082-.063-1.512-.38-3.176-.704-1.664-.324-4.462-1.232-6.217-2.018-1.754-.786-4.383-2.399-5.841-3.584-2.652-2.156-2.652-2.156-6.864 2.08-3.346 3.362-4.213 4.546-4.213 5.749 0 1.226.968 2.483 5.08 6.594 4.188 4.19 5.353 5.08 6.646 5.08zm15.32-15.585c1.463.034 2.24-.296 3.255-1.38.732-.784 1.426-1.891 1.542-2.461.115-.57.327-2.715.47-4.766.142-2.05.533-4.266.868-4.921.335-.656 2.034-2.65 3.775-4.432 3.167-3.24 3.167-3.24 1.499-4.91-1.67-1.668-1.67-1.668-4.91 1.499-1.782 1.741-3.771 3.438-4.42 3.77-.65.33-3.214.741-5.699.911-4.518.309-4.518.309-8.921 4.637-4.403 4.328-4.403 4.328-2.331 6.107 1.14.979 3.316 2.415 4.836 3.192 1.52.777 3.968 1.704 5.44 2.061 1.47.357 3.54.669 4.597.693zm27.19-12.389c.199 0 1.01-.622 1.804-1.383 1.34-1.283 1.546-1.33 2.878-.664.788.395 1.628.81 1.865.922.237.112.353-2.795.259-6.459-.16-6.223-.263-6.793-1.548-8.653-.757-1.096-2.271-2.6-3.366-3.344-1.4-.95-2.866-1.416-4.941-1.566-2.273-.164-3.479.042-5.243.896-1.26.61-2.713 1.575-3.228 2.144-.91 1.006-.888 1.083.81 2.836 1.4 1.443 2.144 1.802 3.743 1.802 1.098 0 2.68.354 3.516.786.836.432 1.873 1.47 2.305 2.305.523 1.01.786 3.003.786 5.949 0 2.436.162 4.43.36 4.43zm-10.67-8.807c.188 0 .641-.362 1.009-.805.57-.688.189-1.289-2.63-4.132-3.123-3.152-3.347-3.281-4.249-2.465-.912.825-.816 1 2.29 4.132 1.782 1.799 3.394 3.27 3.58 3.27zm16.675-11.38c.224-.2.54-1.183.702-2.182.295-1.817.295-1.817-1.946-1.769-2.241.05-2.241.05-2.592-2.342-.193-1.316-.706-3.064-1.14-3.886-.572-1.08-.862-1.279-1.05-.717-.141.428-.399 1.628-.571 2.668-.172 1.04-.773 2.475-1.335 3.19-.563.715-1.023 1.408-1.023 1.54 0 .132.876.38 1.946.552 1.07.17 2.993.986 4.274 1.812 1.28.825 2.511 1.336 2.735 1.135zm-11.804-3.125c.712 0 1.287-.175 1.278-.388-.01-.214-.455-.914-.99-1.555-.535-.64-1.11-1.165-1.278-1.165-.168 0-.305.7-.305 1.554 0 1.312.201 1.554 1.295 1.554z" style="fill:#000;fill-opacity:.501961;stroke:none;stroke-width:.868212" transform="translate(-102.635 -5.02)"/></svg>