<?xml version="1.0" encoding="UTF-8" standalone="no"?>
<svg
   width="1000"
   height="1000"
   viewBox="0 0 264.58333 264.58333"
   xml:space="preserve"
   version="1.1"
   id="svg30"
   sodipodi:docname="statcompass.svg"
   inkscape:version="1.2 (dc2aedaf03, 2022-05-15)"
   xmlns:inkscape="http://www.inkscape.org/namespaces/inkscape"
   xmlns:sodipodi="http://sodipodi.sourceforge.net/DTD/sodipodi-0.dtd"
   xmlns="http://www.w3.org/2000/svg"
   xmlns:svg="http://www.w3.org/2000/svg"><defs
     id="defs34" /><sodipodi:namedview
     id="namedview32"
     pagecolor="#505050"
     bordercolor="#eeeeee"
     borderopacity="1"
     inkscape:showpageshadow="0"
     inkscape:pageopacity="0"
     inkscape:pagecheckerboard="0"
     inkscape:deskcolor="#505050"
     showgrid="false"
     inkscape:zoom="0.525"
     inkscape:cx="307.61905"
     inkscape:cy="500.95238"
     inkscape:window-width="1366"
     inkscape:window-height="705"
     inkscape:window-x="-8"
     inkscape:window-y="-8"
     inkscape:window-maximized="1"
     inkscape:current-layer="svg30" /><path
     style="fill:#ff3a17;fill-opacity:1;stroke:none;stroke-width:1.05833;stroke-linecap:round;stroke-linejoin:bevel"
     d="M264.58333 264.58333H-.000002L132.29167 132.29167Z"
     id="path2" /><path
     style="fill:#0cd1a5;fill-opacity:1;stroke:none;stroke-width:1.05833;stroke-linecap:round;stroke-linejoin:bevel"
     d="M0 0h264.58333L132.29166 132.29166Z"
     id="path4" /><path
     style="fill:#2876ff;fill-opacity:1;stroke:none;stroke-width:1.05833;stroke-linecap:round;stroke-linejoin:bevel"
     d="M264.58332.00000267V264.58334L132.29167 132.29167Z"
     id="path6" /><path
     style="fill:#ff0;fill-opacity:1;stroke:none;stroke-width:1.05833;stroke-linecap:round;stroke-linejoin:bevel"
     d="M.00000133 264.58332V-.00000317L132.29167 132.29167Z"
     id="path8" /><path
     style="fill:silver;fill-opacity:.501961;stroke-width:1.05833;stroke-linecap:round;stroke-linejoin:bevel"
     d="M92.604166 92.604166v79.374994h79.374994V92.604166Z"
     id="path10" /><path
     style="fill:#86e853;fill-opacity:.50196081;stroke-width:1.05833;stroke-linecap:round;stroke-linejoin:bevel"
     d="M0 0v92.604166h92.604166V0Z"
     id="path12" /><path
     style="fill:#1aa4d2;fill-opacity:.50196081;stroke-width:1.05833;stroke-linecap:round;stroke-linejoin:bevel"
     d="M171.97916 0v92.604166h92.60417V0Z"
     id="path14" /><path
     style="fill:#ff9d0c;fill-opacity:.50196081;stroke-width:1.05833;stroke-linecap:round;stroke-linejoin:bevel"
     d="M0 171.97916h92.604166v92.60417H0Z"
     id="path16" /><path
     style="fill:#94588b;fill-opacity:.50196081;stroke-width:1.05833;stroke-linecap:round;stroke-linejoin:bevel"
     d="M171.97916 171.97916h92.60417v92.60417h-92.60417z"
     id="path18" /><path
     d="M124.43147 120.20504c-7.36717-2.42467-11.08386-6.09788-11.13813-11.00784-.0168-1.45723.15366-3.20899.37707-3.89279.39798-1.21759.33836-1.23613-2.88931-.89877-2.80497.29317-3.75383.13479-6.373-1.0644-3.81049-1.74447-7.47487-5.068417-10.374384-9.410492-2.741962-4.106111-2.783637-5.350531-.253542-7.57198 7.435196-6.528203 18.583866-7.041085 29.792856-1.370591 1.44905.733065 2.63466 1.078768 2.63466.768221 0-1.047778-4.4017-4.846102-7.47977-6.454444-3.02872-1.582561-3.80679-2.731433-2.25354-3.327474 1.11504-.427882 6.06237 2.363021 9.2192 5.200746l2.62633 2.360894-.77878-2.587717c-1.04274-3.464757-1.05225-11.06243-.0147-11.460711 1.27628-.489748 1.87787.682387 1.60398 3.125113-.33259 2.966328.72021 8.69585 1.79546 9.771102.73443.734418.82816.560937.82816-1.532761 0-3.856449 1.63144-10.669036 3.43942-14.362334 3.05937-6.249592 11.73502-12.727092 15.34546-11.45737 3.02028 1.062179 6.16949 8.081997 6.5932 14.696736.31378 4.898706-.37921 7.539548-2.6602 10.137456l-1.57002 1.788151 2.43258.650616c3.38948.906554 6.06248 3.725512 6.91929 7.29712 1.08172 4.509114-.483 12.415039-3.06429 15.482749-3.29157 3.9118-10.59361 4.53516-14.67783 1.25299-1.22043-.98078-2.21895-1.61461-2.21895-1.40858 0 .20607.77213 1.72418 1.71586 3.37364 1.6204 2.83212 1.81724 4.62402.50799 4.62402-.50252 0-1.68624-1.65272-4.19745-5.86051-.44319-.7426-.53956-.11132-.39353 2.57718.15932 2.93426-.0308 3.94691-1.08175 5.75625-2.92248 5.03186-8.28882 6.82122-14.41266 4.80578zm9.41632-2.96618c3.1165-1.87326 4.22181-5.50289 3.18572-10.46122-.61172-2.92744-3.13201-8.272636-3.90058-8.272636-.37874 0-1.05251-.548084-1.4973-1.217954-.76826-1.157074-.9588-1.184288-3.81165-.54441-8.1983 1.838822-12.15494 5.80351-12.15494 12.17966 0 4.04827 3.90609 7.4448 10.59668 9.21431 3.34766.88539 4.92659.69843 7.58207-.89775zm-10.0868-5.46442c-1.88177-2.23635-1.82544-4.09064.18532-6.10145 2.55506-2.55504 6.07349-2.10968 7.71741.97688 1.04033 1.95332.75445 3.47927-.97607 5.20979-2.27428 2.27427-4.96921 2.24111-6.9267-.0852zm5.31503-1.43007c1.24386-1.12569 1.28547-2.05964.14276-3.20242-1.27885-1.27883-2.85904-1.06458-3.90337.52925-.85953 1.31183-.85488 1.4705.0732 2.49601 1.20916 1.33611 2.34645 1.39076 3.68746.17715zm25.85959-5.17916c3.4857-1.58199 4.81029-4.73261 4.82118-11.467431.008-4.658551-.10797-5.210626-1.37845-6.588829-1.66662-1.807951-3.82937-2.787639-7.29552-3.30474-2.22088-.331319-2.94539-.171397-5.19419 1.146476-3.7521 2.19888-8.20806 6.784316-7.707 7.930948.21838.4998.43892 1.430295.49005 2.067829.13438 1.676346 2.08822 4.600142 4.83567 7.236637 4.39064 4.21329 7.13351 4.92833 11.42826 2.97911zm-7.53929-6.120892c-3.35919-3.129559-1.32026-8.304655 3.27198-8.304655 2.79193 0 5.1989 2.674054 4.70911 5.231632-.70527 3.682858-5.39027 5.486745-7.98109 3.073023zm5.11924-2.316252c.72833-1.039844.74423-1.391702.10656-2.357335-.96366-1.459262-2.73243-1.719149-3.88129-.570295-1.13474 1.134748-1.14402 2.163793-.0296 3.278272 1.2276 1.227622 2.80034 1.082656 3.80425-.350642zm-38.59098 4.222554c.80691-.46787 2.83992-1.721007 4.51777-2.78475 1.67788-1.063724 4.86026-2.470999 7.07201-3.127249 2.21173-.65625 4.02133-1.428454 4.02133-1.715989 0-.965339-8.49142.03247-12.91177 1.517248-2.37294.797066-5.97497 2.497943-8.00451 3.779707l-3.69011 2.330503 1.62587.71938c1.89193.83705 5.25109.5094 7.36941-.71885zm-7.75433-3.551981c5.79604-3.956346 13.44346-6.623299 19.06677-6.649332 2.65272-.01259 2.63167-.604635-.0754-2.126164-2.59741-1.459827-6.64151-1.592631-11.45595-.376207-3.26152.824054-12.24183 4.990479-14.39919 6.680514-1.087491.851927-1.068568.906579.96253 2.777951 1.13951 1.049907 2.20313 1.908943 2.36361 1.908943.16037 0 1.75244-.997083 3.53774-2.215705zm29.14406-1.448976c1.32981-.510304 1.09268-1.422535-1.52226-5.856128-2.35428-3.991634-4.28399-5.410002-4.96081-3.646252-.29106.758472 4.53554 9.825453 5.23508 9.834342.20377.0017.76544-.146745 1.24799-.331962zm-34.26197-4.748507c4.44263-2.702284 8.92971-4.550375 13.37895-5.510357l3.17908-.68592-2.21868-.695313c-3.05803-.958359-10.73447-.955816-13.4562.0043-2.92976 1.03368-6.755646 3.47434-7.180081 4.580407-.34395.896322 1.336901 4.618561 2.085607 4.618561.225859 0 2.120946-1.040321 4.211324-2.31184zm38.59294-4.365166c1.60878-1.536892 4.92187-3.803741 7.36239-5.037439 2.44054-1.233707 4.86517-2.627622 5.38808-3.097587 1.02474-.921007 2.98967-5.560451 2.54381-6.006302-.56801-.568003-8.06393 3.696563-10.93604 6.221701-4.35822 3.83171-9.20649 10.713977-7.54756 10.713977.14527 0 1.58054-1.257458 3.18932-2.79435zm-2.93973-3.363307c2.77627-4.091762 8.01552-8.576658 12.84029-10.991536 2.32473-1.163559 4.55118-2.223707 4.94768-2.355868.58683-.195608.5922-.776702.0289-3.124948-.38064-1.586563-.81785-2.884662-.97161-2.884662-.15375 0-1.97033.888473-4.03682 1.974384-5.2466 2.757014-10.52413 7.279262-13.23826 11.343706-1.9158 2.868941-2.30271 3.903672-2.30271 6.158446 0 1.490573.18721 2.703698.41601 2.695825.2288-.0078 1.27122-1.274766 2.31652-2.815347zm1.32053-11.834427c3.10817-3.108168 9.4581-7.521805 12.87666-8.950182l1.94126-.811102-1.12675-2.208655c-1.30577-2.559488-2.30321-2.751397-5.58866-1.075286-3.02059 1.540989-6.39033 4.6748-8.02369 7.461901-1.29098 2.202907-3.75023 8.599409-3.30618 8.599409.11615 0 1.56852-1.35724 3.22736-3.016085z"
     style="stroke-width:.868056;stroke:none;fill:#000;fill-opacity:.50196099"
     transform="translate(-80.962498 44.348075)"
     id="path22" /><path
     d="M362.50938 141.76621c-1.02759-1.30635-1.0755-1.98984-1.0755-15.34402v-13.97677l-1.16754.16583c-1.01603.14429-1.2106.56658-1.49916 3.25383-.50277 4.68198-3.22515 6.37523-5.91894 3.68144-1.17525-1.17525-1.2737-1.65837-1.2737-6.25055 0-4.59217.0985-5.07529 1.2737-6.25054.70053-.70053 1.6246-1.27369 2.05349-1.27369.66014 0 .8031-1.46968.93168-9.577297l.15189-9.577288-1.55674-.15233c-1.51063-.147819-1.56135-.240705-1.71237-3.136079l-.15562-2.983752h13.99668l.16261-1.686465.16261-1.686468h6.22696l.1626 1.686468.16261 1.686465h13.99668l-.15562 2.983752c-.14994 2.874675-.21308 2.993233-1.72711 3.243204l-1.57147.259458.0182 9.256385.0182 9.256387 1.64213.69046c2.32278.97665 2.76167 2.15533 2.76167 7.4167 0 3.90271-.16979 4.85021-1.07549 6.00161-1.25519 1.59571-2.99351 1.761-4.62516.43977-.9044-.73234-1.16216-1.52393-1.22504-3.76212-.082-2.91998-.45925-3.59134-2.02556-3.60505-.84251-.008-.9081.99881-.9081 13.93272 0 13.31768-.0481 14.00178-1.07548 15.30794-1.32768 1.68786-3.54974 1.81211-4.94133.27628-.82114-.90626-1.03245-2.15825-1.24797-7.39451-.24165-5.87109-.33065-6.30352-1.29728-6.30352-.96664 0-1.05562.43243-1.29729 6.30475-.21555 5.2381-.42669 6.48913-1.24798 7.39451-1.39193 1.53447-3.61417 1.40967-4.94131-.27751zm3.59472-7.92852c.28796-7.05712.67137-7.82835 3.89185-7.82835 3.22463 0 3.6039.76695 3.89185 7.8699.21193 5.22783.40204 6.40022 1.03783 6.40022.66802 0 .81515-2.13332 1.03782-15.04849l.25946-15.04848 2.52861.0895c4.83332.17105 4.92875.24942 5.10174 4.19016.12604 2.87167.31851 3.52483 1.08147 3.67033.84594.16134.91486-.24854.77837-4.62874-.17028-5.46411.13258-5.15509-5.71963-5.8361l-2.97531-.34623-.75558 1.80838c-2.14352 5.13017-10.38973 5.13017-12.53325 0l-.75559-1.80837-2.9753.34623c-5.85895.68179-5.56988.38774-5.56988 5.66569 0 3.77217.14461 4.63288.77837 4.63288.59976 0 .81356-.80284.93172-3.4987.17298-3.94683.26736-4.02444 5.10173-4.19551l2.52861-.0895.13156 14.52958c.0724 7.99126.24763 14.84086.38947 15.22135.14183.38049.54965.59531.90626.47736.45192-.14947.72698-2.14099.90782-6.57309zm6.70607-24.22023c1.99713-1.68049 2.20234-4.43128.46826-6.27712-1.54445-1.64399-1.8963-1.5182-2.0836.74493-.12797 1.54629-.37418 1.94592-1.19888 1.94592-.82469 0-1.0709-.39963-1.19887-1.94592-.18701-2.25952-.38876-2.34155-2.01089-.81765-1.83705 1.72582-1.65657 4.62309.39555 6.34984.87811.73887 2.1445 1.3434 2.81421 1.3434.66971 0 1.93611-.60453 2.81422-1.3434zm-8.94146-6.57002c.80607-1.21296 2.21752-2.55565 3.13655-2.98375l1.67095-.778371.0112-4.739423c.0102-4.308006-.0832-4.764129-1.02659-5.010821-.70131-.183396-1.03783-.707806-1.03783-1.617261 0-1.336387-.0293-1.345864-4.15131-1.345864h-4.1513v18.68087h2.04136c1.82575 0 2.19614-.23293 3.50694-2.20538zm17.80278-7.135055V86.57195h-4.1513c-4.12207 0-4.1513.0094-4.1513 1.345864 0 .909455-.33653 1.433865-1.03783 1.617261-.94481.247072-1.03783.707807-1.03783 5.14055 0 4.117448.12819 4.869152.83027 4.869152.73322 0 2.45584 1.599573 5.08535 4.722103.52437.6227 1.49938.98594 2.64645.98594h1.81619zm-10.80031-9.989076.1626-1.686467 7.13505-.144367c5.80567-.11748 7.13506-.283937 7.13506-.893454 0-.609516-1.32939-.775983-7.13506-.893453l-7.13505-.144367-.16419-1.427011c-.21308-1.851797-1.5342-1.851797-1.74726 0l-.1642 1.427011-7.13505.144367c-5.80568.117478-7.13506.283939-7.13506.893455s1.32938.77598 7.13506.893454l7.13505.144367.16261 1.686467c.0969 1.005041.45054 1.686468.87522 1.686468s.77832-.681427.87522-1.686468z"
     style="fill:#000;fill-opacity:.501961;stroke:none;stroke-width:.868057"
     transform="translate(-151.714682 22.246689)"
     id="path24" /><path
     d="M218.11962 47.016599c-.48114-1.25383.2801-1.831046 2.41481-1.831046h2.03392v-6.691309c0-6.548191-.0332-6.743527-1.54828-9.132701-2.65704-4.189712-1.6021-8.186062 2.75289-10.428514 2.98769-1.538406 5.36609-1.199806 7.89595 1.1241 2.09782 1.927069 2.73961 4.14211 2.7573 9.516561l.0117 3.741686h29.93347v11.870177h6.70923V30.61312l1.54828-1.763403c3.80041-4.328429-.51347-10.332755-5.5518-7.727331-1.83284.947798-2.19977 1.711225-2.63573 5.48376l-.32803 2.838519-12.5802.138337c-12.90966.141964-14.79555-.104572-13.42573-1.755104.46327-.558207 2.98954-.705666 12.08921-.705666h11.50357l.33428-1.978605c.98505-5.830382 5.80976-8.654846 10.55624-6.17979 4.27249 2.227882 5.35425 7.117922 2.42439 10.959184-1.30092 1.705591-1.35401 2.038424-1.35401 8.489184v6.713989l2.1934.158701c1.79644.129967 2.1934.345505 2.1934 1.190888 0 .979677-.39184 1.039481-7.70211 1.175524-5.81581.108239-7.8046-.01814-8.12058-.516095-.23016-.362685-.42203-3.156037-.42637-6.207448l-.008-5.548018h-29.93338v-5.44462c0-6.171043-.61065-7.976328-3.03814-8.981829-4.9911-2.067382-9.13492 4.059554-5.21939 7.717221l1.54829 1.446315v15.068714h6.70924v-2.783304c0-3.011743 1.06313-4.248492 2.05649-2.392352.57269 1.070092.71131 5.635243.21071 6.939775-.44781 1.166979-15.55927 1.230164-16.00564.06693zm19.76906.0382c-.61559-1.604217.83431-1.869236 10.22634-1.869236 9.39204 0 10.84194.265019 10.22635 1.869223-.40169 1.046768-20.051 1.046768-20.45269 0zM225.83823 25.79731c-.46964-1.223892.6311-2.087071 1.61751-1.268414.61128.50731.66289.833982.21673 1.371578-.77284.931221-1.45196.893024-1.83424-.103168zm42.71935.103167c-.44616-.537595-.39455-.864267.21673-1.371577.98641-.818657 2.08715.04453 1.6175 1.268414-.38228.996188-1.06139 1.034384-1.83423.103167zM236.5029 8.8469144v-13.114376l2.1934-1.049185c3.58139-1.7131119 6.86257-2.3029741 11.16873-2.0078231 4.35608.2985723 9.05439 1.9717741 9.88272 3.5195101.53488.999448.68489 22.6844836.1702 24.6050366-.31096 1.16037-.31961 1.161216-11.86312 1.161216H236.5029Zm21.15987-.591153v-11.125057l-2.45145-1.11681c-3.48717-1.5886572-10.70542-1.5886572-14.19259 0l-2.45145 1.11681V19.380817h19.09549zm-27.353-8.21724404V-15.762909l1.36559-1.265595c2.69713-2.499618 6.4285-.906015 7.17319 3.06355.40196 2.142602.22861 2.089546 3.54243 1.084266 3.23945-.982722 8.20863-.982722 11.44809 0 1.3934.422704 2.68007.771068 2.85927.774141.17918.0031.58156-1.010141.89416-2.251587.95593-3.796332 4.56831-5.161877 7.061-2.669185l1.26678 1.266778V.00380636c0 15.42028364-.0226 15.76434664-1.03219 15.76434664-.56771 0-1.08156-.05807-1.1419-.129032-.0603-.07096-.23453-7.0963026-.38707-15.61186564l-.27736-15.48283136h-1.29024c-1.16494 0-1.30344.225529-1.42634 2.322426-.0748 1.277334-.25974 2.87-.41085 3.5392559-.31158 1.3798958-.60593 1.3557074-5.64618-.4639969-4.34525-1.568789-10.71619-1.269981-14.5168.6808632-1.45565.7471788-2.79104 1.2141007-2.96755 1.0376033-.17653-.1764974-.3209-1.5151441-.3209-2.9747695 0-2.993005-.87877-4.603892-2.35654-4.319786-.9533.183276-1.00966.886127-1.25613 15.66798436l-.25804 15.47610264-1.16122.164923-1.1612.164923z"
     style="stroke-width:.868056;stroke:none;fill:#000;fill-opacity:.50196099"
     transform="translate(-115.722675 31.517357)"
     id="path26" /><path
     d="M215.78846 256.37989c-.48005-.009-1.33908-.27015-1.90894-.58109-.56984-.31093-3.20904-2.69332-5.86487-5.29419-2.65582-2.60087-5.1825-5.39827-5.61482-6.21642-.5302-1.00337-.67219-2.09442-.43625-3.35206.28568-1.52284 1.97366-3.50527 9.21127-10.81802 5.36854-5.42427 9.7035-9.36111 10.99759-9.98757 1.48635-.71953 3.19715-1.03405 5.62455-1.03405 2.01389 0 4.07981-.31129 4.88739-.73643.76938-.40503 2.55974-1.92438 3.97856-3.37634 2.32901-2.38342 2.51497-2.74351 1.91375-3.70621-.59944-.95985-.43424-1.29795 1.65495-3.38713 2.03781-2.0378 2.44404-2.24391 3.33104-1.68996.87005.54334 1.29913.38834 3.09218-1.11702 1.67907-1.40965 2.14266-2.19077 2.39565-4.0365.17249-1.25874.78494-3.05113 1.36094-3.98312.57601-.93198 1.39933-1.8296 1.82961-1.99471.49923-.19158.94887.1179 1.24249.85517.25306.63546.60331 1.60233.77829 2.14859.24008.74951.46456.84678.91495.3964.32824-.32825.72856-2.27196.88958-4.31936.16095-2.04741.55485-3.80899.87514-3.91463.3203-.10563 1.34421.44901 2.27541 1.23255.93118.78354 2.12102 2.36675 2.64407 3.51823.52303 1.15149.95611 2.61812.96236 3.2592.008.79097.32408 1.1656.98428 1.1656.53509 0 1.30959-.50708 1.7211-1.12683.52156-.78552 1.03382-1.01724 1.69111-.76502.82377.31612.90377.7809.6332 3.67842-.17034 1.82411-.64468 4.11825-1.05407 5.09808-.6678 1.59827-.64527 2.06846.21902 4.57153.74604 2.16062.96717 4.34215.98027 9.67036.0137 5.85017-.10768 6.92815-.81512 7.19963-.45764.1756-1.82123-.1613-3.03022-.74868-2.19818-1.06795-2.19818-1.06795-4.5505 1.28436-1.30841 1.30841-2.60746 2.19461-2.92729 1.99695-.36967-.22847-.57498-2.57845-.57498-6.58117 0-6.22579 0-6.22579-1.62955-7.85536-1.54017-1.54017-1.65065-1.57261-2.01363-.59138-.21123.571-1.35969 1.91962-2.55215 2.99693-1.81543 1.64012-2.29655 1.85218-2.9576 1.30355-.66865-.55491-1.3369-.0935-4.36601 3.01453-3.57653 3.66973-3.57653 3.66973-3.5879 7.48688-.008 2.62862-.31355 4.46234-.98186 5.88932-.58792 1.25533-4.41236 5.48273-9.70195 10.72423-4.80232 4.75863-9.38774 8.89651-10.18983 9.19528-.8021.29876-1.85114.53613-2.33121.52746zm.23374-2.57447c1.31458 0 2.63098-1.0563 8.15164-6.54101 3.62113-3.59756 6.5162-6.59261 6.4335-6.65565-.0827-.063-1.51207-.37971-3.17631-.70371-1.66427-.32401-4.46172-1.23212-6.21654-2.01803-1.75484-.78592-4.38367-2.39888-5.84184-3.58436-2.65123-2.15541-2.65123-2.15541-6.8641 2.07943-3.34585 3.36335-4.21285 4.54661-4.21285 5.74974 0 1.22612.96824 2.48311 5.07937 6.59424 4.18927 4.18925 5.3541 5.07935 6.64713 5.07935zm15.32037-15.58537c1.46232.0335 2.24016-.29649 3.25395-1.38056.73275-.78354 1.42685-1.89086 1.54247-2.46071.11551-.56985.32685-2.71433.46949-4.76551.14255-2.05118.53334-4.26582.86824-4.92141.33491-.6556 2.03398-2.65013 3.7757-4.43229 3.16677-3.24028 3.16677-3.24028 1.49812-4.90894-1.66865-1.66865-1.66865-1.66865-4.90895 1.49813-1.78216 1.74172-3.77157 3.43805-4.42092 3.76962-.64936.33156-3.21369.7418-5.6985.91163-4.51784.30879-4.51784.30879-8.92122 4.63704-4.40338 4.32823-4.40338 4.32823-2.3312 6.10711 1.13969.97838 3.31595 2.41455 4.83613 3.19149 1.52019.77693 3.96794 1.7046 5.43948 2.06148 1.47153.35688 3.54027.66869 4.59721.69292zm27.18993-12.38899c.19811 0 1.00965-.62222 1.80343-1.3827 1.33982-1.28362 1.54603-1.33121 2.87759-.66418.78891.39519 1.62825.81005 1.8652.92192.23697.11188.35353-2.79463.25902-6.45891-.16055-6.22333-.26248-6.79356-1.54777-8.65366-.75679-1.09522-2.27143-2.59979-3.36587-3.34349-1.39918-.95076-2.86607-1.41556-4.94123-1.56565-2.2724-.16437-3.47849.0417-5.24292.89585-1.26037.61014-2.71284 1.57482-3.2277 2.14373-.91067 1.00628-.88864 1.08339.81022 2.83618 1.39877 1.44316 2.14368 1.80177 3.74262 1.80177 1.09797 0 2.68012.35362 3.51592.78583.83581.43221 1.87328 1.46967 2.30548 2.30548.52266 1.01068.78585 3.003.78585 5.94873 0 2.436.16212 4.4291.36016 4.4291zm-10.66995-8.80675c.18698 0 .64076-.36231 1.00827-.80513.57108-.68809.18894-1.28878-2.62911-4.13203-3.12398-3.15199-3.34739-3.28159-4.24953-2.46518-.91212.82546-.81576.99936 2.28905 4.13203 1.78269 1.79867 3.3943 3.27031 3.58132 3.27031zm16.67464-11.3797c.22403-.20114.54005-1.18344.70222-2.1829.29489-1.81719.29489-1.81719-1.94631-1.76844-2.2412.0488-2.2412.0488-2.59203-2.34265-.19305-1.31527-.70633-3.06367-1.14083-3.88533-.57172-1.08121-.86142-1.27926-1.04858-.71686-.14215.42738-.39945 1.62762-.57161 2.66717-.17211 1.03956-.7731 2.47506-1.33547 3.18998-.56237.71492-1.02247 1.40813-1.02247 1.54048 0 .13233.8756.38062 1.9458.55175 1.07019.17113 2.99344.98646 4.27387 1.81183 1.28043.82538 2.51136 1.33612 2.73541 1.13497zm-11.80433-3.12553c.71231 0 1.28736-.17484 1.27789-.38853-.01-.21369-.45481-.91305-.98963-1.55413-.5348-.64108-1.10985-1.1656-1.27787-1.1656-.16799 0-.3055.69936-.3055 1.55414 0 1.31237.20147 1.55412 1.29511 1.55412z"
     style="fill:#000;fill-opacity:.501961;stroke:none;stroke-width:.868212"
     transform="translate(-102.634672 -5.019984)"
     id="path28" /></svg>
