<?xml version="1.0" encoding="UTF-8" standalone="no"?>
<!-- Created with Inkscape (http://www.inkscape.org/) -->

<svg
   width="2048"
   height="2048"
   viewBox="0 0 541.86665 541.86666"
   version="1.1"
   id="svg5"
   xml:space="preserve"
   inkscape:version="1.2 (dc2aedaf03, 2022-05-15)"
   sodipodi:docname="Antifa_logo.svg"
   inkscape:export-filename="Antifa_logo.png"
   inkscape:export-xdpi="96"
   inkscape:export-ydpi="96"
   xmlns:inkscape="http://www.inkscape.org/namespaces/inkscape"
   xmlns:sodipodi="http://sodipodi.sourceforge.net/DTD/sodipodi-0.dtd"
   xmlns="http://www.w3.org/2000/svg"
   xmlns:svg="http://www.w3.org/2000/svg"><sodipodi:namedview
     id="namedview7"
     pagecolor="#505050"
     bordercolor="#eeeeee"
     borderopacity="1"
     inkscape:showpageshadow="0"
     inkscape:pageopacity="0"
     inkscape:pagecheckerboard="0"
     inkscape:deskcolor="#505050"
     inkscape:document-units="px"
     showgrid="true"
     inkscape:zoom="0.16794594"
     inkscape:cx="928.87033"
     inkscape:cy="869.32736"
     inkscape:window-width="1366"
     inkscape:window-height="705"
     inkscape:window-x="-8"
     inkscape:window-y="-8"
     inkscape:window-maximized="1"
     inkscape:current-layer="svg5"><inkscape:grid
       type="xygrid"
       id="grid3692"
       empspacing="128"
       enabled="false" /></sodipodi:namedview><defs
     id="defs2"><rect
       x="203.53125"
       y="-553.74962"
       width="2118.6446"
       height="392.9836"
       id="rect4274" /><rect
       x="-327.48634"
       y="-577.56681"
       width="2631.7992"
       height="577.56681"
       id="rect4167" /><rect
       x="-345.34923"
       y="-595.4297"
       width="2393.3492"
       height="595.4297"
       id="rect4157" /><inkscape:path-effect
       effect="envelope"
       id="path-effect4124"
       is_visible="true"
       lpeversion="1"
       yy="true"
       xx="true"
       bendpath1="M -183.1543,-306.3125 H 1767.1816"
       bendpath2="m 1767.1816,-306.3125 v 139.77539"
       bendpath3="M -183.1543,-166.53711 H 1767.1816"
       bendpath4="m -183.1543,-306.3125 v 139.77539" /><inkscape:path-effect
       effect="bspline"
       id="path-effect4122"
       is_visible="true"
       lpeversion="1"
       weight="33.333333"
       steps="1"
       helper_size="0"
       apply_no_weight="true"
       apply_with_weight="true"
       only_selected="false" /><inkscape:path-effect
       effect="bend_path"
       id="path-effect3831"
       is_visible="true"
       lpeversion="1"
       bendpath="M -183.1543,-236.4248 H 1767.1816"
       prop_scale="1"
       scale_y_rel="false"
       vertical="false"
       hide_knot="false" /><inkscape:path-effect
       effect="bend_path"
       id="path-effect3690"
       is_visible="true"
       lpeversion="1"
       bendpath="m 23.913689,147.5752 c 511.999991,-512 1024.000011,-512 1536.000011,0"
       prop_scale="1"
       scale_y_rel="false"
       vertical="false"
       hide_knot="false"
       bendpath-nodetypes="cc" /><inkscape:path-effect
       effect="lattice2"
       gridpoint0="-183.1543,-306.3125"
       gridpoint1="1767.1816,-306.3125"
       gridpoint2="-183.1543,-166.53711"
       gridpoint3="1767.1816,-166.53711"
       gridpoint4="304.42967,-306.3125"
       gridpoint5="1279.5976,-306.3125"
       gridpoint6="304.42967,-166.53711"
       gridpoint7="1279.5976,-166.53711"
       gridpoint8x9="792.01365,-306.3125"
       gridpoint10x11="792.01365,-166.53711"
       gridpoint12="-183.1543,-271.36865"
       gridpoint13="1767.1816,-271.36865"
       gridpoint14="-183.1543,-201.48096"
       gridpoint15="1767.1816,-201.48096"
       gridpoint16="304.42967,-271.36865"
       gridpoint17="1279.5976,-271.36865"
       gridpoint18="304.42967,-201.48096"
       gridpoint19="1279.5976,-201.48096"
       gridpoint20x21="792.01365,-271.36865"
       gridpoint22x23="792.01365,-201.48096"
       gridpoint24x26="-183.1543,-236.4248"
       gridpoint25x27="1767.1816,-236.4248"
       gridpoint28x30="304.42967,-236.4248"
       gridpoint29x31="1279.5976,-236.4248"
       gridpoint32x33x34x35="792.01365,-236.4248"
       id="path-effect3678"
       is_visible="true"
       lpeversion="1"
       horizontal_mirror="false"
       vertical_mirror="false"
       perimetral="false"
       live_update="true" /><rect
       x="-434.06825"
       y="-337.60864"
       width="2464.0682"
       height="621.62861"
       id="rect2600" /></defs><path
     style="color:#000000;display:inline;fill:#ffffff;fill-rule:nonzero;stroke:none;stroke-width:1.06667;stroke-miterlimit:10;-inkscape-stroke:none"
     d="M 270.93333,3.575e-6 C 121.33272,3.575e-6 3.575e-6,121.33272 3.575e-6,270.93333 c 0,149.6006 121.332716425,270.93332 270.933326425,270.93332 149.6006,0 270.93332,-121.33272 270.93332,-270.93332 C 541.86665,121.33272 420.53393,3.575e-6 270.93333,3.575e-6 Z"
     id="path1751"
     sodipodi:nodetypes="sssss"
     inkscape:label="White" /><path
     id="path1749"
     style="color:#000000;display:inline;fill:#000000;stroke-width:5;stroke-miterlimit:10;-inkscape-stroke:none"
     d="M 256,4.4999975 A 251.5,251.5 0 0 0 4.4999975,256 251.5,251.5 0 0 0 256,507.5 251.5,251.5 0 0 0 507.5,256 251.5,251.5 0 0 0 256,4.4999975 Z m 0,60.5000005 A 191,191 0 0 1 447,256 191,191 0 0 1 256,447 191,191 0 0 1 64.999998,256 191,191 0 0 1 256,64.999998 Z"
     transform="matrix(1.0583333,0,0,1.0583333,2.7000001e-6,2.7000001e-6)"
     inkscape:label="Black"
     class="UnoptimicedTransforms" /><path
     fill="#ff0000"
     d="m 69.917,251.25 c 0,0 41.084,38.416 102.417,46.083 61.332,7.667 67.039,-14.491 100.916,-14.25 21.548,0.153 29.334,9.584 29.334,9.584 l -53.506,149.67 c 0,0 -4.18,-0.044 -10.092,-0.692 -5.911,-0.648 -9.541,-1.294 -9.541,-1.294 L 257,357.5 c 0,0 -13.584,-8.707 -27.25,-10.5 -13.668,-1.793 -21.042,3 -46.5,2.5 -24.073,-0.473 -71.25,-12.75 -93.333,-45.75 -22.083,-33 -20,-52.5 -20,-52.5 z"
     id="path411"
     transform="matrix(1.0583333,0,0,1.0583333,2.7000001e-6,2.7000001e-6)"
     inkscape:label="Yellow"
     style="display:inline;fill:#ffe000;fill-opacity:1" /><path
     fill="#000000"
     d="m 125.667,122.917 c 0,0 28,33.083 89.25,34.333 61.251,1.25 95.917,-37.917 130.917,-33.333 35,4.584 63,43.333 77.75,50.167 L 333,425.75 c 0,0 -1.833,1.334 -11,4.667 -9.167,3.333 -11.333,4.333 -11.333,4.333 l 40.25,-122.917 c 0,0 -38.75,-32.687 -73.75,-35 -35.001,-2.313 -50.917,23.75 -110.083,13.75 C 107.917,280.583 69.5,243.5 69.5,243.5 c 0,0 -1.415,-21.067 14.5,-59.833 15.914,-38.765 41.667,-60.75 41.667,-60.75 z"
     id="path409"
     transform="matrix(1.0583333,0,0,1.0583333,2.7000001e-6,2.7000001e-6)"
     inkscape:label="Green"
     style="display:inline;fill:#00e000;fill-opacity:1" /><path
     id="text4165"
     style="font-style:normal;font-variant:normal;font-weight:normal;font-stretch:normal;font-size:42.1227px;font-family:Futura-Bold;-inkscape-font-specification:Futura-Bold;text-align:center;text-anchor:middle;white-space:pre;fill:#ffffff;fill-opacity:1;fill-rule:nonzero;stroke:none;stroke-width:16;stroke-linecap:round;stroke-linejoin:round;stroke-opacity:1;paint-order:stroke fill markers"
     d="M 273.03811 21.924759 L 264.78228 21.990905 L 265.03601 53.750723 L 273.29184 53.684577 L 273.03811 21.924759 z M 259.16867 21.984704 L 237.35347 23.95616 L 237.9834 30.920076 L 244.77937 30.305643 L 247.00869 54.973387 L 255.23144 54.23028 L 253.00161 29.562536 L 259.79809 28.94862 L 259.16867 21.984704 z M 281.0924 21.996073 L 278.69358 53.665457 L 296.71263 55.030748 L 297.24077 48.058047 L 287.45428 47.317007 L 287.86769 41.856359 L 297.15033 42.559675 L 297.67846 35.587491 L 288.39583 34.884175 L 288.79684 29.591992 L 298.58332 30.333032 L 299.11145 23.360847 L 281.0924 21.996073 z M 307.95277 24.411946 L 301.80483 55.571801 L 309.90459 57.169636 L 312.2693 45.185355 L 312.35199 45.201374 L 317.63228 58.694607 L 327.71591 60.68415 L 320.46209 46.02303 C 322.72908 46.065702 324.60135 45.37874 326.07828 43.960106 C 327.59455 42.513263 328.5647 40.715066 328.9887 38.566121 C 329.64644 35.232498 329.09152 32.604305 327.3242 30.681331 C 325.56231 28.730806 323.1413 27.437317 320.06108 26.800948 L 307.95277 24.411946 z M 230.04538 24.781433 L 222.00195 26.643334 L 226.38101 45.561559 L 226.29936 45.580679 L 207.18735 30.072582 L 199.14391 31.934484 L 206.30678 62.876781 L 214.35022 61.014879 L 209.96134 42.05583 L 210.04351 42.03671 L 229.16482 57.585631 L 237.20825 55.723729 L 230.04538 24.781433 z M 314.82936 32.208886 L 315.60657 32.405256 L 316.01998 32.486905 L 316.39153 32.560286 C 317.59289 32.854565 318.6382 33.360936 319.52674 34.08009 C 320.44827 34.777128 320.75951 35.883468 320.46054 37.39875 C 320.16156 38.914032 319.4505 39.832837 318.32785 40.155171 C 317.23818 40.45539 316.08191 40.513398 314.85881 40.32932 L 314.48674 40.25594 C 314.34899 40.22876 314.21391 40.18768 314.0816 40.13295 L 313.29663 39.977921 L 314.82936 32.208886 z M 190.13206 35.182865 L 173.26642 41.670841 L 184.66934 71.313992 L 201.53498 64.826016 L 199.02454 58.299799 L 189.86438 61.823615 L 187.89809 56.712816 L 196.58645 53.370385 L 194.076 46.844168 L 185.38765 50.1866 L 183.48234 45.232897 L 192.6425 41.709081 L 190.13206 35.182865 z M 364.78599 40.212015 L 341.05928 64.604324 L 349.11408 68.051659 L 353.29884 63.840546 L 363.75453 68.315208 L 363.48116 74.20012 L 371.57473 77.663992 L 373.07334 43.758568 L 364.78599 40.212015 z M 161.28731 48.753612 C 159.30276 48.797762 157.26322 49.362639 155.16882 50.448082 L 144.26199 56.224474 L 159.12775 84.291494 L 166.42343 80.42713 L 160.70595 69.632441 L 160.78036 69.593167 L 173.38425 76.740534 L 182.46689 71.929975 L 167.59493 65.119538 C 169.38205 63.723849 170.40263 62.010077 170.65521 59.977733 C 170.92055 57.898788 170.54043 55.891524 169.51523 53.955879 C 167.92486 50.953146 165.83768 49.261919 163.2536 48.882803 C 162.60429 48.78182 161.94882 48.738896 161.28731 48.753612 z M 364.99063 50.975182 L 365.06815 51.008255 L 364.1881 61.628278 L 357.87634 58.926634 L 364.99063 50.975182 z M 159.34169 56.436347 C 160.49647 56.396725 161.43516 57.059461 162.15806 58.42434 C 162.88095 59.789217 162.90817 60.950551 162.23971 61.908365 C 161.58291 62.828218 160.72202 63.60224 159.6564 64.230187 L 159.32102 64.407437 C 159.19694 64.473154 159.06654 64.526732 158.92931 64.567634 L 158.22186 64.942288 L 154.51563 57.944266 L 155.2422 57.606818 L 155.61479 57.409414 L 155.94965 57.232164 C 157.06784 56.703482 158.19859 56.43801 159.34169 56.436347 z M 394.56505 56.814102 C 393.20675 56.825033 391.87242 56.99823 390.56168 57.332933 C 388.46449 57.86846 386.54376 58.790071 384.79976 60.097622 C 383.07978 61.419722 381.65972 63.005425 380.53955 64.854955 C 379.31757 66.872623 378.5237 68.969165 378.1583 71.144493 C 377.83149 73.310349 378.00567 75.516668 378.68024 77.763727 C 379.32639 79.895084 380.30325 81.832812 381.61081 83.576809 C 382.95693 85.311334 384.57858 86.753389 386.47614 87.902643 C 386.95654 88.193594 387.42752 88.445887 387.88898 88.659703 C 388.37445 88.888065 388.86242 89.085105 389.35297 89.250881 C 389.97817 89.465375 390.6301 89.663126 391.30841 89.844126 C 391.97217 90.049148 392.69367 90.240098 393.47313 90.416701 L 398.57928 81.985692 C 397.2964 82.423453 395.95462 82.579047 394.55369 82.452847 C 393.16729 82.302625 391.89757 81.878337 390.74462 81.180056 C 388.55881 79.856231 387.20306 78.083362 386.67768 75.861001 C 386.17632 73.653187 386.57306 71.480304 387.86779 69.342536 C 389.14797 67.228788 390.88489 65.85105 393.07884 65.209972 C 395.31135 64.55942 397.5089 64.888748 399.67069 66.198025 C 400.87168 66.925401 401.8716 67.875927 402.67102 69.049531 C 403.47044 70.223133 403.93947 71.508922 404.07817 72.906143 L 409.18432 64.475133 C 408.41332 63.417232 407.5602 62.44095 406.62478 61.546113 C 405.71338 60.665823 404.69343 59.883736 403.56451 59.200003 L 403.38415 59.090966 L 403.23998 59.003632 C 401.33733 57.916965 399.26922 57.238962 397.03571 56.969648 C 396.20359 56.859648 395.38004 56.807544 394.56505 56.814102 z M 414.8062 67.409321 L 410.51912 72.933014 L 415.91 77.116738 L 400.72437 96.684019 L 407.24697 101.74573 L 422.4326 82.178961 L 427.82349 86.362685 L 432.11057 80.838475 L 414.8062 67.409321 z M 121.59464 71.649372 L 115.07411 76.713145 L 134.55406 101.79844 L 141.07459 96.734662 L 121.59464 71.649372 z M 145.74097 73.22912 L 135.73797 79.942406 L 139.2592 85.188597 L 149.2622 78.475312 L 145.74097 73.22912 z M 110.5979 80.127924 L 94.466066 94.945107 L 99.19601 100.09466 L 104.22206 95.478925 L 120.97659 113.72019 L 127.05684 108.135 L 110.30231 89.893736 L 115.32784 85.277997 L 110.5979 80.127924 z M 436.22504 84.682168 L 414.74677 108.07919 L 420.82908 113.66231 L 442.30684 90.265289 L 436.22504 84.682168 z M 89.187319 100.01818 L 83.922007 106.37748 L 98.87975 118.76122 L 98.826007 118.82634 L 74.224925 118.09046 L 68.959614 124.44977 L 93.423753 144.70434 L 98.688548 138.34504 L 83.698765 125.93443 L 83.752509 125.86932 L 108.38615 126.63206 L 113.65146 120.27276 L 89.187319 100.01818 z M 446.33502 101.30493 C 442.72723 101.30648 439.44537 102.58056 436.49014 105.12795 C 432.59771 108.4832 430.4998 112.47965 430.19595 117.11636 C 429.89211 121.75308 431.39956 125.99643 434.71816 129.84634 C 438.05509 133.7175 442.02947 135.83404 446.64198 136.19582 C 451.27282 136.57887 455.53481 135.09243 459.42724 131.73718 C 463.06445 128.60193 464.86703 124.69378 464.8357 120.01231 C 464.82564 115.3125 463.33712 111.21988 460.36982 107.73451 L 460.33778 107.7619 C 457.34922 104.29485 453.5317 102.20981 448.88474 101.50698 C 448.01742 101.37176 447.16759 101.30457 446.33502 101.30493 z M 447.28948 109.80363 C 447.57933 109.8052 447.87515 109.81971 448.17677 109.84704 C 450.62934 110.06864 452.67293 111.10658 454.30766 112.96003 L 454.27614 112.98742 C 455.8896 114.85918 456.61554 117.01341 456.45482 119.45059 C 456.33369 121.89069 455.44377 123.82581 453.78469 125.25592 C 451.72149 127.03439 449.43172 127.84046 446.91535 127.67386 C 444.4173 127.52853 442.36174 126.51998 440.74828 124.6482 C 439.13482 122.77642 438.4311 120.58376 438.6373 118.07031 C 438.86184 115.57813 440.00541 113.44297 442.06861 111.6645 C 443.52031 110.41315 445.2606 109.79263 447.28948 109.80363 z M 476.3952 129.37091 L 449.16172 145.71307 L 453.41004 152.79222 L 470.09688 142.77888 L 470.13977 142.85123 L 461.23437 165.83122 L 465.48217 172.91037 L 492.71565 156.56822 L 488.46785 149.48906 L 471.81719 159.4807 L 471.77378 159.40835 L 480.64352 136.45007 L 476.3952 129.37091 z M 58.414004 141.06736 L 53.850975 148.84156 L 75.057432 175.45389 L 79.492821 167.89776 L 75.842914 163.21587 L 81.600185 153.40717 L 87.403965 154.42055 L 91.860024 146.82824 L 58.414004 141.06736 z M 64.596573 149.92263 L 75.020742 152.13438 L 71.544985 158.05547 L 64.553681 149.99549 L 64.596573 149.92263 z M 385.25038 451.36675 L 376.46538 455.94374 L 378.62546 477.9026 L 362.27349 463.33708 L 353.57841 467.86704 L 365.50843 504.84101 L 374.29394 500.26403 L 366.94607 479.23275 L 367.03599 479.18573 L 385.01628 494.67832 L 388.5308 492.84743 L 386.49888 469.0463 L 386.5888 468.99927 L 399.25314 487.26172 L 408.08361 482.66097 L 385.25038 451.36675 z M 160.27548 454.71177 C 158.63227 454.74318 157.00075 454.98947 155.38121 455.45074 C 150.22851 456.94289 146.17347 460.43105 143.21554 465.91574 C 140.35409 471.22157 139.70801 476.41423 141.2782 481.4936 C 142.86444 486.54314 146.31075 490.49859 151.61658 493.36006 C 154.44835 494.88723 157.33802 495.77242 160.2853 496.01519 C 163.26241 496.27404 166.18941 495.69768 169.06668 494.28661 C 171.69846 492.97403 173.78698 491.34917 175.33193 489.41198 C 176.89296 487.44497 178.35569 485.23264 179.71978 482.77466 L 162.32652 473.39435 L 158.61305 480.28023 L 165.74285 484.18284 C 164.51908 486.02391 162.98621 487.08253 161.14417 487.35887 C 159.30211 487.63521 157.42742 487.2591 155.5197 486.23026 C 152.68794 484.70307 151.09051 482.45666 150.72775 479.49062 C 150.36498 476.52458 150.84508 473.74361 152.16797 471.14798 L 152.24032 471.01362 L 152.31266 470.87978 L 152.55348 470.43277 C 152.64993 470.25393 152.75335 470.09755 152.86353 469.96459 C 154.3147 467.63051 156.31718 465.84394 158.87092 464.60471 C 161.45447 463.38154 164.1026 463.5015 166.81514 464.96437 C 168.57381 465.91284 169.81388 467.2164 170.53532 468.87525 C 171.25677 470.53408 171.48932 472.31415 171.23347 474.21549 L 181.40701 475.2578 C 181.65043 471.31045 180.87857 467.85464 179.09139 464.88996 C 177.3501 461.91155 174.75064 459.49006 171.2929 457.62529 C 167.56316 455.61382 163.89058 454.64268 160.27548 454.71177 z M 187.29399 466.95857 L 174.0488 502.89901 L 194.49768 510.43498 L 197.41379 502.52229 L 186.30749 498.42951 L 188.59107 492.23299 L 199.12531 496.11493 L 202.04141 488.20223 L 191.50717 484.3203 L 193.72047 478.31446 L 204.82677 482.40724 L 207.74287 474.49454 L 187.29399 466.95857 z M 345.41974 470.87151 C 344.4458 470.87752 343.46851 470.93519 342.48813 471.04359 C 341.65253 471.1044 340.83817 471.22926 340.04487 471.41876 C 339.241 471.57608 338.46922 471.77649 337.72925 472.01976 C 334.09374 473.21493 331.45048 475.31394 329.7995 478.31653 C 328.18069 481.30855 327.97959 484.6543 329.19592 488.35416 C 330.32763 491.79664 331.9524 493.86478 334.07004 494.55895 C 336.18769 495.25312 338.80999 495.53209 341.93778 495.39507 L 342.16257 495.42815 C 342.25909 495.39642 342.345 495.38612 342.41992 495.39714 C 342.77338 495.38789 343.16408 495.384 343.59246 495.38577 C 344.01026 495.35537 344.43377 495.34111 344.86215 495.34288 C 345.86875 495.36846 346.81571 495.53816 347.70332 495.85241 C 348.62309 496.15608 349.23083 496.75818 349.52698 497.65902 C 349.91832 498.84941 349.78024 499.89324 349.11253 500.79009 C 348.43425 501.65477 347.57493 502.29391 346.5344 502.70729 L 346.34113 502.77085 L 346.14837 502.8339 C 344.53974 503.36273 342.90573 503.48986 341.24686 503.21527 C 339.62018 502.9301 338.03722 502.45264 336.4978 501.78228 L 334.96663 510.78793 C 337.2557 511.46139 339.61582 511.80846 342.04681 511.82921 C 344.46725 511.81779 346.81949 511.43656 349.10375 510.68561 C 349.32896 510.61158 349.54902 510.52156 349.76366 510.41535 L 350.5357 510.16161 C 352.10203 509.50409 353.57277 508.6638 354.94784 507.64135 C 356.32289 506.61892 357.44723 505.376 358.32076 503.91238 C 359.29125 502.30994 359.7907 500.63071 359.81937 498.87445 C 359.83747 497.08601 359.60377 495.34461 359.11812 493.65048 L 358.991 493.26445 L 358.86439 492.87843 C 357.89133 489.91855 356.29812 488.00037 354.08484 487.12374 C 351.89316 486.20438 349.39964 485.77617 346.60416 485.83959 L 343.96918 485.95741 C 343.72282 485.9671 343.46016 485.9821 343.18163 486.00237 C 342.92469 485.97988 342.65167 485.96259 342.36256 485.95069 C 341.59174 485.88325 340.84285 485.71928 340.11567 485.45925 C 339.37791 485.16704 338.88174 484.63511 338.6279 483.86296 C 338.36348 483.05864 338.45794 482.3146 338.91057 481.63106 C 339.3632 480.94751 339.93294 480.40376 340.62003 479.99963 C 340.79191 479.87183 340.97425 479.77629 341.16728 479.71283 C 341.34974 479.61719 341.52163 479.54299 341.6825 479.4901 C 342.8407 479.10934 344.02444 478.96962 345.23422 479.07101 C 346.46559 479.12964 347.63188 479.37018 348.73323 479.79241 L 350.07888 471.26373 C 348.94029 471.03696 347.71187 470.9096 346.3928 470.88288 C 346.06887 470.87351 345.74438 470.8695 345.41974 470.87151 z M 350.07888 471.26373 C 350.08649 471.26525 350.09453 471.26634 350.10214 471.26787 L 350.08612 471.21929 L 350.07888 471.26373 z M 322.8392 477.41374 L 313.12662 479.60431 L 321.55349 516.96895 L 331.26608 514.77839 L 322.8392 477.41374 z M 222.24069 477.49591 C 218.6199 477.54691 215.10226 478.5108 211.68733 480.38772 C 206.72713 483.08465 203.65277 487.26686 202.46412 492.93476 C 201.19206 499.00039 202.10846 504.36582 205.21331 509.03093 C 208.31816 513.69606 212.86998 516.65802 218.86932 517.91618 C 224.90182 519.18129 230.26046 518.29782 234.94483 515.26621 C 239.66233 512.24157 242.65723 507.6965 243.92929 501.63087 C 245.11794 495.96297 243.98258 490.89741 240.52381 486.4349 C 237.07201 481.93923 232.64805 479.10858 227.25227 477.94239 L 227.24194 477.992 C 225.55358 477.63793 223.88651 477.47273 222.24069 477.49591 z M 295.97211 481.15253 C 295.26728 481.16247 294.54881 481.20545 293.81617 481.28172 C 287.68558 481.91999 282.89469 484.3084 279.44392 488.44718 C 276.02684 492.58244 274.64075 497.74905 275.28603 503.94701 C 275.91027 509.94285 278.30185 514.59746 282.46027 517.90998 C 286.6152 521.18881 291.69036 522.51589 297.68622 521.89165 C 300.88624 521.55849 303.77258 520.66244 306.3446 519.20292 C 308.95031 517.7399 311.04429 515.61471 312.62691 512.82812 C 314.06213 510.26117 314.87237 507.74235 315.05777 505.27147 C 315.23965 502.76692 315.20199 500.1152 314.94459 497.31589 L 295.28946 499.36176 L 296.09975 507.14319 L 304.18918 506.35203 C 304.21502 508.56257 303.54484 510.3008 302.17845 511.5667 C 300.81206 512.83259 299.05086 513.57777 296.89505 513.80222 C 293.69502 514.13538 291.10986 513.17854 289.13945 510.93211 C 287.16904 508.68568 285.99959 506.11753 285.63062 503.22767 L 285.6146 503.07626 L 285.5991 502.92485 L 285.54639 502.41945 C 285.52535 502.21734 285.523 502.03018 285.53915 501.85825 C 285.42351 499.11226 286.07167 496.50819 287.48374 494.0458 C 288.92949 491.5799 291.18495 490.18741 294.25025 489.86828 C 296.23764 489.66137 297.99645 490.03983 299.52693 491.00413 C 301.05741 491.96843 302.25268 493.30838 303.11224 495.02352 L 312.10497 490.15457 C 310.0827 486.75584 307.49805 484.33495 304.35144 482.89196 C 301.81935 481.68932 299.02638 481.10947 295.97211 481.15253 z M 246.44593 482.78706 L 244.5892 521.04519 L 254.53433 521.52785 L 255.2485 506.8135 L 255.34978 506.81815 L 264.02264 521.98828 L 276.40328 522.58928 L 265.17089 506.3727 C 267.88313 506.025 269.99631 504.87554 271.509 502.9233 C 273.06369 500.93045 273.90484 498.61493 274.03288 495.97643 C 274.23151 491.8834 273.10719 488.84482 270.66048 486.86123 C 268.21539 484.84381 265.09968 483.72614 261.31273 483.50846 L 246.44593 482.78706 z M 223.11713 487.15785 C 223.82234 487.16733 224.54058 487.24421 225.27152 487.38884 L 225.26118 487.43845 C 228.17799 488.05016 230.45146 489.58274 232.08247 492.03559 C 233.75357 494.46225 234.3181 496.96812 233.77591 499.55348 C 233.10164 502.76859 231.49838 505.21795 228.96535 506.90135 C 226.46545 508.59169 223.75707 509.13104 220.84026 508.51934 C 217.92346 507.90764 215.64315 506.32176 213.99985 503.76252 C 212.3897 501.21023 211.92155 498.327 212.5958 495.11189 C 213.13799 492.52653 214.6454 490.45453 217.11749 488.89676 C 219.00164 487.70879 221.00147 487.12941 223.11713 487.15785 z M 256.02158 490.88062 L 256.98327 490.97829 L 257.49022 491.00309 L 257.94704 491.02531 C 259.43214 491.1652 260.76797 491.58597 261.95455 492.28777 C 263.17659 492.95739 263.7424 494.22241 263.65212 496.08289 C 263.56183 497.94336 262.87559 499.16426 261.59281 499.74623 C 260.3455 500.29602 258.97568 500.56884 257.48402 500.56427 L 257.02772 500.54205 C 256.85858 500.53384 256.69033 500.50863 256.52284 500.4666 L 255.55856 500.42009 L 256.02158 490.88062 z "
     inkscape:label="Text" /></svg>
