<?xml version="1.0" encoding="UTF-8" standalone="no"?>
<!-- Created with Inkscape (http://www.inkscape.org/) -->

<svg
   width="2048"
   height="2048"
   viewBox="0 0 541.86665 541.86666"
   version="1.1"
   id="svg5"
   inkscape:version="1.2 (dc2aedaf03, 2022-05-15)"
   sodipodi:docname="Qacc Flag.svg"
   inkscape:export-filename="Qacc Flag.png"
   inkscape:export-xdpi="96"
   inkscape:export-ydpi="96"
   xmlns:inkscape="http://www.inkscape.org/namespaces/inkscape"
   xmlns:sodipodi="http://sodipodi.sourceforge.net/DTD/sodipodi-0.dtd"
   xmlns="http://www.w3.org/2000/svg"
   xmlns:svg="http://www.w3.org/2000/svg">
  <sodipodi:namedview
     id="namedview7"
     pagecolor="#505050"
     bordercolor="#eeeeee"
     borderopacity="1"
     inkscape:showpageshadow="0"
     inkscape:pageopacity="0"
     inkscape:pagecheckerboard="0"
     inkscape:deskcolor="#505050"
     inkscape:document-units="px"
     showgrid="true"
     inkscape:zoom="0.34472044"
     inkscape:cx="633.84695"
     inkscape:cy="1053.0272"
     inkscape:window-width="1920"
     inkscape:window-height="1017"
     inkscape:window-x="-8"
     inkscape:window-y="-8"
     inkscape:window-maximized="1"
     inkscape:current-layer="svg5"
     showguides="false">
    <inkscape:grid
       type="axonomgrid"
       id="grid2018"
       units="px"
       spacingy="0.26458333"
       empspacing="128"
       originx="270.93333"
       originy="270.93333"
       enabled="false" />
    <inkscape:grid
       type="xygrid"
       id="grid985"
       empspacing="256"
       originx="270.93333"
       originy="270.93333" />
  </sodipodi:namedview>
  <defs
     id="defs2" />
  <path
     id="path718"
     style="fill:#002040;stroke-width:4.23333;stroke-linecap:round;stroke-linejoin:round;fill-opacity:1"
     inkscape:label="Background"
     d="M 270.93333 0 A 270.93332 270.93332 0 0 0 0 270.93333 A 270.93332 270.93332 0 0 0 270.93333 541.86666 A 270.93332 270.93332 0 0 0 541.86666 270.93333 A 270.93332 270.93332 0 0 0 270.93333 0 z " />
  <path
     id="path2199"
     style="fill:#00a0ff;fill-opacity:1;stroke-width:4.23333;stroke-linecap:round;stroke-linejoin:round"
     inkscape:label="Capri"
     d="M 0 0 L 0 270.93333 L 0 541.86666 L 270.93333 541.86666 L 541.86666 541.86666 L 541.86666 270.93333 L 541.86666 0 L 270.93333 0 L 0 0 z M 270.93333 33.866666 A 237.06601 237.06667 0 0 1 507.99999 270.93333 A 237.06601 237.06667 0 0 1 270.93333 507.99999 A 237.06601 237.06667 0 0 1 33.866666 270.93333 A 237.06601 237.06667 0 0 1 270.93333 33.866666 z M 329.59228 93.133331 L 285.59807 118.53333 L 373.58597 270.93333 L 285.59807 423.33332 L 329.59228 448.73332 L 432.24492 270.93333 L 329.59228 93.133331 z M 241.60385 143.93333 L 197.60964 169.33333 L 256.26859 270.93333 L 197.60964 372.53333 L 241.60385 397.93332 L 314.92754 270.93333 L 241.60385 143.93333 z M 153.61543 194.73333 L 109.62173 220.13333 L 138.95121 270.93333 L 109.62173 321.73333 L 153.61543 347.13333 L 197.60964 270.93333 L 153.61543 194.73333 z " />
</svg>
