<?xml version="1.0" encoding="UTF-8" standalone="no"?>
<!-- Created with Inkscape (http://www.inkscape.org/) -->

<svg
   width="4607.9995"
   height="3072"
   viewBox="0 0 1219.1998 812.79999"
   version="1.1"
   id="svg5"
   inkscape:version="1.2 (dc2aedaf03, 2022-05-15)"
   sodipodi:docname="Neptunial Flag.svg"
   inkscape:export-filename="Neptunial Flag.png"
   inkscape:export-xdpi="96"
   inkscape:export-ydpi="96"
   xmlns:inkscape="http://www.inkscape.org/namespaces/inkscape"
   xmlns:sodipodi="http://sodipodi.sourceforge.net/DTD/sodipodi-0.dtd"
   xmlns="http://www.w3.org/2000/svg"
   xmlns:svg="http://www.w3.org/2000/svg">
  <sodipodi:namedview
     id="namedview7"
     pagecolor="#505050"
     bordercolor="#eeeeee"
     borderopacity="1"
     inkscape:showpageshadow="0"
     inkscape:pageopacity="0"
     inkscape:pagecheckerboard="0"
     inkscape:deskcolor="#505050"
     inkscape:document-units="px"
     showgrid="true"
     inkscape:zoom="0.11196396"
     inkscape:cx="2241.7928"
     inkscape:cy="1482.62"
     inkscape:window-width="1366"
     inkscape:window-height="705"
     inkscape:window-x="-8"
     inkscape:window-y="-8"
     inkscape:window-maximized="1"
     inkscape:current-layer="svg5"
     showguides="true">
    <inkscape:grid
       type="xygrid"
       id="grid950"
       empspacing="64"
       originx="203.19995"
       originy="135.46666" />
  </sodipodi:namedview>
  <defs
     id="defs2" />
  <g
     id="g14896"
     inkscape:label="Flag 1"
     style="display:inline">
    <path
       id="rect184"
       style="display:inline;fill:#001020;fill-opacity:1;stroke-width:12.7005;stroke-linecap:round;stroke-linejoin:round;paint-order:stroke fill markers"
       d="M 0,0 V 812.79998 H 1219.1999 V 0 Z"
       inkscape:label="Background" />
    <path
       id="path9130"
       style="display:inline;fill:#004080;fill-opacity:1;stroke-width:8.62238;stroke-linecap:round;stroke-linejoin:round;paint-order:stroke fill markers"
       d="M 609.59998,-67.733331 C 483.85212,-67.733328 363.2544,-17.7799 274.33725,71.137257 185.42009,160.05441 135.46665,280.65214 135.46666,406.39999 c 0,125.74784 49.95343,246.34557 138.87059,335.26272 88.91716,88.91717 209.51487,138.87059 335.26273,138.87059 125.74785,0 246.34557,-49.95342 335.26273,-138.87059 88.91709,-88.91715 138.87059,-209.51488 138.87059,-335.26272 0,-125.74785 -49.9535,-246.34558 -138.87059,-335.262733 C 855.94556,-17.7799 735.34783,-67.733328 609.59998,-67.733331 Z m 0,135.466662 c 187.04024,-6e-6 338.66666,151.626409 338.66665,338.666659 1e-5,187.04024 -151.62641,338.66666 -338.66665,338.66665 C 422.55974,745.06665 270.93331,593.44023 270.93332,406.39999 270.93331,219.35973 422.55973,67.73332 609.59998,67.733331 Z"
       inkscape:label="Red Cog" />
    <path
       id="path8746"
       style="display:inline;fill:#ffffff;fill-opacity:1;stroke-width:9.87818;stroke-linecap:round;stroke-linejoin:round;paint-order:stroke fill markers"
       d="m 558.79998,-101.6 v 70.981198 a 440.26663,440.26666 0 0 0 -69.52547,13.781071 l -27.14459,-65.533466 -93.86662,38.880313 27.12289,65.480239 a 440.26663,440.26666 0 0 0 -59.06254,39.292174 l -50.01297,-50.012967 -71.84212,71.842124 50.01296,50.012964 a 440.26663,440.26666 0 0 0 -39.29217,59.06255 l -65.47972,-27.12238 -38.88083,93.8661 65.53346,27.14511 a 440.26663,440.26666 0 0 0 -13.78107,69.52496 H 101.6 v 101.59999 h 70.98119 a 440.26663,440.26666 0 0 0 13.78107,69.52496 l -65.53346,27.14511 38.88031,93.8661 65.48024,-27.12237 a 440.26663,440.26666 0 0 0 39.29217,59.06254 l -50.01296,50.01297 71.84212,71.84212 50.01297,-50.01297 a 440.26663,440.26666 0 0 0 59.06254,39.29218 l -27.12238,65.47972 93.86611,38.88083 27.14459,-65.53347 a 440.26663,440.26666 0 0 0 69.52547,13.78107 v 70.9812 h 101.6 v -70.9812 a 440.26663,440.26666 0 0 0 69.52495,-13.78107 l 27.14511,65.53347 93.8661,-38.88083 -27.12237,-65.47972 a 440.26663,440.26666 0 0 0 59.06254,-39.29218 l 50.01297,50.01297 71.84212,-71.84212 -50.01296,-50.01297 a 440.26663,440.26666 0 0 0 39.29217,-59.06254 l 65.47969,27.12237 38.8809,-93.8661 -65.5335,-27.14511 a 440.26663,440.26666 0 0 0 13.7811,-69.52496 H 1117.6 V 355.59999 h -70.711 a 440.26663,440.26666 0 0 0 -13.8368,-69.61384 l 65.319,-27.05623 -38.8809,-93.8661 -65.32053,27.05623 A 440.26663,440.26666 0 0 0 954.75616,133.08593 L 1004.7314,83.110686 932.88928,11.268562 882.91404,61.243805 A 440.26663,440.26666 0 0 0 823.8794,21.829675 l 27.05674,-65.320042 -93.8661,-38.88083 -27.05623,65.319008 A 440.26663,440.26666 0 0 0 660.39998,-30.88907 V -101.6 Z m 50.8,135.466665 A 372.53332,372.53332 0 0 1 982.1333,406.39999 372.53332,372.53332 0 0 1 609.59998,778.93331 372.53332,372.53332 0 0 1 237.06666,406.39999 372.53332,372.53332 0 0 1 609.59998,33.866665 Z"
       inkscape:label="White Cog" />
    <path
       id="path7822"
       style="display:inline;fill:#004080;fill-opacity:1;stroke-width:6.58545;stroke-linecap:round;stroke-linejoin:round;paint-order:stroke fill markers"
       d="M 609.59998,169.33333 A 237.06665,237.06665 0 0 0 372.53332,406.39999 237.06665,237.06665 0 0 0 609.59998,643.46664 237.06665,237.06665 0 0 0 846.66664,406.39999 237.06665,237.06665 0 0 0 609.59998,169.33333 Z m 0,135.46666 a 101.6,101.6 0 0 1 101.59999,101.6 101.6,101.6 0 0 1 -101.59999,101.59999 101.6,101.6 0 0 1 -101.6,-101.59999 101.6,101.6 0 0 1 101.6,-101.6 z"
       inkscape:label="Red Spikes" />
    <path
       id="path1004"
       style="display:inline;fill:#ffffff;fill-opacity:1;stroke-width:8.46701;stroke-linecap:round;stroke-linejoin:round;paint-order:stroke fill markers"
       d="m 609.59995,101.59999 -54.60493,109.21039 a 203.2,203.2 0 0 0 -88.97907,52.00561 l -71.94237,-71.94238 38.5842,115.75314 a 203.2,203.2 0 0 0 -26.25782,99.77324 h -101.6 l 109.21038,54.60493 a 203.2,203.2 0 0 0 52.00561,88.97907 l -71.94237,71.94237 115.75314,-38.5842 a 203.2,203.2 0 0 0 99.77323,26.25782 v 101.6 L 664.20489,601.9896 a 203.2,203.2 0 0 0 88.97906,-52.00561 l 71.94238,71.94237 -38.58421,-115.75314 a 203.2,203.2 0 0 0 26.25783,-99.77323 h 101.6 L 805.32754,351.86378 A 203.2,203.2 0 0 0 753.2718,262.72814 l 71.85453,-71.85453 -115.67201,38.55734 a 203.2,203.2 0 0 0 -99.85437,-26.23096 z m 0,169.33333 v 101.6 l 46.65142,-93.30283 a 135.46667,135.46667 0 0 1 49.13808,31.38 l -71.84212,71.84212 98.96243,-32.98765 a 135.46667,135.46667 0 0 1 12.55686,56.93503 h -101.6 l 93.22997,46.61524 a 135.46667,135.46667 0 0 1 -31.40946,49.07194 l -71.7398,-71.73981 32.95199,98.85547 a 135.46667,135.46667 0 0 1 -56.89937,12.66382 v -101.6 l -46.61524,93.22997 a 135.46667,135.46667 0 0 1 -49.07194,-31.40945 l 71.73981,-71.73981 -98.85547,32.952 a 135.46667,135.46667 0 0 1 -12.66382,-56.89937 h 101.6 l -93.22997,-46.61524 a 135.46667,135.46667 0 0 1 31.40945,-49.07194 l 71.73981,71.7398 -32.952,-98.85546 a 135.46667,135.46667 0 0 1 56.89937,-12.66383 z"
       inkscape:label="White Spikes" />
  </g>
  <g
     id="g14978"
     inkscape:label="Flag 2"
     style="display:none">
    <path
       id="rect184-62"
       style="display:inline;fill:#ffffff;fill-opacity:1;stroke-width:12.7005;stroke-linecap:round;stroke-linejoin:round;paint-order:stroke fill markers"
       d="M 0,0 V 812.79998 H 1219.1999 V 0 Z"
       inkscape:label="Background" />
    <path
       id="path14902"
       style="display:inline;fill:#c00000;fill-opacity:1;stroke-width:12.7005;stroke-linecap:round;stroke-linejoin:round;paint-order:stroke fill markers"
       d="m 372.53332,0 c 0,124.17777 0,248.35555 0,372.53332 -124.17777,0 -248.35555,0 -372.53332,0 v 67.73333 c 124.17777,0 248.35555,0 372.53332,0 0,124.17777 0,248.35555 0,372.53332 h 67.73333 c 0,-124.17777 0,-248.35555 0,-372.53332 259.64445,0 519.2889,0 778.93335,0 v -67.73333 c -259.64445,0 -519.2889,0 -778.93335,0 0,-124.17777 0,-248.35555 0,-372.53332 z"
       sodipodi:nodetypes="ccccccccccccc"
       inkscape:label="Wide Stripes" />
    <path
       id="path14910"
       style="display:inline;fill:#c00000;fill-opacity:1;stroke-width:12.7005;stroke-linecap:round;stroke-linejoin:round;paint-order:stroke fill markers"
       d="M 304.79999,0 V 304.79999 H 0 v 33.86666 c 112.88888,0 225.77777,0 338.66665,0 0,-112.88888 0,-225.77777 0,-338.66665 z m 169.33333,0 c 0,112.88888 0,225.77777 0,338.66665 248.35556,0 496.71112,0 745.06668,0 V 304.79999 H 507.99998 V 0 Z M 0,474.13332 v 33.86666 h 304.79999 v 304.79999 h 33.86666 c 0,-112.88888 0,-225.77777 0,-338.66665 -112.88888,0 -225.77777,0 -338.66665,0 z m 474.13332,0 c 0,112.88888 0,225.77777 0,338.66665 h 33.86666 V 507.99998 H 1219.2 v -33.86666 c -248.35556,0 -496.71112,0 -745.06668,0 z"
       sodipodi:nodetypes="cccccccccccccccccccccccccccc"
       inkscape:label="Medium Stripes" />
    <path
       id="path14914"
       style="display:inline;fill:#c00000;fill-opacity:1;stroke-width:12.7005;stroke-linecap:round;stroke-linejoin:round;paint-order:stroke fill markers"
       d="M 270.93332,0 V 270.93332 H 0 v 16.93334 H 287.86666 V 0 Z M 524.93331,0 V 287.86666 H 1219.2 V 270.93332 H 541.86665 V 0 Z M 0,524.93331 v 16.93334 h 270.93332 v 270.93332 h 16.93334 V 524.93331 Z m 524.93331,0 v 287.86666 h 16.93334 V 541.86665 H 1219.2 v -16.93334 z"
       inkscape:label="Thin Stripes" />
    <path
       id="path12685"
       style="display:inline;fill:#ffffff;fill-opacity:1;stroke-width:8.46701;stroke-linecap:round;stroke-linejoin:round;paint-order:stroke fill markers"
       d="M 406.39999,169.33333 A 237.06665,237.06665 0 0 0 169.33333,406.39999 237.06665,237.06665 0 0 0 406.39999,643.46664 237.06665,237.06665 0 0 0 643.46664,406.39999 237.06665,237.06665 0 0 0 406.39999,169.33333 Z"
       inkscape:label="White Circle" />
    <path
       id="path12688"
       style="display:inline;fill:#c00000;fill-opacity:1;stroke-width:10.1604;stroke-linecap:round;stroke-linejoin:round;paint-order:stroke fill markers"
       d="m 372.53332,169.33333 v 36.81377 a 203.2,203.2 0 0 0 -83.78196,34.70951 l -26.03562,-26.03562 -47.89475,47.89475 26.03562,26.03562 a 203.2,203.2 0 0 0 -34.70951,83.78196 h -36.81377 v 67.73333 h 36.81377 a 203.2,203.2 0 0 0 34.70951,83.78196 l -26.03562,26.03562 47.89475,47.89475 26.03562,-26.03562 a 203.2,203.2 0 0 0 83.78196,34.70951 v 36.81377 h 67.73333 v -36.81377 a 203.2,203.2 0 0 0 83.78196,-34.70951 l 26.03562,26.03562 47.89475,-47.89475 -26.03562,-26.03562 a 203.2,203.2 0 0 0 34.70951,-83.78196 h 36.81377 v -67.73333 h -36.81377 a 203.2,203.2 0 0 0 -34.70951,-83.78196 l 26.03562,-26.03562 -47.89475,-47.89475 -26.03562,26.03562 A 203.2,203.2 0 0 0 440.26665,206.1471 v -36.81377 z m 33.86667,67.73333 A 169.33334,169.33334 0 0 1 575.73331,406.39999 169.33334,169.33334 0 0 1 406.39999,575.73331 169.33334,169.33334 0 0 1 237.06666,406.39999 169.33334,169.33334 0 0 1 406.39999,237.06666 Z"
       inkscape:label="Big Cog" />
    <path
       id="path14528"
       style="display:inline;fill:#c00000;fill-opacity:1;stroke-width:25.401;stroke-linecap:round;stroke-linejoin:round;paint-order:stroke fill markers"
       d="m 389.46665,287.86666 v 18.40714 a 101.6,101.6 0 0 0 -41.89098,17.3545 l -13.01781,-13.01781 -23.94737,23.94737 13.01781,13.01781 a 101.6,101.6 0 0 0 -17.3545,41.89098 h -18.40714 v 33.86667 h 18.40714 a 101.6,101.6 0 0 0 17.3545,41.89098 l -13.01781,13.01781 23.94737,23.94737 13.01781,-13.01781 a 101.6,101.6 0 0 0 41.89098,17.3545 v 18.40714 h 33.86667 v -18.40714 a 101.6,101.6 0 0 0 41.89098,-17.3545 l 13.01781,13.01781 23.94737,-23.94737 -13.01781,-13.01781 a 101.6,101.6 0 0 0 17.3545,-41.89098 h 18.40714 v -33.86667 h -18.3627 A 101.6,101.6 0 0 0 489.21095,347.5364 l 12.97853,-12.97854 -23.94737,-23.94737 -12.97854,12.97853 a 101.6,101.6 0 0 0 -41.93025,-17.35966 v -18.3627 z m 16.93334,50.79999 a 67.73333,67.73333 0 0 1 67.73333,67.73334 67.73333,67.73333 0 0 1 -67.73333,67.73333 67.73333,67.73333 0 0 1 -67.73334,-67.73333 67.73333,67.73333 0 0 1 67.73334,-67.73334 z"
       inkscape:label="Small Cog" />
  </g>
</svg>
