<?xml version="1.0" encoding="UTF-8" standalone="no"?>
<!-- Created with Inkscape (http://www.inkscape.org/) -->

<svg
   width="2048"
   height="2048"
   viewBox="0 0 541.86665 541.86666"
   version="1.1"
   id="svg5"
   xml:space="preserve"
   inkscape:version="1.2 (dc2aedaf03, 2022-05-15)"
   sodipodi:docname="Anti-Theist Action.svg"
   inkscape:export-filename="Anti-Theist Action.png"
   inkscape:export-xdpi="96"
   inkscape:export-ydpi="96"
   xmlns:inkscape="http://www.inkscape.org/namespaces/inkscape"
   xmlns:sodipodi="http://sodipodi.sourceforge.net/DTD/sodipodi-0.dtd"
   xmlns="http://www.w3.org/2000/svg"
   xmlns:svg="http://www.w3.org/2000/svg"><sodipodi:namedview
     id="namedview7"
     pagecolor="#505050"
     bordercolor="#eeeeee"
     borderopacity="1"
     inkscape:showpageshadow="0"
     inkscape:pageopacity="0"
     inkscape:pagecheckerboard="0"
     inkscape:deskcolor="#505050"
     inkscape:document-units="px"
     showgrid="true"
     inkscape:zoom="0.16794594"
     inkscape:cx="854.44161"
     inkscape:cy="958.64181"
     inkscape:window-width="1366"
     inkscape:window-height="705"
     inkscape:window-x="-8"
     inkscape:window-y="-8"
     inkscape:window-maximized="1"
     inkscape:current-layer="svg5"><inkscape:grid
       type="xygrid"
       id="grid3692"
       empspacing="128"
       enabled="false" /></sodipodi:namedview><defs
     id="defs2"><rect
       x="-523.97813"
       y="-464.43516"
       width="2101.8668"
       height="333.44063"
       id="rect2118" /><rect
       x="-702.60704"
       y="-577.56681"
       width="2750.607"
       height="404.89219"
       id="rect1744" /><rect
       x="-148.85742"
       y="-506.11524"
       width="2685.1097"
       height="506.11524"
       id="rect3820" /><rect
       x="-95.268751"
       y="-506.11524"
       width="2220.9528"
       height="333.44063"
       id="rect3814" /><rect
       x="-315.57774"
       y="-518.02384"
       width="2762.7938"
       height="345.34922"
       id="rect3540" /><rect
       x="-1018.1848"
       y="-643.06407"
       width="2042.1848"
       height="643.06409"
       id="rect1870" /><rect
       x="-1012.2305"
       y="-559.70391"
       width="2476.9875"
       height="559.70391"
       id="rect457" /><rect
       x="203.53125"
       y="-553.74962"
       width="2118.6446"
       height="392.9836"
       id="rect4274" /><rect
       x="-327.48634"
       y="-577.56681"
       width="2631.7992"
       height="577.56681"
       id="rect4167" /><rect
       x="-345.34923"
       y="-595.4297"
       width="2393.3492"
       height="595.4297"
       id="rect4157" /><inkscape:path-effect
       effect="envelope"
       id="path-effect4124"
       is_visible="true"
       lpeversion="1"
       yy="true"
       xx="true"
       bendpath1="M -183.1543,-306.3125 H 1767.1816"
       bendpath2="m 1767.1816,-306.3125 v 139.77539"
       bendpath3="M -183.1543,-166.53711 H 1767.1816"
       bendpath4="m -183.1543,-306.3125 v 139.77539" /><inkscape:path-effect
       effect="bspline"
       id="path-effect4122"
       is_visible="true"
       lpeversion="1"
       weight="33.333333"
       steps="1"
       helper_size="0"
       apply_no_weight="true"
       apply_with_weight="true"
       only_selected="false" /><inkscape:path-effect
       effect="bend_path"
       id="path-effect3831"
       is_visible="true"
       lpeversion="1"
       bendpath="M -183.1543,-236.4248 H 1767.1816"
       prop_scale="1"
       scale_y_rel="false"
       vertical="false"
       hide_knot="false" /><inkscape:path-effect
       effect="bend_path"
       id="path-effect3690"
       is_visible="true"
       lpeversion="1"
       bendpath="m 23.913689,147.5752 c 511.999991,-512 1024.000011,-512 1536.000011,0"
       prop_scale="1"
       scale_y_rel="false"
       vertical="false"
       hide_knot="false"
       bendpath-nodetypes="cc" /><inkscape:path-effect
       effect="lattice2"
       gridpoint0="-183.1543,-306.3125"
       gridpoint1="1767.1816,-306.3125"
       gridpoint2="-183.1543,-166.53711"
       gridpoint3="1767.1816,-166.53711"
       gridpoint4="304.42967,-306.3125"
       gridpoint5="1279.5976,-306.3125"
       gridpoint6="304.42967,-166.53711"
       gridpoint7="1279.5976,-166.53711"
       gridpoint8x9="792.01365,-306.3125"
       gridpoint10x11="792.01365,-166.53711"
       gridpoint12="-183.1543,-271.36865"
       gridpoint13="1767.1816,-271.36865"
       gridpoint14="-183.1543,-201.48096"
       gridpoint15="1767.1816,-201.48096"
       gridpoint16="304.42967,-271.36865"
       gridpoint17="1279.5976,-271.36865"
       gridpoint18="304.42967,-201.48096"
       gridpoint19="1279.5976,-201.48096"
       gridpoint20x21="792.01365,-271.36865"
       gridpoint22x23="792.01365,-201.48096"
       gridpoint24x26="-183.1543,-236.4248"
       gridpoint25x27="1767.1816,-236.4248"
       gridpoint28x30="304.42967,-236.4248"
       gridpoint29x31="1279.5976,-236.4248"
       gridpoint32x33x34x35="792.01365,-236.4248"
       id="path-effect3678"
       is_visible="true"
       lpeversion="1"
       horizontal_mirror="false"
       vertical_mirror="false"
       perimetral="false"
       live_update="true" /><rect
       x="-434.06825"
       y="-337.60864"
       width="2464.0682"
       height="621.62861"
       id="rect2600" /></defs><path
     style="color:#000000;display:inline;fill:#ffffff;fill-rule:nonzero;stroke:none;stroke-width:1.06667;stroke-miterlimit:10;-inkscape-stroke:none"
     d="M 270.93333,3.575e-6 C 121.33272,3.575e-6 3.575e-6,121.33272 3.575e-6,270.93333 c 0,149.6006 121.332716425,270.93332 270.933326425,270.93332 149.6006,0 270.93332,-121.33272 270.93332,-270.93332 C 541.86665,121.33272 420.53393,3.575e-6 270.93333,3.575e-6 Z"
     id="path1751"
     sodipodi:nodetypes="sssss"
     inkscape:label="White" /><path
     fill="#ff0000"
     d="m 69.917,251.25 c 0,0 41.084,38.416 102.417,46.083 61.332,7.667 67.039,-14.491 100.916,-14.25 21.548,0.153 29.334,9.584 29.334,9.584 l -53.506,149.67 c 0,0 -4.18,-0.044 -10.092,-0.692 -5.911,-0.648 -9.541,-1.294 -9.541,-1.294 L 257,357.5 c 0,0 -13.584,-8.707 -27.25,-10.5 -13.668,-1.793 -21.042,3 -46.5,2.5 -24.073,-0.473 -71.25,-12.75 -93.333,-45.75 -22.083,-33 -20,-52.5 -20,-52.5 z"
     id="path411"
     transform="matrix(1.0583333,0,0,1.0583333,2.7000001e-6,2.7000001e-6)"
     inkscape:label="Grey"
     style="display:inline;fill:#404040;fill-opacity:1" /><path
     fill="#000000"
     d="m 125.667,122.917 c 0,0 28,33.083 89.25,34.333 61.251,1.25 95.917,-37.917 130.917,-33.333 35,4.584 63,43.333 77.75,50.167 L 333,425.75 c 0,0 -1.833,1.334 -11,4.667 -9.167,3.333 -11.333,4.333 -11.333,4.333 l 40.25,-122.917 c 0,0 -38.75,-32.687 -73.75,-35 -35.001,-2.313 -50.917,23.75 -110.083,13.75 C 107.917,280.583 69.5,243.5 69.5,243.5 c 0,0 -1.415,-21.067 14.5,-59.833 15.914,-38.765 41.667,-60.75 41.667,-60.75 z"
     id="path409"
     transform="matrix(1.0583333,0,0,1.0583333,2.7000001e-6,2.7000001e-6)"
     inkscape:label="Capri"
     style="display:inline;fill:#00b5ff;fill-opacity:1" /><path
     id="path1749"
     style="color:#000000;display:inline;fill:#000000;stroke-width:5;stroke-miterlimit:10;-inkscape-stroke:none"
     d="M 256,4.4999975 A 251.5,251.5 0 0 0 4.4999975,256 251.5,251.5 0 0 0 256,507.5 251.5,251.5 0 0 0 507.5,256 251.5,251.5 0 0 0 256,4.4999975 Z m 0,60.5000005 A 191,191 0 0 1 447,256 191,191 0 0 1 256,447 191,191 0 0 1 64.999998,256 191,191 0 0 1 256,64.999998 Z"
     transform="matrix(1.0583333,0,0,1.0583333,2.7000001e-6,2.7000001e-6)"
     inkscape:label="Black"
     class="UnoptimicedTransforms" /><path
     id="text1742"
     style="font-size:50.8px;font-family:Futura-Bold;-inkscape-font-specification:Futura-Bold;text-align:center;text-anchor:middle;white-space:pre;fill:#ffffff;fill-opacity:1;stroke-width:16;stroke-linecap:round;stroke-linejoin:round;paint-order:stroke fill markers"
     d="M 276.1945 15.832108 C 272.68207 15.896127 269.72853 16.998934 267.33406 19.140433 C 264.81383 21.425402 263.51335 24.514782 263.43249 28.408601 C 263.35727 32.031547 264.2032 34.521688 265.97032 35.879463 C 267.73745 37.237238 270.1192 38.370717 273.11511 39.279772 L 273.31613 39.385709 C 273.41771 39.387818 273.50181 39.406254 273.56883 39.441519 C 273.90531 39.550128 274.27534 39.676434 274.67884 39.820308 C 275.08303 39.930321 275.48715 40.057289 275.89065 40.201163 C 276.83168 40.559442 277.66865 41.03429 278.40161 41.625365 C 279.16841 42.217144 279.54164 42.986725 279.52195 43.934785 C 279.49594 45.187579 279.01911 46.126289 278.09155 46.750634 C 277.16469 47.341118 276.14228 47.658513 275.02352 47.70303 L 274.81991 47.698896 L 274.61682 47.694762 C 272.92387 47.659609 271.34088 47.237354 269.86724 46.427656 C 268.42746 45.618661 267.09242 44.642523 265.86284 43.499153 L 261.429 51.485745 C 263.36472 52.880895 265.47569 53.991786 267.76194 54.818358 C 270.04891 55.611071 272.39472 56.032447 274.79872 56.082364 C 275.03574 56.087285 275.27311 56.075128 275.51083 56.04619 L 276.32318 56.063243 C 278.01896 55.96296 279.68534 55.658639 281.32184 55.150638 C 282.95834 54.642635 284.43135 53.843492 285.74121 52.752851 C 287.18861 51.563445 288.21727 50.144967 288.82733 48.497814 C 289.43808 46.816801 289.79585 45.096684 289.90013 43.337405 L 289.9084 42.931229 L 289.91666 42.525052 C 289.98135 39.409996 289.11566 37.071611 287.31889 35.509976 C 285.55669 33.915187 283.34629 32.683276 280.68829 31.815112 L 278.16389 31.051334 C 277.92828 30.978694 277.67527 30.906086 277.4058 30.832743 C 277.17089 30.726243 276.91906 30.619034 276.65029 30.511832 C 275.94557 30.192334 275.29345 29.789288 274.69382 29.302604 C 274.0949 28.782058 273.80413 28.115866 273.82101 27.303242 C 273.83858 26.45676 274.17431 25.78601 274.82818 25.291479 C 275.48205 24.796947 276.20029 24.473088 276.98257 24.319962 C 277.18713 24.256462 277.39075 24.22686 277.5939 24.231079 C 277.79776 24.201438 277.98426 24.188289 278.15356 24.191804 C 279.37249 24.217115 280.53575 24.478504 281.64327 24.975736 C 282.78535 25.43981 283.80584 26.053597 284.70458 26.817484 L 288.8051 19.219498 C 287.80627 18.627524 286.68945 18.099801 285.45389 17.636649 C 284.24409 17.171169 282.99871 16.789607 281.71768 16.492016 C 280.90928 16.271987 280.09959 16.119272 279.28837 16.03468 C 278.47786 15.916228 277.6833 15.849312 276.90454 15.833142 C 276.66541 15.828176 276.42867 15.82784 276.1945 15.832108 z M 288.8051 19.219498 C 288.81165 19.223375 288.81873 19.226985 288.82526 19.230867 L 288.82629 19.180224 L 288.8051 19.219498 z M 253.20573 17.291451 L 243.28799 18.170467 L 246.67021 56.324209 L 256.58795 55.445193 L 253.20573 17.291451 z M 297.37099 17.744653 L 296.06874 26.076444 L 304.20003 27.347167 L 299.58688 56.85906 L 309.424 58.396951 L 314.03716 28.884541 L 322.16793 30.155781 L 323.47017 21.82399 L 297.37099 17.744653 z M 233.24571 19.264974 L 211.8496 23.40839 L 219.13184 61.012812 L 240.52795 56.869396 L 238.92443 48.590315 L 227.30395 50.840823 L 226.04821 44.357498 L 237.07028 42.222745 L 235.46728 33.943664 L 224.44521 36.078417 L 223.22823 29.794046 L 234.84871 27.544055 L 233.24571 19.264974 z M 199.48911 26.312605 L 190.14136 29.741336 L 195.23149 43.620076 L 181.73464 48.570161 L 176.64399 34.691939 L 167.29624 38.120153 L 180.48562 74.080748 L 189.83389 70.652533 L 184.42853 55.914932 L 197.92538 50.964847 L 203.33074 65.701931 L 212.679 62.2732 L 199.48911 26.312605 z M 363.0507 33.885786 L 334.8085 63.660712 L 344.57379 67.695608 L 349.55643 62.55432 L 362.23318 67.791726 L 361.99237 74.892585 L 371.8052 78.947117 L 373.09763 38.037471 L 363.0507 33.885786 z M 158.60427 42.45994 L 135.54314 55.343907 L 139.65659 62.705732 L 146.84065 58.692023 L 161.40978 84.768467 L 170.10176 79.912433 L 155.53314 53.835472 L 162.7172 49.821764 L 158.60427 42.45994 z M 363.46049 46.862255 L 363.55455 46.901012 L 362.65486 59.720901 L 355.00158 56.55882 L 363.46049 46.862255 z M 399.96731 54.345519 C 398.3292 54.330353 396.71635 54.510848 395.12884 54.887088 C 392.58885 55.48907 390.25382 56.560051 388.12359 58.100328 C 386.02201 59.658649 384.27651 61.541222 382.88722 63.748046 C 381.37161 66.155489 380.37081 68.667041 379.88481 71.282469 C 379.44552 73.887282 379.60922 76.551637 380.37574 79.275263 C 381.11041 81.858779 382.24766 84.215914 383.78794 86.346149 C 385.37491 88.465766 387.30071 90.23826 389.56484 91.663654 C 390.13804 92.024512 390.70063 92.338262 391.2526 92.605715 C 391.83322 92.891211 392.41741 93.139206 393.00546 93.349339 C 393.75486 93.621027 394.53691 93.872954 395.35105 94.105365 C 396.14715 94.366436 397.01315 94.611501 397.94934 94.840721 L 404.28229 84.781387 C 402.72624 85.282476 401.10514 85.442356 399.41851 85.260944 C 397.7499 85.050871 396.22754 84.512634 394.85186 83.646572 C 392.24379 82.004663 390.64652 79.838475 390.05939 77.147744 C 389.50092 74.475056 390.02453 71.863307 391.63035 69.312564 C 393.21813 66.790479 395.3411 65.165682 397.99999 64.438443 C 400.70556 63.700585 403.34826 64.143695 405.92767 65.76756 C 407.36067 66.669709 408.54717 67.836801 409.48662 69.268639 C 410.42609 70.700475 410.96446 72.260249 411.10255 73.947939 L 417.43601 63.888089 C 416.5284 62.59636 415.51963 61.401311 414.41035 60.302778 C 413.32975 59.222287 412.11626 58.25795 410.76923 57.409931 L 410.55426 57.274539 L 410.38218 57.166535 C 408.11061 55.816505 405.63096 54.955619 402.94335 54.584264 C 401.94228 54.434258 400.95018 54.354618 399.96731 54.345519 z M 424.85985 68.187051 L 419.41573 74.626968 L 425.70062 79.939822 L 406.41653 102.75135 L 414.02071 109.17938 L 433.30429 86.367853 L 439.58918 91.680707 L 445.03329 85.24079 L 424.85985 68.187051 z M 110.63304 73.572769 L 103.03143 80.003384 L 127.76946 109.24604 L 135.37106 102.81543 L 110.63304 73.572769 z M 140.19041 74.277118 L 128.35082 82.69831 L 132.7676 88.90775 L 144.60719 80.486558 L 140.19041 74.277118 z M 97.30517 84.799473 L 78.946084 103.79263 L 85.00928 109.65377 L 90.728827 103.7363 L 112.20607 124.49627 L 119.12606 117.33754 L 97.648818 96.577565 L 103.36837 90.660097 L 97.30517 84.799473 z M 450.1999 90.635293 L 422.66877 117.26571 L 429.59134 124.42238 L 457.12248 97.791962 L 450.1999 90.635293 z M 72.25812 111.19373 L 66.613504 119.39581 L 85.904832 132.67304 L 85.846955 132.75675 L 56.216206 134.50238 L 50.571072 142.70446 L 82.123668 164.41993 L 87.768801 156.21837 L 68.435615 142.9122 L 68.492975 142.82849 L 98.165582 141.11128 L 103.81072 132.90971 L 72.25812 111.19373 z M 460.21066 111.93528 C 456.42889 111.93133 452.85237 113.15037 449.4816 115.59243 C 444.46272 119.22848 441.53494 123.81695 440.69816 129.35799 C 439.86136 134.89904 441.24111 140.15166 444.83744 145.11569 C 448.45363 150.10713 453.01478 153.05459 458.52084 153.95856 C 464.04677 154.88995 469.31909 153.53802 474.33796 149.90196 C 479.02774 146.50432 481.59194 141.99062 482.03052 136.3617 C 482.4965 130.71291 481.12419 125.64356 477.91294 121.15333 L 477.8716 121.1833 C 474.63291 116.71293 470.25701 113.81896 464.74423 112.50166 C 463.20148 112.12558 461.69048 111.93683 460.21066 111.93528 z M 460.95687 122.26385 C 461.63008 122.26228 462.32627 122.3249 463.04563 122.45195 C 465.97035 122.96774 468.32044 124.42245 470.09636 126.81603 L 470.05554 126.846 C 471.80402 129.25945 472.45773 131.92225 472.01666 134.83466 C 471.62288 137.75463 470.35608 139.98936 468.21689 141.53916 C 465.55661 143.46648 462.7231 144.20244 459.71612 143.74626 C 456.72899 143.31751 454.36117 141.8964 452.61267 139.48296 C 450.86419 137.0695 450.24161 134.36299 450.74509 131.36356 C 451.26843 128.39154 452.86022 125.94145 455.52051 124.01413 C 457.12489 122.85178 458.93721 122.26856 460.95687 122.26385 z M 495.49068 150.17584 L 460.49643 165.74957 L 464.54528 174.84617 L 485.98686 165.3036 L 486.0282 165.39662 L 472.00167 191.6007 L 476.05 200.69731 L 511.04425 185.12306 L 506.9954 176.02646 L 485.60032 185.54888 L 485.55898 185.45586 L 499.53901 159.27245 L 495.49068 150.17584 z M 39.600166 165.28241 L 35.297586 175.26578 L 64.642565 203.95447 L 68.824738 194.25067 L 63.758381 189.19103 L 69.18699 176.5949 L 76.283714 176.94268 L 80.485525 167.19238 L 39.600166 165.28241 z M 48.319013 174.95831 L 61.123916 176.05178 L 57.846597 183.65597 L 48.278706 175.05184 L 48.319013 174.95831 z M 387.10556 453.62398 L 378.33297 458.22577 L 380.55506 480.17792 L 364.16226 465.65891 L 355.4801 470.21315 L 367.51399 507.15353 L 376.28658 502.55226 L 368.87928 481.54114 L 368.9692 481.49411 L 386.99342 496.93607 L 390.50225 495.09535 L 388.40367 471.2999 L 388.49359 471.25288 L 401.20909 489.47916 L 410.02664 484.85412 L 387.10556 453.62398 z M 159.1076 457.35657 C 157.44335 457.3632 155.74631 457.55685 154.01644 457.93741 C 148.49685 459.12539 144.36746 462.2707 141.62804 467.37301 C 138.69639 472.83338 138.06171 478.23906 139.72428 483.59063 C 141.38686 488.9422 144.91882 493.06804 150.3195 495.96765 C 152.13962 496.94487 153.90649 497.66256 155.62047 498.12152 C 157.34827 498.62634 159.0622 498.83529 160.76176 498.74836 L 161.74103 503.36823 L 170.47021 506.44039 L 167.86158 497.65954 C 170.20915 496.65203 172.27654 495.3791 174.06379 493.84013 C 175.86706 492.27132 177.36951 490.36774 178.57101 488.12988 C 181.51868 482.63968 182.06873 477.28428 180.22052 472.06368 C 178.40215 466.8591 174.86698 462.84724 169.61548 460.02772 C 166.27176 458.23249 162.76895 457.34197 159.1076 457.35657 z M 160.03571 467.21333 C 161.76714 467.227 163.45322 467.67427 165.09431 468.55537 C 167.7499 469.98115 169.46711 472.15249 170.24594 475.06918 C 171.0546 478.00189 170.77823 480.73607 169.41653 483.2723 C 169.30439 483.48117 169.16938 483.69712 169.01139 483.91981 C 168.89925 484.12867 168.77199 484.32951 168.63001 484.52235 C 168.15822 485.11471 167.63521 485.65999 167.06008 486.15843 C 166.48496 486.65687 165.8672 487.05575 165.20697 487.35474 L 164.15638 483.61957 L 155.32333 480.20324 L 157.83171 488.52676 C 157.30404 488.43565 156.79203 488.31478 156.2964 488.16399 C 155.81679 487.98337 155.35336 487.7728 154.90579 487.5325 C 152.28004 486.12275 150.53995 483.95825 149.68543 481.03936 C 148.83091 478.12047 149.18053 475.21377 150.73447 472.31948 C 151.98402 469.99211 154.02953 468.43826 156.87052 467.65723 C 157.94191 467.35316 158.99685 467.20513 160.03571 467.21333 z M 186.10388 470.02918 L 179.20301 490.48685 C 178.41282 492.82943 177.8208 495.16708 177.42689 497.50037 C 177.06508 499.84449 177.48507 502.20219 178.68676 504.57332 C 179.45232 506.11826 180.51827 507.46087 181.88502 508.60099 C 183.29468 509.71984 184.80142 510.65676 186.40516 511.41218 C 186.89695 511.64956 187.39444 511.87094 187.89705 512.07623 C 188.39967 512.28151 188.89158 512.46576 189.37293 512.62813 C 189.85428 512.7905 190.3571 512.94178 190.88137 513.08288 C 191.40563 513.22399 191.93533 513.34904 192.47042 513.45805 C 194.20405 513.82839 195.95452 513.99 197.72178 513.94278 C 199.53195 513.8743 201.20961 513.45725 202.75454 512.69169 C 205.14695 511.53291 206.8931 509.906 207.99298 507.81085 C 209.12496 505.72653 210.09153 503.49704 210.89255 501.12237 L 217.77688 480.71328 L 208.34232 477.53053 L 201.88018 496.68854 L 201.68536 497.26628 L 201.50656 497.79544 C 200.7384 499.96675 199.67682 501.84284 198.32174 503.42301 C 196.99876 505.014 194.94135 505.33833 192.14951 504.39659 C 189.35767 503.45485 187.90134 501.94526 187.78027 499.86715 C 187.69128 497.79987 187.99871 495.6698 188.70269 493.47684 L 188.88097 492.94716 L 189.09233 492.32136 L 195.53845 473.21193 L 186.10388 470.02918 z M 347.2713 473.28428 C 346.29741 473.29487 345.32059 473.3568 344.34073 473.4698 C 343.50542 473.53453 342.69142 473.66312 341.89902 473.85634 C 341.09589 474.01743 340.3248 474.22145 339.58598 474.46819 C 335.95612 475.68041 333.32308 477.79186 331.68621 480.80217 C 330.08146 483.80175 329.89597 487.14827 331.12965 490.84238 C 332.27751 494.27951 333.91183 496.34021 336.03271 497.02443 C 338.15359 497.70865 340.77747 497.97504 343.90458 497.82335 L 344.12937 497.85539 C 344.22574 497.82321 344.31175 497.81268 344.38672 497.82335 C 344.74013 497.81244 345.13088 497.80654 345.55926 497.8063 C 345.97692 497.77393 346.40005 497.75796 346.82843 497.75772 C 347.83515 497.77857 348.7826 497.94374 349.67167 498.25381 C 350.59286 498.55316 351.20374 499.15272 351.50412 500.05215 C 351.90104 501.24069 351.76815 502.2848 351.10466 503.18478 C 350.43044 504.05263 349.5739 504.6956 348.53531 505.11386 L 348.34255 505.17846 L 348.1498 505.24253 C 346.54367 505.77892 344.91049 505.91397 343.25036 505.64716 C 341.62235 505.36963 340.03713 504.89952 338.49458 504.23639 L 337.00578 513.24928 C 339.298 513.91198 341.65954 514.24763 344.09062 514.25697 C 346.51097 514.23419 348.86167 513.84196 351.14238 513.0803 C 351.36724 513.00521 351.58661 512.91415 351.80074 512.80693 L 352.57175 512.54958 C 354.13498 511.88471 355.60176 511.03806 356.972 510.00917 C 358.34225 508.98028 359.4607 507.73188 360.32735 506.26418 C 361.29031 504.6572 361.78177 502.97539 361.8022 501.21901 C 361.8119 499.4305 361.56974 497.69049 361.07614 495.99865 L 360.94747 495.61315 L 360.8188 495.22764 C 359.83185 492.27236 358.22974 490.3614 356.01237 489.49518 C 353.8164 488.5861 351.32064 488.17013 348.52549 488.24667 L 345.89102 488.37638 C 345.64471 488.38723 345.38243 488.40338 345.10399 488.42496 C 344.84695 488.40368 344.57409 488.38796 344.28492 488.37741 C 343.5138 488.31359 342.76384 488.15344 342.03545 487.89682 C 341.29632 487.60808 340.79791 487.0782 340.54045 486.30726 C 340.27226 485.50419 340.36285 484.75998 340.81226 484.07432 C 341.26168 483.38865 341.8293 482.84197 342.51449 482.43463 C 342.68577 482.30601 342.86745 482.2096 343.06019 482.14524 C 343.2422 482.04875 343.41376 481.97357 343.57437 481.91993 C 344.73079 481.53373 345.91431 481.38859 347.12454 481.4843 C 348.35617 481.53715 349.52333 481.77211 350.62665 482.18916 L 351.93252 473.65428 C 350.79272 473.43279 349.56377 473.31102 348.24437 473.29048 C 347.9204 473.28263 347.59593 473.28075 347.2713 473.28428 z M 351.93252 473.65428 C 351.93994 473.65573 351.94783 473.65645 351.95525 473.6579 L 351.93923 473.60984 L 351.93252 473.65428 z M 324.68302 479.94899 L 314.98283 482.19536 L 315.14665 482.9023 L 302.91742 484.36629 L 292.84155 501.48462 L 292.74026 501.49651 L 290.86234 485.80961 L 280.97613 486.99352 L 285.52934 525.02479 L 295.41555 523.8414 L 293.441 507.34732 L 293.54177 507.33543 L 308.27782 522.30144 L 321.08944 520.76768 L 302.19809 502.71762 L 315.15337 482.93175 L 323.62623 519.51091 L 333.3259 517.26402 L 324.68302 479.94899 z M 229.24595 482.67854 L 208.29994 517.96941 L 218.71688 519.74087 L 222.43655 513.62342 L 235.95872 515.92354 L 237.29662 522.9014 L 247.76368 524.68166 L 239.96313 484.50168 L 229.24595 482.67854 z M 251.83475 486.2468 L 250.94747 524.54006 L 260.9019 524.77054 L 261.24296 510.04224 L 261.34425 510.04483 L 270.39848 524.99068 L 282.79048 525.27749 L 271.15037 509.35081 C 273.85339 508.93466 275.93666 507.73189 277.3996 505.74173 C 278.90331 503.71014 279.68557 501.37374 279.74674 498.73285 C 279.84164 494.63609 278.64108 491.62752 276.1449 489.70653 C 273.6495 487.75169 270.50624 486.71317 266.71498 486.59148 L 251.83475 486.2468 z M 261.61245 494.09541 L 262.57622 494.16879 L 263.08368 494.18016 L 263.54101 494.19101 C 265.02918 494.29324 266.37504 494.68014 267.57901 495.35167 C 268.81762 495.99012 269.41532 497.24018 269.37218 499.10234 C 269.32905 500.96451 268.67404 502.20308 267.40641 502.81736 C 266.17342 503.39856 264.81114 503.70554 263.31984 503.73875 L 262.8625 503.72842 C 262.69321 503.72449 262.52458 503.70367 262.35607 503.66589 L 261.39127 503.64315 L 261.61245 494.09541 z M 232.51965 495.24211 L 232.6199 495.25916 L 234.58206 507.95968 L 226.41873 506.57114 L 232.51965 495.24211 z "
     inkscape:label="Text" /></svg>
