<?xml version="1.0" encoding="UTF-8" standalone="no"?>
<!-- Created with Inkscape (http://www.inkscape.org/) -->

<svg
   width="512"
   height="512"
   viewBox="0 0 135.46666 135.46667"
   version="1.1"
   id="svg5"
   inkscape:version="1.1 (c68e22c387, 2021-05-23)"
   sodipodi:docname="anarchy.svg"
   xmlns:inkscape="http://www.inkscape.org/namespaces/inkscape"
   xmlns:sodipodi="http://sodipodi.sourceforge.net/DTD/sodipodi-0.dtd"
   xmlns="http://www.w3.org/2000/svg"
   xmlns:svg="http://www.w3.org/2000/svg">
  <sodipodi:namedview
     id="namedview7"
     pagecolor="#505050"
     bordercolor="#eeeeee"
     borderopacity="1"
     inkscape:pageshadow="0"
     inkscape:pageopacity="0"
     inkscape:pagecheckerboard="0"
     inkscape:document-units="px"
     showgrid="false"
     inkscape:zoom="0.46324355"
     inkscape:cx="93.903088"
     inkscape:cy="227.74197"
     inkscape:window-width="1366"
     inkscape:window-height="705"
     inkscape:window-x="-8"
     inkscape:window-y="-8"
     inkscape:window-maximized="1"
     inkscape:current-layer="layer1"
     units="px" />
  <defs
     id="defs2">
    <rect
       x="0"
       y="384.00006"
       width="511.99998"
       height="127.99992"
       id="rect12253" />
  </defs>
  <g
     inkscape:label="Calque 1"
     inkscape:groupmode="layer"
     id="layer1">
    <path
       style="color:#000000;fill:#000000;fill-rule:evenodd;stroke-width:8.46667;-inkscape-stroke:none"
       d="M 16.933335,0 H 118.53333 c 9.38107,0 16.93333,7.5522663 16.93333,16.933332 V 118.53333 c 0,9.38106 -7.55226,16.93333 -16.93333,16.93333 H 16.933335 C 7.552269,135.46666 2.7270507e-6,127.91439 2.7270507e-6,118.53333 V 16.933332 C 2.7270507e-6,7.5522663 7.552269,0 16.933335,0 Z"
       id="rect846" />
    <path
       style="color:#000000;fill:#ff3a17;fill-rule:evenodd;stroke-width:8.46667;-inkscape-stroke:none"
       d="M 16.933332,8.5685921 H 118.53333 c 4.69054,0 8.46667,3.7761329 8.46667,8.4666659 v 84.666662 c 0,4.69054 -3.77613,8.46667 -8.46667,8.46667 H 16.933332 c -4.690533,0 -8.4666658,-3.77613 -8.4666658,-8.46667 V 17.035258 c 0,-4.690533 3.7761328,-8.4666659 8.4666658,-8.4666659 z"
       id="rect846-1" />
    <path
       style="color:#000000;fill:#000000;fill-rule:evenodd;stroke-width:0.264583;-inkscape-stroke:none"
       d="M 8.4666689,101.60001 H 127 c 4.69053,0 8.46666,3.77614 8.46666,8.46667 v 8.46667 c 0,4.69053 -3.77613,8.46666 -8.46666,8.46666 H 8.4666689 c -4.690533,0 -8.4666661729493,-3.77613 -8.4666661729493,-8.46666 v -8.46667 c 0,-4.69053 3.7761331729493,-8.46667 8.4666661729493,-8.46667 z"
       id="rect1024" />
    <g
       aria-label="ANARCHY"
       transform="matrix(0.26458333,0,0,0.26458333,33.851678,6.8438898)"
       id="text12251"
       style="font-weight:500;font-size:53.3333px;font-family:'Brandon Text';-inkscape-font-specification:'Brandon Text, Medium';white-space:pre;fill:#ffffff">
      <path
         style="color:#000000;-inkscape-font-specification:'Brandon Text, Medium';-inkscape-stroke:none"
         d="M 0.90666613,427.99997 H 6.7733293 c 1.066666,0 1.6533323,-0.64 1.9199989,-1.28 l 1.9199988,-4.26666 h 14.506658 l 1.919999,4.21333 c 0.48,1.01333 0.906666,1.33333 1.866665,1.33333 h 5.919997 c 0.799999,0 1.226666,-0.69333 0.906666,-1.38666 L 19.039989,390.72 c -0.16,-0.32 -0.533333,-0.58667 -0.906666,-0.58667 H 17.59999 c -0.373334,0 -0.746667,0.26667 -0.906667,0.58667 L 0,426.61331 c -0.31999981,0.69333 0.1066666,1.38666 0.90666613,1.38666 z m 12.90665887,-12.79999 3.999998,-8.79999 h 0.05333 l 4.053331,8.79999 z"
         id="path870" />
      <path
         style="color:#000000;-inkscape-font-specification:'Brandon Text, Medium';-inkscape-stroke:none"
         d="m 39.946546,426.98664 c 0,0.53333 0.48,1.01333 1.013333,1.01333 h 6.346663 c 0.586666,0 1.013332,-0.48 1.013332,-1.01333 v -19.89332 c 0,0 0.05333,0 0.05333,0 l 20.746654,20.85332 c 0.426667,0.42667 0.8,0.58667 1.333333,0.58667 h 0.533333 c 0.533333,0 1.013332,-0.32 1.013332,-0.96 V 391.68 c 0,-0.53334 -0.479999,-1.01334 -1.013332,-1.01334 h -6.399997 c -0.586666,0 -1.013332,0.48 -1.013332,1.01334 v 18.93332 c 0,0 -0.05333,0 -0.05333,0 L 43.039878,390.93333 c -0.426667,-0.42667 -0.8,-0.8 -1.333333,-0.8 h -0.799999 c -0.533333,0 -1.013333,0.42667 -1.013333,0.96 z"
         id="path872" />
      <path
         style="color:#000000;-inkscape-font-specification:'Brandon Text, Medium';-inkscape-stroke:none"
         d="m 77.119801,427.99997 h 5.866663 c 1.066666,0 1.653332,-0.64 1.919999,-1.28 l 1.919999,-4.26666 h 14.506658 l 1.92,4.21333 c 0.48,1.01333 0.90666,1.33333 1.86666,1.33333 h 5.92 c 0.8,0 1.22667,-0.69333 0.90667,-1.38666 L 95.253123,390.72 c -0.159999,-0.32 -0.533333,-0.58667 -0.906666,-0.58667 h -0.533333 c -0.373333,0 -0.746666,0.26667 -0.906666,0.58667 l -16.693323,35.89331 c -0.32,0.69333 0.106666,1.38666 0.906666,1.38666 z m 12.906659,-12.79999 3.999997,-8.79999 h 0.05333 l 4.053331,8.79999 z"
         id="path874" />
      <path
         style="color:#000000;-inkscape-font-specification:'Brandon Text, Medium';-inkscape-stroke:none"
         d="m 116.15968,426.98664 c 0,0.53333 0.42667,1.01333 1.01333,1.01333 h 6.34667 c 0.53333,0 1.01333,-0.48 1.01333,-1.01333 v -13.59999 h 3.68 l 7.09333,14.13332 c 0.10666,0.21334 0.42666,0.48 0.85333,0.48 h 7.09333 c 0.90666,0 1.28,-0.85333 0.90666,-1.54666 L 136.853,412.90665 c 4.96,-1.86667 7.89333,-5.81333 7.89333,-10.71999 0,-6.34667 -4.85333,-11.52 -11.62666,-11.52 h -15.94666 c -0.58666,0 -1.01333,0.48 -1.01333,1.01334 z m 8.37333,-20.37332 v -8.32 h 7.89333 c 2.18666,0 4.05333,1.54667 4.05333,4.05334 0,2.50666 -1.86667,4.26666 -4.05333,4.26666 z"
         id="path876" />
      <path
         style="color:#000000;-inkscape-font-specification:'Brandon Text, Medium';-inkscape-stroke:none"
         d="m 149.33293,409.38665 c 0,10.66666 8.58666,19.14666 19.25332,19.14666 4.74666,0 9.33333,-1.65334 12.95999,-5.17333 0.37334,-0.37334 0.42667,-1.06667 0.0533,-1.44 l -4.16,-4.42667 c -0.32,-0.37333 -1.01333,-0.37333 -1.38667,-0.0533 -1.92,1.65333 -4.21333,2.56 -7.14666,2.56 -6.02666,0 -10.50666,-4.90667 -10.50666,-10.82666 0,-5.97333 4.42666,-10.98666 10.45333,-10.98666 2.61333,0 5.01333,0.8 7.19999,2.72 0.37334,0.37333 0.96,0.37333 1.33334,0 l 4.15999,-4.32 c 0.42667,-0.42667 0.42667,-1.06667 -0.0533,-1.49333 -3.62667,-3.30667 -7.57333,-4.96 -12.90666,-4.96 -10.66666,0 -19.25332,8.58666 -19.25332,19.25332 z"
         id="path878" />
      <path
         style="color:#000000;-inkscape-font-specification:'Brandon Text, Medium';-inkscape-stroke:none"
         d="m 187.67952,426.98664 c 0,0.53333 0.48,1.01333 1.01333,1.01333 h 6.34666 c 0.58667,0 1.01334,-0.48 1.01334,-1.01333 v -14.02666 h 15.25332 v 14.02666 c 0,0.53333 0.42667,1.01333 1.01333,1.01333 h 6.34667 c 0.53333,0 1.01333,-0.48 1.01333,-1.01333 V 391.68 c 0,-0.53334 -0.48,-1.01334 -1.01333,-1.01334 h -6.34667 c -0.58666,0 -1.01333,0.48 -1.01333,1.01334 v 13.43999 H 196.05285 V 391.68 c 0,-0.53334 -0.42667,-1.01334 -1.01334,-1.01334 h -6.34666 c -0.53333,0 -1.01333,0.48 -1.01333,1.01334 z"
         id="path880" />
      <path
         style="color:#000000;-inkscape-font-specification:'Brandon Text, Medium';-inkscape-stroke:none"
         d="m 235.73278,426.98664 c 0,0.53333 0.42667,1.01333 1.01334,1.01333 h 6.34666 c 0.53333,0 1.01333,-0.48 1.01333,-1.01333 v -17.01332 l 11.94666,-17.75999 c 0.42667,-0.69333 0,-1.54667 -0.85333,-1.54667 h -6.93333 c -0.48,0 -0.69333,0.26667 -0.85333,0.48 l -7.41333,10.93333 -7.41333,-10.93333 c -0.16,-0.21333 -0.42667,-0.48 -0.85333,-0.48 h -6.93333 c -0.85333,0 -1.28,0.85334 -0.85333,1.54667 l 11.78665,17.81332 z"
         id="path882" />
    </g>
    <path
       style="color:#000000;fill:#000000;stroke:#000000;stroke-width:0.785541;stroke-miterlimit:4;stroke-dasharray:none;stroke-opacity:1"
       d="M 44.936852,92.600613 C 42.982337,92.175749 42.839777,92.060049 36.722288,85.933909 30.04973,79.251905 29.596279,78.527325 30.124093,75.390519 30.514008,73.0732 29.94735,73.73098 41.515863,62.167053 54.01212,49.675736 52.788151,50.476565 59.610761,50.327814 c 5.46017,-0.119041 5.079349,0.06178 9.863532,-4.683497 l 3.407074,-3.37937 -0.644455,-0.681417 C 71.645335,40.958027 71.592447,40.853416 71.592447,40.308634 V 39.71515 l 2.269701,-2.269692 2.2697,-2.269691 h 0.593478 c 0.543807,0 0.649799,0.05326 1.266237,0.63626 l 0.672749,0.63626 1.027057,-0.968384 c 1.185362,-1.117651 2.610895,-2.195795 3.586935,-2.712841 l 0.679627,-0.360022 0.0049,-1.750742 c 0.0089,-2.955341 1.133435,-5.850228 2.889255,-7.436507 0.962314,-0.869391 2.229808,-0.488408 2.434004,0.731616 0.177396,1.059876 0.582156,2.464707 0.878796,3.050088 l 0.3129,0.617484 0.214874,-0.287932 c 0.952546,-1.276397 1.453015,-4.121933 1.303409,-7.410756 l -0.07779,-1.70994 0.380602,-0.425961 c 1.879578,-2.103604 6.648569,3.425355 7.480311,8.67233 0.07274,0.459095 0.161532,1.021856 0.197229,1.250577 0.150899,0.966783 1.959019,0.01714 2.793149,-1.466999 0.4441,-0.790165 1.28588,-1.073902 1.97622,-0.666113 1.48641,0.878049 0.59605,9.135085 -1.28328,11.900762 l -0.30992,0.456095 0.48936,0.90726 c 1.65582,3.069765 1.75442,3.766556 1.81335,12.815264 0.0662,10.169423 0.27539,9.78511 -4.13794,7.603098 -2.362072,-1.167831 -2.460068,-1.203529 -2.623529,-0.95561 -0.05631,0.08537 -1.165896,1.202829 -2.465811,2.483254 l -2.363481,2.32805 h -0.591904 c -0.488643,0 -0.655193,-0.06331 -0.954822,-0.362938 l -0.362937,-0.362933 -9.4e-4,-6.124565 c -9.89e-4,-7.823072 -0.06007,-8.184362 -1.58361,-9.720115 -0.988411,-0.996329 -3.301547,-1.962456 -2.89937,-1.210986 0.47271,0.883276 0.319827,1.140938 -2.131465,3.592233 L 83.0698,51.192746 h -0.593436 c -0.54447,0 -0.649512,-0.053 -1.272145,-0.641861 l -0.678677,-0.641868 -3.168152,3.156159 c -4.879001,4.860523 -4.780817,4.658016 -4.901536,10.109263 -0.107833,4.870159 -0.470107,6.293835 -2.09179,8.220612 -0.906615,1.077181 -19.744401,19.854568 -20.282755,20.217732 -1.438131,0.970124 -3.449471,1.356325 -5.144665,0.98783 z m 2.97297,-3.01096 c 0.750715,-0.357921 14.81561,-14.215465 14.668973,-14.452712 -0.03474,-0.05616 0.01633,-0.07161 0.113563,-0.0343 0.09718,0.03731 0.20864,-0.01553 0.247711,-0.117337 0.04562,-0.118933 -0.004,-0.185599 -0.139185,-0.186434 -5.907811,-0.03661 -14.197698,-3.756752 -19.245347,-8.636454 -0.499055,-0.482454 -0.955178,-0.894198 -1.013617,-0.914996 -0.227433,-0.08094 -9.022955,8.879695 -9.322742,9.497755 -0.428671,0.883773 -0.474244,2.22686 -0.108734,3.204649 0.282023,0.754455 9.481978,10.247225 10.93629,11.284377 1.09561,0.78134 2.666672,0.92591 3.863088,0.355481 z M 66.790767,71.100546 c 2.622148,-2.562758 2.71381,-2.817683 2.82768,-7.864026 0.04849,-2.151115 0.126666,-4.050806 0.173615,-4.221529 0.815122,-2.964224 1.17504,-3.476566 5.424165,-7.721111 l 3.361698,-3.358075 -1.872016,-1.872022 -1.872036,-1.872016 -3.436725,3.436728 c -5.295944,5.295941 -5.533383,5.407009 -11.848468,5.542494 -5.446343,0.116845 -4.843137,-0.201611 -10.737943,5.669 l -4.314867,4.297156 0.666416,0.682051 c 2.779997,2.845246 7.018938,5.461681 10.979735,6.777119 2.785837,0.925215 5.250371,1.342753 9.180213,1.555302 0.312168,0.01689 0.549993,-0.15333 1.468533,-1.051071 z m 31.823122,-16.05876 c 0.401474,0 0.894739,0.185622 2.056421,0.773845 0.84053,0.425615 1.6288,0.81595 1.75168,0.86741 0.21377,0.08951 0.2217,-0.186875 0.1832,-6.392202 l -0.0402,-6.48577 -0.34186,-1.117464 c -1.30281,-4.258667 -5.069847,-7.917617 -8.806992,-8.554293 -0.186669,-0.03181 -0.390193,-0.08921 -0.452254,-0.127575 -0.06205,-0.03836 -0.669365,-0.130292 -1.349527,-0.204287 -3.612943,-0.393044 -7.392148,1.048283 -10.182576,3.883456 l -0.776624,0.789088 2.035458,2.022655 2.035449,2.022655 0.767321,-0.150962 c 3.426402,-0.674101 7.161142,1.378007 8.597541,4.724034 0.525844,1.224938 0.595803,2.02348 0.596546,6.809022 l 9.4e-4,4.554859 1.698796,-1.707235 c 1.651491,-1.659731 1.713454,-1.707236 2.226918,-1.707236 z M 80.504155,42.287083 76.74889,38.530307 75.850508,39.422696 c -0.494126,0.490817 -0.88607,0.906088 -0.870988,0.922837 0.960671,1.067157 4.140154,4.111149 4.236705,4.05615 0.07502,-0.04275 0.09253,-0.02952 0.03899,0.02933 -0.05364,0.05886 0.643762,0.849771 1.549715,1.757585 l 1.647166,1.65057 0.903686,-0.89765 0.903676,-0.89765 z m 21.067615,-7.099748 c 0.37441,-0.724046 1.19187,-4.616251 1.01186,-4.817853 -0.0128,-0.01431 -0.37111,0.08225 -0.79629,0.214577 -2.348651,0.730982 -4.315615,0.362889 -4.439342,-0.830769 -0.02712,-0.261387 -0.11004,-1.061917 -0.184324,-1.778956 -0.254183,-2.453612 -1.371913,-5.492412 -2.210954,-6.010964 -0.05126,-0.03171 -0.15886,0.595407 -0.239022,1.393586 -0.700351,6.973408 -4.692927,9.824941 -6.994375,4.995461 -0.296561,-0.622302 -0.406492,-0.75757 -0.491811,-0.605121 -0.256232,0.457849 -0.487208,1.715733 -0.487208,2.653255 v 1.008254 l 0.77602,-0.176769 c 4.275341,-0.973882 10.13344,0.704003 13.134706,3.762068 0.64245,0.654602 0.67827,0.662121 0.92074,0.193231 z"
       id="path135" />
  </g>
</svg>
