<?xml version="1.0" encoding="UTF-8" standalone="no"?>
<!-- Created with Inkscape (http://www.inkscape.org/) -->

<svg
   width="512"
   height="512"
   viewBox="0 0 135.46666 135.46667"
   version="1.1"
   id="svg5"
   inkscape:version="1.1 (c68e22c387, 2021-05-23)"
   sodipodi:docname="anarchy.svg"
   xmlns:inkscape="http://www.inkscape.org/namespaces/inkscape"
   xmlns:sodipodi="http://sodipodi.sourceforge.net/DTD/sodipodi-0.dtd"
   xmlns="http://www.w3.org/2000/svg"
   xmlns:svg="http://www.w3.org/2000/svg">
  <sodipodi:namedview
     id="namedview7"
     pagecolor="#505050"
     bordercolor="#eeeeee"
     borderopacity="1"
     inkscape:pageshadow="0"
     inkscape:pageopacity="0"
     inkscape:pagecheckerboard="0"
     inkscape:document-units="px"
     showgrid="false"
     inkscape:zoom="0.46324355"
     inkscape:cx="93.903088"
     inkscape:cy="227.74197"
     inkscape:window-width="1366"
     inkscape:window-height="705"
     inkscape:window-x="-8"
     inkscape:window-y="-8"
     inkscape:window-maximized="1"
     inkscape:current-layer="layer1"
     units="px" />
  <defs
     id="defs2">
    <rect
       x="0"
       y="384.00006"
       width="511.99998"
       height="127.99992"
       id="rect12253" />
  </defs>
  <g
     inkscape:label="Calque 1"
     inkscape:groupmode="layer"
     id="layer1">
    <path
       style="color:#000000;fill:#000000;fill-rule:evenodd;stroke-width:8.46667;-inkscape-stroke:none"
       d="M 16.933335,0 H 118.53333 c 9.38107,0 16.93333,7.5522663 16.93333,16.933332 V 118.53333 c 0,9.38106 -7.55226,16.93333 -16.93333,16.93333 H 16.933335 C 7.552269,135.46666 2.7270507e-6,127.91439 2.7270507e-6,118.53333 V 16.933332 C 2.7270507e-6,7.5522663 7.552269,0 16.933335,0 Z"
       id="rect846" />
    <path
       style="color:#000000;fill:#ff3a17;fill-rule:evenodd;stroke-width:8.46667;-inkscape-stroke:none"
       d="M 16.933332,8.5685921 H 118.53333 c 4.69054,0 8.46667,3.7761329 8.46667,8.4666659 v 84.666662 c 0,4.69054 -3.77613,8.46667 -8.46667,8.46667 H 16.933332 c -4.690533,0 -8.4666658,-3.77613 -8.4666658,-8.46667 V 17.035258 c 0,-4.690533 3.7761328,-8.4666659 8.4666658,-8.4666659 z"
       id="rect846-1" />
    <path
       style="color:#000000;fill:#000000;fill-rule:evenodd;stroke-width:0.264583;-inkscape-stroke:none"
       d="M 8.4666689,101.60001 H 127 c 4.69053,0 8.46666,3.77614 8.46666,8.46667 v 8.46667 c 0,4.69053 -3.77613,8.46666 -8.46666,8.46666 H 8.4666689 c -4.690533,0 -8.4666661729493,-3.77613 -8.4666661729493,-8.46666 v -8.46667 c 0,-4.69053 3.7761331729493,-8.46667 8.4666661729493,-8.46667 z"
       id="rect1024" />
    <g
       aria-label="ANARCHY"
       transform="matrix(0.26458333,0,0,0.26458333,33.851678,6.8438898)"
       id="text12251"
       style="font-weight:500;font-size:53.3333px;font-family:'Brandon Text';-inkscape-font-specification:'Brandon Text, Medium';white-space:pre;fill:#ffffff">
      <path
         style="color:#000000;-inkscape-font-specification:'Brandon Text, Medium';-inkscape-stroke:none"
         d="M 0.90666613,427.99997 H 6.7733293 c 1.066666,0 1.6533323,-0.64 1.9199989,-1.28 l 1.9199988,-4.26666 h 14.506658 l 1.919999,4.21333 c 0.48,1.01333 0.906666,1.33333 1.866665,1.33333 h 5.919997 c 0.799999,0 1.226666,-0.69333 0.906666,-1.38666 L 19.039989,390.72 c -0.16,-0.32 -0.533333,-0.58667 -0.906666,-0.58667 H 17.59999 c -0.373334,0 -0.746667,0.26667 -0.906667,0.58667 L 0,426.61331 c -0.31999981,0.69333 0.1066666,1.38666 0.90666613,1.38666 z m 12.90665887,-12.79999 3.999998,-8.79999 h 0.05333 l 4.053331,8.79999 z"
         id="path870" />
      <path
         style="color:#000000;-inkscape-font-specification:'Brandon Text, Medium';-inkscape-stroke:none"
         d="m 39.946546,426.98664 c 0,0.53333 0.48,1.01333 1.013333,1.01333 h 6.346663 c 0.586666,0 1.013332,-0.48 1.013332,-1.01333 v -19.89332 c 0,0 0.05333,0 0.05333,0 l 20.746654,20.85332 c 0.426667,0.42667 0.8,0.58667 1.333333,0.58667 h 0.533333 c 0.533333,0 1.013332,-0.32 1.013332,-0.96 V 391.68 c 0,-0.53334 -0.479999,-1.01334 -1.013332,-1.01334 h -6.399997 c -0.586666,0 -1.013332,0.48 -1.013332,1.01334 v 18.93332 c 0,0 -0.05333,0 -0.05333,0 L 43.039878,390.93333 c -0.426667,-0.42667 -0.8,-0.8 -1.333333,-0.8 h -0.799999 c -0.533333,0 -1.013333,0.42667 -1.013333,0.96 z"
         id="path872" />
      <path
         style="color:#000000;-inkscape-font-specification:'Brandon Text, Medium';-inkscape-stroke:none"
         d="m 77.119801,427.99997 h 5.866663 c 1.066666,0 1.653332,-0.64 1.919999,-1.28 l 1.919999,-4.26666 h 14.506658 l 1.92,4.21333 c 0.48,1.01333 0.90666,1.33333 1.86666,1.33333 h 5.92 c 0.8,0 1.22667,-0.69333 0.90667,-1.38666 L 95.253123,390.72 c -0.159999,-0.32 -0.533333,-0.58667 -0.906666,-0.58667 h -0.533333 c -0.373333,0 -0.746666,0.26667 -0.906666,0.58667 l -16.693323,35.89331 c -0.32,0.69333 0.106666,1.38666 0.906666,1.38666 z m 12.906659,-12.79999 3.999997,-8.79999 h 0.05333 l 4.053331,8.79999 z"
         id="path874" />
      <path
         style="color:#000000;-inkscape-font-specification:'Brandon Text, Medium';-inkscape-stroke:none"
         d="m 116.15968,426.98664 c 0,0.53333 0.42667,1.01333 1.01333,1.01333 h 6.34667 c 0.53333,0 1.01333,-0.48 1.01333,-1.01333 v -13.59999 h 3.68 l 7.09333,14.13332 c 0.10666,0.21334 0.42666,0.48 0.85333,0.48 h 7.09333 c 0.90666,0 1.28,-0.85333 0.90666,-1.54666 L 136.853,412.90665 c 4.96,-1.86667 7.89333,-5.81333 7.89333,-10.71999 0,-6.34667 -4.85333,-11.52 -11.62666,-11.52 h -15.94666 c -0.58666,0 -1.01333,0.48 -1.01333,1.01334 z m 8.37333,-20.37332 v -8.32 h 7.89333 c 2.18666,0 4.05333,1.54667 4.05333,4.05334 0,2.50666 -1.86667,4.26666 -4.05333,4.26666 z"
         id="path876" />
      <path
         style="color:#000000;-inkscape-font-specification:'Brandon Text, Medium';-inkscape-stroke:none"
         d="m 149.33293,409.38665 c 0,10.66666 8.58666,19.14666 19.25332,19.14666 4.74666,0 9.33333,-1.65334 12.95999,-5.17333 0.37334,-0.37334 0.42667,-1.06667 0.0533,-1.44 l -4.16,-4.42667 c -0.32,-0.37333 -1.01333,-0.37333 -1.38667,-0.0533 -1.92,1.65333 -4.21333,2.56 -7.14666,2.56 -6.02666,0 -10.50666,-4.90667 -10.50666,-10.82666 0,-5.97333 4.42666,-10.98666 10.45333,-10.98666 2.61333,0 5.01333,0.8 7.19999,2.72 0.37334,0.37333 0.96,0.37333 1.33334,0 l 4.15999,-4.32 c 0.42667,-0.42667 0.42667,-1.06667 -0.0533,-1.49333 -3.62667,-3.30667 -7.57333,-4.96 -12.90666,-4.96 -10.66666,0 -19.25332,8.58666 -19.25332,19.25332 z"
         id="path878" />
      <path
         style="color:#000000;-inkscape-font-specification:'Brandon Text, Medium';-inkscape-stroke:none"
         d="m 187.67952,426.98664 c 0,0.53333 0.48,1.01333 1.01333,1.01333 h 6.34666 c 0.58667,0 1.01334,-0.48 1.01334,-1.01333 v -14.02666 h 15.25332 v 14.02666 c 0,0.53333 0.42667,1.01333 1.01333,1.01333 h 6.34667 c 0.53333,0 1.01333,-0.48 1.01333,-1.01333 V 391.68 c 0,-0.53334 -0.48,-1.01334 -1.01333,-1.01334 h -6.34667 c -0.58666,0 -1.01333,0.48 -1.01333,1.01334 v 13.43999 H 196.05285 V 391.68 c 0,-0.53334 -0.42667,-1.01334 -1.01334,-1.01334 h -6.34666 c -0.53333,0 -1.01333,0.48 -1.01333,1.01334 z"
         id="path880" />
      <path
         style="color:#000000;-inkscape-font-specification:'Brandon Text, Medium';-inkscape-stroke:none"
         d="m 235.73278,426.98664 c 0,0.53333 0.42667,1.01333 1.01334,1.01333 h 6.34666 c 0.53333,0 1.01333,-0.48 1.01333,-1.01333 v -17.01332 l 11.94666,-17.75999 c 0.42667,-0.69333 0,-1.54667 -0.85333,-1.54667 h -6.93333 c -0.48,0 -0.69333,0.26667 -0.85333,0.48 l -7.41333,10.93333 -7.41333,-10.93333 c -0.16,-0.21333 -0.42667,-0.48 -0.85333,-0.48 h -6.93333 c -0.85333,0 -1.28,0.85334 -0.85333,1.54667 l 11.78665,17.81332 z"
         id="path882" />
    </g>
    <path
       style="color:#000000;fill:#000000;stroke-width:0.12546;-inkscape-stroke:none"
       d="m 44.703186,92.994357 c -1.97494,-0.429304 -2.11899,-0.546213 -8.30041,-6.736375 -6.74229,-6.751834 -7.20048,-7.483987 -6.66715,-10.653574 0.39399,-2.341536 -0.17859,-1.676882 11.51082,-13.361658 12.62685,-12.621858 11.39009,-11.81266 18.284,-11.962966 5.51723,-0.120285 5.13243,0.06243 9.96661,-4.732442 l 3.44268,-3.414686 -0.65119,-0.688538 c -0.59776,-0.63204 -0.6512,-0.737744 -0.6512,-1.28822 v -0.599686 l 2.29342,-2.293411 2.29342,-2.293411 h 0.59968 c 0.54949,0 0.65659,0.05382 1.27947,0.64291 l 0.67978,0.642909 1.03779,-0.978504 c 1.19775,-1.129331 2.63818,-2.218743 3.62442,-2.741192 l 0.68673,-0.363784 0.005,-1.769039 c 0.009,-2.986226 1.14528,-5.911366 2.91945,-7.514222 0.97237,-0.878477 2.25311,-0.493512 2.45944,0.739262 0.17925,1.070952 0.58824,2.490464 0.88798,3.081963 l 0.31617,0.623937 0.21712,-0.290941 c 0.9625,-1.289736 1.4682,-4.16501 1.31703,-7.488203 l -0.0786,-1.727809 0.38458,-0.430413 c 1.89922,-2.125588 6.71805,3.461152 7.558484,8.762961 0.0735,0.463892 0.16322,1.032534 0.19929,1.263646 0.15248,0.976886 1.97949,0.01732 2.82234,-1.48233 0.44874,-0.798423 1.29932,-1.085125 1.99687,-0.673074 1.50195,0.887225 0.60228,9.230551 -1.29669,12.025131 l -0.31316,0.460861 0.49448,0.916742 c 1.67312,3.101845 1.77275,3.805918 1.8323,12.94919 0.0669,10.275699 0.27827,9.88737 -4.18119,7.682555 -2.386754,-1.180036 -2.485774,-1.216107 -2.650944,-0.965597 -0.0569,0.08626 -1.17808,1.215399 -2.49158,2.509205 l -2.38818,2.35238 h -0.59809 c -0.49375,0 -0.66204,-0.06397 -0.9648,-0.366731 l -0.36673,-0.366726 -9.5e-4,-6.18857 c -10e-4,-7.904827 -0.0607,-8.269893 -1.60016,-9.821696 -0.99874,-1.006741 -3.33605,-1.982964 -2.92967,-1.223641 0.47765,0.892507 0.32317,1.152861 -2.15374,3.629774 l -2.29341,2.293411 h -0.59969 c -0.55016,0 -0.6563,-0.05355 -1.28544,-0.648569 l -0.68577,-0.648575 -3.20126,3.189142 c -4.92999,4.911318 -4.83078,4.706695 -4.95276,10.21491 -0.10896,4.921055 -0.47502,6.359609 -2.11365,8.306522 -0.91609,1.088438 -19.95074,20.062059 -20.49472,20.429018 -1.45316,0.980263 -3.48552,1.3705 -5.19843,0.998154 z m 3.00404,-3.042426 c 0.75856,-0.361662 14.97044,-14.364025 14.82227,-14.603751 -0.0351,-0.05675 0.0165,-0.07236 0.11475,-0.03466 0.0982,0.0377 0.21082,-0.01569 0.2503,-0.118564 0.0461,-0.120176 -0.004,-0.187538 -0.14064,-0.188382 -5.96955,-0.03699 -14.34607,-3.796012 -19.44647,-8.72671 -0.50427,-0.487496 -0.96516,-0.903542 -1.02421,-0.924558 -0.22981,-0.08179 -9.11725,8.972493 -9.42017,9.597012 -0.43315,0.893009 -0.4792,2.250132 -0.10987,3.238139 0.28497,0.76234 9.58107,10.354314 11.05058,11.402305 1.10706,0.789505 2.69454,0.935586 3.90346,0.359196 z m 19.07826,-18.682328 c 2.64955,-2.589541 2.74217,-2.84713 2.85723,-7.94621 0.049,-2.173595 0.12799,-4.093139 0.17543,-4.265646 0.82364,-2.995202 1.18732,-3.512898 5.48085,-7.801801 l 3.39683,-3.393168 -1.89158,-1.891586 -1.8916,-1.89158 -3.47264,3.472644 c -5.35129,5.351286 -5.59121,5.463515 -11.97229,5.600416 -5.50326,0.118066 -4.89375,-0.203718 -10.85016,5.728244 l -4.35996,4.342064 0.67338,0.689178 c 2.80905,2.874981 7.09229,5.518759 11.09448,6.847944 2.81495,0.934884 5.30524,1.356786 9.27615,1.571556 0.31543,0.01707 0.55574,-0.154933 1.48388,-1.062055 z M 98.941176,55.04302 c 0.40567,0 0.90409,0.187562 2.077914,0.781932 0.84932,0.430063 1.64582,0.824477 1.76999,0.876475 0.216,0.09045 0.22401,-0.188828 0.18511,-6.459004 l -0.0406,-6.55355 -0.34543,-1.129142 c -1.31642,-4.303172 -5.122834,-8.00036 -8.899034,-8.64369 -0.18862,-0.03214 -0.39427,-0.09014 -0.45698,-0.128908 -0.0627,-0.03876 -0.67636,-0.131654 -1.36363,-0.206422 -3.6507,-0.397152 -7.4694,1.059238 -10.28899,3.92404 l -0.78474,0.797334 2.05673,2.043793 2.05672,2.043793 0.77534,-0.152539 c 3.46221,-0.681146 7.23598,1.392407 8.68739,4.773402 0.53134,1.237739 0.60203,2.044627 0.60278,6.88018 l 9.5e-4,4.60246 1.71655,-1.725077 c 1.66875,-1.677076 1.73136,-1.725077 2.25019,-1.725077 z m -18.29899,-12.887997 -3.79451,-3.796036 -0.90777,0.901715 c -0.49929,0.495946 -0.89533,0.915557 -0.88009,0.932481 0.97071,1.078309 4.18342,4.154113 4.28098,4.098539 0.0758,-0.0432 0.0935,-0.02983 0.0394,0.02964 -0.0542,0.05947 0.65049,0.858651 1.56591,1.775952 l 1.66438,1.66782 0.91313,-0.907031 0.91312,-0.907031 z m 21.287784,-7.173944 c 0.37833,-0.731613 1.20433,-4.664493 1.02244,-4.868202 -0.0129,-0.01446 -0.37499,0.08311 -0.80461,0.216819 -2.373204,0.738622 -4.360724,0.366682 -4.485744,-0.839451 -0.0274,-0.264118 -0.11119,-1.073014 -0.18625,-1.797547 -0.25684,-2.479253 -1.38625,-5.54981 -2.23406,-6.073781 -0.0518,-0.03204 -0.16052,0.601629 -0.24152,1.408149 -0.70767,7.046284 -4.74197,9.927617 -7.06747,5.047667 -0.29966,-0.628806 -0.41074,-0.765487 -0.49695,-0.611445 -0.25891,0.462634 -0.4923,1.733663 -0.4923,2.680983 v 1.01879 l 0.78413,-0.178616 c 4.32002,-0.984059 10.23934,0.71136 13.271974,3.801384 0.64916,0.661443 0.68536,0.66904 0.93036,0.19525 z"
       id="path135" />
  </g>
</svg>
