<?xml version="1.0" encoding="UTF-8" standalone="no"?>
<!-- Created with Inkscape (http://www.inkscape.org/) -->

<svg
   width="512"
   height="512"
   viewBox="0 0 135.46666 135.46667"
   version="1.1"
   id="svg5"
   inkscape:version="1.1 (c68e22c387, 2021-05-23)"
   sodipodi:docname="commerce.svg"
   xmlns:inkscape="http://www.inkscape.org/namespaces/inkscape"
   xmlns:sodipodi="http://sodipodi.sourceforge.net/DTD/sodipodi-0.dtd"
   xmlns="http://www.w3.org/2000/svg"
   xmlns:svg="http://www.w3.org/2000/svg">
  <sodipodi:namedview
     id="namedview7"
     pagecolor="#505050"
     bordercolor="#eeeeee"
     borderopacity="1"
     inkscape:pageshadow="0"
     inkscape:pageopacity="0"
     inkscape:pagecheckerboard="0"
     inkscape:document-units="px"
     showgrid="false"
     inkscape:zoom="0.46324355"
     inkscape:cx="93.903088"
     inkscape:cy="227.74197"
     inkscape:window-width="1366"
     inkscape:window-height="705"
     inkscape:window-x="-8"
     inkscape:window-y="-8"
     inkscape:window-maximized="1"
     inkscape:current-layer="layer1"
     units="px" />
  <defs
     id="defs2">
    <rect
       x="0"
       y="384.00006"
       width="511.99998"
       height="127.99992"
       id="rect12253" />
  </defs>
  <g
     inkscape:label="Calque 1"
     inkscape:groupmode="layer"
     id="layer1">
    <path
       style="color:#000000;fill:#000000;fill-rule:evenodd;stroke-width:8.46667;-inkscape-stroke:none"
       d="M 16.933335,0 H 118.53333 c 9.38107,0 16.93333,7.5522663 16.93333,16.933332 V 118.53333 c 0,9.38106 -7.55226,16.93333 -16.93333,16.93333 H 16.933335 C 7.552269,135.46666 2.7270507e-6,127.91439 2.7270507e-6,118.53333 V 16.933332 C 2.7270507e-6,7.5522663 7.552269,0 16.933335,0 Z"
       id="rect846" />
    <path
       style="color:#000000;fill:#ffc100;fill-rule:evenodd;stroke-width:8.46667;-inkscape-stroke:none"
       d="M 16.933332,8.5685921 H 118.53333 c 4.69054,0 8.46667,3.7761329 8.46667,8.4666659 v 84.666662 c 0,4.69054 -3.77613,8.46667 -8.46667,8.46667 H 16.933332 c -4.690533,0 -8.4666658,-3.77613 -8.4666658,-8.46667 V 17.035258 c 0,-4.690533 3.7761328,-8.4666659 8.4666658,-8.4666659 z"
       id="rect846-1" />
    <path
       style="color:#000000;fill:#000000;fill-rule:evenodd;stroke-width:0.264583;-inkscape-stroke:none"
       d="M 8.4666689,101.60001 H 127 c 4.69053,0 8.46666,3.77614 8.46666,8.46667 v 8.46667 c 0,4.69053 -3.77613,8.46666 -8.46666,8.46666 H 8.4666689 c -4.690533,0 -8.4666661729493,-3.77613 -8.4666661729493,-8.46666 v -8.46667 c 0,-4.69053 3.7761331729493,-8.46667 8.4666661729493,-8.46667 z"
       id="rect1024" />
    <g
       aria-label="COMMERCE"
       transform="matrix(0.26458333,0,0,0.26458333,27.537932,6.8438898)"
       id="text12251"
       style="font-weight:500;font-size:53.3333px;font-family:'Brandon Text';-inkscape-font-specification:'Brandon Text, Medium';white-space:pre;fill:#ffffff">
      <path
         style="color:#000000;-inkscape-font-specification:'Brandon Text, Medium';-inkscape-stroke:none"
         d="m 2.0799988,409.38665 c 0,10.66666 8.5866612,19.14666 19.2533222,19.14666 4.746663,0 9.333327,-1.65334 12.959992,-5.17333 0.373333,-0.37334 0.426666,-1.06667 0.05333,-1.44 l -4.159997,-4.42667 c -0.32,-0.37333 -1.013333,-0.37333 -1.386666,-0.0533 -1.919999,1.65333 -4.213331,2.56 -7.146663,2.56 -6.026663,0 -10.50666,-4.90667 -10.50666,-10.82666 0,-5.97333 4.426664,-10.98666 10.453327,-10.98666 2.613332,0 5.01333,0.8 7.199996,2.72 0.373333,0.37333 0.959999,0.37333 1.333332,0 l 4.159998,-4.32 c 0.426666,-0.42667 0.426666,-1.06667 -0.05333,-1.49333 -3.626665,-3.30667 -7.573329,-4.96 -12.906659,-4.96 -10.666661,0 -19.2533222,8.58666 -19.2533222,19.25332 z"
         id="path827" />
      <path
         style="color:#000000;-inkscape-font-specification:'Brandon Text, Medium';-inkscape-stroke:none"
         d="m 37.333173,409.38665 c 0,10.66666 8.479995,19.14666 19.146655,19.14666 10.66666,0 19.199988,-8.48 19.199988,-19.14666 0,-10.66666 -8.533328,-19.25332 -19.199988,-19.25332 -10.66666,0 -19.146655,8.58666 -19.146655,19.25332 z m 8.533328,0 c 0,-5.86666 4.799997,-10.71999 10.613327,-10.71999 5.866663,0 10.66666,4.85333 10.66666,10.71999 0,5.81333 -4.799997,10.61333 -10.66666,10.61333 -5.81333,0 -10.613327,-4.8 -10.613327,-10.61333 z"
         id="path829" />
      <path
         style="color:#000000;-inkscape-font-specification:'Brandon Text, Medium';-inkscape-stroke:none"
         d="m 79.679726,426.82664 c -0.106666,0.69333 0.373334,1.17333 1.013333,1.17333 h 6.29333 c 0.533333,0 0.959999,-0.42666 1.013332,-0.85333 l 2.346666,-16.47999 h 0.106666 l 9.013328,17.27999 c 0.16,0.32 0.586669,0.58667 0.906669,0.58667 h 0.96 c 0.26666,0 0.74666,-0.26667 0.90666,-0.58667 l 8.96,-17.27999 h 0.10666 l 2.4,16.47999 c 0.0533,0.42667 0.53334,0.85333 1.01334,0.85333 h 6.29333 c 0.63999,0 1.11999,-0.48 1.01333,-1.17333 l -6.02667,-35.83998 c -0.0533,-0.48 -0.53333,-0.85333 -0.95999,-0.85333 h -0.85334 c -0.26666,0 -0.74666,0.21333 -0.90666,0.53333 l -12.37333,23.03999 h -0.10667 L 88.426388,390.66666 c -0.16,-0.32 -0.64,-0.53333 -0.906666,-0.53333 h -0.853333 c -0.426666,0 -0.906666,0.37333 -0.959999,0.85333 z"
         id="path831" />
      <path
         style="color:#000000;-inkscape-font-specification:'Brandon Text, Medium';-inkscape-stroke:none"
         d="m 126.50628,426.82664 c -0.10667,0.69333 0.37333,1.17333 1.01333,1.17333 h 6.29333 c 0.53334,0 0.96,-0.42666 1.01333,-0.85333 l 2.34667,-16.47999 h 0.10667 l 9.01332,17.27999 c 0.16,0.32 0.58667,0.58667 0.90667,0.58667 h 0.96 c 0.26667,0 0.74667,-0.26667 0.90667,-0.58667 l 8.95999,-17.27999 h 0.10667 l 2.4,16.47999 c 0.0533,0.42667 0.53333,0.85333 1.01333,0.85333 h 6.29333 c 0.64,0 1.12,-0.48 1.01333,-1.17333 l -6.02666,-35.83998 c -0.0533,-0.48 -0.53333,-0.85333 -0.96,-0.85333 h -0.85333 c -0.26667,0 -0.74667,0.21333 -0.90667,0.53333 l -12.37333,23.03999 h -0.10666 l -12.37333,-23.03999 c -0.16,-0.32 -0.64,-0.53333 -0.90666,-0.53333 h -0.85334 c -0.42666,0 -0.90666,0.37333 -0.96,0.85333 z"
         id="path833" />
      <path
         style="color:#000000;-inkscape-font-specification:'Brandon Text, Medium';-inkscape-stroke:none"
         d="m 175.30617,426.98664 c 0,0.53333 0.42666,1.01333 1.01333,1.01333 h 22.07998 c 0.58667,0 1.01334,-0.48 1.01334,-1.01333 v -5.81333 c 0,-0.53333 -0.42667,-1.01333 -1.01334,-1.01333 h -14.77332 v -7.2 h 12.15999 c 0.53334,0 1.01334,-0.42666 1.01334,-1.01333 v -5.81333 c 0,-0.53333 -0.48,-1.01333 -1.01334,-1.01333 h -12.15999 v -6.61333 h 14.77332 c 0.58667,0 1.01334,-0.48 1.01334,-1.01333 V 391.68 c 0,-0.53334 -0.42667,-1.01334 -1.01334,-1.01334 H 176.3195 c -0.58667,0 -1.01333,0.48 -1.01333,1.01334 z"
         id="path835" />
      <path
         style="color:#000000;-inkscape-font-specification:'Brandon Text, Medium';-inkscape-stroke:none"
         d="m 206.13276,426.98664 c 0,0.53333 0.42667,1.01333 1.01334,1.01333 h 6.34666 c 0.53333,0 1.01333,-0.48 1.01333,-1.01333 v -13.59999 h 3.68 l 7.09333,14.13332 c 0.10667,0.21334 0.42667,0.48 0.85333,0.48 h 7.09333 c 0.90667,0 1.28,-0.85333 0.90667,-1.54666 l -7.30666,-13.54666 c 4.95999,-1.86667 7.89332,-5.81333 7.89332,-10.71999 0,-6.34667 -4.85333,-11.52 -11.62666,-11.52 H 207.1461 c -0.58667,0 -1.01334,0.48 -1.01334,1.01334 z m 8.37333,-20.37332 v -8.32 h 7.89333 c 2.18667,0 4.05333,1.54667 4.05333,4.05334 0,2.50666 -1.86666,4.26666 -4.05333,4.26666 z"
         id="path837" />
      <path
         style="color:#000000;-inkscape-font-specification:'Brandon Text, Medium';-inkscape-stroke:none"
         d="m 239.30601,409.38665 c 0,10.66666 8.58666,19.14666 19.25332,19.14666 4.74667,0 9.33333,-1.65334 12.96,-5.17333 0.37333,-0.37334 0.42666,-1.06667 0.0533,-1.44 l -4.16,-4.42667 c -0.32,-0.37333 -1.01333,-0.37333 -1.38666,-0.0533 -1.92,1.65333 -4.21333,2.56 -7.14667,2.56 -6.02666,0 -10.50666,-4.90667 -10.50666,-10.82666 0,-5.97333 4.42667,-10.98666 10.45333,-10.98666 2.61333,0 5.01333,0.8 7.2,2.72 0.37333,0.37333 0.96,0.37333 1.33333,0 l 4.16,-4.32 c 0.42666,-0.42667 0.42666,-1.06667 -0.0533,-1.49333 -3.62666,-3.30667 -7.57333,-4.96 -12.90666,-4.96 -10.66666,0 -19.25332,8.58666 -19.25332,19.25332 z"
         id="path839" />
      <path
         style="color:#000000;-inkscape-font-specification:'Brandon Text, Medium';-inkscape-stroke:none"
         d="m 277.6526,426.98664 c 0,0.53333 0.42667,1.01333 1.01333,1.01333 h 22.07999 c 0.58667,0 1.01333,-0.48 1.01333,-1.01333 v -5.81333 c 0,-0.53333 -0.42666,-1.01333 -1.01333,-1.01333 H 285.9726 v -7.2 h 12.15999 c 0.53333,0 1.01333,-0.42666 1.01333,-1.01333 v -5.81333 c 0,-0.53333 -0.48,-1.01333 -1.01333,-1.01333 H 285.9726 v -6.61333 h 14.77332 c 0.58667,0 1.01333,-0.48 1.01333,-1.01333 V 391.68 c 0,-0.53334 -0.42666,-1.01334 -1.01333,-1.01334 h -22.07999 c -0.58666,0 -1.01333,0.48 -1.01333,1.01334 z"
         id="path841" />
    </g>
    <path
       style="fill:#000000;stroke-width:0.191954"
       d="m 53.422601,92.783421 c -1.50452,-0.55936 -2.08394,-0.9091 -3.20789,-1.93633 -1.608947,-1.47049 -2.838664,-4.16074 -2.838664,-6.21013 0,-1.28807 0.576203,-3.331904 1.259009,-4.465831 0.363293,-0.603295 0.660519,-1.120754 0.660519,-1.14991 0,-0.02925 -1.405627,-0.08343 -3.123625,-0.120614 -3.062388,-0.06643 -3.147998,-0.0798 -4.366945,-0.680583 -1.534719,-0.75651 -2.723242,-1.90871 -3.362314,-3.259606 -1.323578,-2.797805 -0.905805,-5.868306 1.094118,-8.041392 1.679818,-1.825279 3.17085,-2.386722 6.338435,-2.386722 1.533768,0 2.076462,-0.0628 2.075873,-0.239935 -3.86e-4,-0.131949 -0.474293,-2.356228 -1.053058,-4.942823 -0.578742,-2.586573 -1.053467,-4.901153 -1.054963,-5.143492 -0.0045,-0.613905 0.820105,-1.38293 1.481509,-1.38293 1.221079,0 1.425261,0.381656 2.259377,4.222973 0.240707,1.108535 0.662651,3.052069 0.937639,4.318966 0.27498,1.266896 0.54516,2.497813 0.60039,2.735345 0.0932,0.400451 0.20495,0.431896 1.53642,0.431896 0.79009,0 1.43601,-0.08298 1.43601,-0.184321 0,-0.101343 -0.56596,-2.757563 -1.2577,-5.902564 -5.549612,-25.231578 -7.602337,-34.455415 -7.855558,-35.298486 -0.315499,-1.050495 -1.233911,-2.149734 -2.268967,-2.715688 -0.520454,-0.284576 -1.249804,-0.345585 -4.747514,-0.397209 -3.979937,-0.05872 -4.151902,-0.0458 -4.654899,0.34987 -0.669928,0.526959 -0.718604,1.528778 -0.102249,2.103076 0.3934,0.366488 0.66129,0.391382 4.212301,0.391382 3.657341,0 3.809854,0.01587 4.289385,0.431896 0.445862,0.387324 0.642337,1.08541 1.903657,6.764362 1.46709,6.605387 1.521117,7.160754 0.751796,7.72816 -0.51288,0.378278 -1.530775,0.293485 -1.956006,-0.16301 -0.440785,-0.473136 -0.30709,0.02267 -1.652183,-6.123545 -0.589194,-2.692155 -1.117446,-5.046003 -1.173876,-5.230755 -0.0925,-0.302463 -0.422693,-0.335927 -3.315247,-0.335927 -3.074836,0 -3.25553,-0.0204 -4.214002,-0.499005 -2.186737,-1.089694 -3.062026,-3.914116 -1.902115,-6.137828 0.464929,-0.891339 1.74763,-1.953782 2.653276,-2.197639 0.527776,-0.142152 2.373213,-0.195431 5.337615,-0.154395 l 4.530952,0.0628 1.29084,0.611502 c 1.473461,0.698017 2.827555,1.980784 3.50764,3.322837 0.268932,0.5307 0.895512,2.898537 1.528644,5.776759 0.5901,2.682587 1.137124,5.034213 1.215591,5.22588 0.126055,0.307791 0.450219,0.356445 2.778419,0.417024 l 2.63578,0.06847 v -7.096956 c 0,-7.45059 0.0567,-7.989316 0.87239,-8.302367 0.17095,-0.06552 6.37181,-0.116533 13.77981,-0.113132 10.28523,0.0045 13.5411,0.06144 13.77366,0.239957 0.61893,0.475177 0.7512,1.071829 0.7512,3.38845 v 2.316076 h 5.54539 c 5.17216,0 5.57592,0.02471 5.99859,0.366625 0.44849,0.362861 0.45375,0.410948 0.51118,4.679401 l 0.058,4.312776 2.8213,0.08502 c 3.088119,0.09295 3.825449,0.310285 4.859939,1.432038 1.49015,1.615814 1.58673,2.901188 0.49172,6.544015 -0.96763,3.219091 -1.95022,6.602916 -6.664909,22.952162 -0.74182,2.572425 -1.62218,3.659444 -3.3517,4.138476 -0.54337,0.15054 -8.0616,0.213341 -25.72187,0.214928 -17.4673,0.0015 -25.184411,0.06507 -25.721868,0.212207 -1.144901,0.31321 -2.47494,1.765493 -2.779468,3.034907 -0.193843,0.80836 -0.191576,1.169385 0.01134,1.898191 0.321033,1.146623 1.676941,2.543791 2.789217,2.874118 0.605699,0.179787 6.913049,0.23463 27.026289,0.23463 h 26.2362 l 0.47116,0.471141 c 0.62334,0.62336 0.62334,1.505607 0,2.128944 -0.46434,0.464363 -0.5197,0.471164 -3.83089,0.471164 h -3.35973 l 0.6553,1.103751 c 3.44154,5.79655 -0.65598,13.10086 -7.34919,13.10086 -3.51842,0 -6.43616,-1.80204 -7.90395,-4.88154 -1.27973,-2.68497 -0.97658,-6.508534 0.68968,-8.699213 l 0.47449,-0.623858 h -6.92009 c -3.80607,0 -6.92013,0.03945 -6.92013,0.08751 0,0.04806 0.21221,0.400088 0.47149,0.78222 2.85879,4.212661 1.1836,10.201381 -3.50123,12.516751 -1.36489,0.67455 -1.57764,0.72169 -3.48295,0.77174 -1.60279,0.0422 -2.231,-0.0227 -2.98905,-0.30352 z m 4.56207,-3.02367 c 1.21765,-0.41489 2.50955,-1.60797 3.14289,-2.90248 1.70098,-3.476639 -0.70618,-7.573671 -4.62805,-7.877087 -4.179,-0.323322 -7.239666,4.131561 -5.4091,7.873127 0.61617,1.25939 1.91683,2.48718 3.06626,2.89445 1.06844,0.3786 2.73676,0.38381 3.828,0.0113 z m -2.77895,-3.99038 c -0.83426,-0.63383 -0.79851,-1.8932 0.071,-2.502257 1.20844,-0.846426 2.78125,0.371047 2.25783,1.747737 -0.25599,0.67331 -0.72525,1.004 -1.42463,1.004 -0.31672,0 -0.72363,-0.11223 -0.90423,-0.24948 z m 30.67876,3.75823 c 1.20106,-0.61792 2.51482,-2.19266 2.88144,-3.45379 1.07242,-3.688944 -2.02839,-7.477233 -5.80154,-7.0878 -5.63652,0.581734 -6.9945,8.08027 -1.9086,10.53905 1.03539,0.50057 1.3146,0.55262 2.59963,0.48474 0.96753,-0.051 1.69855,-0.20926 2.22907,-0.4822 z m -3.55219,-3.95452 c -0.60121,-0.63996 -0.50209,-1.75937 0.20223,-2.282887 1.47772,-1.098513 3.29392,0.969327 1.99351,2.269717 -0.62983,0.62984 -1.61077,0.63571 -2.19563,0.0136 z M 64.582701,64.196308 c -0.0524,-0.184774 -0.15213,-0.897392 -0.22173,-1.583621 -0.34505,-3.399377 -1.26355,-10.816662 -1.35849,-10.970285 -0.12357,-0.199738 -8.28899,-0.205406 -8.39616,-0.0045 -0.0528,0.0984 1.63639,8.015071 2.65936,12.463605 0.0986,0.42929 0.12129,0.431897 3.75573,0.431897 3.39054,0 3.6495,-0.02449 3.56131,-0.335927 z m 10.58127,-6.142544 -0.0506,-6.478448 -4.22297,-0.05328 c -2.32267,-0.02925 -4.31873,0.0136 -4.43572,0.0959 -0.1528,0.107237 -0.005,1.909708 0.52331,6.387784 0.40483,3.431163 0.73808,6.303286 0.7406,6.382456 0.002,0.07912 1.69008,0.143966 3.75021,0.143966 h 3.74566 z m 10.60733,6.334483 c 0.002,-0.07912 0.33756,-2.951293 0.74479,-6.382456 0.40721,-3.431186 0.70525,-6.29882 0.66227,-6.372526 -0.0431,-0.07368 -2.04091,-0.116986 -4.43991,-0.0959 l -4.36179,0.03809 -0.0506,6.478448 -0.0506,6.478449 h 3.74567 c 2.06011,0 3.74765,-0.06484 3.75005,-0.143966 z m 8.81492,-0.19271 c 0.31725,-0.256893 0.82296,-1.738332 2.13275,-6.247831 0.9443,-3.251104 1.71691,-6.036463 1.71691,-6.189701 0,-0.234177 -0.60429,-0.278114 -3.7911,-0.275643 -2.08509,0.0015 -3.89909,0.07142 -4.03109,0.155301 -0.15689,0.09953 -0.47132,2.174424 -0.9085,5.995609 -0.36769,3.213786 -0.71103,6.080786 -0.76297,6.37112 l -0.0945,0.527866 h 2.66131 c 2.25103,0 2.72539,-0.05192 3.07714,-0.336743 z M 62.646851,47.592345 c -0.13127,-0.98164 -0.80568,-6.815101 -1.08189,-9.357758 -0.10905,-1.002953 -0.23803,-2.017921 -0.28682,-2.255453 l -0.0886,-0.431896 h -5.1055 -5.10552 l 0.0871,0.431896 c 0.0478,0.237532 0.68239,3.131239 1.41009,6.430453 l 1.32305,5.998555 h 4.47868 4.47867 z m 12.56255,-5.614655 v -6.430452 h -5.39707 -5.39709 l 0.12946,1.29569 c 0.0712,0.712618 0.33452,3.066465 0.58506,5.230732 0.25055,2.164289 0.51316,4.474947 0.58355,5.134785 l 0.1281,1.199697 h 4.68403 4.68403 z m 12.47705,6.179091 c 0,-0.138298 0.30156,-2.837617 0.67011,-5.998578 0.36858,-3.160939 0.6709,-5.941537 0.67183,-6.179069 l 0.002,-0.431896 h -5.37471 -5.37472 v 6.430452 6.430452 h 4.70287 c 3.74844,0 4.70289,-0.05101 4.70289,-0.251361 z M 100.1993,45.960729 c 0.38299,-1.346067 1.14268,-3.994647 1.68818,-5.885719 l 0.99185,-3.438305 -0.37076,-0.496737 -0.37075,-0.496761 -4.912929,-0.05124 -4.91294,-0.05124 -0.10588,0.627078 c -0.0583,0.344905 -0.32123,2.527422 -0.58452,4.850073 -0.60877,5.370232 -0.6596,5.799385 -0.78991,6.670388 l -0.10769,0.719827 h 4.38948 4.38948 z M 75.977221,27.995646 c 0.11903,-5.442645 -0.0895,-5.117442 3.2845,-5.117442 h 2.28218 V 21.43703 19.995833 l -11.37329,0.04942 -11.3733,0.04942 -0.0424,5.950582 c -0.0234,3.272801 -0.0113,6.039524 0.0258,6.148257 0.0453,0.131723 2.90883,0.195884 8.5843,0.19203 l 8.51622,-0.0068 z m 12.04514,4.331208 5.80663,-0.04285 v -3.167241 -3.167242 h -7.39025 -7.39023 v 3.135252 c 0,1.72439 0.0361,3.171254 0.08,3.215238 0.088,0.08797 0.47174,0.0891 8.89377,0.02698 z M 44.649065,46.958988 c -0.85858,-0.46604 -0.904853,-2.073285 -0.0755,-2.626997 0.37948,-0.253379 1.616202,-0.154168 1.924787,0.154395 0.738034,0.73801 0.598694,2.03073 -0.267163,2.478474 -0.688791,0.356195 -0.916438,0.355334 -1.582013,-0.0068 z"
       id="path75"
       sodipodi:nodetypes="csssscsssssscssssssssssssscsssscscssscssssccsscsscssscsssssscscsscssscsssscsscsscccssssccsssssssssssscssccccscssccccscccsccsssccccssssssscsscsssssscccsscccsccccsssccccssscccccsssscccccssscccssscccccscccsccccccsscccssscc" />
  </g>
</svg>
