<?xml version="1.0" encoding="UTF-8" standalone="no"?>
<!-- Created with Inkscape (http://www.inkscape.org/) -->

<svg
   width="512"
   height="512"
   viewBox="0 0 135.46666 135.46667"
   version="1.1"
   id="svg5"
   inkscape:version="1.1 (c68e22c387, 2021-05-23)"
   sodipodi:docname="commerce.svg"
   xmlns:inkscape="http://www.inkscape.org/namespaces/inkscape"
   xmlns:sodipodi="http://sodipodi.sourceforge.net/DTD/sodipodi-0.dtd"
   xmlns="http://www.w3.org/2000/svg"
   xmlns:svg="http://www.w3.org/2000/svg">
  <sodipodi:namedview
     id="namedview7"
     pagecolor="#505050"
     bordercolor="#eeeeee"
     borderopacity="1"
     inkscape:pageshadow="0"
     inkscape:pageopacity="0"
     inkscape:pagecheckerboard="0"
     inkscape:document-units="px"
     showgrid="false"
     inkscape:zoom="0.46324355"
     inkscape:cx="93.903088"
     inkscape:cy="227.74197"
     inkscape:window-width="1366"
     inkscape:window-height="705"
     inkscape:window-x="-8"
     inkscape:window-y="-8"
     inkscape:window-maximized="1"
     inkscape:current-layer="layer1"
     units="px" />
  <defs
     id="defs2">
    <rect
       x="0"
       y="384.00006"
       width="511.99998"
       height="127.99992"
       id="rect12253" />
  </defs>
  <g
     inkscape:label="Calque 1"
     inkscape:groupmode="layer"
     id="layer1">
    <path
       style="color:#000000;fill:#000000;fill-rule:evenodd;stroke-width:8.46667;-inkscape-stroke:none"
       d="M 16.933335,0 H 118.53333 c 9.38107,0 16.93333,7.5522663 16.93333,16.933332 V 118.53333 c 0,9.38106 -7.55226,16.93333 -16.93333,16.93333 H 16.933335 C 7.552269,135.46666 2.7270507e-6,127.91439 2.7270507e-6,118.53333 V 16.933332 C 2.7270507e-6,7.5522663 7.552269,0 16.933335,0 Z"
       id="rect846" />
    <path
       style="color:#000000;fill:#ffc100;fill-rule:evenodd;stroke-width:8.46667;-inkscape-stroke:none"
       d="M 16.933332,8.5685921 H 118.53333 c 4.69054,0 8.46667,3.7761329 8.46667,8.4666659 v 84.666662 c 0,4.69054 -3.77613,8.46667 -8.46667,8.46667 H 16.933332 c -4.690533,0 -8.4666658,-3.77613 -8.4666658,-8.46667 V 17.035258 c 0,-4.690533 3.7761328,-8.4666659 8.4666658,-8.4666659 z"
       id="rect846-1" />
    <path
       style="color:#000000;fill:#000000;fill-rule:evenodd;stroke-width:0.264583;-inkscape-stroke:none"
       d="M 8.4666689,101.60001 H 127 c 4.69053,0 8.46666,3.77614 8.46666,8.46667 v 8.46667 c 0,4.69053 -3.77613,8.46666 -8.46666,8.46666 H 8.4666689 c -4.690533,0 -8.4666661729493,-3.77613 -8.4666661729493,-8.46666 v -8.46667 c 0,-4.69053 3.7761331729493,-8.46667 8.4666661729493,-8.46667 z"
       id="rect1024" />
    <g
       aria-label="COMMERCE"
       transform="matrix(0.26458333,0,0,0.26458333,27.537932,6.8438898)"
       id="text12251"
       style="font-weight:500;font-size:53.3333px;font-family:'Brandon Text';-inkscape-font-specification:'Brandon Text, Medium';white-space:pre;fill:#ffffff">
      <path
         style="color:#000000;-inkscape-font-specification:'Brandon Text, Medium';-inkscape-stroke:none"
         d="m 2.0799988,409.38665 c 0,10.66666 8.5866612,19.14666 19.2533222,19.14666 4.746663,0 9.333327,-1.65334 12.959992,-5.17333 0.373333,-0.37334 0.426666,-1.06667 0.05333,-1.44 l -4.159997,-4.42667 c -0.32,-0.37333 -1.013333,-0.37333 -1.386666,-0.0533 -1.919999,1.65333 -4.213331,2.56 -7.146663,2.56 -6.026663,0 -10.50666,-4.90667 -10.50666,-10.82666 0,-5.97333 4.426664,-10.98666 10.453327,-10.98666 2.613332,0 5.01333,0.8 7.199996,2.72 0.373333,0.37333 0.959999,0.37333 1.333332,0 l 4.159998,-4.32 c 0.426666,-0.42667 0.426666,-1.06667 -0.05333,-1.49333 -3.626665,-3.30667 -7.573329,-4.96 -12.906659,-4.96 -10.666661,0 -19.2533222,8.58666 -19.2533222,19.25332 z"
         id="path827" />
      <path
         style="color:#000000;-inkscape-font-specification:'Brandon Text, Medium';-inkscape-stroke:none"
         d="m 37.333173,409.38665 c 0,10.66666 8.479995,19.14666 19.146655,19.14666 10.66666,0 19.199988,-8.48 19.199988,-19.14666 0,-10.66666 -8.533328,-19.25332 -19.199988,-19.25332 -10.66666,0 -19.146655,8.58666 -19.146655,19.25332 z m 8.533328,0 c 0,-5.86666 4.799997,-10.71999 10.613327,-10.71999 5.866663,0 10.66666,4.85333 10.66666,10.71999 0,5.81333 -4.799997,10.61333 -10.66666,10.61333 -5.81333,0 -10.613327,-4.8 -10.613327,-10.61333 z"
         id="path829" />
      <path
         style="color:#000000;-inkscape-font-specification:'Brandon Text, Medium';-inkscape-stroke:none"
         d="m 79.679726,426.82664 c -0.106666,0.69333 0.373334,1.17333 1.013333,1.17333 h 6.29333 c 0.533333,0 0.959999,-0.42666 1.013332,-0.85333 l 2.346666,-16.47999 h 0.106666 l 9.013328,17.27999 c 0.16,0.32 0.586669,0.58667 0.906669,0.58667 h 0.96 c 0.26666,0 0.74666,-0.26667 0.90666,-0.58667 l 8.96,-17.27999 h 0.10666 l 2.4,16.47999 c 0.0533,0.42667 0.53334,0.85333 1.01334,0.85333 h 6.29333 c 0.63999,0 1.11999,-0.48 1.01333,-1.17333 l -6.02667,-35.83998 c -0.0533,-0.48 -0.53333,-0.85333 -0.95999,-0.85333 h -0.85334 c -0.26666,0 -0.74666,0.21333 -0.90666,0.53333 l -12.37333,23.03999 h -0.10667 L 88.426388,390.66666 c -0.16,-0.32 -0.64,-0.53333 -0.906666,-0.53333 h -0.853333 c -0.426666,0 -0.906666,0.37333 -0.959999,0.85333 z"
         id="path831" />
      <path
         style="color:#000000;-inkscape-font-specification:'Brandon Text, Medium';-inkscape-stroke:none"
         d="m 126.50628,426.82664 c -0.10667,0.69333 0.37333,1.17333 1.01333,1.17333 h 6.29333 c 0.53334,0 0.96,-0.42666 1.01333,-0.85333 l 2.34667,-16.47999 h 0.10667 l 9.01332,17.27999 c 0.16,0.32 0.58667,0.58667 0.90667,0.58667 h 0.96 c 0.26667,0 0.74667,-0.26667 0.90667,-0.58667 l 8.95999,-17.27999 h 0.10667 l 2.4,16.47999 c 0.0533,0.42667 0.53333,0.85333 1.01333,0.85333 h 6.29333 c 0.64,0 1.12,-0.48 1.01333,-1.17333 l -6.02666,-35.83998 c -0.0533,-0.48 -0.53333,-0.85333 -0.96,-0.85333 h -0.85333 c -0.26667,0 -0.74667,0.21333 -0.90667,0.53333 l -12.37333,23.03999 h -0.10666 l -12.37333,-23.03999 c -0.16,-0.32 -0.64,-0.53333 -0.90666,-0.53333 h -0.85334 c -0.42666,0 -0.90666,0.37333 -0.96,0.85333 z"
         id="path833" />
      <path
         style="color:#000000;-inkscape-font-specification:'Brandon Text, Medium';-inkscape-stroke:none"
         d="m 175.30617,426.98664 c 0,0.53333 0.42666,1.01333 1.01333,1.01333 h 22.07998 c 0.58667,0 1.01334,-0.48 1.01334,-1.01333 v -5.81333 c 0,-0.53333 -0.42667,-1.01333 -1.01334,-1.01333 h -14.77332 v -7.2 h 12.15999 c 0.53334,0 1.01334,-0.42666 1.01334,-1.01333 v -5.81333 c 0,-0.53333 -0.48,-1.01333 -1.01334,-1.01333 h -12.15999 v -6.61333 h 14.77332 c 0.58667,0 1.01334,-0.48 1.01334,-1.01333 V 391.68 c 0,-0.53334 -0.42667,-1.01334 -1.01334,-1.01334 H 176.3195 c -0.58667,0 -1.01333,0.48 -1.01333,1.01334 z"
         id="path835" />
      <path
         style="color:#000000;-inkscape-font-specification:'Brandon Text, Medium';-inkscape-stroke:none"
         d="m 206.13276,426.98664 c 0,0.53333 0.42667,1.01333 1.01334,1.01333 h 6.34666 c 0.53333,0 1.01333,-0.48 1.01333,-1.01333 v -13.59999 h 3.68 l 7.09333,14.13332 c 0.10667,0.21334 0.42667,0.48 0.85333,0.48 h 7.09333 c 0.90667,0 1.28,-0.85333 0.90667,-1.54666 l -7.30666,-13.54666 c 4.95999,-1.86667 7.89332,-5.81333 7.89332,-10.71999 0,-6.34667 -4.85333,-11.52 -11.62666,-11.52 H 207.1461 c -0.58667,0 -1.01334,0.48 -1.01334,1.01334 z m 8.37333,-20.37332 v -8.32 h 7.89333 c 2.18667,0 4.05333,1.54667 4.05333,4.05334 0,2.50666 -1.86666,4.26666 -4.05333,4.26666 z"
         id="path837" />
      <path
         style="color:#000000;-inkscape-font-specification:'Brandon Text, Medium';-inkscape-stroke:none"
         d="m 239.30601,409.38665 c 0,10.66666 8.58666,19.14666 19.25332,19.14666 4.74667,0 9.33333,-1.65334 12.96,-5.17333 0.37333,-0.37334 0.42666,-1.06667 0.0533,-1.44 l -4.16,-4.42667 c -0.32,-0.37333 -1.01333,-0.37333 -1.38666,-0.0533 -1.92,1.65333 -4.21333,2.56 -7.14667,2.56 -6.02666,0 -10.50666,-4.90667 -10.50666,-10.82666 0,-5.97333 4.42667,-10.98666 10.45333,-10.98666 2.61333,0 5.01333,0.8 7.2,2.72 0.37333,0.37333 0.96,0.37333 1.33333,0 l 4.16,-4.32 c 0.42666,-0.42667 0.42666,-1.06667 -0.0533,-1.49333 -3.62666,-3.30667 -7.57333,-4.96 -12.90666,-4.96 -10.66666,0 -19.25332,8.58666 -19.25332,19.25332 z"
         id="path839" />
      <path
         style="color:#000000;-inkscape-font-specification:'Brandon Text, Medium';-inkscape-stroke:none"
         d="m 277.6526,426.98664 c 0,0.53333 0.42667,1.01333 1.01333,1.01333 h 22.07999 c 0.58667,0 1.01333,-0.48 1.01333,-1.01333 v -5.81333 c 0,-0.53333 -0.42666,-1.01333 -1.01333,-1.01333 H 285.9726 v -7.2 h 12.15999 c 0.53333,0 1.01333,-0.42666 1.01333,-1.01333 v -5.81333 c 0,-0.53333 -0.48,-1.01333 -1.01333,-1.01333 H 285.9726 v -6.61333 h 14.77332 c 0.58667,0 1.01333,-0.48 1.01333,-1.01333 V 391.68 c 0,-0.53334 -0.42666,-1.01334 -1.01333,-1.01334 h -22.07999 c -0.58666,0 -1.01333,0.48 -1.01333,1.01334 z"
         id="path841" />
    </g>
    <path
       style="fill:#000000;stroke:#000000;stroke-width:0.785567;stroke-miterlimit:4;stroke-dasharray:none;stroke-opacity:1"
       d="m 53.570566,92.394252 c -1.489008,-0.553593 -2.062455,-0.899728 -3.174818,-1.916368 -1.59236,-1.45533 -2.809398,-4.117846 -2.809398,-6.146108 0,-1.274791 0.570263,-3.297554 1.246028,-4.419791 0.359548,-0.597076 0.65371,-1.1092 0.65371,-1.138056 0,-0.02895 -1.391135,-0.08257 -3.091422,-0.11937 -3.030816,-0.06574 -3.115543,-0.07898 -4.321924,-0.673567 -1.518897,-0.748711 -2.695166,-1.889033 -3.32765,-3.226002 -1.309933,-2.768962 -0.896467,-5.807808 1.082839,-7.958491 1.662499,-1.806462 3.138159,-2.362117 6.273088,-2.362117 1.517956,0 2.055055,-0.06215 2.054472,-0.237461 -3.82e-4,-0.130589 -0.469403,-2.331937 -1.042202,-4.891866 -0.572775,-2.559908 -1.042606,-4.850626 -1.044087,-5.090467 -0.0045,-0.607576 0.811651,-1.368673 1.466236,-1.368673 1.20849,0 1.410567,0.377722 2.236084,4.179438 0.238225,1.097106 0.655819,3.020604 0.927972,4.27444 0.272145,1.253835 0.53954,2.472063 0.594201,2.707146 0.09224,0.396322 0.202837,0.427443 1.520579,0.427443 0.781945,0 1.421206,-0.08212 1.421206,-0.18242 0,-0.100299 -0.560125,-2.729135 -1.244734,-5.841713 C 47.498348,33.43879 45.466786,24.310043 45.216175,23.475664 44.903929,22.435999 43.994986,21.348092 42.9706,20.787973 42.455512,20.50633 41.733681,20.44595 38.272031,20.394859 c -3.938906,-0.05812 -4.109098,-0.04533 -4.60691,0.346263 -0.663021,0.521526 -0.711195,1.513017 -0.101195,2.081395 0.389345,0.362709 0.654473,0.387347 4.168875,0.387347 3.619635,0 3.770576,0.01571 4.245163,0.427443 0.441266,0.383331 0.635715,1.07422 1.884032,6.694627 1.451964,6.53729 1.505434,7.086931 0.744045,7.648488 -0.507592,0.374378 -1.514993,0.290459 -1.93584,-0.16133 -0.436241,-0.468258 -0.303925,0.02244 -1.635151,-6.060415 -0.583119,-2.664401 -1.105925,-4.993983 -1.161773,-5.17683 -0.09155,-0.299345 -0.418335,-0.332464 -3.281069,-0.332464 -3.043136,0 -3.221967,-0.02019 -4.170558,-0.493861 -2.164192,-1.07846 -3.030458,-3.873764 -1.882504,-6.074551 0.460135,-0.88215 1.729612,-1.93364 2.625921,-2.174983 0.522335,-0.140687 2.348747,-0.193416 5.282587,-0.152803 l 4.484241,0.06215 1.277532,0.605198 c 1.45827,0.690821 2.798404,1.960364 3.471478,3.288581 0.266159,0.525229 0.886279,2.868655 1.512884,5.717205 0.584016,2.654931 1.125401,4.982314 1.203059,5.172005 0.124755,0.304618 0.445577,0.35277 2.749774,0.412725 l 2.608607,0.06776 v -7.023792 c 0,-7.37378 0.05612,-7.906952 0.863397,-8.216775 0.169187,-0.06485 6.306119,-0.115332 13.637746,-0.111966 10.179195,0.0045 13.401498,0.06081 13.631661,0.237483 0.612549,0.470278 0.743455,1.060779 0.743455,3.353518 v 2.292199 h 5.488221 c 5.118836,0 5.518434,0.02445 5.936747,0.362845 0.443866,0.35912 0.449072,0.406711 0.50591,4.63116 l 0.0574,4.268314 2.792213,0.08414 c 3.056281,0.09199 3.786011,0.307086 4.809831,1.417275 1.47479,1.599156 1.57037,2.871278 0.48665,6.476551 -0.95765,3.185904 -1.93011,6.534844 -6.596191,22.715542 -0.734173,2.545905 -1.605457,3.621718 -3.317147,4.095811 -0.537767,0.148988 -7.978488,0.211142 -25.456689,0.212712 -17.287221,0.0015 -24.924773,0.0644 -25.456689,0.21002 -1.133098,0.309981 -2.449425,1.747292 -2.750813,3.003619 -0.191845,0.800026 -0.189601,1.15733 0.01122,1.878622 0.317723,1.134802 1.659653,2.517566 2.760462,2.844488 0.599454,0.177934 6.841778,0.232211 26.747661,0.232211 h 25.965718 l 0.466303,0.466284 c 0.616914,0.616934 0.616914,1.490085 0,2.106996 -0.459553,0.459576 -0.514343,0.466307 -3.791396,0.466307 h -3.325092 l 0.648543,1.092372 c 3.40606,5.736792 -0.649216,12.9658 -7.273423,12.9658 -3.482147,0 -6.369806,-1.783462 -7.822464,-4.831215 -1.266537,-2.65729 -0.966513,-6.441436 0.68257,-8.609531 l 0.469598,-0.617426 h -6.848748 c -3.766831,0 -6.848787,0.03904 -6.848787,0.08661 0,0.04756 0.210023,0.395963 0.46663,0.774156 2.829317,4.169231 1.171398,10.096212 -3.465134,12.387712 -1.350819,0.667596 -1.561376,0.71425 -3.447043,0.763784 -1.586266,0.04176 -2.208,-0.02247 -2.958235,-0.300391 z m 4.515038,-2.992498 c 1.205097,-0.410613 2.483678,-1.591393 3.110488,-2.872558 1.683444,-3.440797 -0.698899,-7.495592 -4.580336,-7.79588 -4.135917,-0.319988 -7.16503,4.088968 -5.353336,7.791961 0.609818,1.246407 1.897068,2.461539 3.034649,2.864611 1.057425,0.374696 2.708545,0.379853 3.788535,0.01118 z m -2.7503,-3.949242 c -0.82566,-0.627296 -0.790278,-1.873683 0.07027,-2.476461 1.195982,-0.8377 2.752576,0.367222 2.234552,1.729719 -0.253351,0.666369 -0.717773,0.99365 -1.409942,0.99365 -0.313455,0 -0.71617,-0.111073 -0.894908,-0.246908 z m 30.362477,3.719485 c 1.188677,-0.611549 2.488893,-2.170055 2.851734,-3.418184 1.061364,-3.650913 -2.007479,-7.400148 -5.74173,-7.01473 -5.578409,0.575737 -6.92239,7.996969 -1.888922,10.4304 1.024715,0.49541 1.301046,0.546923 2.572828,0.479743 0.957556,-0.05047 1.68104,-0.207103 2.20609,-0.477229 z m -3.515569,-3.913752 c -0.595011,-0.633362 -0.496913,-1.741232 0.200145,-2.259352 1.462486,-1.087188 3.259962,0.959334 1.972958,2.246318 -0.623337,0.623347 -1.594164,0.629157 -2.172994,0.01346 z m -17.5666,-21.156394 c -0.05186,-0.182869 -0.150562,-0.88814 -0.219444,-1.567295 -0.341493,-3.364332 -1.250524,-10.70515 -1.344485,-10.857189 -0.122296,-0.197679 -8.203535,-0.203289 -8.3096,-0.0045 -0.05226,0.09739 1.61952,7.932442 2.631943,12.335115 0.09758,0.424864 0.12004,0.427444 3.71701,0.427444 3.355586,0 3.611877,-0.02424 3.524596,-0.332464 z m 10.472182,-6.079219 -0.05008,-6.41166 -4.179433,-0.05273 c -2.298724,-0.02895 -4.274206,0.01346 -4.38999,0.09491 -0.151225,0.106131 -0.0049,1.89002 0.517915,6.321931 0.400657,3.39579 0.730471,6.238303 0.732965,6.316657 0.002,0.0783 1.672656,0.142482 3.711547,0.142482 h 3.707044 z m 10.497974,6.269179 c 0.002,-0.0783 0.33408,-2.920867 0.737111,-6.316657 0.403012,-3.395813 0.697979,-6.233884 0.655442,-6.30683 -0.04265,-0.07292 -2.019868,-0.11578 -4.394136,-0.09491 l -4.316823,0.0377 -0.05008,6.41166 -0.05008,6.411661 h 3.707054 c 2.038871,0 3.709014,-0.06417 3.711389,-0.142482 z m 8.724043,-0.190723 c 0.313978,-0.254244 0.814475,-1.720411 2.110762,-6.18342 0.934565,-3.217588 1.69921,-5.974232 1.69921,-6.12589 0,-0.231763 -0.598061,-0.275247 -3.752017,-0.272801 -2.063593,0.0015 -3.858892,0.07068 -3.989531,0.1537 -0.155273,0.0985 -0.46646,2.152007 -0.899133,5.933798 -0.3639,3.180654 -0.7037,6.018098 -0.755105,6.305439 l -0.09353,0.522424 h 2.633873 c 2.227824,0 2.697294,-0.05139 3.045417,-0.333272 z M 62.699719,47.669063 c -0.129917,-0.97152 -0.797374,-6.744843 -1.070736,-9.261287 -0.107926,-0.992613 -0.235577,-1.997117 -0.283864,-2.232201 l -0.08769,-0.427443 H 56.204565 51.15168 l 0.0862,0.427443 c 0.04731,0.235084 0.675355,3.098959 1.395553,6.36416 l 1.309409,5.936714 h 4.432507 4.432498 z m 12.433036,-5.556772 v -6.364159 h -5.341429 -5.341448 l 0.128126,1.282332 c 0.07047,0.705272 0.331071,3.034852 0.579028,5.176807 0.247966,2.141977 0.507869,4.428814 0.577533,5.081849 l 0.12678,1.187329 h 4.63574 4.63574 z m 12.348418,6.115389 c 0,-0.136872 0.298451,-2.808363 0.663202,-5.936737 0.36478,-3.128352 0.663983,-5.880284 0.664904,-6.115368 l 0.002,-0.427443 H 83.49198 78.17267 v 6.364159 6.364158 h 4.654386 c 3.709795,0 4.654406,-0.05048 4.654406,-0.248769 z m 12.383848,-2.173412 c 0.379039,-1.332191 1.130889,-3.953466 1.670769,-5.825042 l 0.98162,-3.402859 -0.36693,-0.491616 -0.36693,-0.491639 -4.862273,-0.05071 -4.86229,-0.05071 -0.104789,0.620613 c -0.0577,0.34135 -0.317918,2.501366 -0.578494,4.800073 -0.602494,5.314869 -0.6528,5.739597 -0.781766,6.601621 l -0.10658,0.712406 h 4.344227 4.344226 z M 75.89266,28.274391 c 0.117803,-5.386535 -0.08858,-5.064685 3.250638,-5.064685 H 81.40195 V 21.78339 20.35705 l -11.256037,0.04891 -11.256047,0.04891 -0.04196,5.889236 c -0.02316,3.239061 -0.01118,5.977261 0.02553,6.084873 0.04483,0.130365 2.878841,0.193865 8.4958,0.190051 l 8.428422,-0.0067 z m 11.92096,4.286557 5.746767,-0.04241 v -3.134589 -3.13459 h -7.314061 -7.31404 v 3.10293 c 0,1.706613 0.03573,3.138561 0.07917,3.182091 0.08709,0.08706 0.466877,0.08818 8.80208,0.0267 z M 44.887481,47.042235 c -0.849728,-0.461235 -0.895524,-2.051911 -0.07472,-2.599914 0.375568,-0.250767 1.59954,-0.152579 1.904944,0.152803 0.730426,0.730402 0.592522,2.009795 -0.264409,2.452923 -0.68169,0.352523 -0.90699,0.35167 -1.565703,-0.0067 z"
       id="path75"
       sodipodi:nodetypes="csssscsssssscssssssssssssscsssscscssscssssccsscsscssscsssssscscsscssscsssscsscsscccssssccsssssssssssscssccccscssccccscccsccsssccccssssssscsscsssssscccsscccsccccsssccccssscccccsssscccccssscccssscccccscccsccccccsscccssscc" />
  </g>
</svg>
