<?xml version="1.0" encoding="UTF-8" standalone="no"?>
<!-- Created with Inkscape (http://www.inkscape.org/) -->

<svg
   width="512"
   height="512"
   viewBox="0 0 135.46666 135.46667"
   version="1.1"
   id="svg5"
   inkscape:version="1.1 (c68e22c387, 2021-05-23)"
   sodipodi:docname="commerce.svg"
   xmlns:inkscape="http://www.inkscape.org/namespaces/inkscape"
   xmlns:sodipodi="http://sodipodi.sourceforge.net/DTD/sodipodi-0.dtd"
   xmlns="http://www.w3.org/2000/svg"
   xmlns:svg="http://www.w3.org/2000/svg">
  <sodipodi:namedview
     id="namedview7"
     pagecolor="#505050"
     bordercolor="#eeeeee"
     borderopacity="1"
     inkscape:pageshadow="0"
     inkscape:pageopacity="0"
     inkscape:pagecheckerboard="0"
     inkscape:document-units="px"
     showgrid="false"
     inkscape:zoom="0.46324355"
     inkscape:cx="93.903088"
     inkscape:cy="227.74197"
     inkscape:window-width="1366"
     inkscape:window-height="705"
     inkscape:window-x="-8"
     inkscape:window-y="-8"
     inkscape:window-maximized="1"
     inkscape:current-layer="layer1"
     units="px" />
  <defs
     id="defs2">
    <rect
       x="0"
       y="384.00006"
       width="511.99998"
       height="127.99992"
       id="rect12253" />
  </defs>
  <g
     inkscape:label="Calque 1"
     inkscape:groupmode="layer"
     id="layer1">
    <path
       style="color:#000000;fill:#000000;fill-rule:evenodd;stroke-width:8.46667;-inkscape-stroke:none"
       d="M 16.933335,0 H 118.53333 c 9.38107,0 16.93333,7.5522663 16.93333,16.933332 V 118.53333 c 0,9.38106 -7.55226,16.93333 -16.93333,16.93333 H 16.933335 C 7.552269,135.46666 2.7270507e-6,127.91439 2.7270507e-6,118.53333 V 16.933332 C 2.7270507e-6,7.5522663 7.552269,0 16.933335,0 Z"
       id="rect846" />
    <path
       style="color:#000000;fill:#ffc100;fill-rule:evenodd;stroke-width:8.46667;-inkscape-stroke:none"
       d="M 16.933332,8.5685921 H 118.53333 c 4.69054,0 8.46667,3.7761329 8.46667,8.4666659 v 84.666662 c 0,4.69054 -3.77613,8.46667 -8.46667,8.46667 H 16.933332 c -4.690533,0 -8.4666658,-3.77613 -8.4666658,-8.46667 V 17.035258 c 0,-4.690533 3.7761328,-8.4666659 8.4666658,-8.4666659 z"
       id="rect846-1" />
    <path
       style="color:#000000;fill:#000000;fill-rule:evenodd;stroke-width:0.264583;-inkscape-stroke:none"
       d="M 8.4666689,101.60001 H 127 c 4.69053,0 8.46666,3.77614 8.46666,8.46667 v 8.46667 c 0,4.69053 -3.77613,8.46666 -8.46666,8.46666 H 8.4666689 c -4.690533,0 -8.4666661729493,-3.77613 -8.4666661729493,-8.46666 v -8.46667 c 0,-4.69053 3.7761331729493,-8.46667 8.4666661729493,-8.46667 z"
       id="rect1024" />
    <g
       aria-label="COMMERCE"
       transform="matrix(0.26458333,0,0,0.26458333,27.537932,6.8438898)"
       id="text12251"
       style="font-weight:500;font-size:53.3333px;font-family:'Brandon Text';-inkscape-font-specification:'Brandon Text, Medium';white-space:pre;fill:#ffffff">
      <path
         style="color:#000000;-inkscape-font-specification:'Brandon Text, Medium';-inkscape-stroke:none"
         d="m 2.0799988,409.38665 c 0,10.66666 8.5866612,19.14666 19.2533222,19.14666 4.746663,0 9.333327,-1.65334 12.959992,-5.17333 0.373333,-0.37334 0.426666,-1.06667 0.05333,-1.44 l -4.159997,-4.42667 c -0.32,-0.37333 -1.013333,-0.37333 -1.386666,-0.0533 -1.919999,1.65333 -4.213331,2.56 -7.146663,2.56 -6.026663,0 -10.50666,-4.90667 -10.50666,-10.82666 0,-5.97333 4.426664,-10.98666 10.453327,-10.98666 2.613332,0 5.01333,0.8 7.199996,2.72 0.373333,0.37333 0.959999,0.37333 1.333332,0 l 4.159998,-4.32 c 0.426666,-0.42667 0.426666,-1.06667 -0.05333,-1.49333 -3.626665,-3.30667 -7.573329,-4.96 -12.906659,-4.96 -10.666661,0 -19.2533222,8.58666 -19.2533222,19.25332 z"
         id="path827" />
      <path
         style="color:#000000;-inkscape-font-specification:'Brandon Text, Medium';-inkscape-stroke:none"
         d="m 37.333173,409.38665 c 0,10.66666 8.479995,19.14666 19.146655,19.14666 10.66666,0 19.199988,-8.48 19.199988,-19.14666 0,-10.66666 -8.533328,-19.25332 -19.199988,-19.25332 -10.66666,0 -19.146655,8.58666 -19.146655,19.25332 z m 8.533328,0 c 0,-5.86666 4.799997,-10.71999 10.613327,-10.71999 5.866663,0 10.66666,4.85333 10.66666,10.71999 0,5.81333 -4.799997,10.61333 -10.66666,10.61333 -5.81333,0 -10.613327,-4.8 -10.613327,-10.61333 z"
         id="path829" />
      <path
         style="color:#000000;-inkscape-font-specification:'Brandon Text, Medium';-inkscape-stroke:none"
         d="m 79.679726,426.82664 c -0.106666,0.69333 0.373334,1.17333 1.013333,1.17333 h 6.29333 c 0.533333,0 0.959999,-0.42666 1.013332,-0.85333 l 2.346666,-16.47999 h 0.106666 l 9.013328,17.27999 c 0.16,0.32 0.586669,0.58667 0.906669,0.58667 h 0.96 c 0.26666,0 0.74666,-0.26667 0.90666,-0.58667 l 8.96,-17.27999 h 0.10666 l 2.4,16.47999 c 0.0533,0.42667 0.53334,0.85333 1.01334,0.85333 h 6.29333 c 0.63999,0 1.11999,-0.48 1.01333,-1.17333 l -6.02667,-35.83998 c -0.0533,-0.48 -0.53333,-0.85333 -0.95999,-0.85333 h -0.85334 c -0.26666,0 -0.74666,0.21333 -0.90666,0.53333 l -12.37333,23.03999 h -0.10667 L 88.426388,390.66666 c -0.16,-0.32 -0.64,-0.53333 -0.906666,-0.53333 h -0.853333 c -0.426666,0 -0.906666,0.37333 -0.959999,0.85333 z"
         id="path831" />
      <path
         style="color:#000000;-inkscape-font-specification:'Brandon Text, Medium';-inkscape-stroke:none"
         d="m 126.50628,426.82664 c -0.10667,0.69333 0.37333,1.17333 1.01333,1.17333 h 6.29333 c 0.53334,0 0.96,-0.42666 1.01333,-0.85333 l 2.34667,-16.47999 h 0.10667 l 9.01332,17.27999 c 0.16,0.32 0.58667,0.58667 0.90667,0.58667 h 0.96 c 0.26667,0 0.74667,-0.26667 0.90667,-0.58667 l 8.95999,-17.27999 h 0.10667 l 2.4,16.47999 c 0.0533,0.42667 0.53333,0.85333 1.01333,0.85333 h 6.29333 c 0.64,0 1.12,-0.48 1.01333,-1.17333 l -6.02666,-35.83998 c -0.0533,-0.48 -0.53333,-0.85333 -0.96,-0.85333 h -0.85333 c -0.26667,0 -0.74667,0.21333 -0.90667,0.53333 l -12.37333,23.03999 h -0.10666 l -12.37333,-23.03999 c -0.16,-0.32 -0.64,-0.53333 -0.90666,-0.53333 h -0.85334 c -0.42666,0 -0.90666,0.37333 -0.96,0.85333 z"
         id="path833" />
      <path
         style="color:#000000;-inkscape-font-specification:'Brandon Text, Medium';-inkscape-stroke:none"
         d="m 175.30617,426.98664 c 0,0.53333 0.42666,1.01333 1.01333,1.01333 h 22.07998 c 0.58667,0 1.01334,-0.48 1.01334,-1.01333 v -5.81333 c 0,-0.53333 -0.42667,-1.01333 -1.01334,-1.01333 h -14.77332 v -7.2 h 12.15999 c 0.53334,0 1.01334,-0.42666 1.01334,-1.01333 v -5.81333 c 0,-0.53333 -0.48,-1.01333 -1.01334,-1.01333 h -12.15999 v -6.61333 h 14.77332 c 0.58667,0 1.01334,-0.48 1.01334,-1.01333 V 391.68 c 0,-0.53334 -0.42667,-1.01334 -1.01334,-1.01334 H 176.3195 c -0.58667,0 -1.01333,0.48 -1.01333,1.01334 z"
         id="path835" />
      <path
         style="color:#000000;-inkscape-font-specification:'Brandon Text, Medium';-inkscape-stroke:none"
         d="m 206.13276,426.98664 c 0,0.53333 0.42667,1.01333 1.01334,1.01333 h 6.34666 c 0.53333,0 1.01333,-0.48 1.01333,-1.01333 v -13.59999 h 3.68 l 7.09333,14.13332 c 0.10667,0.21334 0.42667,0.48 0.85333,0.48 h 7.09333 c 0.90667,0 1.28,-0.85333 0.90667,-1.54666 l -7.30666,-13.54666 c 4.95999,-1.86667 7.89332,-5.81333 7.89332,-10.71999 0,-6.34667 -4.85333,-11.52 -11.62666,-11.52 H 207.1461 c -0.58667,0 -1.01334,0.48 -1.01334,1.01334 z m 8.37333,-20.37332 v -8.32 h 7.89333 c 2.18667,0 4.05333,1.54667 4.05333,4.05334 0,2.50666 -1.86666,4.26666 -4.05333,4.26666 z"
         id="path837" />
      <path
         style="color:#000000;-inkscape-font-specification:'Brandon Text, Medium';-inkscape-stroke:none"
         d="m 239.30601,409.38665 c 0,10.66666 8.58666,19.14666 19.25332,19.14666 4.74667,0 9.33333,-1.65334 12.96,-5.17333 0.37333,-0.37334 0.42666,-1.06667 0.0533,-1.44 l -4.16,-4.42667 c -0.32,-0.37333 -1.01333,-0.37333 -1.38666,-0.0533 -1.92,1.65333 -4.21333,2.56 -7.14667,2.56 -6.02666,0 -10.50666,-4.90667 -10.50666,-10.82666 0,-5.97333 4.42667,-10.98666 10.45333,-10.98666 2.61333,0 5.01333,0.8 7.2,2.72 0.37333,0.37333 0.96,0.37333 1.33333,0 l 4.16,-4.32 c 0.42666,-0.42667 0.42666,-1.06667 -0.0533,-1.49333 -3.62666,-3.30667 -7.57333,-4.96 -12.90666,-4.96 -10.66666,0 -19.25332,8.58666 -19.25332,19.25332 z"
         id="path839" />
      <path
         style="color:#000000;-inkscape-font-specification:'Brandon Text, Medium';-inkscape-stroke:none"
         d="m 277.6526,426.98664 c 0,0.53333 0.42667,1.01333 1.01333,1.01333 h 22.07999 c 0.58667,0 1.01333,-0.48 1.01333,-1.01333 v -5.81333 c 0,-0.53333 -0.42666,-1.01333 -1.01333,-1.01333 H 285.9726 v -7.2 h 12.15999 c 0.53333,0 1.01333,-0.42666 1.01333,-1.01333 v -5.81333 c 0,-0.53333 -0.48,-1.01333 -1.01333,-1.01333 H 285.9726 v -6.61333 h 14.77332 c 0.58667,0 1.01333,-0.48 1.01333,-1.01333 V 391.68 c 0,-0.53334 -0.42666,-1.01334 -1.01333,-1.01334 h -22.07999 c -0.58666,0 -1.01333,0.48 -1.01333,1.01334 z"
         id="path841" />
    </g>
  </g>
</svg>
