<?xml version="1.0" encoding="UTF-8" standalone="no"?>
<!-- Created with Inkscape (http://www.inkscape.org/) -->

<svg
   width="512"
   height="512"
   viewBox="0 0 135.46666 135.46667"
   version="1.1"
   id="svg5"
   inkscape:version="1.1 (c68e22c387, 2021-05-23)"
   sodipodi:docname="coordination.svg"
   xmlns:inkscape="http://www.inkscape.org/namespaces/inkscape"
   xmlns:sodipodi="http://sodipodi.sourceforge.net/DTD/sodipodi-0.dtd"
   xmlns="http://www.w3.org/2000/svg"
   xmlns:svg="http://www.w3.org/2000/svg">
  <sodipodi:namedview
     id="namedview7"
     pagecolor="#505050"
     bordercolor="#eeeeee"
     borderopacity="1"
     inkscape:pageshadow="0"
     inkscape:pageopacity="0"
     inkscape:pagecheckerboard="0"
     inkscape:document-units="px"
     showgrid="false"
     inkscape:zoom="0.46324355"
     inkscape:cx="93.903088"
     inkscape:cy="227.74197"
     inkscape:window-width="1366"
     inkscape:window-height="705"
     inkscape:window-x="-8"
     inkscape:window-y="-8"
     inkscape:window-maximized="1"
     inkscape:current-layer="layer1"
     units="px" />
  <defs
     id="defs2">
    <rect
       x="0"
       y="384.00006"
       width="511.99998"
       height="127.99992"
       id="rect12253" />
  </defs>
  <g
     inkscape:label="Calque 1"
     inkscape:groupmode="layer"
     id="layer1">
    <path
       style="color:#000000;fill:#000000;fill-rule:evenodd;stroke-width:8.46667;-inkscape-stroke:none"
       d="M 16.933335,0 H 118.53333 c 9.38107,0 16.93333,7.5522663 16.93333,16.933332 V 118.53333 c 0,9.38106 -7.55226,16.93333 -16.93333,16.93333 H 16.933335 C 7.552269,135.46666 2.7270507e-6,127.91439 2.7270507e-6,118.53333 V 16.933332 C 2.7270507e-6,7.5522663 7.552269,0 16.933335,0 Z"
       id="rect846" />
    <path
       style="color:#000000;fill:#b900d3;fill-rule:evenodd;stroke-width:8.46667;-inkscape-stroke:none"
       d="M 16.933332,8.5685921 H 118.53333 c 4.69054,0 8.46667,3.7761329 8.46667,8.4666659 v 84.666662 c 0,4.69054 -3.77613,8.46667 -8.46667,8.46667 H 16.933332 c -4.690533,0 -8.4666658,-3.77613 -8.4666658,-8.46667 V 17.035258 c 0,-4.690533 3.7761328,-8.4666659 8.4666658,-8.4666659 z"
       id="rect846-1" />
    <path
       style="color:#000000;fill:#000000;fill-rule:evenodd;stroke-width:0.264583;-inkscape-stroke:none"
       d="M 8.4666689,101.60001 H 127 c 4.69053,0 8.46666,3.77614 8.46666,8.46667 v 8.46667 c 0,4.69053 -3.77613,8.46666 -8.46666,8.46666 H 8.4666689 c -4.690533,0 -8.4666661729493,-3.77613 -8.4666661729493,-8.46666 v -8.46667 c 0,-4.69053 3.7761331729493,-8.46667 8.4666661729493,-8.46667 z"
       id="rect1024" />
    <g
       aria-label="COORDINATION"
       transform="matrix(0.26458333,0,0,0.26458333,13.306912,6.8438898)"
       id="text12251"
       style="font-weight:500;font-size:53.3333px;font-family:'Brandon Text';-inkscape-font-specification:'Brandon Text, Medium';white-space:pre;fill:#ffffff">
      <path
         style="color:#000000;-inkscape-font-specification:'Brandon Text, Medium';-inkscape-stroke:none"
         d="m 2.0799988,409.38665 c 0,10.66666 8.5866612,19.14666 19.2533222,19.14666 4.746663,0 9.333327,-1.65334 12.959992,-5.17333 0.373333,-0.37334 0.426666,-1.06667 0.05333,-1.44 l -4.159997,-4.42667 c -0.32,-0.37333 -1.013333,-0.37333 -1.386666,-0.0533 -1.919999,1.65333 -4.213331,2.56 -7.146663,2.56 -6.026663,0 -10.50666,-4.90667 -10.50666,-10.82666 0,-5.97333 4.426664,-10.98666 10.453327,-10.98666 2.613332,0 5.01333,0.8 7.199996,2.72 0.373333,0.37333 0.959999,0.37333 1.333332,0 l 4.159998,-4.32 c 0.426666,-0.42667 0.426666,-1.06667 -0.05333,-1.49333 -3.626665,-3.30667 -7.573329,-4.96 -12.906659,-4.96 -10.666661,0 -19.2533222,8.58666 -19.2533222,19.25332 z"
         id="path870" />
      <path
         style="color:#000000;-inkscape-font-specification:'Brandon Text, Medium';-inkscape-stroke:none"
         d="m 37.333173,409.38665 c 0,10.66666 8.479995,19.14666 19.146655,19.14666 10.66666,0 19.199988,-8.48 19.199988,-19.14666 0,-10.66666 -8.533328,-19.25332 -19.199988,-19.25332 -10.66666,0 -19.146655,8.58666 -19.146655,19.25332 z m 8.533328,0 c 0,-5.86666 4.799997,-10.71999 10.613327,-10.71999 5.866663,0 10.66666,4.85333 10.66666,10.71999 0,5.81333 -4.799997,10.61333 -10.66666,10.61333 -5.81333,0 -10.613327,-4.8 -10.613327,-10.61333 z"
         id="path872" />
      <path
         style="color:#000000;-inkscape-font-specification:'Brandon Text, Medium';-inkscape-stroke:none"
         d="m 79.839764,409.38665 c 0,10.66666 8.479995,19.14666 19.146656,19.14666 10.66666,0 19.19999,-8.48 19.19999,-19.14666 0,-10.66666 -8.53333,-19.25332 -19.19999,-19.25332 -10.666661,0 -19.146656,8.58666 -19.146656,19.25332 z m 8.533329,0 c 0,-5.86666 4.799997,-10.71999 10.613327,-10.71999 5.86666,0 10.66666,4.85333 10.66666,10.71999 0,5.81333 -4.8,10.61333 -10.66666,10.61333 -5.81333,0 -10.613327,-4.8 -10.613327,-10.61333 z"
         id="path874" />
      <path
         style="color:#000000;-inkscape-font-specification:'Brandon Text, Medium';-inkscape-stroke:none"
         d="m 124.47968,426.98664 c 0,0.53333 0.42667,1.01333 1.01333,1.01333 h 6.34667 c 0.53333,0 1.01333,-0.48 1.01333,-1.01333 v -13.59999 h 3.68 l 7.09333,14.13332 c 0.10666,0.21334 0.42666,0.48 0.85333,0.48 h 7.09333 c 0.90666,0 1.28,-0.85333 0.90666,-1.54666 L 145.173,412.90665 c 4.96,-1.86667 7.89333,-5.81333 7.89333,-10.71999 0,-6.34667 -4.85333,-11.52 -11.62666,-11.52 h -15.94666 c -0.58666,0 -1.01333,0.48 -1.01333,1.01334 z m 8.37333,-20.37332 v -8.32 h 7.89333 c 2.18666,0 4.05333,1.54667 4.05333,4.05334 0,2.50666 -1.86667,4.26666 -4.05333,4.26666 z"
         id="path876" />
      <path
         style="color:#000000;-inkscape-font-specification:'Brandon Text, Medium';-inkscape-stroke:none"
         d="m 159.78627,426.98664 c 0,0.53333 0.42666,1.01333 0.96,1.01333 h 13.01332 c 10.29333,0 18.71999,-8.37332 18.71999,-18.71999 0,-10.23999 -8.42666,-18.61332 -18.71999,-18.61332 h -13.01332 c -0.53334,0 -0.96,0.48 -0.96,1.01334 z m 8.31999,-6.87999 v -21.59999 h 5.6 c 6.02666,0 9.91999,4.74666 9.91999,10.77332 0,6.08 -3.89333,10.82667 -9.91999,10.82667 z"
         id="path878" />
      <path
         style="color:#000000;-inkscape-font-specification:'Brandon Text, Medium';-inkscape-stroke:none"
         d="m 198.82615,426.98664 c 0,0.53333 0.48,1.01333 1.01334,1.01333 h 6.39999 c 0.53334,0 1.01334,-0.48 1.01334,-1.01333 V 391.68 c 0,-0.53334 -0.48,-1.01334 -1.01334,-1.01334 h -6.39999 c -0.53334,0 -1.01334,0.48 -1.01334,1.01334 z"
         id="path880" />
      <path
         style="color:#000000;-inkscape-font-specification:'Brandon Text, Medium';-inkscape-stroke:none"
         d="m 215.67947,426.98664 c 0,0.53333 0.48,1.01333 1.01333,1.01333 h 6.34667 c 0.58666,0 1.01333,-0.48 1.01333,-1.01333 v -19.89332 c 0,0 0.0533,0 0.0533,0 l 20.74666,20.85332 c 0.42666,0.42667 0.8,0.58667 1.33333,0.58667 h 0.53333 c 0.53334,0 1.01334,-0.32 1.01334,-0.96 V 391.68 c 0,-0.53334 -0.48,-1.01334 -1.01334,-1.01334 h -6.39999 c -0.58667,0 -1.01334,0.48 -1.01334,1.01334 v 18.93332 c 0,0 -0.0533,0 -0.0533,0 L 218.7728,390.93333 c -0.42666,-0.42667 -0.8,-0.8 -1.33333,-0.8 h -0.8 c -0.53333,0 -1.01333,0.42667 -1.01333,0.96 z"
         id="path882" />
      <path
         style="color:#000000;-inkscape-font-specification:'Brandon Text, Medium';-inkscape-stroke:none"
         d="m 252.85273,427.99997 h 5.86666 c 1.06667,0 1.65333,-0.64 1.92,-1.28 l 1.92,-4.26666 h 14.50666 l 1.91999,4.21333 c 0.48,1.01333 0.90667,1.33333 1.86667,1.33333 h 5.92 c 0.8,0 1.22666,-0.69333 0.90666,-1.38666 L 270.98605,390.72 c -0.16,-0.32 -0.53333,-0.58667 -0.90667,-0.58667 h -0.53333 c -0.37333,0 -0.74667,0.26667 -0.90667,0.58667 l -16.69332,35.89331 c -0.32,0.69333 0.10667,1.38666 0.90667,1.38666 z m 12.90666,-12.79999 3.99999,-8.79999 h 0.0533 l 4.05333,8.79999 z"
         id="path884" />
      <path
         style="color:#000000;-inkscape-font-specification:'Brandon Text, Medium';-inkscape-stroke:none"
         d="m 295.25252,426.98664 c 0,0.53333 0.48,1.01333 1.01333,1.01333 h 6.4 c 0.53333,0 1.01333,-0.48 1.01333,-1.01333 v -28.47998 h 7.62667 c 0.58666,0 1.01333,-0.48 1.01333,-1.01333 V 391.68 c 0,-0.53334 -0.42667,-1.01334 -1.01333,-1.01334 h -23.67999 c -0.58667,0 -1.01333,0.48 -1.01333,1.01334 v 5.81333 c 0,0.53333 0.42666,1.01333 1.01333,1.01333 h 7.62666 z"
         id="path886" />
      <path
         style="color:#000000;-inkscape-font-specification:'Brandon Text, Medium';-inkscape-stroke:none"
         d="m 317.91911,426.98664 c 0,0.53333 0.48,1.01333 1.01333,1.01333 h 6.4 c 0.53333,0 1.01333,-0.48 1.01333,-1.01333 V 391.68 c 0,-0.53334 -0.48,-1.01334 -1.01333,-1.01334 h -6.4 c -0.53333,0 -1.01333,0.48 -1.01333,1.01334 z"
         id="path888" />
      <path
         style="color:#000000;-inkscape-font-specification:'Brandon Text, Medium';-inkscape-stroke:none"
         d="m 332.63908,409.38665 c 0,10.66666 8.48,19.14666 19.14666,19.14666 10.66666,0 19.19998,-8.48 19.19998,-19.14666 0,-10.66666 -8.53332,-19.25332 -19.19998,-19.25332 -10.66666,0 -19.14666,8.58666 -19.14666,19.25332 z m 8.53333,0 c 0,-5.86666 4.8,-10.71999 10.61333,-10.71999 5.86666,0 10.66666,4.85333 10.66666,10.71999 0,5.81333 -4.8,10.61333 -10.66666,10.61333 -5.81333,0 -10.61333,-4.8 -10.61333,-10.61333 z"
         id="path890" />
      <path
         style="color:#000000;-inkscape-font-specification:'Brandon Text, Medium';-inkscape-stroke:none"
         d="m 377.279,426.98664 c 0,0.53333 0.48,1.01333 1.01334,1.01333 h 6.34666 c 0.58667,0 1.01333,-0.48 1.01333,-1.01333 v -19.89332 c 0,0 0.0533,0 0.0533,0 l 20.74665,20.85332 c 0.42667,0.42667 0.8,0.58667 1.33333,0.58667 h 0.53334 c 0.53333,0 1.01333,-0.32 1.01333,-0.96 V 391.68 c 0,-0.53334 -0.48,-1.01334 -1.01333,-1.01334 h -6.4 c -0.58667,0 -1.01333,0.48 -1.01333,1.01334 v 18.93332 c 0,0 -0.0533,0 -0.0533,0 l -20.47998,-19.67999 c -0.42667,-0.42667 -0.8,-0.8 -1.33334,-0.8 h -0.8 c -0.53333,0 -1.01333,0.42667 -1.01333,0.96 z"
         id="path892" />
    </g>
    <path
       style="color:#000000;fill:#000000;stroke:#000000;stroke-width:0.785567;stroke-miterlimit:4;stroke-dasharray:none;stroke-opacity:1"
       d="M 40.499749,92.387199 C 39.469015,91.798393 39.308042,91.660558 38.690515,90.838093 L 38.095909,90.046165 V 57.69131 25.336458 l 0.60574,-0.860022 c 0.333149,-0.473011 1.006189,-1.071432 1.49562,-1.329825 l 0.889881,-0.469806 h 9.233448 9.233439 l 0.07937,-1.404687 c 0.193326,-3.421412 1.262539,-3.946001 8.042702,-3.946001 6.76034,0 8.076515,0.661805 8.076515,4.061074 v 1.289614 h 9.256227 9.256221 l 0.889891,0.469806 c 1.790986,0.945528 2.091592,1.698946 2.166104,5.428947 l 0.06472,3.240775 2.669803,-2.643644 c 3.2827,-3.250541 4.20458,-3.769652 6.69486,-3.769898 3.86356,-4.04e-4 6.65888,2.796641 6.65888,6.662965 0,2.943123 0.21209,2.657671 -8.40329,11.309989 l -7.642796,7.675558 -0.05349,19.481715 -0.05349,19.481713 -0.633478,0.911939 c -0.384909,0.554101 -0.987793,1.08889 -1.536457,1.362916 l -0.902987,0.450963 H 67.650786 c -24.898848,0 -26.570643,-0.02177 -27.151107,-0.35335 z m 53.626931,-2.87725 c 0.397654,-0.397655 0.403828,-0.673048 0.403828,-18.014885 V 53.884007 l -1.312431,1.300764 -1.312439,1.300763 v 15.032439 c 0,13.704492 -0.02953,15.065062 -0.334161,15.401689 -0.521267,0.575992 -47.269356,0.576091 -47.790626,1e-4 -0.307497,-0.339779 -0.334447,-2.665089 -0.338821,-29.22688 l -0.0049,-28.857736 0.520706,-0.454302 c 0.50887,-0.443984 0.630532,-0.454301 5.355336,-0.454301 h 4.834649 v -1.211481 -1.211477 h -6.259299 c -5.990064,0 -6.276658,0.01736 -6.663113,0.403825 -0.400359,0.40036 -0.403823,0.673043 -0.403823,31.801269 0,31.128222 0.003,31.400906 0.403823,31.80127 0.399647,0.399646 0.673049,0.40382 26.450564,0.40382 25.777527,0 26.050912,-0.0039 26.450565,-0.40382 z M 89.078865,71.898473 v -12.56366 l -1.362913,1.341317 c -1.305304,1.284616 -1.689755,1.504154 -9.095335,5.193836 -8.233504,4.102179 -8.274883,4.117548 -9.03551,3.356924 -0.714794,-0.714798 -0.841772,-0.380247 3.425557,-9.025713 l 3.921151,-7.944143 6.073529,-6.056125 6.073521,-6.056117 v -4.695738 -4.69573 h -4.033068 -4.033074 l -0.297737,0.575763 c -1.1276,2.180536 -1.523201,2.24876 -13.038874,2.24876 -11.515665,0 -11.911274,-0.06823 -13.038869,-2.24876 l -0.297738,-0.575763 h -4.033069 -4.033059 v 26.854401 26.854398 h 21.402735 21.402753 z m -11.105204,-9.12988 c 0,-0.270455 -1.645973,-1.930266 -1.914177,-1.930266 -0.118134,0 -0.68873,0.952957 -1.267986,2.117683 l -1.053193,2.117685 2.117681,-1.053195 c 1.164719,-0.579257 2.117675,-1.142619 2.117675,-1.251907 z m 6.345526,-3.742842 c -0.401851,-2.447778 -1.666824,-3.745894 -4.243173,-4.354365 l -1.027302,-0.242622 -0.934076,1.880379 -0.934077,1.880372 0.687455,0.424869 c 0.730839,0.451683 2.730518,2.534927 2.730518,2.844631 0,0.101367 0.863418,-0.244593 1.918719,-0.768814 L 84.43597,59.737085 Z M 96.196286,48.171378 c 8.580764,-8.57821 9.035594,-9.069662 9.035594,-9.76284 0,-0.609776 -0.31354,-1.917782 -0.52086,-2.172852 -0.0315,-0.03862 -4.28091,4.163215 -9.443362,9.337431 l -9.386273,9.407659 0.531599,1.202793 c 0.292379,0.661532 0.580227,1.16182 0.639652,1.111759 0.05945,-0.05006 4.174072,-4.155851 9.14365,-9.12395 z m -2.884526,-4.588723 9.38168,-9.373954 -0.59847,-0.228224 c -0.32916,-0.125527 -1.00734,-0.273698 -1.50708,-0.329277 l -0.908613,-0.101054 -9.161514,9.177324 -9.161515,9.177331 1.08501,0.512636 c 0.596756,0.281948 1.175868,0.518604 1.28692,0.525899 0.111051,0.0076 4.423662,-4.205011 9.583582,-9.360681 z m 1.218748,-13.030967 c 0,-5.655643 0.83973,-5.048103 -6.977439,-5.048103 H 81.20427 v 1.211477 1.211481 h 4.818677 c 4.569183,0 4.846217,0.02167 5.35068,0.41848 l 0.532011,0.41848 v 4.270161 4.27016 l 1.312439,-1.300771 1.312431,-1.300765 z m 15.789552,3.045589 c 1.96247,-4.247915 -3.3232,-7.181157 -6.84551,-3.798856 l -1.28241,1.231441 0.90136,0.342151 c 2.04631,0.776765 3.59156,2.230582 4.37185,4.113184 l 0.44469,1.072891 0.99909,-1.034689 c 0.54951,-0.569077 1.18442,-1.435838 1.41093,-1.926122 z M 77.845478,30.334844 C 78.362235,29.92836 78.37749,29.853077 78.37749,27.70997 V 25.503585 H 67.676112 56.974744 v 2.206385 c 0,3.333826 -1.02139,3.043354 10.701368,3.043354 9.44412,0 9.648023,-0.0084 10.169366,-0.41848 z m -4.91963,-8.656154 c 0,-1.594989 -0.102493,-1.62675 -5.249736,-1.62675 -5.147233,0 -5.249725,0.03176 -5.249725,1.62675 v 0.998115 h 5.249725 5.249736 z"
       id="path568" />
  </g>
</svg>
