<?xml version="1.0" encoding="UTF-8" standalone="no"?>
<!-- Created with Inkscape (http://www.inkscape.org/) -->

<svg
   width="512"
   height="512"
   viewBox="0 0 135.46666 135.46667"
   version="1.1"
   id="svg5"
   inkscape:version="1.1 (c68e22c387, 2021-05-23)"
   sodipodi:docname="coordination.svg"
   xmlns:inkscape="http://www.inkscape.org/namespaces/inkscape"
   xmlns:sodipodi="http://sodipodi.sourceforge.net/DTD/sodipodi-0.dtd"
   xmlns="http://www.w3.org/2000/svg"
   xmlns:svg="http://www.w3.org/2000/svg">
  <sodipodi:namedview
     id="namedview7"
     pagecolor="#505050"
     bordercolor="#eeeeee"
     borderopacity="1"
     inkscape:pageshadow="0"
     inkscape:pageopacity="0"
     inkscape:pagecheckerboard="0"
     inkscape:document-units="px"
     showgrid="false"
     inkscape:zoom="0.46324355"
     inkscape:cx="93.903088"
     inkscape:cy="227.74197"
     inkscape:window-width="1366"
     inkscape:window-height="705"
     inkscape:window-x="-8"
     inkscape:window-y="-8"
     inkscape:window-maximized="1"
     inkscape:current-layer="layer1"
     units="px" />
  <defs
     id="defs2">
    <rect
       x="0"
       y="384.00006"
       width="511.99998"
       height="127.99992"
       id="rect12253" />
  </defs>
  <g
     inkscape:label="Calque 1"
     inkscape:groupmode="layer"
     id="layer1">
    <path
       style="color:#000000;fill:#000000;fill-rule:evenodd;stroke-width:8.46667;-inkscape-stroke:none"
       d="M 16.933335,0 H 118.53333 c 9.38107,0 16.93333,7.5522663 16.93333,16.933332 V 118.53333 c 0,9.38106 -7.55226,16.93333 -16.93333,16.93333 H 16.933335 C 7.552269,135.46666 2.7270507e-6,127.91439 2.7270507e-6,118.53333 V 16.933332 C 2.7270507e-6,7.5522663 7.552269,0 16.933335,0 Z"
       id="rect846" />
    <path
       style="color:#000000;fill:#b900d3;fill-rule:evenodd;stroke-width:8.46667;-inkscape-stroke:none"
       d="M 16.933332,8.5685921 H 118.53333 c 4.69054,0 8.46667,3.7761329 8.46667,8.4666659 v 84.666662 c 0,4.69054 -3.77613,8.46667 -8.46667,8.46667 H 16.933332 c -4.690533,0 -8.4666658,-3.77613 -8.4666658,-8.46667 V 17.035258 c 0,-4.690533 3.7761328,-8.4666659 8.4666658,-8.4666659 z"
       id="rect846-1" />
    <path
       style="color:#000000;fill:#000000;fill-rule:evenodd;stroke-width:0.264583;-inkscape-stroke:none"
       d="M 8.4666689,101.60001 H 127 c 4.69053,0 8.46666,3.77614 8.46666,8.46667 v 8.46667 c 0,4.69053 -3.77613,8.46666 -8.46666,8.46666 H 8.4666689 c -4.690533,0 -8.4666661729493,-3.77613 -8.4666661729493,-8.46666 v -8.46667 c 0,-4.69053 3.7761331729493,-8.46667 8.4666661729493,-8.46667 z"
       id="rect1024" />
    <g
       aria-label="COORDINATION"
       transform="matrix(0.26458333,0,0,0.26458333,13.306912,6.8438898)"
       id="text12251"
       style="font-weight:500;font-size:53.3333px;font-family:'Brandon Text';-inkscape-font-specification:'Brandon Text, Medium';white-space:pre;fill:#ffffff">
      <path
         style="color:#000000;-inkscape-font-specification:'Brandon Text, Medium';-inkscape-stroke:none"
         d="m 2.0799988,409.38665 c 0,10.66666 8.5866612,19.14666 19.2533222,19.14666 4.746663,0 9.333327,-1.65334 12.959992,-5.17333 0.373333,-0.37334 0.426666,-1.06667 0.05333,-1.44 l -4.159997,-4.42667 c -0.32,-0.37333 -1.013333,-0.37333 -1.386666,-0.0533 -1.919999,1.65333 -4.213331,2.56 -7.146663,2.56 -6.026663,0 -10.50666,-4.90667 -10.50666,-10.82666 0,-5.97333 4.426664,-10.98666 10.453327,-10.98666 2.613332,0 5.01333,0.8 7.199996,2.72 0.373333,0.37333 0.959999,0.37333 1.333332,0 l 4.159998,-4.32 c 0.426666,-0.42667 0.426666,-1.06667 -0.05333,-1.49333 -3.626665,-3.30667 -7.573329,-4.96 -12.906659,-4.96 -10.666661,0 -19.2533222,8.58666 -19.2533222,19.25332 z"
         id="path870" />
      <path
         style="color:#000000;-inkscape-font-specification:'Brandon Text, Medium';-inkscape-stroke:none"
         d="m 37.333173,409.38665 c 0,10.66666 8.479995,19.14666 19.146655,19.14666 10.66666,0 19.199988,-8.48 19.199988,-19.14666 0,-10.66666 -8.533328,-19.25332 -19.199988,-19.25332 -10.66666,0 -19.146655,8.58666 -19.146655,19.25332 z m 8.533328,0 c 0,-5.86666 4.799997,-10.71999 10.613327,-10.71999 5.866663,0 10.66666,4.85333 10.66666,10.71999 0,5.81333 -4.799997,10.61333 -10.66666,10.61333 -5.81333,0 -10.613327,-4.8 -10.613327,-10.61333 z"
         id="path872" />
      <path
         style="color:#000000;-inkscape-font-specification:'Brandon Text, Medium';-inkscape-stroke:none"
         d="m 79.839764,409.38665 c 0,10.66666 8.479995,19.14666 19.146656,19.14666 10.66666,0 19.19999,-8.48 19.19999,-19.14666 0,-10.66666 -8.53333,-19.25332 -19.19999,-19.25332 -10.666661,0 -19.146656,8.58666 -19.146656,19.25332 z m 8.533329,0 c 0,-5.86666 4.799997,-10.71999 10.613327,-10.71999 5.86666,0 10.66666,4.85333 10.66666,10.71999 0,5.81333 -4.8,10.61333 -10.66666,10.61333 -5.81333,0 -10.613327,-4.8 -10.613327,-10.61333 z"
         id="path874" />
      <path
         style="color:#000000;-inkscape-font-specification:'Brandon Text, Medium';-inkscape-stroke:none"
         d="m 124.47968,426.98664 c 0,0.53333 0.42667,1.01333 1.01333,1.01333 h 6.34667 c 0.53333,0 1.01333,-0.48 1.01333,-1.01333 v -13.59999 h 3.68 l 7.09333,14.13332 c 0.10666,0.21334 0.42666,0.48 0.85333,0.48 h 7.09333 c 0.90666,0 1.28,-0.85333 0.90666,-1.54666 L 145.173,412.90665 c 4.96,-1.86667 7.89333,-5.81333 7.89333,-10.71999 0,-6.34667 -4.85333,-11.52 -11.62666,-11.52 h -15.94666 c -0.58666,0 -1.01333,0.48 -1.01333,1.01334 z m 8.37333,-20.37332 v -8.32 h 7.89333 c 2.18666,0 4.05333,1.54667 4.05333,4.05334 0,2.50666 -1.86667,4.26666 -4.05333,4.26666 z"
         id="path876" />
      <path
         style="color:#000000;-inkscape-font-specification:'Brandon Text, Medium';-inkscape-stroke:none"
         d="m 159.78627,426.98664 c 0,0.53333 0.42666,1.01333 0.96,1.01333 h 13.01332 c 10.29333,0 18.71999,-8.37332 18.71999,-18.71999 0,-10.23999 -8.42666,-18.61332 -18.71999,-18.61332 h -13.01332 c -0.53334,0 -0.96,0.48 -0.96,1.01334 z m 8.31999,-6.87999 v -21.59999 h 5.6 c 6.02666,0 9.91999,4.74666 9.91999,10.77332 0,6.08 -3.89333,10.82667 -9.91999,10.82667 z"
         id="path878" />
      <path
         style="color:#000000;-inkscape-font-specification:'Brandon Text, Medium';-inkscape-stroke:none"
         d="m 198.82615,426.98664 c 0,0.53333 0.48,1.01333 1.01334,1.01333 h 6.39999 c 0.53334,0 1.01334,-0.48 1.01334,-1.01333 V 391.68 c 0,-0.53334 -0.48,-1.01334 -1.01334,-1.01334 h -6.39999 c -0.53334,0 -1.01334,0.48 -1.01334,1.01334 z"
         id="path880" />
      <path
         style="color:#000000;-inkscape-font-specification:'Brandon Text, Medium';-inkscape-stroke:none"
         d="m 215.67947,426.98664 c 0,0.53333 0.48,1.01333 1.01333,1.01333 h 6.34667 c 0.58666,0 1.01333,-0.48 1.01333,-1.01333 v -19.89332 c 0,0 0.0533,0 0.0533,0 l 20.74666,20.85332 c 0.42666,0.42667 0.8,0.58667 1.33333,0.58667 h 0.53333 c 0.53334,0 1.01334,-0.32 1.01334,-0.96 V 391.68 c 0,-0.53334 -0.48,-1.01334 -1.01334,-1.01334 h -6.39999 c -0.58667,0 -1.01334,0.48 -1.01334,1.01334 v 18.93332 c 0,0 -0.0533,0 -0.0533,0 L 218.7728,390.93333 c -0.42666,-0.42667 -0.8,-0.8 -1.33333,-0.8 h -0.8 c -0.53333,0 -1.01333,0.42667 -1.01333,0.96 z"
         id="path882" />
      <path
         style="color:#000000;-inkscape-font-specification:'Brandon Text, Medium';-inkscape-stroke:none"
         d="m 252.85273,427.99997 h 5.86666 c 1.06667,0 1.65333,-0.64 1.92,-1.28 l 1.92,-4.26666 h 14.50666 l 1.91999,4.21333 c 0.48,1.01333 0.90667,1.33333 1.86667,1.33333 h 5.92 c 0.8,0 1.22666,-0.69333 0.90666,-1.38666 L 270.98605,390.72 c -0.16,-0.32 -0.53333,-0.58667 -0.90667,-0.58667 h -0.53333 c -0.37333,0 -0.74667,0.26667 -0.90667,0.58667 l -16.69332,35.89331 c -0.32,0.69333 0.10667,1.38666 0.90667,1.38666 z m 12.90666,-12.79999 3.99999,-8.79999 h 0.0533 l 4.05333,8.79999 z"
         id="path884" />
      <path
         style="color:#000000;-inkscape-font-specification:'Brandon Text, Medium';-inkscape-stroke:none"
         d="m 295.25252,426.98664 c 0,0.53333 0.48,1.01333 1.01333,1.01333 h 6.4 c 0.53333,0 1.01333,-0.48 1.01333,-1.01333 v -28.47998 h 7.62667 c 0.58666,0 1.01333,-0.48 1.01333,-1.01333 V 391.68 c 0,-0.53334 -0.42667,-1.01334 -1.01333,-1.01334 h -23.67999 c -0.58667,0 -1.01333,0.48 -1.01333,1.01334 v 5.81333 c 0,0.53333 0.42666,1.01333 1.01333,1.01333 h 7.62666 z"
         id="path886" />
      <path
         style="color:#000000;-inkscape-font-specification:'Brandon Text, Medium';-inkscape-stroke:none"
         d="m 317.91911,426.98664 c 0,0.53333 0.48,1.01333 1.01333,1.01333 h 6.4 c 0.53333,0 1.01333,-0.48 1.01333,-1.01333 V 391.68 c 0,-0.53334 -0.48,-1.01334 -1.01333,-1.01334 h -6.4 c -0.53333,0 -1.01333,0.48 -1.01333,1.01334 z"
         id="path888" />
      <path
         style="color:#000000;-inkscape-font-specification:'Brandon Text, Medium';-inkscape-stroke:none"
         d="m 332.63908,409.38665 c 0,10.66666 8.48,19.14666 19.14666,19.14666 10.66666,0 19.19998,-8.48 19.19998,-19.14666 0,-10.66666 -8.53332,-19.25332 -19.19998,-19.25332 -10.66666,0 -19.14666,8.58666 -19.14666,19.25332 z m 8.53333,0 c 0,-5.86666 4.8,-10.71999 10.61333,-10.71999 5.86666,0 10.66666,4.85333 10.66666,10.71999 0,5.81333 -4.8,10.61333 -10.66666,10.61333 -5.81333,0 -10.61333,-4.8 -10.61333,-10.61333 z"
         id="path890" />
      <path
         style="color:#000000;-inkscape-font-specification:'Brandon Text, Medium';-inkscape-stroke:none"
         d="m 377.279,426.98664 c 0,0.53333 0.48,1.01333 1.01334,1.01333 h 6.34666 c 0.58667,0 1.01333,-0.48 1.01333,-1.01333 v -19.89332 c 0,0 0.0533,0 0.0533,0 l 20.74665,20.85332 c 0.42667,0.42667 0.8,0.58667 1.33333,0.58667 h 0.53334 c 0.53333,0 1.01333,-0.32 1.01333,-0.96 V 391.68 c 0,-0.53334 -0.48,-1.01334 -1.01333,-1.01334 h -6.4 c -0.58667,0 -1.01333,0.48 -1.01333,1.01334 v 18.93332 c 0,0 -0.0533,0 -0.0533,0 l -20.47998,-19.67999 c -0.42667,-0.42667 -0.8,-0.8 -1.33334,-0.8 h -0.8 c -0.53333,0 -1.01333,0.42667 -1.01333,0.96 z"
         id="path892" />
    </g>
    <path
       style="color:#000000;fill:#000000;stroke-width:0.204016;-inkscape-stroke:none"
       d="M 40.52888,92.7763 C 39.48741,92.18136 39.32476,92.04209 38.7008,91.211057 L 38.1,90.41088 V 57.718996 25.027115 l 0.61205,-0.86898 c 0.33662,-0.477938 1.01667,-1.082593 1.5112,-1.343678 l 0.89915,-0.474699 h 9.32963 9.32962 l 0.0802,-1.419319 c 0.19534,-3.457052 1.27569,-3.987106 8.12648,-3.987106 6.83076,0 8.160645,0.668699 8.160645,4.103377 v 1.303048 h 9.352646 9.352639 l 0.899161,0.474699 c 1.809642,0.955378 2.113379,1.716644 2.188668,5.485499 l 0.06539,3.274533 2.697611,-2.671182 c 3.3169,-3.284401 4.24838,-3.808919 6.7646,-3.809168 3.90381,-4.08e-4 6.72824,2.825773 6.72824,6.732371 0,2.97378 0.2143,2.685355 -8.49082,11.427801 l -7.722409,7.755512 -0.05405,19.684649 -0.05405,19.684647 -0.640077,0.921438 c -0.388919,0.559873 -0.998083,1.100233 -1.552462,1.377113 l -0.912393,0.45566 H 67.96274 c -25.15821,0 -26.84742,-0.022 -27.43393,-0.35703 z M 94.714424,89.869078 C 95.11622,89.467281 95.122458,89.18902 95.122458,71.666539 V 53.872034 l -1.326102,1.314313 -1.32611,1.314313 v 15.189027 c 0,13.847246 -0.02984,15.221989 -0.337642,15.562122 -0.526697,0.581992 -47.761744,0.582092 -48.288444,1.01e-4 -0.3107,-0.343318 -0.33793,-2.69285 -0.34235,-29.531325 l -0.005,-29.158337 0.52613,-0.459034 c 0.51417,-0.448609 0.6371,-0.459034 5.41112,-0.459034 h 4.88501 v -1.2241 -1.224097 h -6.3245 c -6.05246,0 -6.34204,0.01754 -6.73252,0.408032 -0.40453,0.40453 -0.40803,0.680054 -0.40803,32.132531 0,31.452474 0.003,31.727998 0.40803,32.132532 0.40381,0.403809 0.68006,0.408027 26.72609,0.408027 26.046042,0 26.322275,-0.0039 26.726091,-0.408027 z M 89.614028,72.07415 V 59.379619 l -1.37711,1.355289 c -1.318901,1.297997 -1.707357,1.519822 -9.190078,5.247938 -8.31927,4.14491 -8.36108,4.160439 -9.12963,3.391892 -0.72224,-0.722244 -0.85054,-0.384208 3.46124,-9.11973 l 3.961996,-8.026895 6.136795,-6.119209 6.136787,-6.119202 v -4.744651 -4.744644 h -4.075079 -4.075086 l -0.300838,0.58176 c -1.139346,2.20325 -1.539068,2.272185 -13.174695,2.272185 -11.63562,0 -12.03535,-0.06894 -13.17469,-2.272185 L 54.5128,30.500407 H 50.43772 46.36265 V 57.63454 84.768671 H 67.98833 89.614028 Z M 78.393145,62.849167 c 0,-0.273272 -1.663119,-1.950373 -1.934117,-1.950373 -0.119364,0 -0.695904,0.962884 -1.281194,2.139743 l -1.064164,2.139744 2.139741,-1.064166 c 1.176851,-0.585291 2.139734,-1.154521 2.139734,-1.264948 z m 6.411625,-3.781829 c -0.406037,-2.473276 -1.684187,-3.784914 -4.287373,-4.399723 l -1.038003,-0.24515 -0.943806,1.899967 -0.943807,1.899959 0.694616,0.429294 c 0.738452,0.456389 2.758961,2.561333 2.758961,2.874263 0,0.102423 0.872412,-0.247141 1.938706,-0.776822 l 1.938705,-0.963045 z m 12.000818,-10.96744 c 8.670142,-8.667566 9.129712,-9.164137 9.129712,-9.864536 0,-0.616127 -0.3168,-1.937758 -0.52628,-2.195485 -0.0318,-0.03902 -4.32551,4.206581 -9.541733,9.434695 l -9.484046,9.505656 0.537136,1.215322 c 0.295425,0.668422 0.586271,1.173922 0.646315,1.123339 0.06007,-0.05058 4.217552,-4.199141 9.238896,-9.218991 z m -2.914573,-4.636522 9.479405,-9.471599 -0.6047,-0.230601 c -0.33259,-0.126835 -1.01784,-0.276549 -1.52278,-0.332707 l -0.91808,-0.102107 -9.256946,9.272921 -9.256947,9.272928 1.096312,0.517976 c 0.602972,0.284885 1.188117,0.524006 1.300325,0.531377 0.112208,0.0077 4.469742,-4.248813 9.683411,-9.458188 z m 1.231443,-13.166705 c 0,-5.714556 0.848478,-5.100688 -7.05012,-5.100688 h -6.414932 v 1.224097 1.2241 h 4.868871 c 4.616779,0 4.896698,0.0219 5.406416,0.422839 l 0.537553,0.42284 v 4.314641 4.314641 l 1.32611,-1.314321 1.326102,-1.314314 z m 15.954022,3.077313 c 1.98292,-4.292164 -3.35781,-7.25596 -6.91681,-3.838427 l -1.29577,1.244268 0.91075,0.345716 c 2.06762,0.784856 3.62897,2.253817 4.41739,4.156029 l 0.44932,1.084067 1.0095,-1.045467 c 0.55523,-0.575005 1.19676,-1.450795 1.42562,-1.946186 z M 78.263626,30.077568 c 0.52214,-0.410718 0.537554,-0.486786 0.537554,-2.652217 V 25.195983 H 67.98833 57.17549 v 2.229368 c 0,3.368554 -1.03203,3.075056 10.81284,3.075056 9.542496,0 9.748523,-0.0085 10.275296,-0.422839 z M 73.29275,21.331246 c 0,-1.611604 -0.10356,-1.643696 -5.30442,-1.643696 -5.20085,0 -5.30441,0.03209 -5.30441,1.643696 v 1.008512 h 5.30441 5.30442 z"
       id="path568" />
  </g>
</svg>
