<?xml version="1.0" encoding="UTF-8" standalone="no"?>
<!-- Created with Inkscape (http://www.inkscape.org/) -->

<svg
   width="512"
   height="512"
   viewBox="0 0 135.46666 135.46667"
   version="1.1"
   id="svg5"
   inkscape:version="1.1 (c68e22c387, 2021-05-23)"
   sodipodi:docname="dominion.svg"
   xmlns:inkscape="http://www.inkscape.org/namespaces/inkscape"
   xmlns:sodipodi="http://sodipodi.sourceforge.net/DTD/sodipodi-0.dtd"
   xmlns="http://www.w3.org/2000/svg"
   xmlns:svg="http://www.w3.org/2000/svg">
  <sodipodi:namedview
     id="namedview7"
     pagecolor="#505050"
     bordercolor="#eeeeee"
     borderopacity="1"
     inkscape:pageshadow="0"
     inkscape:pageopacity="0"
     inkscape:pagecheckerboard="0"
     inkscape:document-units="px"
     showgrid="false"
     inkscape:zoom="0.46324355"
     inkscape:cx="93.903088"
     inkscape:cy="227.74197"
     inkscape:window-width="1366"
     inkscape:window-height="705"
     inkscape:window-x="-8"
     inkscape:window-y="-8"
     inkscape:window-maximized="1"
     inkscape:current-layer="layer1"
     units="px" />
  <defs
     id="defs2">
    <rect
       x="0"
       y="384.00006"
       width="511.99998"
       height="127.99992"
       id="rect12253" />
  </defs>
  <g
     inkscape:label="Calque 1"
     inkscape:groupmode="layer"
     id="layer1">
    <path
       style="color:#000000;fill:#000000;fill-rule:evenodd;stroke-width:8.46667;-inkscape-stroke:none"
       d="M 16.933335,0 H 118.53333 c 9.38107,0 16.93333,7.5522663 16.93333,16.933332 V 118.53333 c 0,9.38106 -7.55226,16.93333 -16.93333,16.93333 H 16.933335 C 7.552269,135.46666 2.7270507e-6,127.91439 2.7270507e-6,118.53333 V 16.933332 C 2.7270507e-6,7.5522663 7.552269,0 16.933335,0 Z"
       id="rect846" />
    <path
       style="color:#000000;fill:#0cd1a5;fill-rule:evenodd;stroke-width:8.46667;-inkscape-stroke:none"
       d="M 16.933332,8.5685921 H 118.53333 c 4.69054,0 8.46667,3.7761329 8.46667,8.4666659 v 84.666662 c 0,4.69054 -3.77613,8.46667 -8.46667,8.46667 H 16.933332 c -4.690533,0 -8.4666658,-3.77613 -8.4666658,-8.46667 V 17.035258 c 0,-4.690533 3.7761328,-8.4666659 8.4666658,-8.4666659 z"
       id="rect846-1" />
    <path
       style="color:#000000;fill:#000000;fill-rule:evenodd;stroke-width:0.264583;-inkscape-stroke:none"
       d="M 8.4666689,101.60001 H 127 c 4.69053,0 8.46666,3.77614 8.46666,8.46667 v 8.46667 c 0,4.69053 -3.77613,8.46666 -8.46666,8.46666 H 8.4666689 c -4.690533,0 -8.4666661729493,-3.77613 -8.4666661729493,-8.46666 v -8.46667 c 0,-4.69053 3.7761331729493,-8.46667 8.4666661729493,-8.46667 z"
       id="rect1024" />
    <g
       aria-label="DOMINION"
       transform="matrix(0.26458333,0,0,0.26458333,30.000293,6.8438898)"
       id="text12251"
       style="font-weight:500;font-size:53.3333px;font-family:'Brandon Text';-inkscape-font-specification:'Brandon Text, Medium';white-space:pre;fill:#ffffff">
      <path
         style="color:#000000;-inkscape-font-specification:'Brandon Text, Medium';-inkscape-stroke:none"
         d="m 4.2133308,426.98664 c 0,0.53333 0.4266664,1.01333 0.9599994,1.01333 H 18.186656 c 10.293327,0 18.719989,-8.37332 18.719989,-18.71999 0,-10.23999 -8.426662,-18.61332 -18.719989,-18.61332 H 5.1733302 c -0.533333,0 -0.9599994,0.48 -0.9599994,1.01334 z m 8.3199952,-6.87999 v -21.59999 h 5.599997 c 6.026663,0 9.919994,4.74666 9.919994,10.77332 0,6.08 -3.893331,10.82667 -9.919994,10.82667 z"
         id="path877" />
      <path
         style="color:#000000;-inkscape-font-specification:'Brandon Text, Medium';-inkscape-stroke:none"
         d="m 41.119893,409.38665 c 0,10.66666 8.479995,19.14666 19.146655,19.14666 10.66666,0 19.199989,-8.48 19.199989,-19.14666 0,-10.66666 -8.533329,-19.25332 -19.199989,-19.25332 -10.66666,0 -19.146655,8.58666 -19.146655,19.25332 z m 8.533328,0 c 0,-5.86666 4.799997,-10.71999 10.613327,-10.71999 5.866663,0 10.66666,4.85333 10.66666,10.71999 0,5.81333 -4.799997,10.61333 -10.66666,10.61333 -5.81333,0 -10.613327,-4.8 -10.613327,-10.61333 z"
         id="path879" />
      <path
         style="color:#000000;-inkscape-font-specification:'Brandon Text, Medium';-inkscape-stroke:none"
         d="m 83.466454,426.82664 c -0.106666,0.69333 0.373333,1.17333 1.013333,1.17333 h 6.29333 c 0.533333,0 0.959999,-0.42666 1.013332,-0.85333 l 2.346666,-16.47999 h 0.106666 l 9.013329,17.27999 c 0.16,0.32 0.58667,0.58667 0.90667,0.58667 h 0.95999 c 0.26667,0 0.74667,-0.26667 0.90667,-0.58667 l 8.96,-17.27999 h 0.10666 l 2.4,16.47999 c 0.0533,0.42667 0.53333,0.85333 1.01333,0.85333 h 6.29333 c 0.64,0 1.12,-0.48 1.01334,-1.17333 l -6.02667,-35.83998 c -0.0533,-0.48 -0.53333,-0.85333 -0.96,-0.85333 h -0.85333 c -0.26667,0 -0.74667,0.21333 -0.90667,0.53333 l -12.37332,23.03999 h -0.10667 L 92.213116,390.66666 c -0.16,-0.32 -0.64,-0.53333 -0.906666,-0.53333 h -0.853333 c -0.426667,0 -0.906666,0.37333 -0.96,0.85333 z"
         id="path881" />
      <path
         style="color:#000000;-inkscape-font-specification:'Brandon Text, Medium';-inkscape-stroke:none"
         d="m 132.26634,426.98664 c 0,0.53333 0.48,1.01333 1.01333,1.01333 h 6.4 c 0.53333,0 1.01333,-0.48 1.01333,-1.01333 V 391.68 c 0,-0.53334 -0.48,-1.01334 -1.01333,-1.01334 h -6.4 c -0.53333,0 -1.01333,0.48 -1.01333,1.01334 z"
         id="path883" />
      <path
         style="color:#000000;-inkscape-font-specification:'Brandon Text, Medium';-inkscape-stroke:none"
         d="m 149.11966,426.98664 c 0,0.53333 0.48,1.01333 1.01333,1.01333 h 6.34666 c 0.58667,0 1.01334,-0.48 1.01334,-1.01333 v -19.89332 c 0,0 0.0533,0 0.0533,0 l 20.74665,20.85332 c 0.42667,0.42667 0.8,0.58667 1.33334,0.58667 h 0.53333 c 0.53333,0 1.01333,-0.32 1.01333,-0.96 V 391.68 c 0,-0.53334 -0.48,-1.01334 -1.01333,-1.01334 h -6.4 c -0.58666,0 -1.01333,0.48 -1.01333,1.01334 v 18.93332 c 0,0 -0.0533,0 -0.0533,0 l -20.47999,-19.67999 c -0.42667,-0.42667 -0.8,-0.8 -1.33333,-0.8 h -0.8 c -0.53334,0 -1.01334,0.42667 -1.01334,0.96 z"
         id="path885" />
      <path
         style="color:#000000;-inkscape-font-specification:'Brandon Text, Medium';-inkscape-stroke:none"
         d="m 189.59958,426.98664 c 0,0.53333 0.48,1.01333 1.01333,1.01333 h 6.4 c 0.53333,0 1.01333,-0.48 1.01333,-1.01333 V 391.68 c 0,-0.53334 -0.48,-1.01334 -1.01333,-1.01334 h -6.4 c -0.53333,0 -1.01333,0.48 -1.01333,1.01334 z"
         id="path887" />
      <path
         style="color:#000000;-inkscape-font-specification:'Brandon Text, Medium';-inkscape-stroke:none"
         d="m 204.31956,409.38665 c 0,10.66666 8.48,19.14666 19.14666,19.14666 10.66666,0 19.19999,-8.48 19.19999,-19.14666 0,-10.66666 -8.53333,-19.25332 -19.19999,-19.25332 -10.66666,0 -19.14666,8.58666 -19.14666,19.25332 z m 8.53333,0 c 0,-5.86666 4.8,-10.71999 10.61333,-10.71999 5.86666,0 10.66666,4.85333 10.66666,10.71999 0,5.81333 -4.8,10.61333 -10.66666,10.61333 -5.81333,0 -10.61333,-4.8 -10.61333,-10.61333 z"
         id="path889" />
      <path
         style="color:#000000;-inkscape-font-specification:'Brandon Text, Medium';-inkscape-stroke:none"
         d="m 248.95949,426.98664 c 0,0.53333 0.48,1.01333 1.01333,1.01333 h 6.34666 c 0.58667,0 1.01333,-0.48 1.01333,-1.01333 v -19.89332 c 0,0 0.0533,0 0.0533,0 l 20.74665,20.85332 c 0.42667,0.42667 0.8,0.58667 1.33333,0.58667 h 0.53334 c 0.53333,0 1.01333,-0.32 1.01333,-0.96 V 391.68 c 0,-0.53334 -0.48,-1.01334 -1.01333,-1.01334 h -6.4 c -0.58667,0 -1.01333,0.48 -1.01333,1.01334 v 18.93332 c 0,0 -0.0533,0 -0.0533,0 l -20.47998,-19.67999 c -0.42667,-0.42667 -0.8,-0.8 -1.33334,-0.8 h -0.79999 c -0.53334,0 -1.01334,0.42667 -1.01334,0.96 z"
         id="path891" />
    </g>
    <path
       style="color:#000000;fill:#000000;stroke-width:0.148505;-inkscape-stroke:none"
       d="m 33.722117,92.689834 c -1.7549,-1.568141 -0.33046,-3.155735 2.83143,-3.155735 h 1.77905 V 81.867022 74.19994 l -0.92816,-0.984186 c -7.80423,-8.27536 4.31275,-20.251008 12.28833,-12.144993 2.22152,2.257844 2.47469,3.211316 2.55979,9.640324 l 0.0663,5.012045 16.50777,2.95e-4 c 15.41943,1.47e-4 16.54191,0.01734 17.02548,0.259883 0.89522,0.449 0.8885,0.394161 0.89091,7.27652 l 0.002,6.274271 h 3.41562 3.41561 v -8.32366 c 0,-9.493174 -0.12179,-8.642684 1.43642,-10.030999 3.81971,-3.403249 1.91198,-9.020357 -3.06997,-9.03919 -3.52688,-0.01335 -5.0554,1.895495 -5.16864,6.454635 -0.0723,2.912545 -0.18061,3.307952 -0.99942,3.650074 -0.76002,0.317559 -28.34304,0.314941 -29.10342,-0.0029 -0.93897,-0.39233 -1.31584,-1.38757 -0.90121,-2.379926 0.42672,-1.021281 -0.32023,-0.970375 14.23849,-0.970375 h 13.12775 l 0.0985,-1.596429 c 0.32755,-5.306468 3.81475,-8.798926 8.78569,-8.798926 7.70555,0 11.462423,9.615941 5.85671,14.990639 l -0.73681,0.706445 v 7.670239 7.670235 h 1.77906 c 3.147243,0 4.578203,1.59486 2.831433,3.155734 l -0.45703,0.408386 -8.425323,-4.21e-4 c -10.95656,-8.42e-4 -9.68558,1.017298 -9.68678,-7.758836 l -8.5e-4,-6.051541 h -16.70446 -16.70448 l -0.48498,-0.433087 -0.48498,-0.433087 -0.0743,-6.212512 -0.0742,-6.212516 -0.42762,-0.925824 c -1.89114,-4.094401 -7.87906,-3.950244 -9.45423,0.227608 -0.7094,1.881553 -0.14907,4.319147 1.24917,5.434298 0.31833,0.25388 0.85388,0.707371 1.19011,1.007763 l 0.61134,0.546166 0.0406,8.624023 0.0406,8.624018 h 3.41211 3.41212 v -2.910748 -2.910697 l 0.50492,-0.504916 c 0.78068,-0.78069 2.11505,-0.671228 2.72298,0.22337 0.3242,0.477085 0.47885,7.397825 0.18933,8.473005 -0.33428,1.241434 0.0539,1.192876 -9.54073,1.193508 l -8.42531,4.21e-4 z m 22.43059,-0.01478 c -0.80014,-0.80013 -0.67995,-2.19154 0.24145,-2.795263 0.64253,-0.421006 22.04235,-0.421006 22.68489,0 0.9214,0.603723 1.04159,1.995133 0.24145,2.795263 l -0.42317,0.423165 H 67.736597 56.575867 L 56.152707,92.67505 Z M 42.543177,68.60583 c -1.2521,-0.763486 -0.87527,-2.793246 0.57947,-3.121346 1.87714,-0.423363 2.98938,2.072883 1.41497,3.175645 -0.45249,0.316928 -1.42924,0.29034 -1.99444,-0.0543 z m 48.39241,0.0543 c -1.43914,-1.008016 -0.74184,-3.183845 1.02036,-3.183845 1.24714,0 1.99551,1.034575 1.63025,2.253719 -0.30155,1.006497 -1.79391,1.530178 -2.65061,0.930126 z m -35.81911,-4.969374 c -0.28439,-0.06688 -0.66822,-0.31058 -0.85317,-0.541695 l -0.3362,-0.420125 -8.5e-4,-14.541825 -8.4e-4,-14.541825 0.63243,-0.605689 c 5.18421,-4.965033 21.1643,-4.965033 26.35616,0 l 0.63336,0.605689 v 14.567529 14.567524 l -0.43596,0.435958 c -0.26052,0.260523 -0.66391,0.473625 -1.00241,0.529558 -0.83946,0.138711 -24.38934,0.08679 -24.99273,-0.0551 z m 22.83069,-15.988687 -0.038,-12.576535 -1.08658,-0.553688 c -5.19525,-2.647349 -12.88199,-2.652253 -18.16484,-0.01158 l -1.09378,0.546729 -0.038,12.585805 -0.038,12.585804 h 10.24853 10.24853 z m -30.06351,8.943557 c -1.00553,-0.437335 -0.94804,0.736952 -0.90363,-18.455564 l 0.0401,-17.33955 0.40946,-0.833379 c 2.59933,-5.290401 9.66505,-3.375154 10.01346,2.714267 0.0808,1.412281 0.12362,1.609035 0.32966,1.515225 5.76185,-2.623346 13.67032,-2.620033 19.92775,0.0083 0.20533,0.08625 0.24913,-0.116181 0.32965,-1.523572 0.34846,-6.09018 7.41713,-7.994495 10.02044,-2.699529 l 0.40249,0.818641 0.0386,17.300839 c 0.0362,16.261528 0.0229,17.332061 -0.22276,17.820605 -0.54945,1.092954 -2.37365,1.155445 -3.01519,0.103291 -0.28232,-0.463013 -0.28936,-0.885534 -0.28991,-17.376763 -4.2e-4,-12.155193 -0.0471,-16.993316 -0.16644,-17.226588 -0.66693,-1.304119 -2.70329,-1.097851 -3.09528,0.313528 -0.084,0.302576 -0.15316,1.843246 -0.15362,3.423712 l -8.4e-4,2.873573 -0.50492,0.504916 c -0.62216,0.622161 -1.64572,0.707384 -2.39093,0.199071 -5.663,-3.86278 -15.93344,-3.964079 -21.68174,-0.213851 -1.19848,0.781894 -1.98059,0.814535 -2.61102,0.108965 l -0.43333,-0.484983 -8.4e-4,-2.930632 c -4.3e-4,-1.611848 -0.0696,-3.178195 -0.15362,-3.480771 -0.39199,-1.411379 -2.42835,-1.617647 -3.09529,-0.313528 -0.11924,0.233282 -0.16582,5.062559 -0.16582,17.196835 0,18.52868 0.0515,17.48409 -0.88617,17.968985 -0.53465,0.276478 -1.11661,0.279121 -1.74018,0.0079 z"
       id="path783" />
  </g>
</svg>
