<?xml version="1.0" encoding="UTF-8" standalone="no"?>
<!-- Created with Inkscape (http://www.inkscape.org/) -->

<svg
   width="512"
   height="512"
   viewBox="0 0 135.46666 135.46667"
   version="1.1"
   id="svg5"
   inkscape:version="1.1 (c68e22c387, 2021-05-23)"
   sodipodi:docname="equality.svg"
   xmlns:inkscape="http://www.inkscape.org/namespaces/inkscape"
   xmlns:sodipodi="http://sodipodi.sourceforge.net/DTD/sodipodi-0.dtd"
   xmlns="http://www.w3.org/2000/svg"
   xmlns:svg="http://www.w3.org/2000/svg">
  <sodipodi:namedview
     id="namedview7"
     pagecolor="#505050"
     bordercolor="#eeeeee"
     borderopacity="1"
     inkscape:pageshadow="0"
     inkscape:pageopacity="0"
     inkscape:pagecheckerboard="0"
     inkscape:document-units="px"
     showgrid="false"
     inkscape:zoom="0.46324355"
     inkscape:cx="93.903088"
     inkscape:cy="227.74197"
     inkscape:window-width="1366"
     inkscape:window-height="705"
     inkscape:window-x="-8"
     inkscape:window-y="-8"
     inkscape:window-maximized="1"
     inkscape:current-layer="layer1"
     units="px" />
  <defs
     id="defs2">
    <rect
       x="0"
       y="384.00006"
       width="511.99998"
       height="127.99992"
       id="rect12253" />
  </defs>
  <g
     inkscape:label="Calque 1"
     inkscape:groupmode="layer"
     id="layer1">
    <path
       style="color:#000000;fill:#000000;fill-rule:evenodd;stroke-width:8.46667;-inkscape-stroke:none"
       d="M 16.933335,0 H 118.53333 c 9.38107,0 16.93333,7.5522663 16.93333,16.933332 V 118.53333 c 0,9.38106 -7.55226,16.93333 -16.93333,16.93333 H 16.933335 C 7.552269,135.46666 2.7270507e-6,127.91439 2.7270507e-6,118.53333 V 16.933332 C 2.7270507e-6,7.5522663 7.552269,0 16.933335,0 Z"
       id="rect846" />
    <path
       style="color:#000000;fill:#ff0c57;fill-rule:evenodd;stroke-width:8.46667;-inkscape-stroke:none"
       d="M 16.933332,8.5685921 H 118.53333 c 4.69054,0 8.46667,3.7761329 8.46667,8.4666659 v 84.666662 c 0,4.69054 -3.77613,8.46667 -8.46667,8.46667 H 16.933332 c -4.690533,0 -8.4666658,-3.77613 -8.4666658,-8.46667 V 17.035258 c 0,-4.690533 3.7761328,-8.4666659 8.4666658,-8.4666659 z"
       id="rect846-1" />
    <path
       style="color:#000000;fill:#000000;fill-rule:evenodd;stroke-width:0.264583;-inkscape-stroke:none"
       d="M 8.4666689,101.60001 H 127 c 4.69053,0 8.46666,3.77614 8.46666,8.46667 v 8.46667 c 0,4.69053 -3.77613,8.46666 -8.46666,8.46666 H 8.4666689 c -4.690533,0 -8.4666661729493,-3.77613 -8.4666661729493,-8.46666 v -8.46667 c 0,-4.69053 3.7761331729493,-8.46667 8.4666661729493,-8.46667 z"
       id="rect1024" />
    <g
       aria-label="EQUALITY"
       transform="matrix(0.26458333,0,0,0.26458333,34.070399,6.8438898)"
       id="text12251"
       style="font-weight:500;font-size:53.3333px;font-family:'Brandon Text';-inkscape-font-specification:'Brandon Text, Medium';white-space:pre;fill:#ffffff">
      <path
         style="color:#000000;-inkscape-font-specification:'Brandon Text, Medium';-inkscape-stroke:none"
         d="m 4.2133308,426.98664 c 0,0.53333 0.4266664,1.01333 1.0133328,1.01333 H 27.30665 c 0.586667,0 1.013333,-0.48 1.013333,-1.01333 v -5.81333 c 0,-0.53333 -0.426666,-1.01333 -1.013333,-1.01333 H 12.533326 v -7.2 h 12.159993 c 0.533333,0 1.013332,-0.42666 1.013332,-1.01333 v -5.81333 c 0,-0.53333 -0.479999,-1.01333 -1.013332,-1.01333 H 12.533326 v -6.61333 H 27.30665 c 0.586667,0 1.013333,-0.48 1.013333,-1.01333 V 391.68 c 0,-0.53334 -0.426666,-1.01334 -1.013333,-1.01334 H 5.2266636 c -0.5866664,0 -1.0133328,0.48 -1.0133328,1.01334 z"
         id="path828" />
      <path
         style="color:#000000;-inkscape-font-specification:'Brandon Text, Medium';-inkscape-stroke:none"
         d="m 32.31985,409.38665 c 0,10.66666 8.479995,19.14666 19.146655,19.14666 0.373333,0 1.013333,0 1.653332,-0.0533 l 5.65333,9.54666 c 0.16,0.26667 0.426667,0.53334 0.853333,0.53334 h 7.199996 c 0.853333,0 1.279999,-0.85334 0.853333,-1.6 l -6.879996,-10.77333 c 5.866663,-3.57333 9.866661,-9.86666 9.866661,-16.79999 0,-10.66666 -8.533329,-19.25332 -19.199989,-19.25332 -10.66666,0 -19.146655,8.58666 -19.146655,19.25332 z m 8.533328,0 c 0,-5.86666 4.799997,-10.71999 10.613327,-10.71999 5.866663,0 10.66666,4.85333 10.66666,10.71999 0,5.81333 -4.799997,10.61333 -10.66666,10.61333 -5.81333,0 -10.613327,-4.8 -10.613327,-10.61333 z"
         id="path830" />
      <path
         style="color:#000000;-inkscape-font-specification:'Brandon Text, Medium';-inkscape-stroke:none"
         d="m 76.586435,414.34665 c 0,8.10666 6.773329,14.18666 15.146657,14.18666 8.426658,0 15.253328,-6.08 15.253328,-14.18666 V 391.68 c 0,-0.53334 -0.48,-1.01334 -1.01334,-1.01334 h -6.559992 c -0.586666,0 -1.013333,0.48 -1.013333,1.01334 v 22.23998 c 0,3.89333 -2.826665,6.08 -6.666663,6.08 -3.786664,0 -6.559996,-2.18667 -6.559996,-6.08 V 391.68 c 0,-0.53334 -0.426666,-1.01334 -1.013332,-1.01334 h -6.559996 c -0.533334,0 -1.013333,0.48 -1.013333,1.01334 z"
         id="path832" />
      <path
         style="color:#000000;-inkscape-font-specification:'Brandon Text, Medium';-inkscape-stroke:none"
         d="m 110.55962,427.99997 h 5.86666 c 1.06667,0 1.65334,-0.64 1.92,-1.28 l 1.92,-4.26666 h 14.50666 l 1.92,4.21333 c 0.48,1.01333 0.90666,1.33333 1.86666,1.33333 h 5.92 c 0.8,0 1.22667,-0.69333 0.90667,-1.38666 L 128.69294,390.72 c -0.16,-0.32 -0.53333,-0.58667 -0.90666,-0.58667 h -0.53334 c -0.37333,0 -0.74666,0.26667 -0.90666,0.58667 l -16.69333,35.89331 c -0.32,0.69333 0.10667,1.38666 0.90667,1.38666 z m 12.90666,-12.79999 4,-8.79999 h 0.0533 l 4.05333,8.79999 z"
         id="path834" />
      <path
         style="color:#000000;-inkscape-font-specification:'Brandon Text, Medium';-inkscape-stroke:none"
         d="m 149.5995,426.98664 c 0,0.53333 0.42667,1.01333 1.01333,1.01333 h 20.05332 c 0.58667,0 1.01334,-0.48 1.01334,-1.01333 v -5.81333 c 0,-0.53333 -0.42667,-1.01333 -1.01334,-1.01333 H 157.97283 V 391.68 c 0,-0.53334 -0.48,-1.01334 -1.01333,-1.01334 h -6.34667 c -0.58666,0 -1.01333,0.48 -1.01333,1.01334 z"
         id="path836" />
      <path
         style="color:#000000;-inkscape-font-specification:'Brandon Text, Medium';-inkscape-stroke:none"
         d="m 176.79939,426.98664 c 0,0.53333 0.48,1.01333 1.01333,1.01333 h 6.4 c 0.53333,0 1.01333,-0.48 1.01333,-1.01333 V 391.68 c 0,-0.53334 -0.48,-1.01334 -1.01333,-1.01334 h -6.4 c -0.53333,0 -1.01333,0.48 -1.01333,1.01334 z"
         id="path838" />
      <path
         style="color:#000000;-inkscape-font-specification:'Brandon Text, Medium';-inkscape-stroke:none"
         d="m 199.46605,426.98664 c 0,0.53333 0.48,1.01333 1.01334,1.01333 h 6.39999 c 0.53333,0 1.01333,-0.48 1.01333,-1.01333 v -28.47998 h 7.62667 c 0.58666,0 1.01333,-0.48 1.01333,-1.01333 V 391.68 c 0,-0.53334 -0.42667,-1.01334 -1.01333,-1.01334 h -23.67999 c -0.58667,0 -1.01333,0.48 -1.01333,1.01334 v 5.81333 c 0,0.53333 0.42666,1.01333 1.01333,1.01333 h 7.62666 z"
         id="path840" />
      <path
         style="color:#000000;-inkscape-font-specification:'Brandon Text, Medium';-inkscape-stroke:none"
         d="m 229.75927,426.98664 c 0,0.53333 0.42667,1.01333 1.01334,1.01333 h 6.34666 c 0.53333,0 1.01333,-0.48 1.01333,-1.01333 v -17.01332 l 11.94666,-17.75999 c 0.42667,-0.69333 0,-1.54667 -0.85333,-1.54667 h -6.93333 c -0.48,0 -0.69333,0.26667 -0.85333,0.48 l -7.41333,10.93333 -7.41333,-10.93333 c -0.16,-0.21333 -0.42667,-0.48 -0.85333,-0.48 h -6.93333 c -0.85334,0 -1.28,0.85334 -0.85334,1.54667 l 11.78666,17.81332 z"
         id="path842" />
    </g>
    <path
       style="color:#000000;fill:#000000;stroke-width:0.264583;-inkscape-stroke:none"
       d="m 61.039825,93.107368 c -0.24419,-0.0504 -11.98785,-4.37727 -12.24329,-4.51092 -0.42664,-0.22323 -0.88281,-0.69794 -1.14943,-1.19618 -0.27484,-0.51359 -0.29071,-0.58891 -0.28655,-1.35922 l 0.004,-0.8155 0.85883,-2.36066 c 0.47236,-1.29836 0.87072,-2.40157 0.88524,-2.45158 0.0145,-0.0499 -0.29768,-0.35524 -0.69379,-0.6783 -0.3961,-0.32307 -1.00821,-0.84921 -1.36024,-1.1692 l -0.64005,-0.58181 -2.25586,1.32032 c -1.31576,0.77008 -2.45887,1.3801 -2.74302,1.46378 -0.95135,0.28022 -2.06662,-0.0246 -2.75271,-0.7523 -0.34467,-0.36557 -5.93764,-10.04628 -6.58196,-11.39251 -0.26898,-0.56201 -0.30419,-0.7126 -0.30419,-1.30091 0,-0.57646 0.0366,-0.74064 0.27398,-1.22919 0.16233,-0.33407 0.41904,-0.69075 0.6299,-0.87519 0.19574,-0.17123 1.3091,-0.86954 2.47411,-1.5518 1.16502,-0.68227 2.16417,-1.26806 2.2203,-1.30176 0.0776,-0.0466 0.0547,-0.29794 -0.0957,-1.04839 -0.10879,-0.54291 -0.24572,-1.34225 -0.30427,-1.77632 l -0.10642,-0.78922 -0.43328,-0.0871 c -0.23831,-0.0479 -1.41604,-0.26224 -2.61717,-0.47636 -1.29466,-0.23079 -2.33434,-0.46096 -2.5534,-0.56528 -0.90181,-0.42948 -1.54927,-1.36979 -1.63024,-2.367626 -0.0612,-0.754397 2.08688,-13.017479 2.39172,-13.653935 0.43917,-0.916909 1.47739,-1.57069 2.49429,-1.57069 0.2768,0 1.58015,0.193145 2.89635,0.429212 1.31619,0.236066 2.43389,0.429211 2.48377,0.429211 0.0498,0 0.19611,-0.217756 0.32495,-0.483903 0.12883,-0.266148 0.5193,-0.963126 0.86769,-1.548841 0.3599,-0.605057 0.607,-1.108294 0.5722,-1.165338 -0.0336,-0.05522 -0.78128,-0.968367 -1.66134,-2.029214 -0.88005,-1.060847 -1.69818,-2.124596 -1.81807,-2.363887 -0.42245,-0.843184 -0.33806,-2.015289 0.20621,-2.863705 0.154,-0.240063 1.54992,-1.484113 4.00676,-3.57085 2.07374,-1.761339 4.28434,-3.639411 4.91244,-4.173494 1.41838,-1.206047 1.82709,-1.414294 2.75551,-1.403965 0.74183,0.0082 1.19653,0.164461 1.7513,0.60164 0.171,0.134756 1.04312,1.133479 1.93803,2.219384 0.89492,1.085905 1.63687,1.985795 1.64878,1.999755 0.0119,0.01396 0.35989,-0.110959 0.77329,-0.277599 0.41339,-0.166626 1.17103,-0.44845 1.68364,-0.626263 l 0.93202,-0.323297 0.0424,-2.918639 c 0.0418,-2.881143 0.045,-2.924124 0.24974,-3.345612 0.3971,-0.817566 1.12639,-1.387651 2.02092,-1.579745 0.62732,-0.134712 12.62438,-0.134712 13.2517,0 0.89453,0.192094 1.62382,0.762179 2.02091,1.579745 0.20472,0.421488 0.20793,0.464469 0.24975,3.345612 l 0.0424,2.918639 0.93201,0.323297 c 0.51261,0.177813 1.27025,0.459637 1.68365,0.626277 0.41339,0.166639 0.76146,0.291559 0.77347,0.2776 0.012,-0.01396 0.77008,-0.931166 1.68459,-2.038237 1.01059,-1.223387 1.82049,-2.123265 2.06494,-2.294357 0.52647,-0.368487 1.33982,-0.578037 1.94584,-0.501327 0.73316,0.0928 1.33157,0.491617 3.43256,2.287613 1.08435,0.926941 3.22977,2.752765 4.76759,4.057387 1.66608,1.413424 2.90756,2.53173 3.07198,2.767186 0.58577,0.838866 0.68805,2.041339 0.24829,2.919095 -0.12158,0.242661 -0.93954,1.30614 -1.81771,2.363286 -0.87817,1.057147 -1.62439,1.967536 -1.65828,2.023088 -0.0353,0.05784 0.20911,0.556135 0.57183,1.165939 0.34839,0.585716 0.73886,1.282694 0.86769,1.548842 0.12884,0.266146 0.27507,0.483902 0.32495,0.483902 0.0499,0 1.16758,-0.193144 2.48377,-0.429211 1.31619,-0.236066 2.619555,-0.429212 2.896345,-0.429212 1.01677,0 2.05468,0.653504 2.49461,1.57069 0.30585,0.637646 2.45403,12.899901 2.39198,13.653935 -0.0812,0.987152 -0.72819,1.935132 -1.61688,2.369222 -0.20085,0.0981 -1.26695,0.33273 -2.54826,0.56083 -1.21162,0.21569 -2.396005,0.43094 -2.631955,0.47832 l -0.42901,0.0861 -0.10785,0.79128 c -0.0593,0.4352 -0.19911,1.23372 -0.31065,1.77448 -0.1569,0.76071 -0.17922,0.9985 -0.0986,1.05081 0.0573,0.0372 1.05193,0.61841 2.210285,1.29162 1.15835,0.67321 2.27219,1.37091 2.4752,1.55044 0.22082,0.19528 0.47875,0.55207 0.64202,0.88807 0.23623,0.48617 0.27291,0.65105 0.27291,1.22697 0,0.5883 -0.0352,0.7389 -0.3042,1.30091 -0.64432,1.34622 -6.237295,11.02693 -6.581965,11.3925 -0.70542,0.74823 -1.87258,1.04395 -2.84649,0.72122 -0.2796,-0.0927 -1.4977,-0.74994 -2.70688,-1.4606 l -2.19852,-1.29214 -0.63989,0.58167 c -0.35195,0.31991 -0.96399,0.846 -1.3601,1.16906 -0.3961,0.32307 -0.70831,0.62831 -0.69378,0.6783 0.0145,0.05 0.41288,1.15322 0.88523,2.45158 l 0.85883,2.36066 0.004,0.8155 c 0.004,0.77031 -0.0117,0.84563 -0.28654,1.35922 -0.26822,0.50122 -0.72237,0.97245 -1.1567,1.20018 -0.0972,0.051 -2.86148,1.08407 -6.14283,2.29579 -5.38862,1.98987 -6.01941,2.20403 -6.51684,2.21247 -1.00978,0.0171 -1.83649,-0.4452 -2.47353,-1.38328 -0.15725,-0.23156 -0.61873,-1.37045 -1.12817,-2.78424 l -0.86208,-2.39239 h -1.80713 -1.80709 l -0.9089,2.53177 c -0.49989,1.39247 -0.98851,2.64504 -1.08582,2.78349 -0.27596,0.39266 -0.76702,0.79395 -1.23473,1.009 -0.43013,0.19778 -1.26266,0.31557 -1.65607,0.23432 z m 0.80141,-6.63962 c 0.85501,-2.38699 1.09689,-2.86212 1.69136,-3.3224 0.70005,-0.54201 0.78378,-0.55304 4.2008,-0.55304 2.62847,0 3.14894,0.0207 3.46805,0.13797 0.58505,0.21499 1.23205,0.76754 1.50159,1.28239 0.0709,0.13554 0.48478,1.23646 0.9196,2.4465 0.43483,1.21004 0.81459,2.26176 0.84391,2.33715 0.0449,0.11538 0.79639,-0.13665 4.74928,-1.59282 2.58278,-0.95143 4.71756,-1.75177 4.74397,-1.77852 0.0264,-0.0268 -0.34046,-1.12555 -0.81525,-2.44178 -0.80474,-2.2309 -0.86342,-2.43689 -0.86569,-3.03863 -0.002,-0.51164 0.0418,-0.74305 0.211,-1.11595 0.29908,-0.65925 0.54085,-0.92007 1.62242,-1.75025 0.52147,-0.40025 1.47547,-1.21119 2.12001,-1.80208 0.90236,-0.82726 1.2782,-1.11464 1.6342,-1.24959 0.54707,-0.20738 1.45989,-0.23366 1.94926,-0.0561 0.18061,0.0655 1.28158,0.67999 2.4466,1.36549 1.16502,0.68549 2.1443,1.22097 2.17617,1.18996 0.16263,-0.15825 4.98317,-8.73141 4.9527,-8.80822 -0.0196,-0.0495 -0.99778,-0.65005 -2.17371,-1.33465 -2.35519,-1.37113 -2.72731,-1.68158 -3.04421,-2.53972 -0.23025,-0.62347 -0.22156,-1.2744 0.0316,-2.36714 0.26519,-1.14473 0.35939,-1.68688 0.5571,-3.20637 0.17703,-1.36052 0.31986,-1.7784 0.7979,-2.334463 0.5585,-0.649649 1.06596,-0.825807 3.76792,-1.307967 1.322965,-0.236082 2.426335,-0.45046 2.451945,-0.4764 0.0376,-0.03808 -1.65606,-10.005457 -1.70927,-10.059368 -0.008,-0.0085 -1.082475,0.177519 -2.386655,0.413571 -2.68048,0.485154 -3.24496,0.506838 -3.98109,0.152925 -0.6527,-0.313802 -1.08024,-0.811813 -1.60223,-1.866324 -0.52915,-1.06895 -1.13069,-2.120022 -1.83895,-3.213187 -0.73376,-1.132531 -0.85027,-2.092588 -0.37753,-3.110836 0.11174,-0.240678 0.89348,-1.261403 1.77566,-2.318507 0.86682,-1.038692 1.57367,-1.92716 1.57077,-1.974374 -0.007,-0.122693 -7.6819,-6.627803 -7.73478,-6.556311 -0.37108,0.501684 -3.11291,3.74612 -3.34641,3.959853 -0.52152,0.47735 -1.18696,0.690078 -2.00312,0.640357 -0.5814,-0.03542 -0.81645,-0.103365 -1.65221,-0.477652 -0.53591,-0.239999 -1.58443,-0.634058 -2.33004,-0.875689 -0.74561,-0.241631 -1.51837,-0.51312 -1.71723,-0.603309 -0.52301,-0.237193 -1.08252,-0.797509 -1.35245,-1.354403 l -0.23474,-0.484266 -0.0255,-2.768414 -0.0255,-2.768415 h -5.07502 -5.07503 l -0.0255,2.768415 -0.0255,2.768414 -0.23473,0.48428 c -0.26994,0.556894 -0.82945,1.117211 -1.35245,1.354403 -0.19887,0.09019 -0.97162,0.361679 -1.71724,0.60331 -0.74561,0.24163 -1.79413,0.63569 -2.33004,0.875688 -0.83576,0.374283 -1.0708,0.442233 -1.6522,0.477653 -0.81617,0.04973 -1.48161,-0.163007 -2.00312,-0.640357 -0.23347,-0.213695 -2.98646,-3.471402 -3.34604,-3.959474 -0.0629,-0.08531 -7.69907,6.43903 -7.69907,6.578033 0,0.05809 0.71514,0.970636 1.58919,2.027864 0.87404,1.057227 1.6641,2.09384 1.75567,2.303584 0.43292,0.991543 0.30415,1.944749 -0.41204,3.050167 -0.70746,1.091925 -1.30967,2.143964 -1.83671,3.208656 -0.51698,1.044384 -0.90413,1.496403 -1.5804,1.845237 -0.74859,0.386133 -1.26723,0.369752 -4.00526,-0.126511 -1.30422,-0.23639 -2.37813,-0.422876 -2.38644,-0.414407 -0.0536,0.05449 -1.74578,10.022527 -1.70801,10.060801 0.0259,0.02622 1.12906,0.239838 2.4515,0.4747 2.69818,0.479185 3.21145,0.657071 3.75614,1.301788 0.49741,0.588745 0.63088,0.974035 0.8074,2.330695 0.19908,1.52996 0.29291,2.07044 0.55844,3.21663 0.25315,1.09273 0.26183,1.74367 0.0316,2.36714 -0.3169,0.85814 -0.68902,1.16859 -3.04422,2.53972 -1.17591,0.68459 -2.15435,1.28589 -2.17429,1.33621 -0.0307,0.0776 4.78803,8.64439 4.95367,8.80665 0.0316,0.031 1.01077,-0.50446 2.1758,-1.18996 1.16501,-0.68549 2.26599,-1.29996 2.4466,-1.36549 0.49107,-0.17815 1.40215,-0.15127 1.95326,0.0577 0.35365,0.13405 0.71293,0.40373 1.48666,1.11589 0.56118,0.51651 1.4108,1.24846 1.88806,1.62658 1.50364,1.19125 1.67917,1.36769 1.95519,1.96528 0.21489,0.46524 0.25586,0.65892 0.25473,1.20426 -10e-4,0.60895 -0.0558,0.80041 -0.86617,3.04245 -0.47566,1.31594 -0.84289,2.41484 -0.81607,2.44201 0.0268,0.0271 2.15415,0.82609 4.7274,1.77535 3.05421,1.1267 4.69852,1.69368 4.73592,1.633 0.0315,-0.0512 0.42355,-1.11551 0.87121,-2.36528 z m 3.90103,-9.53699 c -4.13958,-0.39988 -8.01636,-1.96766 -11.39601,-4.60859 -0.9266,-0.72406 -2.94433,-2.76831 -3.659,-3.70709 -2.65485,-3.48737 -4.16136,-7.36001 -4.55825,-11.71748 -0.35255,-3.870563 0.44572,-8.086676 2.20284,-11.634343 2.05565,-4.150424 5.38465,-7.574673 9.43231,-9.702187 3.89398,-2.046739 8.38565,-2.865466 12.68055,-2.311375 1.89885,0.244973 2.41679,0.48038 2.81723,1.280445 0.42168,0.842507 0.264,1.709135 -0.42558,2.339026 -0.56972,0.520401 -1.02375,0.590931 -2.26455,0.35179 -1.09837,-0.211689 -4.58075,-0.209178 -5.71919,0.0042 -3.85891,0.72302 -7.08569,2.412852 -9.71152,5.085825 -2.64801,2.695548 -4.28753,5.914502 -5.00291,9.822445 -0.1166,0.63693 -0.14929,1.276031 -0.14929,2.91864 0,2.249724 0.0638,2.815384 0.51793,4.592564 1.58384,6.19807 6.57592,11.25576 12.69358,12.86042 1.75413,0.46011 2.31244,0.52474 4.53299,0.52474 1.6213,0 2.2521,-0.0331 2.88077,-0.15125 3.85578,-0.72451 7.06891,-2.40493 9.70481,-5.07547 2.6359,-2.67054 4.29452,-5.9259 5.00963,-9.83237 0.21098,-1.15256 0.21372,-4.680043 0.005,-5.794353 -0.2417,-1.287236 -0.1635,-1.760501 0.38824,-2.349685 0.60408,-0.645072 1.46564,-0.787852 2.26767,-0.375807 0.78968,0.405701 1.02204,0.930453 1.26383,2.854256 0.61039,4.856489 -0.47792,9.964059 -3.02718,14.206899 -1.65635,2.75673 -4.46003,5.59726 -7.18099,7.27538 -3.98152,2.45555 -8.75251,3.58296 -13.30241,3.14344 z m 17.66593,-31.200755 c -0.36635,-0.160769 -0.6997,-0.474564 -1.04011,-0.979092 -0.95342,-1.413039 -2.53418,-3.075334 -3.86448,-4.063795 -1.43979,-1.069826 -1.69888,-1.415267 -1.70238,-2.269834 -0.005,-1.113644 0.80465,-1.936415 1.90453,-1.936415 0.62362,0 0.89312,0.132453 2.03349,0.999406 1.76676,1.343159 3.39025,3.02183 4.62919,4.786534 0.59386,0.845873 0.69573,1.090283 0.69542,1.668602 -4.8e-4,0.818011 -0.44796,1.500077 -1.19137,1.815696 -0.35899,0.152413 -1.093,0.141834 -1.46429,-0.02109 z"
       id="path39" />
  </g>
</svg>
