<?xml version="1.0" encoding="UTF-8" standalone="no"?>
<!-- Created with Inkscape (http://www.inkscape.org/) -->

<svg
   width="512"
   height="512"
   viewBox="0 0 135.46666 135.46667"
   version="1.1"
   id="svg5"
   inkscape:version="1.1 (c68e22c387, 2021-05-23)"
   sodipodi:docname="BlankValue.svg"
   xmlns:inkscape="http://www.inkscape.org/namespaces/inkscape"
   xmlns:sodipodi="http://sodipodi.sourceforge.net/DTD/sodipodi-0.dtd"
   xmlns="http://www.w3.org/2000/svg"
   xmlns:svg="http://www.w3.org/2000/svg">
  <sodipodi:namedview
     id="namedview7"
     pagecolor="#505050"
     bordercolor="#eeeeee"
     borderopacity="1"
     inkscape:pageshadow="0"
     inkscape:pageopacity="0"
     inkscape:pagecheckerboard="0"
     inkscape:document-units="px"
     showgrid="false"
     inkscape:zoom="0.46324355"
     inkscape:cx="99.299818"
     inkscape:cy="391.80254"
     inkscape:window-width="1366"
     inkscape:window-height="705"
     inkscape:window-x="-8"
     inkscape:window-y="-8"
     inkscape:window-maximized="1"
     inkscape:current-layer="layer1"
     units="px" />
  <defs
     id="defs2">
    <rect
       x="0"
       y="384.00006"
       width="511.99998"
       height="127.99992"
       id="rect11281" />
  </defs>
  <g
     inkscape:label="Calque 1"
     inkscape:groupmode="layer"
     id="layer1">
    <path
       style="color:#000000;fill:#000000;fill-rule:evenodd;stroke-width:8.46667;-inkscape-stroke:none"
       d="M 16.933332,0 H 118.53333 c 9.38106,0 16.93333,7.5522663 16.93333,16.933332 V 118.53333 c 0,9.38106 -7.55227,16.93333 -16.93333,16.93333 H 16.933332 C 7.5522663,135.46666 0,127.91439 0,118.53333 V 16.933332 C 0,7.5522663 7.5522663,0 16.933332,0 Z"
       id="rect846" />
    <path
       style="color:#000000;fill:#ff0c57;fill-rule:evenodd;stroke-width:8.46667;-inkscape-stroke:none"
       d="M 16.631408,8.5685921 H 118.23141 c 4.69053,0 8.46666,3.7761329 8.46666,8.4666659 v 84.666662 c 0,4.69054 -3.77613,8.46667 -8.46666,8.46667 H 16.631408 c -4.690533,0 -8.4666665,-3.77613 -8.4666665,-8.46667 V 17.035258 c 0,-4.690533 3.7761335,-8.4666659 8.4666665,-8.4666659 z"
       id="rect846-1" />
    <path
       style="color:#000000;fill:#000000;fill-rule:evenodd;stroke-width:0.264583;-inkscape-stroke:none"
       d="M 8.4666662,101.60001 H 126.99999 c 4.69054,0 8.46667,3.77614 8.46667,8.46667 v 8.46667 c 0,4.69053 -3.77613,8.46666 -8.46667,8.46666 H 8.4666662 C 3.7761331,127.00001 0,123.22388 0,118.53335 v -8.46667 c 0,-4.69053 3.7761331,-8.46667 8.4666662,-8.46667 z"
       id="rect1024" />
    <path
       style="color:#000000;fill:#000000;stroke-width:0.26458333;stroke:none;stroke-opacity:1;stroke-miterlimit:4;stroke-dasharray:none"
       d="M 61.039467,93.107315 C 60.79527,93.056915 49.051611,88.730044 48.796171,88.596394 48.369533,88.373172 47.913369,87.898456 47.646743,87.400216 47.371908,86.886631 47.35603,86.811312 47.360197,86.041002 l 0.0044,-0.815501 0.858831,-2.360666 c 0.472358,-1.298362 0.870714,-2.401571 0.885238,-2.451577 0.01453,-0.04995 -0.29768,-0.355241 -0.693787,-0.678296 -0.396108,-0.323078 -1.008217,-0.849218 -1.360245,-1.169201 l -0.640052,-0.581816 -2.255859,1.320322 c -1.31576,0.770085 -2.458872,1.380105 -2.743014,1.463782 -0.951356,0.280215 -2.066624,-0.02464 -2.752717,-0.752298 -0.344666,-0.365569 -5.937637,-10.046286 -6.581958,-11.392509 -0.268976,-0.562011 -0.304189,-0.712604 -0.304189,-1.300912 0,-0.576462 0.03656,-0.740638 0.273983,-1.229192 0.162326,-0.334071 0.41904,-0.690745 0.629898,-0.875191 0.195739,-0.171228 1.309095,-0.869539 2.474111,-1.551804 1.165017,-0.682267 2.164163,-1.268055 2.2203,-1.301757 0.07763,-0.04659 0.05468,-0.297939 -0.09574,-1.048386 -0.108788,-0.542909 -0.245723,-1.342257 -0.304268,-1.776323 l -0.106425,-0.789216 -0.433282,-0.08705 c -0.238309,-0.04788 -1.416038,-0.26224 -2.617166,-0.476361 -1.294661,-0.230793 -2.334341,-0.460964 -2.553401,-0.565285 -0.901811,-0.429477 -1.549271,-1.36979 -1.630238,-2.367623 -0.0612,-0.754397 2.086875,-13.017479 2.391717,-13.653935 0.439166,-0.916909 1.477394,-1.57069 2.494293,-1.57069 0.276795,0 1.580152,0.193145 2.896346,0.429212 1.316194,0.236066 2.433892,0.429211 2.483775,0.429211 0.04984,0 0.19611,-0.217756 0.324945,-0.483903 0.128835,-0.266148 0.5193,-0.963126 0.86769,-1.548841 0.359898,-0.605057 0.607005,-1.108294 0.572197,-1.165338 -0.03364,-0.05522 -0.781279,-0.968367 -1.661332,-2.029214 -0.880054,-1.060847 -1.698188,-2.124596 -1.818079,-2.363887 -0.422449,-0.843184 -0.338051,-2.015289 0.206213,-2.863705 0.154001,-0.240063 1.549923,-1.484113 4.006765,-3.57085 2.073738,-1.761339 4.284336,-3.639411 4.912442,-4.173494 1.41837,-1.206047 1.82709,-1.414294 2.755508,-1.403965 0.741829,0.0082 1.19653,0.164461 1.7513,0.60164 0.171,0.134756 1.043117,1.133479 1.93803,2.219384 0.894918,1.085905 1.636869,1.985795 1.648779,1.999755 0.01191,0.01396 0.359889,-0.110959 0.773284,-0.277599 0.413395,-0.166626 1.171034,-0.44845 1.683644,-0.626263 l 0.932017,-0.323297 0.04237,-2.918639 c 0.04182,-2.881143 0.04502,-2.924124 0.249746,-3.345612 0.397095,-0.817566 1.126388,-1.387651 2.020916,-1.579745 0.62732,-0.134712 12.624379,-0.134712 13.251699,0 0.894528,0.192094 1.623822,0.762179 2.020916,1.579745 0.204719,0.421488 0.207925,0.464469 0.249747,3.345612 l 0.04237,2.918639 0.932014,0.323297 c 0.51261,0.177813 1.270249,0.459637 1.683644,0.626277 0.413395,0.166639 0.761458,0.291559 0.773474,0.2776 0.012,-0.01396 0.770081,-0.931166 1.684588,-2.038237 1.010592,-1.223387 1.82049,-2.123265 2.064935,-2.294357 0.526478,-0.368487 1.339824,-0.578037 1.94584,-0.501327 0.733163,0.0928 1.331578,0.491617 3.432563,2.287613 1.084351,0.926941 3.229767,2.752765 4.76759,4.057387 1.666079,1.413424 2.90756,2.53173 3.07198,2.767186 0.58577,0.838866 0.68805,2.041339 0.24829,2.919095 -0.12158,0.242661 -0.93954,1.30614 -1.817713,2.363286 -0.878164,1.057147 -1.624388,1.967536 -1.658277,2.023088 -0.03528,0.05784 0.209109,0.556135 0.571829,1.165939 0.348395,0.585716 0.738859,1.282694 0.867696,1.548842 0.128837,0.266146 0.275064,0.483902 0.324946,0.483902 0.04988,0 1.167579,-0.193144 2.483769,-0.429211 1.31619,-0.236066 2.619547,-0.429212 2.896337,-0.429212 1.01677,0 2.05468,0.653504 2.49461,1.57069 0.30585,0.637646 2.45403,12.899901 2.39198,13.653935 -0.0812,0.987147 -0.72819,1.935134 -1.61688,2.369217 -0.20085,0.0981 -1.26695,0.332738 -2.54826,0.560835 -1.21162,0.215693 -2.395997,0.430935 -2.631947,0.478316 l -0.42901,0.08615 -0.10785,0.791283 c -0.0593,0.435205 -0.19911,1.233723 -0.31065,1.774484 -0.1569,0.760708 -0.17922,0.998498 -0.0986,1.050807 0.0573,0.03718 1.05193,0.618412 2.210277,1.291621 1.15835,0.673206 2.27219,1.370906 2.4752,1.550439 0.22082,0.195284 0.47875,0.552071 0.64202,0.888069 0.23623,0.486167 0.27291,0.651047 0.27291,1.226966 0,0.588307 -0.0352,0.738901 -0.3042,1.300911 -0.64432,1.346223 -6.237287,11.026938 -6.581957,11.392507 -0.70542,0.748226 -1.872579,1.043943 -2.84649,0.721215 -0.279603,-0.0927 -1.4977,-0.749936 -2.706883,-1.460599 l -2.198512,-1.292141 -0.639898,0.58167 c -0.351944,0.319916 -0.963987,0.846 -1.360091,1.169066 -0.396108,0.323066 -0.708313,0.628301 -0.693787,0.678296 0.01453,0.04995 0.412879,1.153215 0.885236,2.451577 l 0.858829,2.360666 0.0044,0.815501 c 0.0042,0.77031 -0.0117,0.845629 -0.286544,1.359214 -0.268223,0.501221 -0.722372,0.97245 -1.156703,1.200184 -0.0972,0.05096 -2.861474,1.084072 -6.14283,2.295787 -5.388618,1.989875 -6.019405,2.20403 -6.516833,2.212467 -1.009781,0.0171 -1.83649,-0.445196 -2.47353,-1.383277 -0.157253,-0.231559 -0.618731,-1.37045 -1.128177,-2.784238 l -0.862075,-2.39239 h -1.80713 -1.807092 l -0.908894,2.531767 c -0.499893,1.392468 -0.988512,2.645041 -1.085821,2.783495 -0.275965,0.392658 -0.767028,0.793946 -1.234732,1.009001 -0.43013,0.197775 -1.262664,0.315562 -1.656074,0.234315 z m 0.80141,-6.639612 c 0.855009,-2.386991 1.096888,-2.862123 1.691359,-3.322405 0.700045,-0.542014 0.78378,-0.553039 4.200794,-0.553039 2.628477,0 3.148946,0.0207 3.468058,0.13797 0.58505,0.214987 1.232048,0.767542 1.501583,1.282387 0.07095,0.13554 0.484783,1.236465 0.919607,2.446504 0.434825,1.210038 0.814583,2.261755 0.843906,2.337153 0.04488,0.11538 0.796386,-0.136654 4.749276,-1.59282 2.582781,-0.951435 4.717569,-1.751771 4.743973,-1.778523 0.0264,-0.02678 -0.340456,-1.125551 -0.815248,-2.441779 -0.804737,-2.230908 -0.863421,-2.436896 -0.865689,-3.038635 -0.0019,-0.511639 0.04183,-0.743052 0.210997,-1.115944 0.299077,-0.65925 0.540851,-0.92007 1.622421,-1.750252 0.521472,-0.400253 1.475474,-1.211197 2.120006,-1.802081 0.902367,-0.827266 1.278201,-1.114643 1.634206,-1.249593 0.547072,-0.207375 1.459884,-0.233658 1.949255,-0.05613 0.180612,0.06552 1.281585,0.679993 2.446603,1.36549 1.165019,0.685495 2.144296,1.220974 2.17617,1.189957 0.162631,-0.158242 4.983169,-8.731409 4.952699,-8.808215 -0.0196,-0.04947 -0.99778,-0.650053 -2.17371,-1.334645 -2.355184,-1.371133 -2.727306,-1.681583 -3.04421,-2.53972 -0.230245,-0.623475 -0.221558,-1.274408 0.03159,-2.367142 0.265195,-1.144729 0.359392,-1.686881 0.557105,-3.206373 0.177026,-1.360519 0.319854,-1.778404 0.797895,-2.334463 0.5585,-0.649649 1.06596,-0.825807 3.76792,-1.307967 1.322957,-0.236082 2.426327,-0.45046 2.451937,-0.4764 0.0376,-0.03808 -1.65606,-10.005457 -1.70927,-10.059368 -0.008,-0.0085 -1.082467,0.177519 -2.386647,0.413571 -2.680475,0.485154 -3.244963,0.506838 -3.981092,0.152925 -0.652694,-0.313802 -1.080238,-0.811813 -1.602231,-1.866324 -0.529146,-1.06895 -1.130686,-2.120022 -1.838945,-3.213187 -0.733764,-1.132531 -0.850275,-2.092588 -0.377526,-3.110836 0.111735,-0.240678 0.893476,-1.261403 1.775659,-2.318507 0.866815,-1.038692 1.573663,-1.92716 1.570768,-1.974374 -0.0075,-0.122693 -7.681904,-6.627803 -7.734783,-6.556311 -0.371079,0.501684 -3.112904,3.74612 -3.346413,3.959853 -0.521516,0.47735 -1.186953,0.690078 -2.003119,0.640357 -0.5814,-0.03542 -0.816442,-0.103365 -1.652208,-0.477652 -0.535908,-0.239999 -1.584427,-0.634058 -2.330039,-0.875689 -0.745614,-0.241631 -1.518367,-0.51312 -1.717232,-0.603309 -0.523005,-0.237193 -1.082513,-0.797509 -1.352447,-1.354403 l -0.234738,-0.484266 -0.02553,-2.768414 -0.02553,-2.768415 h -5.075025 -5.075024 l -0.02553,2.768415 -0.02553,2.768414 -0.234738,0.48428 c -0.269936,0.556894 -0.829445,1.117211 -1.352449,1.354403 -0.198867,0.09019 -0.97162,0.361679 -1.717234,0.60331 -0.745611,0.24163 -1.79413,0.63569 -2.330039,0.875688 -0.835766,0.374283 -1.070806,0.442233 -1.652207,0.477653 -0.816165,0.04973 -1.481604,-0.163007 -2.003117,-0.640357 -0.233465,-0.213695 -2.98646,-3.471402 -3.346037,-3.959474 -0.06285,-0.08531 -7.699073,6.43903 -7.699073,6.578033 0,0.05809 0.71514,0.970636 1.589188,2.027864 0.874045,1.057227 1.664101,2.09384 1.755676,2.303584 0.432917,0.991543 0.304148,1.944749 -0.412048,3.050167 -0.707457,1.091925 -1.309668,2.143964 -1.836702,3.208656 -0.516987,1.044384 -0.904133,1.496403 -1.580404,1.845237 -0.748586,0.386133 -1.267234,0.369752 -4.005259,-0.126511 -1.304223,-0.23639 -2.378126,-0.422876 -2.386439,-0.414407 -0.05355,0.05449 -1.745786,10.022527 -1.708009,10.060801 0.02588,0.02622 1.129061,0.239838 2.451499,0.4747 2.698177,0.479185 3.211447,0.657071 3.756138,1.301788 0.497407,0.588741 0.630877,0.974034 0.807401,2.330697 0.19908,1.529962 0.292905,2.070434 0.558439,3.216625 0.253147,1.092734 0.261832,1.743668 0.03161,2.367143 -0.316901,0.858136 -0.689017,1.168587 -3.044216,2.53972 -1.175917,0.684591 -2.154352,1.285886 -2.174298,1.336209 -0.03071,0.07757 4.788033,8.644389 4.953678,8.806648 0.03161,0.03105 1.010768,-0.504459 2.175793,-1.189954 1.165018,-0.685498 2.265989,-1.299966 2.446601,-1.36549 0.491075,-0.178153 1.402148,-0.151268 1.953265,0.05765 0.353643,0.134051 0.712926,0.403729 1.48666,1.115884 0.561173,0.51651 1.4108,1.248467 1.888058,1.626579 1.50364,1.191252 1.679172,1.367697 1.955191,1.965285 0.214888,0.465244 0.255858,0.658924 0.254726,1.204256 -0.0012,0.608951 -0.05577,0.800415 -0.86617,3.04245 -0.475654,1.315946 -0.842883,2.414846 -0.816064,2.442014 0.02682,0.02711 2.154145,0.826088 4.727394,1.775351 3.054208,1.126699 4.69852,1.693676 4.735918,1.632994 0.03151,-0.05119 0.423555,-1.115505 0.871218,-2.365278 z m 3.901029,-9.536995 c -4.139583,-0.399881 -8.016357,-1.967665 -11.396007,-4.608587 -0.926603,-0.724066 -2.944331,-2.768314 -3.659003,-3.707096 -2.65485,-3.487372 -4.161358,-7.360007 -4.558256,-11.717478 -0.352549,-3.870562 0.445728,-8.086675 2.202842,-11.634342 2.055652,-4.150424 5.384655,-7.574673 9.432316,-9.702187 3.893979,-2.046739 8.385647,-2.865466 12.680551,-2.311375 1.898846,0.244973 2.416787,0.48038 2.817228,1.280445 0.421681,0.842507 0.263999,1.709135 -0.425584,2.339026 -0.569716,0.520401 -1.023745,0.590931 -2.264551,0.35179 -1.098369,-0.211689 -4.580745,-0.209178 -5.719186,0.0042 -3.858913,0.72302 -7.085692,2.412852 -9.711524,5.085825 -2.648006,2.695548 -4.287532,5.914502 -5.002912,9.822445 -0.116596,0.63693 -0.149284,1.276031 -0.149284,2.91864 0,2.249729 0.06379,2.815384 0.517928,4.592563 1.583843,6.19807 6.575919,11.255762 12.693583,12.860424 1.754123,0.460104 2.312438,0.524733 4.532983,0.524733 1.621301,0 2.252107,-0.03312 2.880775,-0.151245 3.855784,-0.724511 7.068913,-2.404929 9.704812,-5.075472 2.635897,-2.670541 4.294516,-5.925902 5.009626,-9.832365 0.210985,-1.152562 0.213726,-4.680047 0.0045,-5.794357 -0.241695,-1.287236 -0.163496,-1.760501 0.388245,-2.349685 0.604078,-0.645072 1.465635,-0.787852 2.267663,-0.375807 0.789686,0.405701 1.022039,0.930453 1.263834,2.854256 0.610392,4.856485 -0.477922,9.964064 -3.027183,14.206903 -1.656346,2.756727 -4.460026,5.59726 -7.180992,7.275376 -3.981516,2.455549 -8.752505,3.582956 -13.302402,3.143441 z M 83.407837,45.729953 C 83.041489,45.569184 82.708134,45.255389 82.36772,44.750861 81.414308,43.337822 79.833545,41.675527 78.503248,40.687066 77.063452,39.61724 76.804367,39.271799 76.80086,38.417232 c -0.0046,-1.113644 0.804656,-1.936415 1.904534,-1.936415 0.623621,0 0.893123,0.132453 2.033489,0.999406 1.766757,1.343159 3.390247,3.02183 4.629193,4.786534 0.593862,0.845873 0.695725,1.090283 0.69542,1.668602 -4.8e-4,0.818011 -0.447966,1.500077 -1.191368,1.815696 -0.358989,0.152413 -1.093002,0.141834 -1.464291,-0.02109 z"
       id="path39" />
    <g
       aria-label="EQUALITY"
       transform="matrix(0.26458333,0,0,0.26458333,27.337787,6.5193333)"
       id="text11279"
       style="font-weight:500;font-size:64px;font-family:'Brandon Text';-inkscape-font-specification:'Brandon Text, Medium';white-space:pre;fill:#ffffff">
      <path
         style="color:#000000;-inkscape-font-specification:'Brandon Text, Medium';-inkscape-stroke:none"
         d="m 5.056,435.584 c 0,0.64 0.512,1.216 1.216,1.216 h 26.496 c 0.704,0 1.216,-0.576 1.216,-1.216 v -6.976 c 0,-0.64 -0.512,-1.216 -1.216,-1.216 H 15.04 v -8.64 h 14.592 c 0.64,0 1.216,-0.512 1.216,-1.216 v -6.976 c 0,-0.64 -0.576,-1.216 -1.216,-1.216 H 15.04 v -7.936 h 17.728 c 0.704,0 1.216,-0.576 1.216,-1.216 v -6.976 c 0,-0.64 -0.512,-1.216 -1.216,-1.216 H 6.272 c -0.704,0 -1.216,0.576 -1.216,1.216 z"
         id="path14799" />
      <path
         style="color:#000000;-inkscape-font-specification:'Brandon Text, Medium';-inkscape-stroke:none"
         d="m 38.783842,414.464 c 0,12.8 10.176,22.976 22.976,22.976 0.448,0 1.216,0 1.984,-0.064 l 6.784,11.456 c 0.192,0.32 0.512,0.64 1.024,0.64 h 8.64 c 1.024,0 1.536,-1.024 1.024,-1.92 l -8.256,-12.928 c 7.04,-4.288 11.84,-11.84 11.84,-20.16 0,-12.8 -10.24,-23.104 -23.04,-23.104 -12.8,0 -22.976,10.304 -22.976,23.104 z m 10.24,0 c 0,-7.04 5.76,-12.864 12.736,-12.864 7.04,0 12.8,5.824 12.8,12.864 0,6.976 -5.76,12.736 -12.8,12.736 -6.976,0 -12.736,-5.76 -12.736,-12.736 z"
         id="path14801" />
      <path
         style="color:#000000;-inkscape-font-specification:'Brandon Text, Medium';-inkscape-stroke:none"
         d="m 91.903776,420.416 c 0,9.728 8.128004,17.024 18.176004,17.024 10.112,0 18.304,-7.296 18.304,-17.024 v -27.2 c 0,-0.64 -0.576,-1.216 -1.216,-1.216 h -7.872 c -0.704,0 -1.216,0.576 -1.216,1.216 v 26.688 c 0,4.672 -3.392,7.296 -8,7.296 -4.544,0 -7.872,-2.624 -7.872,-7.296 v -26.688 c 0,-0.64 -0.512,-1.216 -1.216,-1.216 h -7.872004 c -0.64,0 -1.216,0.576 -1.216,1.216 z"
         id="path14803" />
      <path
         style="color:#000000;-inkscape-font-specification:'Brandon Text, Medium';-inkscape-stroke:none"
         d="m 132.67162,436.8 h 7.04 c 1.28,0 1.984,-0.768 2.304,-1.536 l 2.304,-5.12 h 17.408 l 2.304,5.056 c 0.576,1.216 1.088,1.6 2.24,1.6 h 7.104 c 0.96,0 1.472,-0.832 1.088,-1.664 l -20.032,-43.072 c -0.192,-0.384 -0.64,-0.704 -1.088,-0.704 h -0.64 c -0.448,0 -0.896,0.32 -1.088,0.704 l -20.032,43.072 c -0.384,0.832 0.128,1.664 1.088,1.664 z m 15.488,-15.36 4.8,-10.56 h 0.064 l 4.864,10.56 z"
         id="path14805" />
      <path
         style="color:#000000;-inkscape-font-specification:'Brandon Text, Medium';-inkscape-stroke:none"
         d="m 179.5195,435.584 c 0,0.64 0.512,1.216 1.216,1.216 h 24.064 c 0.704,0 1.216,-0.576 1.216,-1.216 v -6.976 c 0,-0.64 -0.512,-1.216 -1.216,-1.216 h -15.232 v -34.176 c 0,-0.64 -0.576,-1.216 -1.216,-1.216 h -7.616 c -0.704,0 -1.216,0.576 -1.216,1.216 z"
         id="path14807" />
      <path
         style="color:#000000;-inkscape-font-specification:'Brandon Text, Medium';-inkscape-stroke:none"
         d="m 212.15939,435.584 c 0,0.64 0.576,1.216 1.216,1.216 h 7.68 c 0.64,0 1.216,-0.576 1.216,-1.216 v -42.368 c 0,-0.64 -0.576,-1.216 -1.216,-1.216 h -7.68 c -0.64,0 -1.216,0.576 -1.216,1.216 z"
         id="path14809" />
      <path
         style="color:#000000;-inkscape-font-specification:'Brandon Text, Medium';-inkscape-stroke:none"
         d="m 239.35939,435.584 c 0,0.64 0.576,1.216 1.216,1.216 h 7.68 c 0.64,0 1.216,-0.576 1.216,-1.216 v -34.176 h 9.152 c 0.704,0 1.216,-0.576 1.216,-1.216 v -6.976 c 0,-0.64 -0.512,-1.216 -1.216,-1.216 h -28.416 c -0.704,0 -1.216,0.576 -1.216,1.216 v 6.976 c 0,0.64 0.512,1.216 1.216,1.216 h 9.152 z"
         id="path14811" />
      <path
         style="color:#000000;-inkscape-font-specification:'Brandon Text, Medium';-inkscape-stroke:none"
         d="m 275.7113,435.584 c 0,0.64 0.512,1.216 1.216,1.216 h 7.616 c 0.64,0 1.216,-0.576 1.216,-1.216 v -20.416 l 14.336,-21.312 c 0.512,-0.832 0,-1.856 -1.024,-1.856 h -8.32 c -0.576,0 -0.832,0.32 -1.024,0.576 l -8.896,13.12 -8.896,-13.12 c -0.192,-0.256 -0.512,-0.576 -1.024,-0.576 h -8.32 c -1.024,0 -1.536,1.024 -1.024,1.856 l 14.144,21.376 z"
         id="path14813" />
    </g>
  </g>
</svg>
