<?xml version="1.0" encoding="UTF-8" standalone="no"?>
<!-- Created with Inkscape (http://www.inkscape.org/) -->

<svg
   width="512"
   height="512"
   viewBox="0 0 135.46666 135.46667"
   version="1.1"
   id="svg5"
   inkscape:version="1.1 (c68e22c387, 2021-05-23)"
   sodipodi:docname="heritage.svg"
   xmlns:inkscape="http://www.inkscape.org/namespaces/inkscape"
   xmlns:sodipodi="http://sodipodi.sourceforge.net/DTD/sodipodi-0.dtd"
   xmlns="http://www.w3.org/2000/svg"
   xmlns:svg="http://www.w3.org/2000/svg">
  <sodipodi:namedview
     id="namedview7"
     pagecolor="#505050"
     bordercolor="#eeeeee"
     borderopacity="1"
     inkscape:pageshadow="0"
     inkscape:pageopacity="0"
     inkscape:pagecheckerboard="0"
     inkscape:document-units="px"
     showgrid="false"
     inkscape:zoom="0.46324355"
     inkscape:cx="93.903088"
     inkscape:cy="227.74197"
     inkscape:window-width="1366"
     inkscape:window-height="705"
     inkscape:window-x="-8"
     inkscape:window-y="-8"
     inkscape:window-maximized="1"
     inkscape:current-layer="layer1"
     units="px" />
  <defs
     id="defs2">
    <rect
       x="0"
       y="384.00006"
       width="511.99998"
       height="127.99992"
       id="rect12253" />
    <pattern
       id="EMFhbasepattern"
       patternUnits="userSpaceOnUse"
       width="6"
       height="6"
       x="0"
       y="0" />
  </defs>
  <g
     inkscape:label="Calque 1"
     inkscape:groupmode="layer"
     id="layer1">
    <path
       style="color:#000000;fill:#000000;fill-rule:evenodd;stroke-width:8.46667;-inkscape-stroke:none"
       d="M 16.933335,0 H 118.53333 c 9.38107,0 16.93333,7.5522663 16.93333,16.933332 V 118.53333 c 0,9.38106 -7.55226,16.93333 -16.93333,16.93333 H 16.933335 C 7.552269,135.46666 2.7270507e-6,127.91439 2.7270507e-6,118.53333 V 16.933332 C 2.7270507e-6,7.5522663 7.552269,0 16.933335,0 Z"
       id="rect846" />
    <path
       style="color:#000000;fill:#9bf122;fill-rule:evenodd;stroke-width:8.46667;-inkscape-stroke:none"
       d="M 16.933332,8.5685921 H 118.53333 c 4.69054,0 8.46667,3.7761329 8.46667,8.4666659 v 84.666662 c 0,4.69054 -3.77613,8.46667 -8.46667,8.46667 H 16.933332 c -4.690533,0 -8.4666658,-3.77613 -8.4666658,-8.46667 V 17.035258 c 0,-4.690533 3.7761328,-8.4666659 8.4666658,-8.4666659 z"
       id="rect846-1" />
    <path
       style="color:#000000;fill:#000000;fill-rule:evenodd;stroke-width:0.264583;-inkscape-stroke:none"
       d="M 8.4666689,101.60001 H 127 c 4.69053,0 8.46666,3.77614 8.46666,8.46667 v 8.46667 c 0,4.69053 -3.77613,8.46666 -8.46666,8.46666 H 8.4666689 c -4.690533,0 -8.4666661729493,-3.77613 -8.4666661729493,-8.46666 v -8.46667 c 0,-4.69053 3.7761331729493,-8.46667 8.4666661729493,-8.46667 z"
       id="rect1024" />
    <g
       aria-label="HERITAGE"
       transform="matrix(0.26458333,0,0,0.26458333,34.064304,6.8438898)"
       id="text12251"
       style="font-weight:500;font-size:53.3333px;font-family:'Brandon Text';-inkscape-font-specification:'Brandon Text, Medium';white-space:pre;fill:#ffffff">
      <path
         style="color:#000000;-inkscape-font-specification:'Brandon Text, Medium';-inkscape-stroke:none"
         d="m 4.2133308,426.98664 c 0,0.53333 0.4799997,1.01333 1.0133328,1.01333 h 6.3466624 c 0.586667,0 1.013333,-0.48 1.013333,-1.01333 v -14.02666 h 15.253324 v 14.02666 c 0,0.53333 0.426667,1.01333 1.013333,1.01333 h 6.346663 c 0.533333,0 1.013333,-0.48 1.013333,-1.01333 V 391.68 c 0,-0.53334 -0.48,-1.01334 -1.013333,-1.01334 h -6.346663 c -0.586666,0 -1.013333,0.48 -1.013333,1.01334 v 13.43999 H 12.586659 V 391.68 c 0,-0.53334 -0.426666,-1.01334 -1.013333,-1.01334 H 5.2266636 c -0.5333331,0 -1.0133328,0.48 -1.0133328,1.01334 z"
         id="path872" />
      <path
         style="color:#000000;-inkscape-font-specification:'Brandon Text, Medium';-inkscape-stroke:none"
         d="m 44.639944,426.98664 c 0,0.53333 0.426666,1.01333 1.013332,1.01333 h 22.079987 c 0.586667,0 1.013333,-0.48 1.013333,-1.01333 v -5.81333 c 0,-0.53333 -0.426666,-1.01333 -1.013333,-1.01333 H 52.959939 v -7.2 h 12.159992 c 0.533333,0 1.013333,-0.42666 1.013333,-1.01333 v -5.81333 c 0,-0.53333 -0.48,-1.01333 -1.013333,-1.01333 H 52.959939 v -6.61333 h 14.773324 c 0.586667,0 1.013333,-0.48 1.013333,-1.01333 V 391.68 c 0,-0.53334 -0.426666,-1.01334 -1.013333,-1.01334 H 45.653276 c -0.586666,0 -1.013332,0.48 -1.013332,1.01334 z"
         id="path874" />
      <path
         style="color:#000000;-inkscape-font-specification:'Brandon Text, Medium';-inkscape-stroke:none"
         d="m 75.466543,426.98664 c 0,0.53333 0.426666,1.01333 1.013333,1.01333 h 6.346662 c 0.533333,0 1.013333,-0.48 1.013333,-1.01333 v -13.59999 h 3.679998 l 7.093329,14.13332 c 0.106667,0.21334 0.426666,0.48 0.853333,0.48 h 7.093329 c 0.90667,0 1.28,-0.85333 0.90667,-1.54666 l -7.306666,-13.54666 c 4.959996,-1.86667 7.893326,-5.81333 7.893326,-10.71999 0,-6.34667 -4.853328,-11.52 -11.626657,-11.52 H 76.479876 c -0.586667,0 -1.013333,0.48 -1.013333,1.01334 z m 8.373328,-20.37332 v -8.32 H 91.7332 c 2.186665,0 4.053331,1.54667 4.053331,4.05334 0,2.50666 -1.866666,4.26666 -4.053331,4.26666 z"
         id="path876" />
      <path
         style="color:#000000;-inkscape-font-specification:'Brandon Text, Medium';-inkscape-stroke:none"
         d="m 110.77312,426.98664 c 0,0.53333 0.48,1.01333 1.01334,1.01333 h 6.39999 c 0.53333,0 1.01333,-0.48 1.01333,-1.01333 V 391.68 c 0,-0.53334 -0.48,-1.01334 -1.01333,-1.01334 h -6.39999 c -0.53334,0 -1.01334,0.48 -1.01334,1.01334 z"
         id="path878" />
      <path
         style="color:#000000;-inkscape-font-specification:'Brandon Text, Medium';-inkscape-stroke:none"
         d="m 133.43978,426.98664 c 0,0.53333 0.48,1.01333 1.01333,1.01333 h 6.4 c 0.53333,0 1.01333,-0.48 1.01333,-1.01333 v -28.47998 h 7.62666 c 0.58667,0 1.01333,-0.48 1.01333,-1.01333 V 391.68 c 0,-0.53334 -0.42666,-1.01334 -1.01333,-1.01334 h -23.67998 c -0.58667,0 -1.01334,0.48 -1.01334,1.01334 v 5.81333 c 0,0.53333 0.42667,1.01333 1.01334,1.01333 h 7.62666 z"
         id="path880" />
      <path
         style="color:#000000;-inkscape-font-specification:'Brandon Text, Medium';-inkscape-stroke:none"
         d="m 150.34627,427.99997 h 5.86667 c 1.06666,0 1.65333,-0.64 1.91999,-1.28 l 1.92,-4.26666 h 14.50666 l 1.92,4.21333 c 0.48,1.01333 0.90667,1.33333 1.86667,1.33333 h 5.91999 c 0.8,0 1.22667,-0.69333 0.90667,-1.38666 L 168.47959,390.72 c -0.16,-0.32 -0.53333,-0.58667 -0.90666,-0.58667 h -0.53333 c -0.37334,0 -0.74667,0.26667 -0.90667,0.58667 l -16.69332,35.89331 c -0.32,0.69333 0.10666,1.38666 0.90666,1.38666 z m 12.90666,-12.79999 4,-8.79999 h 0.0533 l 4.05333,8.79999 z"
         id="path882" />
      <path
         style="color:#000000;-inkscape-font-specification:'Brandon Text, Medium';-inkscape-stroke:none"
         d="m 186.23944,409.38665 c 0,10.66666 8.53333,19.09332 19.14665,19.09332 7.73333,0 13.22666,-3.46666 13.22666,-3.46666 0.21334,-0.16 0.42667,-0.37333 0.42667,-0.85333 l -0.0533,-14.34666 c 0,-0.53334 -0.42666,-1.01333 -0.95999,-1.01333 h -10.72 c -0.58666,0 -1.01333,0.42666 -1.01333,1.01333 v 5.27999 c 0,0.53334 0.42667,0.96 1.01333,0.96 h 3.36 v 3.09334 c -1.6,0.64 -3.2,0.85333 -4.74666,0.85333 -5.81333,0 -10.56,-4.8 -10.56,-10.61333 0,-5.86666 4.69333,-10.77333 10.50666,-10.77333 2.61333,0 4.96,0.69334 6.98667,2.56 0.42666,0.32 1.01333,0.32 1.43999,-0.0533 l 4.21334,-4.48 c 0.42666,-0.42666 0.37333,-1.06666 -0.10667,-1.44 -3.62667,-3.14666 -8.53333,-5.01333 -13.01333,-5.01333 -10.61332,0 -19.14665,8.53333 -19.14665,19.19999 z"
         id="path884" />
      <path
         style="color:#000000;-inkscape-font-specification:'Brandon Text, Medium';-inkscape-stroke:none"
         d="m 226.18606,426.98664 c 0,0.53333 0.42667,1.01333 1.01334,1.01333 h 22.07998 c 0.58667,0 1.01334,-0.48 1.01334,-1.01333 v -5.81333 c 0,-0.53333 -0.42667,-1.01333 -1.01334,-1.01333 h -14.77332 v -7.2 h 12.15999 c 0.53333,0 1.01333,-0.42666 1.01333,-1.01333 v -5.81333 c 0,-0.53333 -0.48,-1.01333 -1.01333,-1.01333 h -12.15999 v -6.61333 h 14.77332 c 0.58667,0 1.01334,-0.48 1.01334,-1.01333 V 391.68 c 0,-0.53334 -0.42667,-1.01334 -1.01334,-1.01334 H 227.1994 c -0.58667,0 -1.01334,0.48 -1.01334,1.01334 z"
         id="path886" />
    </g>
    <path
       style="color:#000000;fill:#000000;stroke-width:0.148856;-inkscape-stroke:none"
       d="m 43.812273,92.77419 -0.41766,-0.359071 -0.0434,-4.46945 -0.0434,-4.469451 0.44032,-0.493093 0.44032,-0.493097 3.44552,-0.04506 3.44551,-0.04506 -1.54221,-0.77365 c -8.91475,-4.472083 -13.83394,-12.379531 -13.82435,-22.222182 0.006,-5.797314 1.00465,-9.986953 3.84796,-16.137704 0.70017,-1.514616 1.70651,-3.691639 2.23634,-4.837834 0.83378,-1.803777 2.32508,-5.871306 2.19897,-5.997699 -0.0238,-0.02388 -0.3029,0.05643 -0.62014,0.178492 -1.08713,0.418305 -1.87986,0.556073 -3.19973,0.556073 -4.27098,0 -7.19441,-2.779435 -7.50895,-7.139097 -0.17868,-2.476655 0.56269,-4.580595 2.26009,-6.413947 0.82034,-0.886034 1.22152,-1.180914 2.34665,-1.724869 1.76278,-0.852227 2.83313,-1.031549 5.51313,-0.923647 2.43783,0.09816 3.34927,0.311867 5.26072,1.233531 3.81954,1.841716 5.98216,5.721091 5.98802,10.74157 l 0.002,1.674635 h 1.47994 1.47994 l 0.0458,-4.152625 c 0.0423,-3.834064 0.0675,-4.176573 0.32865,-4.464853 0.45872,-0.506443 1.24705,-0.653199 1.8694,-0.348007 0.86605,0.424702 0.89473,0.584019 0.89716,4.983575 l 0.002,3.98191 h 1.48344 1.48345 l 0.0423,-5.653306 0.0423,-5.653309 0.41274,-0.412592 c 0.58539,-0.585175 1.56628,-0.585175 2.15166,0 l 0.41274,0.412592 0.0423,5.653309 0.0423,5.653306 h 1.47832 1.47833 l 0.0423,-5.653306 0.0423,-5.653309 0.41273,-0.412592 c 0.58539,-0.585175 1.56628,-0.585175 2.15166,0 l 0.41274,0.412592 0.0423,5.653309 0.0423,5.653306 h 1.47681 1.47682 l 0.0438,-4.164077 c 0.0417,-3.959296 0.0588,-4.178965 0.34696,-4.466958 0.63759,-0.637093 1.80652,-0.631971 2.38842,0.01046 0.2647,0.292234 0.28896,0.619295 0.33145,4.467937 l 0.0458,4.152625 h 1.46119 1.46119 l 0.0764,-2.121206 c 0.0865,-2.402942 0.40412,-3.861554 1.20734,-5.544897 1.33786,-2.803854 3.47271,-4.594653 6.57277,-5.513502 1.06552,-0.315817 1.75967,-0.411943 3.43171,-0.47521 2.68134,-0.10146 3.75709,0.07976 5.51312,0.928727 1.12514,0.543955 1.52632,0.838834 2.346647,1.724868 1.68698,1.822087 2.44012,3.943694 2.2623,6.372963 -0.1645,2.247325 -0.81924,3.822614 -2.15122,5.175769 -0.800217,0.812931 -2.204937,1.620418 -3.348717,1.924972 -1.52555,0.406208 -4.22213,0.173513 -5.47053,-0.472066 l -0.40302,-0.208408 0.37156,1.225197 c 0.47582,1.568947 1.21081,3.420642 2.15719,5.434698 2.23826,4.763367 3.27743,7.114032 3.76548,8.517721 1.49421,4.297553 2.0272,7.398865 2.03151,11.82087 0.01,9.849956 -4.90858,17.749614 -13.84001,22.230031 l -1.55786,0.781494 3.26262,0.0021 c 1.79446,0.0013 3.39789,0.0384 3.56321,0.0828 0.16532,0.04443 0.4529,0.303078 0.63907,0.574783 0.33606,0.490439 0.33819,0.525938 0.29485,4.91696 l -0.0436,4.422955 -0.41766,0.359067 -0.41766,0.359067 h -23.50282 -23.50274 z m 45.20691,-4.999759 v -2.232849 h -21.28651 -21.2865 v 2.232849 2.232847 h 21.2865 21.28651 z m -16.37424,-5.672239 c 6.01163,-0.628194 11.6396,-2.686512 15.66381,-5.728724 1.30443,-0.986113 3.62439,-3.361834 4.48281,-4.590538 0.84121,-1.204074 1.87698,-3.088754 2.33729,-4.25297 1.80621,-4.568192 1.93375,-10.715205 0.34129,-16.44863 -0.59989,-2.159794 -1.3068,-3.914815 -3.32765,-8.261531 -1.04673,-2.251451 -2.06915,-4.495463 -2.27204,-4.986687 -1.45726,-3.528152 -2.33985,-7.642847 -2.33985,-10.908501 0,-1.652336 0.25563,-2.188051 1.12162,-2.350507 1.12402,-0.210868 1.75503,0.272473 1.99949,1.531568 0.28905,1.488746 0.5769,2.077568 1.35975,2.781414 0.91419,0.821935 1.94379,1.189006 3.33413,1.188677 1.85561,-4.22e-4 3.30202,-0.984864 3.94172,-2.682723 0.27342,-0.725704 0.3192,-1.099075 0.27128,-2.212718 -0.0488,-1.134435 -0.12415,-1.461517 -0.49169,-2.134688 -1.19944,-2.196867 -3.2283,-3.14178 -6.32631,-2.946407 -4.89268,0.308551 -7.54127,2.853607 -8.05686,7.7419 -0.21019,1.992742 -0.0341,3.118885 1.36412,8.726707 2.40331,9.638526 3.01631,13.226824 3.2168,18.830329 0.25303,7.072146 -1.04586,11.449951 -4.37115,14.732711 -3.54299,3.497671 -9.08496,5.165992 -17.16083,5.165992 -6.79224,0 -11.63091,-1.135827 -15.20265,-3.568664 -5.0929,-3.468964 -6.94179,-8.954896 -6.23102,-18.488453 0.33837,-4.53863 1.11138,-8.745252 2.96267,-16.122644 1.56545,-6.238336 1.73305,-7.255644 1.52314,-9.245753 -0.50953,-4.830844 -3.2701,-7.495833 -8.05678,-7.777808 -3.1109,-0.18326 -5.1169,0.751396 -6.3359,2.95209 -0.40946,0.739215 -0.44035,0.904613 -0.44035,2.35797 0,1.700473 0.23176,2.405978 1.09255,3.325933 1.39996,1.496181 4.01701,1.674524 6.00798,0.409423 0.93128,-0.591763 1.40011,-1.344438 1.67765,-2.693361 0.18256,-0.88731 0.32161,-1.200431 0.67759,-1.525775 0.7221,-0.659972 1.8726,-0.499105 2.29678,0.321137 0.47325,0.915168 0.17531,4.910855 -0.59274,7.949063 -0.73212,2.896139 -1.13915,3.930676 -3.78874,9.629775 -2.02086,4.346716 -2.72776,6.101737 -3.32764,8.261531 -1.59247,5.733425 -1.46493,11.880438 0.34128,16.44863 1.56438,3.956542 4.87372,7.796443 8.75524,10.158873 4.51746,2.749485 9.81611,4.23994 16.48252,4.636346 1.30875,0.07782 5.43836,-0.05241 7.07069,-0.222987 z m -3.4237,-29.160158 V 33.739562 h -1.48857 -1.48856 v 19.202472 19.202474 h 1.48856 1.48857 z m -6.10313,-0.148857 V 33.739562 h -1.48856 -1.48857 V 52.56706 71.394554 l 0.33493,0.08132 c 0.75629,0.183635 1.70365,0.339278 2.15842,0.354607 l 0.48378,0.01633 z m 10.80199,18.896463 c 0.48579,-0.08643 1.00049,-0.191428 1.14376,-0.233316 0.24632,-0.07202 0.2605,-1.100615 0.2605,-18.896463 V 33.739562 h -1.48857 -1.48856 v 19.053615 19.05362 h 0.3448 c 0.18964,0 0.74227,-0.07072 1.22807,-0.157157 z M 57.014993,52.132079 v -18.37501 l -1.79308,-0.04597 -1.79308,-0.04597 -0.0835,0.372139 c -0.0459,0.204677 -0.40928,1.644865 -0.80742,3.200415 -2.36675,9.246999 -3.1146,13.981504 -3.1146,19.718094 0,3.309791 0.22572,5.038465 0.89982,6.891549 0.99847,2.744721 2.62336,4.521354 5.57545,6.096091 0.5731,0.305711 1.05874,0.557597 1.07921,0.559753 0.0205,0.0021 0.0372,-8.264839 0.0372,-18.371095 z m 24.15897,16.855786 c 1.85756,-1.260042 3.17966,-2.972707 3.96826,-5.140535 0.67411,-1.853084 0.89982,-3.581758 0.89982,-6.891549 0,-5.836935 -0.60783,-9.651105 -3.1423,-19.718094 l -0.89944,-3.572554 -1.77497,0.04597 -1.77498,0.04597 v 18.377149 18.377154 l 0.93036,-0.469083 c 0.51169,-0.257996 1.31866,-0.732484 1.79325,-1.054424 z"
       id="path435" />
  </g>
</svg>
