<?xml version="1.0" encoding="UTF-8" standalone="no"?>
<!-- Created with Inkscape (http://www.inkscape.org/) -->

<svg
   width="512"
   height="512"
   viewBox="0 0 135.46666 135.46667"
   version="1.1"
   id="svg5"
   inkscape:version="1.1 (c68e22c387, 2021-05-23)"
   sodipodi:docname="heritage.svg"
   xmlns:inkscape="http://www.inkscape.org/namespaces/inkscape"
   xmlns:sodipodi="http://sodipodi.sourceforge.net/DTD/sodipodi-0.dtd"
   xmlns="http://www.w3.org/2000/svg"
   xmlns:svg="http://www.w3.org/2000/svg">
  <sodipodi:namedview
     id="namedview7"
     pagecolor="#505050"
     bordercolor="#eeeeee"
     borderopacity="1"
     inkscape:pageshadow="0"
     inkscape:pageopacity="0"
     inkscape:pagecheckerboard="0"
     inkscape:document-units="px"
     showgrid="false"
     inkscape:zoom="0.46324355"
     inkscape:cx="93.903088"
     inkscape:cy="227.74197"
     inkscape:window-width="1366"
     inkscape:window-height="705"
     inkscape:window-x="-8"
     inkscape:window-y="-8"
     inkscape:window-maximized="1"
     inkscape:current-layer="layer1"
     units="px" />
  <defs
     id="defs2">
    <rect
       x="0"
       y="384.00006"
       width="511.99998"
       height="127.99992"
       id="rect12253" />
    <pattern
       id="EMFhbasepattern"
       patternUnits="userSpaceOnUse"
       width="6"
       height="6"
       x="0"
       y="0" />
  </defs>
  <g
     inkscape:label="Calque 1"
     inkscape:groupmode="layer"
     id="layer1">
    <path
       style="color:#000000;fill:#000000;fill-rule:evenodd;stroke-width:8.46667;-inkscape-stroke:none"
       d="M 16.933335,0 H 118.53333 c 9.38107,0 16.93333,7.5522663 16.93333,16.933332 V 118.53333 c 0,9.38106 -7.55226,16.93333 -16.93333,16.93333 H 16.933335 C 7.552269,135.46666 2.7270507e-6,127.91439 2.7270507e-6,118.53333 V 16.933332 C 2.7270507e-6,7.5522663 7.552269,0 16.933335,0 Z"
       id="rect846" />
    <path
       style="color:#000000;fill:#9bf122;fill-rule:evenodd;stroke-width:8.46667;-inkscape-stroke:none"
       d="M 16.933332,8.5685921 H 118.53333 c 4.69054,0 8.46667,3.7761329 8.46667,8.4666659 v 84.666662 c 0,4.69054 -3.77613,8.46667 -8.46667,8.46667 H 16.933332 c -4.690533,0 -8.4666658,-3.77613 -8.4666658,-8.46667 V 17.035258 c 0,-4.690533 3.7761328,-8.4666659 8.4666658,-8.4666659 z"
       id="rect846-1" />
    <path
       style="color:#000000;fill:#000000;fill-rule:evenodd;stroke-width:0.264583;-inkscape-stroke:none"
       d="M 8.4666689,101.60001 H 127 c 4.69053,0 8.46666,3.77614 8.46666,8.46667 v 8.46667 c 0,4.69053 -3.77613,8.46666 -8.46666,8.46666 H 8.4666689 c -4.690533,0 -8.4666661729493,-3.77613 -8.4666661729493,-8.46666 v -8.46667 c 0,-4.69053 3.7761331729493,-8.46667 8.4666661729493,-8.46667 z"
       id="rect1024" />
    <g
       aria-label="HERITAGE"
       transform="matrix(0.26458333,0,0,0.26458333,34.064304,6.8438898)"
       id="text12251"
       style="font-weight:500;font-size:53.3333px;font-family:'Brandon Text';-inkscape-font-specification:'Brandon Text, Medium';white-space:pre;fill:#ffffff">
      <path
         style="color:#000000;-inkscape-font-specification:'Brandon Text, Medium';-inkscape-stroke:none"
         d="m 4.2133308,426.98664 c 0,0.53333 0.4799997,1.01333 1.0133328,1.01333 h 6.3466624 c 0.586667,0 1.013333,-0.48 1.013333,-1.01333 v -14.02666 h 15.253324 v 14.02666 c 0,0.53333 0.426667,1.01333 1.013333,1.01333 h 6.346663 c 0.533333,0 1.013333,-0.48 1.013333,-1.01333 V 391.68 c 0,-0.53334 -0.48,-1.01334 -1.013333,-1.01334 h -6.346663 c -0.586666,0 -1.013333,0.48 -1.013333,1.01334 v 13.43999 H 12.586659 V 391.68 c 0,-0.53334 -0.426666,-1.01334 -1.013333,-1.01334 H 5.2266636 c -0.5333331,0 -1.0133328,0.48 -1.0133328,1.01334 z"
         id="path872" />
      <path
         style="color:#000000;-inkscape-font-specification:'Brandon Text, Medium';-inkscape-stroke:none"
         d="m 44.639944,426.98664 c 0,0.53333 0.426666,1.01333 1.013332,1.01333 h 22.079987 c 0.586667,0 1.013333,-0.48 1.013333,-1.01333 v -5.81333 c 0,-0.53333 -0.426666,-1.01333 -1.013333,-1.01333 H 52.959939 v -7.2 h 12.159992 c 0.533333,0 1.013333,-0.42666 1.013333,-1.01333 v -5.81333 c 0,-0.53333 -0.48,-1.01333 -1.013333,-1.01333 H 52.959939 v -6.61333 h 14.773324 c 0.586667,0 1.013333,-0.48 1.013333,-1.01333 V 391.68 c 0,-0.53334 -0.426666,-1.01334 -1.013333,-1.01334 H 45.653276 c -0.586666,0 -1.013332,0.48 -1.013332,1.01334 z"
         id="path874" />
      <path
         style="color:#000000;-inkscape-font-specification:'Brandon Text, Medium';-inkscape-stroke:none"
         d="m 75.466543,426.98664 c 0,0.53333 0.426666,1.01333 1.013333,1.01333 h 6.346662 c 0.533333,0 1.013333,-0.48 1.013333,-1.01333 v -13.59999 h 3.679998 l 7.093329,14.13332 c 0.106667,0.21334 0.426666,0.48 0.853333,0.48 h 7.093329 c 0.90667,0 1.28,-0.85333 0.90667,-1.54666 l -7.306666,-13.54666 c 4.959996,-1.86667 7.893326,-5.81333 7.893326,-10.71999 0,-6.34667 -4.853328,-11.52 -11.626657,-11.52 H 76.479876 c -0.586667,0 -1.013333,0.48 -1.013333,1.01334 z m 8.373328,-20.37332 v -8.32 H 91.7332 c 2.186665,0 4.053331,1.54667 4.053331,4.05334 0,2.50666 -1.866666,4.26666 -4.053331,4.26666 z"
         id="path876" />
      <path
         style="color:#000000;-inkscape-font-specification:'Brandon Text, Medium';-inkscape-stroke:none"
         d="m 110.77312,426.98664 c 0,0.53333 0.48,1.01333 1.01334,1.01333 h 6.39999 c 0.53333,0 1.01333,-0.48 1.01333,-1.01333 V 391.68 c 0,-0.53334 -0.48,-1.01334 -1.01333,-1.01334 h -6.39999 c -0.53334,0 -1.01334,0.48 -1.01334,1.01334 z"
         id="path878" />
      <path
         style="color:#000000;-inkscape-font-specification:'Brandon Text, Medium';-inkscape-stroke:none"
         d="m 133.43978,426.98664 c 0,0.53333 0.48,1.01333 1.01333,1.01333 h 6.4 c 0.53333,0 1.01333,-0.48 1.01333,-1.01333 v -28.47998 h 7.62666 c 0.58667,0 1.01333,-0.48 1.01333,-1.01333 V 391.68 c 0,-0.53334 -0.42666,-1.01334 -1.01333,-1.01334 h -23.67998 c -0.58667,0 -1.01334,0.48 -1.01334,1.01334 v 5.81333 c 0,0.53333 0.42667,1.01333 1.01334,1.01333 h 7.62666 z"
         id="path880" />
      <path
         style="color:#000000;-inkscape-font-specification:'Brandon Text, Medium';-inkscape-stroke:none"
         d="m 150.34627,427.99997 h 5.86667 c 1.06666,0 1.65333,-0.64 1.91999,-1.28 l 1.92,-4.26666 h 14.50666 l 1.92,4.21333 c 0.48,1.01333 0.90667,1.33333 1.86667,1.33333 h 5.91999 c 0.8,0 1.22667,-0.69333 0.90667,-1.38666 L 168.47959,390.72 c -0.16,-0.32 -0.53333,-0.58667 -0.90666,-0.58667 h -0.53333 c -0.37334,0 -0.74667,0.26667 -0.90667,0.58667 l -16.69332,35.89331 c -0.32,0.69333 0.10666,1.38666 0.90666,1.38666 z m 12.90666,-12.79999 4,-8.79999 h 0.0533 l 4.05333,8.79999 z"
         id="path882" />
      <path
         style="color:#000000;-inkscape-font-specification:'Brandon Text, Medium';-inkscape-stroke:none"
         d="m 186.23944,409.38665 c 0,10.66666 8.53333,19.09332 19.14665,19.09332 7.73333,0 13.22666,-3.46666 13.22666,-3.46666 0.21334,-0.16 0.42667,-0.37333 0.42667,-0.85333 l -0.0533,-14.34666 c 0,-0.53334 -0.42666,-1.01333 -0.95999,-1.01333 h -10.72 c -0.58666,0 -1.01333,0.42666 -1.01333,1.01333 v 5.27999 c 0,0.53334 0.42667,0.96 1.01333,0.96 h 3.36 v 3.09334 c -1.6,0.64 -3.2,0.85333 -4.74666,0.85333 -5.81333,0 -10.56,-4.8 -10.56,-10.61333 0,-5.86666 4.69333,-10.77333 10.50666,-10.77333 2.61333,0 4.96,0.69334 6.98667,2.56 0.42666,0.32 1.01333,0.32 1.43999,-0.0533 l 4.21334,-4.48 c 0.42666,-0.42666 0.37333,-1.06666 -0.10667,-1.44 -3.62667,-3.14666 -8.53333,-5.01333 -13.01333,-5.01333 -10.61332,0 -19.14665,8.53333 -19.14665,19.19999 z"
         id="path884" />
      <path
         style="color:#000000;-inkscape-font-specification:'Brandon Text, Medium';-inkscape-stroke:none"
         d="m 226.18606,426.98664 c 0,0.53333 0.42667,1.01333 1.01334,1.01333 h 22.07998 c 0.58667,0 1.01334,-0.48 1.01334,-1.01333 v -5.81333 c 0,-0.53333 -0.42667,-1.01333 -1.01334,-1.01333 h -14.77332 v -7.2 h 12.15999 c 0.53333,0 1.01333,-0.42666 1.01333,-1.01333 v -5.81333 c 0,-0.53333 -0.48,-1.01333 -1.01333,-1.01333 h -12.15999 v -6.61333 h 14.77332 c 0.58667,0 1.01334,-0.48 1.01334,-1.01333 V 391.68 c 0,-0.53334 -0.42667,-1.01334 -1.01334,-1.01334 H 227.1994 c -0.58667,0 -1.01334,0.48 -1.01334,1.01334 z"
         id="path886" />
    </g>
    <path
       style="color:#000000;fill:#000000;stroke:#000000;stroke-width:0.525524;stroke-miterlimit:4;stroke-dasharray:none;stroke-opacity:1"
       d="m 43.976887,92.513911 -0.414785,-0.3566 -0.0431,-4.438685 -0.0431,-4.438687 0.43729,-0.489699 0.437289,-0.489703 3.421803,-0.04475 3.421794,-0.04475 -1.531595,-0.768325 C 40.809096,77.001412 35.923766,69.148393 35.93329,59.373491 c 0.006,-5.757409 0.997735,-9.91821 3.821473,-16.026624 0.695351,-1.50419 1.694764,-3.666228 2.220947,-4.804533 0.828041,-1.791362 2.309076,-5.830893 2.183834,-5.956416 -0.02364,-0.02371 -0.300815,0.05604 -0.615871,0.177264 -1.079647,0.415425 -1.866921,0.552245 -3.177706,0.552245 -4.241581,0 -7.144889,-2.760303 -7.457264,-7.089957 -0.17745,-2.459607 0.558817,-4.549065 2.244534,-6.369798 0.814693,-0.879935 1.213112,-1.172785 2.330497,-1.712996 1.750646,-0.846361 2.813629,-1.024449 5.475182,-0.917289 2.421049,0.09748 3.326216,0.30972 5.224509,1.22504 3.793249,1.829039 5.940983,5.681711 5.946802,10.667633 l 0.002,1.663108 h 1.469753 1.469753 l 0.04548,-4.124041 c 0.04201,-3.807674 0.06703,-4.147825 0.326388,-4.434121 0.455562,-0.502957 1.238466,-0.648702 1.856532,-0.345611 0.860089,0.421778 0.888571,0.579999 0.890985,4.949272 l 0.002,3.954501 h 1.473229 1.473239 l 0.04201,-5.614393 0.04201,-5.614396 0.409899,-0.409752 c 0.58136,-0.581147 1.555499,-0.581147 2.136849,0 l 0.409899,0.409752 0.04201,5.614396 0.04201,5.614393 h 1.468144 1.468154 l 0.04201,-5.614393 0.04201,-5.614396 0.409889,-0.409752 c 0.581361,-0.581147 1.555499,-0.581147 2.13685,0 l 0.409899,0.409752 0.04201,5.614396 0.04201,5.614393 h 1.466645 1.466655 l 0.0435,-4.135415 c 0.04141,-3.932043 0.0584,-4.1502 0.344572,-4.43621 0.633201,-0.632708 1.794085,-0.627621 2.37198,0.01039 0.262878,0.290222 0.286971,0.615032 0.329168,4.437183 l 0.04548,4.124041 h 1.451132 1.451133 l 0.07587,-2.106605 c 0.0859,-2.386402 0.401338,-3.834974 1.199029,-5.50673 1.328652,-2.784554 3.448807,-4.563027 6.527528,-5.475551 1.058186,-0.313643 1.747558,-0.409108 3.408089,-0.471939 2.662883,-0.100762 3.731229,0.07921 5.475172,0.922334 1.117395,0.540211 1.515814,0.83306 2.330488,1.712995 1.67537,1.809545 2.42333,3.916549 2.24673,6.329097 -0.16337,2.231856 -0.8136,3.796302 -2.13641,5.140142 -0.794708,0.807336 -2.189758,1.609265 -3.325665,1.911722 -1.51505,0.403412 -4.193068,0.172319 -5.432875,-0.468816 l -0.400246,-0.206974 0.369002,1.216764 c 0.472545,1.558147 1.202476,3.397097 2.142342,5.397289 2.222853,4.73058 3.25487,7.065065 3.739561,8.459092 1.483925,4.267971 2.013246,7.347936 2.017526,11.739503 0.0099,9.782156 -4.874793,17.627439 -13.744745,22.077016 l -1.547137,0.776115 3.240163,0.0021 c 1.782108,0.0013 3.374501,0.03814 3.538683,0.08223 0.164182,0.04412 0.449783,0.300992 0.634671,0.570827 0.333747,0.487063 0.335862,0.522318 0.292821,4.883115 l -0.0433,4.392511 -0.414785,0.356595 -0.414786,0.356596 H 67.73217 44.391205 Z M 88.872626,87.548566 V 85.331087 H 67.732636 46.592657 v 2.217479 2.217478 h 21.139979 21.13999 z M 72.611094,81.915371 c 5.97025,-0.62387 11.559482,-2.66802 15.555992,-5.689292 1.295451,-0.979325 3.599442,-3.338693 4.451953,-4.55894 0.83542,-1.195786 1.864061,-3.067493 2.321202,-4.223695 1.793778,-4.536748 1.92044,-10.64145 0.338941,-16.33541 -0.595761,-2.144928 -1.297805,-3.887868 -3.304745,-8.204665 -1.039525,-2.235953 -2.054907,-4.464519 -2.256401,-4.952362 -1.447229,-3.503867 -2.323744,-7.590239 -2.323744,-10.833415 0,-1.640962 0.25387,-2.17299 1.1139,-2.334328 1.116283,-0.209416 1.742949,0.270598 1.985727,1.521026 0.28706,1.478499 0.572929,2.063268 1.35039,2.762269 0.907897,0.816277 1.93041,1.180822 3.31118,1.180495 1.842838,-4.19e-4 3.279292,-0.978085 3.914588,-2.664257 0.271538,-0.720709 0.317003,-1.09151 0.269413,-2.197487 -0.04846,-1.126627 -0.123295,-1.451457 -0.488305,-2.119995 -1.191184,-2.181745 -3.206079,-3.120154 -6.282765,-2.926126 -4.859002,0.306427 -7.489361,2.833965 -8.001402,7.688611 -0.208743,1.979025 -0.03387,3.097416 1.35473,8.666638 2.386768,9.572182 2.995548,13.13578 3.194658,18.700715 0.251288,7.023467 -1.038661,11.371138 -4.341062,14.631302 -3.518603,3.473595 -9.022426,5.130433 -17.042708,5.130433 -6.745487,0 -11.550851,-1.128009 -15.098006,-3.5441 -5.057844,-3.445086 -6.894007,-8.893257 -6.18813,-18.361192 0.336041,-4.507389 1.10373,-8.685056 2.942277,-16.011668 1.554675,-6.195395 1.721121,-7.205701 1.512656,-9.182112 -0.506023,-4.797592 -3.247591,-7.444237 -8.001323,-7.724271 -3.089487,-0.181998 -5.081679,0.746224 -6.292288,2.93177 -0.406642,0.734127 -0.437319,0.898386 -0.437319,2.34174 0,1.688768 0.230165,2.389417 1.08503,3.303039 1.390323,1.485883 3.989359,1.662998 5.966625,0.406605 0.92487,-0.58769 1.390473,-1.335184 1.666102,-2.674822 0.181304,-0.881202 0.319397,-1.192168 0.672926,-1.515272 0.71713,-0.65543 1.859711,-0.49567 2.280971,0.318926 0.469992,0.908869 0.174103,4.877052 -0.58866,7.894348 -0.727081,2.876204 -1.131309,3.90362 -3.762661,9.56349 -2.00695,4.316797 -2.708984,6.059737 -3.304735,8.204665 -1.581509,5.69396 -1.454847,11.798662 0.338931,16.33541 1.553612,3.929308 4.840173,7.742778 8.694975,10.088946 4.486365,2.73056 9.748543,4.210756 16.369066,4.604433 1.299742,0.07728 5.400927,-0.05205 7.022021,-0.221452 z M 69.21096,52.95593 V 33.885634 H 67.732636 66.254323 V 52.95593 72.026228 h 1.478313 1.478324 z M 63.14984,52.808098 V 33.885634 h -1.478314 -1.478324 v 18.697903 18.6979 l 0.332625,0.08076 c 0.751084,0.182371 1.691923,0.336942 2.143563,0.352166 l 0.48045,0.01622 z m 10.727637,18.766393 c 0.482446,-0.08584 0.993603,-0.19011 1.135887,-0.23171 0.244624,-0.07152 0.258707,-1.093039 0.258707,-18.766393 V 33.885634 h -1.478324 -1.478314 v 18.922464 18.922469 h 0.342427 c 0.188335,0 0.737161,-0.07023 1.219617,-0.156076 z M 57.088729,52.15155 V 33.90302 l -1.780738,-0.04565 -1.780737,-0.04565 -0.08293,0.369578 c -0.04558,0.203268 -0.406462,1.633543 -0.801862,3.178385 -2.350459,9.18335 -3.093161,13.885266 -3.093161,19.58237 0,3.287008 0.224166,5.003783 0.893626,6.844112 0.991597,2.725829 2.605303,4.490232 5.537073,6.05413 0.569155,0.303607 1.051452,0.553759 1.071781,0.5559 0.02036,0.0021 0.03694,-8.20795 0.03694,-18.244642 z m 23.992677,16.739763 c 1.844774,-1.251368 3.157774,-2.952245 3.940946,-5.105151 0.66947,-1.840329 0.893626,-3.557104 0.893626,-6.844112 0,-5.796758 -0.603646,-9.584674 -3.120671,-19.58237 l -0.893248,-3.547963 -1.762753,0.04565 -1.762762,0.04565 V 52.153679 70.404338 L 79.3005,69.938484 c 0.508168,-0.256221 1.309583,-0.727443 1.780906,-1.047167 z"
       id="path435" />
  </g>
</svg>
