<?xml version="1.0" encoding="UTF-8" standalone="no"?>
<!-- Created with Inkscape (http://www.inkscape.org/) -->

<svg
   width="512"
   height="512"
   viewBox="0 0 135.46666 135.46667"
   version="1.1"
   id="svg5"
   inkscape:version="1.1 (c68e22c387, 2021-05-23)"
   sodipodi:docname="inclusivity.svg"
   xmlns:inkscape="http://www.inkscape.org/namespaces/inkscape"
   xmlns:sodipodi="http://sodipodi.sourceforge.net/DTD/sodipodi-0.dtd"
   xmlns="http://www.w3.org/2000/svg"
   xmlns:svg="http://www.w3.org/2000/svg">
  <sodipodi:namedview
     id="namedview7"
     pagecolor="#505050"
     bordercolor="#eeeeee"
     borderopacity="1"
     inkscape:pageshadow="0"
     inkscape:pageopacity="0"
     inkscape:pagecheckerboard="0"
     inkscape:document-units="px"
     showgrid="false"
     inkscape:zoom="0.46324355"
     inkscape:cx="93.903088"
     inkscape:cy="227.74197"
     inkscape:window-width="1366"
     inkscape:window-height="705"
     inkscape:window-x="-8"
     inkscape:window-y="-8"
     inkscape:window-maximized="1"
     inkscape:current-layer="layer1"
     units="px" />
  <defs
     id="defs2">
    <rect
       x="0"
       y="384.00006"
       width="511.99998"
       height="127.99992"
       id="rect12253" />
  </defs>
  <g
     inkscape:label="Calque 1"
     inkscape:groupmode="layer"
     id="layer1">
    <path
       style="color:#000000;fill:#000000;fill-rule:evenodd;stroke-width:8.46667;-inkscape-stroke:none"
       d="M 16.933335,0 H 118.53333 c 9.38107,0 16.93333,7.5522663 16.93333,16.933332 V 118.53333 c 0,9.38106 -7.55226,16.93333 -16.93333,16.93333 H 16.933335 C 7.552269,135.46666 2.7270507e-6,127.91439 2.7270507e-6,118.53333 V 16.933332 C 2.7270507e-6,7.5522663 7.552269,0 16.933335,0 Z"
       id="rect846" />
    <path
       style="color:#000000;fill:#ff15a8;fill-rule:evenodd;stroke-width:8.46667;-inkscape-stroke:none"
       d="M 16.933332,8.5685921 H 118.53333 c 4.69054,0 8.46667,3.7761329 8.46667,8.4666659 v 84.666662 c 0,4.69054 -3.77613,8.46667 -8.46667,8.46667 H 16.933332 c -4.690533,0 -8.4666658,-3.77613 -8.4666658,-8.46667 V 17.035258 c 0,-4.690533 3.7761328,-8.4666659 8.4666658,-8.4666659 z"
       id="rect846-1" />
    <path
       style="color:#000000;fill:#000000;fill-rule:evenodd;stroke-width:0.264583;-inkscape-stroke:none"
       d="M 8.4666689,101.60001 H 127 c 4.69053,0 8.46666,3.77614 8.46666,8.46667 v 8.46667 c 0,4.69053 -3.77613,8.46666 -8.46666,8.46666 H 8.4666689 c -4.690533,0 -8.4666661729493,-3.77613 -8.4666661729493,-8.46666 v -8.46667 c 0,-4.69053 3.7761331729493,-8.46667 8.4666661729493,-8.46667 z"
       id="rect1024" />
    <g
       aria-label="INCLUSIVITY"
       transform="matrix(0.26458333,0,0,0.26458333,25.131002,6.8438898)"
       id="text12251"
       style="font-weight:500;font-size:53.3333px;font-family:'Brandon Text';-inkscape-font-specification:'Brandon Text, Medium';white-space:pre;fill:#ffffff">
      <path
         style="color:#000000;-inkscape-font-specification:'Brandon Text, Medium';-inkscape-stroke:none"
         d="m 4.2133308,426.98664 c 0,0.53333 0.4799997,1.01333 1.0133328,1.01333 H 11.62666 c 0.533333,0 1.013332,-0.48 1.013332,-1.01333 V 391.68 c 0,-0.53334 -0.479999,-1.01334 -1.013332,-1.01334 H 5.2266636 c -0.5333331,0 -1.0133328,0.48 -1.0133328,1.01334 z"
         id="path863" />
      <path
         style="color:#000000;-inkscape-font-specification:'Brandon Text, Medium';-inkscape-stroke:none"
         d="m 21.066654,426.98664 c 0,0.53333 0.48,1.01333 1.013333,1.01333 h 6.346662 c 0.586667,0 1.013333,-0.48 1.013333,-1.01333 v -19.89332 c 0,0 0.05333,0 0.05333,0 l 20.746655,20.85332 c 0.426666,0.42667 0.799999,0.58667 1.333332,0.58667 h 0.533333 c 0.533333,0 1.013333,-0.32 1.013333,-0.96 V 391.68 c 0,-0.53334 -0.48,-1.01334 -1.013333,-1.01334 h -6.399996 c -0.586666,0 -1.013333,0.48 -1.013333,1.01334 v 18.93332 c 0,0 -0.05333,0 -0.05333,0 L 24.159985,390.93333 c -0.426666,-0.42667 -0.799999,-0.8 -1.333332,-0.8 h -0.8 c -0.533333,0 -1.013332,0.42667 -1.013332,0.96 z"
         id="path865" />
      <path
         style="color:#000000;-inkscape-font-specification:'Brandon Text, Medium';-inkscape-stroke:none"
         d="m 59.413235,409.38665 c 0,10.66666 8.586662,19.14666 19.253322,19.14666 4.746664,0 9.333328,-1.65334 12.959993,-5.17333 0.373333,-0.37334 0.426666,-1.06667 0.05333,-1.44 l -4.159998,-4.42667 c -0.319999,-0.37333 -1.013332,-0.37333 -1.386665,-0.0533 -1.919999,1.65333 -4.213331,2.56 -7.146663,2.56 -6.026663,0 -10.50666,-4.90667 -10.50666,-10.82666 0,-5.97333 4.426664,-10.98666 10.453327,-10.98666 2.613332,0 5.01333,0.8 7.199996,2.72 0.373333,0.37333 0.959999,0.37333 1.333332,0 l 4.159998,-4.32 c 0.426666,-0.42667 0.426666,-1.06667 -0.05333,-1.49333 -3.626664,-3.30667 -7.573329,-4.96 -12.906659,-4.96 -10.66666,0 -19.253322,8.58666 -19.253322,19.25332 z"
         id="path867" />
      <path
         style="color:#000000;-inkscape-font-specification:'Brandon Text, Medium';-inkscape-stroke:none"
         d="m 97.759824,426.98664 c 0,0.53333 0.426667,1.01333 1.013333,1.01333 h 20.053323 c 0.58666,0 1.01333,-0.48 1.01333,-1.01333 v -5.81333 c 0,-0.53333 -0.42667,-1.01333 -1.01333,-1.01333 H 106.13315 V 391.68 c 0,-0.53334 -0.48,-1.01334 -1.01333,-1.01334 h -6.346663 c -0.586666,0 -1.013333,0.48 -1.013333,1.01334 z"
         id="path869" />
      <path
         style="color:#000000;-inkscape-font-specification:'Brandon Text, Medium';-inkscape-stroke:none"
         d="m 123.89303,414.34665 c 0,8.10666 6.77333,14.18666 15.14666,14.18666 8.42666,0 15.25332,-6.08 15.25332,-14.18666 V 391.68 c 0,-0.53334 -0.48,-1.01334 -1.01333,-1.01334 h -6.56 c -0.58666,0 -1.01333,0.48 -1.01333,1.01334 v 22.23998 c 0,3.89333 -2.82667,6.08 -6.66666,6.08 -3.78667,0 -6.56,-2.18667 -6.56,-6.08 V 391.68 c 0,-0.53334 -0.42667,-1.01334 -1.01333,-1.01334 h -6.56 c -0.53333,0 -1.01333,0.48 -1.01333,1.01334 z"
         id="path871" />
      <path
         style="color:#000000;-inkscape-font-specification:'Brandon Text, Medium';-inkscape-stroke:none"
         d="m 172.95961,428.53331 c 7.83999,0 12.58666,-5.54667 12.58666,-11.04 0,-7.25333 -6.08,-9.86666 -10.77333,-12.15999 -3.73333,-1.81333 -5.81333,-3.2 -5.81333,-4.96 0,-1.54666 1.01333,-2.93333 3.25333,-2.93333 2.82667,0 5.97333,2.02667 7.2,2.88 1.06666,0.64 1.97333,0.21333 2.34666,-0.37333 l 2.72,-4.10667 c 0.21333,-0.37333 0.32,-1.33333 -0.32,-1.70666 -1.6,-1.17334 -5.86666,-4 -11.41333,-4 -8.21332,0 -12.31999,5.33333 -12.31999,10.61333 0,6.39999 5.17333,9.27999 10.34666,11.78666 3.52,1.70666 5.49333,3.14666 5.49333,5.38666 0,1.86667 -1.54666,3.2 -3.68,3.2 -3.35999,0 -6.07999,-1.92 -7.57332,-2.93333 -0.53334,-0.37334 -1.38667,-0.37334 -1.81334,0.32 l -2.45333,4.31999 c -0.37333,0.69334 -0.21333,1.17334 0.21333,1.6 1.22667,1.22667 5.06667,4.10667 12,4.10667 z"
         id="path873" />
      <path
         style="color:#000000;-inkscape-font-specification:'Brandon Text, Medium';-inkscape-stroke:none"
         d="m 191.83957,426.98664 c 0,0.53333 0.48,1.01333 1.01333,1.01333 h 6.4 c 0.53333,0 1.01333,-0.48 1.01333,-1.01333 V 391.68 c 0,-0.53334 -0.48,-1.01334 -1.01333,-1.01334 h -6.4 c -0.53333,0 -1.01333,0.48 -1.01333,1.01334 z"
         id="path875" />
      <path
         style="color:#000000;-inkscape-font-specification:'Brandon Text, Medium';-inkscape-stroke:none"
         d="m 222.50621,410.71998 h -0.32 l -8.8,-19.46665 c -0.10666,-0.26667 -0.48,-0.58667 -0.90666,-0.58667 h -7.09333 c -0.8,0 -1.22667,0.69334 -0.90667,1.38667 l 16.63999,35.89331 c 0.16,0.32 0.48,0.58667 0.90667,0.58667 h 0.53333 c 0.42667,0 0.74667,-0.26667 0.90667,-0.58667 l 16.74666,-35.89331 c 0.32,-0.69333 -0.10667,-1.38667 -0.90667,-1.38667 h -7.09333 c -0.42667,0 -0.8,0.32 -0.90667,0.58667 z"
         id="path877" />
      <path
         style="color:#000000;-inkscape-font-specification:'Brandon Text, Medium';-inkscape-stroke:none"
         d="m 244.3728,426.98664 c 0,0.53333 0.48,1.01333 1.01333,1.01333 h 6.4 c 0.53333,0 1.01333,-0.48 1.01333,-1.01333 V 391.68 c 0,-0.53334 -0.48,-1.01334 -1.01333,-1.01334 h -6.4 c -0.53333,0 -1.01333,0.48 -1.01333,1.01334 z"
         id="path879" />
      <path
         style="color:#000000;-inkscape-font-specification:'Brandon Text, Medium';-inkscape-stroke:none"
         d="m 267.03945,426.98664 c 0,0.53333 0.48,1.01333 1.01333,1.01333 h 6.4 c 0.53333,0 1.01333,-0.48 1.01333,-1.01333 v -28.47998 h 7.62666 c 0.58667,0 1.01333,-0.48 1.01333,-1.01333 V 391.68 c 0,-0.53334 -0.42666,-1.01334 -1.01333,-1.01334 h -23.67998 c -0.58667,0 -1.01334,0.48 -1.01334,1.01334 v 5.81333 c 0,0.53333 0.42667,1.01333 1.01334,1.01333 h 7.62666 z"
         id="path881" />
      <path
         style="color:#000000;-inkscape-font-specification:'Brandon Text, Medium';-inkscape-stroke:none"
         d="m 297.33267,426.98664 c 0,0.53333 0.42667,1.01333 1.01333,1.01333 h 6.34666 c 0.53334,0 1.01334,-0.48 1.01334,-1.01333 v -17.01332 l 11.94666,-17.75999 c 0.42666,-0.69333 0,-1.54667 -0.85334,-1.54667 h -6.93333 c -0.48,0 -0.69333,0.26667 -0.85333,0.48 l -7.41333,10.93333 -7.41333,-10.93333 c -0.16,-0.21333 -0.42666,-0.48 -0.85333,-0.48 h -6.93333 c -0.85333,0 -1.28,0.85334 -0.85333,1.54667 l 11.78666,17.81332 z"
         id="path883" />
    </g>
  </g>
</svg>
