<?xml version="1.0" encoding="UTF-8" standalone="no"?>
<!-- Created with Inkscape (http://www.inkscape.org/) -->

<svg
   width="512"
   height="512"
   viewBox="0 0 135.46666 135.46667"
   version="1.1"
   id="svg5"
   inkscape:version="1.1 (c68e22c387, 2021-05-23)"
   sodipodi:docname="novelty.svg"
   xmlns:inkscape="http://www.inkscape.org/namespaces/inkscape"
   xmlns:sodipodi="http://sodipodi.sourceforge.net/DTD/sodipodi-0.dtd"
   xmlns="http://www.w3.org/2000/svg"
   xmlns:svg="http://www.w3.org/2000/svg">
  <sodipodi:namedview
     id="namedview7"
     pagecolor="#505050"
     bordercolor="#eeeeee"
     borderopacity="1"
     inkscape:pageshadow="0"
     inkscape:pageopacity="0"
     inkscape:pagecheckerboard="0"
     inkscape:document-units="px"
     showgrid="false"
     inkscape:zoom="0.46324355"
     inkscape:cx="93.903088"
     inkscape:cy="227.74197"
     inkscape:window-width="1366"
     inkscape:window-height="705"
     inkscape:window-x="-8"
     inkscape:window-y="-8"
     inkscape:window-maximized="1"
     inkscape:current-layer="layer1"
     units="px" />
  <defs
     id="defs2">
    <rect
       x="0"
       y="384.00006"
       width="511.99998"
       height="127.99992"
       id="rect12253" />
    <pattern
       id="EMFhbasepattern"
       patternUnits="userSpaceOnUse"
       width="6"
       height="6"
       x="0"
       y="0" />
  </defs>
  <g
     inkscape:label="Calque 1"
     inkscape:groupmode="layer"
     id="layer1">
    <path
       style="color:#000000;fill:#000000;fill-rule:evenodd;stroke-width:8.46667;-inkscape-stroke:none"
       d="M 16.933335,0 H 118.53333 c 9.38107,0 16.93333,7.5522663 16.93333,16.933332 V 118.53333 c 0,9.38106 -7.55226,16.93333 -16.93333,16.93333 H 16.933335 C 7.552269,135.46666 2.7270507e-6,127.91439 2.7270507e-6,118.53333 V 16.933332 C 2.7270507e-6,7.5522663 7.552269,0 16.933335,0 Z"
       id="rect846" />
    <path
       style="color:#000000;fill:#894efa;fill-rule:evenodd;stroke-width:8.46667;-inkscape-stroke:none"
       d="M 16.933332,8.5685921 H 118.53333 c 4.69054,0 8.46667,3.7761329 8.46667,8.4666659 v 84.666662 c 0,4.69054 -3.77613,8.46667 -8.46667,8.46667 H 16.933332 c -4.690533,0 -8.4666658,-3.77613 -8.4666658,-8.46667 V 17.035258 c 0,-4.690533 3.7761328,-8.4666659 8.4666658,-8.4666659 z"
       id="rect846-1" />
    <path
       style="color:#000000;fill:#000000;fill-rule:evenodd;stroke-width:0.264583;-inkscape-stroke:none"
       d="M 8.4666689,101.60001 H 127 c 4.69053,0 8.46666,3.77614 8.46666,8.46667 v 8.46667 c 0,4.69053 -3.77613,8.46666 -8.46666,8.46666 H 8.4666689 c -4.690533,0 -8.4666661729493,-3.77613 -8.4666661729493,-8.46666 v -8.46667 c 0,-4.69053 3.7761331729493,-8.46667 8.4666661729493,-8.46667 z"
       id="rect1024" />
    <g
       aria-label="NOVELTY"
       transform="matrix(0.26458333,0,0,0.26458333,36.187048,6.8438898)"
       id="text12251"
       style="font-weight:500;font-size:53.3333px;font-family:'Brandon Text';-inkscape-font-specification:'Brandon Text, Medium';white-space:pre;fill:#ffffff">
      <path
         style="color:#000000;-inkscape-font-specification:'Brandon Text, Medium';-inkscape-stroke:none"
         d="m 4.2133308,426.98664 c 0,0.53333 0.4799997,1.01333 1.0133328,1.01333 h 6.3466624 c 0.586667,0 1.013333,-0.48 1.013333,-1.01333 v -19.89332 c 0,0 0.05333,0 0.05333,0 l 20.746655,20.85332 c 0.426666,0.42667 0.799999,0.58667 1.333332,0.58667 h 0.533333 c 0.533333,0 1.013333,-0.32 1.013333,-0.96 V 391.68 c 0,-0.53334 -0.48,-1.01334 -1.013333,-1.01334 h -6.399996 c -0.586666,0 -1.013333,0.48 -1.013333,1.01334 v 18.93332 c 0,0 -0.05333,0 -0.05333,0 L 7.3066623,390.93333 c -0.4266664,-0.42667 -0.7999995,-0.8 -1.3333325,-0.8 H 5.1733302 c -0.533333,0 -1.0133327,0.42667 -1.0133327,0.96 z"
         id="path872" />
      <path
         style="color:#000000;-inkscape-font-specification:'Brandon Text, Medium';-inkscape-stroke:none"
         d="m 42.559914,409.38665 c 0,10.66666 8.479995,19.14666 19.146656,19.14666 10.66666,0 19.199988,-8.48 19.199988,-19.14666 0,-10.66666 -8.533328,-19.25332 -19.199988,-19.25332 -10.666661,0 -19.146656,8.58666 -19.146656,19.25332 z m 8.533329,0 c 0,-5.86666 4.799997,-10.71999 10.613327,-10.71999 5.866663,0 10.66666,4.85333 10.66666,10.71999 0,5.81333 -4.799997,10.61333 -10.66666,10.61333 -5.81333,0 -10.613327,-4.8 -10.613327,-10.61333 z"
         id="path874" />
      <path
         style="color:#000000;-inkscape-font-specification:'Brandon Text, Medium';-inkscape-stroke:none"
         d="m 99.99977,410.71998 h -0.32 l -8.799995,-19.46665 c -0.106666,-0.26667 -0.479999,-0.58667 -0.906666,-0.58667 H 82.87978 c -0.799999,0 -1.226666,0.69334 -0.906666,1.38667 l 16.63999,35.89331 c 0.16,0.32 0.48,0.58667 0.906666,0.58667 h 0.53333 c 0.42667,0 0.74667,-0.26667 0.90667,-0.58667 l 16.74666,-35.89331 c 0.32,-0.69333 -0.10667,-1.38667 -0.90667,-1.38667 h -7.09333 c -0.42667,0 -0.8,0.32 -0.90667,0.58667 z"
         id="path876" />
      <path
         style="color:#000000;-inkscape-font-specification:'Brandon Text, Medium';-inkscape-stroke:none"
         d="m 121.86636,426.98664 c 0,0.53333 0.42667,1.01333 1.01333,1.01333 h 22.07999 c 0.58667,0 1.01333,-0.48 1.01333,-1.01333 v -5.81333 c 0,-0.53333 -0.42666,-1.01333 -1.01333,-1.01333 h -14.77332 v -7.2 h 12.15999 c 0.53333,0 1.01333,-0.42666 1.01333,-1.01333 v -5.81333 c 0,-0.53333 -0.48,-1.01333 -1.01333,-1.01333 h -12.15999 v -6.61333 h 14.77332 c 0.58667,0 1.01333,-0.48 1.01333,-1.01333 V 391.68 c 0,-0.53334 -0.42666,-1.01334 -1.01333,-1.01334 h -22.07999 c -0.58666,0 -1.01333,0.48 -1.01333,1.01334 z"
         id="path878" />
      <path
         style="color:#000000;-inkscape-font-specification:'Brandon Text, Medium';-inkscape-stroke:none"
         d="m 152.69296,426.98664 c 0,0.53333 0.42667,1.01333 1.01333,1.01333 h 20.05332 c 0.58667,0 1.01334,-0.48 1.01334,-1.01333 v -5.81333 c 0,-0.53333 -0.42667,-1.01333 -1.01334,-1.01333 H 161.06629 V 391.68 c 0,-0.53334 -0.48,-1.01334 -1.01333,-1.01334 h -6.34667 c -0.58666,0 -1.01333,0.48 -1.01333,1.01334 z"
         id="path880" />
      <path
         style="color:#000000;-inkscape-font-specification:'Brandon Text, Medium';-inkscape-stroke:none"
         d="m 183.5195,426.98664 c 0,0.53333 0.48,1.01333 1.01334,1.01333 h 6.39999 c 0.53334,0 1.01334,-0.48 1.01334,-1.01333 v -28.47998 h 7.62666 c 0.58666,0 1.01333,-0.48 1.01333,-1.01333 V 391.68 c 0,-0.53334 -0.42667,-1.01334 -1.01333,-1.01334 h -23.67999 c -0.58666,0 -1.01333,0.48 -1.01333,1.01334 v 5.81333 c 0,0.53333 0.42667,1.01333 1.01333,1.01333 h 7.62666 z"
         id="path882" />
      <path
         style="color:#000000;-inkscape-font-specification:'Brandon Text, Medium';-inkscape-stroke:none"
         d="m 213.81274,426.98664 c 0,0.53333 0.42667,1.01333 1.01333,1.01333 h 6.34667 c 0.53333,0 1.01333,-0.48 1.01333,-1.01333 v -17.01332 l 11.94666,-17.75999 c 0.42667,-0.69333 0,-1.54667 -0.85333,-1.54667 h -6.93333 c -0.48,0 -0.69334,0.26667 -0.85334,0.48 l -7.41333,10.93333 -7.41332,-10.93333 c -0.16,-0.21333 -0.42667,-0.48 -0.85334,-0.48 h -6.93333 c -0.85333,0 -1.28,0.85334 -0.85333,1.54667 l 11.78666,17.81332 z"
         id="path884" />
    </g>
    <path
       style="color:#000000;fill:#000000;stroke-width:0.192596;-inkscape-stroke:none"
       d="m 18.700847,48.351135 c 0.157107,-0.558222 0.426249,-1.286857 0.598111,-1.61919 0.504486,-0.975568 2.017609,-2.468136 3.060088,-3.01851 l 0.966789,-0.510419 9.918689,-0.0963 9.91869,-0.0963 0.723939,-0.450103 c 1.906361,-1.185261 2.402142,-4.11899 0.981421,-5.807427 -0.674187,-0.801231 -1.292891,-1.081641 -2.695509,-1.221657 -4.232209,-0.422473 -6.871529,-3.758124 -6.574057,-8.308481 0.210108,-3.213899 2.627397,-5.933882 5.888471,-6.625808 0.674493,-0.143109 4.148084,-0.216549 10.242717,-0.216549 h 9.222112 l 2.179718,-0.567743 c 1.19885,-0.312257 2.957691,-0.833405 3.908531,-1.158102 4.231911,-1.445122 10.406513,-2.057064 15.536272,-1.539744 7.535233,0.759899 14.281581,3.440435 20.098521,7.985784 1.89458,1.480412 5.21601,4.887006 6.69176,6.863344 10.22468,13.693012 10.14316,32.561725 -0.19936,46.141403 C 99.408829,90.918755 82.501664,96.246248 67.2457,91.315087 61.338929,89.405849 57.047641,86.787782 52.065048,82.053545 c -1.758623,-1.670959 -2.665883,-2.395453 -3.17783,-2.53763 -0.448567,-0.124584 -4.296929,-0.1994 -10.290934,-0.20007 -9.184959,-7.28e-4 -9.617424,-0.01718 -10.631609,-0.396615 -1.475475,-0.552049 -2.849813,-1.848565 -3.621825,-3.416735 -0.598176,-1.215086 -0.631821,-1.39644 -0.631821,-3.406029 0,-1.919312 0.05008,-2.224617 0.523114,-3.187738 0.754185,-1.535631 1.683966,-2.528451 3.073416,-3.281785 l 1.218366,-0.660575 5.311877,-0.0963 5.31187,-0.0963 0.72771,-0.555427 c 1.912935,-1.460051 1.912876,-4.555328 -1.09e-4,-6.01519 l -0.727827,-0.555434 -7.815505,-0.0963 -7.815513,-0.0963 -1.095886,-0.53816 c -1.428044,-0.701273 -2.88749,-2.294279 -3.433518,-3.747743 -0.53768,-1.43124 -0.661012,-3.49329 -0.288177,-4.818086 z m 3.732301,3.520354 c 0.192899,0.424619 0.670692,1.052968 1.061754,1.396322 l 0.711019,0.624287 h 7.109865 c 4.525679,0 7.480829,0.07862 8.130478,0.216324 2.188845,0.463941 3.669205,1.648904 4.722704,3.780325 0.690543,1.3971 0.727296,1.565818 0.721494,3.311877 -0.0051,1.456288 -0.09801,2.070487 -0.446936,2.946563 -0.581377,1.45968 -2.058337,3.060147 -3.458552,3.74775 l -1.095887,0.53816 -5.20009,0.0963 c -4.764043,0.08822 -5.255427,0.128805 -5.859973,0.483988 -0.932387,0.54779 -1.554971,1.813202 -1.554971,3.160484 0,1.295395 0.421219,2.175089 1.434216,2.99527 l 0.719587,0.582607 10.334406,0.0963 10.334405,0.0963 0.966644,0.536034 c 0.531659,0.294823 1.875016,1.40149 2.985243,2.459263 3.892488,3.708595 5.905293,5.162015 9.722426,7.020436 9.490767,4.620696 20.191739,4.688495 29.700827,0.188168 9.792853,-4.634631 16.607233,-13.185816 19.019273,-23.86679 2.6191,-11.597944 -1.11812,-23.913925 -9.77456,-32.211923 -6.050696,-5.800155 -13.726068,-9.007969 -22.565206,-9.430797 -3.862855,-0.184783 -9.42395,0.515267 -11.914178,1.499804 -0.549683,0.217321 -2.08278,0.708442 -3.406876,1.091373 l -2.407448,0.696243 -10.207587,0.10493 c -10.145736,0.104289 -10.212544,0.107572 -11.025902,0.542069 -0.450074,0.240432 -1.050056,0.787328 -1.333291,1.215324 -1.034718,1.563569 -0.72814,4.175812 0.630038,5.368308 0.367558,0.322724 0.689219,0.586763 0.714791,0.586763 0.02555,0 0.778337,0.09177 1.6728,0.203928 2.850927,0.357475 4.644795,1.647877 5.841483,4.202024 0.531893,1.13523 0.597086,1.46642 0.592296,3.008996 -0.0066,2.132215 -0.44206,3.366829 -1.769017,5.015652 -0.691482,0.859217 -1.255207,1.316738 -2.244299,1.821508 l -1.320872,0.674085 -9.553324,0.04833 c -5.254327,0.02657 -9.741651,0.09156 -9.97182,0.144391 -0.663886,0.15239 -1.627298,1.070671 -2.012128,1.91787 -0.449172,0.988846 -0.450191,2.10641 -0.0029,3.091157 z m 25.574136,-0.290543 c 0.863192,-5.692532 2.199452,-9.419114 4.834215,-13.481726 10.970012,-16.914963 34.849146,-19.015062 48.591641,-4.273492 3.77924,4.053987 6.4635,9.254968 7.72315,14.964278 0.36285,1.644565 0.4257,2.526122 0.43244,6.065068 0.007,3.589623 -0.0495,4.403571 -0.42297,6.114741 -0.91422,4.188499 -2.38414,7.682306 -4.69618,11.162261 -1.80899,2.722785 -5.653497,6.60628 -8.238056,8.321591 -10.821304,7.181847 -23.956759,7.202076 -34.771695,0.0535 -2.493248,-1.648001 -6.477447,-5.592554 -8.110306,-8.029586 -3.794182,-5.662796 -5.500808,-11.221179 -5.44034,-17.718836 0.01376,-1.482988 0.05794,-2.913013 0.0981,-3.177831 z m 6.187342,1.540763 c 2.968231,0 3.328443,0.119452 3.693219,1.224729 0.263581,0.798654 0.04317,1.457831 -0.67672,2.024111 -0.473018,0.372077 -0.760983,0.41049 -3.077586,0.41049 h -2.555748 l 0.09271,0.818533 c 0.731597,6.459427 3.335068,11.902697 7.856684,16.426535 3.16777,3.169331 6.605132,5.341159 10.539912,6.659433 1.875228,0.628262 5.144565,1.325575 6.214893,1.325575 h 0.652698 l 0.06275,-2.691543 c 0.05823,-2.500652 0.09382,-2.722617 0.5014,-3.129686 0.671457,-0.67062 2.039986,-0.618005 2.65952,0.102237 0.441507,0.513287 0.464814,0.670198 0.464814,3.129686 v 2.589306 l 0.625933,-5.75e-4 c 1.190953,-0.0015 4.100622,-0.603149 6.047769,-1.251218 3.877457,-1.290569 7.193664,-3.281531 10.191638,-6.118812 2.291577,-2.168742 3.988308,-4.431509 5.448938,-7.266693 1.60829,-3.121809 2.49649,-5.981356 2.88643,-9.292761 l 0.15309,-1.300017 h -2.47889 c -2.78001,0 -3.40674,-0.187054 -3.798885,-1.133775 -0.314993,-0.760453 -0.100125,-1.655557 0.513215,-2.138009 0.43786,-0.344416 0.77911,-0.387546 3.06675,-0.387546 h 2.57407 v -0.763553 c 0,-1.112767 -0.6548,-4.311599 -1.24481,-6.081162 -2.2133,-6.638146 -7.424405,-12.610943 -13.681371,-15.681143 -3.11089,-1.526474 -5.968208,-2.3835 -9.29275,-2.787279 l -1.011135,-0.1228 v 2.603639 c 0,2.568312 -0.0073,2.611682 -0.529635,3.196116 -0.845859,0.946204 -2.415768,0.769755 -2.915814,-0.327725 -0.121686,-0.267075 -0.213871,-1.54749 -0.213871,-2.970715 v -2.501315 l -1.011126,0.122065 c -11.216028,1.354022 -20.304537,9.000057 -23.34591,19.640558 -0.401914,1.406149 -0.958942,4.296472 -1.04697,5.432569 -0.01412,0.181849 0.63049,0.240745 2.634829,0.240745 z m 12.946785,12.342718 c 3.071909,-3.746935 5.585284,-6.846266 5.585284,-6.887394 0,-0.04113 -0.182264,-0.613725 -0.40503,-1.272436 -0.501676,-1.483411 -0.443748,-4.045034 0.117261,-5.185629 l 0.351113,-0.713859 -2.294671,-2.439987 c -4.571108,-4.860575 -4.702134,-5.023266 -4.702134,-5.838516 0,-1.036488 0.732945,-1.753251 1.792834,-1.753251 0.87045,0 1.097976,0.204451 5.541625,4.97959 l 2.214352,2.379555 1.312653,-0.405445 c 1.562587,-0.482627 2.345335,-0.504865 3.879816,-0.110207 2.183357,0.561548 3.906894,2.134864 4.730121,4.317858 0.327907,0.869546 0.387568,1.373305 0.320381,2.705562 -0.09532,1.89037 -0.521185,2.962395 -1.716061,4.319853 -1.704312,1.9362 -4.925795,2.7606 -7.283518,1.863902 -0.578843,-0.220145 -1.107853,-0.336532 -1.175564,-0.258623 -0.0677,0.0779 -2.473908,3.015562 -5.347095,6.528128 -2.8732,3.512566 -5.464216,6.57545 -5.75783,6.806405 -1.108094,0.871631 -2.748822,-0.0281 -2.748822,-1.50741 0,-0.652523 0.491507,-1.314998 5.585285,-7.528096 z m 8.907563,-8.874031 c 0.761907,1.119478 1.376506,1.442516 2.744489,1.442516 1.367984,0 1.982589,-0.323038 2.744491,-1.442516 0.529992,-0.778716 0.581638,-2.231285 0.114349,-3.216018 -1.049503,-2.211674 -4.626008,-2.231291 -5.709934,-0.0313 -0.47213,0.958236 -0.4225,2.469934 0.106605,3.247347 z M 20.401475,25.550231 c 0.776627,-1.842021 1.813668,-2.888962 3.73129,-3.76688 0.902201,-0.413038 1.393096,-0.509131 2.562007,-0.501516 2.781142,0.01812 4.98678,1.394938 6.206821,3.874459 0.574403,1.167376 0.631355,1.441912 0.626646,3.020833 -0.0044,1.51268 -0.07446,1.873438 -0.542098,2.796043 -1.530812,3.020126 -4.736251,4.563488 -7.831229,3.770592 -2.1422,-0.548803 -3.554848,-1.677839 -4.571362,-3.653601 -0.411014,-0.798872 -0.518804,-1.30932 -0.573762,-2.717034 -0.05809,-1.488783 -0.0029,-1.887101 0.391687,-2.822896 z m 3.592461,4.063035 c 0.809616,1.586979 3.035287,2.15954 4.51085,1.160431 2.348399,-1.590116 1.664611,-5.139711 -1.110677,-5.765644 -2.559533,-0.577271 -4.620214,2.213734 -3.400173,4.605213 z"
       id="path936" />
  </g>
</svg>
