<?xml version="1.0" encoding="UTF-8" standalone="no"?>
<!-- Created with Inkscape (http://www.inkscape.org/) -->

<svg
   width="512"
   height="512"
   viewBox="0 0 135.46666 135.46667"
   version="1.1"
   id="svg5"
   inkscape:version="1.1 (c68e22c387, 2021-05-23)"
   sodipodi:docname="permission.svg"
   xmlns:inkscape="http://www.inkscape.org/namespaces/inkscape"
   xmlns:sodipodi="http://sodipodi.sourceforge.net/DTD/sodipodi-0.dtd"
   xmlns="http://www.w3.org/2000/svg"
   xmlns:svg="http://www.w3.org/2000/svg">
  <sodipodi:namedview
     id="namedview7"
     pagecolor="#505050"
     bordercolor="#eeeeee"
     borderopacity="1"
     inkscape:pageshadow="0"
     inkscape:pageopacity="0"
     inkscape:pagecheckerboard="0"
     inkscape:document-units="px"
     showgrid="false"
     inkscape:zoom="0.46324355"
     inkscape:cx="93.903088"
     inkscape:cy="227.74197"
     inkscape:window-width="1366"
     inkscape:window-height="705"
     inkscape:window-x="-8"
     inkscape:window-y="-8"
     inkscape:window-maximized="1"
     inkscape:current-layer="layer1"
     units="px" />
  <defs
     id="defs2">
    <rect
       x="0"
       y="384.00006"
       width="511.99998"
       height="127.99992"
       id="rect12253" />
  </defs>
  <g
     inkscape:label="Calque 1"
     inkscape:groupmode="layer"
     id="layer1">
    <path
       style="color:#000000;fill:#000000;fill-rule:evenodd;stroke-width:8.46667;-inkscape-stroke:none"
       d="M 16.933335,0 H 118.53333 c 9.38107,0 16.93333,7.5522663 16.93333,16.933332 V 118.53333 c 0,9.38106 -7.55226,16.93333 -16.93333,16.93333 H 16.933335 C 7.552269,135.46666 2.7270507e-6,127.91439 2.7270507e-6,118.53333 V 16.933332 C 2.7270507e-6,7.5522663 7.552269,0 16.933335,0 Z"
       id="rect846" />
    <path
       style="color:#000000;fill:#ffff00;fill-rule:evenodd;stroke-width:8.46667;-inkscape-stroke:none"
       d="M 16.933332,8.5685921 H 118.53333 c 4.69054,0 8.46667,3.7761329 8.46667,8.4666659 v 84.666662 c 0,4.69054 -3.77613,8.46667 -8.46667,8.46667 H 16.933332 c -4.690533,0 -8.4666658,-3.77613 -8.4666658,-8.46667 V 17.035258 c 0,-4.690533 3.7761328,-8.4666659 8.4666658,-8.4666659 z"
       id="rect846-1" />
    <path
       style="color:#000000;fill:#000000;fill-rule:evenodd;stroke-width:0.264583;-inkscape-stroke:none"
       d="M 8.4666689,101.60001 H 127 c 4.69053,0 8.46666,3.77614 8.46666,8.46667 v 8.46667 c 0,4.69053 -3.77613,8.46666 -8.46666,8.46666 H 8.4666689 c -4.690533,0 -8.4666661729493,-3.77613 -8.4666661729493,-8.46666 v -8.46667 c 0,-4.69053 3.7761331729493,-8.46667 8.4666661729493,-8.46667 z"
       id="rect1024" />
    <g
       aria-label="PERMISSION"
       transform="matrix(0.26458333,0,0,0.26458333,25.42124,6.8438898)"
       id="text12251"
       style="font-weight:500;font-size:53.3333px;font-family:'Brandon Text';-inkscape-font-specification:'Brandon Text, Medium';white-space:pre;fill:#ffffff">
      <path
         style="color:#000000;-inkscape-font-specification:'Brandon Text, Medium';-inkscape-stroke:none"
         d="m 4.2133308,426.98664 c 0,0.53333 0.4266664,1.01333 1.0133328,1.01333 h 6.2933294 c 0.533333,0 1.013333,-0.48 1.013333,-1.01333 v -12.53332 h 5.599997 c 6.986662,0 11.893326,-5.38667 11.893326,-12 0,-6.45333 -4.906664,-11.78666 -11.94666,-11.78666 H 5.2266636 c -0.5866664,0 -1.0133328,0.48 -1.0133328,1.01334 z m 8.3199952,-20.31999 v -8.15999 h 5.386663 c 2.293332,0 3.893331,1.70666 3.893331,3.94666 0,2.4 -1.599999,4.21333 -3.893331,4.21333 z"
         id="path863" />
      <path
         style="color:#000000;-inkscape-font-specification:'Brandon Text, Medium';-inkscape-stroke:none"
         d="m 35.413263,426.98664 c 0,0.53333 0.426666,1.01333 1.013333,1.01333 h 22.079986 c 0.586667,0 1.013333,-0.48 1.013333,-1.01333 v -5.81333 c 0,-0.53333 -0.426666,-1.01333 -1.013333,-1.01333 H 43.733258 v -7.2 h 12.159993 c 0.533333,0 1.013332,-0.42666 1.013332,-1.01333 v -5.81333 c 0,-0.53333 -0.479999,-1.01333 -1.013332,-1.01333 H 43.733258 v -6.61333 h 14.773324 c 0.586667,0 1.013333,-0.48 1.013333,-1.01333 V 391.68 c 0,-0.53334 -0.426666,-1.01334 -1.013333,-1.01334 H 36.426596 c -0.586667,0 -1.013333,0.48 -1.013333,1.01334 z"
         id="path865" />
      <path
         style="color:#000000;-inkscape-font-specification:'Brandon Text, Medium';-inkscape-stroke:none"
         d="m 66.239866,426.98664 c 0,0.53333 0.426666,1.01333 1.013333,1.01333 h 6.346662 c 0.533333,0 1.013333,-0.48 1.013333,-1.01333 v -13.59999 h 3.679998 l 7.093329,14.13332 c 0.106667,0.21334 0.426667,0.48 0.853333,0.48 h 7.093329 c 0.906666,0 1.279999,-0.85333 0.906666,-1.54666 l -7.306662,-13.54666 c 4.959997,-1.86667 7.893328,-5.81333 7.893328,-10.71999 0,-6.34667 -4.85333,-11.52 -11.626659,-11.52 H 67.253199 c -0.586667,0 -1.013333,0.48 -1.013333,1.01334 z m 8.373328,-20.37332 v -8.32 h 7.893329 c 2.186665,0 4.053331,1.54667 4.053331,4.05334 0,2.50666 -1.866666,4.26666 -4.053331,4.26666 z"
         id="path867" />
      <path
         style="color:#000000;-inkscape-font-specification:'Brandon Text, Medium';-inkscape-stroke:none"
         d="m 99.573113,426.82664 c -0.106666,0.69333 0.373333,1.17333 1.013337,1.17333 h 6.29333 c 0.53333,0 0.96,-0.42666 1.01333,-0.85333 l 2.34666,-16.47999 h 0.10667 l 9.01333,17.27999 c 0.16,0.32 0.58666,0.58667 0.90666,0.58667 h 0.96 c 0.26667,0 0.74667,-0.26667 0.90667,-0.58667 l 8.95999,-17.27999 h 0.10667 l 2.4,16.47999 c 0.0533,0.42667 0.53333,0.85333 1.01333,0.85333 h 6.29333 c 0.64,0 1.12,-0.48 1.01333,-1.17333 l -6.02666,-35.83998 c -0.0533,-0.48 -0.53333,-0.85333 -0.96,-0.85333 h -0.85333 c -0.26667,0 -0.74667,0.21333 -0.90667,0.53333 l -12.37332,23.03999 h -0.10667 l -12.37333,-23.03999 c -0.16,-0.32 -0.63999,-0.53333 -0.90666,-0.53333 h -0.85333 c -0.42667,0 -0.90667,0.37333 -0.96,0.85333 z"
         id="path869" />
      <path
         style="color:#000000;-inkscape-font-specification:'Brandon Text, Medium';-inkscape-stroke:none"
         d="m 148.373,426.98664 c 0,0.53333 0.48,1.01333 1.01333,1.01333 h 6.4 c 0.53333,0 1.01333,-0.48 1.01333,-1.01333 V 391.68 c 0,-0.53334 -0.48,-1.01334 -1.01333,-1.01334 h -6.4 c -0.53333,0 -1.01333,0.48 -1.01333,1.01334 z"
         id="path871" />
      <path
         style="color:#000000;-inkscape-font-specification:'Brandon Text, Medium';-inkscape-stroke:none"
         d="m 175.83964,428.53331 c 7.84,0 12.58666,-5.54667 12.58666,-11.04 0,-7.25333 -6.07999,-9.86666 -10.77332,-12.15999 -3.73334,-1.81333 -5.81333,-3.2 -5.81333,-4.96 0,-1.54666 1.01333,-2.93333 3.25333,-2.93333 2.82666,0 5.97333,2.02667 7.19999,2.88 1.06667,0.64 1.97333,0.21333 2.34667,-0.37333 l 2.72,-4.10667 c 0.21333,-0.37333 0.32,-1.33333 -0.32,-1.70666 -1.6,-1.17334 -5.86667,-4 -11.41333,-4 -8.21333,0 -12.31999,5.33333 -12.31999,10.61333 0,6.39999 5.17333,9.27999 10.34666,11.78666 3.52,1.70666 5.49333,3.14666 5.49333,5.38666 0,1.86667 -1.54667,3.2 -3.68,3.2 -3.36,0 -6.08,-1.92 -7.57333,-2.93333 -0.53333,-0.37334 -1.38666,-0.37334 -1.81333,0.32 l -2.45333,4.31999 c -0.37334,0.69334 -0.21334,1.17334 0.21333,1.6 1.22667,1.22667 5.06666,4.10667 11.99999,4.10667 z"
         id="path873" />
      <path
         style="color:#000000;-inkscape-font-specification:'Brandon Text, Medium';-inkscape-stroke:none"
         d="m 205.33293,428.53331 c 7.83999,0 12.58666,-5.54667 12.58666,-11.04 0,-7.25333 -6.08,-9.86666 -10.77333,-12.15999 -3.73333,-1.81333 -5.81333,-3.2 -5.81333,-4.96 0,-1.54666 1.01333,-2.93333 3.25333,-2.93333 2.82667,0 5.97333,2.02667 7.2,2.88 1.06666,0.64 1.97333,0.21333 2.34666,-0.37333 l 2.72,-4.10667 c 0.21334,-0.37333 0.32,-1.33333 -0.32,-1.70666 -1.6,-1.17334 -5.86666,-4 -11.41332,-4 -8.21333,0 -12.32,5.33333 -12.32,10.61333 0,6.39999 5.17333,9.27999 10.34666,11.78666 3.52,1.70666 5.49333,3.14666 5.49333,5.38666 0,1.86667 -1.54666,3.2 -3.67999,3.2 -3.36,0 -6.08,-1.92 -7.57333,-2.93333 -0.53334,-0.37334 -1.38667,-0.37334 -1.81333,0.32 l -2.45334,4.31999 c -0.37333,0.69334 -0.21333,1.17334 0.21334,1.6 1.22666,1.22667 5.06666,4.10667 11.99999,4.10667 z"
         id="path875" />
      <path
         style="color:#000000;-inkscape-font-specification:'Brandon Text, Medium';-inkscape-stroke:none"
         d="m 224.21289,426.98664 c 0,0.53333 0.48,1.01333 1.01333,1.01333 h 6.4 c 0.53333,0 1.01333,-0.48 1.01333,-1.01333 V 391.68 c 0,-0.53334 -0.48,-1.01334 -1.01333,-1.01334 h -6.4 c -0.53333,0 -1.01333,0.48 -1.01333,1.01334 z"
         id="path877" />
      <path
         style="color:#000000;-inkscape-font-specification:'Brandon Text, Medium';-inkscape-stroke:none"
         d="m 238.93289,409.38665 c 0,10.66666 8.47999,19.14666 19.14665,19.14666 10.66666,0 19.19999,-8.48 19.19999,-19.14666 0,-10.66666 -8.53333,-19.25332 -19.19999,-19.25332 -10.66666,0 -19.14665,8.58666 -19.14665,19.25332 z m 8.53333,0 c 0,-5.86666 4.79999,-10.71999 10.61332,-10.71999 5.86667,0 10.66666,4.85333 10.66666,10.71999 0,5.81333 -4.79999,10.61333 -10.66666,10.61333 -5.81333,0 -10.61332,-4.8 -10.61332,-10.61333 z"
         id="path879" />
      <path
         style="color:#000000;-inkscape-font-specification:'Brandon Text, Medium';-inkscape-stroke:none"
         d="m 283.5728,426.98664 c 0,0.53333 0.48,1.01333 1.01333,1.01333 h 6.34666 c 0.58667,0 1.01334,-0.48 1.01334,-1.01333 v -19.89332 c 0,0 0.0533,0 0.0533,0 l 20.74665,20.85332 c 0.42667,0.42667 0.8,0.58667 1.33334,0.58667 h 0.53333 c 0.53333,0 1.01333,-0.32 1.01333,-0.96 V 391.68 c 0,-0.53334 -0.48,-1.01334 -1.01333,-1.01334 h -6.4 c -0.58666,0 -1.01333,0.48 -1.01333,1.01334 v 18.93332 c 0,0 -0.0533,0 -0.0533,0 l -20.47999,-19.67999 c -0.42667,-0.42667 -0.8,-0.8 -1.33333,-0.8 h -0.8 c -0.53334,0 -1.01334,0.42667 -1.01334,0.96 z"
         id="path881" />
    </g>
    <path
       style="color:#000000;fill:#000000;stroke-width:0.0701441;-inkscape-stroke:none"
       d="m 68.622992,92.350618 c -0.438715,0.194521 -1.905449,0.549086 -2.467129,0.689692 -0.710092,0.04261 -1.844104,0.146329 -2.647505,0.05918 -1.224205,-0.21158 -4.556118,-0.987917 -6.777304,-1.781037 -1.086449,-0.291113 -2.387637,-0.954168 -3.35863,-1.458882 -6.474702,-3.388443 -8.858882,-8.440554 -6.990325,-14.970834 0.116445,-0.434579 0.291115,-1.086445 0.487093,-1.383268 0.05822,-0.21729 0.254201,-0.514113 0.116445,-0.434579 -0.02093,-0.0044 -0.312892,0.09432 -0.617036,0.203796 -4.065101,1.612287 -8.368841,1.029685 -12.606449,-1.538053 -0.593645,-0.391958 -1.187292,-0.783916 -2.189108,-1.56471 -1.362266,-1.086982 -3.474696,-3.155149 -5.130818,-5.101047 -1.396935,-1.783294 -3.183584,-4.241593 -4.02664,-5.701807 -0.715801,-1.239806 -0.819501,-2.37382 -0.470165,-3.677557 0.349335,-1.303739 0.9066,-1.992825 2.998779,-3.586462 0.884759,-0.694491 4.328661,-2.682829 5.354194,-3.133493 2.897293,-1.121729 5.447075,-1.859147 8.453319,-1.996833 1.775229,-0.106555 3.531431,-0.05518 5.246876,0.148289 2.785416,0.338792 6.767639,1.382536 9.558612,2.526289 1.96101,0.851497 4.048704,1.795163 5.943538,2.850173 0.810936,0.450181 1.325048,0.704382 1.404582,0.842138 0.01678,0.0069 0.03843,-0.143413 -0.02131,-0.355046 L 60.862701,52.631521 60.270164,51.6879 c -1.090731,-1.739671 -2.571177,-3.180871 -5.088352,-4.868418 -1.539788,-1.076322 -3.897324,-2.360116 -5.31454,-2.937814 -0.731402,-0.312424 -0.89047,-0.587936 -1.12907,-1.001204 -0.339445,-0.906071 0.524003,-1.955607 1.489591,-1.77839 0.789625,0.09513 4.311585,1.900533 6.539888,3.405878 2.663457,1.750031 4.427082,3.468556 5.68626,5.331384 l 0.360852,0.526361 0.275506,-0.159063 0.275513,-0.159067 -0.276774,-0.574904 c -1.506034,-3.244804 -2.184853,-8.142722 -1.713333,-13.466011 0.07382,-1.144671 0.19027,-1.57925 0.524005,-1.955607 0.66747,-0.752714 1.998759,-0.419286 2.354111,0.514337 0.05336,0.152867 0.100844,0.492802 0.122155,0.847847 -0.294041,3.531013 -0.244417,6.257484 0.16281,8.648921 0.26562,2.050742 0.875479,3.425182 1.615141,4.706313 0.416927,0.677662 0.50751,0.809038 0.694491,0.88476 l 0.217289,0.05822 0.01965,-0.195018 c 0.0019,-0.124124 -0.04263,-0.710092 0.05251,-1.499718 0.07215,-6.396799 1.409816,-12.605878 3.738381,-17.384994 1.72644,-3.531473 3.988299,-6.453696 6.813132,-8.782577 2.406318,-1.940314 5.616034,-3.793445 8.468882,-4.705837 1.398874,-0.44029 2.867918,-0.186395 4.085463,0.74536 0.673181,0.529713 1.129071,1.001204 1.890043,2.637381 4.191723,8.214678 5.411053,15.575853 3.506863,20.835478 -0.83019,2.316058 -2.190967,4.22212 -4.099803,5.783371 -0.246085,0.210038 -0.491375,0.421452 -0.484217,0.43385 -0.0052,0.01956 0.138752,0.05581 0.21729,0.05822 0.182411,0.02326 0.869159,0.23289 1.658785,0.328024 5.015125,1.273936 8.055244,4.312635 9.050904,9.027625 0.64228,3.339405 0.28919,7.786154 -1.13587,12.539548 -0.66175,2.03514 -0.959829,2.886832 -1.681249,3.927842 -1.09011,1.547746 -2.11574,2.507245 -3.91723,3.363659 -1.792712,0.967037 -3.941119,1.540706 -5.867878,1.734746 -2.978119,0.250017 -5.998029,-0.908495 -9.053893,-3.49728 -0.673181,-0.52971 -1.64859,-1.5829 -2.001087,-1.875307 -0.08964,-0.104372 -0.218328,-0.241298 -0.23897,-0.22938 -0.04431,-0.02586 1.027167,1.868206 2.379239,4.210063 2.449629,4.242882 2.464246,4.271184 2.469878,4.580179 0.0055,0.17498 0.02131,0.355046 -0.03691,0.572336 -0.05822,0.21729 -0.45018,0.810937 -0.587937,0.890471 -0.41103,0.242478 -1.123361,0.281223 -1.499718,-0.05251 l -0.29545,-0.196774 -2.465538,-4.270439 c -1.352072,-2.341856 -2.458226,-4.219565 -2.456403,-4.165513 0.0024,0.05188 0.02305,0.170367 0.07917,0.321641 0.09432,0.312895 0.517274,1.850348 0.559896,2.560441 0.943825,5.03879 -0.03644,8.653757 -3.181655,11.700267 -1.080741,0.991308 -2.075705,1.749426 -3.136427,2.361837 -0.554382,0.312314 -1.113989,0.615583 -1.259692,0.681356 z m 1.185194,-4.118987 c 1.080737,-0.991315 1.662433,-1.510832 2.346798,-2.456975 2.326322,-3.51047 1.589545,-9.017789 -2.291611,-17.139933 l -0.552232,-1.15056 -0.65187,-0.174668 c -1.086449,-0.291114 -1.462805,-0.62485 -2.21042,-1.919756 l -0.513017,-0.80586 -1.202893,0.143466 c -2.912364,0.395731 -5.512987,1.235972 -8.187167,2.394195 -1.024738,0.45204 -3.932728,2.09607 -4.542261,2.567371 -0.250061,0.203148 -0.485807,0.431094 -0.66747,0.752713 -0.508402,1.028225 -1.267886,2.385088 -1.601465,3.238914 -0.370646,0.948692 -0.975176,2.987517 -1.07769,3.891612 -0.132046,1.361963 -0.09452,2.69949 0.314943,3.822278 0.259911,0.768315 1.065954,2.158059 1.687359,2.846236 1.375626,1.428253 3.244051,2.755655 5.720733,3.768614 1.929197,0.796395 4.760354,1.6598 6.69153,2.014235 2.393307,0.454975 4.627811,-0.192254 6.713598,-1.892405 z M 63.989308,84.13396 c -2.184081,0.89363 -4.779339,0.279748 -6.321984,-1.43779 -0.431094,-0.485807 -1.024841,-1.52057 -1.196819,-2.082503 -0.281223,-1.123361 -0.289483,-2.092072 0.0053,-3.235749 0.291113,-1.086449 0.624848,-1.462806 1.223438,-2.175752 0.391958,-0.593647 0.529714,-0.673181 1.397577,-1.174242 0.82579,-0.478494 0.973845,-0.54019 1.470871,-0.665532 1.616162,-0.382067 3.26117,-0.04609 4.567189,0.816215 0.970004,0.725694 1.600868,1.500248 2.003941,2.516525 0.498509,1.181577 0.488314,2.436456 0.205724,3.664918 -0.46578,1.738318 -1.771608,3.135101 -3.406225,3.803335 z m 0.04764,-3.480589 c 0.333735,-0.376356 0.587936,-0.89047 0.624848,-1.462806 0.24849,-1.796541 -1.103272,-3.183459 -2.878501,-3.076906 -0.572336,-0.03691 -0.710092,0.04263 -1.261116,0.360757 -0.551025,0.318133 -0.681617,0.410075 -1.022516,0.774023 -0.391957,0.593647 -0.566624,1.245516 -0.524001,1.955609 0.02131,0.355046 0.100844,0.492802 0.418979,1.043828 0.318134,0.551024 0.411445,0.680825 0.694488,0.884753 0.67318,0.529715 1.600561,0.545316 2.517287,0.383395 0.316074,-0.08881 0.977799,-0.533341 1.320298,-0.894517 z m 31.121863,-7.0212 c 0.88477,-0.694491 1.61045,-1.664492 2.13264,-2.700674 0.56662,-1.245517 1.76486,-5.978163 1.86083,-7.466237 0.0334,-0.202977 0.11645,-0.43458 0.0369,-0.572336 -0.0213,-0.355046 0.21158,-1.2242 0.19026,-1.579246 0.0307,-0.201383 0.0369,-0.572336 0.0369,-0.572336 0.0139,-0.03005 -0.0213,-0.355046 0.0156,-0.927382 -0.2472,-4.118532 -1.86272,-6.694001 -5.11115,-8.216503 -0.731397,-0.312425 -2.718814,-0.891531 -3.782964,-1.048578 -0.789626,-0.09513 -2.479085,-0.221775 -3.801273,-0.284946 -0.927382,-0.0156 -1.202895,0.143467 -3.186582,1.28875 -3.37741,1.944434 -6.255956,4.530252 -9.011031,7.902541 l -0.471492,0.45589 0.525069,0.982577 c 0.671724,1.265247 0.758421,1.949893 0.581203,2.91548 l -0.116445,0.43458 0.625613,0.924527 c 1.720474,2.661814 3.509672,4.806391 5.253702,6.554601 0.226568,0.236541 0.535424,0.609248 0.752714,0.667471 0.133238,0.10675 0.455891,0.471491 0.673181,0.529713 0.162186,0.09003 0.296819,0.195973 0.376353,0.33373 0.01672,0.02895 0.255496,0.219839 0.593647,0.391957 2.236832,1.647365 4.426203,2.385385 6.609453,2.190203 1.830327,-0.138373 4.331244,-1.214928 5.684372,-2.179833 z m -4.9219,-4.707375 c -2.004999,0.790236 -4.274322,0.263689 -5.896917,-1.242385 -0.455891,-0.471492 -1.396934,-1.783293 -1.494763,-2.534978 -0.281223,-1.123362 -0.265622,-2.050744 0.08273,-3.133497 0.232884,-0.869156 0.624842,-1.462804 1.223435,-2.175751 0.333735,-0.376357 0.609247,-0.535424 1.218495,-1.070849 0.674453,-0.422485 0.821761,-0.485474 1.434825,-0.696155 2.098304,-0.660431 4.360253,-0.01941 5.845088,1.566192 0.451761,0.473875 1.067674,1.569307 1.252956,2.233767 0.493421,1.80902 0.0447,3.831375 -1.188,5.259399 -0.66747,0.752714 -1.414474,1.367672 -2.468958,1.609128 z m -0.03813,-3.247394 c 0.747004,-0.614957 1.034995,-1.515929 0.967939,-2.395589 -0.100841,-0.492797 -0.100841,-0.492797 -0.418975,-1.043821 -0.318135,-0.551026 -0.416927,-0.677663 -0.694492,-0.884761 -1.812747,-1.230977 -4.23471,-0.144902 -4.495261,2.044315 -0.168957,1.934298 1.657152,3.50654 3.607617,2.876358 0.467352,-0.144925 0.607493,-0.220329 0.977017,-0.534697 z M 72.105712,63.321308 c 0.201545,-0.287182 0.257229,-0.190734 -2.889922,-5.64176 -3.229698,-5.555795 -2.976695,-5.187576 -3.626423,-5.326746 -0.434579,-0.116444 -0.572335,-0.03691 -1.398873,0.440291 -0.539891,0.337419 -0.530347,0.35395 -0.667471,0.752714 -0.06846,0.17728 -0.116439,0.434576 -0.174662,0.651865 -0.03894,0.206156 0.03784,0.345506 2.860657,5.272938 1.985241,3.464059 2.913514,5.040384 3.030718,5.138019 0.372227,0.33612 0.514113,0.254202 1.616164,-0.382067 0.551771,-0.316842 1.087722,-0.661086 1.067835,-0.695531 z M 64.159305,61.296875 63.823264,60.75619 63.113172,60.79882 C 55.29193,60.74091 47.295489,62.988257 41.0149,67.036809 c -1.658864,1.071624 -4.059389,2.894714 -4.117612,3.112003 -0.01884,0.06598 0.810937,0.45018 1.462806,0.624848 2.985391,0.939667 5.878157,0.573619 8.75726,-1.088631 0.413268,-0.238601 0.811425,-0.503375 1.068643,-0.694128 0.257218,-0.190753 0.769272,-0.576386 1.160271,-0.853558 0.383046,-0.290947 1.305981,-0.919315 1.876602,-1.267131 3.323042,-2.102235 7.89784,-4.008796 12.176273,-4.678938 0.491211,-0.103599 0.847848,-0.122155 0.847848,-0.122155 0.06084,-0.03142 0.0022,-0.164755 -0.257522,-0.586019 z m 8.713718,-4.663518 c 1.001205,-1.12907 2.611659,-2.793565 3.899026,-3.904177 1.758866,-1.566506 3.180874,-2.571177 5.205889,-3.74032 1.556642,-0.898727 1.828722,-1.031935 4.34685,-2.142305 1.031897,-0.439643 2.530514,-1.343442 3.281747,-1.982881 1.800193,-1.590367 2.962289,-3.363353 3.505738,-5.826108 0.174663,-0.651865 0.19026,-1.579246 0.19026,-1.579246 -0.02463,-0.0078 -0.460986,0.155947 -0.768306,0.259908 -6.342491,2.376116 -12.336707,6.755252 -16.700892,12.360651 -0.725693,0.970004 -1.939772,2.589327 -2.556821,3.588441 -0.646153,1.107757 -1.471398,2.318911 -1.446964,2.488479 -0.0034,0.156277 0.485097,1.005653 0.556735,0.964293 0.03716,-0.02146 0.221429,-0.252742 0.471491,-0.455891 z m -10.799627,1.018804 c -0.159067,-0.275512 -2.814569,-2.011769 -4.094028,-2.669001 -0.139819,-0.07356 -0.514113,-0.254201 -0.593646,-0.391957 -0.192494,-0.07254 -0.514113,-0.254202 -0.651869,-0.174668 -0.135556,-0.0025 -0.572335,-0.03691 -0.927381,-0.0156 -5.035979,-0.19658 -10.781591,1.081861 -16.524248,3.644319 -3.024394,1.378785 -6.523398,3.398936 -9.579586,5.613429 l -0.388612,0.281305 0.196259,0.254038 c 0.304723,0.375093 1.815607,1.872189 2.59218,2.580985 0.752713,0.66747 2.06726,1.671794 2.130886,1.781999 0.04939,0.01557 0.40134,-0.259261 1.024107,-0.77127 1.869067,-1.630131 3.539036,-2.777962 5.922217,-4.153892 2.122227,-1.223459 3.311743,-1.803668 5.528434,-2.640818 2.676883,-0.994475 5.870999,-1.920226 8.867576,-2.456413 1.709471,-0.252266 4.478256,-0.546733 6.115729,-0.573754 0.355045,-0.02131 0.710091,-0.04263 0.710091,-0.04263 0.02856,-0.01098 0.0054,-0.09867 -0.0327,-0.164796 z m 8.461341,-5.068833 c 0.96924,-1.661639 2.948207,-4.310328 4.636479,-6.221796 3.113818,-3.450836 6.418096,-6.221833 10.468128,-8.56012 2.410728,-1.391835 4.3913,-2.351644 6.57226,-3.059797 0.607494,-0.220328 1.043828,-0.418979 1.043828,-0.418979 0.104695,-0.06045 -0.164777,-1.55794 -0.355963,-2.843486 -0.281228,-1.123357 -0.806455,-2.98748 -0.939112,-3.535384 l -0.120486,-0.297787 -0.438719,0.194519 c -4.509039,2.052271 -8.008046,4.072423 -11.436875,6.786758 -4.28604,3.39292 -7.770091,7.443228 -9.847155,11.544483 l -0.450181,0.810936 0.06393,1.065137 c -0.04171,2.154707 0.108043,4.768268 0.26711,5.043781 0.07953,0.137756 0.100214,0.125816 0.609248,-0.535425 z M 50.037442,51.394905 c -1.165981,-0.428869 -3.32084,-0.948039 -4.416802,-1.160189 -5.390759,-1.001958 -10.255875,-0.489018 -14.764913,1.563252 -1.5673,0.721207 -3.93693,2.216048 -5.364953,3.464808 -0.884759,0.69449 -1.001204,1.129069 -1.065667,1.717311 0.03784,0.345502 0.02682,0.351864 0.512288,1.173629 0.485467,0.821764 1.432904,2.240081 1.680707,2.592934 0.09203,0.108502 0.472055,0.645832 0.646275,0.912597 0.01806,0.02814 0.09999,-0.0081 0.148095,-0.06162 0.241312,-0.218303 1.645537,-1.317402 2.747586,-1.95367 1.440301,-0.972988 4.783543,-2.881168 6.423952,-3.666622 1.953016,-0.943899 4.536591,-2.068178 5.839034,-2.452794 3.345647,-1.013236 5.11334,-1.48279 7.300277,-1.735208 0.492802,-0.100844 0.847848,-0.122155 0.847848,-0.122155 0.02971,-0.01534 -0.296824,-0.195979 -0.731403,-0.312424 z M 71.159216,39.383918 c 1.282957,-1.65909 2.96229,-3.363351 4.675563,-4.977005 1.218489,-1.070845 3.55593,-2.971391 4.41314,-3.649977 0.266764,-0.174222 0.526371,-0.360839 0.653788,-0.458281 0.126034,-0.09664 0.929293,-0.617344 1.957155,-1.254863 2.320885,-1.452005 5.206925,-2.974992 7.294831,-3.844322 0.301757,-0.113609 0.732525,-0.321902 0.728548,-0.32879 0.01998,-0.07031 -0.896179,-1.870363 -1.394691,-3.051945 -0.771112,-1.520119 -0.89792,-1.685684 -1.476469,-1.92105 -0.514114,-0.254201 -0.869159,-0.232889 -1.77523,0.106556 -2.511573,0.899033 -5.19782,2.449939 -7.156442,4.08402 -4.165178,3.506815 -7.076014,8.677208 -8.413112,15.014528 -0.153357,1.006915 -0.153357,1.006915 -0.153357,1.006915 0.03923,-0.04653 0.333735,-0.376357 0.66747,-0.752715 z"
       id="path75" />
  </g>
</svg>
