<?xml version="1.0" encoding="UTF-8" standalone="no"?>
<!-- Created with Inkscape (http://www.inkscape.org/) -->

<svg
   width="512"
   height="512"
   viewBox="0 0 135.46666 135.46667"
   version="1.1"
   id="svg5"
   inkscape:version="1.1 (c68e22c387, 2021-05-23)"
   sodipodi:docname="permission.svg"
   xmlns:inkscape="http://www.inkscape.org/namespaces/inkscape"
   xmlns:sodipodi="http://sodipodi.sourceforge.net/DTD/sodipodi-0.dtd"
   xmlns="http://www.w3.org/2000/svg"
   xmlns:svg="http://www.w3.org/2000/svg">
  <sodipodi:namedview
     id="namedview7"
     pagecolor="#505050"
     bordercolor="#eeeeee"
     borderopacity="1"
     inkscape:pageshadow="0"
     inkscape:pageopacity="0"
     inkscape:pagecheckerboard="0"
     inkscape:document-units="px"
     showgrid="false"
     inkscape:zoom="0.46324355"
     inkscape:cx="93.903088"
     inkscape:cy="227.74197"
     inkscape:window-width="1366"
     inkscape:window-height="705"
     inkscape:window-x="-8"
     inkscape:window-y="-8"
     inkscape:window-maximized="1"
     inkscape:current-layer="layer1"
     units="px" />
  <defs
     id="defs2">
    <rect
       x="0"
       y="384.00006"
       width="511.99998"
       height="127.99992"
       id="rect12253" />
  </defs>
  <g
     inkscape:label="Calque 1"
     inkscape:groupmode="layer"
     id="layer1">
    <path
       style="color:#000000;fill:#000000;fill-rule:evenodd;stroke-width:8.46667;-inkscape-stroke:none"
       d="M 16.933335,0 H 118.53333 c 9.38107,0 16.93333,7.5522663 16.93333,16.933332 V 118.53333 c 0,9.38106 -7.55226,16.93333 -16.93333,16.93333 H 16.933335 C 7.552269,135.46666 2.7270507e-6,127.91439 2.7270507e-6,118.53333 V 16.933332 C 2.7270507e-6,7.5522663 7.552269,0 16.933335,0 Z"
       id="rect846" />
    <path
       style="color:#000000;fill:#ffff00;fill-rule:evenodd;stroke-width:8.46667;-inkscape-stroke:none"
       d="M 16.933332,8.5685921 H 118.53333 c 4.69054,0 8.46667,3.7761329 8.46667,8.4666659 v 84.666662 c 0,4.69054 -3.77613,8.46667 -8.46667,8.46667 H 16.933332 c -4.690533,0 -8.4666658,-3.77613 -8.4666658,-8.46667 V 17.035258 c 0,-4.690533 3.7761328,-8.4666659 8.4666658,-8.4666659 z"
       id="rect846-1" />
    <path
       style="color:#000000;fill:#000000;fill-rule:evenodd;stroke-width:0.264583;-inkscape-stroke:none"
       d="M 8.4666689,101.60001 H 127 c 4.69053,0 8.46666,3.77614 8.46666,8.46667 v 8.46667 c 0,4.69053 -3.77613,8.46666 -8.46666,8.46666 H 8.4666689 c -4.690533,0 -8.4666661729493,-3.77613 -8.4666661729493,-8.46666 v -8.46667 c 0,-4.69053 3.7761331729493,-8.46667 8.4666661729493,-8.46667 z"
       id="rect1024" />
    <g
       aria-label="PERMISSION"
       transform="matrix(0.26458333,0,0,0.26458333,25.42124,6.8438898)"
       id="text12251"
       style="font-weight:500;font-size:53.3333px;font-family:'Brandon Text';-inkscape-font-specification:'Brandon Text, Medium';white-space:pre;fill:#ffffff">
      <path
         style="color:#000000;-inkscape-font-specification:'Brandon Text, Medium';-inkscape-stroke:none"
         d="m 4.2133308,426.98664 c 0,0.53333 0.4266664,1.01333 1.0133328,1.01333 h 6.2933294 c 0.533333,0 1.013333,-0.48 1.013333,-1.01333 v -12.53332 h 5.599997 c 6.986662,0 11.893326,-5.38667 11.893326,-12 0,-6.45333 -4.906664,-11.78666 -11.94666,-11.78666 H 5.2266636 c -0.5866664,0 -1.0133328,0.48 -1.0133328,1.01334 z m 8.3199952,-20.31999 v -8.15999 h 5.386663 c 2.293332,0 3.893331,1.70666 3.893331,3.94666 0,2.4 -1.599999,4.21333 -3.893331,4.21333 z"
         id="path863" />
      <path
         style="color:#000000;-inkscape-font-specification:'Brandon Text, Medium';-inkscape-stroke:none"
         d="m 35.413263,426.98664 c 0,0.53333 0.426666,1.01333 1.013333,1.01333 h 22.079986 c 0.586667,0 1.013333,-0.48 1.013333,-1.01333 v -5.81333 c 0,-0.53333 -0.426666,-1.01333 -1.013333,-1.01333 H 43.733258 v -7.2 h 12.159993 c 0.533333,0 1.013332,-0.42666 1.013332,-1.01333 v -5.81333 c 0,-0.53333 -0.479999,-1.01333 -1.013332,-1.01333 H 43.733258 v -6.61333 h 14.773324 c 0.586667,0 1.013333,-0.48 1.013333,-1.01333 V 391.68 c 0,-0.53334 -0.426666,-1.01334 -1.013333,-1.01334 H 36.426596 c -0.586667,0 -1.013333,0.48 -1.013333,1.01334 z"
         id="path865" />
      <path
         style="color:#000000;-inkscape-font-specification:'Brandon Text, Medium';-inkscape-stroke:none"
         d="m 66.239866,426.98664 c 0,0.53333 0.426666,1.01333 1.013333,1.01333 h 6.346662 c 0.533333,0 1.013333,-0.48 1.013333,-1.01333 v -13.59999 h 3.679998 l 7.093329,14.13332 c 0.106667,0.21334 0.426667,0.48 0.853333,0.48 h 7.093329 c 0.906666,0 1.279999,-0.85333 0.906666,-1.54666 l -7.306662,-13.54666 c 4.959997,-1.86667 7.893328,-5.81333 7.893328,-10.71999 0,-6.34667 -4.85333,-11.52 -11.626659,-11.52 H 67.253199 c -0.586667,0 -1.013333,0.48 -1.013333,1.01334 z m 8.373328,-20.37332 v -8.32 h 7.893329 c 2.186665,0 4.053331,1.54667 4.053331,4.05334 0,2.50666 -1.866666,4.26666 -4.053331,4.26666 z"
         id="path867" />
      <path
         style="color:#000000;-inkscape-font-specification:'Brandon Text, Medium';-inkscape-stroke:none"
         d="m 99.573113,426.82664 c -0.106666,0.69333 0.373333,1.17333 1.013337,1.17333 h 6.29333 c 0.53333,0 0.96,-0.42666 1.01333,-0.85333 l 2.34666,-16.47999 h 0.10667 l 9.01333,17.27999 c 0.16,0.32 0.58666,0.58667 0.90666,0.58667 h 0.96 c 0.26667,0 0.74667,-0.26667 0.90667,-0.58667 l 8.95999,-17.27999 h 0.10667 l 2.4,16.47999 c 0.0533,0.42667 0.53333,0.85333 1.01333,0.85333 h 6.29333 c 0.64,0 1.12,-0.48 1.01333,-1.17333 l -6.02666,-35.83998 c -0.0533,-0.48 -0.53333,-0.85333 -0.96,-0.85333 h -0.85333 c -0.26667,0 -0.74667,0.21333 -0.90667,0.53333 l -12.37332,23.03999 h -0.10667 l -12.37333,-23.03999 c -0.16,-0.32 -0.63999,-0.53333 -0.90666,-0.53333 h -0.85333 c -0.42667,0 -0.90667,0.37333 -0.96,0.85333 z"
         id="path869" />
      <path
         style="color:#000000;-inkscape-font-specification:'Brandon Text, Medium';-inkscape-stroke:none"
         d="m 148.373,426.98664 c 0,0.53333 0.48,1.01333 1.01333,1.01333 h 6.4 c 0.53333,0 1.01333,-0.48 1.01333,-1.01333 V 391.68 c 0,-0.53334 -0.48,-1.01334 -1.01333,-1.01334 h -6.4 c -0.53333,0 -1.01333,0.48 -1.01333,1.01334 z"
         id="path871" />
      <path
         style="color:#000000;-inkscape-font-specification:'Brandon Text, Medium';-inkscape-stroke:none"
         d="m 175.83964,428.53331 c 7.84,0 12.58666,-5.54667 12.58666,-11.04 0,-7.25333 -6.07999,-9.86666 -10.77332,-12.15999 -3.73334,-1.81333 -5.81333,-3.2 -5.81333,-4.96 0,-1.54666 1.01333,-2.93333 3.25333,-2.93333 2.82666,0 5.97333,2.02667 7.19999,2.88 1.06667,0.64 1.97333,0.21333 2.34667,-0.37333 l 2.72,-4.10667 c 0.21333,-0.37333 0.32,-1.33333 -0.32,-1.70666 -1.6,-1.17334 -5.86667,-4 -11.41333,-4 -8.21333,0 -12.31999,5.33333 -12.31999,10.61333 0,6.39999 5.17333,9.27999 10.34666,11.78666 3.52,1.70666 5.49333,3.14666 5.49333,5.38666 0,1.86667 -1.54667,3.2 -3.68,3.2 -3.36,0 -6.08,-1.92 -7.57333,-2.93333 -0.53333,-0.37334 -1.38666,-0.37334 -1.81333,0.32 l -2.45333,4.31999 c -0.37334,0.69334 -0.21334,1.17334 0.21333,1.6 1.22667,1.22667 5.06666,4.10667 11.99999,4.10667 z"
         id="path873" />
      <path
         style="color:#000000;-inkscape-font-specification:'Brandon Text, Medium';-inkscape-stroke:none"
         d="m 205.33293,428.53331 c 7.83999,0 12.58666,-5.54667 12.58666,-11.04 0,-7.25333 -6.08,-9.86666 -10.77333,-12.15999 -3.73333,-1.81333 -5.81333,-3.2 -5.81333,-4.96 0,-1.54666 1.01333,-2.93333 3.25333,-2.93333 2.82667,0 5.97333,2.02667 7.2,2.88 1.06666,0.64 1.97333,0.21333 2.34666,-0.37333 l 2.72,-4.10667 c 0.21334,-0.37333 0.32,-1.33333 -0.32,-1.70666 -1.6,-1.17334 -5.86666,-4 -11.41332,-4 -8.21333,0 -12.32,5.33333 -12.32,10.61333 0,6.39999 5.17333,9.27999 10.34666,11.78666 3.52,1.70666 5.49333,3.14666 5.49333,5.38666 0,1.86667 -1.54666,3.2 -3.67999,3.2 -3.36,0 -6.08,-1.92 -7.57333,-2.93333 -0.53334,-0.37334 -1.38667,-0.37334 -1.81333,0.32 l -2.45334,4.31999 c -0.37333,0.69334 -0.21333,1.17334 0.21334,1.6 1.22666,1.22667 5.06666,4.10667 11.99999,4.10667 z"
         id="path875" />
      <path
         style="color:#000000;-inkscape-font-specification:'Brandon Text, Medium';-inkscape-stroke:none"
         d="m 224.21289,426.98664 c 0,0.53333 0.48,1.01333 1.01333,1.01333 h 6.4 c 0.53333,0 1.01333,-0.48 1.01333,-1.01333 V 391.68 c 0,-0.53334 -0.48,-1.01334 -1.01333,-1.01334 h -6.4 c -0.53333,0 -1.01333,0.48 -1.01333,1.01334 z"
         id="path877" />
      <path
         style="color:#000000;-inkscape-font-specification:'Brandon Text, Medium';-inkscape-stroke:none"
         d="m 238.93289,409.38665 c 0,10.66666 8.47999,19.14666 19.14665,19.14666 10.66666,0 19.19999,-8.48 19.19999,-19.14666 0,-10.66666 -8.53333,-19.25332 -19.19999,-19.25332 -10.66666,0 -19.14665,8.58666 -19.14665,19.25332 z m 8.53333,0 c 0,-5.86666 4.79999,-10.71999 10.61332,-10.71999 5.86667,0 10.66666,4.85333 10.66666,10.71999 0,5.81333 -4.79999,10.61333 -10.66666,10.61333 -5.81333,0 -10.61332,-4.8 -10.61332,-10.61333 z"
         id="path879" />
      <path
         style="color:#000000;-inkscape-font-specification:'Brandon Text, Medium';-inkscape-stroke:none"
         d="m 283.5728,426.98664 c 0,0.53333 0.48,1.01333 1.01333,1.01333 h 6.34666 c 0.58667,0 1.01334,-0.48 1.01334,-1.01333 v -19.89332 c 0,0 0.0533,0 0.0533,0 l 20.74665,20.85332 c 0.42667,0.42667 0.8,0.58667 1.33334,0.58667 h 0.53333 c 0.53333,0 1.01333,-0.32 1.01333,-0.96 V 391.68 c 0,-0.53334 -0.48,-1.01334 -1.01333,-1.01334 h -6.4 c -0.58666,0 -1.01333,0.48 -1.01333,1.01334 v 18.93332 c 0,0 -0.0533,0 -0.0533,0 l -20.47999,-19.67999 c -0.42667,-0.42667 -0.8,-0.8 -1.33333,-0.8 h -0.8 c -0.53334,0 -1.01334,0.42667 -1.01334,0.96 z"
         id="path881" />
    </g>
    <path
       style="color:#000000;fill:#000000;stroke:#000000;stroke-width:0.785574;stroke-miterlimit:4;stroke-dasharray:none;stroke-opacity:1"
       d="m 69.849621,91.964571 c -0.434196,0.192517 -1.885822,0.54343 -2.441716,0.682588 -0.702778,0.04217 -1.825109,0.144822 -2.620234,0.05857 -1.211595,-0.2094 -4.509188,-0.977741 -6.707494,-1.762692 -1.075258,-0.288114 -2.363043,-0.94434 -3.324035,-1.443855 -6.408008,-3.353541 -8.76763,-8.353614 -6.91832,-14.816631 0.115245,-0.430103 0.288116,-1.075255 0.482076,-1.36902 0.05762,-0.215052 0.251582,-0.508818 0.115245,-0.430103 -0.02071,-0.0044 -0.309669,0.09335 -0.61068,0.201697 -4.023229,1.59568 -8.282637,1.019079 -12.476595,-1.522211 -0.58753,-0.387921 -1.175063,-0.775841 -2.16656,-1.548593 -1.348233,-1.075786 -3.438904,-3.12265 -5.077967,-5.048505 -1.382546,-1.764926 -3.150792,-4.197904 -3.985163,-5.643078 -0.708428,-1.227035 -0.81106,-2.349369 -0.465322,-3.639677 0.345736,-1.29031 0.897261,-1.972298 2.96789,-3.549521 0.875644,-0.687337 4.284073,-2.655195 5.299042,-3.101217 2.86745,-1.110175 5.390967,-1.839997 8.366245,-1.976265 1.756943,-0.105458 3.495055,-0.05461 5.192831,0.146761 2.756724,0.335303 6.697927,1.368296 9.460152,2.500268 1.940811,0.842726 4.007,1.776673 5.882316,2.820816 0.802583,0.445544 1.3114,0.697126 1.390115,0.833463 0.01661,0.0068 0.03803,-0.141935 -0.02109,-0.351388 l -0.02109,-0.351389 -0.586434,-0.933902 c -1.079496,-1.721752 -2.544692,-3.148107 -5.035939,-4.818272 -1.523928,-1.065236 -3.85718,-2.335807 -5.259797,-2.907554 -0.723869,-0.309206 -0.881298,-0.58188 -1.11744,-0.990892 -0.335949,-0.896738 0.518605,-1.935463 1.474247,-1.760072 0.781491,0.09415 4.267173,1.880957 6.472523,3.370797 2.636022,1.732005 4.381481,3.432829 5.627689,5.27647 l 0.357135,0.520939 0.272668,-0.157425 0.272675,-0.157428 -0.273923,-0.568983 c -1.490522,-3.211381 -2.162348,-8.05885 -1.695685,-13.327308 0.07306,-1.132881 0.18831,-1.562983 0.518607,-1.935464 0.660595,-0.744961 1.978172,-0.414967 2.329863,0.509039 0.05281,0.151293 0.0998,0.487727 0.120896,0.839114 -0.291012,3.494643 -0.241899,6.193031 0.161133,8.559836 0.262884,2.029619 0.866462,3.389902 1.598505,4.657837 0.412633,0.670682 0.502283,0.800705 0.687337,0.875647 l 0.215051,0.05762 0.01945,-0.193009 c 0.0019,-0.122846 -0.04219,-0.702778 0.05197,-1.484271 0.07141,-6.330911 1.395295,-12.476035 3.699874,-17.205925 1.708657,-3.495098 3.947218,-6.387222 6.742953,-8.692115 2.381532,-1.920328 5.558185,-3.754371 8.381647,-4.657366 1.384466,-0.435754 2.838377,-0.184475 4.043381,0.737683 0.666247,0.524257 1.117441,0.990891 1.870574,2.610216 4.148547,8.130065 5.355317,15.415418 3.470741,20.620868 -0.821639,2.292202 -2.168399,4.178631 -4.057573,5.723801 -0.243549,0.207875 -0.486313,0.417111 -0.479229,0.429381 -0.0051,0.01936 0.137323,0.05524 0.215052,0.05762 0.180531,0.02302 0.860206,0.230491 1.641698,0.324645 4.963467,1.260814 7.972274,4.268214 8.957674,8.934639 0.63567,3.305008 0.28621,7.705955 -1.12417,12.410388 -0.65493,2.014177 -0.94994,2.857097 -1.66393,3.887384 -1.078881,1.531804 -2.093947,2.48142 -3.876881,3.329013 -1.774245,0.957076 -3.900522,1.524836 -5.807435,1.716877 -2.947443,0.247442 -5.936246,-0.899137 -8.960632,-3.461257 -0.666247,-0.524254 -1.631609,-1.566596 -1.980476,-1.855991 -0.08872,-0.103297 -0.216079,-0.238812 -0.236508,-0.227017 -0.04385,-0.02559 1.016587,1.848963 2.354731,4.166698 2.424397,4.19918 2.438864,4.22719 2.444438,4.533003 0.0054,0.173177 0.02109,0.351389 -0.03653,0.56644 -0.05762,0.215052 -0.445543,0.802585 -0.581881,0.881299 -0.406796,0.239981 -1.11179,0.278327 -1.484271,-0.05197 l -0.292406,-0.194747 -2.440142,-4.226453 c -1.338144,-2.317734 -2.432905,-4.176102 -2.431101,-4.122607 0.0024,0.05135 0.02281,0.168612 0.07836,0.318328 0.09335,0.309672 0.511946,1.831289 0.554129,2.534068 0.934103,4.986889 -0.03606,8.564622 -3.148882,11.579752 -1.069608,0.981097 -2.054324,1.731406 -3.10412,2.33751 -0.548671,0.309097 -1.102514,0.609242 -1.246716,0.674337 z m 1.172985,-4.076561 c 1.069606,-0.981104 1.64531,-1.49527 2.322626,-2.431667 2.302359,-3.474312 1.573171,-8.924904 -2.268007,-16.963389 l -0.546543,-1.138709 -0.645155,-0.172869 c -1.075259,-0.288115 -1.447738,-0.618413 -2.187652,-1.899982 l -0.507733,-0.797559 -1.190502,0.141988 c -2.882366,0.391655 -5.456201,1.223241 -8.102835,2.369534 -1.014182,0.447384 -3.892218,2.074481 -4.495473,2.540927 -0.247485,0.201056 -0.480803,0.426654 -0.660595,0.74496 -0.503165,1.017634 -1.254825,2.360521 -1.584968,3.205552 -0.366829,0.938921 -0.965132,2.956745 -1.06659,3.851528 -0.130686,1.347935 -0.09355,2.671685 0.311699,3.782908 0.257234,0.760401 1.054975,2.13583 1.669978,2.816919 1.361457,1.413542 3.210636,2.727271 5.661806,3.729797 1.909326,0.788192 4.711321,1.642703 6.622604,1.993488 2.368655,0.450288 4.580142,-0.190274 6.644444,-1.872913 z m -5.75894,-4.055464 c -2.161583,0.884426 -4.730109,0.276867 -6.256863,-1.42298 -0.426654,-0.480803 -1.014285,-1.504908 -1.184492,-2.061053 -0.278326,-1.11179 -0.286501,-2.070523 0.0052,-3.20242 0.288114,-1.075259 0.618412,-1.447739 1.210836,-2.153342 0.387921,-0.587532 0.524258,-0.666247 1.383181,-1.162147 0.817284,-0.473565 0.963814,-0.534626 1.45572,-0.658677 1.599515,-0.378131 3.227579,-0.04562 4.520144,0.807808 0.960013,0.718219 1.584378,1.484795 1.983299,2.490605 0.493375,1.169406 0.483285,2.41136 0.203605,3.627168 -0.460982,1.720413 -1.753359,3.102809 -3.371138,3.76416 z m 0.04715,-3.444738 c 0.330298,-0.37248 0.581881,-0.881298 0.618412,-1.447739 0.245931,-1.778036 -1.091907,-3.150669 -2.848851,-3.045213 -0.566439,-0.03653 -0.702776,0.04219 -1.248125,0.357041 -0.545349,0.314856 -0.674596,0.405851 -1.011984,0.76605 -0.387919,0.587533 -0.560787,1.232687 -0.518603,1.935466 0.02109,0.351389 0.0998,0.487726 0.414663,1.033077 0.314857,0.545348 0.407207,0.673812 0.687335,0.875639 0.666246,0.524259 1.584074,0.5397 2.491357,0.379446 0.312819,-0.0879 0.967728,-0.527847 1.306699,-0.885303 z m 30.801291,-6.94888 c 0.875657,-0.687338 1.593862,-1.647348 2.110672,-2.672857 0.560784,-1.232688 1.746682,-5.916587 1.841661,-7.389333 0.0331,-0.200886 0.11525,-0.430104 0.0365,-0.566441 -0.0211,-0.351389 0.2094,-1.21159 0.1883,-1.562979 0.0304,-0.199309 0.0365,-0.566441 0.0365,-0.566441 0.0138,-0.02974 -0.0211,-0.351389 0.0154,-0.91783 -0.24465,-4.07611 -1.843531,-6.625051 -5.0585,-8.131871 -0.723863,-0.309207 -2.690809,-0.882348 -3.743997,-1.037778 -0.781493,-0.09415 -2.453549,-0.21949 -3.762118,-0.282011 -0.917829,-0.01544 -1.190504,0.141989 -3.153759,1.275476 -3.34262,1.924406 -6.191515,4.483589 -8.918211,7.821143 l -0.466636,0.451194 0.519661,0.972457 c 0.664804,1.252214 0.750608,1.929808 0.575215,2.88545 l -0.115245,0.430103 0.619169,0.915004 c 1.702753,2.634397 3.473521,4.756885 5.199586,6.487088 0.224234,0.234104 0.529909,0.602972 0.744961,0.660596 0.131865,0.10565 0.451195,0.466634 0.666247,0.524257 0.160515,0.0891 0.293761,0.193954 0.372476,0.330292 0.01655,0.02865 0.252864,0.217575 0.587531,0.38792 2.213793,1.630397 4.380612,2.360815 6.541373,2.167643 1.811473,-0.136947 4.286629,-1.202414 5.62582,-2.15738 z M 91.240905,68.78004 c -1.984346,0.782096 -4.230294,0.260973 -5.836175,-1.229589 -0.451195,-0.466635 -1.382544,-1.764924 -1.479366,-2.508867 -0.278326,-1.111791 -0.262886,-2.029621 0.08188,-3.101221 0.230484,-0.860204 0.618405,-1.447737 1.210833,-2.153341 0.330297,-0.37248 0.602971,-0.529909 1.205944,-1.059819 0.667505,-0.418133 0.813295,-0.480473 1.420045,-0.688984 2.07669,-0.653628 4.31534,-0.01921 5.78488,1.55006 0.447108,0.468994 1.056677,1.553143 1.24005,2.210759 0.488338,1.790386 0.04424,3.791911 -1.175763,5.205226 -0.660595,0.744961 -1.399904,1.353584 -2.443526,1.592553 z m -0.03774,-3.213946 c 0.73931,-0.608622 1.024335,-1.500314 0.957969,-2.370914 -0.0998,-0.487721 -0.0998,-0.487721 -0.414659,-1.033069 -0.314858,-0.54535 -0.412633,-0.670683 -0.687339,-0.875648 -1.794074,-1.218297 -4.191089,-0.143409 -4.448957,2.023258 -0.167216,1.914375 1.640082,3.470422 3.570456,2.846731 0.462538,-0.143432 0.601236,-0.218059 0.966954,-0.529189 z M 73.296467,63.234269 c 0.199469,-0.284224 0.254579,-0.18877 -2.860154,-5.583649 -3.19643,-5.498569 -2.946033,-5.134143 -3.589069,-5.27188 -0.430103,-0.115244 -0.56644,-0.03653 -1.384464,0.435756 -0.534329,0.333944 -0.524883,0.350305 -0.660595,0.744961 -0.06775,0.175454 -0.11524,0.4301 -0.172863,0.645151 -0.03854,0.204032 0.03745,0.341947 2.831191,5.218626 1.964791,3.428378 2.883503,4.988467 2.9995,5.085096 0.368392,0.332658 0.508816,0.251584 1.599516,-0.378132 0.546087,-0.313578 1.076518,-0.654276 1.056836,-0.688367 z m -7.864555,-2.003581 -0.332579,-0.535116 -0.702778,0.04219 c -7.740678,-0.05731 -15.654751,2.166885 -21.870647,6.173736 -1.641777,1.060586 -4.017575,2.864898 -4.075199,3.079949 -0.01865,0.0653 0.802585,0.445543 1.447739,0.618412 2.95464,0.929988 5.817609,0.567711 8.667056,-1.077418 0.409011,-0.236143 0.803066,-0.49819 1.057634,-0.686978 0.254569,-0.188789 0.761349,-0.570449 1.14832,-0.844767 0.379101,-0.28795 1.292528,-0.909845 1.857272,-1.254079 3.288813,-2.080581 7.816488,-3.967504 12.050851,-4.630744 0.486151,-0.102532 0.839114,-0.120897 0.839114,-0.120897 0.06021,-0.0311 0.0022,-0.163058 -0.25487,-0.579982 z m 8.623962,-4.615483 c 0.990892,-1.11744 2.584757,-2.764791 3.858864,-3.863963 1.740749,-1.550371 3.14811,-2.544694 5.152266,-3.701794 1.540607,-0.88947 1.809884,-1.021306 4.302074,-2.120239 1.021268,-0.435115 2.504448,-1.329604 3.247943,-1.962457 1.78165,-1.573986 2.931776,-3.32871 3.469628,-5.766098 0.172864,-0.645151 0.1883,-1.562979 0.1883,-1.562979 -0.02438,-0.0077 -0.456238,0.15434 -0.760392,0.257231 -6.27716,2.351641 -12.209632,6.685671 -16.528864,12.233333 -0.718218,0.960013 -1.919791,2.562657 -2.530484,3.55148 -0.639498,1.096347 -1.456241,2.295025 -1.432059,2.462847 -0.0034,0.154667 0.480099,0.995294 0.551,0.95436 0.03678,-0.02124 0.219148,-0.250138 0.466634,-0.451195 z m -10.688385,1.00831 c -0.157428,-0.272674 -2.785577,-1.991047 -4.051856,-2.64151 -0.138379,-0.0728 -0.508818,-0.251582 -0.587532,-0.38792 -0.190511,-0.07179 -0.508817,-0.251583 -0.645154,-0.172868 -0.13416,-0.0025 -0.56644,-0.03653 -0.917829,-0.01544 -4.984105,-0.194555 -10.670534,1.070718 -16.354038,3.606782 -2.993241,1.364583 -6.456204,3.363926 -9.480911,5.55561 l -0.38461,0.278407 0.194238,0.251421 c 0.301584,0.37123 1.796905,1.852906 2.565479,2.554401 0.74496,0.660595 2.045966,1.654574 2.108936,1.763644 0.04888,0.01541 0.397207,-0.256591 1.013559,-0.763326 1.849814,-1.61334 3.502582,-2.749348 5.861215,-4.111106 2.100367,-1.210857 3.27763,-1.78509 5.471488,-2.613617 2.649309,-0.984232 5.810524,-1.900447 8.776235,-2.431111 1.691862,-0.249668 4.432127,-0.541102 6.052733,-0.567845 0.351388,-0.02109 0.702777,-0.04219 0.702777,-0.04219 0.02827,-0.01087 0.0053,-0.09765 -0.03236,-0.163098 z m 8.374185,-5.016623 c 0.959256,-1.644524 2.917839,-4.265931 4.58872,-6.15771 3.081744,-3.415292 6.351986,-6.157747 10.360301,-8.471949 2.385896,-1.377499 4.346067,-2.327422 6.504562,-3.028281 0.601236,-0.218058 1.033076,-0.414663 1.033076,-0.414663 0.103617,-0.05983 -0.16308,-1.541893 -0.352296,-2.814198 -0.278332,-1.111786 -0.798149,-2.956708 -0.929439,-3.498969 l -0.119245,-0.294719 -0.4342,0.192515 c -4.462593,2.031132 -7.925559,4.030476 -11.319068,6.716853 -4.241892,3.357972 -7.690056,7.366561 -9.745725,11.425573 l -0.445544,0.802583 0.06327,1.054166 c -0.04128,2.132513 0.10693,4.719154 0.264359,4.991829 0.07871,0.136337 0.09918,0.12452 0.602972,-0.52991 z M 51.455513,51.43071 c -1.153971,-0.424452 -3.286634,-0.938274 -4.371307,-1.148239 -5.335231,-0.991637 -10.150233,-0.483981 -14.612825,1.54715 -1.551157,0.713779 -3.896378,2.193223 -5.309691,3.42912 -0.875646,0.687337 -0.990892,1.117439 -1.054691,1.699622 0.03745,0.341944 0.02654,0.34824 0.507012,1.161541 0.480466,0.8133 1.418143,2.217008 1.663394,2.566226 0.09108,0.107385 0.467193,0.63918 0.639618,0.903197 0.01787,0.02785 0.09896,-0.008 0.14657,-0.06099 0.238826,-0.216055 1.628587,-1.303833 2.719284,-1.933547 1.425465,-0.962966 4.73427,-2.851491 6.357782,-3.628855 1.932899,-0.934177 4.489861,-2.046875 5.778888,-2.42753 3.311185,-1.002799 5.060671,-1.467517 7.225081,-1.717335 0.487726,-0.09981 0.839114,-0.120896 0.839114,-0.120896 0.0294,-0.01518 -0.293766,-0.193961 -0.723869,-0.309206 z M 72.359721,39.543439 c 1.269741,-1.642001 2.931776,-3.328708 4.627401,-4.925741 1.205939,-1.059815 3.519303,-2.940785 4.367683,-3.612382 0.264015,-0.172427 0.520948,-0.357122 0.647053,-0.45356 0.124736,-0.09564 0.919721,-0.610986 1.936996,-1.241938 2.296978,-1.437049 5.15329,-2.944349 7.21969,-3.804725 0.298648,-0.112439 0.724979,-0.318586 0.721043,-0.325403 0.01977,-0.06959 -0.886948,-1.851098 -1.380325,-3.020509 -0.763169,-1.504462 -0.88867,-1.668322 -1.46126,-1.901263 -0.508819,-0.251583 -0.860207,-0.23049 -1.756945,0.105458 -2.485702,0.889773 -5.144279,2.424704 -7.082726,4.041954 -4.122274,3.470694 -7.003127,8.587831 -8.326452,14.859875 -0.151778,0.996544 -0.151778,0.996544 -0.151778,0.996544 0.03883,-0.04605 0.330298,-0.372481 0.660595,-0.744962 z"
       id="path75" />
  </g>
</svg>
