<?xml version="1.0" encoding="UTF-8" standalone="no"?>
<!-- Created with Inkscape (http://www.inkscape.org/) -->

<svg
   width="512"
   height="512"
   viewBox="0 0 135.46666 135.46667"
   version="1.1"
   id="svg5"
   inkscape:version="1.1 (c68e22c387, 2021-05-23)"
   sodipodi:docname="property.svg"
   inkscape:export-filename="C:\Users\HP\OneDrive\Images\Politique\Tests\Projets\property.png"
   inkscape:export-xdpi="96"
   inkscape:export-ydpi="96"
   xmlns:inkscape="http://www.inkscape.org/namespaces/inkscape"
   xmlns:sodipodi="http://sodipodi.sourceforge.net/DTD/sodipodi-0.dtd"
   xmlns="http://www.w3.org/2000/svg"
   xmlns:svg="http://www.w3.org/2000/svg">
  <sodipodi:namedview
     id="namedview7"
     pagecolor="#505050"
     bordercolor="#eeeeee"
     borderopacity="1"
     inkscape:pageshadow="0"
     inkscape:pageopacity="0"
     inkscape:pagecheckerboard="0"
     inkscape:document-units="px"
     showgrid="false"
     inkscape:zoom="0.46324355"
     inkscape:cx="91.744397"
     inkscape:cy="227.74197"
     inkscape:window-width="1366"
     inkscape:window-height="705"
     inkscape:window-x="-8"
     inkscape:window-y="-8"
     inkscape:window-maximized="1"
     inkscape:current-layer="layer1"
     units="px" />
  <defs
     id="defs2">
    <rect
       x="0"
       y="384.00006"
       width="511.99998"
       height="127.99992"
       id="rect12253" />
  </defs>
  <g
     inkscape:label="Calque 1"
     inkscape:groupmode="layer"
     id="layer1">
    <path
       style="color:#000000;fill:#000000;fill-rule:evenodd;stroke-width:8.46667;-inkscape-stroke:none"
       d="M 16.933335,0 H 118.53333 c 9.38107,0 16.93333,7.5522663 16.93333,16.933332 V 118.53333 c 0,9.38106 -7.55226,16.93333 -16.93333,16.93333 H 16.933335 C 7.552269,135.46666 2.7270507e-6,127.91439 2.7270507e-6,118.53333 V 16.933332 C 2.7270507e-6,7.5522663 7.552269,0 16.933335,0 Z"
       id="rect846" />
    <path
       style="color:#000000;fill:#1fe545;fill-rule:evenodd;stroke-width:8.46667;-inkscape-stroke:none"
       d="M 16.933332,8.5685921 H 118.53333 c 4.69054,0 8.46667,3.7761329 8.46667,8.4666659 v 84.666662 c 0,4.69054 -3.77613,8.46667 -8.46667,8.46667 H 16.933332 c -4.690533,0 -8.4666658,-3.77613 -8.4666658,-8.46667 V 17.035258 c 0,-4.690533 3.7761328,-8.4666659 8.4666658,-8.4666659 z"
       id="rect846-1" />
    <path
       style="color:#000000;fill:#000000;fill-rule:evenodd;stroke-width:0.264583;-inkscape-stroke:none"
       d="M 8.4666689,101.60001 H 127 c 4.69053,0 8.46666,3.77614 8.46666,8.46667 v 8.46667 c 0,4.69053 -3.77613,8.46666 -8.46666,8.46666 H 8.4666689 c -4.690533,0 -8.4666661729493,-3.77613 -8.4666661729493,-8.46666 v -8.46667 c 0,-4.69053 3.7761331729493,-8.46667 8.4666661729493,-8.46667 z"
       id="rect1024" />
    <g
       aria-label="PROPERTY"
       transform="matrix(0.26458333,0,0,0.26458333,24.653827,6.5193333)"
       id="text12251"
       style="font-weight:500;font-size:64px;font-family:'Brandon Text';-inkscape-font-specification:'Brandon Text, Medium';white-space:pre;fill:#ffffff">
      <path
         style="color:#000000;-inkscape-font-specification:'Brandon Text, Medium';-inkscape-stroke:none"
         d="m 5.056,435.584 c 0,0.64 0.512,1.216 1.216,1.216 h 7.552 c 0.64,0 1.216,-0.576 1.216,-1.216 v -15.04 h 6.72 c 8.384,0 14.272,-6.464 14.272,-14.4 C 36.032,398.4 30.144,392 21.696,392 H 6.272 c -0.704,0 -1.216,0.576 -1.216,1.216 z M 15.04,411.2 v -9.792 h 6.464 c 2.752,0 4.672,2.048 4.672,4.736 0,2.88 -1.92,5.056 -4.672,5.056 z"
         id="path1972" />
      <path
         style="color:#000000;-inkscape-font-specification:'Brandon Text, Medium';-inkscape-stroke:none"
         d="m 42.495941,435.584 c 0,0.64 0.512,1.216 1.216,1.216 h 7.616 c 0.64,0 1.216,-0.576 1.216,-1.216 v -16.32 h 4.416 l 8.512,16.96 c 0.128,0.256 0.512,0.576 1.024,0.576 h 8.512 c 1.088,0 1.536,-1.024 1.088,-1.856 l -8.768,-16.256 c 5.952,-2.24 9.472,-6.976 9.472,-12.864 0,-7.616 -5.824,-13.824 -13.952,-13.824 h -19.136 c -0.704,0 -1.216,0.576 -1.216,1.216 z m 10.048,-24.448 v -9.984 h 9.472 c 2.624,0 4.864,1.856 4.864,4.864 0,3.008 -2.24,5.12 -4.864,5.12 z"
         id="path1974" />
      <path
         style="color:#000000;-inkscape-font-specification:'Brandon Text, Medium';-inkscape-stroke:none"
         d="m 82.303861,414.464 c 0,12.8 10.176,22.976 22.975999,22.976 12.8,0 23.04,-10.176 23.04,-22.976 0,-12.8 -10.24,-23.104 -23.04,-23.104 -12.799999,0 -22.975999,10.304 -22.975999,23.104 z m 10.24,0 c 0,-7.04 5.76,-12.864 12.735999,-12.864 7.04,0 12.8,5.824 12.8,12.864 0,6.976 -5.76,12.736 -12.8,12.736 -6.975999,0 -12.735999,-5.76 -12.735999,-12.736 z"
         id="path1976" />
      <path
         style="color:#000000;-inkscape-font-specification:'Brandon Text, Medium';-inkscape-stroke:none"
         d="m 135.8718,435.584 c 0,0.64 0.512,1.216 1.216,1.216 h 7.552 c 0.64,0 1.216,-0.576 1.216,-1.216 v -15.04 h 6.72 c 8.384,0 14.272,-6.464 14.272,-14.4 0,-7.744 -5.888,-14.144 -14.336,-14.144 h -15.424 c -0.704,0 -1.216,0.576 -1.216,1.216 z m 9.984,-24.384 v -9.792 h 6.464 c 2.752,0 4.672,2.048 4.672,4.736 0,2.88 -1.92,5.056 -4.672,5.056 z"
         id="path1978" />
      <path
         style="color:#000000;-inkscape-font-specification:'Brandon Text, Medium';-inkscape-stroke:none"
         d="m 173.31174,435.584 c 0,0.64 0.512,1.216 1.216,1.216 h 26.496 c 0.704,0 1.216,-0.576 1.216,-1.216 v -6.976 c 0,-0.64 -0.512,-1.216 -1.216,-1.216 h -17.728 v -8.64 h 14.592 c 0.64,0 1.216,-0.512 1.216,-1.216 v -6.976 c 0,-0.64 -0.576,-1.216 -1.216,-1.216 h -14.592 v -7.936 h 17.728 c 0.704,0 1.216,-0.576 1.216,-1.216 v -6.976 c 0,-0.64 -0.512,-1.216 -1.216,-1.216 h -26.496 c -0.704,0 -1.216,0.576 -1.216,1.216 z"
         id="path1980" />
      <path
         style="color:#000000;-inkscape-font-specification:'Brandon Text, Medium';-inkscape-stroke:none"
         d="m 210.30368,435.584 c 0,0.64 0.512,1.216 1.216,1.216 h 7.616 c 0.64,0 1.216,-0.576 1.216,-1.216 v -16.32 h 4.416 l 8.512,16.96 c 0.128,0.256 0.512,0.576 1.024,0.576 h 8.512 c 1.088,0 1.536,-1.024 1.088,-1.856 l -8.768,-16.256 c 5.952,-2.24 9.472,-6.976 9.472,-12.864 0,-7.616 -5.824,-13.824 -13.952,-13.824 h -19.136 c -0.704,0 -1.216,0.576 -1.216,1.216 z m 10.048,-24.448 v -9.984 h 9.472 c 2.624,0 4.864,1.856 4.864,4.864 0,3.008 -2.24,5.12 -4.864,5.12 z"
         id="path1982" />
      <path
         style="color:#000000;-inkscape-font-specification:'Brandon Text, Medium';-inkscape-stroke:none"
         d="m 259.6476,435.584 c 0,0.64 0.576,1.216 1.216,1.216 h 7.68 c 0.64,0 1.216,-0.576 1.216,-1.216 v -34.176 h 9.152 c 0.704,0 1.216,-0.576 1.216,-1.216 v -6.976 c 0,-0.64 -0.512,-1.216 -1.216,-1.216 h -28.416 c -0.704,0 -1.216,0.576 -1.216,1.216 v 6.976 c 0,0.64 0.512,1.216 1.216,1.216 h 9.152 z"
         id="path1984" />
      <path
         style="color:#000000;-inkscape-font-specification:'Brandon Text, Medium';-inkscape-stroke:none"
         d="m 295.9995,435.584 c 0,0.64 0.512,1.216 1.216,1.216 h 7.616 c 0.64,0 1.216,-0.576 1.216,-1.216 v -20.416 l 14.336,-21.312 c 0.512,-0.832 0,-1.856 -1.024,-1.856 h -8.32 c -0.576,0 -0.832,0.32 -1.024,0.576 l -8.896,13.12 -8.896,-13.12 c -0.192,-0.256 -0.512,-0.576 -1.024,-0.576 h -8.32 c -1.024,0 -1.536,1.024 -1.024,1.856 l 14.144,21.376 z"
         id="path1986" />
    </g>
    <path
       style="color:#000000;fill:#000000;stroke-width:0.141718;-inkscape-stroke:none"
       d="m 30.951708,92.928142 c -0.57044,-0.248497 -1.16622,-0.972642 -1.26786,-1.540998 -0.0449,-0.251047 -0.0633,-14.270817 -0.0411,-31.155048 l 0.0405,-30.698595 0.62979,-0.907033 c 0.63779,-0.918578 1.74369,-2.44108 3.64431,-5.017184 0.57511,-0.779507 1.37917,-1.878049 1.78681,-2.441192 0.40764,-0.56315 1.01907,-1.407714 1.35875,-1.876805 0.33968,-0.469097 0.67374,-0.818198 0.74235,-0.775783 0.0686,0.04242 0.0921,-0.0079 0.0523,-0.111656 -0.12436,-0.32414 0.81539,-1.202547 1.47723,-1.380786 0.54285,-0.146195 0.67852,-0.128642 1.26826,0.164076 0.59714,0.296402 1.03663,0.843503 4.58975,5.713501 2.16116,2.962141 4.10613,5.635246 4.32215,5.940234 l 0.39276,0.554526 0.0709,5.327241 0.0709,5.32724 3.71988,0.03777 3.71988,0.03777 v -5.109166 c 0,-4.054858 0.0408,-5.207004 0.19808,-5.583307 0.16933,-0.405346 1.64572,-2.48787 4.83203,-6.815808 0.40171,-0.545654 1.32717,-1.821217 2.05655,-2.834587 0.7294,-1.013364 1.4868,-2.018886 1.68314,-2.234493 0.49668,-0.545456 1.2956,-0.741533 2.04926,-0.50295 0.62022,0.196338 1.18638,0.859203 3.42764,4.013006 0.49857,0.701562 1.98742,2.751264 3.30857,4.554891 1.32114,1.803628 2.50307,3.474638 2.6265,3.713354 0.19274,0.372778 0.22442,1.165435 0.22442,5.61654 v 5.182512 l 3.71987,-0.03777 3.71987,-0.03777 0.0709,-5.32724 0.0709,-5.327241 0.39276,-0.554526 c 2.59561,-3.66458 8.34073,-11.371791 8.64043,-11.591298 0.49108,-0.359696 1.60593,-0.369393 2.14119,-0.01864 0.206,0.135 1.85728,2.283191 3.669502,4.773765 4.86847,6.690837 5.3418,7.374764 5.42639,7.840658 0.0425,0.233851 0.0585,14.244443 0.0357,31.134646 l -0.0415,30.709455 -0.29217,0.391366 c -0.1607,0.215248 -0.46824,0.522857 -0.68343,0.683579 -0.3837,0.286583 -0.55684,0.292952 -8.989802,0.330578 l -8.59855,0.03835 -0.62721,-0.321825 c -1.11936,-0.574346 -1.14417,-0.692712 -1.14417,-5.457303 v -4.147794 h -3.75531 -3.75531 v 4.124166 c 0,4.557816 -0.0298,4.738198 -0.89107,5.384462 l -0.45517,0.341559 -8.62623,0.03965 c -8.48719,0.03905 -8.63603,0.03493 -9.23482,-0.254985 -1.13331,-0.548707 -1.1224,-0.498874 -1.17113,-5.347553 l -0.0431,-4.287315 h -3.74177 -3.74176 l -0.0413,4.287315 c -0.0402,4.174759 -0.0496,4.298943 -0.35737,4.730457 -0.66239,0.928755 -0.39159,0.903868 -9.76674,0.897734 -6.73059,-0.0043 -8.57036,-0.0444 -8.91332,-0.19381 z m 15.09911,-32.93376 c 0,-27.037876 -0.0164,-29.046937 -0.23996,-29.373391 -0.20804,-0.303848 -5.82854,-8.064529 -5.93401,-8.193599 -0.0216,-0.0264 -0.42456,0.483795 -0.89546,1.133836 -0.4709,0.650041 -1.54399,2.128066 -2.38464,3.284497 -0.84064,1.156436 -1.83081,2.527665 -2.20036,3.047179 l -0.67193,0.944573 -10e-4,29.089935 -10e-4,29.08994 h 6.16439 6.16436 z m -6.80207,17.728575 c -0.50051,-0.207326 -1.12311,-0.801839 -1.26449,-1.207443 -0.0839,-0.240805 -0.15261,-0.987367 -0.15261,-1.659023 0,-1.537977 0.246,-2.07317 1.16595,-2.536599 0.78292,-0.394408 1.46459,-0.321424 2.11571,0.226534 0.59142,0.497718 0.68901,0.8418 0.6985,2.462828 0.008,1.309884 -0.0183,1.446286 -0.36205,1.89693 -0.20367,0.267058 -0.48726,0.548161 -0.63021,0.624677 -0.34584,0.18511 -1.3046,0.302358 -1.5708,0.192096 z m -0.39099,-26.263102 c -0.80853,-0.49303 -1.02498,-1.027088 -1.02558,-2.530476 -5.4e-4,-1.537983 0.21228,-2.134724 0.91697,-2.57031 0.62609,-0.387 1.66573,-0.382806 2.21581,0.009 0.68315,0.486517 0.83456,0.949453 0.83456,2.551621 0,1.199429 -0.0481,1.521071 -0.28565,1.905291 -0.53945,0.872975 -1.7796,1.169426 -2.65611,0.634934 z m 34.97791,17.963418 c 0.006,-10.776737 0.001,-23.89469 -0.009,-29.150997 l -0.0186,-9.556926 -1.87596,-2.56093 c -1.03177,-1.408506 -2.37257,-3.246539 -2.97953,-4.084514 -0.60697,-0.837976 -1.15782,-1.52359 -1.2241,-1.52359 -0.0663,0 -0.98473,1.19584 -2.04098,2.657426 -1.05624,1.46158 -2.39934,3.314317 -2.98466,4.117195 l -1.06421,1.459769 v 5.8415 c 0,5.414593 -0.0191,5.87725 -0.26237,6.330775 -0.14431,0.269104 -0.43584,0.618892 -0.64788,0.777299 -0.36853,0.27533 -0.61292,0.289804 -5.54772,0.3285 l -5.16222,0.0405 v 4.246833 4.246827 h 3.7553 3.75531 v -1.585138 c 0,-1.882745 0.26275,-2.631858 1.05507,-3.007888 0.76006,-0.36072 1.67428,-0.295695 2.21265,0.15737 0.89375,0.75215 0.84186,-0.547546 0.84186,21.084298 v 19.775789 h 6.09351 6.09352 l 0.0101,-19.594079 z m -6.89981,8.193857 c -0.24324,-0.105885 -0.60991,-0.412349 -0.81483,-0.681046 -0.34723,-0.455303 -0.37254,-0.588851 -0.37204,-1.963315 4.3e-4,-1.211717 0.0497,-1.555563 0.27665,-1.927699 0.40081,-0.657437 0.92395,-0.948017 1.70676,-0.948017 0.7828,0 1.30593,0.29058 1.70675,0.948017 0.22686,0.372136 0.27621,0.715982 0.27664,1.927699 4.3e-4,1.374845 -0.0247,1.507922 -0.37242,1.963819 -0.61504,0.806484 -1.52637,1.064092 -2.40751,0.680542 z m -0.13715,-26.142587 c -0.91013,-0.555066 -1.05025,-0.891535 -1.05025,-2.521868 0,-1.055441 0.0626,-1.59703 0.21944,-1.900502 0.65384,-1.264557 2.72104,-1.315841 3.47074,-0.08611 0.22863,0.375018 0.27672,0.716202 0.27715,1.966455 5.4e-4,1.425514 -0.0209,1.538149 -0.37062,1.953871 -0.72592,0.86283 -1.71972,1.092371 -2.54646,0.588155 z m 34.944002,8.443661 V 30.81906 l -0.67312,-0.933554 c -0.37022,-0.513456 -0.9876,-1.370318 -1.371952,-1.904135 -0.71627,-0.994818 -1.42731,-1.968816 -3.11158,-4.262323 l -0.9602,-1.307527 -0.80981,1.094935 c -0.74514,1.007493 -2.80394,3.839269 -4.64729,6.39211 l -0.75479,1.0453 V 52.55852 c 0,21.42363 -0.002,21.618748 -0.28565,22.076922 -0.76802,1.242851 -2.61159,1.183954 -3.39957,-0.108618 -0.2387,-0.391559 -0.28168,-0.71557 -0.28213,-2.127236 l -5.2e-4,-1.665317 h -3.7553 -3.75531 v 4.251879 4.251878 h 5.03773 c 5.56403,0 5.62414,0.0087 6.16306,0.892688 0.25797,0.423121 0.27666,0.738249 0.27716,4.670185 l 5.3e-4,4.21645 h 6.16437 6.164372 z M 95.082358,77.73547 c -0.59286,-0.215291 -0.88613,-0.435371 -1.1507,-0.863511 -0.25815,-0.417769 -0.28541,-0.654314 -0.24314,-2.110613 l 0.0476,-1.640113 0.50716,-0.464512 c 0.71123,-0.651423 1.39412,-0.754856 2.22392,-0.336829 0.92989,0.468449 1.16598,0.993652 1.16571,2.593182 -2.8e-4,1.412176 -0.21717,2.04567 -0.8623,2.518211 -0.37495,0.274638 -1.30712,0.442591 -1.68825,0.304185 z m -0.38883,-26.226022 c -0.25282,-0.12465 -0.59307,-0.442533 -0.75614,-0.706409 -0.26468,-0.428327 -0.29137,-0.65416 -0.24887,-2.106312 0.0471,-1.612736 0.0514,-1.63037 0.4984,-2.077044 0.60956,-0.609131 1.75867,-0.736589 2.50146,-0.277455 0.73237,0.452683 0.94483,1.034865 0.94422,2.587151 -4.2e-4,1.072057 -0.0542,1.413193 -0.28213,1.786924 -0.57192,0.938167 -1.68742,1.271166 -2.65694,0.793145 z m -37.16424,23.476703 v -4.251879 h -3.75531 -3.7553 v 4.251879 4.251878 h 3.7553 3.75531 z m 0,-13.393421 v -5.031386 h -3.75531 -3.7553 v 5.031386 5.03139 h 3.7553 3.75531 z m 27.91681,0.566921 v -4.464476 h -3.7553 -3.75531 v 4.464476 4.464469 h 3.75531 3.7553 z m -0.0335,-13.287122 0.0374,-4.783366 h -3.75718 -3.7572 v 4.724313 c 0,2.598368 0.0435,4.767879 0.0969,4.821135 0.0532,0.05325 1.72718,0.07983 3.71987,0.05905 l 3.62308,-0.03777 z"
       id="path429" />
  </g>
</svg>
