<?xml version="1.0" encoding="UTF-8" standalone="no"?>
<!-- Created with Inkscape (http://www.inkscape.org/) -->

<svg
   width="512"
   height="512"
   viewBox="0 0 135.46666 135.46667"
   version="1.1"
   id="svg5"
   inkscape:version="1.1 (c68e22c387, 2021-05-23)"
   sodipodi:docname="ValueTemplate - Copie.svg"
   xmlns:inkscape="http://www.inkscape.org/namespaces/inkscape"
   xmlns:sodipodi="http://sodipodi.sourceforge.net/DTD/sodipodi-0.dtd"
   xmlns="http://www.w3.org/2000/svg"
   xmlns:svg="http://www.w3.org/2000/svg">
  <sodipodi:namedview
     id="namedview7"
     pagecolor="#505050"
     bordercolor="#eeeeee"
     borderopacity="1"
     inkscape:pageshadow="0"
     inkscape:pageopacity="0"
     inkscape:pagecheckerboard="0"
     inkscape:document-units="px"
     showgrid="false"
     inkscape:zoom="0.46324355"
     inkscape:cx="93.903088"
     inkscape:cy="227.74197"
     inkscape:window-width="1366"
     inkscape:window-height="705"
     inkscape:window-x="-8"
     inkscape:window-y="-8"
     inkscape:window-maximized="1"
     inkscape:current-layer="layer1"
     units="px" />
  <defs
     id="defs2">
    <rect
       x="0"
       y="384.00006"
       width="511.99998"
       height="127.99992"
       id="rect12253" />
  </defs>
  <g
     inkscape:label="Calque 1"
     inkscape:groupmode="layer"
     id="layer1">
    <rect
       style="fill:#000000;fill-opacity:1;fill-rule:evenodd;stroke:none;stroke-width:8.46667;stroke-miterlimit:4;stroke-dasharray:none;stroke-opacity:1"
       id="rect846"
       width="135.46666"
       height="135.46666"
       x="2.7270507e-06"
       y="0"
       rx="16.933332"
       ry="16.933332"
       inkscape:export-filename="C:\Users\HP\OneDrive\Images\Politique\Tests\Projets\BlankValue.png"
       inkscape:export-xdpi="96"
       inkscape:export-ydpi="96" />
    <rect
       style="fill:#1fe545;fill-opacity:1;fill-rule:evenodd;stroke:none;stroke-width:8.46667;stroke-miterlimit:4;stroke-dasharray:none;stroke-opacity:1"
       id="rect846-1"
       width="118.53333"
       height="101.6"
       x="8.4666662"
       y="8.5685921"
       rx="8.4666662"
       ry="8.4666662"
       inkscape:export-filename="C:\Users\HP\OneDrive\Images\Politique\Tests\Projets\BlankValue.png"
       inkscape:export-xdpi="96"
       inkscape:export-ydpi="96" />
    <rect
       style="opacity:1;vector-effect:none;fill:#000000;fill-opacity:1;fill-rule:evenodd;stroke-width:0.264583;stroke-linecap:butt;stroke-linejoin:miter;stroke-miterlimit:4;stroke-dasharray:none;stroke-dashoffset:0;stroke-opacity:1;-inkscape-stroke:none;stop-color:#000000;stop-opacity:1"
       id="rect1024"
       width="135.46666"
       height="25.4"
       x="2.7270507e-06"
       y="101.60001"
       rx="8.4666662"
       ry="8.4666662"
       inkscape:export-filename="C:\Users\HP\OneDrive\Images\Politique\Tests\Projets\BlankValue.png"
       inkscape:export-xdpi="96"
       inkscape:export-ydpi="96" />
    <text
       xml:space="preserve"
       transform="matrix(0.26458333,0,0,0.26458333,31.833766,6.8438898)"
       id="text12251"
       style="font-style:normal;font-variant:normal;font-weight:500;font-stretch:normal;font-size:53.3333px;line-height:1.25;font-family:'Brandon Text';-inkscape-font-specification:'Brandon Text, Medium';font-variant-ligatures:normal;font-variant-caps:normal;font-variant-numeric:normal;font-variant-east-asian:normal;white-space:pre;shape-inside:url(#rect12253);fill:#ffffff;fill-opacity:1;stroke:none"><tspan
         x="0"
         y="427.99997"
         id="tspan881">PROPERTY</tspan></text>
    <path
       style="color:#000000;fill:#000000;stroke-width:0.141718;-inkscape-stroke:none"
       d="m 30.951708,92.928139 c -0.57044,-0.24849 -1.16622,-0.97264 -1.26786,-1.541 -0.0449,-0.25104 -0.0633,-14.27081 -0.0411,-31.15504 l 0.0405,-30.698598 0.62979,-0.907033 c 0.63779,-0.918578 1.74369,-2.44108 3.64431,-5.017184 0.57511,-0.779507 1.37917,-1.878049 1.78681,-2.441192 0.40764,-0.56315 1.01907,-1.407714 1.35875,-1.876805 0.33968,-0.469097 0.67374,-0.818198 0.74235,-0.775783 0.0686,0.04242 0.0921,-0.0079 0.0523,-0.111656 -0.12436,-0.32414 0.81539,-1.202547 1.47723,-1.380786 0.54285,-0.146195 0.67852,-0.128642 1.26826,0.164076 0.59714,0.296402 1.03663,0.843503 4.58975,5.713501 2.16116,2.962141 4.10613,5.635246 4.32215,5.940234 l 0.39276,0.554526 0.0709,5.327241 0.0709,5.32724 3.71988,0.03777 3.71988,0.03777 v -5.109166 c 0,-4.054858 0.0408,-5.207004 0.19808,-5.583307 0.16933,-0.405346 1.64572,-2.48787 4.83203,-6.815808 0.40171,-0.545654 1.32717,-1.821217 2.05655,-2.834587 0.7294,-1.013364 1.4868,-2.018886 1.68314,-2.234493 0.49668,-0.545456 1.2956,-0.741533 2.04926,-0.50295 0.62022,0.196338 1.18638,0.859203 3.42764,4.013006 0.49857,0.701562 1.98742,2.751264 3.30857,4.554891 1.32114,1.803628 2.50307,3.474638 2.6265,3.713354 0.19274,0.372778 0.22442,1.165435 0.22442,5.61654 v 5.182512 l 3.71987,-0.03777 3.71987,-0.03777 0.0709,-5.32724 0.0709,-5.327241 0.39276,-0.554526 c 2.59561,-3.66458 8.34073,-11.371791 8.64043,-11.591298 0.49108,-0.359696 1.60593,-0.369393 2.14119,-0.01864 0.206,0.135 1.85728,2.283191 3.669502,4.773765 4.86847,6.690837 5.3418,7.374764 5.42639,7.840658 0.0425,0.233851 0.0585,14.244443 0.0357,31.134649 l -0.0415,30.70945 -0.29217,0.39137 c -0.1607,0.21525 -0.46824,0.52285 -0.68343,0.68358 -0.3837,0.28658 -0.55684,0.29295 -8.989802,0.33057 l -8.59855,0.0384 -0.62721,-0.32182 c -1.11936,-0.57435 -1.14417,-0.69271 -1.14417,-5.4573 v -4.1478 h -3.75531 -3.75531 v 4.12417 c 0,4.55781 -0.0298,4.7382 -0.89107,5.38446 l -0.45517,0.34156 -8.62623,0.0396 c -8.48719,0.0391 -8.63603,0.0349 -9.23482,-0.25499 -1.13331,-0.5487 -1.1224,-0.49887 -1.17113,-5.34755 l -0.0431,-4.28731 h -3.74177 -3.74176 l -0.0413,4.28731 c -0.0402,4.17476 -0.0496,4.29894 -0.35737,4.73046 -0.66239,0.92875 -0.39159,0.90387 -9.76674,0.89773 -6.73059,-0.004 -8.57036,-0.0444 -8.91332,-0.19381 z m 15.09911,-32.93376 c 0,-27.037873 -0.0164,-29.046934 -0.23996,-29.373388 -0.20804,-0.303848 -5.82854,-8.064529 -5.93401,-8.193599 -0.0216,-0.0264 -0.42456,0.483795 -0.89546,1.133836 -0.4709,0.650041 -1.54399,2.128066 -2.38464,3.284497 -0.84064,1.156436 -1.83081,2.527665 -2.20036,3.047179 l -0.67193,0.944573 -10e-4,29.089932 -10e-4,29.08994 h 6.16439 6.16436 z m -6.80207,17.72858 c -0.50051,-0.20733 -1.12311,-0.80184 -1.26449,-1.20744 -0.0839,-0.24081 -0.15261,-0.98737 -0.15261,-1.65903 0,-1.53797 0.246,-2.07317 1.16595,-2.5366 0.78292,-0.39441 1.46459,-0.32142 2.11571,0.22654 0.59142,0.49771 0.68901,0.8418 0.6985,2.46283 0.008,1.30988 -0.0183,1.44628 -0.36205,1.89693 -0.20367,0.26705 -0.48726,0.54816 -0.63021,0.62467 -0.34584,0.18511 -1.3046,0.30236 -1.5708,0.1921 z m -0.39099,-26.2631 c -0.80853,-0.49303 -1.02498,-1.02709 -1.02558,-2.53048 -5.4e-4,-1.537983 0.21228,-2.134724 0.91697,-2.57031 0.62609,-0.387 1.66573,-0.382806 2.21581,0.009 0.68315,0.486517 0.83456,0.949453 0.83456,2.551621 0,1.199429 -0.0481,1.521069 -0.28565,1.905289 -0.53945,0.87298 -1.7796,1.16943 -2.65611,0.63494 z m 34.97791,17.96341 c 0.006,-10.77673 0.001,-23.894686 -0.009,-29.150993 l -0.0186,-9.556926 -1.87596,-2.56093 c -1.03177,-1.408506 -2.37257,-3.246539 -2.97953,-4.084514 -0.60697,-0.837976 -1.15782,-1.52359 -1.2241,-1.52359 -0.0663,0 -0.98473,1.19584 -2.04098,2.657426 -1.05624,1.46158 -2.39934,3.314317 -2.98466,4.117195 l -1.06421,1.459769 v 5.8415 c 0,5.414593 -0.0191,5.87725 -0.26237,6.330775 -0.14431,0.269104 -0.43584,0.618892 -0.64788,0.777299 -0.36853,0.27533 -0.61292,0.289804 -5.54772,0.3285 l -5.16222,0.0405 v 4.246833 4.246826 h 3.7553 3.75531 v -1.58514 c 0,-1.882742 0.26275,-2.631855 1.05507,-3.007885 0.76006,-0.36072 1.67428,-0.295695 2.21265,0.15737 0.89375,0.75215 0.84186,-0.547546 0.84186,21.084295 v 19.77579 h 6.09351 6.09352 l 0.0101,-19.59408 z m -6.89981,8.19386 c -0.24324,-0.10588 -0.60991,-0.41235 -0.81483,-0.68104 -0.34723,-0.45531 -0.37254,-0.58886 -0.37204,-1.96332 4.3e-4,-1.21172 0.0497,-1.55556 0.27665,-1.9277 0.40081,-0.65744 0.92395,-0.94802 1.70676,-0.94802 0.7828,0 1.30593,0.29058 1.70675,0.94802 0.22686,0.37214 0.27621,0.71598 0.27664,1.9277 4.3e-4,1.37485 -0.0247,1.50792 -0.37242,1.96382 -0.61504,0.80648 -1.52637,1.06409 -2.40751,0.68054 z m -0.13715,-26.14259 c -0.91013,-0.55506 -1.05025,-0.89153 -1.05025,-2.521864 0,-1.055441 0.0626,-1.59703 0.21944,-1.900502 0.65384,-1.264557 2.72104,-1.315841 3.47074,-0.08611 0.22863,0.375018 0.27672,0.716202 0.27715,1.966455 5.4e-4,1.425511 -0.0209,1.538151 -0.37062,1.953871 -0.72592,0.86283 -1.71972,1.09237 -2.54646,0.58815 z m 34.944002,8.44366 V 30.81906 l -0.67312,-0.933554 c -0.37022,-0.513456 -0.9876,-1.370318 -1.371952,-1.904135 -0.71627,-0.994818 -1.42731,-1.968816 -3.11158,-4.262323 l -0.9602,-1.307527 -0.80981,1.094935 c -0.74514,1.007493 -2.80394,3.839269 -4.64729,6.39211 l -0.75479,1.0453 v 21.614653 c 0,21.42363 -0.002,21.61875 -0.28565,22.07692 -0.76802,1.24285 -2.61159,1.18396 -3.39957,-0.10862 -0.2387,-0.39155 -0.28168,-0.71557 -0.28213,-2.12723 l -5.2e-4,-1.66532 h -3.7553 -3.75531 v 4.25188 4.25188 h 5.03773 c 5.56403,0 5.62414,0.009 6.16306,0.89269 0.25797,0.42312 0.27666,0.73825 0.27716,4.67018 l 5.3e-4,4.21645 h 6.16437 6.164372 z m -6.660352,17.81727 c -0.59286,-0.21529 -0.88613,-0.43537 -1.1507,-0.86351 -0.25815,-0.41777 -0.28541,-0.65431 -0.24314,-2.11061 l 0.0476,-1.64012 0.50716,-0.46451 c 0.71123,-0.65142 1.39412,-0.75485 2.22392,-0.33683 0.92989,0.46845 1.16598,0.99366 1.16571,2.59319 -2.8e-4,1.41217 -0.21717,2.04567 -0.8623,2.51821 -0.37495,0.27463 -1.30712,0.44259 -1.68825,0.30418 z m -0.38883,-26.22602 c -0.25282,-0.12465 -0.59307,-0.44253 -0.75614,-0.70641 -0.26468,-0.42833 -0.29137,-0.65416 -0.24887,-2.106312 0.0471,-1.612736 0.0514,-1.63037 0.4984,-2.077044 0.60956,-0.609131 1.75867,-0.736589 2.50146,-0.277455 0.73237,0.452683 0.94483,1.034865 0.94422,2.587151 -4.2e-4,1.07206 -0.0542,1.41319 -0.28213,1.78692 -0.57192,0.93817 -1.68742,1.27117 -2.65694,0.79315 z m -37.16424,23.4767 v -4.25188 h -3.75531 -3.7553 v 4.25188 4.25188 h 3.7553 3.75531 z m 0,-13.39342 v -5.03139 h -3.75531 -3.7553 v 5.03139 5.03139 h 3.7553 3.75531 z m 27.91681,0.56692 v -4.46447 h -3.7553 -3.75531 v 4.46447 4.46447 h 3.75531 3.7553 z m -0.0335,-13.28712 0.0374,-4.783366 h -3.75718 -3.7572 v 4.724313 c 0,2.598373 0.0435,4.767883 0.0969,4.821133 0.0532,0.0532 1.72718,0.0798 3.71987,0.059 l 3.62308,-0.0378 z"
       id="path429" />
  </g>
</svg>
