<?xml version="1.0" encoding="UTF-8" standalone="no"?>
<!-- Created with Inkscape (http://www.inkscape.org/) -->

<svg
   width="512"
   height="512"
   viewBox="0 0 135.46666 135.46667"
   version="1.1"
   id="svg5"
   inkscape:version="1.1 (c68e22c387, 2021-05-23)"
   sodipodi:docname="restriction.svg"
   xmlns:inkscape="http://www.inkscape.org/namespaces/inkscape"
   xmlns:sodipodi="http://sodipodi.sourceforge.net/DTD/sodipodi-0.dtd"
   xmlns="http://www.w3.org/2000/svg"
   xmlns:svg="http://www.w3.org/2000/svg">
  <sodipodi:namedview
     id="namedview7"
     pagecolor="#505050"
     bordercolor="#eeeeee"
     borderopacity="1"
     inkscape:pageshadow="0"
     inkscape:pageopacity="0"
     inkscape:pagecheckerboard="0"
     inkscape:document-units="px"
     showgrid="false"
     inkscape:zoom="0.5"
     inkscape:cx="93"
     inkscape:cy="227"
     inkscape:window-width="1366"
     inkscape:window-height="705"
     inkscape:window-x="-8"
     inkscape:window-y="-8"
     inkscape:window-maximized="1"
     inkscape:current-layer="layer1"
     units="px" />
  <defs
     id="defs2">
    <rect
       x="0"
       y="384.00006"
       width="511.99998"
       height="127.99992"
       id="rect12253" />
  </defs>
  <g
     inkscape:label="Calque 1"
     inkscape:groupmode="layer"
     id="layer1">
    <path
       style="color:#000000;fill:#000000;fill-rule:evenodd;stroke-width:8.46667;-inkscape-stroke:none"
       d="M 16.933335,0 H 118.53333 c 9.38107,0 16.93333,7.5522663 16.93333,16.933332 V 118.53333 c 0,9.38106 -7.55226,16.93333 -16.93333,16.93333 H 16.933335 C 7.552269,135.46666 2.7270507e-6,127.91439 2.7270507e-6,118.53333 V 16.933332 C 2.7270507e-6,7.5522663 7.552269,0 16.933335,0 Z"
       id="rect846" />
    <path
       style="color:#000000;fill:#2876ff;fill-rule:evenodd;stroke-width:8.46667;-inkscape-stroke:none"
       d="M 16.933332,8.5685921 H 118.53333 c 4.69054,0 8.46667,3.7761329 8.46667,8.4666659 v 84.666662 c 0,4.69054 -3.77613,8.46667 -8.46667,8.46667 H 16.933332 c -4.690533,0 -8.4666658,-3.77613 -8.4666658,-8.46667 V 17.035258 c 0,-4.690533 3.7761328,-8.4666659 8.4666658,-8.4666659 z"
       id="rect846-1" />
    <path
       style="color:#000000;fill:#000000;fill-rule:evenodd;stroke-width:0.264583;-inkscape-stroke:none"
       d="M 8.4666689,101.60001 H 127 c 4.69053,0 8.46666,3.77614 8.46666,8.46667 v 8.46667 c 0,4.69053 -3.77613,8.46666 -8.46666,8.46666 H 8.4666689 c -4.690533,0 -8.4666661729493,-3.77613 -8.4666661729493,-8.46666 v -8.46667 c 0,-4.69053 3.7761331729493,-8.46667 8.4666661729493,-8.46667 z"
       id="rect1024" />
    <g
       aria-label="RESTRICTION"
       transform="matrix(0.26458333,0,0,0.26458333,22.648424,6.8438898)"
       id="text12251"
       style="font-weight:500;font-size:53.3333px;font-family:'Brandon Text';-inkscape-font-specification:'Brandon Text, Medium';white-space:pre;fill:#ffffff">
      <path
         style="color:#000000;-inkscape-font-specification:'Brandon Text, Medium';-inkscape-stroke:none"
         d="m 4.2133308,426.98664 c 0,0.53333 0.4266664,1.01333 1.0133328,1.01333 h 6.3466624 c 0.533333,0 1.013333,-0.48 1.013333,-1.01333 v -13.59999 h 3.679998 l 7.093329,14.13332 c 0.106667,0.21334 0.426666,0.48 0.853333,0.48 h 7.093329 c 0.906666,0 1.279999,-0.85333 0.906666,-1.54666 l -7.306662,-13.54666 c 4.959997,-1.86667 7.893328,-5.81333 7.893328,-10.71999 0,-6.34667 -4.85333,-11.52 -11.626659,-11.52 H 5.2266636 c -0.5866664,0 -1.0133328,0.48 -1.0133328,1.01334 z m 8.3733282,-20.37332 v -8.32 h 7.893329 c 2.186665,0 4.053331,1.54667 4.053331,4.05334 0,2.50666 -1.866666,4.26666 -4.053331,4.26666 z"
         id="path882" />
      <path
         style="color:#000000;-inkscape-font-specification:'Brandon Text, Medium';-inkscape-stroke:none"
         d="m 39.51991,426.98664 c 0,0.53333 0.426667,1.01333 1.013333,1.01333 H 62.61323 c 0.586666,0 1.013333,-0.48 1.013333,-1.01333 v -5.81333 c 0,-0.53333 -0.426667,-1.01333 -1.013333,-1.01333 H 47.839905 v -7.2 h 12.159993 c 0.533333,0 1.013333,-0.42666 1.013333,-1.01333 v -5.81333 c 0,-0.53333 -0.48,-1.01333 -1.013333,-1.01333 H 47.839905 v -6.61333 H 62.61323 c 0.586666,0 1.013333,-0.48 1.013333,-1.01333 V 391.68 c 0,-0.53334 -0.426667,-1.01334 -1.013333,-1.01334 H 40.533243 c -0.586666,0 -1.013333,0.48 -1.013333,1.01334 z"
         id="path884" />
      <path
         style="color:#000000;-inkscape-font-specification:'Brandon Text, Medium';-inkscape-stroke:none"
         d="m 80.959837,428.53331 c 7.839995,0 12.586659,-5.54667 12.586659,-11.04 0,-7.25333 -6.079997,-9.86666 -10.773327,-12.15999 -3.733331,-1.81333 -5.81333,-3.2 -5.81333,-4.96 0,-1.54666 1.013333,-2.93333 3.253331,-2.93333 2.826665,0 5.97333,2.02667 7.199996,2.88 1.066666,0.64 1.973332,0.21333 2.346665,-0.37333 l 2.719999,-4.10667 c 0.213333,-0.37333 0.319999,-1.33333 -0.32,-1.70666 -1.599999,-1.17334 -5.866663,-4 -11.413327,-4 -8.213328,0 -12.319992,5.33333 -12.319992,10.61333 0,6.39999 5.17333,9.27999 10.34666,11.78666 3.519998,1.70666 5.49333,3.14666 5.49333,5.38666 0,1.86667 -1.546666,3.2 -3.679998,3.2 -3.359998,0 -6.079996,-1.92 -7.573328,-2.93333 -0.533333,-0.37334 -1.386666,-0.37334 -1.813333,0.32 l -2.453332,4.31999 c -0.373333,0.69334 -0.213333,1.17334 0.213334,1.6 1.226666,1.22667 5.066663,4.10667 11.999993,4.10667 z"
         id="path886" />
      <path
         style="color:#000000;-inkscape-font-specification:'Brandon Text, Medium';-inkscape-stroke:none"
         d="m 105.65313,426.98664 c 0,0.53333 0.48,1.01333 1.01333,1.01333 h 6.39999 c 0.53334,0 1.01334,-0.48 1.01334,-1.01333 v -28.47998 h 7.62666 c 0.58667,0 1.01333,-0.48 1.01333,-1.01333 V 391.68 c 0,-0.53334 -0.42666,-1.01334 -1.01333,-1.01334 H 98.026463 c -0.586666,0 -1.013332,0.48 -1.013332,1.01334 v 5.81333 c 0,0.53333 0.426666,1.01333 1.013332,1.01333 h 7.626667 z"
         id="path888" />
      <path
         style="color:#000000;-inkscape-font-specification:'Brandon Text, Medium';-inkscape-stroke:none"
         d="m 128.3197,426.98664 c 0,0.53333 0.42667,1.01333 1.01333,1.01333 h 6.34667 c 0.53333,0 1.01333,-0.48 1.01333,-1.01333 v -13.59999 h 3.68 l 7.09333,14.13332 c 0.10666,0.21334 0.42666,0.48 0.85333,0.48 h 7.09333 c 0.90666,0 1.28,-0.85333 0.90666,-1.54666 l -7.30666,-13.54666 c 4.96,-1.86667 7.89333,-5.81333 7.89333,-10.71999 0,-6.34667 -4.85333,-11.52 -11.62666,-11.52 h -15.94666 c -0.58666,0 -1.01333,0.48 -1.01333,1.01334 z m 8.37333,-20.37332 v -8.32 h 7.89333 c 2.18666,0 4.05333,1.54667 4.05333,4.05334 0,2.50666 -1.86667,4.26666 -4.05333,4.26666 z"
         id="path890" />
      <path
         style="color:#000000;-inkscape-font-specification:'Brandon Text, Medium';-inkscape-stroke:none"
         d="m 163.62628,426.98664 c 0,0.53333 0.48,1.01333 1.01333,1.01333 h 6.4 c 0.53333,0 1.01333,-0.48 1.01333,-1.01333 V 391.68 c 0,-0.53334 -0.48,-1.01334 -1.01333,-1.01334 h -6.4 c -0.53333,0 -1.01333,0.48 -1.01333,1.01334 z"
         id="path892" />
      <path
         style="color:#000000;-inkscape-font-specification:'Brandon Text, Medium';-inkscape-stroke:none"
         d="m 178.34626,409.38665 c 0,10.66666 8.58667,19.14666 19.25333,19.14666 4.74666,0 9.33332,-1.65334 12.95999,-5.17333 0.37333,-0.37334 0.42667,-1.06667 0.0533,-1.44 l -4.16,-4.42667 c -0.32,-0.37333 -1.01333,-0.37333 -1.38666,-0.0533 -1.92,1.65333 -4.21333,2.56 -7.14666,2.56 -6.02667,0 -10.50666,-4.90667 -10.50666,-10.82666 0,-5.97333 4.42666,-10.98666 10.45332,-10.98666 2.61333,0 5.01333,0.8 7.2,2.72 0.37333,0.37333 0.96,0.37333 1.33333,0 l 4.16,-4.32 c 0.42667,-0.42667 0.42667,-1.06667 -0.0533,-1.49333 -3.62667,-3.30667 -7.57333,-4.96 -12.90666,-4.96 -10.66666,0 -19.25333,8.58666 -19.25333,19.25332 z"
         id="path894" />
      <path
         style="color:#000000;-inkscape-font-specification:'Brandon Text, Medium';-inkscape-stroke:none"
         d="m 222.50618,426.98664 c 0,0.53333 0.48,1.01333 1.01334,1.01333 h 6.39999 c 0.53334,0 1.01334,-0.48 1.01334,-1.01333 v -28.47998 h 7.62666 c 0.58666,0 1.01333,-0.48 1.01333,-1.01333 V 391.68 c 0,-0.53334 -0.42667,-1.01334 -1.01333,-1.01334 h -23.67999 c -0.58667,0 -1.01333,0.48 -1.01333,1.01334 v 5.81333 c 0,0.53333 0.42666,1.01333 1.01333,1.01333 h 7.62666 z"
         id="path896" />
      <path
         style="color:#000000;-inkscape-font-specification:'Brandon Text, Medium';-inkscape-stroke:none"
         d="m 245.17276,426.98664 c 0,0.53333 0.48,1.01333 1.01333,1.01333 h 6.4 c 0.53333,0 1.01333,-0.48 1.01333,-1.01333 V 391.68 c 0,-0.53334 -0.48,-1.01334 -1.01333,-1.01334 h -6.4 c -0.53333,0 -1.01333,0.48 -1.01333,1.01334 z"
         id="path898" />
      <path
         style="color:#000000;-inkscape-font-specification:'Brandon Text, Medium';-inkscape-stroke:none"
         d="m 259.89274,409.38665 c 0,10.66666 8.48,19.14666 19.14666,19.14666 10.66666,0 19.19999,-8.48 19.19999,-19.14666 0,-10.66666 -8.53333,-19.25332 -19.19999,-19.25332 -10.66666,0 -19.14666,8.58666 -19.14666,19.25332 z m 8.53333,0 c 0,-5.86666 4.8,-10.71999 10.61333,-10.71999 5.86666,0 10.66666,4.85333 10.66666,10.71999 0,5.81333 -4.8,10.61333 -10.66666,10.61333 -5.81333,0 -10.61333,-4.8 -10.61333,-10.61333 z"
         id="path900" />
      <path
         style="color:#000000;-inkscape-font-specification:'Brandon Text, Medium';-inkscape-stroke:none"
         d="m 304.53267,426.98664 c 0,0.53333 0.48,1.01333 1.01333,1.01333 h 6.34666 c 0.58667,0 1.01334,-0.48 1.01334,-1.01333 v -19.89332 c 0,0 0.0533,0 0.0533,0 l 20.74665,20.85332 c 0.42667,0.42667 0.8,0.58667 1.33334,0.58667 h 0.53333 c 0.53333,0 1.01333,-0.32 1.01333,-0.96 V 391.68 c 0,-0.53334 -0.48,-1.01334 -1.01333,-1.01334 h -6.4 c -0.58666,0 -1.01333,0.48 -1.01333,1.01334 v 18.93332 c 0,0 -0.0533,0 -0.0533,0 L 307.626,390.93333 c -0.42667,-0.42667 -0.8,-0.8 -1.33333,-0.8 h -0.8 c -0.53334,0 -1.01334,0.42667 -1.01334,0.96 z"
         id="path902" />
    </g>
    <path
       style="color:#000000;fill:#000000;stroke-width:0.14881;-inkscape-stroke:none"
       d="M 60.348283,92.771536 C 59.934506,92.578857 59.352199,92.13643 59.054271,91.788372 57.992498,90.54793 58.049998,91.578693 58.049998,73.783148 V 57.768381 l -1.822938,0.311718 -1.822939,0.311728 -0.0744,3.11782 c -0.0676,2.831701 -0.10394,3.172459 -0.396188,3.713086 -1.844528,3.412048 -6.621177,2.640533 -7.328113,-1.183623 -0.213598,-1.155442 -0.213598,-8.977432 0,-10.132875 0.368778,-1.994917 1.702549,-3.179979 3.881635,-3.448867 l 0.940854,-0.11609 0.0381,-11.272237 0.0381,-11.272238 H 49.8548 c -1.624489,0 -1.655839,-0.007 -2.084286,-0.434987 l -0.434987,-0.434987 v -2.476614 c 0,-2.494034 0.0747,-2.918192 0.582346,-3.307969 0.178539,-0.137089 2.149936,-0.182439 8.085888,-0.186019 l 7.84977,-0.005 v -1.344071 c 0,-2.595984 0.112639,-2.673823 3.869085,-2.673823 3.756446,0 3.869085,0.0778 3.869085,2.673823 v 1.344071 l 7.849769,0.005 c 5.935952,0.004 7.90734,0.0489 8.085888,0.186019 0.753886,0.578806 0.905785,5.354486 0.197089,6.1967 l -0.385257,0.457857 h -1.699029 -1.69903 l 0.0381,11.271798 0.0381,11.271807 0.892874,0.11062 c 2.243796,0.277998 3.598797,1.49294 3.943365,3.535787 0.324338,1.922848 0.142429,10.190284 -0.242599,11.025999 -1.121502,2.434244 -4.145723,3.14788 -6.08946,1.436921 -1.238752,-1.090383 -1.320512,-1.377731 -1.405781,-4.940108 l -0.0746,-3.11785 -1.820378,-0.311268 -1.820399,-0.311258 -0.0398,16.301255 -0.0397,16.301255 -0.324048,0.605396 c -1.409461,2.633193 -5.067527,2.890882 -6.694417,0.471577 -0.740505,-1.101203 -0.794105,-1.654999 -0.794105,-8.205207 0,-5.995901 -9e-5,-5.997641 -0.339278,-6.503148 -0.486307,-0.724766 -1.376811,-0.995294 -2.118186,-0.643496 -1.064153,0.504977 -1.031163,0.282948 -1.113993,7.497062 -0.0738,6.426428 -0.0773,6.486688 -0.428027,7.262533 -0.886494,1.961297 -3.20985,2.823452 -5.160667,1.915058 z m 2.335565,-2.609623 0.351308,-0.284269 0.0744,-6.523828 0.0744,-6.523838 0.394047,-0.840474 c 1.956978,-4.174114 7.75134,-3.458818 8.608835,1.062733 0.0838,0.442067 0.148989,3.382778 0.148989,6.724527 v 5.938881 l 0.365258,0.365258 c 0.462607,0.462597 0.990603,0.464727 1.52378,0.006 l 0.417537,-0.359108 0.0744,-17.10333 c 0.0614,-14.108769 0.109789,-17.14597 0.276528,-17.346838 0.418477,-0.504147 1.043023,-0.521967 3.447838,-0.0984 1.266352,0.223069 2.792072,0.488157 3.390478,0.589086 0.727065,0.12263 1.220722,0.297559 1.4881,0.527307 l 0.400108,0.343808 0.0744,3.672286 0.0744,3.672297 0.417527,0.358837 c 0.533277,0.458307 1.061273,0.456087 1.52378,-0.006 l 0.365268,-0.365257 -0.005,-4.954718 c -0.006,-6.30423 0.571976,-5.597024 -5.141537,-6.29085 -2.366765,-0.287398 -4.547651,-0.561116 -4.846399,-0.608256 -0.540316,-0.0853 -0.543726,-0.0824 -0.648436,0.537347 -1.368411,8.099567 -14.254478,8.099567 -15.622889,0 -0.104699,-0.619787 -0.108109,-0.622606 -0.648436,-0.537347 -0.298738,0.0471 -2.479624,0.320858 -4.846399,0.608256 -5.711603,0.693586 -5.135507,-0.007 -5.141527,6.25097 -0.005,5.350526 0.007,5.435025 0.833125,5.642294 1.336881,0.335537 1.54312,-0.252509 1.54312,-4.399952 v -3.427088 l 0.416487,-0.416487 c 0.326208,-0.326208 0.656846,-0.457027 1.5253,-0.603517 0.609857,-0.102849 2.144947,-0.369527 3.411309,-0.592596 2.404804,-0.423607 3.02935,-0.405787 3.447827,0.0984 0.166739,0.200858 0.215149,3.238069 0.276529,17.346838 l 0.0744,17.10333 0.417527,0.359108 c 0.503067,0.432677 0.990304,0.457597 1.463331,0.0748 z m 6.25128,-34.144701 c 4.808759,-1.131853 5.551954,-7.879169 1.094133,-9.933456 -0.993594,-0.457877 -0.967264,-0.509277 -0.967264,1.888358 v 2.169206 l -0.434987,0.434987 c -0.584826,0.584816 -1.223802,0.584816 -1.808629,0 L 66.383404,50.14132 v -2.169206 c 0,-2.397635 0.0263,-2.346235 -0.967274,-1.888358 -5.649583,2.603493 -2.547083,11.361247 3.518998,9.933456 z m -11.309587,-6.437769 2.179746,-0.260718 0.177348,-0.604616 c 0.793015,-2.703563 3.370289,-5.203347 5.842723,-5.667064 l 0.558046,-0.104659 v -5.563844 -5.563845 h -0.749285 c -1.411941,0 -1.780508,-0.559086 -1.780508,-2.700802 V 27.796803 H 59.017262 54.180903 V 38.903432 50.01007 l 0.632456,-0.085 c 0.347847,-0.0467 1.613329,-0.202279 2.812182,-0.345668 z M 81.264489,38.883202 V 27.796803 H 76.42813 71.591781 v 1.317092 c 0,2.141716 -0.368578,2.700802 -1.780499,2.700802 h -0.749285 v 5.563845 5.563844 l 0.558036,0.104659 c 2.473025,0.463827 5.049658,2.963431 5.843143,5.668434 l 0.177759,0.606006 2.402554,0.304568 c 1.321392,0.167509 2.586684,0.313338 2.811762,0.324068 l 0.409238,0.0195 z M 68.764379,27.819003 c 0,-2.881191 -0.595856,-2.700803 8.921253,-2.700803 h 7.74556 V 24.374145 23.6301 h -7.74556 c -9.517109,0 -8.921253,0.180379 -8.921253,-2.700813 v -1.317081 h -1.041683 -1.041674 v 1.317081 c 0,2.881192 0.595857,2.700813 -8.921272,2.700813 h -7.745551 v 0.744045 0.744055 h 7.745551 c 9.517129,0 8.921272,-0.180388 8.921272,2.700803 v 1.317102 h 1.041674 1.041683 z"
       id="path998" />
  </g>
</svg>
