<?xml version="1.0" encoding="UTF-8" standalone="no"?>
<!-- Created with Inkscape (http://www.inkscape.org/) -->

<svg
   width="512"
   height="512"
   viewBox="0 0 135.46666 135.46667"
   version="1.1"
   id="svg5"
   inkscape:version="1.1 (c68e22c387, 2021-05-23)"
   sodipodi:docname="restriction.svg"
   xmlns:inkscape="http://www.inkscape.org/namespaces/inkscape"
   xmlns:sodipodi="http://sodipodi.sourceforge.net/DTD/sodipodi-0.dtd"
   xmlns="http://www.w3.org/2000/svg"
   xmlns:svg="http://www.w3.org/2000/svg">
  <sodipodi:namedview
     id="namedview7"
     pagecolor="#505050"
     bordercolor="#eeeeee"
     borderopacity="1"
     inkscape:pageshadow="0"
     inkscape:pageopacity="0"
     inkscape:pagecheckerboard="0"
     inkscape:document-units="px"
     showgrid="false"
     inkscape:zoom="0.5"
     inkscape:cx="93"
     inkscape:cy="227"
     inkscape:window-width="1366"
     inkscape:window-height="705"
     inkscape:window-x="-8"
     inkscape:window-y="-8"
     inkscape:window-maximized="1"
     inkscape:current-layer="layer1"
     units="px" />
  <defs
     id="defs2">
    <rect
       x="0"
       y="384.00006"
       width="511.99998"
       height="127.99992"
       id="rect12253" />
  </defs>
  <g
     inkscape:label="Calque 1"
     inkscape:groupmode="layer"
     id="layer1">
    <path
       style="color:#000000;fill:#000000;fill-rule:evenodd;stroke-width:8.46667;-inkscape-stroke:none"
       d="M 16.933335,0 H 118.53333 c 9.38107,0 16.93333,7.5522663 16.93333,16.933332 V 118.53333 c 0,9.38106 -7.55226,16.93333 -16.93333,16.93333 H 16.933335 C 7.552269,135.46666 2.7270507e-6,127.91439 2.7270507e-6,118.53333 V 16.933332 C 2.7270507e-6,7.5522663 7.552269,0 16.933335,0 Z"
       id="rect846" />
    <path
       style="color:#000000;fill:#2876ff;fill-rule:evenodd;stroke-width:8.46667;-inkscape-stroke:none"
       d="M 16.933332,8.5685921 H 118.53333 c 4.69054,0 8.46667,3.7761329 8.46667,8.4666659 v 84.666662 c 0,4.69054 -3.77613,8.46667 -8.46667,8.46667 H 16.933332 c -4.690533,0 -8.4666658,-3.77613 -8.4666658,-8.46667 V 17.035258 c 0,-4.690533 3.7761328,-8.4666659 8.4666658,-8.4666659 z"
       id="rect846-1" />
    <path
       style="color:#000000;fill:#000000;fill-rule:evenodd;stroke-width:0.264583;-inkscape-stroke:none"
       d="M 8.4666689,101.60001 H 127 c 4.69053,0 8.46666,3.77614 8.46666,8.46667 v 8.46667 c 0,4.69053 -3.77613,8.46666 -8.46666,8.46666 H 8.4666689 c -4.690533,0 -8.4666661729493,-3.77613 -8.4666661729493,-8.46666 v -8.46667 c 0,-4.69053 3.7761331729493,-8.46667 8.4666661729493,-8.46667 z"
       id="rect1024" />
    <g
       aria-label="RESTRICTION"
       transform="matrix(0.26458333,0,0,0.26458333,22.648424,6.8438898)"
       id="text12251"
       style="font-weight:500;font-size:53.3333px;font-family:'Brandon Text';-inkscape-font-specification:'Brandon Text, Medium';white-space:pre;fill:#ffffff">
      <path
         style="color:#000000;-inkscape-font-specification:'Brandon Text, Medium';-inkscape-stroke:none"
         d="m 4.2133308,426.98664 c 0,0.53333 0.4266664,1.01333 1.0133328,1.01333 h 6.3466624 c 0.533333,0 1.013333,-0.48 1.013333,-1.01333 v -13.59999 h 3.679998 l 7.093329,14.13332 c 0.106667,0.21334 0.426666,0.48 0.853333,0.48 h 7.093329 c 0.906666,0 1.279999,-0.85333 0.906666,-1.54666 l -7.306662,-13.54666 c 4.959997,-1.86667 7.893328,-5.81333 7.893328,-10.71999 0,-6.34667 -4.85333,-11.52 -11.626659,-11.52 H 5.2266636 c -0.5866664,0 -1.0133328,0.48 -1.0133328,1.01334 z m 8.3733282,-20.37332 v -8.32 h 7.893329 c 2.186665,0 4.053331,1.54667 4.053331,4.05334 0,2.50666 -1.866666,4.26666 -4.053331,4.26666 z"
         id="path882" />
      <path
         style="color:#000000;-inkscape-font-specification:'Brandon Text, Medium';-inkscape-stroke:none"
         d="m 39.51991,426.98664 c 0,0.53333 0.426667,1.01333 1.013333,1.01333 H 62.61323 c 0.586666,0 1.013333,-0.48 1.013333,-1.01333 v -5.81333 c 0,-0.53333 -0.426667,-1.01333 -1.013333,-1.01333 H 47.839905 v -7.2 h 12.159993 c 0.533333,0 1.013333,-0.42666 1.013333,-1.01333 v -5.81333 c 0,-0.53333 -0.48,-1.01333 -1.013333,-1.01333 H 47.839905 v -6.61333 H 62.61323 c 0.586666,0 1.013333,-0.48 1.013333,-1.01333 V 391.68 c 0,-0.53334 -0.426667,-1.01334 -1.013333,-1.01334 H 40.533243 c -0.586666,0 -1.013333,0.48 -1.013333,1.01334 z"
         id="path884" />
      <path
         style="color:#000000;-inkscape-font-specification:'Brandon Text, Medium';-inkscape-stroke:none"
         d="m 80.959837,428.53331 c 7.839995,0 12.586659,-5.54667 12.586659,-11.04 0,-7.25333 -6.079997,-9.86666 -10.773327,-12.15999 -3.733331,-1.81333 -5.81333,-3.2 -5.81333,-4.96 0,-1.54666 1.013333,-2.93333 3.253331,-2.93333 2.826665,0 5.97333,2.02667 7.199996,2.88 1.066666,0.64 1.973332,0.21333 2.346665,-0.37333 l 2.719999,-4.10667 c 0.213333,-0.37333 0.319999,-1.33333 -0.32,-1.70666 -1.599999,-1.17334 -5.866663,-4 -11.413327,-4 -8.213328,0 -12.319992,5.33333 -12.319992,10.61333 0,6.39999 5.17333,9.27999 10.34666,11.78666 3.519998,1.70666 5.49333,3.14666 5.49333,5.38666 0,1.86667 -1.546666,3.2 -3.679998,3.2 -3.359998,0 -6.079996,-1.92 -7.573328,-2.93333 -0.533333,-0.37334 -1.386666,-0.37334 -1.813333,0.32 l -2.453332,4.31999 c -0.373333,0.69334 -0.213333,1.17334 0.213334,1.6 1.226666,1.22667 5.066663,4.10667 11.999993,4.10667 z"
         id="path886" />
      <path
         style="color:#000000;-inkscape-font-specification:'Brandon Text, Medium';-inkscape-stroke:none"
         d="m 105.65313,426.98664 c 0,0.53333 0.48,1.01333 1.01333,1.01333 h 6.39999 c 0.53334,0 1.01334,-0.48 1.01334,-1.01333 v -28.47998 h 7.62666 c 0.58667,0 1.01333,-0.48 1.01333,-1.01333 V 391.68 c 0,-0.53334 -0.42666,-1.01334 -1.01333,-1.01334 H 98.026463 c -0.586666,0 -1.013332,0.48 -1.013332,1.01334 v 5.81333 c 0,0.53333 0.426666,1.01333 1.013332,1.01333 h 7.626667 z"
         id="path888" />
      <path
         style="color:#000000;-inkscape-font-specification:'Brandon Text, Medium';-inkscape-stroke:none"
         d="m 128.3197,426.98664 c 0,0.53333 0.42667,1.01333 1.01333,1.01333 h 6.34667 c 0.53333,0 1.01333,-0.48 1.01333,-1.01333 v -13.59999 h 3.68 l 7.09333,14.13332 c 0.10666,0.21334 0.42666,0.48 0.85333,0.48 h 7.09333 c 0.90666,0 1.28,-0.85333 0.90666,-1.54666 l -7.30666,-13.54666 c 4.96,-1.86667 7.89333,-5.81333 7.89333,-10.71999 0,-6.34667 -4.85333,-11.52 -11.62666,-11.52 h -15.94666 c -0.58666,0 -1.01333,0.48 -1.01333,1.01334 z m 8.37333,-20.37332 v -8.32 h 7.89333 c 2.18666,0 4.05333,1.54667 4.05333,4.05334 0,2.50666 -1.86667,4.26666 -4.05333,4.26666 z"
         id="path890" />
      <path
         style="color:#000000;-inkscape-font-specification:'Brandon Text, Medium';-inkscape-stroke:none"
         d="m 163.62628,426.98664 c 0,0.53333 0.48,1.01333 1.01333,1.01333 h 6.4 c 0.53333,0 1.01333,-0.48 1.01333,-1.01333 V 391.68 c 0,-0.53334 -0.48,-1.01334 -1.01333,-1.01334 h -6.4 c -0.53333,0 -1.01333,0.48 -1.01333,1.01334 z"
         id="path892" />
      <path
         style="color:#000000;-inkscape-font-specification:'Brandon Text, Medium';-inkscape-stroke:none"
         d="m 178.34626,409.38665 c 0,10.66666 8.58667,19.14666 19.25333,19.14666 4.74666,0 9.33332,-1.65334 12.95999,-5.17333 0.37333,-0.37334 0.42667,-1.06667 0.0533,-1.44 l -4.16,-4.42667 c -0.32,-0.37333 -1.01333,-0.37333 -1.38666,-0.0533 -1.92,1.65333 -4.21333,2.56 -7.14666,2.56 -6.02667,0 -10.50666,-4.90667 -10.50666,-10.82666 0,-5.97333 4.42666,-10.98666 10.45332,-10.98666 2.61333,0 5.01333,0.8 7.2,2.72 0.37333,0.37333 0.96,0.37333 1.33333,0 l 4.16,-4.32 c 0.42667,-0.42667 0.42667,-1.06667 -0.0533,-1.49333 -3.62667,-3.30667 -7.57333,-4.96 -12.90666,-4.96 -10.66666,0 -19.25333,8.58666 -19.25333,19.25332 z"
         id="path894" />
      <path
         style="color:#000000;-inkscape-font-specification:'Brandon Text, Medium';-inkscape-stroke:none"
         d="m 222.50618,426.98664 c 0,0.53333 0.48,1.01333 1.01334,1.01333 h 6.39999 c 0.53334,0 1.01334,-0.48 1.01334,-1.01333 v -28.47998 h 7.62666 c 0.58666,0 1.01333,-0.48 1.01333,-1.01333 V 391.68 c 0,-0.53334 -0.42667,-1.01334 -1.01333,-1.01334 h -23.67999 c -0.58667,0 -1.01333,0.48 -1.01333,1.01334 v 5.81333 c 0,0.53333 0.42666,1.01333 1.01333,1.01333 h 7.62666 z"
         id="path896" />
      <path
         style="color:#000000;-inkscape-font-specification:'Brandon Text, Medium';-inkscape-stroke:none"
         d="m 245.17276,426.98664 c 0,0.53333 0.48,1.01333 1.01333,1.01333 h 6.4 c 0.53333,0 1.01333,-0.48 1.01333,-1.01333 V 391.68 c 0,-0.53334 -0.48,-1.01334 -1.01333,-1.01334 h -6.4 c -0.53333,0 -1.01333,0.48 -1.01333,1.01334 z"
         id="path898" />
      <path
         style="color:#000000;-inkscape-font-specification:'Brandon Text, Medium';-inkscape-stroke:none"
         d="m 259.89274,409.38665 c 0,10.66666 8.48,19.14666 19.14666,19.14666 10.66666,0 19.19999,-8.48 19.19999,-19.14666 0,-10.66666 -8.53333,-19.25332 -19.19999,-19.25332 -10.66666,0 -19.14666,8.58666 -19.14666,19.25332 z m 8.53333,0 c 0,-5.86666 4.8,-10.71999 10.61333,-10.71999 5.86666,0 10.66666,4.85333 10.66666,10.71999 0,5.81333 -4.8,10.61333 -10.66666,10.61333 -5.81333,0 -10.61333,-4.8 -10.61333,-10.61333 z"
         id="path900" />
      <path
         style="color:#000000;-inkscape-font-specification:'Brandon Text, Medium';-inkscape-stroke:none"
         d="m 304.53267,426.98664 c 0,0.53333 0.48,1.01333 1.01333,1.01333 h 6.34666 c 0.58667,0 1.01334,-0.48 1.01334,-1.01333 v -19.89332 c 0,0 0.0533,0 0.0533,0 l 20.74665,20.85332 c 0.42667,0.42667 0.8,0.58667 1.33334,0.58667 h 0.53333 c 0.53333,0 1.01333,-0.32 1.01333,-0.96 V 391.68 c 0,-0.53334 -0.48,-1.01334 -1.01333,-1.01334 h -6.4 c -0.58666,0 -1.01333,0.48 -1.01333,1.01334 v 18.93332 c 0,0 -0.0533,0 -0.0533,0 L 307.626,390.93333 c -0.42667,-0.42667 -0.8,-0.8 -1.33333,-0.8 h -0.8 c -0.53334,0 -1.01334,0.42667 -1.01334,0.96 z"
         id="path902" />
    </g>
    <path
       style="color:#000000;fill:#000000;stroke:#000000;stroke-width:0.79374999;stroke-miterlimit:4;stroke-dasharray:none;stroke-opacity:1;stroke-linejoin:round;stroke-linecap:round"
       d="M 60.39913,92.509436 C 59.988233,92.318097 59.409979,91.878748 59.114124,91.533112 58.05974,90.301301 58.11684,91.324893 58.11684,73.653175 V 57.749846 l -1.810251,0.309549 -1.810253,0.309558 -0.07388,3.096125 c -0.06713,2.811998 -0.103217,3.150385 -0.39343,3.68725 -1.831692,3.388305 -6.575097,2.622159 -7.277113,-1.175388 -0.212111,-1.147401 -0.212111,-8.914962 0,-10.062365 0.366211,-1.981037 1.690701,-3.157852 3.854621,-3.424869 l 0.934306,-0.115282 0.03784,-11.193799 0.03784,-11.193803 h -1.63783 c -1.613183,0 -1.644315,-0.0069 -2.06978,-0.431959 l -0.43196,-0.43196 v -2.459381 c 0,-2.476679 0.07418,-2.897886 0.578293,-3.28495 0.177297,-0.136137 2.134973,-0.18117 8.029613,-0.184725 l 7.795139,-0.0049 v -1.334719 c 0,-2.577919 0.111855,-2.655217 3.842157,-2.655217 3.730303,0 3.842158,0.07726 3.842158,2.655217 v 1.334719 l 7.795138,0.0049 c 5.894639,0.004 7.852308,0.04856 8.029612,0.184725 0.748639,0.574777 0.899482,5.317226 0.195718,6.153581 l -0.382575,0.454669 h -1.687205 -1.687206 l 0.03784,11.193365 0.03784,11.193373 0.886659,0.109851 c 2.22818,0.276063 3.573751,1.482551 3.915921,3.511183 0.322081,1.909468 0.141438,10.119375 -0.240911,10.949275 -1.113697,2.417305 -4.11687,3.125976 -6.04708,1.426923 -1.230143,-1.082796 -1.311334,-1.368145 -1.39601,-4.905733 l -0.07408,-3.096155 -1.80771,-0.309102 -1.807728,-0.309092 -0.03952,16.187824 -0.03942,16.187823 -0.321792,0.601186 c -1.399651,2.614869 -5.03226,2.870765 -6.647826,0.468295 -0.735352,-1.093542 -0.788579,-1.643484 -0.788579,-8.148113 0,-5.954179 -9e-5,-5.955907 -0.336917,-6.457896 -0.482923,-0.719723 -1.367229,-0.988369 -2.103444,-0.639019 -1.056747,0.501463 -1.023986,0.28098 -1.106241,7.444894 -0.07329,6.381711 -0.07676,6.441552 -0.425047,7.211999 -0.880324,1.947649 -3.18751,2.803805 -5.124751,1.901733 z m 2.31931,-2.591466 0.348864,-0.282291 0.07388,-6.478433 0.07388,-6.478442 0.391305,-0.834625 c 1.943357,-4.14507 7.697394,-3.434751 8.54892,1.055338 0.08322,0.438992 0.147953,3.359239 0.147953,6.677735 v 5.897555 l 0.362715,0.362717 c 0.459388,0.459378 0.983709,0.461493 1.513175,0.0059 l 0.414632,-0.356609 0.07388,-16.984318 c 0.06097,-14.010594 0.109024,-17.026662 0.274603,-17.226132 0.415565,-0.500638 1.035764,-0.518335 3.423842,-0.09772 1.257539,0.221517 2.772641,0.484761 3.366881,0.584987 0.722006,0.121777 1.212227,0.295489 1.477744,0.523637 l 0.397324,0.341416 0.07388,3.646733 0.07388,3.646744 0.41462,0.35634 c 0.529567,0.455117 1.053888,0.452913 1.513175,-0.0059 l 0.362727,-0.362715 -0.0049,-4.920242 c -0.0059,-6.260362 0.567995,-5.558077 -5.105753,-6.247076 -2.350294,-0.285397 -4.516002,-0.55721 -4.81267,-0.604023 -0.536555,-0.08471 -0.539942,-0.08183 -0.643923,0.533608 -1.358888,8.043207 -14.155273,8.043207 -15.51416,0 -0.103971,-0.615474 -0.107356,-0.618274 -0.643923,-0.533608 -0.296659,0.04677 -2.462367,0.318626 -4.812671,0.604023 -5.671851,0.688761 -5.099766,-0.0069 -5.105744,6.207474 -0.0049,5.313295 0.0069,5.397205 0.827328,5.603033 1.327577,0.333202 1.53238,-0.250753 1.53238,-4.369336 V 56.7805 l 0.413567,-0.413588 c 0.323939,-0.323939 0.652274,-0.453848 1.514685,-0.599318 0.605612,-0.102133 2.130019,-0.366955 3.387567,-0.588473 2.388067,-0.42066 3.008267,-0.402963 3.423831,0.09772 0.16558,0.19946 0.213653,3.215537 0.274607,17.226131 l 0.07388,16.984317 0.41462,0.35661 c 0.499566,0.429667 0.983414,0.454413 1.453147,0.07428 z M 68.926215,56.010863 C 73.701506,54.886886 74.439528,48.18652 70.012732,46.146528 69.026054,45.691836 69.0522,45.640794 69.0522,48.021746 v 2.154111 l -0.43196,0.431961 c -0.580755,0.580747 -1.215284,0.580747 -1.796042,0 l -0.431949,-0.431961 v -2.154111 c 0,-2.380952 0.02612,-2.32991 -0.960542,-1.875218 -5.610264,2.585377 -2.529356,11.282191 3.494508,9.864335 z m -11.230879,-6.392973 2.164578,-0.258904 0.176114,-0.600409 c 0.787496,-2.68475 3.346831,-5.16714 5.802058,-5.62763 l 0.554163,-0.10393 v -5.525129 -5.525129 h -0.74407 c -1.402115,0 -1.768117,-0.555196 -1.768117,-2.682009 v -1.307928 h -4.802689 -4.802699 v 11.029345 11.029354 l 0.628053,-0.08441 c 0.345425,-0.04638 1.602101,-0.200871 2.792609,-0.343263 z M 81.169767,38.996078 V 27.986822 h -4.802699 -4.80269 v 1.307928 c 0,2.126813 -0.366014,2.682009 -1.768107,2.682009 H 69.0522 v 5.525129 5.525129 l 0.554153,0.10393 c 2.455813,0.4606 5.014513,2.94281 5.802476,5.62899 l 0.176522,0.60179 2.385833,0.302449 c 1.312195,0.166343 2.568683,0.311157 2.792192,0.321813 l 0.406391,0.01937 z M 68.756653,28.008869 c 0,-2.861143 -0.591708,-2.68201 8.859164,-2.68201 h 7.691654 v -0.738878 -0.738867 h -7.691654 c -9.450872,0 -8.859164,0.179124 -8.859164,-2.68202 v -1.307917 h -1.034434 -1.034424 v 1.307917 c 0,2.861144 0.591711,2.68202 -8.859183,2.68202 h -7.691644 v 0.738867 0.738878 h 7.691644 c 9.450894,0 8.859183,-0.179133 8.859183,2.68201 v 1.307938 h 1.034424 1.034434 z"
       id="path998" />
  </g>
</svg>
