<?xml version="1.0" encoding="UTF-8" standalone="no"?>
<!-- Created with Inkscape (http://www.inkscape.org/) -->

<svg
   width="512"
   height="512"
   viewBox="0 0 135.46666 135.46667"
   version="1.1"
   id="svg5"
   inkscape:version="1.1 (c68e22c387, 2021-05-23)"
   sodipodi:docname="supremacy.svg"
   xmlns:inkscape="http://www.inkscape.org/namespaces/inkscape"
   xmlns:sodipodi="http://sodipodi.sourceforge.net/DTD/sodipodi-0.dtd"
   xmlns="http://www.w3.org/2000/svg"
   xmlns:svg="http://www.w3.org/2000/svg">
  <sodipodi:namedview
     id="namedview7"
     pagecolor="#505050"
     bordercolor="#eeeeee"
     borderopacity="1"
     inkscape:pageshadow="0"
     inkscape:pageopacity="0"
     inkscape:pagecheckerboard="0"
     inkscape:document-units="px"
     showgrid="false"
     inkscape:zoom="0.91100744"
     inkscape:cx="165.20172"
     inkscape:cy="227.76982"
     inkscape:window-width="1366"
     inkscape:window-height="705"
     inkscape:window-x="-8"
     inkscape:window-y="-8"
     inkscape:window-maximized="1"
     inkscape:current-layer="layer1"
     units="px" />
  <defs
     id="defs2">
    <rect
       x="0"
       y="384.00006"
       width="511.99998"
       height="127.99992"
       id="rect12253" />
  </defs>
  <g
     inkscape:label="Calque 1"
     inkscape:groupmode="layer"
     id="layer1">
    <path
       style="color:#000000;fill:#000000;fill-rule:evenodd;stroke-width:8.46667;-inkscape-stroke:none"
       d="M 16.933335,0 H 118.53333 c 9.38107,0 16.93333,7.5522663 16.93333,16.933332 V 118.53333 c 0,9.38106 -7.55226,16.93333 -16.93333,16.93333 H 16.933335 C 7.552269,135.46666 2.7270507e-6,127.91439 2.7270507e-6,118.53333 V 16.933332 C 2.7270507e-6,7.5522663 7.552269,0 16.933335,0 Z"
       id="rect846" />
    <path
       style="color:#000000;fill:#ff7b09;fill-rule:evenodd;stroke-width:8.46667;-inkscape-stroke:none"
       d="M 16.933332,8.5685921 H 118.53333 c 4.69054,0 8.46667,3.7761329 8.46667,8.4666659 v 84.666662 c 0,4.69054 -3.77613,8.46667 -8.46667,8.46667 H 16.933332 c -4.690533,0 -8.4666658,-3.77613 -8.4666658,-8.46667 V 17.035258 c 0,-4.690533 3.7761328,-8.4666659 8.4666658,-8.4666659 z"
       id="rect846-1" />
    <path
       style="color:#000000;fill:#000000;fill-rule:evenodd;stroke-width:0.264583;-inkscape-stroke:none"
       d="M 8.4666689,101.60001 H 127 c 4.69053,0 8.46666,3.77614 8.46666,8.46667 v 8.46667 c 0,4.69053 -3.77613,8.46666 -8.46666,8.46666 H 8.4666689 c -4.690533,0 -8.4666661729493,-3.77613 -8.4666661729493,-8.46666 v -8.46667 c 0,-4.69053 3.7761331729493,-8.46667 8.4666661729493,-8.46667 z"
       id="rect1024" />
    <g
       aria-label="SUPREMACY"
       transform="matrix(0.26458333,0,0,0.26458333,25.758953,6.8438898)"
       id="text12251"
       style="font-weight:500;font-size:53.3333px;font-family:'Brandon Text';-inkscape-font-specification:'Brandon Text, Medium';white-space:pre;fill:#ffffff">
      <path
         style="color:#000000;-inkscape-font-specification:'Brandon Text, Medium';-inkscape-stroke:none"
         d="m 14.826658,428.53331 c 7.839995,0 12.586659,-5.54667 12.586659,-11.04 0,-7.25333 -6.079996,-9.86666 -10.773327,-12.15999 -3.733331,-1.81333 -5.81333,-3.2 -5.81333,-4.96 0,-1.54666 1.013333,-2.93333 3.253332,-2.93333 2.826665,0 5.973329,2.02667 7.199995,2.88 1.066666,0.64 1.973332,0.21333 2.346666,-0.37333 l 2.719998,-4.10667 c 0.213333,-0.37333 0.32,-1.33333 -0.32,-1.70666 -1.599999,-1.17334 -5.866663,-4 -11.413326,-4 -8.2133288,0 -12.319993,5.33333 -12.319993,10.61333 0,6.39999 5.1733302,9.27999 10.34666,11.78666 3.519998,1.70666 5.493331,3.14666 5.493331,5.38666 0,1.86667 -1.546666,3.2 -3.679998,3.2 -3.359998,0 -6.0799967,-1.92 -7.5733291,-2.93333 -0.533333,-0.37334 -1.3866658,-0.37334 -1.8133323,0.32 l -2.4533318,4.31999 c -0.3733331,0.69334 -0.2133332,1.17334 0.2133332,1.6 1.2266659,1.22667 5.0666636,4.10667 11.999993,4.10667 z"
         id="path827" />
      <path
         style="color:#000000;-inkscape-font-specification:'Brandon Text, Medium';-inkscape-stroke:none"
         d="m 33.333286,414.34665 c 0,8.10666 6.773329,14.18666 15.146657,14.18666 8.426662,0 15.253325,-6.08 15.253325,-14.18666 V 391.68 c 0,-0.53334 -0.48,-1.01334 -1.013333,-1.01334 h -6.559996 c -0.586667,0 -1.013333,0.48 -1.013333,1.01334 v 22.23998 c 0,3.89333 -2.826665,6.08 -6.666663,6.08 -3.786664,0 -6.559996,-2.18667 -6.559996,-6.08 V 391.68 c 0,-0.53334 -0.426666,-1.01334 -1.013332,-1.01334 h -6.559997 c -0.533333,0 -1.013332,0.48 -1.013332,1.01334 z"
         id="path829" />
      <path
         style="color:#000000;-inkscape-font-specification:'Brandon Text, Medium';-inkscape-stroke:none"
         d="m 71.786535,426.98664 c 0,0.53333 0.426666,1.01333 1.013333,1.01333 h 6.293329 c 0.533333,0 1.013333,-0.48 1.013333,-1.01333 v -12.53332 h 5.599997 c 6.986662,0 11.893326,-5.38667 11.893326,-12 0,-6.45333 -4.906664,-11.78666 -11.94666,-11.78666 H 72.799868 c -0.586667,0 -1.013333,0.48 -1.013333,1.01334 z m 8.319995,-20.31999 v -8.15999 h 5.386663 c 2.293332,0 3.893331,1.70666 3.893331,3.94666 0,2.4 -1.599999,4.21333 -3.893331,4.21333 z"
         id="path831" />
      <path
         style="color:#000000;-inkscape-font-specification:'Brandon Text, Medium';-inkscape-stroke:none"
         d="m 102.98646,426.98664 c 0,0.53333 0.42667,1.01333 1.01334,1.01333 h 6.34666 c 0.53333,0 1.01333,-0.48 1.01333,-1.01333 v -13.59999 h 3.68 l 7.09333,14.13332 c 0.10667,0.21334 0.42666,0.48 0.85333,0.48 h 7.09333 c 0.90667,0 1.28,-0.85333 0.90667,-1.54666 l -7.30667,-13.54666 c 4.96,-1.86667 7.89333,-5.81333 7.89333,-10.71999 0,-6.34667 -4.85333,-11.52 -11.62666,-11.52 H 103.9998 c -0.58667,0 -1.01334,0.48 -1.01334,1.01334 z m 8.37333,-20.37332 v -8.32 h 7.89333 c 2.18667,0 4.05333,1.54667 4.05333,4.05334 0,2.50666 -1.86666,4.26666 -4.05333,4.26666 z"
         id="path833" />
      <path
         style="color:#000000;-inkscape-font-specification:'Brandon Text, Medium';-inkscape-stroke:none"
         d="m 138.29304,426.98664 c 0,0.53333 0.42667,1.01333 1.01334,1.01333 h 22.07998 c 0.58667,0 1.01334,-0.48 1.01334,-1.01333 v -5.81333 c 0,-0.53333 -0.42667,-1.01333 -1.01334,-1.01333 h -14.77332 v -7.2 h 12.15999 c 0.53333,0 1.01333,-0.42666 1.01333,-1.01333 v -5.81333 c 0,-0.53333 -0.48,-1.01333 -1.01333,-1.01333 h -12.15999 v -6.61333 h 14.77332 c 0.58667,0 1.01334,-0.48 1.01334,-1.01333 V 391.68 c 0,-0.53334 -0.42667,-1.01334 -1.01334,-1.01334 h -22.07998 c -0.58667,0 -1.01334,0.48 -1.01334,1.01334 z"
         id="path835" />
      <path
         style="color:#000000;-inkscape-font-specification:'Brandon Text, Medium';-inkscape-stroke:none"
         d="m 167.14631,426.82664 c -0.10667,0.69333 0.37333,1.17333 1.01333,1.17333 h 6.29333 c 0.53334,0 0.96,-0.42666 1.01333,-0.85333 l 2.34667,-16.47999 h 0.10667 l 9.01332,17.27999 c 0.16,0.32 0.58667,0.58667 0.90667,0.58667 h 0.96 c 0.26667,0 0.74667,-0.26667 0.90667,-0.58667 l 8.95999,-17.27999 h 0.10667 l 2.4,16.47999 c 0.0533,0.42667 0.53333,0.85333 1.01333,0.85333 h 6.29333 c 0.64,0 1.12,-0.48 1.01333,-1.17333 l -6.02666,-35.83998 c -0.0533,-0.48 -0.53333,-0.85333 -0.96,-0.85333 h -0.85333 c -0.26667,0 -0.74667,0.21333 -0.90667,0.53333 l -12.37333,23.03999 h -0.10666 l -12.37333,-23.03999 c -0.16,-0.32 -0.64,-0.53333 -0.90666,-0.53333 h -0.85334 c -0.42666,0 -0.90666,0.37333 -0.96,0.85333 z"
         id="path837" />
      <path
         style="color:#000000;-inkscape-font-specification:'Brandon Text, Medium';-inkscape-stroke:none"
         d="m 212.63953,427.99997 h 5.86666 c 1.06667,0 1.65334,-0.64 1.92,-1.28 l 1.92,-4.26666 h 14.50666 l 1.92,4.21333 c 0.48,1.01333 0.90666,1.33333 1.86666,1.33333 h 5.92 c 0.8,0 1.22667,-0.69333 0.90667,-1.38666 L 230.77285,390.72 c -0.16,-0.32 -0.53333,-0.58667 -0.90666,-0.58667 h -0.53334 c -0.37333,0 -0.74666,0.26667 -0.90666,0.58667 l -16.69333,35.89331 c -0.32,0.69333 0.10667,1.38666 0.90667,1.38666 z m 12.90666,-12.79999 4,-8.79999 h 0.0533 l 4.05333,8.79999 z"
         id="path839" />
      <path
         style="color:#000000;-inkscape-font-specification:'Brandon Text, Medium';-inkscape-stroke:none"
         d="m 248.5327,409.38665 c 0,10.66666 8.58666,19.14666 19.25332,19.14666 4.74666,0 9.33333,-1.65334 12.95999,-5.17333 0.37333,-0.37334 0.42667,-1.06667 0.0533,-1.44 l -4.15999,-4.42667 c -0.32,-0.37333 -1.01334,-0.37333 -1.38667,-0.0533 -1.92,1.65333 -4.21333,2.56 -7.14666,2.56 -6.02666,0 -10.50666,-4.90667 -10.50666,-10.82666 0,-5.97333 4.42666,-10.98666 10.45332,-10.98666 2.61334,0 5.01334,0.8 7.2,2.72 0.37333,0.37333 0.96,0.37333 1.33333,0 l 4.16,-4.32 c 0.42667,-0.42667 0.42667,-1.06667 -0.0533,-1.49333 -3.62667,-3.30667 -7.57333,-4.96 -12.90666,-4.96 -10.66666,0 -19.25332,8.58666 -19.25332,19.25332 z"
         id="path841" />
      <path
         style="color:#000000;-inkscape-font-specification:'Brandon Text, Medium';-inkscape-stroke:none"
         d="m 294.50595,426.98664 c 0,0.53333 0.42666,1.01333 1.01333,1.01333 h 6.34666 c 0.53334,0 1.01334,-0.48 1.01334,-1.01333 v -17.01332 l 11.94666,-17.75999 c 0.42666,-0.69333 0,-1.54667 -0.85334,-1.54667 h -6.93333 c -0.48,0 -0.69333,0.26667 -0.85333,0.48 l -7.41333,10.93333 -7.41333,-10.93333 c -0.16,-0.21333 -0.42666,-0.48 -0.85333,-0.48 h -6.93333 c -0.85333,0 -1.28,0.85334 -0.85333,1.54667 l 11.78666,17.81332 z"
         id="path843" />
    </g>
    <path
       id="path1231"
       style="opacity:1;mix-blend-mode:normal;fill:#000000;fill-rule:nonzero;stroke:#000000;stroke-width:4.03347545;stroke-linecap:butt;stroke-linejoin:miter;stroke-miterlimit:0;stroke-dasharray:none;stroke-dashoffset:0;stroke-opacity:1;paint-order:markers fill stroke"
       sodipodi:type="inkscape:offset"
       inkscape:radius="-0.022617083"
       inkscape:original="M 142.81836 70.816406 C 136.35508 70.982529 129.82327 72.041672 123.51562 74.068359 C 93.236176 83.797346 80.792592 111.94307 91.460938 146.57227 C 92.755131 150.77319 92.696227 153.61356 91.238281 157.25586 C 88.728904 163.52487 90.072608 166.57088 98.189453 173.01953 C 99.39371 173.97628 100.74343 175.42281 101.18945 176.23633 C 102.76347 179.10728 105.38314 179.56917 111.54102 178.05664 C 116.22786 176.90543 117.25812 177.20316 118.58594 180.10352 C 120.39146 184.0473 121.21156 191.99884 120.20312 195.76953 C 119.65333 197.82526 114.79665 189.08273 114.04883 184.69141 L 113.63867 182.28125 L 112.05078 182.57812 C 109.83064 182.99183 105.92562 182.63504 103.0918 181.75977 C 100.1326 180.84576 100.21564 180.72929 101.47656 183.97656 C 103.06784 188.07461 103.41653 191.15069 102.73438 195.10352 C 100.73914 206.66526 103.76747 210.83981 123.4375 223.63867 C 136.96619 232.44149 137.37555 232.67042 140.66797 233.25781 C 145.17005 234.061 150.8584 233.12039 153.91602 231.06641 C 154.85256 230.43728 157.12743 228.97924 158.9707 227.82812 C 182.83758 212.92326 187.55581 207.89633 186.63867 198.35352 C 185.9469 191.15565 186.22271 187.19911 187.6543 183.73242 C 188.37096 181.99697 188.95703 180.53703 188.95703 180.48633 C 188.95703 180.43567 187.80514 180.90344 186.39844 181.52539 C 183.97268 182.59793 183.62178 182.65518 179.58594 182.64258 L 175.33008 182.62891 L 174.95312 185.02344 C 174.53846 187.65683 172.55394 191.94097 170.36719 194.91992 L 169.05859 196.70312 L 168.75195 195.67578 C 167.60782 191.84454 169.31715 181.24811 171.49805 178.65625 C 172.70182 177.22565 173.74436 177.13166 177.64062 178.10156 C 183.8213 179.64012 186.73217 179.10661 188.23633 176.1582 C 188.64948 175.34838 189.96709 173.93968 191.33594 172.8457 C 199.06744 166.66676 200.49883 163.24674 197.93555 157.07812 C 196.42137 153.43425 196.41646 151.35308 197.9082 145.9668 C 204.19503 123.26671 202.04892 105.59119 191.28516 91.417969 C 180.98651 77.857195 162.20821 70.318039 142.81836 70.816406 z M 144.43164 74.53125 C 184.25337 74.491835 205.92244 105.10555 194.12305 144.73242 C 192.54725 150.02449 192.56668 154.29767 194.18164 158.23438 C 196.14178 163.0125 195.63597 164.23752 189.6875 169.13867 C 187.77006 170.71851 185.76615 172.69972 185.23438 173.54102 C 184.07857 175.36956 183.05431 175.49952 178.72656 174.36523 C 170.24209 172.14148 167.21062 174.77294 164.96484 186.3125 C 164.09182 190.79833 164.40944 190.33381 161.06836 192.01367 C 157.63551 193.73968 157.91211 193.78648 157.91211 191.47461 L 157.91211 189.53516 L 155.9707 189.53516 L 154.03125 189.53516 L 154.03125 192.13867 L 154.03125 194.74219 L 152.53125 195.11914 C 151.70663 195.32629 149.96203 195.60456 148.65234 195.73828 L 146.26953 195.98242 L 146.26953 192.75781 L 146.26953 189.53516 L 144.50586 189.53516 L 142.74219 189.53516 L 142.74219 192.70898 L 142.74219 195.88477 L 141.24414 195.84375 C 139.76883 195.80292 136.99444 195.4069 135.42773 195.01367 C 134.68656 194.82766 134.62891 194.62082 134.62891 192.1543 L 134.62891 189.49805 L 132.77734 189.60352 L 130.92383 189.71094 L 130.81836 191.75 L 130.71289 193.78711 L 128.34961 192.53125 C 124.80439 190.64712 124.85575 190.71353 124.24805 187.21875 C 122.15675 175.19204 119.15609 172.22831 111.05859 174.18945 C 105.81794 175.45868 105.0299 175.39492 103.9375 173.61328 C 103.45243 172.82216 101.78465 171.12356 100.23242 169.83984 C 92.92771 163.79865 92.859367 163.61856 95.314453 156.72656 C 96.50214 153.39245 96.383031 149.33267 94.964844 144.9082 C 82.529604 106.11265 104.69907 74.57058 144.43164 74.53125 z M 124.37695 133.35938 C 119.55549 133.24914 114.50096 133.60708 111.6543 134.48633 C 99.870656 138.12592 99.329779 158.96693 110.95703 161.34766 C 118.54877 162.9021 133.57933 156.04324 137.21289 149.36719 C 139.85106 144.52 139.03048 136.75883 135.69727 135.03516 C 133.78667 134.04715 129.19841 133.46961 124.37695 133.35938 z M 167.25977 133.39258 C 154.81548 133.4027 151.52059 134.68467 150.41797 139.94141 C 148.44357 149.35444 156.67825 157.9414 170.61133 160.99805 C 180.53113 163.17425 186.31055 158.80917 186.31055 149.14062 C 186.31055 137.91125 180.83029 133.38158 167.25977 133.39258 z M 124.16602 137.1582 C 129.14879 137.30501 133.69196 138.09796 134.38867 139.43945 C 137.81678 146.04012 129.59036 154.76469 117.62109 157.22461 L 117.62109 157.22656 C 114.15605 157.93867 111.83736 157.92417 110.33008 157.18164 C 104.73584 154.42573 105.40307 141.75469 111.30078 138.75977 C 113.75944 137.51124 119.18324 137.0114 124.16602 137.1582 z M 166.97266 137.22461 C 171.47469 137.29761 175.86528 137.82252 177.71094 138.75977 C 183.14214 141.51779 184.30015 152.99324 179.51562 156.64258 C 174.65672 160.34864 157.57423 153.74903 154.93164 147.14453 C 153.57852 143.76276 153.92337 139.02582 155.56836 138.40039 C 157.85716 137.53019 162.47062 137.15161 166.97266 137.22461 z M 141.48438 150.8125 C 141.42562 150.87124 141.13096 152.44857 140.83008 154.31836 C 139.87614 160.24652 138.10544 165.07487 135.87305 167.83789 C 132.0556 172.56272 132.77032 177.57307 137.62695 180.12891 C 139.0865 180.89703 141.61608 180.86092 142.94141 180.05273 C 143.99078 179.41279 144.0574 179.41223 145.23438 180.03906 C 151.91706 183.59813 158.71318 174.91854 154.00781 168.83398 C 150.77891 164.65865 149.22423 160.79036 148.1875 154.34766 C 147.51571 150.1729 147.69198 150.32627 146.04688 152.45898 C 144.3763 154.62475 144.57933 154.62313 142.94531 152.48047 C 142.20052 151.50382 141.54307 150.7537 141.48438 150.8125 z M 144.50586 159.87109 C 145.03692 159.87109 145.56837 160.34177 145.74414 161.2832 C 146.09109 163.14151 148.05718 167.2124 149.92578 169.94141 C 151.74137 172.59302 152.05808 174.39124 150.94531 175.74219 C 149.3409 177.69001 146.50284 177.18875 145.41016 174.76562 C 144.58998 172.94679 144.64116 172.9421 142.60156 175.07031 C 138.54705 179.30097 135.50359 174.92835 139.04688 169.96289 C 140.84127 167.44828 142.91178 163.18889 143.26758 161.2832 C 143.44335 160.34177 143.9748 159.87109 144.50586 159.87109 z M 106.58203 186.53516 L 108.56445 186.65234 L 110.54492 186.76953 L 110.98633 188.24023 C 111.72271 190.6985 113.98036 194.86621 116.19531 197.85352 C 118.27619 200.65999 122.62636 205.53575 122.84961 205.3125 C 122.9353 205.22681 124.39844 195.43123 124.39844 194.94336 C 124.39844 194.89991 125.28084 195.32719 126.35938 195.89453 C 127.43791 196.46187 128.9462 197.11463 129.71094 197.34375 L 131.10156 197.75977 L 131.10156 200.54492 L 131.10156 203.33008 L 132.95312 203.22266 L 134.80469 203.11719 L 134.91211 201.04492 L 135.01953 198.97461 L 136.32227 199.18359 C 137.0395 199.29808 138.77885 199.49837 140.18555 199.62891 L 142.74219 199.86719 L 142.74219 201.59766 L 142.74219 203.33008 L 144.59375 203.22266 L 146.44727 203.11719 L 146.55469 201.44141 C 146.65887 199.81782 146.6969 199.76555 147.78906 199.75195 C 148.40902 199.74424 150.06056 199.53648 151.45898 199.29102 L 154.00195 198.84375 L 154.10547 200.98047 L 154.20703 203.11719 L 156.06055 203.22266 L 157.91211 203.33008 L 157.91211 200.51367 C 157.91211 197.90048 157.96873 197.67726 158.70508 197.44922 C 159.14164 197.31402 160.59871 196.66369 161.94141 196.00391 C 164.88027 194.5598 164.76615 194.4567 165.29102 199.05859 C 165.52339 201.09588 165.80546 203.36963 165.91797 204.10938 L 166.12305 205.45312 L 167.3418 204.28516 C 172.11573 199.70714 178.37305 190.04915 178.37305 187.25977 C 178.37305 186.82725 178.80278 186.71311 180.40234 186.71289 L 182.42969 186.71094 L 182.48047 190.85742 C 182.50785 193.1374 182.58665 196.908 182.65625 199.23633 C 182.85935 206.02755 181.52938 207.84258 170.67578 215.57812 C 165.10828 219.54619 150.97666 228.48755 149.44531 229.01172 C 147.79271 229.5774 142.93658 229.7981 141.03125 229.39453 C 139.11444 228.98853 138.24449 228.52749 132.43359 224.83203 C 115.80405 214.25642 108.90342 208.91453 107.11328 205.23242 C 106.1851 203.32326 106.21809 203.99369 106.47656 191.65039 L 106.58203 186.53516 z "
       transform="matrix(0.45917803,0,0,0.45917803,1.3604652,-14.844332)"
       d="m 144.63477,70.816406 c -0.60431,-6.4e-5 -1.21067,0.0079 -1.81641,0.02344 -6.4612,0.166069 -12.98942,1.224002 -19.29492,3.25 -15.13454,4.862826 -25.809493,14.327094 -31.369143,26.902346 -5.559651,12.57525 -6.004812,28.26363 -0.671875,45.57422 1.295094,4.20384 1.236719,7.05139 -0.222656,10.69726 -1.253702,3.13204 -1.54377,5.45214 -0.509766,7.79688 1.034004,2.34473 3.395585,4.71778 7.453125,7.9414 1.206506,0.95854 2.556025,2.40218 3.005855,3.22266 0.78472,1.43128 1.82577,2.25871 3.44141,2.54297 1.61564,0.28426 3.80707,0.0235 6.88477,-0.73242 2.34423,-0.57581 3.77721,-0.79159 4.79492,-0.4961 0.50885,0.14775 0.91268,0.42332 1.27148,0.84375 0.3588,0.42044 0.67351,0.98498 1.00586,1.71094 0.90462,1.97594 1.56039,4.9523 1.86524,7.90625 0.30484,2.95395 0.25759,5.88473 -0.24805,7.77539 -0.0352,0.13146 -0.0882,0.22324 -0.16016,0.27539 -0.0719,0.0521 -0.16178,0.0618 -0.25976,0.0352 -0.19596,-0.0534 -0.43367,-0.24598 -0.70703,-0.54688 -0.54673,-0.60179 -1.22931,-1.64121 -1.91797,-2.88086 -1.37733,-2.4793 -2.77749,-5.76169 -3.15235,-7.96289 l -0.40625,-2.38867 -1.5664,0.29297 c -2.22714,0.41501 -6.13099,0.0581 -8.96875,-0.81836 -0.73996,-0.22855 -1.291,-0.40782 -1.67774,-0.49609 -0.19337,-0.0441 -0.34526,-0.064 -0.45898,-0.0586 -0.11372,0.005 -0.18564,0.035 -0.22852,0.0937 -0.0429,0.0588 -0.059,0.15226 -0.0449,0.28516 0.0141,0.1329 0.0577,0.30453 0.12695,0.51953 0.1384,0.43 0.38004,1.03181 0.69532,1.84375 1.59226,4.10057 1.94051,7.18263 1.25781,11.13867 -0.99722,5.77853 -0.73814,9.70348 2.22461,13.78711 2.96275,4.08364 8.63423,8.3255 18.46875,14.72461 6.76433,4.4014 10.24957,6.66041 12.45312,7.89063 2.20356,1.23021 3.12367,1.43292 4.76954,1.72656 4.49583,0.80207 10.18292,-0.14093 13.23242,-2.18945 0.93718,-0.62957 3.21123,-2.08705 5.05468,-3.23829 11.93304,-7.45218 19.07792,-12.43479 23.12305,-16.74414 4.04514,-4.30934 4.99138,-7.94163 4.5332,-12.70898 -0.6919,-7.19923 -0.41593,-11.15951 1.01758,-14.63086 0.35831,-0.86767 0.68387,-1.66771 0.91992,-2.25586 0.11803,-0.29408 0.21518,-0.53413 0.28125,-0.70508 0.033,-0.0855 0.0589,-0.15525 0.0762,-0.20312 0.008,-0.0222 0.0133,-0.0376 0.0176,-0.0508 -0.006,0.001 -0.009,0.002 -0.0176,0.004 -0.033,0.009 -0.0837,0.0238 -0.14844,0.0469 -0.12939,0.0462 -0.31709,0.12073 -0.54883,0.21484 -0.46348,0.18822 -1.10151,0.46059 -1.80469,0.77149 -2.42622,1.07274 -2.7862,1.13174 -6.82226,1.11914 l -4.23633,-0.0137 -0.375,2.375 c -0.4158,2.64062 -2.40084,6.92423 -4.58984,9.90625 l -1.3086,1.78321 a 0.02261934,0.02261934 0 0 1 -0.0391,-0.008 l -0.30664,-1.02734 c -0.57459,-1.92406 -0.43223,-5.53053 0.125,-8.98437 0.27861,-1.72693 0.66182,-3.41483 1.11133,-4.83399 0.4495,-1.41916 0.96449,-2.56804 1.51367,-3.2207 0.6038,-0.71758 1.1745,-1.10397 2.07812,-1.18555 0.90362,-0.0816 2.13914,0.13794 4.08789,0.62305 3.08894,0.76893 5.35838,1.0195 7.04102,0.71094 1.68264,-0.30857 2.77965,-1.17315 3.5293,-2.64258 0.41717,-0.8177 1.73475,-2.22484 3.10547,-3.32032 3.86469,-3.08862 6.15112,-5.4868 7.15234,-7.8789 1.00122,-2.3921 0.71995,-4.78172 -0.56055,-7.86328 -1.51534,-3.64667 -1.51948,-5.73727 -0.0273,-11.125 6.28567,-22.69591 4.14002,-40.36214 -6.61914,-54.529299 -9.97143,-13.129899 -27.89944,-20.613253 -46.63281,-20.615235 z m -0.20313,3.691406 c 19.91667,-0.01971 35.29801,7.627986 44.22266,20.236329 8.92464,12.608339 11.39146,30.175549 5.49023,49.994139 -1.57483,5.28883 -1.55421,9.55683 0.0586,13.48828 0.98059,2.39032 1.34693,3.89799 0.71876,5.42188 -0.62818,1.52388 -2.246,3.05685 -5.22071,5.50781 -0.95812,0.78943 -1.93754,1.67914 -2.74414,2.47656 -0.8066,0.79742 -1.43981,1.50334 -1.70312,1.91992 -0.57939,0.91662 -1.13395,1.4131 -2.08203,1.53321 -0.94809,0.1201 -2.28667,-0.13191 -4.45118,-0.69922 -2.11974,-0.55558 -3.89765,-0.80736 -5.40625,-0.69336 -1.50859,0.114 -2.7471,0.594 -3.79297,1.50195 -2.09173,1.81591 -3.41256,5.35287 -4.53515,11.1211 -0.43644,2.24255 -0.57318,3.25042 -1.02539,3.91211 -0.45222,0.66168 -1.21277,0.965 -2.88282,1.80468 -0.85806,0.43143 -1.48367,0.7593 -1.9414,0.97071 -0.45773,0.21141 -0.74593,0.31009 -0.9375,0.27734 -0.0958,-0.0164 -0.16615,-0.0698 -0.21289,-0.1543 -0.0467,-0.0845 -0.072,-0.19931 -0.0859,-0.34765 -0.028,-0.29669 -0.0117,-0.72717 -0.0117,-1.30469 v -1.91602 h -1.91797 -1.91601 v 2.58008 2.60352 a 0.02261934,0.02261934 0 0 1 -0.0176,0.0215 l -1.5,0.37695 c -0.82729,0.20783 -2.57199,0.48726 -3.88281,0.6211 l -2.38282,0.24414 a 0.02261934,0.02261934 0 0 1 -0.0254,-0.0234 v -3.22461 -3.19922 h -1.74023 -1.74024 v 3.15039 3.17579 a 0.02261934,0.02261934 0 0 1 -0.0234,0.0234 l -1.49805,-0.041 c -1.47857,-0.0409 -4.25292,-0.43814 -5.82226,-0.83203 -0.18619,-0.0467 -0.33146,-0.0943 -0.44532,-0.18164 -0.11386,-0.0873 -0.19367,-0.21354 -0.24804,-0.40821 -0.10875,-0.38933 -0.12305,-1.05758 -0.12305,-2.29101 v -2.63086 l -1.82617,0.10351 -1.83399,0.10547 -0.10351,2.01953 -0.10547,2.03711 a 0.02261934,0.02261934 0 0 1 -0.0332,0.0176 l -2.36328,-1.25586 c -1.77255,-0.94203 -2.64928,-1.39687 -3.16015,-2.05859 -0.51088,-0.66172 -0.64929,-1.52223 -0.95313,-3.26953 -1.04539,-6.01187 -2.31885,-9.75552 -4.33594,-11.74805 -1.00854,-0.99627 -2.20374,-1.55665 -3.65234,-1.74609 -1.44859,-0.18945 -3.15103,-0.007 -5.17383,0.48242 -2.62066,0.63469 -4.12801,0.93793 -5.12304,0.85742 -0.49752,-0.0403 -0.86875,-0.17664 -1.18164,-0.41602 -0.31289,-0.23937 -0.5681,-0.58095 -0.8418,-1.02734 -0.24027,-0.39186 -0.77819,-1.01384 -1.44922,-1.69727 -0.67103,-0.68342 -1.47459,-1.42904 -2.25,-2.07031 -3.652413,-3.02064 -5.500145,-4.57699 -6.126953,-6.24804 -0.313404,-0.83553 -0.318957,-1.69837 -0.09375,-2.78126 0.225207,-1.08288 0.681129,-2.38631 1.294922,-4.10937 1.185579,-3.32819 1.067462,-7.38174 -0.34961,-11.80273 -6.219356,-19.4032 -3.785226,-36.99588 5.173831,-49.742192 8.95905,-12.74631 24.44218,-20.646345 44.31445,-20.666016 z M 122.5625,133.36328 c -4.23529,0.007 -8.41638,0.37669 -10.90234,1.14453 -5.88029,1.81623 -8.95676,7.9274 -9.11133,13.88281 -0.0773,2.97771 0.57703,5.91485 1.97461,8.25586 1.39758,2.34102 3.53707,4.08582 6.4375,4.67969 3.78659,0.77532 9.44156,-0.54869 14.59961,-2.90234 5.15804,-2.35366 9.82073,-5.73898 11.63281,-9.06836 1.31619,-2.41828 1.77009,-5.56485 1.47852,-8.32227 -0.29158,-2.75742 -1.32941,-5.12269 -2.98438,-5.97851 -0.95034,-0.49144 -2.57511,-0.88257 -4.5625,-1.16407 -1.98739,-0.28149 -4.33806,-0.45271 -6.74805,-0.50781 -0.60249,-0.0138 -1.20941,-0.0205 -1.81445,-0.0195 z m 44.69727,0.0527 c -6.22137,0.005 -10.15479,0.32811 -12.66602,1.30468 -2.51123,0.97658 -3.60384,2.60031 -4.1543,5.22461 -0.98562,4.69898 0.57749,9.19134 4.12696,12.89258 3.54947,3.70124 9.0857,6.6111 16.04882,8.13867 4.95591,1.08723 8.87481,0.53823 11.55274,-1.48437 2.67793,-2.02261 4.11914,-5.5218 4.11914,-10.35157 0,-5.611 -1.36768,-9.54277 -4.42773,-12.07226 -3.06006,-2.52949 -7.81687,-3.65784 -14.59961,-3.65234 z m -44.97657,3.69531 c 0.63017,-0.002 1.25972,0.005 1.88282,0.0234 2.49238,0.0734 4.87492,0.30866 6.72265,0.69335 0.92387,0.19235 1.71434,0.42318 2.31836,0.68946 0.60403,0.26628 1.02278,0.56862 1.20117,0.91211 1.71935,3.31052 0.51496,7.15276 -2.61328,10.4707 -3.12791,3.3176 -8.17999,6.11469 -14.16797,7.3457 a 0.02261934,0.02261934 0 0 1 -0.002,0 0.02261934,0.02261934 0 0 1 0,0.002 c -3.46705,0.71252 -5.78926,0.69966 -7.30469,-0.0469 -2.80976,-1.38418 -4.04292,-5.25042 -3.83789,-9.14258 0.20504,-3.89215 1.84857,-7.81522 4.8086,-9.31836 2.1599,-1.09681 6.58105,-1.61495 10.99218,-1.6289 z m 43,0.084 c 0.56163,-0.005 1.12651,-0.003 1.68946,0.006 2.25177,0.0365 4.47684,0.18764 6.36914,0.44531 1.89229,0.25767 3.45114,0.62262 4.3789,1.09375 2.72632,1.38445 4.37523,4.95001 4.7461,8.625 0.37086,3.675 -0.53545,7.46279 -2.9375,9.29493 -1.22238,0.93235 -3.2062,1.21466 -5.53516,1.01367 -2.32896,-0.201 -5.00358,-0.88584 -7.60937,-1.89258 -5.21159,-2.01347 -10.14804,-5.31346 -11.47461,-8.62891 -0.67816,-1.69488 -0.9296,-3.72733 -0.80664,-5.41601 0.0615,-0.84434 0.21708,-1.60135 0.46093,-2.18945 0.24385,-0.58811 0.57623,-1.00834 0.9961,-1.16797 2.00917,-0.76389 5.79128,-1.14837 9.72265,-1.1836 z m -23.78515,13.63867 c -0.10318,0.20282 -0.62843,3.42321 -0.22852,1.05664 -0.11857,0.63513 -0.26755,1.49691 -0.41797,2.43165 -0.95433,5.93059 -2.72412,10.7608 -4.96094,13.52929 -1.90583,2.35884 -2.67858,4.78633 -2.37109,6.94141 0.30749,2.15507 1.69386,4.04111 4.11719,5.31641 0.72488,0.38148 1.71979,0.56477 2.69726,0.55078 0.97748,-0.014 1.93838,-0.22611 2.59571,-0.62696 0.52486,-0.32008 0.80632,-0.48254 1.10937,-0.48437 0.30305,-0.002 0.61643,0.1572 1.20508,0.4707 3.3318,1.77446 6.6882,0.49811 8.62891,-1.98047 1.9407,-2.47857 2.46346,-6.15741 0.11718,-9.1914 -3.23088,-4.1779 -4.78715,-8.0513 -5.82421,-14.4961 -0.16797,-1.04382 -0.28324,-1.81698 -0.38672,-2.35547 -0.0517,-0.26924 -0.10149,-0.48099 -0.15235,-0.63671 -0.0508,-0.15573 -0.10456,-0.25558 -0.16015,-0.30469 -0.0556,-0.0491 -0.11085,-0.0529 -0.1875,-0.0156 -0.0767,0.0372 -0.16941,0.12051 -0.28125,0.24414 -0.22369,0.24726 -0.52212,0.65602 -0.9336,1.18946 -0.41751,0.54126 -0.71825,0.9464 -0.96093,1.21875 -0.24269,0.27234 -0.42873,0.41469 -0.6211,0.41601 -0.19236,0.001 -0.37708,-0.13716 -0.61523,-0.40625 -0.23815,-0.26909 -0.53109,-0.67155 -0.93946,-1.20703 -0.37214,-0.48799 -0.72204,-0.91903 -0.98632,-1.2207 -0.13215,-0.15084 -0.24365,-0.2693 -0.32422,-0.34571 -0.0403,-0.0382 -0.0727,-0.0666 -0.0957,-0.082 -0.0104,-0.007 -0.0186,-0.01 -0.0234,-0.0117 z m 3.00781,9.01368 c 0.54442,0 1.08274,0.48346 1.25976,1.43164 0.17261,0.9245 0.75153,2.40591 1.51954,3.99609 0.768,1.59019 1.72673,3.28911 2.66015,4.65234 0.9088,1.32727 1.4434,2.44345 1.61133,3.39844 0.16793,0.95499 -0.0336,1.7496 -0.59375,2.42969 -0.80697,0.9797 -1.92614,1.34624 -2.98047,1.16016 -1.05432,-0.18609 -2.04463,-0.92291 -2.59375,-2.14063 -0.20508,-0.45479 -0.35543,-0.79539 -0.49609,-1.01562 -0.0703,-0.11012 -0.13782,-0.19118 -0.20703,-0.24024 -0.0692,-0.0491 -0.13966,-0.0674 -0.22071,-0.0586 -0.16209,0.0176 -0.37027,0.15631 -0.66406,0.42578 -0.29379,0.26946 -0.67366,0.66713 -1.18359,1.19922 -1.01595,1.06009 -1.97002,1.58302 -2.77735,1.6914 -0.80732,0.10839 -1.46614,-0.20017 -1.88281,-0.79882 -0.83333,-1.19732 -0.70298,-3.54152 1.07227,-6.0293 0.89607,-1.25574 1.86055,-2.94804 2.64648,-4.56445 0.78593,-1.61642 1.39331,-3.15742 1.57031,-4.10547 0.17703,-0.94818 0.71535,-1.43164 1.25977,-1.43164 z m -37.92188,26.66406 1.98243,0.11719 1.98047,0.11718 a 0.02261934,0.02261934 0 0 1 0.0195,0.0176 l 0.4414,1.47071 c 0.73475,2.45282 2.99175,6.62033 5.20508,9.60546 1.03968,1.40222 2.64826,3.32187 4.02344,4.86328 0.68759,0.77071 1.31593,1.44702 1.78711,1.91602 0.23558,0.2345 0.43293,0.41865 0.57617,0.53516 0.0716,0.0582 0.12961,0.10019 0.17187,0.12304 0.0211,0.0114 0.0379,0.0175 0.0488,0.0195 0.009,0.002 0.0111,4.2e-4 0.0117,0 3.6e-4,-9.3e-4 0.001,-4.4e-4 0.002,-0.002 0.002,-0.005 0.003,-0.0132 0.006,-0.0234 0.005,-0.0204 0.0119,-0.0498 0.0195,-0.0879 0.0153,-0.0762 0.0345,-0.18582 0.0586,-0.32421 0.0482,-0.2768 0.1129,-0.66973 0.1875,-1.13868 0.1492,-0.93789 0.34106,-2.18507 0.5293,-3.44531 0.18824,-1.26024 0.37322,-2.53331 0.51171,-3.52148 0.0692,-0.49409 0.12587,-0.91593 0.16602,-1.23047 0.0401,-0.31455 0.0625,-0.52475 0.0625,-0.58008 0,-3.4e-4 0.002,-0.009 0.002,-0.01 1.1e-4,-2.8e-4 0.006,-0.008 0.006,-0.008 2.2e-4,-2.2e-4 0.006,-0.004 0.006,-0.004 3.2e-4,-1.7e-4 0.005,-0.004 0.006,-0.004 8.5e-4,-2.3e-4 0.007,0 0.01,0 0.003,0 0.005,-3.2e-4 0.008,0 0.01,0.001 0.0194,0.005 0.0332,0.01 0.0275,0.009 0.0671,0.0234 0.11719,0.0449 0.10018,0.0431 0.244,0.11103 0.42188,0.19726 0.35575,0.17247 0.84531,0.42132 1.38476,0.70508 1.07717,0.56662 2.5864,1.21919 3.34766,1.44727 l 1.39062,0.41601 a 0.02261934,0.02261934 0 0 1 0.0176,0.0215 v 2.78515 2.75977 l 1.82617,-0.10547 1.83203,-0.10352 0.10547,-2.05273 0.10742,-2.07031 a 0.02261934,0.02261934 0 0 1 0.0273,-0.0195 l 1.30273,0.20899 c 0.71567,0.11424 2.45504,0.31286 3.86133,0.44336 l 2.55664,0.23828 a 0.02261934,0.02261934 0 0 1 0.0215,0.0234 v 1.73047 1.70703 l 1.82618,-0.10547 1.83398,-0.10352 0.10547,-1.65625 c 0.0521,-0.81195 0.0857,-1.2314 0.25195,-1.45898 0.0831,-0.11379 0.20127,-0.17615 0.36328,-0.20899 0.16202,-0.0328 0.36936,-0.0396 0.64258,-0.043 0.61541,-0.008 2.26844,-0.21368 3.66602,-0.45899 l 2.54297,-0.44726 a 0.02261934,0.02261934 0 0 1 0.0273,0.0195 l 0.10352,2.13672 0.0996,2.11718 1.83398,0.10352 1.82617,0.10547 v -2.79102 c 0,-1.30676 0.0134,-2.01505 0.1211,-2.43164 0.0538,-0.20829 0.1333,-0.34614 0.24609,-0.44336 0.11279,-0.0972 0.25835,-0.15364 0.44336,-0.21094 0.21528,-0.0667 0.68901,-0.26356 1.27539,-0.52539 0.58638,-0.26182 1.28595,-0.58821 1.95703,-0.91796 0.73457,-0.36096 1.27781,-0.63945 1.69141,-0.78126 0.2068,-0.0709 0.38094,-0.10798 0.53125,-0.10351 0.15031,0.004 0.27783,0.0527 0.38281,0.14844 0.20997,0.19154 0.33603,0.56921 0.44531,1.18554 0.10928,0.61633 0.20083,1.47266 0.33203,2.62305 0.23235,2.03713 0.51268,4.31033 0.625,5.04883 l 0.19922,1.30273 1.1875,-1.13867 c 2.3848,-2.28693 5.14245,-5.84547 7.30274,-9.17969 1.08014,-1.6671 2.01125,-3.27849 2.67187,-4.64648 0.66062,-1.368 1.04883,-2.49471 1.04883,-3.18359 0,-0.11188 0.0302,-0.20712 0.0996,-0.28321 0.0694,-0.0761 0.17596,-0.13187 0.33203,-0.17383 0.31214,-0.0839 0.82078,-0.11317 1.62109,-0.11328 l 2.02735,-0.002 a 0.02261934,0.02261934 0 0 1 0.0234,0.0234 l 0.0508,4.14648 c 0.0274,2.27976 0.10618,6.0508 0.17578,8.37891 0.10159,3.39714 -0.1825,5.55596 -1.84961,7.83008 -1.66712,2.27411 -4.7135,4.66129 -10.14063,8.52929 -2.78457,1.98463 -7.71037,5.21275 -12.13086,8.00977 -2.21024,1.39851 -4.29444,2.68994 -5.92187,3.66406 -0.81372,0.48706 -1.51245,0.89467 -2.05664,1.19727 -0.54419,0.3026 -0.93126,0.49942 -1.12696,0.5664 -0.83186,0.28475 -2.45925,0.48115 -4.11914,0.55664 -1.65988,0.0755 -3.34934,0.0289 -4.30664,-0.17382 -0.95942,-0.20322 -1.66091,-0.42018 -2.8457,-1.04883 -1.18479,-0.62866 -2.85424,-1.66785 -5.75976,-3.51563 -8.31503,-5.28797 -14.19789,-9.26821 -18.22657,-12.38672 -4.02868,-3.11851 -6.20337,-5.37519 -7.10156,-7.22265 -0.46368,-0.95374 -0.69007,-1.27082 -0.76563,-2.88672 -0.0755,-1.6159 -0.004,-4.53346 0.125,-10.70508 l 0.10547,-5.11523 a 0.02261934,0.02261934 0 0 1 0.0254,-0.0234 z" />
  </g>
</svg>
