<?xml version="1.0" encoding="UTF-8" standalone="no"?>
<!-- Created with Inkscape (http://www.inkscape.org/) -->

<svg
   width="512"
   height="512"
   viewBox="0 0 135.46666 135.46667"
   version="1.1"
   id="svg5"
   inkscape:version="1.1 (c68e22c387, 2021-05-23)"
   sodipodi:docname="supremacy.svg"
   xmlns:inkscape="http://www.inkscape.org/namespaces/inkscape"
   xmlns:sodipodi="http://sodipodi.sourceforge.net/DTD/sodipodi-0.dtd"
   xmlns="http://www.w3.org/2000/svg"
   xmlns:svg="http://www.w3.org/2000/svg">
  <sodipodi:namedview
     id="namedview7"
     pagecolor="#505050"
     bordercolor="#eeeeee"
     borderopacity="1"
     inkscape:pageshadow="0"
     inkscape:pageopacity="0"
     inkscape:pagecheckerboard="0"
     inkscape:document-units="px"
     showgrid="false"
     inkscape:zoom="0.91100744"
     inkscape:cx="165.20172"
     inkscape:cy="227.76982"
     inkscape:window-width="1366"
     inkscape:window-height="705"
     inkscape:window-x="-8"
     inkscape:window-y="-8"
     inkscape:window-maximized="1"
     inkscape:current-layer="layer1"
     units="px" />
  <defs
     id="defs2">
    <rect
       x="0"
       y="384.00006"
       width="511.99998"
       height="127.99992"
       id="rect12253" />
  </defs>
  <g
     inkscape:label="Calque 1"
     inkscape:groupmode="layer"
     id="layer1">
    <path
       style="color:#000000;fill:#000000;fill-rule:evenodd;stroke-width:8.46667;-inkscape-stroke:none"
       d="M 16.933335,0 H 118.53333 c 9.38107,0 16.93333,7.5522663 16.93333,16.933332 V 118.53333 c 0,9.38106 -7.55226,16.93333 -16.93333,16.93333 H 16.933335 C 7.552269,135.46666 2.7270507e-6,127.91439 2.7270507e-6,118.53333 V 16.933332 C 2.7270507e-6,7.5522663 7.552269,0 16.933335,0 Z"
       id="rect846" />
    <path
       style="color:#000000;fill:#ff7b09;fill-rule:evenodd;stroke-width:8.46667;-inkscape-stroke:none"
       d="M 16.933332,8.5685921 H 118.53333 c 4.69054,0 8.46667,3.7761329 8.46667,8.4666659 v 84.666662 c 0,4.69054 -3.77613,8.46667 -8.46667,8.46667 H 16.933332 c -4.690533,0 -8.4666658,-3.77613 -8.4666658,-8.46667 V 17.035258 c 0,-4.690533 3.7761328,-8.4666659 8.4666658,-8.4666659 z"
       id="rect846-1" />
    <path
       style="color:#000000;fill:#000000;fill-rule:evenodd;stroke-width:0.264583;-inkscape-stroke:none"
       d="M 8.4666689,101.60001 H 127 c 4.69053,0 8.46666,3.77614 8.46666,8.46667 v 8.46667 c 0,4.69053 -3.77613,8.46666 -8.46666,8.46666 H 8.4666689 c -4.690533,0 -8.4666661729493,-3.77613 -8.4666661729493,-8.46666 v -8.46667 c 0,-4.69053 3.7761331729493,-8.46667 8.4666661729493,-8.46667 z"
       id="rect1024" />
    <g
       aria-label="SUPREMACY"
       transform="matrix(0.26458333,0,0,0.26458333,25.758953,6.8438898)"
       id="text12251"
       style="font-weight:500;font-size:53.3333px;font-family:'Brandon Text';-inkscape-font-specification:'Brandon Text, Medium';white-space:pre;fill:#ffffff">
      <path
         style="color:#000000;-inkscape-font-specification:'Brandon Text, Medium';-inkscape-stroke:none"
         d="m 14.826658,428.53331 c 7.839995,0 12.586659,-5.54667 12.586659,-11.04 0,-7.25333 -6.079996,-9.86666 -10.773327,-12.15999 -3.733331,-1.81333 -5.81333,-3.2 -5.81333,-4.96 0,-1.54666 1.013333,-2.93333 3.253332,-2.93333 2.826665,0 5.973329,2.02667 7.199995,2.88 1.066666,0.64 1.973332,0.21333 2.346666,-0.37333 l 2.719998,-4.10667 c 0.213333,-0.37333 0.32,-1.33333 -0.32,-1.70666 -1.599999,-1.17334 -5.866663,-4 -11.413326,-4 -8.2133288,0 -12.319993,5.33333 -12.319993,10.61333 0,6.39999 5.1733302,9.27999 10.34666,11.78666 3.519998,1.70666 5.493331,3.14666 5.493331,5.38666 0,1.86667 -1.546666,3.2 -3.679998,3.2 -3.359998,0 -6.0799967,-1.92 -7.5733291,-2.93333 -0.533333,-0.37334 -1.3866658,-0.37334 -1.8133323,0.32 l -2.4533318,4.31999 c -0.3733331,0.69334 -0.2133332,1.17334 0.2133332,1.6 1.2266659,1.22667 5.0666636,4.10667 11.999993,4.10667 z"
         id="path827" />
      <path
         style="color:#000000;-inkscape-font-specification:'Brandon Text, Medium';-inkscape-stroke:none"
         d="m 33.333286,414.34665 c 0,8.10666 6.773329,14.18666 15.146657,14.18666 8.426662,0 15.253325,-6.08 15.253325,-14.18666 V 391.68 c 0,-0.53334 -0.48,-1.01334 -1.013333,-1.01334 h -6.559996 c -0.586667,0 -1.013333,0.48 -1.013333,1.01334 v 22.23998 c 0,3.89333 -2.826665,6.08 -6.666663,6.08 -3.786664,0 -6.559996,-2.18667 -6.559996,-6.08 V 391.68 c 0,-0.53334 -0.426666,-1.01334 -1.013332,-1.01334 h -6.559997 c -0.533333,0 -1.013332,0.48 -1.013332,1.01334 z"
         id="path829" />
      <path
         style="color:#000000;-inkscape-font-specification:'Brandon Text, Medium';-inkscape-stroke:none"
         d="m 71.786535,426.98664 c 0,0.53333 0.426666,1.01333 1.013333,1.01333 h 6.293329 c 0.533333,0 1.013333,-0.48 1.013333,-1.01333 v -12.53332 h 5.599997 c 6.986662,0 11.893326,-5.38667 11.893326,-12 0,-6.45333 -4.906664,-11.78666 -11.94666,-11.78666 H 72.799868 c -0.586667,0 -1.013333,0.48 -1.013333,1.01334 z m 8.319995,-20.31999 v -8.15999 h 5.386663 c 2.293332,0 3.893331,1.70666 3.893331,3.94666 0,2.4 -1.599999,4.21333 -3.893331,4.21333 z"
         id="path831" />
      <path
         style="color:#000000;-inkscape-font-specification:'Brandon Text, Medium';-inkscape-stroke:none"
         d="m 102.98646,426.98664 c 0,0.53333 0.42667,1.01333 1.01334,1.01333 h 6.34666 c 0.53333,0 1.01333,-0.48 1.01333,-1.01333 v -13.59999 h 3.68 l 7.09333,14.13332 c 0.10667,0.21334 0.42666,0.48 0.85333,0.48 h 7.09333 c 0.90667,0 1.28,-0.85333 0.90667,-1.54666 l -7.30667,-13.54666 c 4.96,-1.86667 7.89333,-5.81333 7.89333,-10.71999 0,-6.34667 -4.85333,-11.52 -11.62666,-11.52 H 103.9998 c -0.58667,0 -1.01334,0.48 -1.01334,1.01334 z m 8.37333,-20.37332 v -8.32 h 7.89333 c 2.18667,0 4.05333,1.54667 4.05333,4.05334 0,2.50666 -1.86666,4.26666 -4.05333,4.26666 z"
         id="path833" />
      <path
         style="color:#000000;-inkscape-font-specification:'Brandon Text, Medium';-inkscape-stroke:none"
         d="m 138.29304,426.98664 c 0,0.53333 0.42667,1.01333 1.01334,1.01333 h 22.07998 c 0.58667,0 1.01334,-0.48 1.01334,-1.01333 v -5.81333 c 0,-0.53333 -0.42667,-1.01333 -1.01334,-1.01333 h -14.77332 v -7.2 h 12.15999 c 0.53333,0 1.01333,-0.42666 1.01333,-1.01333 v -5.81333 c 0,-0.53333 -0.48,-1.01333 -1.01333,-1.01333 h -12.15999 v -6.61333 h 14.77332 c 0.58667,0 1.01334,-0.48 1.01334,-1.01333 V 391.68 c 0,-0.53334 -0.42667,-1.01334 -1.01334,-1.01334 h -22.07998 c -0.58667,0 -1.01334,0.48 -1.01334,1.01334 z"
         id="path835" />
      <path
         style="color:#000000;-inkscape-font-specification:'Brandon Text, Medium';-inkscape-stroke:none"
         d="m 167.14631,426.82664 c -0.10667,0.69333 0.37333,1.17333 1.01333,1.17333 h 6.29333 c 0.53334,0 0.96,-0.42666 1.01333,-0.85333 l 2.34667,-16.47999 h 0.10667 l 9.01332,17.27999 c 0.16,0.32 0.58667,0.58667 0.90667,0.58667 h 0.96 c 0.26667,0 0.74667,-0.26667 0.90667,-0.58667 l 8.95999,-17.27999 h 0.10667 l 2.4,16.47999 c 0.0533,0.42667 0.53333,0.85333 1.01333,0.85333 h 6.29333 c 0.64,0 1.12,-0.48 1.01333,-1.17333 l -6.02666,-35.83998 c -0.0533,-0.48 -0.53333,-0.85333 -0.96,-0.85333 h -0.85333 c -0.26667,0 -0.74667,0.21333 -0.90667,0.53333 l -12.37333,23.03999 h -0.10666 l -12.37333,-23.03999 c -0.16,-0.32 -0.64,-0.53333 -0.90666,-0.53333 h -0.85334 c -0.42666,0 -0.90666,0.37333 -0.96,0.85333 z"
         id="path837" />
      <path
         style="color:#000000;-inkscape-font-specification:'Brandon Text, Medium';-inkscape-stroke:none"
         d="m 212.63953,427.99997 h 5.86666 c 1.06667,0 1.65334,-0.64 1.92,-1.28 l 1.92,-4.26666 h 14.50666 l 1.92,4.21333 c 0.48,1.01333 0.90666,1.33333 1.86666,1.33333 h 5.92 c 0.8,0 1.22667,-0.69333 0.90667,-1.38666 L 230.77285,390.72 c -0.16,-0.32 -0.53333,-0.58667 -0.90666,-0.58667 h -0.53334 c -0.37333,0 -0.74666,0.26667 -0.90666,0.58667 l -16.69333,35.89331 c -0.32,0.69333 0.10667,1.38666 0.90667,1.38666 z m 12.90666,-12.79999 4,-8.79999 h 0.0533 l 4.05333,8.79999 z"
         id="path839" />
      <path
         style="color:#000000;-inkscape-font-specification:'Brandon Text, Medium';-inkscape-stroke:none"
         d="m 248.5327,409.38665 c 0,10.66666 8.58666,19.14666 19.25332,19.14666 4.74666,0 9.33333,-1.65334 12.95999,-5.17333 0.37333,-0.37334 0.42667,-1.06667 0.0533,-1.44 l -4.15999,-4.42667 c -0.32,-0.37333 -1.01334,-0.37333 -1.38667,-0.0533 -1.92,1.65333 -4.21333,2.56 -7.14666,2.56 -6.02666,0 -10.50666,-4.90667 -10.50666,-10.82666 0,-5.97333 4.42666,-10.98666 10.45332,-10.98666 2.61334,0 5.01334,0.8 7.2,2.72 0.37333,0.37333 0.96,0.37333 1.33333,0 l 4.16,-4.32 c 0.42667,-0.42667 0.42667,-1.06667 -0.0533,-1.49333 -3.62667,-3.30667 -7.57333,-4.96 -12.90666,-4.96 -10.66666,0 -19.25332,8.58666 -19.25332,19.25332 z"
         id="path841" />
      <path
         style="color:#000000;-inkscape-font-specification:'Brandon Text, Medium';-inkscape-stroke:none"
         d="m 294.50595,426.98664 c 0,0.53333 0.42666,1.01333 1.01333,1.01333 h 6.34666 c 0.53334,0 1.01334,-0.48 1.01334,-1.01333 v -17.01332 l 11.94666,-17.75999 c 0.42666,-0.69333 0,-1.54667 -0.85334,-1.54667 h -6.93333 c -0.48,0 -0.69333,0.26667 -0.85333,0.48 l -7.41333,10.93333 -7.41333,-10.93333 c -0.16,-0.21333 -0.42666,-0.48 -0.85333,-0.48 h -6.93333 c -0.85333,0 -1.28,0.85334 -0.85333,1.54667 l 11.78666,17.81332 z"
         id="path843" />
    </g>
    <g
       id="path1231"
       transform="matrix(0.45917803,0,0,0.45917803,1.3604652,-14.844332)">
      <path
         style="color:#000000;fill:#000000;stroke-width:4.03348;stroke-miterlimit:0;-inkscape-stroke:none;paint-order:markers fill stroke"
         d="m 144.63477,70.816406 c -0.60431,-6.4e-5 -1.21067,0.0079 -1.81641,0.02344 -6.4612,0.166069 -12.98942,1.224002 -19.29492,3.25 -15.13454,4.862826 -25.809493,14.327094 -31.369143,26.902344 -5.559651,12.57525 -6.004812,28.26363 -0.671875,45.57422 1.295094,4.20384 1.236719,7.05139 -0.222656,10.69726 -1.253702,3.13204 -1.54377,5.45214 -0.509766,7.79688 1.034004,2.34473 3.395585,4.71778 7.453125,7.9414 1.206506,0.95854 2.556025,2.40218 3.005855,3.22266 0.78472,1.43128 1.82577,2.25871 3.44141,2.54297 1.61564,0.28426 3.80707,0.0235 6.88477,-0.73242 2.34423,-0.57581 3.77721,-0.79159 4.79492,-0.4961 0.50885,0.14775 0.91268,0.42332 1.27148,0.84375 0.3588,0.42044 0.67351,0.98498 1.00586,1.71094 0.90462,1.97594 1.56039,4.9523 1.86524,7.90625 0.30484,2.95395 0.25759,5.88473 -0.24805,7.77539 -0.0352,0.13146 -0.0882,0.22324 -0.16016,0.27539 -0.0719,0.0521 -0.16178,0.0618 -0.25976,0.0352 -0.19596,-0.0534 -0.43367,-0.24598 -0.70703,-0.54688 -0.54673,-0.60179 -1.22931,-1.64121 -1.91797,-2.88086 -1.37733,-2.4793 -2.77749,-5.76169 -3.15235,-7.96289 l -0.40625,-2.38867 -1.5664,0.29297 c -2.22714,0.41501 -6.13099,0.0581 -8.96875,-0.81836 -0.73996,-0.22855 -1.291,-0.40782 -1.67774,-0.49609 -0.19337,-0.0441 -0.34526,-0.064 -0.45898,-0.0586 -0.11372,0.005 -0.18564,0.035 -0.22852,0.0937 -0.0429,0.0588 -0.059,0.15226 -0.0449,0.28516 0.0141,0.1329 0.0577,0.30453 0.12695,0.51953 0.1384,0.43 0.38004,1.03181 0.69532,1.84375 1.59226,4.10057 1.94051,7.18263 1.25781,11.13867 -0.99722,5.77853 -0.73814,9.70348 2.22461,13.78711 2.96275,4.08364 8.63423,8.3255 18.46875,14.72461 6.76433,4.4014 10.24957,6.66041 12.45312,7.89063 2.20356,1.23021 3.12367,1.43292 4.76954,1.72656 4.49583,0.80207 10.18292,-0.14093 13.23242,-2.18945 0.93718,-0.62957 3.21123,-2.08705 5.05468,-3.23829 11.93304,-7.45218 19.07792,-12.43479 23.12305,-16.74414 4.04514,-4.30934 4.99138,-7.94163 4.5332,-12.70898 -0.6919,-7.19923 -0.41593,-11.15951 1.01758,-14.63086 0.35831,-0.86767 0.68387,-1.66771 0.91992,-2.25586 0.11803,-0.29408 0.21518,-0.53413 0.28125,-0.70508 0.033,-0.0855 0.0589,-0.15525 0.0762,-0.20312 0.008,-0.0222 0.0133,-0.0376 0.0176,-0.0508 -0.006,0.001 -0.009,0.002 -0.0176,0.004 -0.033,0.009 -0.0837,0.0238 -0.14844,0.0469 -0.12939,0.0462 -0.31709,0.12073 -0.54883,0.21484 -0.46348,0.18822 -1.10151,0.46059 -1.80469,0.77149 -2.42622,1.07274 -2.7862,1.13174 -6.82226,1.11914 l -4.23633,-0.0137 -0.375,2.375 c -0.4158,2.64062 -2.40084,6.92423 -4.58984,9.90625 l -1.3086,1.78321 a 0.02261934,0.02261934 0 0 1 -0.0391,-0.008 l -0.30664,-1.02734 c -0.57459,-1.92406 -0.43223,-5.53053 0.125,-8.98437 0.27861,-1.72693 0.66182,-3.41483 1.11133,-4.83399 0.4495,-1.41916 0.96449,-2.56804 1.51367,-3.2207 0.6038,-0.71758 1.1745,-1.10397 2.07812,-1.18555 0.90362,-0.0816 2.13914,0.13794 4.08789,0.62305 3.08894,0.76893 5.35838,1.0195 7.04102,0.71094 1.68264,-0.30857 2.77965,-1.17315 3.5293,-2.64258 0.41717,-0.8177 1.73475,-2.22484 3.10547,-3.32032 3.86469,-3.08862 6.15112,-5.4868 7.15234,-7.8789 1.00122,-2.3921 0.71995,-4.78172 -0.56055,-7.86328 -1.51534,-3.64667 -1.51948,-5.73727 -0.0273,-11.125 6.28567,-22.69591 4.14002,-40.36214 -6.61914,-54.529297 C 181.29619,78.301634 163.36818,70.81828 144.63481,70.816298 Z m -0.20313,3.691406 c 19.91667,-0.01971 35.29801,7.627986 44.22266,20.236329 8.92464,12.608339 11.39146,30.175549 5.49023,49.994139 -1.57483,5.28883 -1.55421,9.55683 0.0586,13.48828 0.98059,2.39032 1.34693,3.89799 0.71876,5.42188 -0.62818,1.52388 -2.246,3.05685 -5.22071,5.50781 -0.95812,0.78943 -1.93754,1.67914 -2.74414,2.47656 -0.8066,0.79742 -1.43981,1.50334 -1.70312,1.91992 -0.57939,0.91662 -1.13395,1.4131 -2.08203,1.53321 -0.94809,0.1201 -2.28667,-0.13191 -4.45118,-0.69922 -2.11974,-0.55558 -3.89765,-0.80736 -5.40625,-0.69336 -1.50859,0.114 -2.7471,0.594 -3.79297,1.50195 -2.09173,1.81591 -3.41256,5.35287 -4.53515,11.1211 -0.43644,2.24255 -0.57318,3.25042 -1.02539,3.91211 -0.45222,0.66168 -1.21277,0.965 -2.88282,1.80468 -0.85806,0.43143 -1.48367,0.7593 -1.9414,0.97071 -0.45773,0.21141 -0.74593,0.31009 -0.9375,0.27734 -0.0958,-0.0164 -0.16615,-0.0698 -0.21289,-0.1543 -0.0467,-0.0845 -0.072,-0.19931 -0.0859,-0.34765 -0.028,-0.29669 -0.0117,-0.72717 -0.0117,-1.30469 v -1.91602 h -1.91797 -1.91601 v 2.58008 2.60352 a 0.02261934,0.02261934 0 0 1 -0.0176,0.0215 l -1.5,0.37695 c -0.82729,0.20783 -2.57199,0.48726 -3.88281,0.6211 l -2.38282,0.24414 a 0.02261934,0.02261934 0 0 1 -0.0254,-0.0234 v -3.22461 -3.19922 h -1.74023 -1.74024 v 3.15039 3.17579 a 0.02261934,0.02261934 0 0 1 -0.0234,0.0234 l -1.49805,-0.041 c -1.47857,-0.0409 -4.25292,-0.43814 -5.82226,-0.83203 -0.18619,-0.0467 -0.33146,-0.0943 -0.44532,-0.18164 -0.11386,-0.0873 -0.19367,-0.21354 -0.24804,-0.40821 -0.10875,-0.38933 -0.12305,-1.05758 -0.12305,-2.29101 v -2.63086 l -1.82617,0.10351 -1.83399,0.10547 -0.10351,2.01953 -0.10547,2.03711 a 0.02261934,0.02261934 0 0 1 -0.0332,0.0176 l -2.36328,-1.25586 c -1.77255,-0.94203 -2.64928,-1.39687 -3.16015,-2.05859 -0.51088,-0.66172 -0.64929,-1.52223 -0.95313,-3.26953 -1.04539,-6.01187 -2.31885,-9.75552 -4.33594,-11.74805 -1.00854,-0.99627 -2.20374,-1.55665 -3.65234,-1.74609 -1.44859,-0.18945 -3.15103,-0.007 -5.17383,0.48242 -2.62066,0.63469 -4.12801,0.93793 -5.12304,0.85742 -0.49752,-0.0403 -0.86875,-0.17664 -1.18164,-0.41602 -0.31289,-0.23937 -0.5681,-0.58095 -0.8418,-1.02734 -0.24027,-0.39186 -0.77819,-1.01384 -1.44922,-1.69727 -0.67103,-0.68342 -1.47459,-1.42904 -2.25,-2.07031 -3.652413,-3.02064 -5.500145,-4.57699 -6.126953,-6.24804 -0.313404,-0.83553 -0.318957,-1.69837 -0.09375,-2.78126 0.225207,-1.08288 0.681129,-2.38631 1.294922,-4.10937 1.185579,-3.32819 1.067462,-7.38174 -0.34961,-11.80273 -6.219356,-19.4032 -3.785226,-36.99588 5.173831,-49.742192 8.95905,-12.74631 24.44218,-20.646345 44.31445,-20.666016 z M 122.5625,133.36328 c -4.23529,0.007 -8.41638,0.37669 -10.90234,1.14453 -5.88029,1.81623 -8.95676,7.9274 -9.11133,13.88281 -0.0773,2.97771 0.57703,5.91485 1.97461,8.25586 1.39758,2.34102 3.53707,4.08582 6.4375,4.67969 3.78659,0.77532 9.44156,-0.54869 14.59961,-2.90234 5.15804,-2.35366 9.82073,-5.73898 11.63281,-9.06836 1.31619,-2.41828 1.77009,-5.56485 1.47852,-8.32227 -0.29158,-2.75742 -1.32941,-5.12269 -2.98438,-5.97851 -0.95034,-0.49144 -2.57511,-0.88257 -4.5625,-1.16407 -1.98739,-0.28149 -4.33806,-0.45271 -6.74805,-0.50781 -0.60249,-0.0138 -1.20941,-0.0205 -1.81445,-0.0195 z m 44.69727,0.0527 c -6.22137,0.005 -10.15479,0.32811 -12.66602,1.30468 -2.51123,0.97658 -3.60384,2.60031 -4.1543,5.22461 -0.98562,4.69898 0.57749,9.19134 4.12696,12.89258 3.54947,3.70124 9.0857,6.6111 16.04882,8.13867 4.95591,1.08723 8.87481,0.53823 11.55274,-1.48437 2.67793,-2.02261 4.11914,-5.5218 4.11914,-10.35157 0,-5.611 -1.36768,-9.54277 -4.42773,-12.07226 -3.06006,-2.52949 -7.81687,-3.65784 -14.59961,-3.65234 z m -44.97657,3.69531 c 0.63017,-0.002 1.25972,0.005 1.88282,0.0234 2.49238,0.0734 4.87492,0.30866 6.72265,0.69335 0.92387,0.19235 1.71434,0.42318 2.31836,0.68946 0.60403,0.26628 1.02278,0.56862 1.20117,0.91211 1.71935,3.31052 0.51496,7.15276 -2.61328,10.4707 -3.12791,3.3176 -8.17999,6.11469 -14.16797,7.3457 a 0.02261934,0.02261934 0 0 1 -0.002,0 0.02261934,0.02261934 0 0 1 0,0.002 c -3.46705,0.71252 -5.78926,0.69966 -7.30469,-0.0469 -2.80976,-1.38418 -4.04292,-5.25042 -3.83789,-9.14258 0.20504,-3.89215 1.84857,-7.81522 4.8086,-9.31836 2.1599,-1.09681 6.58105,-1.61495 10.99218,-1.6289 z m 43,0.084 c 0.56163,-0.005 1.12651,-0.003 1.68946,0.006 2.25177,0.0365 4.47684,0.18764 6.36914,0.44531 1.89229,0.25767 3.45114,0.62262 4.3789,1.09375 2.72632,1.38445 4.37523,4.95001 4.7461,8.625 0.37086,3.675 -0.53545,7.46279 -2.9375,9.29493 -1.22238,0.93235 -3.2062,1.21466 -5.53516,1.01367 -2.32896,-0.201 -5.00358,-0.88584 -7.60937,-1.89258 -5.21159,-2.01347 -10.14804,-5.31346 -11.47461,-8.62891 -0.67816,-1.69488 -0.9296,-3.72733 -0.80664,-5.41601 0.0615,-0.84434 0.21708,-1.60135 0.46093,-2.18945 0.24385,-0.58811 0.57623,-1.00834 0.9961,-1.16797 2.00917,-0.76389 5.79128,-1.14837 9.72265,-1.1836 z m -23.78515,13.63867 c -8.6e-4,0.002 -0.002,0.005 -0.006,0.0156 -0.005,0.0143 -0.0125,0.0347 -0.0195,0.0605 -0.0141,0.0517 -0.0305,0.12432 -0.0508,0.21679 -0.0405,0.18494 -0.0931,0.44611 -0.15235,0.76367 -0.11857,0.63513 -0.26755,1.49691 -0.41797,2.43165 -0.95433,5.93059 -2.72412,10.7608 -4.96094,13.52929 -1.90583,2.35884 -2.67858,4.78633 -2.37109,6.94141 0.30749,2.15507 1.69386,4.04111 4.11719,5.31641 0.72488,0.38148 1.71979,0.56477 2.69726,0.55078 0.97748,-0.014 1.93838,-0.22611 2.59571,-0.62696 0.52486,-0.32008 0.80632,-0.48254 1.10937,-0.48437 0.30305,-0.002 0.61643,0.1572 1.20508,0.4707 3.3318,1.77446 6.6882,0.49811 8.62891,-1.98047 1.9407,-2.47857 2.46346,-6.15741 0.11718,-9.1914 -3.23088,-4.1779 -4.78715,-8.0513 -5.82421,-14.4961 -0.16797,-1.04382 -0.28324,-1.81698 -0.38672,-2.35547 -0.0517,-0.26924 -0.10149,-0.48099 -0.15235,-0.63671 -0.0508,-0.15573 -0.10456,-0.25558 -0.16015,-0.30469 -0.0556,-0.0491 -0.11085,-0.0529 -0.1875,-0.0156 -0.0767,0.0372 -0.16941,0.12051 -0.28125,0.24414 -0.22369,0.24726 -0.52212,0.65602 -0.9336,1.18946 -0.41751,0.54126 -0.71825,0.9464 -0.96093,1.21875 -0.24269,0.27234 -0.42873,0.41469 -0.6211,0.41601 -0.19236,0.001 -0.37708,-0.13716 -0.61523,-0.40625 -0.23815,-0.26909 -0.53109,-0.67155 -0.93946,-1.20703 -0.37214,-0.48799 -0.72204,-0.91903 -0.98632,-1.2207 -0.13215,-0.15084 -0.24365,-0.2693 -0.32422,-0.34571 -0.0403,-0.0382 -0.0727,-0.0666 -0.0957,-0.082 -0.0104,-0.007 -0.0186,-0.01 -0.0234,-0.0117 z m 3.00781,9.01368 c 0.54442,0 1.08274,0.48346 1.25976,1.43164 0.17261,0.9245 0.75153,2.40591 1.51954,3.99609 0.768,1.59019 1.72673,3.28911 2.66015,4.65234 0.9088,1.32727 1.4434,2.44345 1.61133,3.39844 0.16793,0.95499 -0.0336,1.7496 -0.59375,2.42969 -0.80697,0.9797 -1.92614,1.34624 -2.98047,1.16016 -1.05432,-0.18609 -2.04463,-0.92291 -2.59375,-2.14063 -0.20508,-0.45479 -0.35543,-0.79539 -0.49609,-1.01562 -0.0703,-0.11012 -0.13782,-0.19118 -0.20703,-0.24024 -0.0692,-0.0491 -0.13966,-0.0674 -0.22071,-0.0586 -0.16209,0.0176 -0.37027,0.15631 -0.66406,0.42578 -0.29379,0.26946 -0.67366,0.66713 -1.18359,1.19922 -1.01595,1.06009 -1.97002,1.58302 -2.77735,1.6914 -0.80732,0.10839 -1.46614,-0.20017 -1.88281,-0.79882 -0.83333,-1.19732 -0.70298,-3.54152 1.07227,-6.0293 0.89607,-1.25574 1.86055,-2.94804 2.64648,-4.56445 0.78593,-1.61642 1.39331,-3.15742 1.57031,-4.10547 0.17703,-0.94818 0.71535,-1.43164 1.25977,-1.43164 z m -37.92188,26.66406 1.98243,0.11719 1.98047,0.11718 a 0.02261934,0.02261934 0 0 1 0.0195,0.0176 l 0.4414,1.47071 c 0.73475,2.45282 2.99175,6.62033 5.20508,9.60546 1.03968,1.40222 2.64826,3.32187 4.02344,4.86328 0.68759,0.77071 1.31593,1.44702 1.78711,1.91602 0.23558,0.2345 0.43293,0.41865 0.57617,0.53516 0.0716,0.0582 0.12961,0.10019 0.17187,0.12304 0.0211,0.0114 0.0379,0.0175 0.0488,0.0195 0.009,0.002 0.0111,4.2e-4 0.0117,0 3.6e-4,-9.3e-4 10e-4,-4.4e-4 0.002,-0.002 0.002,-0.005 0.003,-0.0132 0.006,-0.0234 0.005,-0.0204 0.0119,-0.0498 0.0195,-0.0879 0.0153,-0.0762 0.0345,-0.18582 0.0586,-0.32421 0.0482,-0.2768 0.1129,-0.66973 0.1875,-1.13868 0.1492,-0.93789 0.34106,-2.18507 0.5293,-3.44531 0.18824,-1.26024 0.37322,-2.53331 0.51171,-3.52148 0.0692,-0.49409 0.12587,-0.91593 0.16602,-1.23047 0.0401,-0.31455 0.0625,-0.52475 0.0625,-0.58008 0,-3.4e-4 0.002,-0.009 0.002,-0.01 1.1e-4,-2.8e-4 0.006,-0.008 0.006,-0.008 2.2e-4,-2.2e-4 0.006,-0.004 0.006,-0.004 3.2e-4,-1.7e-4 0.005,-0.004 0.006,-0.004 8.5e-4,-2.3e-4 0.007,0 0.01,0 0.003,0 0.005,-3.2e-4 0.008,0 0.01,0.001 0.0194,0.005 0.0332,0.01 0.0275,0.009 0.0671,0.0234 0.11719,0.0449 0.10018,0.0431 0.244,0.11103 0.42188,0.19726 0.35575,0.17247 0.84531,0.42132 1.38476,0.70508 1.07717,0.56662 2.5864,1.21919 3.34766,1.44727 l 1.39062,0.41601 a 0.02261934,0.02261934 0 0 1 0.0176,0.0215 v 2.78515 2.75977 l 1.82617,-0.10547 1.83203,-0.10352 0.10547,-2.05273 0.10742,-2.07031 a 0.02261934,0.02261934 0 0 1 0.0273,-0.0195 l 1.30273,0.20899 c 0.71567,0.11424 2.45504,0.31286 3.86133,0.44336 l 2.55664,0.23828 a 0.02261934,0.02261934 0 0 1 0.0215,0.0234 v 1.73047 1.70703 l 1.82618,-0.10547 1.83398,-0.10352 0.10547,-1.65625 c 0.0521,-0.81195 0.0857,-1.2314 0.25195,-1.45898 0.0831,-0.11379 0.20127,-0.17615 0.36328,-0.20899 0.16202,-0.0328 0.36936,-0.0396 0.64258,-0.043 0.61541,-0.008 2.26844,-0.21368 3.66602,-0.45899 l 2.54297,-0.44726 a 0.02261934,0.02261934 0 0 1 0.0273,0.0195 l 0.10352,2.13672 0.0996,2.11718 1.83398,0.10352 1.82617,0.10547 v -2.79102 c 0,-1.30676 0.0134,-2.01505 0.1211,-2.43164 0.0538,-0.20829 0.1333,-0.34614 0.24609,-0.44336 0.11279,-0.0972 0.25835,-0.15364 0.44336,-0.21094 0.21528,-0.0667 0.68901,-0.26356 1.27539,-0.52539 0.58638,-0.26182 1.28595,-0.58821 1.95703,-0.91796 0.73457,-0.36096 1.27781,-0.63945 1.69141,-0.78126 0.2068,-0.0709 0.38094,-0.10798 0.53125,-0.10351 0.15031,0.004 0.27783,0.0527 0.38281,0.14844 0.20997,0.19154 0.33603,0.56921 0.44531,1.18554 0.10928,0.61633 0.20083,1.47266 0.33203,2.62305 0.23235,2.03713 0.51268,4.31033 0.625,5.04883 l 0.19922,1.30273 1.1875,-1.13867 c 2.3848,-2.28693 5.14245,-5.84547 7.30274,-9.17969 1.08014,-1.6671 2.01125,-3.27849 2.67187,-4.64648 0.66062,-1.368 1.04883,-2.49471 1.04883,-3.18359 0,-0.11188 0.0302,-0.20712 0.0996,-0.28321 0.0694,-0.0761 0.17596,-0.13187 0.33203,-0.17383 0.31214,-0.0839 0.82078,-0.11317 1.62109,-0.11328 l 2.02735,-0.002 a 0.02261934,0.02261934 0 0 1 0.0234,0.0234 l 0.0508,4.14648 c 0.0274,2.27976 0.10618,6.0508 0.17578,8.37891 0.10159,3.39714 -0.1825,5.55596 -1.84961,7.83008 -1.66712,2.27411 -4.7135,4.66129 -10.14063,8.52929 -2.78457,1.98463 -7.71037,5.21275 -12.13086,8.00977 -2.21024,1.39851 -4.29444,2.68994 -5.92187,3.66406 -0.81372,0.48706 -1.51245,0.89467 -2.05664,1.19727 -0.54419,0.3026 -0.93126,0.49942 -1.12696,0.5664 -0.83186,0.28475 -2.45925,0.48115 -4.11914,0.55664 -1.65988,0.0755 -3.34934,0.0289 -4.30664,-0.17382 -0.95942,-0.20322 -1.66091,-0.42018 -2.8457,-1.04883 -1.18479,-0.62866 -2.85424,-1.66785 -5.75976,-3.51563 -8.31503,-5.28797 -14.19789,-9.26821 -18.22657,-12.38672 -4.02868,-3.11851 -6.20337,-5.37519 -7.10156,-7.22265 -0.46368,-0.95374 -0.69007,-1.27082 -0.76563,-2.88672 -0.0755,-1.6159 -0.004,-4.53346 0.125,-10.70508 l 0.10547,-5.11523 a 0.02261934,0.02261934 0 0 1 0.0254,-0.0234 z"
         id="path857" />
      <path
         style="color:#000000;fill:#000000;stroke-miterlimit:0;-inkscape-stroke:none;paint-order:markers fill stroke"
         d="m 144.63477,68.798828 c -0.62218,-6.6e-5 -1.24462,0.0094 -1.86719,0.02539 h -0.002 c -6.64623,0.170825 -13.36258,1.258241 -19.85937,3.345703 -15.59713,5.011461 -26.801333,14.899699 -32.595703,28.005858 -5.794376,13.10617 -6.199029,29.31597 -0.75586,46.98438 1.214629,3.94265 1.163669,6.02676 -0.167968,9.35351 -1.341509,3.3514 -1.770792,6.43978 -0.482422,9.36133 1.288736,2.92237 3.908364,5.41868 8.044922,8.70508 1.007801,0.80067 2.380368,2.40932 2.492187,2.61328 0.439337,0.80132 1.074294,1.4751 1.779294,2.05859 -0.12563,-0.0106 -0.20872,-0.0466 -0.36718,-0.0391 -0.43197,0.0208 -1.280495,0.2592 -1.761723,0.91797 -0.501019,0.68671 -0.463433,1.29579 -0.421875,1.6875 0.0409,0.38549 0.123351,0.64779 0.21289,0.92578 0.17997,0.55887 0.423511,1.15451 0.734375,1.95508 1.504753,3.8752 1.783693,6.39465 1.150393,10.06445 -1.033201,5.98702 -0.71056,10.7789 2.58008,15.31445 3.29131,4.53652 9.12304,8.80248 19.00195,15.23047 6.76535,4.40207 10.23954,6.66165 12.57031,7.96289 2.32986,1.30073 3.72252,1.65218 5.39844,1.95118 5.05437,0.90171 10.93583,0.034 14.71094,-2.50196 0.87961,-0.59089 3.17121,-2.0603 4.99804,-3.20117 11.96883,-7.47453 19.20015,-12.46646 23.52539,-17.07422 4.32476,-4.60721 5.56312,-9.15555 5.07032,-14.2832 -0.68028,-7.07828 -0.38877,-10.61239 0.87304,-13.66797 0.36075,-0.87357 0.68841,-1.67712 0.92774,-2.27344 0.11685,-0.29113 0.21415,-0.5316 0.29101,-0.73047 0.038,-0.0985 0.0686,-0.18008 0.0918,-0.24414 v -0.002 c 0.0125,-0.0348 0.0267,-0.0714 0.0391,-0.10937 l -2.15039,-2.49805 c 0.4774,-0.49672 1.00372,-0.95551 1.31836,-1.57227 0.0616,-0.12076 1.36322,-1.69701 2.56836,-2.66015 3.95936,-3.16428 6.51583,-5.7178 7.75391,-8.67578 1.23785,-2.95746 0.82351,-6.08994 -0.5586,-9.41602 -1.41103,-3.39565 -1.40337,-4.55503 0.0527,-9.8125 6.38902,-23.06908 4.2124,-41.58168 -6.95703,-56.289063 -10.45237,-13.763175 -28.96799,-21.41007 -48.23828,-21.412109 z m -0.20118,7.726563 c 19.39936,-0.0192 34.05871,7.354429 42.57422,19.384765 8.51551,12.030344 10.96746,28.893114 5.20313,48.251954 -1.66089,5.57786 -1.67809,10.43005 0.12695,14.83008 0.93451,2.278 1.06302,3.05156 0.71875,3.88672 -0.34482,0.83649 -1.70552,2.30398 -4.63867,4.7207 -1.01149,0.8334 -2.02521,1.75563 -2.87891,2.59961 -0.8545,0.84478 -1.49649,1.49425 -1.99023,2.27539 -0.44458,0.70335 -0.27295,0.56599 -0.63086,0.61133 -0.36436,0.0462 -1.5766,-0.0976 -3.68555,-0.65039 -2.24271,-0.58781 -4.22051,-0.89369 -6.07031,-0.75391 -1.85004,0.1398 -3.58755,0.79626 -4.96289,1.99023 -2.75331,2.39026 -4.04364,6.35212 -5.19336,12.25977 -0.443,2.27623 -0.6882,3.12778 -0.70899,3.1582 -0.01,0.0145 -6.7e-4,0.0379 -0.33007,0.22852 -0.3294,0.19058 -0.9372,0.48086 -1.79493,0.91211 -0.1232,0.0619 -0.15193,0.0753 -0.26562,0.13281 v -0.80469 l -2.01758,-2.01757 h -1.91797 -1.91601 l -2.01758,2.01757 v 2.58008 1.04883 c -0.59573,0.14899 -2.38202,0.44524 -3.58789,0.56836 l -0.18555,0.0195 v -1.01758 -3.19922 l -2.01758,-2.01757 h -1.74023 -1.74024 l -2.01757,2.01757 v 3.15039 1.0625 c -1.13837,-0.0793 -2.80745,-0.32309 -4.09571,-0.58593 -0.0171,-0.28367 -0.0293,-0.31279 -0.0293,-1.03125 v -2.63086 l -2.13086,-2.01367 -1.82617,0.10351 h -0.002 l -1.83398,0.10547 -1.89844,1.91016 -0.0469,0.89843 c -1.19767,-0.66037 -2.02373,-1.15664 -2.10938,-1.26757 -0.10172,-0.13175 -0.25722,-0.62726 -0.5625,-2.38282 -1.06854,-6.14499 -2.29063,-10.25604 -4.9043,-12.83789 -1.30627,-1.29038 -2.99437,-2.07329 -4.80859,-2.31054 -1.81513,-0.23739 -3.74732,-0.002 -5.91016,0.52148 -2.59154,0.62764 -4.06024,0.84307 -4.48632,0.80859 -0.21315,-0.0173 -0.12416,-0.0116 -0.11914,-0.008 0.002,0.002 -0.12634,-0.1195 -0.34766,-0.48047 -0.44433,-0.72465 -1.00642,-1.31924 -1.72852,-2.05469 -0.72117,-0.73449 -1.56456,-1.51842 -2.40429,-2.21289 -3.647658,-3.0167 -5.209736,-4.56601 -5.523441,-5.40234 -0.15581,-0.41539 -0.188191,-0.79477 -0.0078,-1.66211 0.180414,-0.8675 0.60886,-2.12421 1.220703,-3.8418 1.373489,-3.85569 1.186423,-8.36451 -0.330078,-13.0957 -6.064507,-18.9201 -3.651553,-35.79414 4.904299,-47.966796 8.55588,-12.172708 23.32722,-19.78945 42.66601,-19.808593 z m -42.33984,12.986328 c -1.29706,1.429205 -2.517443,2.923419 -3.626953,4.501953 -1.122469,1.596969 -2.132119,3.275191 -3.052735,5.009765 1.817634,-3.449363 4.015365,-6.651496 6.679688,-9.511718 z m 86.0957,1.46875 c 0.48028,0.564527 1.02638,1.082276 1.47266,1.669922 0.19006,0.250262 0.32917,0.521005 0.51367,0.773437 -0.61135,-0.855761 -1.31834,-1.633068 -1.98633,-2.443359 z m 2.39258,3.05664 c 5.95472,8.403561 8.90609,18.006231 8.77344,29.337891 -0.0958,-11.20349 -3.15958,-21.20692 -8.77344,-29.337891 z m -95.451171,5.539063 c -0.730776,1.421298 -1.364081,2.901888 -1.957031,4.406248 0.277407,-0.72323 0.513743,-1.47157 0.824219,-2.17383 0.33956,-0.76804 0.754131,-1.48916 1.132812,-2.232418 z m -2.589843,6.072268 c -0.288432,0.81677 -0.507685,1.6695 -0.75586,2.50781 0.237995,-0.84483 0.476352,-1.68763 0.75586,-2.50781 z m 30.017574,25.69726 c -4.35045,0.007 -8.57336,0.33224 -11.49414,1.23438 -6.90955,2.13414 -10.3596,9.14434 -10.53125,15.75781 -0.0858,3.30724 0.62168,6.60119 2.25782,9.3418 1.63585,2.74014 4.29565,4.91256 7.76562,5.62304 4.61517,0.94498 10.43716,-0.57875 15.8418,-3.04492 5.40488,-2.46629 10.33431,-5.83642 12.5664,-9.9375 1.57427,-2.89246 2.04435,-6.36538 1.71289,-9.5 -0.33152,-3.13515 -1.36835,-6.16243 -4.06445,-7.55664 -1.3956,-0.72169 -3.11197,-1.07267 -5.20508,-1.36914 -2.09358,-0.29653 -4.5089,-0.47075 -6.98437,-0.52734 -0.61855,-0.0142 -1.24308,-0.0225 -1.86524,-0.0215 z m 44.69922,0.0527 c -6.2905,0.005 -10.36035,0.26342 -13.39453,1.44336 -3.03085,1.17865 -4.77222,3.70397 -5.39844,6.68945 -1.12657,5.37099 0.73749,10.62699 4.64649,14.70312 3.90908,4.07623 9.80409,7.1184 17.07226,8.7129 5.31207,1.16536 9.90626,0.64141 13.19922,-1.84571 3.2929,-2.48709 4.92188,-6.72997 4.92188,-11.96094 0,-5.93871 -1.53656,-10.63162 -5.16016,-13.62695 -3.62411,-2.99574 -8.87956,-4.12091 -15.88672,-4.11523 z m -33.36719,5.23437 c 0.20624,0.0711 0.75887,0.15486 0.8711,0.21289 0.0863,0.0446 0.20687,0.30298 0.30664,0.40039 -0.33761,-0.23055 -0.6911,-0.41738 -1.04688,-0.57422 -0.0386,-0.017 -0.0917,-0.0225 -0.13086,-0.0391 z m -11.60156,2.4961 c 0.61097,-0.002 1.22024,0.004 1.81836,0.0215 2.40344,0.0708 4.70142,0.30472 6.3711,0.65234 0.83339,0.17352 1.51067,0.38272 1.91406,0.56055 0.1653,0.0729 0.23011,0.12843 0.27734,0.16602 1.13011,2.36591 0.36773,5.11445 -2.3418,7.98828 -2.77248,2.94062 -7.49051,5.59918 -13.10742,6.7539 l 0.31641,-0.041 c 0.0587,-0.003 0.11899,-0.003 0.17773,0 l -2.10546,2.10547 c -0.003,-0.0588 -0.003,-0.11899 0,-0.17774 l 1.60937,-1.88476 c -3.28842,0.67581 -5.21682,0.50881 -6.00781,0.11914 -1.68413,-0.82966 -2.89384,-3.83063 -2.71485,-7.22852 0.179,-3.39786 1.74333,-6.62681 3.70899,-7.625 1.3979,-0.70986 5.82652,-1.39669 10.08398,-1.41015 z m 43.01172,0.084 c 0.54481,-0.005 1.09251,-0.005 1.63867,0.004 2.18309,0.0354 4.34352,0.18435 6.13086,0.42773 1.78676,0.2433 3.24684,0.64596 3.73633,0.89453 1.77263,0.90016 3.3303,3.81881 3.6543,7.0293 0.324,3.21069 -0.62348,6.32066 -2.1543,7.48828 -0.54187,0.4133 -2.06863,0.78607 -4.13867,0.60742 -2.06976,-0.17863 -4.5968,-0.81331 -7.05664,-1.76367 -4.91994,-1.90079 -9.47113,-5.35618 -10.32813,-7.49805 -0.53545,-1.33822 -0.76795,-3.14636 -0.66797,-4.51953 0.0499,-0.68566 0.18694,-1.25967 0.3125,-1.5625 0.1257,-0.30314 0.19824,-0.18918 -0.15039,-0.0566 1.43345,-0.545 5.21196,-1.01662 9.02344,-1.05078 z m 18.02734,3.40039 c 0.0131,0.036 0.0301,0.0691 0.043,0.10547 -0.0136,-0.0356 -0.0291,-0.07 -0.043,-0.10547 z m -41.83007,6.20313 -0.55078,3.19921 -1.30274,-1.97851 c -0.0345,0.0802 -0.0348,0.0882 -0.0391,0.0996 l -0.0176,0.0469 c 0.005,-0.0147 -0.0305,0.0814 -0.0625,0.19922 -0.0348,0.12833 -0.0528,0.21512 -0.0742,0.3125 -0.0473,0.21607 -0.10191,0.49304 -0.16406,0.82617 -0.12299,0.65889 -0.27514,1.5322 -0.42774,2.48047 -0.91948,5.71404 -2.69413,10.30101 -4.5371,12.58203 -2.16343,2.67767 -3.20297,5.66168 -2.79883,8.49414 0.40398,2.83135 2.30585,5.30711 5.17383,6.81641 1.16228,0.61167 2.41693,0.79913 3.66601,0.78125 1.25022,-0.0179 2.48396,-0.22886 3.61719,-0.91992 0.11502,-0.0701 0.10982,-0.063 0.17187,-0.0957 -0.006,0.009 -0.1967,-0.0431 0.14453,0.13867 4.18194,2.22722 8.73471,0.58703 11.16407,-2.51563 2.42949,-3.10283 3.04257,-7.89718 0.125,-11.66992 -3.05359,-3.94864 -4.42277,-7.32455 -5.42969,-13.58203 -0.16615,-1.03248 -0.27787,-1.79877 -0.39648,-2.41602 -0.06,-0.31241 -0.11902,-0.58344 -0.2168,-0.88281 -0.10169,-0.31248 -0.15276,-0.67046 -0.74024,-1.18945 h -0.002 c -0.25689,-0.22686 -0.74621,-0.49802 -1.25976,-0.53906 -0.51356,-0.041 -0.91055,0.10683 -1.14454,0.2207 -0.56442,0.27417 -0.71334,0.50479 -0.89453,0.70508 -0.35981,0.39773 -0.63253,0.7871 -1.01562,1.28515 -0.37561,-0.49029 -0.73017,-0.93031 -1.02735,-1.26953 -0.15779,-0.18011 -0.29344,-0.32718 -0.45507,-0.48047 -0.0691,-0.0655 -0.11547,-0.13037 -0.35743,-0.29297 l -0.004,-0.002 c -0.19563,-0.1305 -0.44365,-0.22674 -0.47071,-0.23633 l -0.12304,0.71875 z m 4.80859,6.49804 c 0.32051,1.86023 0.72224,3.53118 1.18359,5.08594 -0.44486,-1.3416 -1.4542,-2.57031 -2.98437,-2.57031 -1.71442,0 -2.90213,1.49019 -3.21289,3.01953 0.52439,-1.74045 1.02942,-3.51433 1.3789,-5.52539 0.3768,0.37985 0.89572,0.80559 1.82032,0.80078 h 0.004 c 0.93864,-0.006 1.44362,-0.43329 1.81055,-0.81055 z m -1.80273,8.25977 c 0.30728,0.84375 0.50173,1.61925 0.96484,2.57812 0.80921,1.67552 1.80149,3.43752 2.8125,4.91407 0.81932,1.19658 1.20115,2.10943 1.28906,2.60937 0.0872,0.496 0.0569,0.53055 -0.16406,0.79883 -0.38214,0.46393 -0.70684,0.51992 -1.07422,0.45508 -0.36984,-0.0653 -0.80455,-0.31511 -1.10547,-0.98242 -0.20181,-0.44754 -0.33728,-0.80768 -0.63476,-1.27344 -0.14392,-0.22543 -0.32085,-0.50154 -0.74024,-0.79883 -0.40345,-0.28556 -1.10007,-0.47458 -1.60351,-0.41992 -1.10837,0.12035 -1.42108,0.58808 -1.81055,0.94531 -0.38402,0.35222 -0.76659,0.7601 -1.27539,1.29102 -0.78922,0.82351 -1.36675,1.03096 -1.55078,1.0625 -0.0833,-0.1897 -0.34726,-1.65996 1.06054,-3.63282 0.99626,-1.39613 1.99077,-3.1514 2.81836,-4.85351 0.48261,-0.99258 0.69336,-1.812 1.01368,-2.69336 z m 7.72656,6.26562 c 0.0608,0.08 0.1022,0.1622 0.16406,0.24219 0.0904,0.11694 0.11228,0.23922 0.19141,0.35742 -0.10452,-0.19684 -0.23673,-0.40014 -0.35547,-0.59961 z m 0.66992,1.19336 c 0.2724,0.53395 0.45425,1.06302 0.5293,1.59961 -0.12322,-0.53819 -0.28612,-1.06943 -0.5293,-1.59961 z m -17.07617,0.93164 c -0.0154,0.049 -0.0286,0.0976 -0.043,0.14649 0.0161,-0.0501 0.0255,-0.096 0.043,-0.14649 z m 17.70312,1.44336 c -0.002,0.12183 -0.002,0.24071 -0.0137,0.36133 -0.002,-0.12133 0.0242,-0.24077 0.0137,-0.36133 z m 32.95508,1.73828 c -0.0163,0.0307 -0.0467,0.055 -0.0625,0.0859 -0.53323,1.04523 -0.91749,1.35816 -2.0957,1.57422 -0.0582,0.0107 -0.17772,-0.007 -0.24024,0.002 0.98251,-0.31747 1.79414,-0.91254 2.39844,-1.66211 z m -42.32422,1.24805 c 0.54439,0.80968 1.21704,1.41772 2.03321,1.8457 -0.60025,-0.31967 -1.14719,-0.71504 -2.16407,-0.70898 h -0.002 c -1.01484,0.007 -1.60738,0.45053 -2.14648,0.7793 -0.13258,0.0808 -0.66786,0.17155 -1.15039,0.24218 1.19263,-0.3225 2.3043,-0.98766 3.34375,-2.07226 0.0399,-0.0417 0.0477,-0.0461 0.0859,-0.0859 z m 29.58203,3.07031 c 0.41693,-0.0377 1.52667,0.10097 3.41993,0.57227 1.17212,0.29178 2.15838,0.44207 3.1582,0.59766 -0.32182,-0.002 -0.3228,0.0149 -0.72656,0.0137 l -4.23633,-0.0137 -1.99805,1.70312 -0.375,2.375 c -0.21291,1.35213 -1.24549,3.6789 -2.45312,5.93945 0.0597,-1.18259 0.11698,-2.39867 0.3164,-3.63476 0.26521,-1.64386 0.63283,-3.25005 1.04297,-4.54492 0.41022,-1.29514 0.93637,-2.29547 1.13477,-2.53125 0.43035,-0.51146 0.30539,-0.43942 0.71679,-0.47657 z m -57.97265,0.0117 c 0.13837,0.0402 0.14456,0.0318 0.30078,0.21485 0.15814,0.1853 0.40858,0.59455 0.70508,1.24218 0.7391,1.6144 1.40462,4.47566 1.69336,7.27344 0.0958,0.92814 0.0873,1.79882 0.10156,2.68164 -1.16,-2.24148 -2.29129,-4.99601 -2.55273,-6.53125 l -0.40625,-2.38867 -2.35938,-1.64453 -1.56641,0.29297 c -0.65752,0.1223 -1.83164,0.0838 -3.00586,0.0156 1.03896,-0.15661 2.08689,-0.33141 3.3379,-0.63867 2.27268,-0.55824 3.47353,-0.59841 3.75195,-0.51758 z m 28.28515,2.08789 c -0.003,3e-5 0.005,0.002 0.002,0.002 -0.003,2e-5 -0.001,-2e-5 -0.004,0 z m -40.49804,2.35352 c 1.02899,0.26758 2.08268,0.48343 3.16015,0.62305 l 0.002,0.008 c -0.42601,-0.0235 -0.79781,0.16235 -1.14453,0.38281 l 0.8789,3.54102 c -0.043,-0.002 -0.072,0.0445 -0.11523,0.0391 l -0.76563,-3.58008 c -0.59782,0.38087 -1.05684,0.94292 -1.02539,1.6875 l -0.002,-0.12695 -0.0234,1.1582 c -0.23927,-1.21669 -0.49642,-2.43865 -0.96484,-3.73242 z m 81.89453,0.0566 c -0.45679,1.31731 -0.77515,2.74035 -0.95899,4.29883 l -0.0195,-1.58789 -0.002,0.0957 c 0.0405,-1.15238 -0.957,-2.14988 -2.10938,-2.10938 l 0.0684,-0.002 -2.02734,0.002 c -0.84808,10e-5 -1.41426,-0.0122 -2.14258,0.1836 -0.36648,0.0985 -0.86545,0.28865 -1.29687,0.76172 -0.42527,0.46626 -0.5989,1.12298 -0.60938,1.5957 0.17527,-0.61629 0.52569,-1.30239 0.61524,-1.87109 l 0.10547,-0.66797 2.50781,0.01 c 2.9407,0.009 4.38238,-0.23227 5.86914,-0.70898 z m -73.48438,0.61914 0.0742,0.43945 c 0.0494,0.29007 0.21191,0.62957 0.28321,0.93164 -0.29438,-0.63514 -0.83359,-1.1407 -1.54493,-1.22265 l -0.11132,-0.01 -1.19336,-0.0703 c 0.85589,0.003 1.7341,0.0453 2.49218,-0.0684 z m -6.42773,0.19336 0.0137,0.0566 -0.0117,-0.0566 z m 61.12305,3.55664 c -0.29352,2.36252 -0.33191,4.56588 -0.0117,6.50391 -0.14402,-0.35652 -0.34454,-0.71819 -0.75196,-1.08985 -0.45373,-0.4138 -1.13071,-0.65861 -1.68554,-0.67383 h -0.002 c -0.47948,-0.0132 -0.82207,0.0908 -1.13281,0.19336 0.29221,-0.14714 0.64574,-0.31381 0.91016,-0.46679 0.58144,-0.33642 1.19638,-0.79621 1.63867,-1.44336 h 0.002 c 0.61243,-0.89612 0.8246,-1.86074 1.03321,-3.02344 z m -58.12696,0.30469 0.50196,0.0293 0.041,0.13672 c 0.88065,2.93872 3.16045,7.04749 5.51758,10.22657 1.10794,1.49428 2.7279,3.42478 4.13672,5.0039 0.70373,0.78881 1.34823,1.48346 1.87109,2.00391 0.26056,0.25936 0.47783,0.46919 0.72461,0.66992 h 0.002 c 0.1169,0.095 0.21205,0.18479 0.48437,0.33203 0.14119,0.0763 0.28851,0.15236 0.60547,0.2168 0.14492,0.0315 0.3327,0.0685 0.64062,0.0332 0.29472,-0.0337 0.74872,-0.26984 0.84375,-0.31836 0.0422,-0.0401 0.12043,-0.11648 0.23829,-0.22851 l 0.57226,-0.72852 c 0.13865,-0.35694 0.10391,-0.32634 0.0625,-0.18555 l 0.0234,-0.0879 c 0.01,-0.0389 0.0246,-0.10126 0.0391,-0.17383 l -0.002,0.002 c 0.0247,-0.12293 0.0441,-0.23559 0.0684,-0.375 0.0512,-0.29409 0.11779,-0.69296 0.19336,-1.16797 0.15063,-0.94692 0.34215,-2.1969 0.53125,-3.46289 0.14212,-0.95151 0.26848,-1.82159 0.38867,-2.66211 1.05033,0.5223 2.19261,1.05792 3.09179,1.33008 v 1.30273 2.75977 l 2.13282,2.01367 1.82422,-0.10547 1.83203,-0.10352 1.90039,-1.91015 0.0996,-1.94336 c 0.91439,0.12043 1.983,0.25344 3.10351,0.35742 l 0.74805,0.0703 v 1.6211 l 2.13281,2.01367 1.82422,-0.10547 1.83399,-0.10352 1.89843,-1.88671 0.0996,-1.56641 c 0.96171,-0.0669 2.05768,-0.18837 3.26563,-0.40039 l 0.3164,-0.0547 0.0937,1.98828 1.90039,1.91992 1.83399,0.10352 1.82422,0.10547 2.13281,-2.01367 v -2.79102 c 0,-0.95497 0.0272,-1.18725 0.041,-1.42383 0.26541,-0.10829 0.50289,-0.19089 0.8496,-0.3457 0.61088,-0.27275 1.32917,-0.60907 2.0254,-0.95117 0.1471,-0.0723 0.15509,-0.0715 0.28515,-0.13477 0.0626,0.47895 0.11917,0.87372 0.20508,1.62696 0.2339,2.05075 0.50495,4.26948 0.63477,5.12304 v 0.002 l 0.19921,1.30273 3.38868,1.15039 1.1875,-1.13867 c 2.57855,-2.47274 5.36951,-6.0971 7.59961,-9.53906 1.11502,-1.72094 2.08129,-3.38748 2.79492,-4.86524 0.4566,-0.94553 0.77498,-1.76859 0.99218,-2.60351 0.1534,-0.007 0.0934,-0.0117 0.29493,-0.0117 h 0.0566 l 0.0273,2.17578 c 0.0276,2.29948 0.1056,6.06832 0.17578,8.41601 0.0975,3.25934 -0.0871,4.70478 -1.45898,6.57618 -1.37238,1.87205 -4.28732,4.23267 -9.68555,8.08007 -2.71088,1.93211 -7.63902,5.16319 -12.03906,7.94727 -2.20021,1.39216 -4.27439,2.67827 -5.87891,3.63867 -0.80263,0.48043 -1.48727,0.87896 -2,1.16406 -0.51382,0.28572 -0.97945,0.48303 -0.80078,0.42188 -0.3382,0.11577 -1.99558,0.37822 -3.55664,0.44922 -1.5602,0.071 -3.25072,-0.0148 -3.79883,-0.13086 -0.86971,-0.18422 -1.25501,-0.29321 -2.31836,-0.85742 -1.06482,-0.56501 -2.72183,-1.5937 -5.62109,-3.4375 -8.2918,-5.2732 -14.14019,-9.23406 -18.07422,-12.2793 -3.93407,-3.04527 -5.90257,-5.23273 -6.52344,-6.50977 -0.49925,-1.02692 -0.49727,-0.66159 -0.56445,-2.09765 v -0.002 c -0.0674,-1.44385 -0.002,-4.3956 0.12695,-10.56836 z m 16.17969,17.37695 c 6e-5,-1.6e-4 -0.2277,0.32441 -0.39258,0.55859 0.0892,-0.0848 0.21079,-0.20093 0.21094,-0.20117 l 0.17578,-0.33984 c 0.0171,-0.0429 -0.007,0.0162 0.006,-0.0176 z m -2.17383,-16.9082 c 0.19313,0.95547 0.43697,1.81996 1.04492,2.60742 0.42255,0.54732 0.90585,0.92538 1.45704,1.28516 -0.0243,-0.0158 -0.091,-0.0629 -0.41993,-0.0977 -0.22584,-0.0227 -0.35352,-0.0117 -0.21679,-0.0117 -0.002,-3e-5 -0.007,1e-5 -0.01,0 -6e-5,0 -0.60538,0.0937 -0.60547,0.0937 -9e-5,3e-5 -0.24989,0.0976 -0.25,0.0977 -2.2e-4,1e-4 -0.16591,0.0859 -0.20703,0.11132 -0.0289,0.0179 -0.0293,0.0195 -0.0469,0.0312 0,0 -0.003,0.002 -0.01,0.006 -0.003,0.002 -0.008,0.005 -0.0176,0.0117 -0.005,0.003 -0.01,0.007 -0.0254,0.0176 -0.004,0.003 -0.0106,0.007 -0.0195,0.0137 1e-5,0 -0.006,0.004 -0.008,0.006 -0.001,7.6e-4 -0.005,0.003 -0.006,0.004 -0.001,8.7e-4 -0.006,0.004 -0.006,0.004 0,0 -0.008,0.006 -0.008,0.006 0,0 -0.006,0.004 -0.006,0.004 -0.001,0.001 -0.003,0.003 -0.004,0.004 -0.003,0.003 -0.013,0.009 -0.0137,0.01 -9.7e-4,7.3e-4 -0.004,0.002 -0.004,0.002 0,0 1.22461,1.60351 1.22461,1.60351 l -1.60351,-1.22461 c 0,0 -0.003,0.005 -0.008,0.0117 -0.002,0.003 -0.005,0.006 -0.0117,0.0156 -0.003,0.005 -0.006,0.01 -0.0176,0.0254 -0.006,0.008 -0.0292,0.0409 -0.0293,0.041 0,0 1.66406,1.13867 1.66406,1.13867 h -0.0566 c 0.003,5.2e-4 0.0547,0.01 0.0547,0.01 0,-0.10181 -0.43377,-0.01 -0.8418,-0.01 h -1.17382 c 0,1e-5 0.002,-0.0127 0.002,-0.0137 -9e-5,3.1e-4 -0.008,-3e-4 -0.008,0 -0.008,0.0783 -0.0221,0.19956 -0.041,0.34766 -0.0278,0.21749 -0.0734,0.54832 -0.11719,0.86719 0.10816,-0.4265 0.11182,-0.95308 0.18164,-1.41797 1e-4,-6.3e-4 -9e-5,-0.001 0,-0.002 9.6e-4,-0.006 0.001,-0.0131 0.002,-0.0195 0.002,-0.0271 0.004,-0.053 0.006,-0.0664 4.9e-4,-0.004 0.002,-0.0192 0.002,-0.0215 0.002,-0.01 0.003,-0.0106 0.004,-0.0176 0,0 0.002,0 0.002,0 0.002,-0.0142 0.004,-0.0287 0.006,-0.043 2.6e-4,-0.001 -2.5e-4,-7.1e-4 0,-0.002 2.4e-4,-0.001 -2.2e-4,-8.6e-4 0,-0.002 2.7e-4,-0.002 0.002,-0.004 0.002,-0.006 0.23114,-1.66292 0.27894,-3.47566 0.13867,-5.41992 z m 1.83789,5.8164 c 0,0 -1.68945,-1.10156 -1.68945,-1.10156 0,0 -0.006,0.01 -0.006,0.01 0,0 -0.0469,0.0762 -0.0469,0.0762 0,0 1.74218,1.01562 1.74218,1.01562 z m 0.0176,-2.0332 c -0.009,-3e-5 -0.01,-2.5e-4 -0.0273,0 -0.0192,2.8e-4 -0.0954,0.004 -0.0957,0.004 -2.5e-4,1e-5 -0.40223,0.0664 -0.40234,0.0664 z m 11.51758,0.17773 c -0.001,-3.6e-4 0.005,0.002 0.004,0.002 -9.5e-4,-2.4e-4 -0.003,2.4e-4 -0.004,0 z m 20.16016,0.50977 c 0.0462,0.17436 0.0255,0.2912 0.14843,0.51367 v 0.002 c 0.28742,0.51961 0.98707,1.05446 1.63867,1.16601 0.39535,0.0676 0.61585,0.004 0.8711,-0.0332 -0.27159,0.11162 -0.66125,0.27429 -0.62695,0.26367 -0.25696,0.0796 -0.69374,0.20601 -1.16407,0.61133 -0.47191,0.40676 -0.76063,1.00133 -0.88086,1.46679 -0.0784,0.30367 -0.0351,0.68903 -0.0625,0.97657 -0.15902,-1.0482 -1.15389,-1.74054 -2.19531,-1.65235 l 0.68359,-0.17187 c 5.7e-4,-1.3e-4 0.001,1.3e-4 0.002,0 0.89936,-0.20521 1.56127,-1.01714 1.58398,-1.93945 l 0.002,-0.0488 z m -23.35157,0.46289 c 0.0293,0.27885 -0.0187,0.63278 0.0664,0.9375 0.13115,0.46958 0.46515,1.08322 0.96289,1.46484 0.49038,0.37617 0.92189,0.47392 1.18164,0.53907 0.0828,0.0208 0.20081,0.0205 0.28711,0.041 -0.96221,-0.0795 -1.81683,0.53402 -2.07617,1.46094 v -0.73437 -0.0508 c -0.0227,-0.92289 -0.68767,-1.73292 -1.58789,-1.9375 l 0.13086,0.0352 -0.4668,-0.14062 c 0.75217,-0.22096 1.39039,-0.80145 1.50195,-1.61524 z m -8.33203,0.87109 c 0,0 0.0152,0.0209 0.0156,0.0215 -5e-5,-2e-5 -0.002,2e-5 -0.002,0 -4e-5,-2e-5 -0.002,2e-5 -0.002,0 -2.7e-4,-5.2e-4 -0.0117,-0.0215 -0.0117,-0.0215 z m 0.0195,0.0371 c 0.0269,0.0352 0.33749,0.43995 0.66407,0.86719 0.26112,0.34747 0.52836,0.70725 0.53125,0.70508 -0.002,0.001 -0.003,0.002 -0.006,0.004 -0.005,0.004 -0.005,0.003 -0.0137,0.01 -0.001,0.001 -0.004,0.004 -0.004,0.004 -0.0187,0.0138 -0.0514,0.0363 -0.11133,0.0742 -0.008,0.005 -0.005,0.004 -0.0137,0.01 l -0.0215,0.0117 c -0.0309,0.0177 -0.0576,0.0324 -0.0996,0.0547 -0.004,-0.008 -0.88814,-1.6694 -0.92578,-1.74024 z m -2.23632,1.33789 c -0.01,0.0685 -0.0134,0.10596 -0.0234,0.17774 -0.13728,0.9795 -0.32037,2.24706 -0.50781,3.50195 -0.0583,0.39029 -0.10645,0.68745 -0.16407,1.06641 -1.0064,-1.13985 -1.99788,-2.35825 -2.86718,-3.46485 0.2248,0.15173 0.27383,0.34626 0.66601,0.45313 v 0.002 c 0.51857,0.14079 1.35042,0.10128 1.97266,-0.34961 0.60135,-0.4358 0.81846,-0.99322 0.92383,-1.38672 z m 22.32421,0.22071 c 0.29022,0.86495 1.00959,1.54052 1.95118,1.46484 -0.43675,0.14986 -0.95554,0.34922 -1.29102,0.8086 -0.28749,0.39355 -0.34976,0.6864 -0.43359,0.99023 -0.0559,-1.00588 -0.83314,-1.87179 -1.84961,-1.93945 0.009,-7.5e-4 0.0146,-0.009 0.0234,-0.01 0.77683,-0.076 1.32508,-0.6017 1.59961,-1.31445 z m 22.63086,0.79883 c 0.33357,1.0331 1.51643,1.52165 2.51367,1.27539 -0.70742,0.90399 -1.36669,1.58886 -2.05859,2.36328 -0.10036,-0.81956 -0.16495,-1.26142 -0.26367,-2.12696 -0.0717,-0.62893 -0.13101,-1.02639 -0.19141,-1.51171 z m -62.76757,1.11132 c -0.007,0.92804 -0.0606,2.85731 -0.0391,3.4668 -0.10697,-1.04659 -0.0823,-2.20588 0.0391,-3.4668 z m 80.28515,1.48243 c 0.0417,1.08357 -0.0344,2.10519 -0.2168,3.05273 0.13806,-0.96953 0.22489,-1.97391 0.2168,-3.05273 z m -60.64062,7.01953 c -0.0202,0.0147 -0.0237,0.0167 -0.041,0.0293 9e-4,-4.6e-4 0.0254,-0.01 0.0254,-0.01 z"
         id="path859" />
    </g>
  </g>
</svg>
