<svg width="512" height="512" viewBox="0 0 135.467 135.467" xml:space="preserve" xmlns="http://www.w3.org/2000/svg"><path fill-rule="evenodd" d="M406 0a135 135 0 0 1 136 135v271a135 135 0 0 1-136 136H0V0Z" style="font-variation-settings:normal" transform="matrix(.24994 0 0 .24994 0 0)"/><path fill="#ffc000" d="M406 34a102 102 0 0 1 102 101v271H34V34Z" color="#000" style="fill:#ff3a17;fill-opacity:1" transform="matrix(.24994 0 0 .24994 0 0)"/><g style="-inkscape-font-specification:'Brandon Text, Medium';white-space:pre;stroke:none"><path fill="#fff" d="M.907 428h5.866c1.067 0 1.654-.64 1.92-1.28l1.92-4.267H25.12l1.92 4.214c.48 1.013.907 1.333 1.867 1.333h5.92c.8 0 1.226-.693.906-1.387L19.04 390.72c-.16-.32-.533-.587-.907-.587H17.6c-.373 0-.747.267-.907.587L0 426.613c-.32.694.107 1.387.907 1.387zm12.906-12.8 4-8.8h.054l4.053 8.8zm26.134 11.787c0 .533.48 1.013 1.013 1.013h6.347c.586 0 1.013-.48 1.013-1.013v-19.894h.053l20.747 20.854c.427.426.8.586 1.333.586h.534c.533 0 1.013-.32 1.013-.96V391.68c0-.533-.48-1.013-1.013-1.013h-6.4c-.587 0-1.014.48-1.014 1.013v18.933h-.053l-20.48-19.68c-.427-.426-.8-.8-1.333-.8h-.8c-.534 0-1.014.427-1.014.96zM77.12 428h5.866c1.067 0 1.654-.64 1.92-1.28l1.92-4.267h14.507l1.92 4.214c.48 1.013.907 1.333 1.867 1.333h5.92c.8 0 1.226-.693.906-1.387L95.253 390.72c-.16-.32-.533-.587-.907-.587h-.533c-.373 0-.747.267-.907.587l-16.693 35.893c-.32.694.107 1.387.907 1.387zm12.906-12.8 4-8.8h.054l4.053 8.8zm26.134 11.787c0 .533.426 1.013 1.013 1.013h6.347c.533 0 1.013-.48 1.013-1.013v-13.6h3.68l7.093 14.133c.107.213.427.48.854.48h7.093c.907 0 1.28-.853.907-1.547l-7.307-13.546c4.96-1.867 7.893-5.814 7.893-10.72 0-6.347-4.853-11.52-11.626-11.52h-15.947c-.587 0-1.013.48-1.013 1.013zm8.373-20.374v-8.32h7.893c2.187 0 4.054 1.547 4.054 4.054 0 2.506-1.867 4.266-4.054 4.266zm24.8 2.774c0 10.666 8.587 19.146 19.253 19.146 4.747 0 9.334-1.653 12.96-5.173.374-.373.427-1.067.054-1.44l-4.16-4.427c-.32-.373-1.014-.373-1.387-.053-1.92 1.653-4.213 2.56-7.147 2.56-6.026 0-10.506-4.907-10.506-10.827 0-5.973 4.426-10.986 10.453-10.986 2.613 0 5.013.8 7.2 2.72a.934.934 0 0 0 1.333 0l4.16-4.32c.427-.427.427-1.067-.053-1.494-3.627-3.306-7.573-4.96-12.907-4.96a19.21 19.21 0 0 0-19.253 19.254zm38.347 17.6c0 .533.48 1.013 1.013 1.013h6.347c.586 0 1.013-.48 1.013-1.013V412.96h15.253v14.027c0 .533.427 1.013 1.013 1.013h6.347c.533 0 1.013-.48 1.013-1.013V391.68c0-.533-.48-1.013-1.013-1.013h-6.347c-.586 0-1.013.48-1.013 1.013v13.44h-15.253v-13.44c0-.533-.427-1.013-1.013-1.013h-6.347c-.533 0-1.013.48-1.013 1.013zm48.053 0c0 .533.426 1.013 1.013 1.013h6.347c.533 0 1.013-.48 1.013-1.013v-17.014l11.947-17.76c.426-.693 0-1.546-.854-1.546h-6.933c-.48 0-.693.266-.853.48l-7.414 10.933-7.413-10.933c-.16-.214-.427-.48-.853-.48h-6.934c-.853 0-1.28.853-.853 1.546l11.787 17.814z" aria-label="ANARCHY" color="#000" font-family="'Brandon Text'" font-size="53.333" font-weight="500" style="-inkscape-font-specification:'Brandon Text, Medium';stroke:none;-inkscape-stroke:none" transform="translate(33.852 10.17) scale(.26458)"/></g><path d="M45.69 93.133c-.552-.01-1.542-.311-2.198-.67-.657-.357-3.696-3.101-6.755-6.097-3.06-2.996-5.97-6.218-6.467-7.16-.611-1.156-.775-2.412-.503-3.86.33-1.755 2.273-4.038 10.61-12.461 6.183-6.248 11.176-10.782 12.666-11.504 1.712-.828 3.683-1.19 6.479-1.19 2.32 0 4.699-.36 5.63-.849.885-.466 2.947-2.216 4.582-3.889 2.682-2.745 2.896-3.16 2.204-4.268-.69-1.106-.5-1.495 1.906-3.902 2.347-2.347 2.815-2.584 3.837-1.946 1.002.626 1.496.447 3.561-1.287 1.934-1.623 2.468-2.523 2.76-4.649.198-1.45.904-3.514 1.567-4.588.663-1.073 1.612-2.107 2.107-2.297.575-.22 1.093.136 1.431.985.292.732.695 1.845.897 2.474.276.864.535.976 1.054.457.378-.378.839-2.617 1.024-4.975.186-2.358.64-4.387 1.008-4.509.37-.121 1.548.517 2.621 1.42 1.073.902 2.443 2.726 3.045 4.052.603 1.326 1.102 3.016 1.109 3.754.009.911.373 1.343 1.134 1.343.616 0 1.508-.584 1.982-1.298.6-.905 1.19-1.172 1.948-.881.949.364 1.04.899.729 4.236-.196 2.101-.742 4.744-1.214 5.872-.77 1.841-.743 2.383.252 5.266.86 2.488 1.114 5.001 1.13 11.138.015 6.738-.125 7.98-.94 8.292-.527.203-2.097-.185-3.49-.862-2.532-1.23-2.532-1.23-5.241 1.48-1.507 1.506-3.003 2.527-3.372 2.3-.425-.264-.662-2.97-.662-7.58 0-7.171 0-7.171-1.877-9.048-1.774-1.774-1.9-1.812-2.319-.682-.243.658-1.566 2.211-2.94 3.452-2.09 1.89-2.645 2.134-3.406 1.502-.77-.64-1.54-.108-5.029 3.472-4.12 4.227-4.12 4.227-4.132 8.623-.01 3.028-.362 5.14-1.131 6.783-.677 1.446-5.082 6.315-11.175 12.352-5.531 5.481-10.813 10.247-11.736 10.592-.924.344-2.133.617-2.686.607zm.27-2.965c1.514 0 3.03-1.217 9.389-7.534 4.17-4.144 7.505-7.593 7.41-7.666-.095-.073-1.742-.437-3.659-.81-1.917-.374-5.139-1.42-7.16-2.325-2.021-.905-5.049-2.763-6.728-4.128-3.054-2.483-3.054-2.483-7.906 2.395-3.854 3.874-4.853 5.237-4.853 6.622 0 1.413 1.115 2.86 5.85 7.595 4.826 4.826 6.167 5.85 7.657 5.85zm17.646-17.951c1.684.038 2.58-.342 3.747-1.59.844-.903 1.644-2.178 1.777-2.835.133-.656.377-3.126.54-5.489.165-2.362.615-4.913 1-5.668.387-.755 2.344-3.052 4.35-5.105 3.647-3.732 3.647-3.732 1.725-5.654-1.922-1.922-1.922-1.922-5.654 1.725-2.053 2.007-4.344 3.96-5.092 4.342-.748.382-3.701.855-6.563 1.05-5.204.356-5.204.356-10.276 5.341s-5.072 4.985-2.685 7.034c1.313 1.127 3.82 2.781 5.57 3.676 1.751.895 4.57 1.964 6.266 2.375 1.694.41 4.077.77 5.295.798zm31.317-14.27c.228 0 1.163-.716 2.077-1.592 1.543-1.479 1.78-1.534 3.314-.765.909.455 1.876.933 2.149 1.061.273.13.407-3.218.298-7.439-.185-7.168-.302-7.825-1.783-9.967-.871-1.262-2.616-2.995-3.877-3.851-1.611-1.095-3.3-1.63-5.69-1.803-2.618-.19-4.007.048-6.04 1.031-1.451.703-3.124 1.814-3.717 2.47-1.05 1.159-1.024 1.247.933 3.266 1.611 1.662 2.47 2.076 4.31 2.076 1.265 0 3.088.407 4.05.905.963.497 2.158 1.692 2.656 2.655.602 1.164.905 3.459.905 6.852 0 2.806.187 5.101.415 5.101zm-12.29-10.143c.216 0 .738-.418 1.161-.928.658-.792.218-1.484-3.028-4.759-3.598-3.63-3.855-3.78-4.894-2.84-1.05.951-.94 1.152 2.636 4.76 2.054 2.072 3.91 3.767 4.125 3.767zm19.206-13.107c.258-.232.622-1.363.809-2.515.34-2.093.34-2.093-2.242-2.037-2.581.057-2.581.057-2.986-2.698-.222-1.515-.813-3.528-1.314-4.475-.658-1.245-.992-1.473-1.207-.826-.164.493-.46 1.875-.659 3.072-.198 1.198-.89 2.851-1.538 3.675-.648.823-1.178 1.622-1.178 1.774 0 .152 1.009.438 2.242.635 1.232.198 3.447 1.137 4.922 2.087 1.475.951 2.893 1.54 3.15 1.308zm-13.596-3.6c.82 0 1.483-.202 1.472-.448-.012-.246-.524-1.052-1.14-1.79-.616-.738-1.279-1.342-1.472-1.342-.194 0-.352.805-.352 1.79 0 1.511.232 1.79 1.492 1.79z"/></svg>