<?xml version="1.0" encoding="UTF-8" standalone="no"?>
<svg
   width="512"
   height="512"
   viewBox="0 0 135.46666 135.46667"
   version="1.1"
   id="svg14"
   sodipodi:docname="commerce.svg"
   xml:space="preserve"
   inkscape:version="1.2 (dc2aedaf03, 2022-05-15)"
   xmlns:inkscape="http://www.inkscape.org/namespaces/inkscape"
   xmlns:sodipodi="http://sodipodi.sourceforge.net/DTD/sodipodi-0.dtd"
   xmlns="http://www.w3.org/2000/svg"
   xmlns:svg="http://www.w3.org/2000/svg"><defs
     id="defs18"><rect
       x="128.47232"
       y="1534.1107"
       width="1703.2304"
       height="420.79972"
       id="rect377" /><rect
       x="128.47232"
       y="1534.1107"
       width="1442.088"
       height="411.57035"
       id="rect6519" /><rect
       x="458.85301"
       y="1631.1052"
       width="1235.8888"
       height="318.18275"
       id="rect353" /><rect
       x="128.47232"
       y="1534.1107"
       width="1919.5277"
       height="513.8893"
       id="rect358" /><path
       id="a"
       d="M128 1536h1841v529H128z" /></defs><sodipodi:namedview
     id="namedview16"
     pagecolor="#505050"
     bordercolor="#eeeeee"
     borderopacity="1"
     inkscape:showpageshadow="0"
     inkscape:pageopacity="0"
     inkscape:pagecheckerboard="0"
     inkscape:deskcolor="#505050"
     showgrid="false"
     inkscape:zoom="0.77441738"
     inkscape:cx="237.59797"
     inkscape:cy="256.96737"
     inkscape:window-width="1366"
     inkscape:window-height="705"
     inkscape:window-x="-8"
     inkscape:window-y="-8"
     inkscape:window-maximized="1"
     inkscape:current-layer="svg14" /><g
     id="g318"
     transform="matrix(0.24993507,0,0,0.24993507,4.6222024e-4,9.2506936e-4)"><path
       fill-rule="evenodd"
       d="M 406,0 A 135,135 0 0 1 542,135 V 406 A 135,135 0 0 1 406,542 H 0 V 0 Z"
       style="font-variation-settings:normal;-inkscape-stroke:none"
       id="path5" /><path
       fill="#ffc000"
       d="M 406,34 A 102,102 0 0 1 508,135 V 406 H 34 V 34 Z"
       color="#000000"
       style="fill:#ffc100;fill-opacity:1"
       id="path7" /></g><g
     style="-inkscape-font-specification:'Brandon Text, Medium';white-space:pre"
     id="g10"
     transform="translate(0,3.3248485)"><path
       fill="#ffffff"
       d="m 2.0799988,409.38665 c 0,10.66666 8.5866612,19.14666 19.2533222,19.14666 4.746663,0 9.333327,-1.65334 12.959992,-5.17333 0.373333,-0.37334 0.426666,-1.06667 0.05333,-1.44 l -4.159997,-4.42667 c -0.32,-0.37333 -1.013333,-0.37333 -1.386666,-0.0533 -1.919999,1.65333 -4.213331,2.56 -7.146663,2.56 -6.026663,0 -10.50666,-4.90667 -10.50666,-10.82666 0,-5.97333 4.426664,-10.98666 10.453327,-10.98666 2.613332,0 5.01333,0.8 7.199996,2.72 0.373333,0.37333 0.959999,0.37333 1.333332,0 l 4.159998,-4.32 c 0.426666,-0.42667 0.426666,-1.06667 -0.05333,-1.49333 -3.626665,-3.30667 -7.573329,-4.96 -12.906659,-4.96 -10.666661,0 -19.2533222,8.58666 -19.2533222,19.25332 z m 35.2531742,0 c 0,10.66666 8.479995,19.14666 19.146655,19.14666 10.66666,0 19.199988,-8.48 19.199988,-19.14666 0,-10.66666 -8.533328,-19.25332 -19.199988,-19.25332 -10.66666,0 -19.146655,8.58666 -19.146655,19.25332 z m 8.533328,0 c 0,-5.86666 4.799997,-10.71999 10.613327,-10.71999 5.866663,0 10.66666,4.85333 10.66666,10.71999 0,5.81333 -4.799997,10.61333 -10.66666,10.61333 -5.81333,0 -10.613327,-4.8 -10.613327,-10.61333 z m 33.813225,17.43999 c -0.106666,0.69333 0.373334,1.17333 1.013333,1.17333 h 6.29333 c 0.533333,0 0.959999,-0.42666 1.013332,-0.85333 l 2.346666,-16.47999 h 0.106666 l 9.013328,17.27999 c 0.16,0.32 0.586669,0.58667 0.906669,0.58667 h 0.96 c 0.26666,0 0.74666,-0.26667 0.90666,-0.58667 l 8.96,-17.27999 h 0.10666 l 2.4,16.47999 c 0.0533,0.42667 0.53334,0.85333 1.01334,0.85333 h 6.29333 c 0.63999,0 1.11999,-0.48 1.01333,-1.17333 l -6.02667,-35.83998 c -0.0533,-0.48 -0.53333,-0.85333 -0.95999,-0.85333 h -0.85334 c -0.26666,0 -0.74666,0.21333 -0.90666,0.53333 l -12.37333,23.03999 h -0.10667 L 88.426388,390.66666 c -0.16,-0.32 -0.64,-0.53333 -0.906666,-0.53333 h -0.853333 c -0.426666,0 -0.906666,0.37333 -0.959999,0.85333 z m 46.826554,0 c -0.10667,0.69333 0.37333,1.17333 1.01333,1.17333 h 6.29333 c 0.53334,0 0.96,-0.42666 1.01333,-0.85333 l 2.34667,-16.47999 h 0.10667 l 9.01332,17.27999 c 0.16,0.32 0.58667,0.58667 0.90667,0.58667 h 0.96 c 0.26667,0 0.74667,-0.26667 0.90667,-0.58667 l 8.95999,-17.27999 h 0.10667 l 2.4,16.47999 c 0.0533,0.42667 0.53333,0.85333 1.01333,0.85333 h 6.29333 c 0.64,0 1.12,-0.48 1.01333,-1.17333 l -6.02666,-35.83998 c -0.0533,-0.48 -0.53333,-0.85333 -0.96,-0.85333 h -0.85333 c -0.26667,0 -0.74667,0.21333 -0.90667,0.53333 l -12.37333,23.03999 h -0.10666 l -12.37333,-23.03999 c -0.16,-0.32 -0.64,-0.53333 -0.90666,-0.53333 h -0.85334 c -0.42666,0 -0.90666,0.37333 -0.96,0.85333 z m 48.79989,0.16 c 0,0.53333 0.42666,1.01333 1.01333,1.01333 h 22.07998 c 0.58667,0 1.01334,-0.48 1.01334,-1.01333 v -5.81333 c 0,-0.53333 -0.42667,-1.01333 -1.01334,-1.01333 h -14.77332 v -7.2 h 12.15999 c 0.53334,0 1.01334,-0.42666 1.01334,-1.01333 v -5.81333 c 0,-0.53333 -0.48,-1.01333 -1.01334,-1.01333 h -12.15999 v -6.61333 h 14.77332 c 0.58667,0 1.01334,-0.48 1.01334,-1.01333 V 391.68 c 0,-0.53334 -0.42667,-1.01334 -1.01334,-1.01334 H 176.3195 c -0.58667,0 -1.01333,0.48 -1.01333,1.01334 z m 30.82659,0 c 0,0.53333 0.42667,1.01333 1.01334,1.01333 h 6.34666 c 0.53333,0 1.01333,-0.48 1.01333,-1.01333 v -13.59999 h 3.68 l 7.09333,14.13332 c 0.10667,0.21334 0.42667,0.48 0.85333,0.48 h 7.09333 c 0.90667,0 1.28,-0.85333 0.90667,-1.54666 l -7.30666,-13.54666 c 4.95999,-1.86667 7.89332,-5.81333 7.89332,-10.71999 0,-6.34667 -4.85333,-11.52 -11.62666,-11.52 H 207.1461 c -0.58667,0 -1.01334,0.48 -1.01334,1.01334 z m 8.37333,-20.37332 v -8.32 h 7.89333 c 2.18667,0 4.05333,1.54667 4.05333,4.05334 0,2.50666 -1.86666,4.26666 -4.05333,4.26666 z m 24.79992,2.77333 c 0,10.66666 8.58666,19.14666 19.25332,19.14666 4.74667,0 9.33333,-1.65334 12.96,-5.17333 0.37333,-0.37334 0.42666,-1.06667 0.0533,-1.44 l -4.16,-4.42667 c -0.32,-0.37333 -1.01333,-0.37333 -1.38666,-0.0533 -1.92,1.65333 -4.21333,2.56 -7.14667,2.56 -6.02666,0 -10.50666,-4.90667 -10.50666,-10.82666 0,-5.97333 4.42667,-10.98666 10.45333,-10.98666 2.61333,0 5.01333,0.8 7.2,2.72 0.37333,0.37333 0.96,0.37333 1.33333,0 l 4.16,-4.32 c 0.42666,-0.42667 0.42666,-1.06667 -0.0533,-1.49333 -3.62666,-3.30667 -7.57333,-4.96 -12.90666,-4.96 -10.66666,0 -19.25332,8.58666 -19.25332,19.25332 z m 38.34659,17.59999 c 0,0.53333 0.42667,1.01333 1.01333,1.01333 h 22.07999 c 0.58667,0 1.01333,-0.48 1.01333,-1.01333 v -5.81333 c 0,-0.53333 -0.42666,-1.01333 -1.01333,-1.01333 H 285.9726 v -7.2 h 12.15999 c 0.53333,0 1.01333,-0.42666 1.01333,-1.01333 v -5.81333 c 0,-0.53333 -0.48,-1.01333 -1.01333,-1.01333 H 285.9726 v -6.61333 h 14.77332 c 0.58667,0 1.01333,-0.48 1.01333,-1.01333 V 391.68 c 0,-0.53334 -0.42666,-1.01334 -1.01333,-1.01334 h -22.07999 c -0.58666,0 -1.01333,0.48 -1.01333,1.01334 z"
       aria-label="COMMERCE"
       color="#000000"
       font-family="'Brandon Text'"
       font-size="53.3333px"
       font-weight="500"
       style="-inkscape-font-specification:'Brandon Text, Medium';-inkscape-stroke:none"
       transform="matrix(0.26458,0,0,0.26458,27.537932,6.8438898)"
       id="path8" /></g><path
     d="M52.472801 92.289586c-4.044123-1.760819-5.884598-6.446303-4.282343-10.902l.911918-2.535936h-3.11162c-2.255211 0-3.668211-.374553-5.133908-1.360876-6.007342-4.042559-2.829923-12.923029 4.623844-12.923029 2.389783 0 2.577196-.109007 2.302352-1.339115-2.260097-10.115388-2.255056-9.968977-.343259-9.968977.884123 0 1.287156.88984 2.089143 4.612512.546529 2.53688 1.127107 5.081202 1.290173 5.654045.360059 1.264859 3.192082 1.444769 3.192082.202787 0-1.641574-8.853101-40.762016-9.496775-41.964734-.846769-1.582209-2.384166-1.934855-7.477784-1.715236-3.697212.159417-4.153683.309902-4.153683 1.369417 0 1.065573.455256 1.208713 4.34383 1.365773 3.062017.123674 4.438783.422889 4.665607 1.013982.750102 1.954738 2.947277 12.636458 2.732061 13.282106-.129275.387814-.730304.705115-1.335628.705115-.908719 0-1.332257-1.037583-2.42943-5.951628l-1.328838-5.951627h-3.499646c-2.922122 0-3.740717-.241074-4.960495-1.460855-1.882215-1.882218-1.861149-4.14458.05646-6.062182 1.447376-1.447378 1.776027-1.507845 7.131444-1.312064 5.370285.196331 5.694682.285823 7.468392 2.060439 1.493321 1.494086 2.105937 2.942188 3.147284 7.439536l1.293036 5.584335 2.796811.180675 2.796811.180652.166818-7.620199.166818-7.620199 14.102029-.159485 14.102046-.159485.18184 2.837717.18185 2.837718 5.95162.29758 5.95161.297582.17382 4.612512.17383 4.61251h2.87052c3.311899 0 6.005129 1.686367 6.009669 3.762966.006 2.674681-7.881439 28.671477-9.105639 30.012523l-1.22243 1.339117H69.381654c-25.289826 0-26.119587.03622-27.273697 1.190326-1.530356 1.530358-1.530356 4.42127 0 5.951625 1.155361 1.155366 1.983871 1.190324 28.206508 1.190324 22.403686 0 27.069916.14005 27.330936.820218.54124 1.410465-.90193 2.155597-4.17498 2.155597-1.7349 0-3.15436.09277-3.15436.206138 0 .113372.43368 1.075484.96374 2.138009 2.65964 5.331386-1.90272 11.944745-8.23536 11.937531-5.87454-.0067-10.05569-7.186299-7.29456-12.525747l.90802-1.755933H63.086132l.911917 2.535936c2.665746 7.413145-4.333062 14.033479-11.525239 10.902002zm7.535782-3.869551c1.287991-1.287992 1.739703-2.304345 1.739703-3.91434 0-3.023885-2.630154-5.654045-5.654035-5.654045-3.023885 0-5.654038 2.63016-5.654038 5.654045 0 1.609995.451712 2.626348 1.739702 3.91434 2.401072 2.401077 5.427597 2.401077 7.828668 0zM54.8231 85.104841c-.206138-.537205-.08942-1.262121.259374-1.610921.906794-.906796 2.624908-.07801 2.388041 1.151931-.263835 1.369993-2.170952 1.700637-2.647415.45899zm32.562921 3.315194c1.28799-1.287992 1.73971-2.304345 1.73971-3.91434 0-3.023885-2.63016-5.654045-5.65404-5.654045s-5.65404 2.63016-5.65404 5.654045c0 1.609995.45171 2.626348 1.73971 3.91434 2.40107 2.401077 5.42759 2.401077 7.82866 0zm-5.20236-3.359184c-.5416-1.411391.72777-2.406813 1.86531-1.462741.70492.585032.76444.961759.24993 1.581716-.89125 1.073882-1.6744 1.029834-2.11524-.118975zm-17.64722-22.724965c-.186883-1.227523-.523539-4.17358-.748129-6.546792l-.408343-4.314929h-4.386812c-3.110877 0-4.387793.216395-4.390184.743953-.0018.409174.57806 3.355231 1.288701 6.546791l1.292077 5.802836h7.692478zm10.90057-4.31493v-6.546791h-4.82582c-4.701693 0-4.81766.03444-4.508832 1.339115.174332.736514.492729 3.213879.70753 5.505256.609222 6.498921.417473 6.249209 4.798672 6.249209h3.82845zm10.9601 2.529442c.22636-2.209543.56921-5.167549.76189-6.573349l.35031-2.555998-4.69704.175343-4.69704.175344-.1725 5.609398c-.0949 3.085169-.0363 5.964269.1301 6.398001.20756.540903 1.49776.788599 4.10766.788599h3.80504zm8.68023 3.867303c0-.08253.80347-2.96106 1.78549-6.396745.98202-3.435687 1.78548-6.314222 1.78548-6.396745 0-.08253-1.85671-.150037-4.12602-.150037-4.74841 0-4.51115-.304623-5.09898 6.546791-.21064 2.455046-.51572 4.932411-.67797 5.505254-.25562.902543.1472 1.041535 3.01851 1.041535 1.82242 0 3.31349-.06753 3.31349-.150037zM62.631677 45.671326c-.191358-1.55486-.535854-4.433961-.765536-6.397998l-.417608-3.570977-5.206578-.171969c-3.940001-.13013-5.207402.01462-5.209956.595162-.0018.42192.578061 3.378403 1.288704 6.569963l1.292077 5.802836h9.366829zm12.805334-3.719765v-6.546792h-11.44055l.343947 1.93428c.189177 1.063854.523741 4.009908.743491 6.546789l.399541 4.612512h9.953571zm12.69643 3.719765c.19327-1.55486.53018-4.500917.74871-6.546789l.39732-3.719768h-11.46182v6.150016c0 3.382508.17854 6.328565.39678 6.54679.21821.218217 2.46021.396775 4.9822.396775h4.58542zm13.159279-2.869389c.88911-3.133028 1.46972-6.079083 1.29025-6.54679-.24703-.643743-1.54205-.850378-5.329489-.850378h-5.00315l-.35874 1.793663c-.1973.986514-.53711 3.932569-.75512 6.546789l-.3964 4.753129h8.93609zM76.155921 27.816444l.17384-4.612512 2.82702-.181394c2.55236-.163781 2.82701-.322789 2.82701-1.636697v-1.455297H58.772488v12.498417h17.209623zm17.7311 1.339116v-3.273395h-14.87904v6.546789h14.87904zM44.550659 46.751406c-1.013363-.62652-.437684-2.419195.776875-2.419195 1.306737 0 1.795176 1.191962.868177 2.118659-.511447.511281-1.123366.623073-1.645052.300536z"
     id="path12" /></svg>
