<svg width="512" height="512" viewBox="0 0 135.467 135.467" xml:space="preserve" xmlns="http://www.w3.org/2000/svg"><path fill-rule="evenodd" d="M406 0a135 135 0 0 1 136 135v271a135 135 0 0 1-136 136H0V0Z" style="font-variation-settings:normal;-inkscape-stroke:none" transform="matrix(.24994 0 0 .24994 0 0)"/><path fill="#ffc000" d="M406 34a102 102 0 0 1 102 101v271H34V34Z" color="#000" style="fill:#ffc100;fill-opacity:1" transform="matrix(.24994 0 0 .24994 0 0)"/><g style="-inkscape-font-specification:'Brandon Text, Medium';white-space:pre"><path fill="#fff" d="M2.08 409.387c0 10.666 8.587 19.146 19.253 19.146 4.747 0 9.334-1.653 12.96-5.173.374-.373.427-1.067.054-1.44l-4.16-4.427c-.32-.373-1.014-.373-1.387-.053-1.92 1.653-4.213 2.56-7.147 2.56-6.026 0-10.506-4.907-10.506-10.827 0-5.973 4.426-10.986 10.453-10.986 2.613 0 5.013.8 7.2 2.72a.934.934 0 0 0 1.333 0l4.16-4.32c.427-.427.427-1.067-.053-1.494-3.627-3.306-7.573-4.96-12.907-4.96A19.21 19.21 0 0 0 2.08 409.387zm35.253 0c0 10.666 8.48 19.146 19.147 19.146 10.666 0 19.2-8.48 19.2-19.146 0-10.667-8.534-19.254-19.2-19.254-10.667 0-19.147 8.587-19.147 19.254zm8.534 0c0-5.867 4.8-10.72 10.613-10.72 5.866 0 10.666 4.853 10.666 10.72 0 5.813-4.8 10.613-10.666 10.613-5.814 0-10.613-4.8-10.613-10.613zm33.813 17.44c-.107.693.373 1.173 1.013 1.173h6.293c.534 0 .96-.427 1.014-.853l2.346-16.48h.107l9.013 17.28c.16.32.587.586.907.586h.96c.267 0 .747-.266.907-.586l8.96-17.28h.106l2.4 16.48c.054.426.534.853 1.014.853h6.293c.64 0 1.12-.48 1.013-1.173L116 390.987c-.054-.48-.534-.854-.96-.854h-.854c-.266 0-.746.214-.906.534l-12.374 23.04h-.106l-12.374-23.04c-.16-.32-.64-.534-.906-.534h-.854c-.426 0-.906.374-.96.854zm46.826 0c-.106.693.374 1.173 1.014 1.173h6.293c.533 0 .96-.427 1.013-.853l2.347-16.48h.107l9.013 17.28c.16.32.587.586.907.586h.96c.266 0 .746-.266.906-.586l8.96-17.28h.107l2.4 16.48c.053.426.533.853 1.013.853h6.294c.64 0 1.12-.48 1.013-1.173l-6.027-35.84c-.053-.48-.533-.854-.96-.854h-.853c-.267 0-.747.214-.907.534l-12.373 23.04h-.107l-12.373-23.04c-.16-.32-.64-.534-.907-.534h-.853c-.427 0-.907.374-.96.854zm48.8.16c0 .533.427 1.013 1.013 1.013h22.08c.587 0 1.014-.48 1.014-1.013v-5.814c0-.533-.427-1.013-1.014-1.013h-14.773v-7.2h12.16c.533 0 1.013-.427 1.013-1.013v-5.814c0-.533-.48-1.013-1.013-1.013h-12.16v-6.613H198.4c.587 0 1.014-.48 1.014-1.014v-5.813c0-.533-.427-1.013-1.014-1.013h-22.08c-.586 0-1.013.48-1.013 1.013zm30.827 0c0 .533.426 1.013 1.013 1.013h6.347c.533 0 1.013-.48 1.013-1.013v-13.6h3.68l7.093 14.133c.107.213.427.48.854.48h7.093c.907 0 1.28-.853.907-1.547l-7.307-13.546c4.96-1.867 7.893-5.814 7.893-10.72 0-6.347-4.853-11.52-11.626-11.52h-15.947c-.587 0-1.013.48-1.013 1.013zm8.373-20.374v-8.32h7.893c2.187 0 4.054 1.547 4.054 4.054 0 2.506-1.867 4.266-4.054 4.266zm24.8 2.774c0 10.666 8.587 19.146 19.253 19.146 4.747 0 9.334-1.653 12.96-5.173.374-.373.427-1.067.054-1.44l-4.16-4.427c-.32-.373-1.014-.373-1.387-.053-1.92 1.653-4.213 2.56-7.147 2.56-6.026 0-10.506-4.907-10.506-10.827 0-5.973 4.426-10.986 10.453-10.986 2.613 0 5.013.8 7.2 2.72a.934.934 0 0 0 1.333 0l4.16-4.32c.427-.427.427-1.067-.053-1.494-3.627-3.306-7.573-4.96-12.907-4.96a19.21 19.21 0 0 0-19.253 19.254zm38.347 17.6c0 .533.426 1.013 1.013 1.013h22.08c.587 0 1.013-.48 1.013-1.013v-5.814c0-.533-.426-1.013-1.013-1.013h-14.773v-7.2h12.16c.533 0 1.013-.427 1.013-1.013v-5.814c0-.533-.48-1.013-1.013-1.013h-12.16v-6.613h14.773c.587 0 1.013-.48 1.013-1.014v-5.813c0-.533-.426-1.013-1.013-1.013h-22.08c-.587 0-1.013.48-1.013 1.013z" aria-label="COMMERCE" color="#000" font-family="'Brandon Text'" font-size="53.333" font-weight="500" style="-inkscape-font-specification:'Brandon Text, Medium';-inkscape-stroke:none" transform="translate(27.538 10.169) scale(.26458)"/></g><path d="M52.473 92.29c-4.044-1.761-5.885-6.447-4.283-10.902l.912-2.536h-3.111c-2.255 0-3.668-.375-5.134-1.361-6.007-4.043-2.83-12.923 4.624-12.923 2.39 0 2.577-.11 2.302-1.34-2.26-10.115-2.255-9.968-.343-9.968.884 0 1.287.89 2.089 4.612.546 2.537 1.127 5.081 1.29 5.654.36 1.265 3.192 1.445 3.192.203 0-1.642-8.853-40.762-9.497-41.965-.846-1.582-2.384-1.935-7.477-1.715-3.698.16-4.154.31-4.154 1.37 0 1.065.455 1.208 4.344 1.365 3.062.124 4.439.423 4.665 1.014.75 1.955 2.948 12.637 2.732 13.282-.129.388-.73.705-1.335.705-.909 0-1.332-1.037-2.43-5.951l-1.328-5.952h-3.5c-2.922 0-3.74-.24-4.96-1.46-1.883-1.883-1.862-4.145.056-6.063 1.447-1.447 1.776-1.508 7.131-1.312 5.37.196 5.695.286 7.469 2.06 1.493 1.495 2.106 2.943 3.147 7.44l1.293 5.584 2.797.181 2.797.18.166-7.62.167-7.62 14.102-.16 14.102-.159.182 2.838.182 2.838 5.952.297 5.951.298.174 4.612.174 4.613h2.87c3.312 0 6.006 1.686 6.01 3.763.006 2.675-7.881 28.671-9.106 30.012l-1.222 1.34H69.382c-25.29 0-26.12.036-27.274 1.19-1.53 1.53-1.53 4.421 0 5.952 1.155 1.155 1.984 1.19 28.206 1.19 22.404 0 27.07.14 27.331.82.542 1.41-.902 2.156-4.175 2.156-1.734 0-3.154.092-3.154.206 0 .113.434 1.075.964 2.138 2.66 5.331-1.903 11.945-8.236 11.937-5.874-.006-10.055-7.186-7.294-12.525l.908-1.756H63.086l.912 2.536C66.664 88.8 59.665 95.42 52.473 92.29zm7.536-3.87c1.288-1.288 1.74-2.304 1.74-3.914 0-3.024-2.63-5.654-5.655-5.654-3.024 0-5.654 2.63-5.654 5.654 0 1.61.452 2.626 1.74 3.914 2.401 2.401 5.428 2.401 7.829 0zm-5.186-3.315c-.206-.537-.09-1.262.26-1.611.906-.907 2.624-.078 2.388 1.152-.264 1.37-2.171 1.7-2.648.459zm32.563 3.315c1.288-1.288 1.74-2.304 1.74-3.914 0-3.024-2.63-5.654-5.654-5.654s-5.654 2.63-5.654 5.654c0 1.61.451 2.626 1.74 3.914 2.4 2.401 5.427 2.401 7.828 0zm-5.202-3.36c-.542-1.41.727-2.406 1.865-1.462.705.585.764.962.25 1.582-.891 1.074-1.674 1.03-2.115-.12zM64.536 62.337c-.186-1.228-.523-4.174-.748-6.547l-.408-4.315h-4.387c-3.11 0-4.388.217-4.39.744-.002.41.578 3.355 1.289 6.547l1.292 5.803h7.692zm10.901-4.315v-6.547h-4.826c-4.702 0-4.817.035-4.509 1.34.175.736.493 3.213.708 5.505.61 6.498.417 6.249 4.799 6.249h3.828zm10.96 2.53c.226-2.21.57-5.168.762-6.574l.35-2.556-4.697.175-4.697.176-.172 5.61c-.095 3.084-.037 5.963.13 6.397.207.541 1.498.789 4.107.789h3.806zm8.68 3.867c0-.083.804-2.961 1.786-6.397.982-3.436 1.785-6.314 1.785-6.397 0-.082-1.856-.15-4.126-.15-4.748 0-4.51-.304-5.099 6.547-.21 2.455-.515 4.932-.678 5.505-.255.903.148 1.042 3.019 1.042 1.822 0 3.313-.068 3.313-.15zM62.632 45.67c-.192-1.555-.536-4.434-.766-6.398l-.417-3.57-5.207-.173c-3.94-.13-5.207.015-5.21.596-.002.421.578 3.378 1.289 6.57l1.292 5.802h9.367zm12.805-3.72v-6.546h-11.44l.343 1.934c.19 1.064.524 4.01.744 6.547l.4 4.612h9.953zm12.696 3.72c.194-1.555.53-4.5.75-6.546l.396-3.72H77.818v6.15c0 3.382.178 6.328.396 6.547.219.218 2.46.396 4.983.396h4.585zm13.16-2.87c.889-3.132 1.47-6.078 1.29-6.546-.247-.644-1.542-.85-5.33-.85H92.25l-.358 1.793c-.198.987-.538 3.933-.756 6.547l-.396 4.753h8.936zM76.156 27.817l.174-4.612 2.827-.181c2.552-.164 2.827-.323 2.827-1.637V19.93H58.772v12.498h17.21zm17.731 1.34v-3.274H79.008v6.547h14.879zM44.551 46.75c-1.014-.626-.438-2.419.777-2.419 1.306 0 1.795 1.192.868 2.119-.512.511-1.124.623-1.645.3z"/></svg>