<?xml version="1.0" encoding="UTF-8" standalone="no"?>
<svg
   width="512"
   height="512"
   viewBox="0 0 135.46666 135.46667"
   version="1.1"
   id="svg151"
   sodipodi:docname="coordination.svg"
   xml:space="preserve"
   inkscape:version="1.2 (dc2aedaf03, 2022-05-15)"
   xmlns:inkscape="http://www.inkscape.org/namespaces/inkscape"
   xmlns:sodipodi="http://sodipodi.sourceforge.net/DTD/sodipodi-0.dtd"
   xmlns="http://www.w3.org/2000/svg"
   xmlns:svg="http://www.w3.org/2000/svg"><defs
     id="defs155"><rect
       x="346.26527"
       y="1640.6378"
       width="1701.7347"
       height="321.53204"
       id="rect414" /><rect
       x="127.99995"
       y="1536"
       width="1648.6707"
       height="512.00001"
       id="rect1008" /><rect
       x="197.86587"
       y="1536"
       width="1298.4948"
       height="364.33679"
       id="rect910" /><rect
       x="127.99995"
       y="1536"
       width="1806.8724"
       height="508.09906"
       id="rect259" /></defs><sodipodi:namedview
     id="namedview153"
     pagecolor="#505050"
     bordercolor="#eeeeee"
     borderopacity="1"
     inkscape:showpageshadow="0"
     inkscape:pageopacity="0"
     inkscape:pagecheckerboard="0"
     inkscape:deskcolor="#505050"
     showgrid="false"
     inkscape:zoom="0.7184354"
     inkscape:cx="183.03664"
     inkscape:cy="256.1121"
     inkscape:window-width="1366"
     inkscape:window-height="705"
     inkscape:window-x="-8"
     inkscape:window-y="-8"
     inkscape:window-maximized="1"
     inkscape:current-layer="g515" /><g
     id="g515"
     transform="matrix(0.24993849,0,0,0.24993849,4.3755907e-6,4.3755907e-6)"><path
       fill-rule="evenodd"
       d="M 512,0 A 512,512 0 0 0 0,512 v 1024 a 512,512 0 0 0 512,512 H 2048 V 0 Z"
       style="font-variation-settings:normal;-inkscape-stroke:none"
       transform="matrix(0.26464844,0,0,0.26464844,-1.3224987e-5,-1.3224987e-5)"
       id="path2" /><path
       fill="#a000c0"
       d="M 512,128 A 384,384 0 0 0 128,512 V 1536 H 1920 V 128 Z"
       color="#000000"
       style="fill:#b900d3;fill-opacity:1"
       id="path4"
       transform="matrix(0.26464844,0,0,0.26464844,-1.3224987e-5,-1.3224987e-5)" /></g><g
     style="-inkscape-font-specification:'Brandon Text, Medium';white-space:pre"
     id="g147"
     transform="translate(0,3.3880337)"><path
       fill="#ffffff"
       d="m 2.0799988,409.38665 c 0,10.66666 8.5866612,19.14666 19.2533222,19.14666 4.746663,0 9.333327,-1.65334 12.959992,-5.17333 0.373333,-0.37334 0.426666,-1.06667 0.05333,-1.44 l -4.159997,-4.42667 c -0.32,-0.37333 -1.013333,-0.37333 -1.386666,-0.0533 -1.919999,1.65333 -4.213331,2.56 -7.146663,2.56 -6.026663,0 -10.50666,-4.90667 -10.50666,-10.82666 0,-5.97333 4.426664,-10.98666 10.453327,-10.98666 2.613332,0 5.01333,0.8 7.199996,2.72 0.373333,0.37333 0.959999,0.37333 1.333332,0 l 4.159998,-4.32 c 0.426666,-0.42667 0.426666,-1.06667 -0.05333,-1.49333 -3.626665,-3.30667 -7.573329,-4.96 -12.906659,-4.96 -10.666661,0 -19.2533222,8.58666 -19.2533222,19.25332 z m 35.2531742,0 c 0,10.66666 8.479995,19.14666 19.146655,19.14666 10.66666,0 19.199988,-8.48 19.199988,-19.14666 0,-10.66666 -8.533328,-19.25332 -19.199988,-19.25332 -10.66666,0 -19.146655,8.58666 -19.146655,19.25332 z m 8.533328,0 c 0,-5.86666 4.799997,-10.71999 10.613327,-10.71999 5.866663,0 10.66666,4.85333 10.66666,10.71999 0,5.81333 -4.799997,10.61333 -10.66666,10.61333 -5.81333,0 -10.613327,-4.8 -10.613327,-10.61333 z m 33.973263,0 c 0,10.66666 8.479995,19.14666 19.146656,19.14666 10.66666,0 19.19999,-8.48 19.19999,-19.14666 0,-10.66666 -8.53333,-19.25332 -19.19999,-19.25332 -10.666661,0 -19.146656,8.58666 -19.146656,19.25332 z m 8.533329,0 c 0,-5.86666 4.799997,-10.71999 10.613327,-10.71999 5.86666,0 10.66666,4.85333 10.66666,10.71999 0,5.81333 -4.8,10.61333 -10.66666,10.61333 -5.81333,0 -10.613327,-4.8 -10.613327,-10.61333 z m 36.106587,17.59999 c 0,0.53333 0.42667,1.01333 1.01333,1.01333 h 6.34667 c 0.53333,0 1.01333,-0.48 1.01333,-1.01333 v -13.59999 h 3.68 l 7.09333,14.13332 c 0.10666,0.21334 0.42666,0.48 0.85333,0.48 h 7.09333 c 0.90666,0 1.28,-0.85333 0.90666,-1.54666 L 145.173,412.90665 c 4.96,-1.86667 7.89333,-5.81333 7.89333,-10.71999 0,-6.34667 -4.85333,-11.52 -11.62666,-11.52 h -15.94666 c -0.58666,0 -1.01333,0.48 -1.01333,1.01334 z m 8.37333,-20.37332 v -8.32 h 7.89333 c 2.18666,0 4.05333,1.54667 4.05333,4.05334 0,2.50666 -1.86667,4.26666 -4.05333,4.26666 z m 26.93326,20.37332 c 0,0.53333 0.42666,1.01333 0.96,1.01333 h 13.01332 c 10.29333,0 18.71999,-8.37332 18.71999,-18.71999 0,-10.23999 -8.42666,-18.61332 -18.71999,-18.61332 h -13.01332 c -0.53334,0 -0.96,0.48 -0.96,1.01334 z m 8.31999,-6.87999 v -21.59999 h 5.6 c 6.02666,0 9.91999,4.74666 9.91999,10.77332 0,6.08 -3.89333,10.82667 -9.91999,10.82667 z m 30.71989,6.87999 c 0,0.53333 0.48,1.01333 1.01334,1.01333 h 6.39999 c 0.53334,0 1.01334,-0.48 1.01334,-1.01333 V 391.68 c 0,-0.53334 -0.48,-1.01334 -1.01334,-1.01334 h -6.39999 c -0.53334,0 -1.01334,0.48 -1.01334,1.01334 z m 16.85332,0 c 0,0.53333 0.48,1.01333 1.01333,1.01333 h 6.34667 c 0.58666,0 1.01333,-0.48 1.01333,-1.01333 v -19.89332 h 0.0533 l 20.74666,20.85332 c 0.42666,0.42667 0.8,0.58667 1.33333,0.58667 h 0.53333 c 0.53334,0 1.01334,-0.32 1.01334,-0.96 V 391.68 c 0,-0.53334 -0.48,-1.01334 -1.01334,-1.01334 h -6.39999 c -0.58667,0 -1.01334,0.48 -1.01334,1.01334 v 18.93332 h -0.0533 L 218.7728,390.93333 c -0.42666,-0.42667 -0.8,-0.8 -1.33333,-0.8 h -0.8 c -0.53333,0 -1.01333,0.42667 -1.01333,0.96 z m 37.17326,1.01333 h 5.86666 c 1.06667,0 1.65333,-0.64 1.92,-1.28 l 1.92,-4.26666 h 14.50666 l 1.91999,4.21333 c 0.48,1.01333 0.90667,1.33333 1.86667,1.33333 h 5.92 c 0.8,0 1.22666,-0.69333 0.90666,-1.38666 L 270.98605,390.72 c -0.16,-0.32 -0.53333,-0.58667 -0.90667,-0.58667 h -0.53333 c -0.37333,0 -0.74667,0.26667 -0.90667,0.58667 l -16.69332,35.89331 c -0.32,0.69333 0.10667,1.38666 0.90667,1.38666 z m 12.90666,-12.79999 3.99999,-8.79999 h 0.0533 l 4.05333,8.79999 z m 29.49313,11.78666 c 0,0.53333 0.48,1.01333 1.01333,1.01333 h 6.4 c 0.53333,0 1.01333,-0.48 1.01333,-1.01333 v -28.47998 h 7.62667 c 0.58666,0 1.01333,-0.48 1.01333,-1.01333 V 391.68 c 0,-0.53334 -0.42667,-1.01334 -1.01333,-1.01334 h -23.67999 c -0.58667,0 -1.01333,0.48 -1.01333,1.01334 v 5.81333 c 0,0.53333 0.42666,1.01333 1.01333,1.01333 h 7.62666 z m 22.66659,0 c 0,0.53333 0.48,1.01333 1.01333,1.01333 h 6.4 c 0.53333,0 1.01333,-0.48 1.01333,-1.01333 V 391.68 c 0,-0.53334 -0.48,-1.01334 -1.01333,-1.01334 h -6.4 c -0.53333,0 -1.01333,0.48 -1.01333,1.01334 z m 14.71997,-17.59999 c 0,10.66666 8.48,19.14666 19.14666,19.14666 10.66666,0 19.19998,-8.48 19.19998,-19.14666 0,-10.66666 -8.53332,-19.25332 -19.19998,-19.25332 -10.66666,0 -19.14666,8.58666 -19.14666,19.25332 z m 8.53333,0 c 0,-5.86666 4.8,-10.71999 10.61333,-10.71999 5.86666,0 10.66666,4.85333 10.66666,10.71999 0,5.81333 -4.8,10.61333 -10.66666,10.61333 -5.81333,0 -10.61333,-4.8 -10.61333,-10.61333 z m 36.10659,17.59999 c 0,0.53333 0.48,1.01333 1.01334,1.01333 h 6.34666 c 0.58667,0 1.01333,-0.48 1.01333,-1.01333 v -19.89332 h 0.0533 l 20.74665,20.85332 c 0.42667,0.42667 0.8,0.58667 1.33333,0.58667 h 0.53334 c 0.53333,0 1.01333,-0.32 1.01333,-0.96 V 391.68 c 0,-0.53334 -0.48,-1.01334 -1.01333,-1.01334 h -6.4 c -0.58667,0 -1.01333,0.48 -1.01333,1.01334 v 18.93332 h -0.0533 l -20.47998,-19.67999 c -0.42667,-0.42667 -0.8,-0.8 -1.33334,-0.8 h -0.8 c -0.53333,0 -1.01333,0.42667 -1.01333,0.96 z"
       aria-label="COORDINATION"
       color="#000000"
       font-family="'Brandon Text'"
       font-size="53.3333px"
       font-weight="500"
       style="-inkscape-font-specification:'Brandon Text, Medium';-inkscape-stroke:none"
       transform="matrix(0.26458,0,0,0.26458,13.306912,6.8438898)"
       id="path145" /></g><path
     d="M39.56122 91.672108 38.1 90.21089v-64.9973l1.46122-1.461222c1.43001-1.429997 1.66534-1.461222 11.01329-1.461222h9.552064v-1.752181c0-2.828981 1.759637-3.605632 8.169195-3.605632 6.109363 0 7.904257.878697 7.904257 3.869532v1.488281h9.459076c11.456761 0 11.994407.240885 12.436503 5.571996l.281008 3.388543 3.163587-2.991987c2.79808-2.64631 3.4619-2.991989 5.74567-2.991989 1.42015 0 3.179.418097 3.90858.929106 2.70293 1.893213 3.85067 6.015024 2.4459 8.783858-.36284.715175-3.97104 4.648949-8.01822 8.741724l-7.358485 7.441404-.167334 19.84734-.167332 19.847349-1.405405 1.13742c-1.337392 1.08238-2.714373 1.137422-28.453255 1.137422H41.02244Zm55.327485-2.456998c.529369-1.379511.442204-34.777089-.09077-34.777089-.248662 0-.851417.602753-1.339454 1.339453-.706131 1.065912-.94813 4.439587-1.185 16.519923l-.297657 15.180468-23.445452.155812c-16.811562.111713-23.675632-.03524-24.258992-.519383-1.11945-.92905-1.21519-57.63497-.0992-58.750961.43351-.43351 2.54001-.714375 5.35782-.714375 4.2723 0 4.64343-.09677 4.64343-1.210765 0-1.152871-.306-1.202686-6.3996-1.041798l-6.39962.168975-.1548 31.551562c-.085 17.353362-.0266 31.886424.13027 32.295701.22208.57987 6.12298.744143 26.731306.744143 23.566503 0 26.485766-.102533 26.807766-.941661zm-5.13322-17.06654c.144787-11.115841-.19485-14.259386-1.244956-11.522833-.439935 1.146452-16.97073 9.457039-18.014506 9.0565-1.393493-.534732-1.010633-1.832384 2.787911-9.449073 3.35797-6.733224 4.124523-7.784536 10.147689-13.917017l6.515343-6.633592-.176197-4.379689-.176198-4.379687-3.748966-.177975c-3.292361-.156285-3.968599.0068-5.55233 1.339452-1.78639 1.503148-1.903975 1.517422-12.500359 1.517422-10.616406 0-10.708226-.01125-12.185306-1.488283-1.28006-1.280061-2.02587-1.48828-5.33076-1.48828h-3.84246v54.188296l21.580084-.156263 21.580104-.156262Zm-13.285796-8.281107c1.733874-.790008 1.869121-1.251769.660398-2.254925-.697793-.579114-1.030546-.372629-1.801239 1.11773-1.058918 2.047725-.995761 2.110685 1.140841 1.137195zm6.868289-3.269927c1.497916-.884842 1.605893-1.157197 1.069111-2.696994-.744099-2.134519-3.738649-3.858287-4.952548-2.850851-1.656226 1.37455-1.616198 2.910719.123975 4.754349 1.973635 2.091058 1.671055 2.027198 3.759552.793496zm13.641717-12.949225c7.100365-7.111462 9.064835-9.410211 8.747815-10.236354-.33272-.867029-2.16764.690834-9.855129 8.367056-5.679995 5.671668-9.323305 9.752974-9.137814 10.236355.169673.442146.483984.803903.698484.803903.214492 0 4.510486-4.126932 9.546644-9.17096zm-3.040597-4.103055c5.000942-5.008756 8.904432-9.295005 8.674442-9.525-.22999-.229995-.84558-.418171-1.36796-.418171-1.16813 0-19.299567 18.049089-18.716838 18.631827 1.142618 1.14262 3.027333-.292533 11.410356-8.688656zm.222278-7.951845c.846624-.766181 1.088677-1.864764 1.088677-4.941094 0-2.283028-.302092-4.25795-.714376-4.670233-.463152-.463149-2.870732-.714375-6.846102-.714375-5.694264 0-6.131732.08329-6.131732 1.167448 0 1.057667.489825 1.183622 5.208998 1.339452l5.208988.172013.174915 4.316015c.09619 2.373809.342996 4.316016.548437 4.316016.205447 0 .863434-.443355 1.462201-.985235zm17.162124-3.583379c0-3.40943-4.61743-4.966632-7.04979-2.377503l-1.3042 1.388257 1.45698.663847c.80134.365114 2.06136 1.481314 2.80005 2.480445l1.34308 1.816599 1.37694-1.293567c.75732-.711463 1.37694-1.916599 1.37694-2.678078zm-32.856822-4.212245.18315-2.530078H57.15012v1.737247c0 3.743942-.25144 3.663784 10.933429 3.485498l10.200181-.162585Zm-5.354847-6.548439c-.165826-.86899-.979246-1.070925-4.903295-1.217414-4.501556-.168052-5.658665.200475-5.691582 1.812728-.0045.245565 2.421542.446484 5.392355.446484 4.823149 0 5.38016-.111533 5.202522-1.041798z"
     id="path149" /></svg>
