<svg width="512" height="512" viewBox="0 0 135.467 135.467" xml:space="preserve" xmlns="http://www.w3.org/2000/svg"><path fill-rule="evenodd" d="M512 0A512 512 0 0 0 0 512v1024a512 512 0 0 0 512 512h1536V0Z" style="font-variation-settings:normal;-inkscape-stroke:none" transform="matrix(.06615 0 0 .06615 0 0)"/><path fill="#a000c0" d="M512 128a384 384 0 0 0-384 384v1024h1792V128Z" color="#000" style="fill:#b900d3;fill-opacity:1" transform="matrix(.06615 0 0 .06615 0 0)"/><g style="-inkscape-font-specification:'Brandon Text, Medium';white-space:pre"><path fill="#fff" d="M2.08 409.387c0 10.666 8.587 19.146 19.253 19.146 4.747 0 9.334-1.653 12.96-5.173.374-.373.427-1.067.054-1.44l-4.16-4.427c-.32-.373-1.014-.373-1.387-.053-1.92 1.653-4.213 2.56-7.147 2.56-6.026 0-10.506-4.907-10.506-10.827 0-5.973 4.426-10.986 10.453-10.986 2.613 0 5.013.8 7.2 2.72a.934.934 0 0 0 1.333 0l4.16-4.32c.427-.427.427-1.067-.053-1.494-3.627-3.306-7.573-4.96-12.907-4.96A19.21 19.21 0 0 0 2.08 409.387zm35.253 0c0 10.666 8.48 19.146 19.147 19.146 10.666 0 19.2-8.48 19.2-19.146 0-10.667-8.534-19.254-19.2-19.254-10.667 0-19.147 8.587-19.147 19.254zm8.534 0c0-5.867 4.8-10.72 10.613-10.72 5.866 0 10.666 4.853 10.666 10.72 0 5.813-4.8 10.613-10.666 10.613-5.814 0-10.613-4.8-10.613-10.613zm33.973 0c0 10.666 8.48 19.146 19.146 19.146 10.667 0 19.2-8.48 19.2-19.146 0-10.667-8.533-19.254-19.2-19.254-10.666 0-19.146 8.587-19.146 19.254zm8.533 0c0-5.867 4.8-10.72 10.613-10.72 5.867 0 10.667 4.853 10.667 10.72 0 5.813-4.8 10.613-10.667 10.613-5.813 0-10.613-4.8-10.613-10.613zm36.107 17.6c0 .533.426 1.013 1.013 1.013h6.347c.533 0 1.013-.48 1.013-1.013v-13.6h3.68l7.093 14.133c.107.213.427.48.854.48h7.093c.907 0 1.28-.853.907-1.547l-7.307-13.546c4.96-1.867 7.893-5.814 7.893-10.72 0-6.347-4.853-11.52-11.626-11.52h-15.947c-.587 0-1.013.48-1.013 1.013zm8.373-20.374v-8.32h7.893c2.187 0 4.054 1.547 4.054 4.054 0 2.506-1.867 4.266-4.054 4.266zm26.933 20.374c0 .533.427 1.013.96 1.013h13.014c10.293 0 18.72-8.373 18.72-18.72 0-10.24-8.427-18.613-18.72-18.613h-13.014c-.533 0-.96.48-.96 1.013zm8.32-6.88v-21.6h5.6c6.027 0 9.92 4.746 9.92 10.773 0 6.08-3.893 10.827-9.92 10.827zm30.72 6.88c0 .533.48 1.013 1.013 1.013h6.4c.534 0 1.014-.48 1.014-1.013V391.68c0-.533-.48-1.013-1.014-1.013h-6.4c-.533 0-1.013.48-1.013 1.013zm16.853 0c0 .533.48 1.013 1.014 1.013h6.346c.587 0 1.014-.48 1.014-1.013v-19.894h.053l20.747 20.854c.426.426.8.586 1.333.586h.533c.534 0 1.014-.32 1.014-.96V391.68c0-.533-.48-1.013-1.014-1.013h-6.4c-.586 0-1.013.48-1.013 1.013v18.933h-.053l-20.48-19.68c-.427-.426-.8-.8-1.334-.8h-.8c-.533 0-1.013.427-1.013.96zM252.853 428h5.866c1.067 0 1.654-.64 1.92-1.28l1.92-4.267h14.507l1.92 4.214c.48 1.013.907 1.333 1.867 1.333h5.92c.8 0 1.226-.693.906-1.387l-16.693-35.893c-.16-.32-.533-.587-.907-.587h-.533c-.373 0-.747.267-.907.587l-16.693 35.893c-.32.694.107 1.387.907 1.387zm12.906-12.8 4-8.8h.054l4.053 8.8zm29.494 11.787c0 .533.48 1.013 1.013 1.013h6.4c.533 0 1.013-.48 1.013-1.013v-28.48h7.627c.587 0 1.013-.48 1.013-1.014v-5.813c0-.533-.426-1.013-1.013-1.013h-23.68c-.587 0-1.013.48-1.013 1.013v5.813c0 .534.426 1.014 1.013 1.014h7.627zm22.666 0c0 .533.48 1.013 1.013 1.013h6.4c.534 0 1.014-.48 1.014-1.013V391.68c0-.533-.48-1.013-1.014-1.013h-6.4c-.533 0-1.013.48-1.013 1.013zm14.72-17.6c0 10.666 8.48 19.146 19.147 19.146 10.666 0 19.2-8.48 19.2-19.146 0-10.667-8.534-19.254-19.2-19.254-10.667 0-19.147 8.587-19.147 19.254zm8.533 0c0-5.867 4.8-10.72 10.614-10.72 5.866 0 10.666 4.853 10.666 10.72 0 5.813-4.8 10.613-10.666 10.613-5.814 0-10.614-4.8-10.614-10.613zm36.107 17.6c0 .533.48 1.013 1.013 1.013h6.347c.587 0 1.013-.48 1.013-1.013v-19.894h.054l20.746 20.854c.427.426.8.586 1.334.586h.533c.533 0 1.013-.32 1.013-.96V391.68c0-.533-.48-1.013-1.013-1.013h-6.4c-.587 0-1.013.48-1.013 1.013v18.933h-.054l-20.48-19.68c-.426-.426-.8-.8-1.333-.8h-.8c-.533 0-1.013.427-1.013.96z" aria-label="COORDINATION" color="#000" font-family="'Brandon Text'" font-size="53.333" font-weight="500" style="-inkscape-font-specification:'Brandon Text, Medium';-inkscape-stroke:none" transform="translate(13.307 10.232) scale(.26458)"/></g><path d="M39.561 91.672 38.1 90.211V25.214l1.461-1.462c1.43-1.43 1.666-1.46 11.014-1.46h9.552v-1.753c0-2.829 1.76-3.606 8.169-3.606 6.11 0 7.904.879 7.904 3.87v1.488h9.46c11.456 0 11.994.241 12.436 5.572l.28 3.389 3.164-2.992c2.798-2.647 3.462-2.992 5.746-2.992 1.42 0 3.179.418 3.908.929 2.703 1.893 3.851 6.015 2.446 8.784-.362.715-3.97 4.649-8.018 8.741l-7.358 7.442-.168 19.847-.167 19.847-1.405 1.138c-1.338 1.082-2.715 1.137-28.454 1.137H41.022Zm55.328-2.457c.53-1.38.442-34.777-.091-34.777-.249 0-.851.603-1.34 1.34-.706 1.065-.948 4.44-1.185 16.52l-.297 15.18-23.446.156c-16.811.111-23.675-.036-24.259-.52-1.12-.929-1.215-57.635-.099-58.75.434-.434 2.54-.715 5.358-.715 4.272 0 4.643-.097 4.643-1.21 0-1.154-.306-1.203-6.4-1.043l-6.399.17-.155 31.55c-.085 17.354-.026 31.887.13 32.297.223.58 6.124.744 26.732.744 23.566 0 26.486-.103 26.808-.942zM89.755 72.15c.145-11.116-.194-14.26-1.244-11.523-.44 1.146-16.971 9.457-18.015 9.056-1.393-.534-1.01-1.832 2.788-9.449 3.358-6.733 4.124-7.784 10.148-13.917l6.515-6.633-.176-4.38-.176-4.38-3.75-.178c-3.292-.156-3.968.007-5.552 1.34-1.786 1.503-1.904 1.517-12.5 1.517-10.616 0-10.708-.011-12.185-1.488-1.28-1.28-2.026-1.488-5.331-1.488h-3.843v54.188l21.58-.156 21.58-.157ZM76.47 63.867c1.734-.79 1.869-1.251.66-2.254-.698-.58-1.03-.373-1.801 1.117-1.06 2.048-.996 2.111 1.14 1.137zm6.868-3.27c1.498-.884 1.606-1.157 1.07-2.696-.745-2.135-3.74-3.859-4.953-2.851-1.657 1.374-1.617 2.91.124 4.754 1.973 2.091 1.67 2.027 3.76.794zM96.98 47.649c7.1-7.111 9.065-9.41 8.748-10.236-.333-.867-2.168.69-9.856 8.367-5.68 5.672-9.323 9.753-9.137 10.236.17.443.484.804.698.804.215 0 4.51-4.127 9.547-9.17zm-3.04-4.103c5-5.009 8.904-9.295 8.674-9.525-.23-.23-.846-.418-1.368-.418-1.169 0-19.3 18.05-18.717 18.632 1.142 1.143 3.027-.293 11.41-8.689zm.221-7.952c.847-.766 1.09-1.864 1.09-4.94 0-2.284-.303-4.259-.715-4.67-.463-.464-2.871-.715-6.846-.715-5.695 0-6.132.083-6.132 1.167 0 1.058.49 1.184 5.209 1.34l5.209.172.175 4.316c.096 2.373.343 4.316.548 4.316.206 0 .864-.444 1.462-.986zm17.163-3.583c0-3.41-4.618-4.967-7.05-2.377l-1.304 1.388 1.456.664c.802.365 2.062 1.48 2.8 2.48l1.344 1.817 1.377-1.294c.757-.711 1.377-1.916 1.377-2.678zm-32.857-4.212.183-2.53h-21.5v1.737c0 3.744-.251 3.664 10.934 3.485l10.2-.162Zm-5.355-6.549c-.166-.869-.98-1.07-4.903-1.217-4.502-.168-5.66.2-5.692 1.813-.005.245 2.421.446 5.392.446 4.823 0 5.38-.111 5.203-1.042z"/></svg>