<?xml version="1.0" encoding="UTF-8" standalone="no"?>
<svg
   width="512"
   height="512"
   viewBox="0 0 135.46666 135.46667"
   version="1.1"
   id="svg14"
   sodipodi:docname="dominion.svg"
   xml:space="preserve"
   inkscape:version="1.2 (dc2aedaf03, 2022-05-15)"
   xmlns:inkscape="http://www.inkscape.org/namespaces/inkscape"
   xmlns:sodipodi="http://sodipodi.sourceforge.net/DTD/sodipodi-0.dtd"
   xmlns="http://www.w3.org/2000/svg"
   xmlns:svg="http://www.w3.org/2000/svg"><defs
     id="defs18"><rect
       x="346.26527"
       y="1640.6378"
       width="1701.7347"
       height="321.53204"
       id="rect414" /><rect
       x="127.99995"
       y="1536"
       width="1648.6707"
       height="512.00001"
       id="rect1008" /><rect
       x="197.86587"
       y="1536"
       width="1298.4948"
       height="364.33679"
       id="rect910" /><rect
       x="127.99995"
       y="1536"
       width="1806.8724"
       height="508.09906"
       id="rect259" /></defs><sodipodi:namedview
     id="namedview16"
     pagecolor="#505050"
     bordercolor="#eeeeee"
     borderopacity="1"
     inkscape:showpageshadow="0"
     inkscape:pageopacity="0"
     inkscape:pagecheckerboard="0"
     inkscape:deskcolor="#505050"
     showgrid="false"
     inkscape:zoom="0.7184354"
     inkscape:cx="183.03664"
     inkscape:cy="256.1121"
     inkscape:window-width="1366"
     inkscape:window-height="705"
     inkscape:window-x="-8"
     inkscape:window-y="-8"
     inkscape:window-maximized="1"
     inkscape:current-layer="g316" /><g
     id="g316"
     transform="matrix(0.24993849,0,0,0.24993849,4.3755907e-6,4.3755907e-6)"><path
       fill-rule="evenodd"
       d="M 512,0 A 512,512 0 0 0 0,512 v 1024 a 512,512 0 0 0 512,512 H 2048 V 0 Z"
       style="font-variation-settings:normal;-inkscape-stroke:none"
       transform="matrix(0.26464844,0,0,0.26464844,-1.3224987e-5,-1.3224987e-5)"
       id="path2" /><path
       fill="#a000c0"
       d="M 512,128 A 384,384 0 0 0 128,512 V 1536 H 1920 V 128 Z"
       color="#000000"
       style="fill:#0cd1a5;fill-opacity:1"
       id="path4-2"
       transform="matrix(0.26464844,0,0,0.26464844,-1.3224987e-5,-1.3224987e-5)" /></g><g
     style="-inkscape-font-specification:'Brandon Text, Medium';white-space:pre"
     id="g10"
     transform="translate(0,3.3880337)"><path
       fill="#ffffff"
       d="m 4.2133308,426.98664 c 0,0.53333 0.4266664,1.01333 0.9599994,1.01333 H 18.186656 c 10.293327,0 18.719989,-8.37332 18.719989,-18.71999 0,-10.23999 -8.426662,-18.61332 -18.719989,-18.61332 H 5.1733302 c -0.533333,0 -0.9599994,0.48 -0.9599994,1.01334 z m 8.3199952,-6.87999 v -21.59999 h 5.599997 c 6.026663,0 9.919994,4.74666 9.919994,10.77332 0,6.08 -3.893331,10.82667 -9.919994,10.82667 z m 28.586567,-10.72 c 0,10.66666 8.479995,19.14666 19.146655,19.14666 10.66666,0 19.199989,-8.48 19.199989,-19.14666 0,-10.66666 -8.533329,-19.25332 -19.199989,-19.25332 -10.66666,0 -19.146655,8.58666 -19.146655,19.25332 z m 8.533328,0 c 0,-5.86666 4.799997,-10.71999 10.613327,-10.71999 5.866663,0 10.66666,4.85333 10.66666,10.71999 0,5.81333 -4.799997,10.61333 -10.66666,10.61333 -5.81333,0 -10.613327,-4.8 -10.613327,-10.61333 z m 33.813233,17.43999 c -0.106666,0.69333 0.373333,1.17333 1.013333,1.17333 h 6.29333 c 0.533333,0 0.959999,-0.42666 1.013332,-0.85333 l 2.346666,-16.47999 h 0.106666 l 9.013329,17.27999 c 0.16,0.32 0.58667,0.58667 0.90667,0.58667 h 0.95999 c 0.26667,0 0.74667,-0.26667 0.90667,-0.58667 l 8.96,-17.27999 h 0.10666 l 2.4,16.47999 c 0.0533,0.42667 0.53333,0.85333 1.01333,0.85333 h 6.29333 c 0.64,0 1.12,-0.48 1.01334,-1.17333 l -6.02667,-35.83998 c -0.0533,-0.48 -0.53333,-0.85333 -0.96,-0.85333 h -0.85333 c -0.26667,0 -0.74667,0.21333 -0.90667,0.53333 l -12.37332,23.03999 h -0.10667 L 92.213116,390.66666 c -0.16,-0.32 -0.64,-0.53333 -0.906666,-0.53333 h -0.853333 c -0.426667,0 -0.906666,0.37333 -0.96,0.85333 z m 48.799886,0.16 c 0,0.53333 0.48,1.01333 1.01333,1.01333 h 6.4 c 0.53333,0 1.01333,-0.48 1.01333,-1.01333 V 391.68 c 0,-0.53334 -0.48,-1.01334 -1.01333,-1.01334 h -6.4 c -0.53333,0 -1.01333,0.48 -1.01333,1.01334 z m 16.85332,0 c 0,0.53333 0.48,1.01333 1.01333,1.01333 h 6.34666 c 0.58667,0 1.01334,-0.48 1.01334,-1.01333 v -19.89332 h 0.0533 l 20.74665,20.85332 c 0.42667,0.42667 0.8,0.58667 1.33334,0.58667 h 0.53333 c 0.53333,0 1.01333,-0.32 1.01333,-0.96 V 391.68 c 0,-0.53334 -0.48,-1.01334 -1.01333,-1.01334 h -6.4 c -0.58666,0 -1.01333,0.48 -1.01333,1.01334 v 18.93332 h -0.0533 l -20.47999,-19.67999 c -0.42667,-0.42667 -0.8,-0.8 -1.33333,-0.8 h -0.8 c -0.53334,0 -1.01334,0.42667 -1.01334,0.96 z m 40.47992,0 c 0,0.53333 0.48,1.01333 1.01333,1.01333 h 6.4 c 0.53333,0 1.01333,-0.48 1.01333,-1.01333 V 391.68 c 0,-0.53334 -0.48,-1.01334 -1.01333,-1.01334 h -6.4 c -0.53333,0 -1.01333,0.48 -1.01333,1.01334 z m 14.71998,-17.59999 c 0,10.66666 8.48,19.14666 19.14666,19.14666 10.66666,0 19.19999,-8.48 19.19999,-19.14666 0,-10.66666 -8.53333,-19.25332 -19.19999,-19.25332 -10.66666,0 -19.14666,8.58666 -19.14666,19.25332 z m 8.53333,0 c 0,-5.86666 4.8,-10.71999 10.61333,-10.71999 5.86666,0 10.66666,4.85333 10.66666,10.71999 0,5.81333 -4.8,10.61333 -10.66666,10.61333 -5.81333,0 -10.61333,-4.8 -10.61333,-10.61333 z m 36.1066,17.59999 c 0,0.53333 0.48,1.01333 1.01333,1.01333 h 6.34666 c 0.58667,0 1.01333,-0.48 1.01333,-1.01333 v -19.89332 h 0.0533 l 20.74665,20.85332 c 0.42667,0.42667 0.8,0.58667 1.33333,0.58667 h 0.53334 c 0.53333,0 1.01333,-0.32 1.01333,-0.96 V 391.68 c 0,-0.53334 -0.48,-1.01334 -1.01333,-1.01334 h -6.4 c -0.58667,0 -1.01333,0.48 -1.01333,1.01334 v 18.93332 h -0.0533 l -20.47998,-19.67999 c -0.42667,-0.42667 -0.8,-0.8 -1.33334,-0.8 h -0.79999 c -0.53334,0 -1.01334,0.42667 -1.01334,0.96 z"
       aria-label="DOMINION"
       color="#000000"
       font-family="'Brandon Text'"
       font-size="53.3333px"
       font-weight="500"
       style="-inkscape-font-specification:'Brandon Text, Medium';-inkscape-stroke:none"
       transform="matrix(0.26458,0,0,0.26458,30.000293,6.8438898)"
       id="path8" /></g><path
     d="M33.294606 92.164453c-.55427-1.444413.32268-2.109366 2.78186-2.109366h2.34308V82.3467c0-7.543516-.0382-7.768544-1.78362-10.520872-3.06091-4.826548-1.84562-9.430344 3.17133-12.013648 3.44182-1.772244 6.181726-1.382177 9.096125 1.294963 2.416694 2.219983 3.15603 4.771711 3.176411 10.963078l.01348 4.310423H86.57664v13.674443h7.729027V73.267645l1.783623-2.031441c4.37807-4.98635-.591522-11.903334-6.395673-8.901885-2.111427 1.091863-2.534142 1.971331-3.036365 6.317291l-.377883 3.269975-14.492391.159364c-14.871931.163542-17.044484-.120467-15.466452-2.02188.533685-.643055 3.443958-.812927 13.926782-.812927h13.252109l.385093-2.279353c1.134762-6.716601 6.692833-9.970383 12.16079-7.119119 4.9219 2.566521 6.16809 8.199847 2.792885 12.624981-1.49866 1.96484-1.559815 2.348264-1.559815 9.779539v7.734516l2.526799.182823c2.069501.149723 2.526801.398022 2.526801 1.371904 0 1.128587-.4514 1.197482-8.872839 1.354203-6.699814.124691-8.990895-.0209-9.35491-.594541-.265142-.417813-.486173-3.635755-.49118-7.15098l-.0092-6.391317H49.120596v-6.272203c0-7.109041-.703472-9.188729-3.499945-10.347067-5.749745-2.381624-10.523425 4.676607-6.012725 8.890239l1.78363 1.666155v17.359159h7.72904v-3.206367c0-3.469528 1.224728-4.894263 2.369077-2.755989.659744 1.232746.819422 6.4918.24273 7.994621-.515863 1.344359-17.924267 1.417149-18.438487.0771zm22.773961.044c-.709158-1.848058.961115-2.15336 11.780741-2.15336 10.819626 0 12.489905.305302 11.780745 2.153345-.462739 1.205877-23.098751 1.205877-23.561486 0zM42.186446 67.719832c-.54103-1.409924.72703-2.404306 1.863371-1.461214.70419.584422.763648.960748.249673 1.580058-.890317 1.072767-1.672654 1.028764-2.113044-.118849zm49.212691.118848c-.513982-.61931-.454517-.995636.249669-1.580057 1.13635-.943093 2.404399.0513 1.863361 1.461213-.440377 1.147609-1.222718 1.191611-2.11303.118849zM54.472149 48.192975V33.085214l2.526788-1.208661c4.125765-1.973505 7.905679-2.653026 12.86638-2.313012 5.018198.343955 10.430657 2.271483 11.384886 4.054475.61619 1.151364.789002 26.132526.196081 28.345003-.358232 1.336746-.368192 1.337721-13.666321 1.337721H54.472149Zm24.376165-.681008V34.695901l-2.82407-1.286565c-4.017223-1.830133-12.332649-1.830133-16.349873 0l-2.824068 1.286565v25.632131h21.998011Zm-31.510655-9.466265V19.842459l1.57316-1.457965c3.107088-2.879561 7.40563-1.04373 8.263519 3.529209.46305 2.468278.263361 2.407157 4.080876 1.249074 3.731843-1.132095 9.456344-1.132095 13.188187 0 1.605208.486956 3.087456.888271 3.293885.891811.206417.0036.669963-1.163683 1.030079-2.593828 1.101228-4.373375 5.262691-5.946483 8.134273-3.074901l1.459328 1.459328v18.160528c0 17.764167-.02595 18.160528-1.189082 18.160528-.653994 0-1.245959-.0669-1.315473-.148645-.06952-.08175-.270173-8.174941-.445906-17.98487l-.319513-17.836222h-1.486353c-1.342013 0-1.501578.25981-1.643142 2.675435-.08624 1.471489-.299229 3.30624-.473314 4.077223-.35894 1.58964-.698025 1.561775-6.504385-.534524-5.005734-1.807245-12.345049-1.463019-16.723365.784354-1.676911.86075-3.215278 1.398644-3.418617 1.195319-.20336-.203325-.369667-1.745446-.369667-3.426934 0-3.447942-1.012356-5.303684-2.714747-4.976394-1.098194.211134-1.163112 1.020818-1.447054 18.049518l-.297266 17.828471-1.337712.189991-1.337711.189991z"
     id="path12" /></svg>
