<svg width="512" height="512" viewBox="0 0 135.467 135.467" xml:space="preserve" xmlns="http://www.w3.org/2000/svg"><path fill-rule="evenodd" d="M512 0A512 512 0 0 0 0 512v1024a512 512 0 0 0 512 512h1536V0Z" style="font-variation-settings:normal;-inkscape-stroke:none" transform="matrix(.06615 0 0 .06615 0 0)"/><path fill="#a000c0" d="M512 128a384 384 0 0 0-384 384v1024h1792V128Z" color="#000" style="fill:#0cd1a5;fill-opacity:1" transform="matrix(.06615 0 0 .06615 0 0)"/><g style="-inkscape-font-specification:'Brandon Text, Medium';white-space:pre"><path fill="#fff" d="M4.213 426.987c0 .533.427 1.013.96 1.013h13.014c10.293 0 18.72-8.373 18.72-18.72 0-10.24-8.427-18.613-18.72-18.613H5.173c-.533 0-.96.48-.96 1.013zm8.32-6.88v-21.6h5.6c6.027 0 9.92 4.746 9.92 10.773 0 6.08-3.893 10.827-9.92 10.827zm28.587-10.72c0 10.666 8.48 19.146 19.147 19.146 10.666 0 19.2-8.48 19.2-19.146 0-10.667-8.534-19.254-19.2-19.254-10.667 0-19.147 8.587-19.147 19.254zm8.533 0c0-5.867 4.8-10.72 10.614-10.72 5.866 0 10.666 4.853 10.666 10.72 0 5.813-4.8 10.613-10.666 10.613-5.814 0-10.614-4.8-10.614-10.613zm33.813 17.44c-.106.693.374 1.173 1.014 1.173h6.293c.533 0 .96-.427 1.013-.853l2.347-16.48h.107l9.013 17.28c.16.32.587.586.907.586h.96c.266 0 .746-.266.906-.586l8.96-17.28h.107l2.4 16.48c.053.426.533.853 1.013.853h6.294c.64 0 1.12-.48 1.013-1.173l-6.027-35.84c-.053-.48-.533-.854-.96-.854h-.853c-.267 0-.747.214-.907.534l-12.373 23.04h-.107l-12.373-23.04c-.16-.32-.64-.534-.907-.534h-.853c-.427 0-.907.374-.96.854zm48.8.16c0 .533.48 1.013 1.014 1.013h6.4c.533 0 1.013-.48 1.013-1.013V391.68c0-.533-.48-1.013-1.013-1.013h-6.4c-.534 0-1.014.48-1.014 1.013zm16.854 0c0 .533.48 1.013 1.013 1.013h6.347c.586 0 1.013-.48 1.013-1.013v-19.894h.053l20.747 20.854c.427.426.8.586 1.333.586h.534c.533 0 1.013-.32 1.013-.96V391.68c0-.533-.48-1.013-1.013-1.013h-6.4c-.587 0-1.014.48-1.014 1.013v18.933h-.053l-20.48-19.68c-.427-.426-.8-.8-1.333-.8h-.8c-.534 0-1.014.427-1.014.96zm40.48 0c0 .533.48 1.013 1.013 1.013h6.4c.533 0 1.013-.48 1.013-1.013V391.68c0-.533-.48-1.013-1.013-1.013h-6.4c-.533 0-1.013.48-1.013 1.013zm14.72-17.6c0 10.666 8.48 19.146 19.146 19.146 10.667 0 19.2-8.48 19.2-19.146 0-10.667-8.533-19.254-19.2-19.254-10.666 0-19.146 8.587-19.146 19.254zm8.533 0c0-5.867 4.8-10.72 10.613-10.72 5.867 0 10.667 4.853 10.667 10.72 0 5.813-4.8 10.613-10.667 10.613-5.813 0-10.613-4.8-10.613-10.613zm36.106 17.6c0 .533.48 1.013 1.014 1.013h6.346c.587 0 1.014-.48 1.014-1.013v-19.894h.053l20.747 20.854c.426.426.8.586 1.333.586H280c.534 0 1.014-.32 1.014-.96V391.68c0-.533-.48-1.013-1.014-1.013h-6.4c-.586 0-1.013.48-1.013 1.013v18.933h-.053l-20.48-19.68c-.427-.426-.8-.8-1.334-.8h-.8c-.533 0-1.013.427-1.013.96z" aria-label="DOMINION" color="#000" font-family="'Brandon Text'" font-size="53.333" font-weight="500" style="-inkscape-font-specification:'Brandon Text, Medium';-inkscape-stroke:none" transform="translate(30 10.232) scale(.26458)"/></g><path d="M33.295 92.164c-.555-1.444.322-2.109 2.781-2.109h2.344v-7.708c0-7.544-.039-7.769-1.784-10.521-3.061-4.827-1.846-9.43 3.171-12.014 3.442-1.772 6.182-1.382 9.096 1.295 2.417 2.22 3.156 4.772 3.177 10.963l.013 4.31h34.484v13.675h7.729V73.268l1.783-2.032c4.378-4.986-.591-11.903-6.395-8.902-2.112 1.092-2.535 1.972-3.037 6.318l-.378 3.27-14.492.159c-14.872.163-17.045-.12-15.466-2.022.533-.643 3.443-.813 13.926-.813H83.5l.386-2.28c1.134-6.716 6.692-9.97 12.16-7.118 4.922 2.566 6.168 8.2 2.793 12.625-1.498 1.964-1.56 2.348-1.56 9.78v7.734l2.527.183c2.07.15 2.527.398 2.527 1.371 0 1.129-.451 1.198-8.873 1.355-6.7.124-8.99-.021-9.355-.595-.265-.418-.486-3.636-.491-7.15l-.01-6.392H49.122v-6.272c0-7.11-.704-9.19-3.5-10.347-5.75-2.382-10.524 4.676-6.013 8.89l1.784 1.666v17.36h7.729v-3.207c0-3.47 1.224-4.895 2.369-2.756.66 1.232.82 6.492.242 7.994-.515 1.345-17.924 1.417-18.438.077zm22.774.044c-.71-1.848.96-2.153 11.78-2.153s12.49.305 11.781 2.153c-.463 1.206-23.099 1.206-23.561 0zM42.186 67.72c-.54-1.41.727-2.404 1.864-1.461.704.584.763.96.25 1.58-.89 1.072-1.673 1.028-2.114-.12zm49.213.119c-.514-.62-.454-.996.25-1.58 1.136-.943 2.404.05 1.863 1.46-.44 1.148-1.223 1.192-2.113.12zM54.472 48.193V33.085L57 31.877c4.126-1.974 7.906-2.653 12.866-2.313 5.019.343 10.431 2.271 11.385 4.054.616 1.151.79 26.133.196 28.345-.358 1.337-.368 1.338-13.666 1.338H54.472Zm24.376-.681V34.696l-2.824-1.287c-4.017-1.83-12.332-1.83-16.35 0l-2.824 1.287v25.632h21.998Zm-31.51-9.466V19.842l1.573-1.458c3.107-2.88 7.405-1.043 8.263 3.53.463 2.468.264 2.407 4.081 1.249 3.732-1.132 9.457-1.132 13.188 0 1.606.487 3.088.888 3.294.892.207.003.67-1.164 1.03-2.594 1.102-4.374 5.263-5.947 8.135-3.075l1.459 1.46v18.16c0 17.764-.026 18.16-1.19 18.16-.653 0-1.245-.067-1.315-.148-.07-.082-.27-8.175-.445-17.985l-.32-17.836h-1.486c-1.342 0-1.502.26-1.644 2.675-.086 1.471-.299 3.306-.473 4.077-.359 1.59-.698 1.562-6.504-.534-5.006-1.808-12.345-1.463-16.724.784-1.676.86-3.215 1.399-3.418 1.195-.204-.203-.37-1.745-.37-3.427 0-3.448-1.012-5.303-2.715-4.976-1.098.211-1.163 1.02-1.447 18.05l-.297 17.828-1.338.19-1.337.19z"/></svg>