<svg xmlns="http://www.w3.org/2000/svg" width="512" height="512" viewBox="0 0 135.46666 135.46667">
  <path fill-rule="evenodd" d="M16.933335 0H118.53333c9.38107 0 16.93333 7.5522663 16.93333 16.933332V118.53333c0 9.38106-7.55226 16.93333-16.93333 16.93333H16.933335c-9.381066 0-16.93333227-7.55227-16.93333227-16.93333V16.933332C.00000273 7.5522663 7.552269 0 16.933335 0Z" color="#000" style="-inkscape-stroke:none"/>
  <path fill="#9bf122" fill-rule="evenodd" d="M16.933332 8.5685921H118.53333c4.69054 0 8.46667 3.7761329 8.46667 8.4666659v84.666662c0 4.69054-3.77613 8.46667-8.46667 8.46667H16.933332c-4.690533 0-8.4666658-3.77613-8.4666658-8.46667V17.035258c0-4.690533 3.7761328-8.4666659 8.4666658-8.4666659z" color="#000" style="-inkscape-stroke:none"/>
  <path fill-rule="evenodd" d="M8.4666689 101.60001H127c4.69053 0 8.46666 3.77614 8.46666 8.46667v8.46667c0 4.69053-3.77613 8.46666-8.46666 8.46666H8.4666689c-4.690533 0-8.46666617-3.77613-8.46666617-8.46666v-8.46667c0-4.69053 3.77613317-8.46667 8.46666617-8.46667z" color="#000" style="-inkscape-stroke:none"/>
  <g style="-inkscape-font-specification:'Brandon Text, Medium';white-space:pre">
    <path fill="#fff" d="M4.2133308 426.98664c0 .53333.4799997 1.01333 1.0133328 1.01333h6.3466624c.586667 0 1.013333-.48 1.013333-1.01333v-14.02666h15.253324v14.02666c0 .53333.426667 1.01333 1.013333 1.01333h6.346663c.533333 0 1.013333-.48 1.013333-1.01333V391.68c0-.53334-.48-1.01334-1.013333-1.01334h-6.346663c-.586666 0-1.013333.48-1.013333 1.01334v13.43999H12.586659V391.68c0-.53334-.426666-1.01334-1.013333-1.01334H5.2266636c-.5333331 0-1.0133328.48-1.0133328 1.01334zm40.4266132 0c0 .53333.426666 1.01333 1.013332 1.01333h22.079987c.586667 0 1.013333-.48 1.013333-1.01333v-5.81333c0-.53333-.426666-1.01333-1.013333-1.01333H52.959939v-7.2h12.159992c.533333 0 1.013333-.42666 1.013333-1.01333v-5.81333c0-.53333-.48-1.01333-1.013333-1.01333H52.959939v-6.61333h14.773324c.586667 0 1.013333-.48 1.013333-1.01333V391.68c0-.53334-.426666-1.01334-1.013333-1.01334H45.653276c-.586666 0-1.013332.48-1.013332 1.01334zm30.826599 0c0 .53333.426666 1.01333 1.013333 1.01333h6.346662c.533333 0 1.013333-.48 1.013333-1.01333v-13.59999h3.679998l7.093329 14.13332c.106667.21334.426666.48.853333.48h7.093329c.90667 0 1.28-.85333.90667-1.54666l-7.306666-13.54666c4.959996-1.86667 7.893326-5.81333 7.893326-10.71999 0-6.34667-4.853328-11.52-11.626657-11.52H76.479876c-.586667 0-1.013333.48-1.013333 1.01334zm8.373328-20.37332v-8.32H91.7332c2.186665 0 4.053331 1.54667 4.053331 4.05334 0 2.50666-1.866666 4.26666-4.053331 4.26666zm26.933249 20.37332c0 .53333.48 1.01333 1.01334 1.01333h6.39999c.53333 0 1.01333-.48 1.01333-1.01333V391.68c0-.53334-.48-1.01334-1.01333-1.01334h-6.39999c-.53334 0-1.01334.48-1.01334 1.01334zm22.66666 0c0 .53333.48 1.01333 1.01333 1.01333h6.4c.53333 0 1.01333-.48 1.01333-1.01333v-28.47998h7.62666c.58667 0 1.01333-.48 1.01333-1.01333V391.68c0-.53334-.42666-1.01334-1.01333-1.01334h-23.67998c-.58667 0-1.01334.48-1.01334 1.01334v5.81333c0 .53333.42667 1.01333 1.01334 1.01333h7.62666zm16.90649 1.01333h5.86667c1.06666 0 1.65333-.64 1.91999-1.28l1.92-4.26666h14.50666l1.92 4.21333c.48 1.01333.90667 1.33333 1.86667 1.33333h5.91999c.8 0 1.22667-.69333.90667-1.38666L168.47959 390.72c-.16-.32-.53333-.58667-.90666-.58667h-.53333c-.37334 0-.74667.26667-.90667.58667l-16.69332 35.89331c-.32.69333.10666 1.38666.90666 1.38666zm12.90666-12.79999 4-8.79999h.0533l4.05333 8.79999zm22.98651-5.81333c0 10.66666 8.53333 19.09332 19.14665 19.09332 7.73333 0 13.22666-3.46666 13.22666-3.46666.21334-.16.42667-.37333.42667-.85333l-.0533-14.34666c0-.53334-.42666-1.01333-.95999-1.01333h-10.72c-.58666 0-1.01333.42666-1.01333 1.01333v5.27999c0 .53334.42667.96 1.01333.96h3.36v3.09334c-1.6.64-3.2.85333-4.74666.85333-5.81333 0-10.56-4.8-10.56-10.61333 0-5.86666 4.69333-10.77333 10.50666-10.77333 2.61333 0 4.96.69334 6.98667 2.56.42666.32 1.01333.32 1.43999-.0533l4.21334-4.48c.42666-.42666.37333-1.06666-.10667-1.44-3.62667-3.14666-8.53333-5.01333-13.01333-5.01333-10.61332 0-19.14665 8.53333-19.14665 19.19999zm39.94662 17.59999c0 .53333.42667 1.01333 1.01334 1.01333h22.07998c.58667 0 1.01334-.48 1.01334-1.01333v-5.81333c0-.53333-.42667-1.01333-1.01334-1.01333h-14.77332v-7.2h12.15999c.53333 0 1.01333-.42666 1.01333-1.01333v-5.81333c0-.53333-.48-1.01333-1.01333-1.01333h-12.15999v-6.61333h14.77332c.58667 0 1.01334-.48 1.01334-1.01333V391.68c0-.53334-.42667-1.01334-1.01334-1.01334H227.1994c-.58667 0-1.01334.48-1.01334 1.01334z" aria-label="HERITAGE" color="#000" font-family="Brandon Text" font-size="53.3333px" font-weight="500" style="-inkscape-font-specification:'Brandon Text, Medium';-inkscape-stroke:none" transform="translate(34.064304 6.8438898) scale(.26458)"/>
  </g>
  <path d="M43.796251 92.435419c-.17054-.444231-.2303-2.794274-.13292-5.222306l.17707-4.414614 3.54106-.182161 3.54108-.182161-3.00277-1.714954c-3.61306-2.063485-7.93115-6.718826-9.67681-10.43259-3.87276-8.23894-3.1094-16.835162 2.62049-29.509824 3.89069-8.606346 3.88699-8.195535.0712-7.879099-3.0015.248907-3.37184.128995-5.43186-1.758875-1.76669-1.619057-2.26532-2.560627-2.48254-4.687755-.51625-5.055463 2.77707-8.866557 8.10429-9.378437 6.17188-.593038 11.24524 2.975089 12.49129 8.785206.36052 1.681125.6555 3.445724.6555 3.921331 0 .525021.58542.864741 1.49014.864741 1.45823 0 1.49011-.09658 1.49011-4.511849 0-4.338021.0516-4.504511 1.34114-4.32138 1.23063.174779 1.35553.54645 1.51624 4.511849.16806 4.144017.23521 4.32138 1.63913 4.32138 1.45774 0 1.46403-.02579 1.46403-6.00198 0-5.883342.0266-5.998215 1.34111-5.81151 1.27225.180687 1.34988.488898 1.51172 6.001979.16761 5.708492.19622 5.811511 1.61755 5.811511 1.4213 0 1.44998-.103021 1.61757-5.811511.16175-5.513081.23945-5.821292 1.51171-6.001979 1.3146-.186705 1.34111-.07183 1.34111 5.81151 0 5.976196.007 6.00198 1.46401 6.00198 1.40394 0 1.47121-.177363 1.63915-4.32138.16063-3.965399.28561-4.33707 1.51625-4.511849 1.28945-.18313 1.34111-.01665 1.34111 4.32138 0 4.415271.032 4.511849 1.49013 4.511849 1.161002 0 1.490134-.305239 1.490134-1.381947 0-2.688041 1.781601-7.329518 3.413278-8.89241 6.161709-5.901906 16.419427-3.864121 17.808027 3.537719 1.03622 5.523567-2.384291 9.367985-7.96782 8.955257-3.71853-.274869-3.726235-.66975.154316 7.914269 5.729894 12.674662 6.493234 21.270884 2.620473 29.509824-1.745668 3.713764-6.063757 8.369105-9.676789 10.432603l-3.002773 1.714955 3.541055.182161 3.541079.182161v10.132888l-23.70916.155871c-19.50525.128207-23.7641.01262-24.01907-.651853zm45.045982-4.570475v-2.384209H46.522541v4.768417h42.319692zm-11.599232-6.271436c11.645707-2.973164 18.567171-10.475221 19.20532-20.816342.344542-5.583078-.903799-10.660964-4.62136-18.798488-1.647311-3.605844-3.278492-7.877488-3.62486-9.492542-1.246494-5.812131.234944-10.159803 2.012692-5.906827 1.23933 2.964911 2.5692 3.758285 5.929086 3.537198 1.805592-.118812 3.427288-2.28824 3.427288-4.584882 0-3.248415-2.63203-5.616647-6.24229-5.616647-4.902532 0-8.290622 2.774494-8.967723 7.343592-.254769 1.719192.117371 4.523245 1.200447 9.047849 4.598247 19.207546 4.412864 28.10284-.695212 33.362482-2.858414 2.943199-6.130028 4.343571-12.130108 5.192087-5.73056.810412-13.35495.02904-17.46759-1.790207-9.17076-4.056667-10.90676-13.77117-6.09053-34.082127 1.58786-6.69632 2.08969-9.924402 1.82352-11.730084-.67329-4.567648-4.06244-7.343592-8.96577-7.343592-2.25323 0-3.0764.318714-4.49999 1.742306-3.41188 3.411882-1.65732 8.390585 2.95694 8.390585 2.46907 0 3.74654-1.00469 4.79976-3.774867.8346-2.195136 2.06902-1.749466 2.32807.840508.32629 3.262312-1.0198 8.122544-4.15691 15.009052-5.34268 11.728071-6.03426 19.483295-2.39641 26.872814 3.11271 6.322808 8.44296 10.308248 16.78017 12.546525 4.3955 1.180053 14.86628 1.207918 19.39546.05161zm-8.07049-28.597624V33.624183h-2.98025v38.743399h2.98025zm-5.9605-.298027V33.624183h-2.98027V71.77153h2.98027zm11.92102 0V33.624183h-2.98025V71.77153h2.98025zm-18.02195-.447041-.1577-18.328608-1.8563-.180742c-1.61007-.156772-1.90527.04091-2.2254 1.49013-3.47248 15.72051-4.18414 23.24979-2.67395 28.290336.66793 2.22939 5.08245 7.057497 6.45292 7.057497.41663 0 .56662-5.971901.46036-18.328608zm24.814104 15.93832c1.782479-1.643023 2.829262-3.233547 3.348373-5.087659 1.140095-4.072019.409581-14.09997-1.626292-22.324668-1.68865-6.821868-1.705208-6.854601-3.466345-6.854601h-1.7696l-.15769 18.328608c-.10634 12.356707.0437 18.328609.46036 18.328609.3399 0 1.784905-1.075629 3.211126-2.390289z"/>
</svg>
