<svg width="512" height="512" viewBox="0 0 135.467 135.467" xml:space="preserve" xmlns="http://www.w3.org/2000/svg"><path fill-rule="evenodd" d="M512 0A512 512 0 0 0 0 512v1024a512 512 0 0 0 512 512h1536V0Z" style="font-variation-settings:normal;-inkscape-stroke:none" transform="matrix(.06615 0 0 .06615 0 0)"/><path fill="#a000c0" d="M512 128a384 384 0 0 0-384 384v1024h1792V128Z" color="#000" style="fill:#9bf122;fill-opacity:1" transform="matrix(.06615 0 0 .06615 0 0)"/><g style="-inkscape-font-specification:'Brandon Text, Medium';white-space:pre"><path fill="#fff" d="M4.213 426.987c0 .533.48 1.013 1.014 1.013h6.346c.587 0 1.014-.48 1.014-1.013V412.96H27.84v14.027c0 .533.427 1.013 1.013 1.013H35.2c.533 0 1.013-.48 1.013-1.013V391.68c0-.533-.48-1.013-1.013-1.013h-6.347c-.586 0-1.013.48-1.013 1.013v13.44H12.587v-13.44c0-.533-.427-1.013-1.014-1.013H5.227c-.534 0-1.014.48-1.014 1.013zm40.427 0c0 .533.427 1.013 1.013 1.013h22.08c.587 0 1.014-.48 1.014-1.013v-5.814c0-.533-.427-1.013-1.014-1.013H52.96v-7.2h12.16c.533 0 1.013-.427 1.013-1.013v-5.814c0-.533-.48-1.013-1.013-1.013H52.96v-6.613h14.773c.587 0 1.014-.48 1.014-1.014v-5.813c0-.533-.427-1.013-1.014-1.013h-22.08c-.586 0-1.013.48-1.013 1.013zm30.827 0c0 .533.426 1.013 1.013 1.013h6.347c.533 0 1.013-.48 1.013-1.013v-13.6h3.68l7.093 14.133c.107.213.427.48.854.48h7.093c.907 0 1.28-.853.907-1.547l-7.307-13.546c4.96-1.867 7.893-5.814 7.893-10.72 0-6.347-4.853-11.52-11.626-11.52H76.48c-.587 0-1.013.48-1.013 1.013zm8.373-20.374v-8.32h7.893c2.187 0 4.054 1.547 4.054 4.054 0 2.506-1.867 4.266-4.054 4.266zm26.933 20.374c0 .533.48 1.013 1.013 1.013h6.4c.534 0 1.014-.48 1.014-1.013V391.68c0-.533-.48-1.013-1.014-1.013h-6.4c-.533 0-1.013.48-1.013 1.013zm22.667 0c0 .533.48 1.013 1.013 1.013h6.4c.533 0 1.013-.48 1.013-1.013v-28.48h7.627c.587 0 1.013-.48 1.013-1.014v-5.813c0-.533-.426-1.013-1.013-1.013h-23.68c-.587 0-1.013.48-1.013 1.013v5.813c0 .534.426 1.014 1.013 1.014h7.627zM150.346 428h5.867c1.067 0 1.653-.64 1.92-1.28l1.92-4.267h14.507l1.92 4.214c.48 1.013.906 1.333 1.866 1.333h5.92c.8 0 1.227-.693.907-1.387L168.48 390.72c-.16-.32-.534-.587-.907-.587h-.533c-.374 0-.747.267-.907.587l-16.693 35.893c-.32.694.106 1.387.906 1.387zm12.907-12.8 4-8.8h.053l4.054 8.8zm22.986-5.813c0 10.666 8.534 19.093 19.147 19.093 7.733 0 13.227-3.467 13.227-3.467.213-.16.426-.373.426-.853l-.053-14.347c0-.533-.427-1.013-.96-1.013h-10.72c-.587 0-1.013.427-1.013 1.013v5.28c0 .534.426.96 1.013.96h3.36v3.094c-1.6.64-3.2.853-4.747.853-5.813 0-10.56-4.8-10.56-10.613 0-5.867 4.694-10.774 10.507-10.774 2.613 0 4.96.694 6.987 2.56.426.32 1.013.32 1.44-.053l4.213-4.48c.427-.427.373-1.067-.107-1.44-3.626-3.147-8.533-5.013-13.013-5.013-10.613 0-19.147 8.533-19.147 19.2zm39.947 17.6c0 .533.427 1.013 1.013 1.013h22.08c.587 0 1.014-.48 1.014-1.013v-5.814c0-.533-.427-1.013-1.014-1.013h-14.773v-7.2h12.16c.533 0 1.013-.427 1.013-1.013v-5.814c0-.533-.48-1.013-1.013-1.013h-12.16v-6.613h14.773c.587 0 1.014-.48 1.014-1.014v-5.813c0-.533-.427-1.013-1.014-1.013H227.2c-.586 0-1.013.48-1.013 1.013z" aria-label="HERITAGE" color="#000" font-family="'Brandon Text'" font-size="53.333" font-weight="500" style="-inkscape-font-specification:'Brandon Text, Medium';-inkscape-stroke:none" transform="translate(34.064 10.239) scale(.26458)"/></g><path d="M43.796 92.435c-.17-.444-.23-2.794-.133-5.222l.177-4.415 3.541-.182 3.542-.182-3.003-1.715c-3.613-2.063-7.931-6.719-9.677-10.432-3.873-8.24-3.11-16.836 2.62-29.51 3.891-8.607 3.887-8.196.072-7.88-3.002.25-3.372.13-5.432-1.758-1.767-1.62-2.266-2.56-2.483-4.688-.516-5.055 2.777-8.866 8.105-9.378 6.171-.593 11.245 2.975 12.49 8.785.361 1.681.656 3.446.656 3.921 0 .525.586.865 1.49.865 1.459 0 1.49-.097 1.49-4.512 0-4.338.052-4.504 1.342-4.321 1.23.174 1.355.546 1.516 4.512.168 4.144.235 4.32 1.64 4.32 1.457 0 1.463-.025 1.463-6.001 0-5.883.027-5.998 1.341-5.812 1.272.181 1.35.49 1.512 6.002.168 5.709.196 5.812 1.618 5.812 1.42 0 1.45-.103 1.617-5.812.162-5.513.24-5.82 1.512-6.002 1.314-.186 1.34-.071 1.34 5.812 0 5.976.008 6.002 1.465 6.002 1.404 0 1.471-.177 1.64-4.321.16-3.966.285-4.338 1.515-4.512 1.29-.183 1.341-.017 1.341 4.321 0 4.415.032 4.512 1.49 4.512 1.162 0 1.49-.305 1.49-1.382 0-2.688 1.782-7.33 3.414-8.892 6.162-5.902 16.42-3.865 17.808 3.537 1.036 5.524-2.384 9.368-7.968 8.956-3.718-.275-3.726-.67.154 7.914 5.73 12.674 6.494 21.27 2.62 29.51-1.745 3.713-6.063 8.369-9.676 10.432l-3.003 1.715 3.541.182 3.542.183V92.93l-23.71.156c-19.505.128-23.764.013-24.019-.652zm45.046-4.57V85.48h-42.32v4.768h42.32zm-11.599-6.271C88.889 78.62 95.81 71.118 96.448 60.777c.345-5.583-.903-10.66-4.621-18.798-1.647-3.606-3.279-7.878-3.625-9.493-1.246-5.812.235-10.16 2.013-5.907 1.24 2.965 2.569 3.759 5.929 3.538 1.805-.12 3.427-2.289 3.427-4.585 0-3.249-2.632-5.617-6.242-5.617-4.903 0-8.29 2.774-8.968 7.344-.255 1.719.118 4.523 1.2 9.047 4.599 19.208 4.413 28.103-.695 33.363-2.858 2.943-6.13 4.343-12.13 5.192-5.73.81-13.355.029-17.467-1.79-9.171-4.057-10.907-13.771-6.09-34.082 1.587-6.697 2.089-9.925 1.823-11.73-.674-4.568-4.063-7.344-8.966-7.344-2.253 0-3.076.319-4.5 1.742-3.412 3.412-1.657 8.39 2.957 8.39 2.469 0 3.746-1.004 4.8-3.774.834-2.195 2.069-1.75 2.328.84.326 3.263-1.02 8.123-4.157 15.01-5.343 11.728-6.034 19.483-2.397 26.872 3.113 6.323 8.443 10.309 16.78 12.547 4.396 1.18 14.867 1.208 19.396.052zm-8.07-28.598V33.624h-2.98v38.744h2.98zm-5.961-.298V33.624h-2.98v38.148h2.98zm11.921 0V33.624h-2.98v38.148h2.98zm-18.022-.447-.158-18.329-1.856-.18c-1.61-.157-1.905.04-2.225 1.49-3.473 15.72-4.184 23.25-2.674 28.29.668 2.23 5.082 7.057 6.453 7.057.416 0 .566-5.971.46-18.328zm24.814 15.938c1.783-1.643 2.83-3.233 3.349-5.088 1.14-4.072.41-14.1-1.627-22.324-1.688-6.822-1.705-6.855-3.466-6.855h-1.77l-.157 18.329c-.107 12.357.043 18.328.46 18.328.34 0 1.785-1.075 3.211-2.39z"/></svg>