<?xml version="1.0" encoding="UTF-8" standalone="no"?>
<svg
   width="512"
   height="512"
   viewBox="0 0 135.46666 135.46667"
   version="1.1"
   id="svg14"
   sodipodi:docname="heritage.svg"
   xml:space="preserve"
   inkscape:version="1.2 (dc2aedaf03, 2022-05-15)"
   xmlns:inkscape="http://www.inkscape.org/namespaces/inkscape"
   xmlns:sodipodi="http://sodipodi.sourceforge.net/DTD/sodipodi-0.dtd"
   xmlns="http://www.w3.org/2000/svg"
   xmlns:svg="http://www.w3.org/2000/svg"><defs
     id="defs18"><rect
       x="346.26527"
       y="1640.6378"
       width="1701.7347"
       height="321.53204"
       id="rect414" /><rect
       x="127.99995"
       y="1536"
       width="1648.6707"
       height="512.00001"
       id="rect1008" /><rect
       x="197.86587"
       y="1536"
       width="1298.4948"
       height="364.33679"
       id="rect910" /><rect
       x="127.99995"
       y="1536"
       width="1806.8724"
       height="508.09906"
       id="rect259" /></defs><sodipodi:namedview
     id="namedview16"
     pagecolor="#505050"
     bordercolor="#eeeeee"
     borderopacity="1"
     inkscape:showpageshadow="0"
     inkscape:pageopacity="0"
     inkscape:pagecheckerboard="0"
     inkscape:deskcolor="#505050"
     showgrid="false"
     inkscape:zoom="0.77441738"
     inkscape:cx="185.30059"
     inkscape:cy="255.67608"
     inkscape:window-width="1366"
     inkscape:window-height="705"
     inkscape:window-x="-8"
     inkscape:window-y="-8"
     inkscape:window-maximized="1"
     inkscape:current-layer="g316" /><g
     id="g316"
     transform="matrix(0.24993849,0,0,0.24993849,4.3755907e-6,4.3755907e-6)"><path
       fill-rule="evenodd"
       d="M 512,0 A 512,512 0 0 0 0,512 v 1024 a 512,512 0 0 0 512,512 H 2048 V 0 Z"
       style="font-variation-settings:normal;-inkscape-stroke:none"
       transform="matrix(0.26464844,0,0,0.26464844,-1.3224987e-5,-1.3224987e-5)"
       id="path2" /><path
       fill="#a000c0"
       d="M 512,128 A 384,384 0 0 0 128,512 V 1536 H 1920 V 128 Z"
       color="#000000"
       style="fill:#9bf122;fill-opacity:1"
       id="path4-6"
       transform="matrix(0.26464844,0,0,0.26464844,-1.3224987e-5,-1.3224987e-5)" /></g><g
     style="-inkscape-font-specification:'Brandon Text, Medium';white-space:pre"
     id="g10"
     transform="translate(0,3.39509)"><path
       fill="#ffffff"
       d="m 4.2133308,426.98664 c 0,0.53333 0.4799997,1.01333 1.0133328,1.01333 h 6.3466624 c 0.586667,0 1.013333,-0.48 1.013333,-1.01333 v -14.02666 h 15.253324 v 14.02666 c 0,0.53333 0.426667,1.01333 1.013333,1.01333 h 6.346663 c 0.533333,0 1.013333,-0.48 1.013333,-1.01333 V 391.68 c 0,-0.53334 -0.48,-1.01334 -1.013333,-1.01334 h -6.346663 c -0.586666,0 -1.013333,0.48 -1.013333,1.01334 v 13.43999 H 12.586659 V 391.68 c 0,-0.53334 -0.426666,-1.01334 -1.013333,-1.01334 H 5.2266636 c -0.5333331,0 -1.0133328,0.48 -1.0133328,1.01334 z m 40.4266132,0 c 0,0.53333 0.426666,1.01333 1.013332,1.01333 h 22.079987 c 0.586667,0 1.013333,-0.48 1.013333,-1.01333 v -5.81333 c 0,-0.53333 -0.426666,-1.01333 -1.013333,-1.01333 H 52.959939 v -7.2 h 12.159992 c 0.533333,0 1.013333,-0.42666 1.013333,-1.01333 v -5.81333 c 0,-0.53333 -0.48,-1.01333 -1.013333,-1.01333 H 52.959939 v -6.61333 h 14.773324 c 0.586667,0 1.013333,-0.48 1.013333,-1.01333 V 391.68 c 0,-0.53334 -0.426666,-1.01334 -1.013333,-1.01334 H 45.653276 c -0.586666,0 -1.013332,0.48 -1.013332,1.01334 z m 30.826599,0 c 0,0.53333 0.426666,1.01333 1.013333,1.01333 h 6.346662 c 0.533333,0 1.013333,-0.48 1.013333,-1.01333 v -13.59999 h 3.679998 l 7.093329,14.13332 c 0.106667,0.21334 0.426666,0.48 0.853333,0.48 h 7.093329 c 0.90667,0 1.28,-0.85333 0.90667,-1.54666 l -7.306666,-13.54666 c 4.959996,-1.86667 7.893326,-5.81333 7.893326,-10.71999 0,-6.34667 -4.853328,-11.52 -11.626657,-11.52 H 76.479876 c -0.586667,0 -1.013333,0.48 -1.013333,1.01334 z m 8.373328,-20.37332 v -8.32 H 91.7332 c 2.186665,0 4.053331,1.54667 4.053331,4.05334 0,2.50666 -1.866666,4.26666 -4.053331,4.26666 z m 26.933249,20.37332 c 0,0.53333 0.48,1.01333 1.01334,1.01333 h 6.39999 c 0.53333,0 1.01333,-0.48 1.01333,-1.01333 V 391.68 c 0,-0.53334 -0.48,-1.01334 -1.01333,-1.01334 h -6.39999 c -0.53334,0 -1.01334,0.48 -1.01334,1.01334 z m 22.66666,0 c 0,0.53333 0.48,1.01333 1.01333,1.01333 h 6.4 c 0.53333,0 1.01333,-0.48 1.01333,-1.01333 v -28.47998 h 7.62666 c 0.58667,0 1.01333,-0.48 1.01333,-1.01333 V 391.68 c 0,-0.53334 -0.42666,-1.01334 -1.01333,-1.01334 h -23.67998 c -0.58667,0 -1.01334,0.48 -1.01334,1.01334 v 5.81333 c 0,0.53333 0.42667,1.01333 1.01334,1.01333 h 7.62666 z m 16.90649,1.01333 h 5.86667 c 1.06666,0 1.65333,-0.64 1.91999,-1.28 l 1.92,-4.26666 h 14.50666 l 1.92,4.21333 c 0.48,1.01333 0.90667,1.33333 1.86667,1.33333 h 5.91999 c 0.8,0 1.22667,-0.69333 0.90667,-1.38666 L 168.47959,390.72 c -0.16,-0.32 -0.53333,-0.58667 -0.90666,-0.58667 h -0.53333 c -0.37334,0 -0.74667,0.26667 -0.90667,0.58667 l -16.69332,35.89331 c -0.32,0.69333 0.10666,1.38666 0.90666,1.38666 z m 12.90666,-12.79999 4,-8.79999 h 0.0533 l 4.05333,8.79999 z m 22.98651,-5.81333 c 0,10.66666 8.53333,19.09332 19.14665,19.09332 7.73333,0 13.22666,-3.46666 13.22666,-3.46666 0.21334,-0.16 0.42667,-0.37333 0.42667,-0.85333 l -0.0533,-14.34666 c 0,-0.53334 -0.42666,-1.01333 -0.95999,-1.01333 h -10.72 c -0.58666,0 -1.01333,0.42666 -1.01333,1.01333 v 5.27999 c 0,0.53334 0.42667,0.96 1.01333,0.96 h 3.36 v 3.09334 c -1.6,0.64 -3.2,0.85333 -4.74666,0.85333 -5.81333,0 -10.56,-4.8 -10.56,-10.61333 0,-5.86666 4.69333,-10.77333 10.50666,-10.77333 2.61333,0 4.96,0.69334 6.98667,2.56 0.42666,0.32 1.01333,0.32 1.43999,-0.0533 l 4.21334,-4.48 c 0.42666,-0.42666 0.37333,-1.06666 -0.10667,-1.44 -3.62667,-3.14666 -8.53333,-5.01333 -13.01333,-5.01333 -10.61332,0 -19.14665,8.53333 -19.14665,19.19999 z m 39.94662,17.59999 c 0,0.53333 0.42667,1.01333 1.01334,1.01333 h 22.07998 c 0.58667,0 1.01334,-0.48 1.01334,-1.01333 v -5.81333 c 0,-0.53333 -0.42667,-1.01333 -1.01334,-1.01333 h -14.77332 v -7.2 h 12.15999 c 0.53333,0 1.01333,-0.42666 1.01333,-1.01333 v -5.81333 c 0,-0.53333 -0.48,-1.01333 -1.01333,-1.01333 h -12.15999 v -6.61333 h 14.77332 c 0.58667,0 1.01334,-0.48 1.01334,-1.01333 V 391.68 c 0,-0.53334 -0.42667,-1.01334 -1.01334,-1.01334 H 227.1994 c -0.58667,0 -1.01334,0.48 -1.01334,1.01334 z"
       aria-label="HERITAGE"
       color="#000000"
       font-family="'Brandon Text'"
       font-size="53.3333px"
       font-weight="500"
       style="-inkscape-font-specification:'Brandon Text, Medium';-inkscape-stroke:none"
       transform="matrix(0.26458,0,0,0.26458,34.064304,6.8438898)"
       id="path8" /></g><path
     d="M43.796251 92.435419c-.17054-.444231-.2303-2.794274-.13292-5.222306l.17707-4.414614 3.54106-.182161 3.54108-.182161-3.00277-1.714954c-3.61306-2.063485-7.93115-6.718826-9.67681-10.43259-3.87276-8.23894-3.1094-16.835162 2.62049-29.509824 3.89069-8.606346 3.88699-8.195535.0712-7.879099-3.0015.248907-3.37184.128995-5.43186-1.758875-1.76669-1.619057-2.26532-2.560627-2.48254-4.687755-.51625-5.055463 2.77707-8.866557 8.10429-9.378437 6.17188-.593038 11.24524 2.975089 12.49129 8.785206.36052 1.681125.6555 3.445724.6555 3.921331 0 .525021.58542.864741 1.49014.864741 1.45823 0 1.49011-.09658 1.49011-4.511849 0-4.338021.0516-4.504511 1.34114-4.32138 1.23063.174779 1.35553.54645 1.51624 4.511849.16806 4.144017.23521 4.32138 1.63913 4.32138 1.45774 0 1.46403-.02579 1.46403-6.00198 0-5.883342.0266-5.998215 1.34111-5.81151 1.27225.180687 1.34988.488898 1.51172 6.001979.16761 5.708492.19622 5.811511 1.61755 5.811511 1.4213 0 1.44998-.103021 1.61757-5.811511.16175-5.513081.23945-5.821292 1.51171-6.001979 1.3146-.186705 1.34111-.07183 1.34111 5.81151 0 5.976196.007 6.00198 1.46401 6.00198 1.40394 0 1.47121-.177363 1.63915-4.32138.16063-3.965399.28561-4.33707 1.51625-4.511849 1.28945-.18313 1.34111-.01665 1.34111 4.32138 0 4.415271.032 4.511849 1.49013 4.511849 1.161002 0 1.490134-.305239 1.490134-1.381947 0-2.688041 1.781601-7.329518 3.413278-8.89241 6.161709-5.901906 16.419427-3.864121 17.808027 3.537719 1.03622 5.523567-2.384291 9.367985-7.96782 8.955257-3.71853-.274869-3.726235-.66975.154316 7.914269 5.729894 12.674662 6.493234 21.270884 2.620473 29.509824-1.745668 3.713764-6.063757 8.369105-9.676789 10.432603l-3.002773 1.714955 3.541055.182161 3.541079.182161v10.132888l-23.70916.155871c-19.50525.128207-23.7641.01262-24.01907-.651853zm45.045982-4.570475v-2.384209H46.522541v4.768417h42.319692zm-11.599232-6.271436c11.645707-2.973164 18.567171-10.475221 19.20532-20.816342.344542-5.583078-.903799-10.660964-4.62136-18.798488-1.647311-3.605844-3.278492-7.877488-3.62486-9.492542-1.246494-5.812131.234944-10.159803 2.012692-5.906827 1.23933 2.964911 2.5692 3.758285 5.929086 3.537198 1.805592-.118812 3.427288-2.28824 3.427288-4.584882 0-3.248415-2.63203-5.616647-6.24229-5.616647-4.902532 0-8.290622 2.774494-8.967723 7.343592-.254769 1.719192.117371 4.523245 1.200447 9.047849 4.598247 19.207546 4.412864 28.10284-.695212 33.362482-2.858414 2.943199-6.130028 4.343571-12.130108 5.192087-5.73056.810412-13.35495.02904-17.46759-1.790207-9.17076-4.056667-10.90676-13.77117-6.09053-34.082127 1.58786-6.69632 2.08969-9.924402 1.82352-11.730084-.67329-4.567648-4.06244-7.343592-8.96577-7.343592-2.25323 0-3.0764.318714-4.49999 1.742306-3.41188 3.411882-1.65732 8.390585 2.95694 8.390585 2.46907 0 3.74654-1.00469 4.79976-3.774867.8346-2.195136 2.06902-1.749466 2.32807.840508.32629 3.262312-1.0198 8.122544-4.15691 15.009052-5.34268 11.728071-6.03426 19.483295-2.39641 26.872814 3.11271 6.322808 8.44296 10.308248 16.78017 12.546525 4.3955 1.180053 14.86628 1.207918 19.39546.05161zm-8.07049-28.597624V33.624183h-2.98025v38.743399h2.98025zm-5.9605-.298027V33.624183h-2.98027V71.77153h2.98027zm11.92102 0V33.624183h-2.98025V71.77153h2.98025zm-18.02195-.447041-.1577-18.328608-1.8563-.180742c-1.61007-.156772-1.90527.04091-2.2254 1.49013-3.47248 15.72051-4.18414 23.24979-2.67395 28.290336.66793 2.22939 5.08245 7.057497 6.45292 7.057497.41663 0 .56662-5.971901.46036-18.328608zm24.814104 15.93832c1.782479-1.643023 2.829262-3.233547 3.348373-5.087659 1.140095-4.072019.409581-14.09997-1.626292-22.324668-1.68865-6.821868-1.705208-6.854601-3.466345-6.854601h-1.7696l-.15769 18.328608c-.10634 12.356707.0437 18.328609.46036 18.328609.3399 0 1.784905-1.075629 3.211126-2.390289z"
     id="path12" /></svg>
