<svg width="512" height="512" viewBox="0 0 135.467 135.467" xml:space="preserve" xmlns="http://www.w3.org/2000/svg"><path fill-rule="evenodd" d="M512 0A512 512 0 0 0 0 512v1024a512 512 0 0 0 512 512h1536V0Z" style="font-variation-settings:normal;-inkscape-stroke:none" transform="matrix(.06615 0 0 .06615 0 0)"/><path fill="#a000c0" d="M512 128a384 384 0 0 0-384 384v1024h1792V128Z" color="#000" style="fill:#ff15a8;fill-opacity:1" transform="matrix(.06615 0 0 .06615 0 0)"/><g style="-inkscape-font-specification:'Brandon Text, Medium';white-space:pre"><path fill="#fff" d="M4.213 426.987c0 .533.48 1.013 1.014 1.013h6.4c.533 0 1.013-.48 1.013-1.013V391.68c0-.533-.48-1.013-1.013-1.013h-6.4c-.534 0-1.014.48-1.014 1.013zm16.854 0c0 .533.48 1.013 1.013 1.013h6.347c.586 0 1.013-.48 1.013-1.013v-19.894h.053l20.747 20.854c.427.426.8.586 1.333.586h.534c.533 0 1.013-.32 1.013-.96V391.68c0-.533-.48-1.013-1.013-1.013h-6.4c-.587 0-1.014.48-1.014 1.013v18.933h-.053l-20.48-19.68c-.427-.426-.8-.8-1.333-.8h-.8c-.534 0-1.014.427-1.014.96zm38.346-17.6c0 10.666 8.587 19.146 19.254 19.146 4.746 0 9.333-1.653 12.96-5.173.373-.373.426-1.067.053-1.44l-4.16-4.427c-.32-.373-1.013-.373-1.387-.053-1.92 1.653-4.213 2.56-7.146 2.56-6.027 0-10.507-4.907-10.507-10.827 0-5.973 4.427-10.986 10.453-10.986 2.614 0 5.014.8 7.2 2.72a.934.934 0 0 0 1.334 0l4.16-4.32c.426-.427.426-1.067-.054-1.494-3.626-3.306-7.573-4.96-12.906-4.96a19.21 19.21 0 0 0-19.254 19.254zm38.347 17.6c0 .533.426 1.013 1.013 1.013h20.053c.587 0 1.014-.48 1.014-1.013v-5.814c0-.533-.427-1.013-1.014-1.013h-12.693v-28.48c0-.533-.48-1.013-1.013-1.013h-6.347c-.587 0-1.013.48-1.013 1.013zm26.133-12.64c0 8.106 6.773 14.186 15.147 14.186 8.426 0 15.253-6.08 15.253-14.186V391.68c0-.533-.48-1.013-1.013-1.013h-6.56c-.587 0-1.014.48-1.014 1.013v22.24c0 3.893-2.826 6.08-6.666 6.08-3.787 0-6.56-2.187-6.56-6.08v-22.24c0-.533-.427-1.013-1.014-1.013h-6.56c-.533 0-1.013.48-1.013 1.013zm49.067 14.186c7.84 0 12.586-5.546 12.586-11.04 0-7.253-6.08-9.866-10.773-12.16-3.733-1.813-5.813-3.2-5.813-4.96 0-1.546 1.013-2.933 3.253-2.933 2.827 0 5.973 2.027 7.2 2.88 1.067.64 1.973.213 2.347-.373l2.72-4.107c.213-.373.32-1.333-.32-1.707-1.6-1.173-5.867-4-11.414-4-8.213 0-12.32 5.334-12.32 10.614 0 6.4 5.174 9.28 10.347 11.786 3.52 1.707 5.493 3.147 5.493 5.387 0 1.867-1.546 3.2-3.68 3.2-3.36 0-6.08-1.92-7.573-2.933-.533-.374-1.387-.374-1.813.32l-2.454 4.32c-.373.693-.213 1.173.214 1.6 1.226 1.226 5.066 4.106 12 4.106zm18.88-1.546c0 .533.48 1.013 1.013 1.013h6.4c.533 0 1.013-.48 1.013-1.013V391.68c0-.533-.48-1.013-1.013-1.013h-6.4c-.533 0-1.013.48-1.013 1.013zm30.666-16.267h-.32l-8.8-19.467c-.106-.266-.48-.586-.906-.586h-7.094c-.8 0-1.226.693-.906 1.386l16.64 35.894c.16.32.48.586.906.586h.534c.426 0 .746-.266.906-.586l16.747-35.894c.32-.693-.107-1.386-.907-1.386h-7.093c-.427 0-.8.32-.907.586zm21.867 16.267c0 .533.48 1.013 1.013 1.013h6.4c.533 0 1.013-.48 1.013-1.013V391.68c0-.533-.48-1.013-1.013-1.013h-6.4c-.533 0-1.013.48-1.013 1.013zm22.666 0c0 .533.48 1.013 1.014 1.013h6.4c.533 0 1.013-.48 1.013-1.013v-28.48h7.627c.586 0 1.013-.48 1.013-1.014v-5.813c0-.533-.427-1.013-1.013-1.013h-23.68c-.587 0-1.014.48-1.014 1.013v5.813c0 .534.427 1.014 1.014 1.014h7.626zm30.294 0c0 .533.426 1.013 1.013 1.013h6.347c.533 0 1.013-.48 1.013-1.013v-17.014l11.947-17.76c.426-.693 0-1.546-.854-1.546h-6.933c-.48 0-.693.266-.853.48l-7.414 10.933-7.413-10.933c-.16-.214-.427-.48-.853-.48h-6.934c-.853 0-1.28.853-.853 1.546l11.787 17.814z" aria-label="INCLUSIVITY" color="#000" font-family="'Brandon Text'" font-size="53.333" font-weight="500" style="-inkscape-font-specification:'Brandon Text, Medium';-inkscape-stroke:none" transform="translate(25.131 10.232) scale(.26458)"/></g><path d="M40.321 92.34c-2.155-.94-4.89-4.023-5.412-6.102-.204-.815-.23-2.731-.058-4.259.558-4.953 4.859-7.091 7.982-3.968 1.317 1.316 1.48 1.872 1.152 3.921-.52 3.25.214 2.606 3.481-3.058 2.273-3.94 3.071-4.836 4.672-5.246 1.717-.44 2.544-1.549 7.449-9.983 3.034-5.218 5.517-10.074 5.517-10.791 0-3.206-7.192-6.836-9.465-4.779-1.976 1.788-3.436 1.15-3.087-1.351.26-1.867-.683-3.62-2.578-4.792-2.382-1.471-4.706-1.6-5.77-.318-.422.508-1.327.843-2.012.745-1.043-.149-1.245-.596-1.245-2.764 0-1.998-.32-2.846-1.408-3.728-1.684-1.365-4.42-1.489-5.45-.247-.972 1.171-2.924 1.147-3.38-.042-.804-2.094 8.978-10.048 17.136-13.933 6.25-2.977 10.738-4.175 17.259-4.611 5.783-.386 10.397.325 15.512 2.39 2.976 1.203 3.662 1.302 4.232.615.375-.452 1.206-.821 1.846-.821.929 0 1.128.35.984 1.724-.153 1.462.299 2.103 2.965 4.21 5.891 4.658 10.149 11.592 12.777 20.813 1.72 6.033 1.86 17.908.29 24.548-1.33 5.63-1.83 6.49-3.25 5.593-.75-.473-1.007-1.263-.88-2.7.348-3.904-4.713-6.432-7.617-3.805-.97.878-1.355.939-2.09.33-.556-.463-.769-1.268-.556-2.115.973-3.878-5.728-7.453-8.785-4.686-1.617 1.463-3.084.62-2.618-1.503.71-3.227-4.919-7.768-8.471-6.837-.607.16-3.506 4.497-6.794 10.164-5.198 8.962-5.677 10.04-5.116 11.524.67 1.776-.517 4.586-4.715 11.16-3.114 4.877-7.932 6.69-12.497 4.702zm6.77-2.977c1.627-.842 7.362-9.712 7.502-11.603.045-.605-.378-.984-1.097-.984-.833 0-1.998 1.412-4.056 4.917-3.2 5.452-4.688 6.392-7.351 4.648-1.242-.814-1.509-1.423-1.403-3.198.188-3.177.063-3.683-.91-3.683-2.085 0-2.825 4.915-1.129 7.502 1.936 2.956 5.444 3.953 8.444 2.4zm54.722-26.389c.77-8.21-.572-16.187-3.937-23.417-.978-2.099-1.883-3.71-2.012-3.578-.13.13.04 1.714.376 3.518.818 4.383.196 14.056-1.296 20.169-1.454 5.959-1.44 5.476-.166 5.495.574.008 2.117.523 3.43 1.144 1.311.621 2.563 1.151 2.781 1.178.219.026.59-2.003.824-4.509zm-9.247-6.262c1.992-9.652 1.322-18.958-1.787-24.846l-1.168-2.21-.026 2.858c-.04 4.274-1.616 11.133-4.263 18.553-1.3 3.642-2.422 6.874-2.493 7.182-.071.308.81.728 1.958.933 2.436.436 4.256 1.342 5.353 2.664.43.518.892.831 1.028.696.135-.136.764-2.759 1.398-5.83zm-10.62-4.689c2.391-6.13 4.11-12.9 4.464-17.593.329-4.351-.123-8.667-.905-8.632-.23.01-1.148 1.218-2.037 2.684-.89 1.466-1.905 2.665-2.256 2.665-1.235 0-1.354-1.921-.253-4.08.612-1.2 1.21-2.384 1.327-2.63.402-.84-1.89-.45-4.343.738-3.918 1.897-10.076 7.34-15.008 13.266l-4.57 5.49 1.73.739c.95.406 2.045.75 2.431.765.387.015 1.703.97 2.925 2.122 1.222 1.153 2.288 2.025 2.368 1.939.081-.086 1.94-3.244 4.133-7.016 4.4-7.574 5.253-8.683 6.217-8.088 1.218.753.662 2.264-3.522 9.579-2.296 4.014-4.175 7.469-4.175 7.676 0 .207.682.376 1.515.376 1.97 0 6.045 2.09 6.973 3.578.909 1.455 1.123 1.198 2.986-3.578zm-19.738-17.34c3.973-4.523 7.677-7.866 12.14-10.956l2.387-1.652-3.034.321c-6.887.729-15.086 4.91-21.928 11.185l-4.087 3.746 2.494 1.174c1.371.646 3.064 1.945 3.762 2.889l1.268 1.715 1.516-1.953c.834-1.074 3.3-3.985 5.482-6.468zm-14.444-1.456c4.897-4.77 9.312-7.953 14.06-10.136 2.296-1.056 4.846-2.231 5.666-2.612 2.18-1.011-5.766-.368-10.438.845-4.445 1.154-12.16 4.905-16.083 7.82-2.715 2.017-2.865 2.253-1.808 2.847.633.356 1.966 1.485 2.96 2.51.995 1.024 1.912 1.896 2.038 1.938.126.042 1.749-1.404 3.605-3.212z"/></svg>