<?xml version="1.0" encoding="UTF-8" standalone="no"?>
<svg
   width="2048"
   height="2048"
   viewBox="0 0 542 542"
   version="1.1"
   id="svg16"
   sodipodi:docname="l.svg"
   inkscape:version="1.2 (dc2aedaf03, 2022-05-15)"
   xml:space="preserve"
   inkscape:export-filename="automation.png"
   inkscape:export-xdpi="96"
   inkscape:export-ydpi="96"
   xmlns:inkscape="http://www.inkscape.org/namespaces/inkscape"
   xmlns:sodipodi="http://sodipodi.sourceforge.net/DTD/sodipodi-0.dtd"
   xmlns="http://www.w3.org/2000/svg"
   xmlns:svg="http://www.w3.org/2000/svg"><defs
     id="defs20"><rect
       x="346.26527"
       y="1640.6378"
       width="1701.7347"
       height="321.53204"
       id="rect414" /><rect
       x="127.99995"
       y="1536"
       width="1648.6707"
       height="512.00001"
       id="rect1008" /><rect
       x="197.86587"
       y="1536"
       width="1298.4948"
       height="364.33679"
       id="rect910" /><rect
       x="127.99995"
       y="1536"
       width="1806.8724"
       height="508.09906"
       id="rect259" /></defs><sodipodi:namedview
     id="namedview18"
     pagecolor="#505050"
     bordercolor="#eeeeee"
     borderopacity="1"
     inkscape:showpageshadow="0"
     inkscape:pageopacity="0"
     inkscape:pagecheckerboard="0"
     inkscape:deskcolor="#505050"
     showgrid="false"
     inkscape:zoom="0.24258858"
     inkscape:cx="906.88523"
     inkscape:cy="1034.6736"
     inkscape:window-width="1366"
     inkscape:window-height="705"
     inkscape:window-x="-8"
     inkscape:window-y="-8"
     inkscape:window-maximized="1"
     inkscape:current-layer="svg16" /><path
     fill-rule="evenodd"
     d="M512 0A512 512 0 0 0 0 512v1024a512 512 0 0 0 512 512h1536V0Z"
     style="font-variation-settings:normal;-inkscape-stroke:none"
     transform="matrix(1.0002461,0,0,1.0002461,-1.3224987e-5,-1.3224987e-5) scale(0.26458333)"
     id="path2" /><path
     fill="#a000c0"
     d="M512 128a384 384 0 0 0-384 384v1024h1792V128Z"
     color="#000"
     style="fill:#ffffff;fill-opacity:1"
     id="path4"
     transform="matrix(1.0002461,0,0,1.0002461,-1.3224987e-5,-1.3224987e-5) scale(0.26458333)" /></svg>
