<svg width="512" height="512" viewBox="0 0 135.467 135.467" xml:space="preserve" xmlns="http://www.w3.org/2000/svg"><path fill-rule="evenodd" d="M406 0a135 135 0 0 1 136 135v271a135 135 0 0 1-136 136H0V0Z" style="font-variation-settings:normal;-inkscape-stroke:none" transform="matrix(.24994 0 0 .24994 0 0)"/><path fill="#ffc000" d="M406 34a102 102 0 0 1 102 101v271H34V34Z" color="#000" style="fill:#894efa;fill-opacity:1" transform="matrix(.24994 0 0 .24994 0 0)"/><g style="-inkscape-font-specification:'Brandon Text, Medium';white-space:pre"><path fill="#fff" d="M4.213 426.987c0 .533.48 1.013 1.014 1.013h6.346c.587 0 1.014-.48 1.014-1.013v-19.894h.053l20.747 20.854c.426.426.8.586 1.333.586h.533c.534 0 1.014-.32 1.014-.96V391.68c0-.533-.48-1.013-1.014-1.013h-6.4c-.586 0-1.013.48-1.013 1.013v18.933h-.053l-20.48-19.68c-.427-.426-.8-.8-1.334-.8h-.8c-.533 0-1.013.427-1.013.96zm38.347-17.6c0 10.666 8.48 19.146 19.147 19.146 10.666 0 19.2-8.48 19.2-19.146 0-10.667-8.534-19.254-19.2-19.254-10.667 0-19.147 8.587-19.147 19.254zm8.533 0c0-5.867 4.8-10.72 10.614-10.72 5.866 0 10.666 4.853 10.666 10.72 0 5.813-4.8 10.613-10.666 10.613-5.814 0-10.614-4.8-10.614-10.613zM100 410.72h-.32l-8.8-19.467c-.107-.266-.48-.586-.907-.586H82.88c-.8 0-1.227.693-.907 1.386l16.64 35.894c.16.32.48.586.907.586h.533c.427 0 .747-.266.907-.586l16.746-35.894c.32-.693-.106-1.386-.906-1.386h-7.094c-.426 0-.8.32-.906.586zm21.866 16.267c0 .533.427 1.013 1.014 1.013h22.08c.586 0 1.013-.48 1.013-1.013v-5.814c0-.533-.427-1.013-1.013-1.013h-14.774v-7.2h12.16c.534 0 1.014-.427 1.014-1.013v-5.814c0-.533-.48-1.013-1.014-1.013h-12.16v-6.613h14.774c.586 0 1.013-.48 1.013-1.014v-5.813c0-.533-.427-1.013-1.013-1.013h-22.08c-.587 0-1.014.48-1.014 1.013zm30.827 0c0 .533.427 1.013 1.013 1.013h20.054c.586 0 1.013-.48 1.013-1.013v-5.814c0-.533-.427-1.013-1.013-1.013h-12.694v-28.48c0-.533-.48-1.013-1.013-1.013h-6.347c-.586 0-1.013.48-1.013 1.013zm30.826 0c0 .533.48 1.013 1.014 1.013h6.4c.533 0 1.013-.48 1.013-1.013v-28.48h7.627c.586 0 1.013-.48 1.013-1.014v-5.813c0-.533-.427-1.013-1.013-1.013h-23.68c-.587 0-1.013.48-1.013 1.013v5.813c0 .534.426 1.014 1.013 1.014h7.626zm30.294 0c0 .533.426 1.013 1.013 1.013h6.347c.533 0 1.013-.48 1.013-1.013v-17.014l11.947-17.76c.426-.693 0-1.546-.854-1.546h-6.933c-.48 0-.693.266-.853.48l-7.414 10.933-7.413-10.933c-.16-.214-.427-.48-.853-.48h-6.934c-.853 0-1.28.853-.853 1.546l11.787 17.814z" aria-label="NOVELTY" color="#000" font-family="'Brandon Text'" font-size="53.333" font-weight="500" style="-inkscape-font-specification:'Brandon Text, Medium';-inkscape-stroke:none" transform="translate(36.187 10.169) scale(.26458)"/></g><path d="M70.008 92.003c-6.087-1.617-11.839-4.703-16.712-8.968l-4.237-3.707H28.172l-2.258-2.258c-2.899-2.899-3.06-6.767-.41-9.847 1.674-1.947 2.417-2.176 7.918-2.444 6.574-.32 8.002-.954 8.002-3.546 0-3.003-1.426-3.536-9.463-3.536-5.143 0-8.313-.364-9.78-1.122-4.393-2.272-4.984-8.92-1.066-12.002 1.756-1.38 3.125-1.554 12.284-1.554 10.142 0 10.327-.031 11.572-1.931 1.173-1.79 1.173-2.074 0-3.863-.73-1.115-2.001-1.931-3.007-1.931-4.371 0-7.729-5.744-5.916-10.12 1.696-4.093 3.16-4.559 14.363-4.559 8.053 0 11.215-.324 15.086-1.548 14.772-4.672 29.083-1.598 39.605 8.506 10.96 10.525 14.63 25.497 9.735 39.718-6.325 18.376-26.603 29.554-44.83 24.712zm18.141-3.558c12.476-3.145 23.2-15.337 25.012-28.436 3.664-26.485-21.92-46.59-47.708-37.49-2.374.837-6.364 1.187-13.55 1.187-11.733 0-13.062.49-12.664 4.669.224 2.358.615 2.784 3.344 3.65 6.285 1.994 8.33 7.235 4.566 11.707l-2 2.377H34.936c-10.322 0-12.098.422-13.002 3.09-.216.638-.114 1.91.228 2.83.58 1.559 1.222 1.687 9.624 1.93 8.764.255 9.052.32 10.865 2.43 2.451 2.852 2.463 6.705.028 9.536-1.659 1.928-2.457 2.174-8.29 2.554-6.169.401-6.486.513-7.19 2.52-.582 1.664-.439 2.43.684 3.67 1.295 1.431 2.348 1.569 11.995 1.569h10.576l4.562 3.993c9.722 8.51 20.936 11.29 33.133 8.214zm-17.755-3.97c-8.767-2.921-15.628-8.754-19.445-16.53-1.997-4.07-2.186-5.187-2.186-12.952 0-7.603.218-8.963 2.07-12.915 10.962-23.387 43.872-23.856 55.274-.787 2.786 5.638 2.914 6.238 2.914 13.662 0 6.82-.254 8.307-2.083 12.21-2.862 6.107-9.028 12.416-15.016 15.364-4.08 2.008-5.986 2.448-11.657 2.69-4.335.184-7.895-.084-9.87-.742zm6.713-4.947c.164-1.975.653-2.97 1.542-3.138 1.006-.19 1.358.424 1.545 2.698.24 2.914.274 2.942 3.321 2.753 4.202-.26 10.856-3.66 14.71-7.514 3.855-3.855 7.254-10.508 7.515-14.71.189-3.048.161-3.081-2.753-3.321-2.274-.188-2.888-.54-2.698-1.545.17-.898 1.17-1.379 3.214-1.547 2.964-.244 2.966-.247 2.47-3.09-1.904-10.916-11.91-20.835-22.478-22.284l-3.444-.472v3.252c0 2.68-.238 3.207-1.352 2.996-.945-.18-1.424-1.127-1.592-3.147-.205-2.47-.51-2.89-2.095-2.89-1.021 0-3.868.751-6.327 1.67-8.386 3.133-17.218 14.353-17.218 21.874 0 1.586.42 1.89 2.89 2.095 2.02.168 2.968.647 3.147 1.592.211 1.114-.316 1.352-2.995 1.352h-3.252l.476 3.472C53.05 69.23 60.998 78.17 71 81.297c5.273 1.648 5.836 1.485 6.106-1.77zm-15.232-5.642c-.567-.917-.748-.646 5.808-8.69 4.66-5.72 4.91-6.235 4.968-10.266.057-4.005-.124-4.425-3.223-7.466-1.805-1.772-3.283-3.65-3.283-4.174 0-2.341 1.982-1.715 5.482 1.733 3.405 3.354 4.099 3.71 6.856 3.51 2.43-.175 3.474.185 5.022 1.732 2.752 2.752 2.604 6.128-.4 9.132-1.982 1.982-2.773 2.285-5.012 1.922-2.561-.416-2.87-.18-8.514 6.471-5.846 6.89-6.764 7.617-7.704 6.096zm19.28-16.63c2.333-2.334.99-5.74-2.263-5.74-4.667 0-4.532 6.81.138 6.93.5.013 1.457-.523 2.124-1.19zM23.06 34.004c-1.273-.512-3.267-4.381-3.267-6.338 0-.838.9-2.594 2-3.901 2.533-3.01 6.198-3.225 9.313-.546 5.79 4.98-.736 13.726-8.046 10.785zm5.849-3.5c1.97-1.97.581-6.026-2.064-6.026-1.445 0-3.962 2.25-3.962 3.541 0 2.646 4.153 4.358 6.026 2.485z"/></svg>