<svg xmlns="http://www.w3.org/2000/svg" width="512" height="512" viewBox="0 0 135.46666 135.46667">
  <path fill-rule="evenodd" d="M16.933335 0H118.53333c9.38107 0 16.93333 7.5522663 16.93333 16.933332V118.53333c0 9.38106-7.55226 16.93333-16.93333 16.93333H16.933335c-9.381066 0-16.93333227-7.55227-16.93333227-16.93333V16.933332C.00000273 7.5522663 7.552269 0 16.933335 0Z" color="#000" style="-inkscape-stroke:none"/>
  <path fill="#894efa" fill-rule="evenodd" d="M16.933332 8.5685921H118.53333c4.69054 0 8.46667 3.7761329 8.46667 8.4666659v84.666662c0 4.69054-3.77613 8.46667-8.46667 8.46667H16.933332c-4.690533 0-8.4666658-3.77613-8.4666658-8.46667V17.035258c0-4.690533 3.7761328-8.4666659 8.4666658-8.4666659z" color="#000" style="-inkscape-stroke:none"/>
  <path fill-rule="evenodd" d="M8.4666689 101.60001H127c4.69053 0 8.46666 3.77614 8.46666 8.46667v8.46667c0 4.69053-3.77613 8.46666-8.46666 8.46666H8.4666689c-4.690533 0-8.46666617-3.77613-8.46666617-8.46666v-8.46667c0-4.69053 3.77613317-8.46667 8.46666617-8.46667z" color="#000" style="-inkscape-stroke:none"/>
  <g style="-inkscape-font-specification:'Brandon Text, Medium';white-space:pre">
    <path fill="#fff" d="M4.2133308 426.98664c0 .53333.4799997 1.01333 1.0133328 1.01333h6.3466624c.586667 0 1.013333-.48 1.013333-1.01333v-19.89332h.05333l20.746655 20.85332c.426666.42667.799999.58667 1.333332.58667h.533333c.533333 0 1.013333-.32 1.013333-.96V391.68c0-.53334-.48-1.01334-1.013333-1.01334h-6.399996c-.586666 0-1.013333.48-1.013333 1.01334v18.93332h-.05333L7.3066623 390.93333c-.4266664-.42667-.7999995-.8-1.3333325-.8h-.7999996c-.533333 0-1.0133327.42667-1.0133327.96zm38.3465832-17.59999c0 10.66666 8.479995 19.14666 19.146656 19.14666 10.66666 0 19.199988-8.48 19.199988-19.14666s-8.533328-19.25332-19.199988-19.25332c-10.666661 0-19.146656 8.58666-19.146656 19.25332zm8.533329 0c0-5.86666 4.799997-10.71999 10.613327-10.71999 5.866663 0 10.66666 4.85333 10.66666 10.71999 0 5.81333-4.799997 10.61333-10.66666 10.61333-5.81333 0-10.613327-4.8-10.613327-10.61333zm48.906527 1.33333h-.32l-8.799995-19.46665c-.106666-.26667-.479999-.58667-.906666-.58667H82.87978c-.799999 0-1.226666.69334-.906666 1.38667l16.63999 35.89331c.16.32.48.58667.906666.58667h.53333c.42667 0 .74667-.26667.90667-.58667l16.74666-35.89331c.32-.69333-.10667-1.38667-.90667-1.38667h-7.09333c-.42667 0-.8.32-.90667.58667zm21.86659 16.26666c0 .53333.42667 1.01333 1.01333 1.01333h22.07999c.58667 0 1.01333-.48 1.01333-1.01333v-5.81333c0-.53333-.42666-1.01333-1.01333-1.01333h-14.77332v-7.2h12.15999c.53333 0 1.01333-.42666 1.01333-1.01333v-5.81333c0-.53333-.48-1.01333-1.01333-1.01333h-12.15999v-6.61333h14.77332c.58667 0 1.01333-.48 1.01333-1.01333V391.68c0-.53334-.42666-1.01334-1.01333-1.01334h-22.07999c-.58666 0-1.01333.48-1.01333 1.01334zm30.8266 0c0 .53333.42667 1.01333 1.01333 1.01333h20.05332c.58667 0 1.01334-.48 1.01334-1.01333v-5.81333c0-.53333-.42667-1.01333-1.01334-1.01333h-12.69332V391.68c0-.53334-.48-1.01334-1.01333-1.01334h-6.34667c-.58666 0-1.01333.48-1.01333 1.01334zm30.82654 0c0 .53333.48 1.01333 1.01334 1.01333h6.39999c.53334 0 1.01334-.48 1.01334-1.01333v-28.47998h7.62666c.58666 0 1.01333-.48 1.01333-1.01333V391.68c0-.53334-.42667-1.01334-1.01333-1.01334h-23.67999c-.58666 0-1.01333.48-1.01333 1.01334v5.81333c0 .53333.42667 1.01333 1.01333 1.01333h7.62666zm30.29324 0c0 .53333.42667 1.01333 1.01333 1.01333h6.34667c.53333 0 1.01333-.48 1.01333-1.01333v-17.01332l11.94666-17.75999c.42667-.69333 0-1.54667-.85333-1.54667h-6.93333c-.48 0-.69334.26667-.85334.48l-7.41333 10.93333-7.41332-10.93333c-.16-.21333-.42667-.48-.85334-.48h-6.93333c-.85333 0-1.28.85334-.85333 1.54667l11.78666 17.81332z" aria-label="NOVELTY" color="#000" font-family="Brandon Text" font-size="53.3333px" font-weight="500" style="-inkscape-font-specification:'Brandon Text, Medium';-inkscape-stroke:none" transform="translate(36.187048 6.8438898) scale(.26458)"/>
  </g>
  <path d="M70.007788 92.003332c-6.087012-1.616985-11.838356-4.703272-16.711753-8.96787l-4.236628-3.707377H28.171995l-2.258181-2.25818c-2.898535-2.898537-3.059709-6.766793-.410263-9.846949 1.674545-1.94679 2.417403-2.17609 7.918486-2.444263 6.573475-.320451 8.001921-.95333 8.001921-3.545281 0-3.003642-1.425471-3.536325-9.463303-3.536325-5.14301 0-8.31268-.363769-9.779657-1.122373-4.393483-2.271958-4.983783-8.919387-1.065733-12.001319 1.755921-1.381205 3.12517-1.554485 12.28344-1.554485 10.14191 0 10.327541-.03098 11.572705-1.93134 1.172258-1.789093 1.172258-2.073585 0-3.862678-.73042-1.114761-2.001833-1.931339-3.007097-1.931339-4.371274 0-7.729175-5.743081-5.916545-10.119164 1.695741-4.093879 3.161174-4.559012 14.36342-4.559012 8.052928 0 11.214994-.324623 15.085689-1.548716 14.772125-4.671631 29.083012-1.598006 39.605603 8.506302 10.96035 10.52467 14.6298 25.496557 9.73456 39.718457-6.3249 18.375375-26.603053 29.553612-44.829252 24.711912zm18.141659-3.558159c12.475913-3.1453 23.199933-15.337516 25.011963-28.436272 3.66375-26.484449-21.920565-46.589041-47.708832-37.490415-2.373785.837521-6.36313 1.187032-13.54886 1.187032-11.733458 0-13.062566.49001-12.665041 4.669315.224272 2.35774.615107 2.784346 3.344086 3.65006 6.285212 1.993857 8.329618 7.235117 4.56654 11.70728l-2.000012 2.376879H34.936385c-10.322534 0-12.098427.422051-13.002637 3.090142-.216067.637344-.113289 1.910528.228329 2.829302.579673 1.559091 1.221479 1.687896 9.62376 1.931341 8.764219.253937 9.052023.318255 10.865445 2.428391 2.451207 2.852282 2.462317 6.705965.02745 9.536617-1.658599 1.928234-2.456562 2.174077-8.289222 2.55382-6.169313.401659-6.486404.512852-7.189803 2.521267-.5823 1.662663-.439666 2.428362.683603 3.669545 1.294813 1.430756 2.347974 1.568466 11.99501 1.568466h10.575571l4.562281 3.993114c9.722286 8.509389 20.935491 11.289278 33.133173 8.214116zm-17.75539-3.9701C61.627 81.553537 54.766024 75.721024 50.949241 67.945056c-1.997465-4.069458-2.18619-5.187544-2.18619-12.951845 0-7.602802.218081-8.963179 2.070439-12.9153 10.961528-23.387093 43.87189-23.855572 55.27309-.786811 2.78631 5.637709 2.91427 6.237598 2.91427 13.662045 0 6.819573-.25367 8.30673-2.08267 12.209546-2.86218 6.107498-9.027769 12.415836-15.016327 15.363987-4.079087 2.008129-5.985566 2.44798-11.657149 2.689466-4.334632.184562-7.895184-.08278-9.870647-.741071zm6.713053-4.947427c.163744-1.97423.652677-2.968785 1.542265-3.137268 1.005907-.190518 1.35773.423716 1.545069 2.69745.240127 2.914392.273676 2.942203 3.320509 2.753139 4.202433-.260769 10.85602-3.659326 14.710729-7.514034 3.854708-3.854705 7.253258-10.508289 7.514038-14.710721.18905-3.046832.16126-3.080378-2.75315-3.320507-2.27373-.187336-2.88796-.539162-2.69744-1.545069.16993-.897217 1.16986-1.378517 3.21364-1.546816 2.96386-.244068 2.96643-.247279 2.47044-3.090142-1.90455-10.916161-11.910119-20.834892-22.478541-22.283453l-3.443915-.472041v3.251794c0 2.679525-.237936 3.206706-1.351935 2.995591-.944831-.179055-1.42414-1.126646-1.591709-3.146791-.204913-2.47031-.509576-2.890583-2.095493-2.890583-1.020651 0-3.867704.751771-6.326786 1.670601-8.386158 3.133465-17.217906 14.353551-17.217906 21.874083 0 1.585917.42027 1.890586 2.890585 2.095493 2.020145.167569 2.967738.646877 3.14679 1.591708.211103 1.114013-.316065 1.351935-2.995591 1.351935h-3.251795l.47584 3.471636c1.316776 9.606917 9.265202 18.54754 19.268547 21.67382 5.272592 1.647804 5.835866 1.484536 6.105809-1.769825zm-15.231864-5.64115c-.567202-.917752-.748296-.646735 5.807553-8.691367 4.660808-5.719244 4.91005-6.234245 4.967929-10.265076.05749-4.005053-.123742-4.424961-3.22234-7.465755-1.805805-1.772107-3.283281-3.650577-3.283281-4.174376 0-2.340937 1.98142-1.714485 5.481628 1.73309 3.405361 3.354156 4.099113 3.709323 6.856551 3.510229 2.429966-.175452 3.47407.184708 5.021535 1.73218 2.751803 2.751802 2.604013 6.127654-.399762 9.131427-1.982079 1.982082-2.772896 2.285379-5.011609 1.922086-2.561405-.415657-2.871338-.180095-8.514496 6.471287-5.845821 6.890261-6.763958 7.61682-7.703708 6.096275zm19.279131-16.630857c2.333381-2.333379.990843-5.738838-2.262427-5.738838-4.667258 0-4.531705 6.808847.137962 6.929331.500769.01285 1.456784-.522803 2.124473-1.190493zM23.059981 34.003964c-1.272779-.5121-3.267016-4.380996-3.267016-6.338131 0-.838289.9-2.593757 1.999989-3.901043 2.532828-3.010079 6.198447-3.224847 9.313196-.545655 5.789166 4.97963-.736179 13.725984-8.046169 10.784829zm5.848895-3.500133c1.970049-1.970046.581085-6.025778-2.063639-6.025778-1.444931 0-3.962138 2.249628-3.962138 3.540962 0 2.645815 4.152452 4.358138 6.025777 2.484816z"/>
</svg>
