<?xml version="1.0" encoding="UTF-8" standalone="no"?>
<svg
   width="512"
   height="512"
   viewBox="0 0 135.46666 135.46667"
   version="1.1"
   id="svg14"
   sodipodi:docname="novelty.svg"
   xml:space="preserve"
   inkscape:version="1.2 (dc2aedaf03, 2022-05-15)"
   xmlns:inkscape="http://www.inkscape.org/namespaces/inkscape"
   xmlns:sodipodi="http://sodipodi.sourceforge.net/DTD/sodipodi-0.dtd"
   xmlns="http://www.w3.org/2000/svg"
   xmlns:svg="http://www.w3.org/2000/svg"><defs
     id="defs18"><rect
       x="128.47232"
       y="1534.1107"
       width="1703.2304"
       height="420.79972"
       id="rect377" /><rect
       x="128.47232"
       y="1534.1107"
       width="1442.088"
       height="411.57035"
       id="rect6519" /><rect
       x="458.85301"
       y="1631.1052"
       width="1235.8888"
       height="318.18275"
       id="rect353" /><rect
       x="128.47232"
       y="1534.1107"
       width="1919.5277"
       height="513.8893"
       id="rect358" /><path
       id="a"
       d="M128 1536h1841v529H128z" /></defs><sodipodi:namedview
     id="namedview16"
     pagecolor="#505050"
     bordercolor="#eeeeee"
     borderopacity="1"
     inkscape:showpageshadow="0"
     inkscape:pageopacity="0"
     inkscape:pagecheckerboard="0"
     inkscape:deskcolor="#505050"
     showgrid="false"
     inkscape:zoom="0.83039936"
     inkscape:cx="105.37099"
     inkscape:cy="257.70733"
     inkscape:window-width="1366"
     inkscape:window-height="705"
     inkscape:window-x="-8"
     inkscape:window-y="-8"
     inkscape:window-maximized="1"
     inkscape:current-layer="g318" /><g
     id="g318"
     transform="matrix(0.24993507,0,0,0.24993507,4.6222024e-4,9.2506936e-4)"><path
       fill-rule="evenodd"
       d="M 406,0 A 135,135 0 0 1 542,135 V 406 A 135,135 0 0 1 406,542 H 0 V 0 Z"
       style="font-variation-settings:normal;-inkscape-stroke:none"
       id="path5" /><path
       fill="#ffc000"
       d="M 406,34 A 102,102 0 0 1 508,135 V 406 H 34 V 34 Z"
       color="#000000"
       style="fill:#894efa;fill-opacity:1"
       id="path7" /></g><g
     style="-inkscape-font-specification:'Brandon Text, Medium';white-space:pre"
     id="g10"
     transform="translate(0,3.3248486)"><path
       fill="#ffffff"
       d="m 4.2133308,426.98664 c 0,0.53333 0.4799997,1.01333 1.0133328,1.01333 h 6.3466624 c 0.586667,0 1.013333,-0.48 1.013333,-1.01333 v -19.89332 h 0.05333 l 20.746655,20.85332 c 0.426666,0.42667 0.799999,0.58667 1.333332,0.58667 h 0.533333 c 0.533333,0 1.013333,-0.32 1.013333,-0.96 V 391.68 c 0,-0.53334 -0.48,-1.01334 -1.013333,-1.01334 h -6.399996 c -0.586666,0 -1.013333,0.48 -1.013333,1.01334 v 18.93332 H 27.78665 L 7.3066623,390.93333 c -0.4266664,-0.42667 -0.7999995,-0.8 -1.3333325,-0.8 H 5.1733302 c -0.533333,0 -1.0133327,0.42667 -1.0133327,0.96 z M 42.559914,409.38665 c 0,10.66666 8.479995,19.14666 19.146656,19.14666 10.66666,0 19.199988,-8.48 19.199988,-19.14666 0,-10.66666 -8.533328,-19.25332 -19.199988,-19.25332 -10.666661,0 -19.146656,8.58666 -19.146656,19.25332 z m 8.533329,0 c 0,-5.86666 4.799997,-10.71999 10.613327,-10.71999 5.866663,0 10.66666,4.85333 10.66666,10.71999 0,5.81333 -4.799997,10.61333 -10.66666,10.61333 -5.81333,0 -10.613327,-4.8 -10.613327,-10.61333 z m 48.906527,1.33333 h -0.32 l -8.799995,-19.46665 c -0.106666,-0.26667 -0.479999,-0.58667 -0.906666,-0.58667 H 82.87978 c -0.799999,0 -1.226666,0.69334 -0.906666,1.38667 l 16.63999,35.89331 c 0.16,0.32 0.48,0.58667 0.906666,0.58667 h 0.53333 c 0.42667,0 0.74667,-0.26667 0.90667,-0.58667 l 16.74666,-35.89331 c 0.32,-0.69333 -0.10667,-1.38667 -0.90667,-1.38667 h -7.09333 c -0.42667,0 -0.8,0.32 -0.90667,0.58667 z m 21.86659,16.26666 c 0,0.53333 0.42667,1.01333 1.01333,1.01333 h 22.07999 c 0.58667,0 1.01333,-0.48 1.01333,-1.01333 v -5.81333 c 0,-0.53333 -0.42666,-1.01333 -1.01333,-1.01333 h -14.77332 v -7.2 h 12.15999 c 0.53333,0 1.01333,-0.42666 1.01333,-1.01333 v -5.81333 c 0,-0.53333 -0.48,-1.01333 -1.01333,-1.01333 h -12.15999 v -6.61333 h 14.77332 c 0.58667,0 1.01333,-0.48 1.01333,-1.01333 V 391.68 c 0,-0.53334 -0.42666,-1.01334 -1.01333,-1.01334 h -22.07999 c -0.58666,0 -1.01333,0.48 -1.01333,1.01334 z m 30.8266,0 c 0,0.53333 0.42667,1.01333 1.01333,1.01333 h 20.05332 c 0.58667,0 1.01334,-0.48 1.01334,-1.01333 v -5.81333 c 0,-0.53333 -0.42667,-1.01333 -1.01334,-1.01333 H 161.06629 V 391.68 c 0,-0.53334 -0.48,-1.01334 -1.01333,-1.01334 h -6.34667 c -0.58666,0 -1.01333,0.48 -1.01333,1.01334 z m 30.82654,0 c 0,0.53333 0.48,1.01333 1.01334,1.01333 h 6.39999 c 0.53334,0 1.01334,-0.48 1.01334,-1.01333 v -28.47998 h 7.62666 c 0.58666,0 1.01333,-0.48 1.01333,-1.01333 V 391.68 c 0,-0.53334 -0.42667,-1.01334 -1.01333,-1.01334 h -23.67999 c -0.58666,0 -1.01333,0.48 -1.01333,1.01334 v 5.81333 c 0,0.53333 0.42667,1.01333 1.01333,1.01333 h 7.62666 z m 30.29324,0 c 0,0.53333 0.42667,1.01333 1.01333,1.01333 h 6.34667 c 0.53333,0 1.01333,-0.48 1.01333,-1.01333 v -17.01332 l 11.94666,-17.75999 c 0.42667,-0.69333 0,-1.54667 -0.85333,-1.54667 h -6.93333 c -0.48,0 -0.69334,0.26667 -0.85334,0.48 l -7.41333,10.93333 -7.41332,-10.93333 c -0.16,-0.21333 -0.42667,-0.48 -0.85334,-0.48 h -6.93333 c -0.85333,0 -1.28,0.85334 -0.85333,1.54667 l 11.78666,17.81332 z"
       aria-label="NOVELTY"
       color="#000000"
       font-family="'Brandon Text'"
       font-size="53.3333px"
       font-weight="500"
       style="-inkscape-font-specification:'Brandon Text, Medium';-inkscape-stroke:none"
       transform="matrix(0.26458,0,0,0.26458,36.187048,6.8438898)"
       id="path8" /></g><path
     d="M70.007788 92.003332c-6.087012-1.616985-11.838356-4.703272-16.711753-8.96787l-4.236628-3.707377H28.171995l-2.258181-2.25818c-2.898535-2.898537-3.059709-6.766793-.410263-9.846949 1.674545-1.94679 2.417403-2.17609 7.918486-2.444263 6.573475-.320451 8.001921-.95333 8.001921-3.545281 0-3.003642-1.425471-3.536325-9.463303-3.536325-5.14301 0-8.31268-.363769-9.779657-1.122373-4.393483-2.271958-4.983783-8.919387-1.065733-12.001319 1.755921-1.381205 3.12517-1.554485 12.28344-1.554485 10.14191 0 10.327541-.03098 11.572705-1.93134 1.172258-1.789093 1.172258-2.073585 0-3.862678-.73042-1.114761-2.001833-1.931339-3.007097-1.931339-4.371274 0-7.729175-5.743081-5.916545-10.119164 1.695741-4.093879 3.161174-4.559012 14.36342-4.559012 8.052928 0 11.214994-.324623 15.085689-1.548716 14.772125-4.671631 29.083012-1.598006 39.605603 8.506302 10.96035 10.52467 14.6298 25.496557 9.73456 39.718457-6.3249 18.375375-26.603053 29.553612-44.829252 24.711912zm18.141659-3.558159c12.475913-3.1453 23.199933-15.337516 25.011963-28.436272 3.66375-26.484449-21.920565-46.589041-47.708832-37.490415-2.373785.837521-6.36313 1.187032-13.54886 1.187032-11.733458 0-13.062566.49001-12.665041 4.669315.224272 2.35774.615107 2.784346 3.344086 3.65006 6.285212 1.993857 8.329618 7.235117 4.56654 11.70728l-2.000012 2.376879H34.936385c-10.322534 0-12.098427.422051-13.002637 3.090142-.216067.637344-.113289 1.910528.228329 2.829302.579673 1.559091 1.221479 1.687896 9.62376 1.931341 8.764219.253937 9.052023.318255 10.865445 2.428391 2.451207 2.852282 2.462317 6.705965.02745 9.536617-1.658599 1.928234-2.456562 2.174077-8.289222 2.55382-6.169313.401659-6.486404.512852-7.189803 2.521267-.5823 1.662663-.439666 2.428362.683603 3.669545 1.294813 1.430756 2.347974 1.568466 11.99501 1.568466h10.575571l4.562281 3.993114c9.722286 8.509389 20.935491 11.289278 33.133173 8.214116zm-17.75539-3.9701C61.627 81.553537 54.766024 75.721024 50.949241 67.945056c-1.997465-4.069458-2.18619-5.187544-2.18619-12.951845 0-7.602802.218081-8.963179 2.070439-12.9153 10.961528-23.387093 43.87189-23.855572 55.27309-.786811 2.78631 5.637709 2.91427 6.237598 2.91427 13.662045 0 6.819573-.25367 8.30673-2.08267 12.209546-2.86218 6.107498-9.027769 12.415836-15.016327 15.363987-4.079087 2.008129-5.985566 2.44798-11.657149 2.689466-4.334632.184562-7.895184-.08278-9.870647-.741071zm6.713053-4.947427c.163744-1.97423.652677-2.968785 1.542265-3.137268 1.005907-.190518 1.35773.423716 1.545069 2.69745.240127 2.914392.273676 2.942203 3.320509 2.753139 4.202433-.260769 10.85602-3.659326 14.710729-7.514034 3.854708-3.854705 7.253258-10.508289 7.514038-14.710721.18905-3.046832.16126-3.080378-2.75315-3.320507-2.27373-.187336-2.88796-.539162-2.69744-1.545069.16993-.897217 1.16986-1.378517 3.21364-1.546816 2.96386-.244068 2.96643-.247279 2.47044-3.090142-1.90455-10.916161-11.910119-20.834892-22.478541-22.283453l-3.443915-.472041v3.251794c0 2.679525-.237936 3.206706-1.351935 2.995591-.944831-.179055-1.42414-1.126646-1.591709-3.146791-.204913-2.47031-.509576-2.890583-2.095493-2.890583-1.020651 0-3.867704.751771-6.326786 1.670601-8.386158 3.133465-17.217906 14.353551-17.217906 21.874083 0 1.585917.42027 1.890586 2.890585 2.095493 2.020145.167569 2.967738.646877 3.14679 1.591708.211103 1.114013-.316065 1.351935-2.995591 1.351935h-3.251795l.47584 3.471636c1.316776 9.606917 9.265202 18.54754 19.268547 21.67382 5.272592 1.647804 5.835866 1.484536 6.105809-1.769825zm-15.231864-5.64115c-.567202-.917752-.748296-.646735 5.807553-8.691367 4.660808-5.719244 4.91005-6.234245 4.967929-10.265076.05749-4.005053-.123742-4.424961-3.22234-7.465755-1.805805-1.772107-3.283281-3.650577-3.283281-4.174376 0-2.340937 1.98142-1.714485 5.481628 1.73309 3.405361 3.354156 4.099113 3.709323 6.856551 3.510229 2.429966-.175452 3.47407.184708 5.021535 1.73218 2.751803 2.751802 2.604013 6.127654-.399762 9.131427-1.982079 1.982082-2.772896 2.285379-5.011609 1.922086-2.561405-.415657-2.871338-.180095-8.514496 6.471287-5.845821 6.890261-6.763958 7.61682-7.703708 6.096275zm19.279131-16.630857c2.333381-2.333379.990843-5.738838-2.262427-5.738838-4.667258 0-4.531705 6.808847.137962 6.929331.500769.01285 1.456784-.522803 2.124473-1.190493zM23.059981 34.003964c-1.272779-.5121-3.267016-4.380996-3.267016-6.338131 0-.838289.9-2.593757 1.999989-3.901043 2.532828-3.010079 6.198447-3.224847 9.313196-.545655 5.789166 4.97963-.736179 13.725984-8.046169 10.784829zm5.848895-3.500133c1.970049-1.970046.581085-6.025778-2.063639-6.025778-1.444931 0-3.962138 2.249628-3.962138 3.540962 0 2.645815 4.152452 4.358138 6.025777 2.484816z"
     id="path12" /></svg>
