<?xml version="1.0" encoding="UTF-8" standalone="no"?>
<svg
   width="512"
   height="512"
   viewBox="0 0 135.46666 135.46667"
   version="1.1"
   id="svg14"
   sodipodi:docname="permission.svg"
   xml:space="preserve"
   inkscape:version="1.2 (dc2aedaf03, 2022-05-15)"
   xmlns:inkscape="http://www.inkscape.org/namespaces/inkscape"
   xmlns:sodipodi="http://sodipodi.sourceforge.net/DTD/sodipodi-0.dtd"
   xmlns="http://www.w3.org/2000/svg"
   xmlns:svg="http://www.w3.org/2000/svg"><defs
     id="defs18"><rect
       x="346.26527"
       y="1640.6378"
       width="1701.7347"
       height="321.53204"
       id="rect414" /><rect
       x="127.99995"
       y="1536"
       width="1648.6707"
       height="512.00001"
       id="rect1008" /><rect
       x="197.86587"
       y="1536"
       width="1298.4948"
       height="364.33679"
       id="rect910" /><rect
       x="127.99995"
       y="1536"
       width="1806.8724"
       height="508.09906"
       id="rect259" /></defs><sodipodi:namedview
     id="namedview16"
     pagecolor="#505050"
     bordercolor="#eeeeee"
     borderopacity="1"
     inkscape:showpageshadow="0"
     inkscape:pageopacity="0"
     inkscape:pagecheckerboard="0"
     inkscape:deskcolor="#505050"
     showgrid="false"
     inkscape:zoom="0.77441738"
     inkscape:cx="185.30059"
     inkscape:cy="255.67608"
     inkscape:window-width="1366"
     inkscape:window-height="705"
     inkscape:window-x="-8"
     inkscape:window-y="-8"
     inkscape:window-maximized="1"
     inkscape:current-layer="g316" /><g
     id="g316"
     transform="matrix(0.24993849,0,0,0.24993849,4.3755907e-6,4.3755907e-6)"><path
       fill-rule="evenodd"
       d="M 512,0 A 512,512 0 0 0 0,512 v 1024 a 512,512 0 0 0 512,512 H 2048 V 0 Z"
       style="font-variation-settings:normal;-inkscape-stroke:none"
       transform="matrix(0.26464844,0,0,0.26464844,-1.3224987e-5,-1.3224987e-5)"
       id="path2" /><path
       fill="#a000c0"
       d="M 512,128 A 384,384 0 0 0 128,512 V 1536 H 1920 V 128 Z"
       color="#000000"
       style="fill:#ffff00;fill-opacity:1"
       id="path4-4"
       transform="matrix(0.26464844,0,0,0.26464844,-1.3224987e-5,-1.3224987e-5)" /></g><g
     style="-inkscape-font-specification:'Brandon Text, Medium';white-space:pre"
     id="g10"
     transform="translate(0,3.3880337)"><path
       fill="#ffffff"
       d="m 4.2133308,426.98664 c 0,0.53333 0.4266664,1.01333 1.0133328,1.01333 h 6.2933294 c 0.533333,0 1.013333,-0.48 1.013333,-1.01333 v -12.53332 h 5.599997 c 6.986662,0 11.893326,-5.38667 11.893326,-12 0,-6.45333 -4.906664,-11.78666 -11.94666,-11.78666 H 5.2266636 c -0.5866664,0 -1.0133328,0.48 -1.0133328,1.01334 z m 8.3199952,-20.31999 v -8.15999 h 5.386663 c 2.293332,0 3.893331,1.70666 3.893331,3.94666 0,2.4 -1.599999,4.21333 -3.893331,4.21333 z m 22.879937,20.31999 c 0,0.53333 0.426666,1.01333 1.013333,1.01333 h 22.079986 c 0.586667,0 1.013333,-0.48 1.013333,-1.01333 v -5.81333 c 0,-0.53333 -0.426666,-1.01333 -1.013333,-1.01333 H 43.733258 v -7.2 h 12.159993 c 0.533333,0 1.013332,-0.42666 1.013332,-1.01333 v -5.81333 c 0,-0.53333 -0.479999,-1.01333 -1.013332,-1.01333 H 43.733258 v -6.61333 h 14.773324 c 0.586667,0 1.013333,-0.48 1.013333,-1.01333 V 391.68 c 0,-0.53334 -0.426666,-1.01334 -1.013333,-1.01334 H 36.426596 c -0.586667,0 -1.013333,0.48 -1.013333,1.01334 z m 30.826603,0 c 0,0.53333 0.426666,1.01333 1.013333,1.01333 h 6.346662 c 0.533333,0 1.013333,-0.48 1.013333,-1.01333 v -13.59999 h 3.679998 l 7.093329,14.13332 c 0.106667,0.21334 0.426667,0.48 0.853333,0.48 h 7.093329 c 0.906666,0 1.279999,-0.85333 0.906666,-1.54666 l -7.306662,-13.54666 c 4.959997,-1.86667 7.893328,-5.81333 7.893328,-10.71999 0,-6.34667 -4.85333,-11.52 -11.626659,-11.52 H 67.253199 c -0.586667,0 -1.013333,0.48 -1.013333,1.01334 z m 8.373328,-20.37332 v -8.32 h 7.893329 c 2.186665,0 4.053331,1.54667 4.053331,4.05334 0,2.50666 -1.866666,4.26666 -4.053331,4.26666 z m 24.959919,20.21332 c -0.106666,0.69333 0.373333,1.17333 1.013337,1.17333 h 6.29333 c 0.53333,0 0.96,-0.42666 1.01333,-0.85333 l 2.34666,-16.47999 h 0.10667 l 9.01333,17.27999 c 0.16,0.32 0.58666,0.58667 0.90666,0.58667 h 0.96 c 0.26667,0 0.74667,-0.26667 0.90667,-0.58667 l 8.95999,-17.27999 h 0.10667 l 2.4,16.47999 c 0.0533,0.42667 0.53333,0.85333 1.01333,0.85333 h 6.29333 c 0.64,0 1.12,-0.48 1.01333,-1.17333 l -6.02666,-35.83998 c -0.0533,-0.48 -0.53333,-0.85333 -0.96,-0.85333 h -0.85333 c -0.26667,0 -0.74667,0.21333 -0.90667,0.53333 l -12.37332,23.03999 h -0.10667 l -12.37333,-23.03999 c -0.16,-0.32 -0.63999,-0.53333 -0.90666,-0.53333 h -0.85333 c -0.42667,0 -0.90667,0.37333 -0.96,0.85333 z m 48.799887,0.16 c 0,0.53333 0.48,1.01333 1.01333,1.01333 h 6.4 c 0.53333,0 1.01333,-0.48 1.01333,-1.01333 V 391.68 c 0,-0.53334 -0.48,-1.01334 -1.01333,-1.01334 h -6.4 c -0.53333,0 -1.01333,0.48 -1.01333,1.01334 z m 27.46664,1.54667 c 7.84,0 12.58666,-5.54667 12.58666,-11.04 0,-7.25333 -6.07999,-9.86666 -10.77332,-12.15999 -3.73334,-1.81333 -5.81333,-3.2 -5.81333,-4.96 0,-1.54666 1.01333,-2.93333 3.25333,-2.93333 2.82666,0 5.97333,2.02667 7.19999,2.88 1.06667,0.64 1.97333,0.21333 2.34667,-0.37333 l 2.72,-4.10667 c 0.21333,-0.37333 0.32,-1.33333 -0.32,-1.70666 -1.6,-1.17334 -5.86667,-4 -11.41333,-4 -8.21333,0 -12.31999,5.33333 -12.31999,10.61333 0,6.39999 5.17333,9.27999 10.34666,11.78666 3.52,1.70666 5.49333,3.14666 5.49333,5.38666 0,1.86667 -1.54667,3.2 -3.68,3.2 -3.36,0 -6.08,-1.92 -7.57333,-2.93333 -0.53333,-0.37334 -1.38666,-0.37334 -1.81333,0.32 l -2.45333,4.31999 c -0.37334,0.69334 -0.21334,1.17334 0.21333,1.6 1.22667,1.22667 5.06666,4.10667 11.99999,4.10667 z m 29.49329,0 c 7.83999,0 12.58666,-5.54667 12.58666,-11.04 0,-7.25333 -6.08,-9.86666 -10.77333,-12.15999 -3.73333,-1.81333 -5.81333,-3.2 -5.81333,-4.96 0,-1.54666 1.01333,-2.93333 3.25333,-2.93333 2.82667,0 5.97333,2.02667 7.2,2.88 1.06666,0.64 1.97333,0.21333 2.34666,-0.37333 l 2.72,-4.10667 c 0.21334,-0.37333 0.32,-1.33333 -0.32,-1.70666 -1.6,-1.17334 -5.86666,-4 -11.41332,-4 -8.21333,0 -12.32,5.33333 -12.32,10.61333 0,6.39999 5.17333,9.27999 10.34666,11.78666 3.52,1.70666 5.49333,3.14666 5.49333,5.38666 0,1.86667 -1.54666,3.2 -3.67999,3.2 -3.36,0 -6.08,-1.92 -7.57333,-2.93333 -0.53334,-0.37334 -1.38667,-0.37334 -1.81333,0.32 l -2.45334,4.31999 c -0.37333,0.69334 -0.21333,1.17334 0.21334,1.6 1.22666,1.22667 5.06666,4.10667 11.99999,4.10667 z m 18.87996,-1.54667 c 0,0.53333 0.48,1.01333 1.01333,1.01333 h 6.4 c 0.53333,0 1.01333,-0.48 1.01333,-1.01333 V 391.68 c 0,-0.53334 -0.48,-1.01334 -1.01333,-1.01334 h -6.4 c -0.53333,0 -1.01333,0.48 -1.01333,1.01334 z m 14.72,-17.59999 c 0,10.66666 8.47999,19.14666 19.14665,19.14666 10.66666,0 19.19999,-8.48 19.19999,-19.14666 0,-10.66666 -8.53333,-19.25332 -19.19999,-19.25332 -10.66666,0 -19.14665,8.58666 -19.14665,19.25332 z m 8.53333,0 c 0,-5.86666 4.79999,-10.71999 10.61332,-10.71999 5.86667,0 10.66666,4.85333 10.66666,10.71999 0,5.81333 -4.79999,10.61333 -10.66666,10.61333 -5.81333,0 -10.61332,-4.8 -10.61332,-10.61333 z m 36.10658,17.59999 c 0,0.53333 0.48,1.01333 1.01333,1.01333 h 6.34666 c 0.58667,0 1.01334,-0.48 1.01334,-1.01333 v -19.89332 h 0.0533 l 20.74665,20.85332 c 0.42667,0.42667 0.8,0.58667 1.33334,0.58667 h 0.53333 c 0.53333,0 1.01333,-0.32 1.01333,-0.96 V 391.68 c 0,-0.53334 -0.48,-1.01334 -1.01333,-1.01334 h -6.4 c -0.58666,0 -1.01333,0.48 -1.01333,1.01334 v 18.93332 h -0.0533 l -20.47999,-19.67999 c -0.42667,-0.42667 -0.8,-0.8 -1.33333,-0.8 h -0.8 c -0.53334,0 -1.01334,0.42667 -1.01334,0.96 z"
       aria-label="PERMISSION"
       color="#000000"
       font-family="'Brandon Text'"
       font-size="53.3333px"
       font-weight="500"
       style="-inkscape-font-specification:'Brandon Text, Medium';-inkscape-stroke:none"
       transform="matrix(0.26458,0,0,0.26458,25.42124,6.8438898)"
       id="path8" /></g><path
     d="M59.668571 92.198527c-8.486983-2.79322-12.768607-7.02476-12.831127-12.68104-.0193-1.67873.17701-3.69675.43438-4.48449.45847-1.40267.38979-1.42402-3.32848-1.03539-3.23133.33774-4.32442.15528-7.3417-1.22618-4.38968-2.00964-8.61105-5.83882-11.95129-10.84089-3.15874-4.73024-3.20675-6.16381-.29208-8.72292 8.56535-7.52049 21.40861-8.11133 34.321368-1.57892 1.669314.84449 3.035133 1.24274 3.035133.88499 0-1.20704-5.070759-5.58271-8.616694-7.43552-3.489087-1.82311-4.385427-3.14661-2.596087-3.83325 1.284534-.49292 6.983852 2.7222 10.62052 5.99126l3.025544 2.71975-.897157-2.98105c-1.201234-3.9914-1.212199-12.74392-.0169-13.20274 1.470267-.56419 2.163308.78611 1.847784 3.60013-.383144 3.41721.829683 10.01762 2.068374 11.25631.846057.84605.954033.6462.954033-1.76574 0-4.44263 1.879421-12.29073 3.962213-16.54541 3.524393-7.19953 13.518738-14.66161 17.67797-13.19889 3.479365 1.22363 7.107247 9.31046 7.595357 16.93064.36148 5.64331-.43685 8.68556-3.06455 11.67835l-1.808659 2.05995 2.802339.74951c3.90467 1.04435 6.983978 4.29179 7.971028 8.40628 1.24614 5.1945-.55642 14.30212-3.530068 17.83613-3.79189 4.50639-12.203838 5.2245-16.908866 1.44344-1.405932-1.12985-2.556233-1.86003-2.556233-1.62268 0 .23739.889503 1.98626 1.976675 3.88643 1.866694 3.2626 2.093465 5.32687.58521 5.32687-.578907 0-1.942552-1.90393-4.835463-6.7513-.510561-.85548-.62158-.12824-.453349 2.96891.183542 3.38026-.0355 4.54684-1.246178 6.6312-3.366692 5.7967-9.548725 7.85804-16.60338 5.53626zm10.847599-3.41704c3.590202-2.158 4.863525-6.33933 3.669946-12.05133-.704704-3.37241-3.608073-9.53008-4.49347-9.53008-.436299 0-1.212488-.63139-1.724884-1.40308-.885035-1.33295-1.104537-1.3643-4.391026-.62716-9.444444 2.11832-14.002492 6.68564-14.002492 14.03097 0 4.66361 4.499822 8.57641 12.207379 10.61489 3.856507 1.01996 5.675433.80459 8.734547-1.03421zm-11.619996-6.29501c-2.167801-2.57628-2.102909-4.71242.213488-7.02887 2.943434-2.94341 6.996669-2.43036 8.890461 1.12536 1.198456 2.25022.86912 4.00812-1.124436 6.00168-2.619967 2.61996-5.724531 2.58176-7.979562-.0981zm6.122912-1.64744c1.432932-1.2968 1.480871-2.37271.164464-3.68919-1.473238-1.47322-3.293613-1.2264-4.496683.60969-.990185 1.51123-.984824 1.69402.08428 2.87541 1.392964 1.53919 2.703116 1.60215 4.247959.20407zm29.790251-5.9664c4.015525-1.82245 5.541463-5.45197 5.554003-13.21048.009-5.36665-.12438-6.00264-1.587978-7.59033-1.91995-2.08276-4.41144-3.21136-8.404438-3.80706-2.558454-.38168-3.393088-.19745-5.983711 1.32074-4.322415 2.53311-9.455674 7.81553-8.878459 9.13645.251573.57577.505634 1.6477.564537 2.38214.154803 1.93115 2.405632 5.29936 5.570693 8.3366 5.058008 4.85372 8.217804 5.67744 13.165353 3.43194zm-8.685261-7.05127c-3.86979-3.60525-1.520936-9.56696 3.769325-9.56696 3.216294 0 5.989121 3.08051 5.424891 6.02684-.812473 4.24265-6.209582 6.32073-9.194216 3.54012zm5.89736-2.66832c.83904-1.1979.857358-1.60324.122756-2.71565-1.110126-1.68107-3.147756-1.98046-4.471238-.65698-1.30723 1.30723-1.317905 2.49269-.03405 3.77657 1.41419 1.41422 3.225992 1.24722 4.382493-.40394zm-44.456812 4.86438c.92957-.53899 3.27159-1.9826 5.204482-3.20803 1.932914-1.22541 5.599022-2.84659 8.146947-3.60259 2.547926-.756 4.632576-1.64558 4.632576-1.97682 0-1.11207-9.782113.0374-14.874365 1.74787-2.73362.91822-6.88316 2.87763-9.22119 4.35422l-4.25101 2.68474 1.873.82872c2.17951.96429 6.04926.58683 8.48956-.82811zm-8.93298-4.09188c6.67704-4.55771 15.486858-7.63004 21.964925-7.66003 3.055927-.0145 3.03168-.69654-.08694-2.44934-2.992218-1.68172-7.651021-1.83471-13.197255-.43339-3.75727.94931-14.10259 5.74903-16.58787 7.69595-1.25279.98142-1.23099 1.04438 1.10884 3.2002 1.31271 1.20949 2.538 2.1991 2.72287 2.1991.18475 0 2.01881-1.14864 4.07548-2.55249zm33.573958-1.66922c1.531948-.58787 1.25876-1.63876-1.753648-6.74626-2.712123-4.59836-4.935155-6.23232-5.714846-4.20048-.335303.87376 5.224934 11.31892 6.030804 11.32916.234741.002.881799-.16905 1.43769-.38242zm-39.469788-5.47028c5.1179-3.11303 10.28702-5.24203 15.41255-6.34793l3.66229-.79018-2.55592-.801c-3.52284-1.10403-12.36611-1.1011-15.50154.005-3.37508 1.1908-7.7825 4.00244-8.27145 5.27663-.39623 1.03256 1.54011 5.32058 2.40262 5.32058.26019 0 2.44333-1.19845 4.85145-2.66324zm44.459064-5.02867c1.853315-1.7705 5.669999-4.38191 8.481476-5.80313 2.811502-1.42123 5.604673-3.02702 6.207058-3.56842 1.180514-1.061 3.4441-6.40564 2.93047-6.91926-.654337-.65434-9.28965 4.25844-12.598309 7.1674-5.020671 4.41413-10.605879 12.3425-8.694796 12.3425.167362 0 1.820785-1.44859 3.674101-3.21909zm-3.386568-3.87453c3.198268-4.71371 9.233878-9.88031 14.792014-12.66225 2.678095-1.34042 5.242966-2.56171 5.699718-2.71396.676036-.22534.682223-.89476.0333-3.59994-.438497-1.82772-.942161-3.32313-1.119299-3.32313-.177118 0-2.269819 1.02352-4.650406 2.27449-6.044088 3.17608-12.123796 8.38571-15.250483 13.06795-2.206996 3.30502-2.652714 4.49703-2.652714 7.09453 0 1.71714.215662 3.11466.479238 3.10559.263576-.009 1.464449-1.46853 2.668629-3.24328zm1.521249-13.63326c3.580616-3.58061 10.895731-8.66512 14.833914-10.31061l2.236332-.93439-1.298021-2.54437c-1.504248-2.94853-2.653293-3.16961-6.438123-1.23873-3.479739 1.77522-7.361677 5.38537-9.243297 8.59611-1.487221 2.53775-4.320265 9.90652-3.808714 9.90652.133793 0 1.806923-1.56354 3.717909-3.47453z"
     id="path12" /></svg>
