<svg width="512" height="512" viewBox="0 0 135.467 135.467" xml:space="preserve" xmlns="http://www.w3.org/2000/svg"><path fill-rule="evenodd" d="M512 0A512 512 0 0 0 0 512v1024a512 512 0 0 0 512 512h1536V0Z" style="font-variation-settings:normal;-inkscape-stroke:none" transform="matrix(.06615 0 0 .06615 0 0)"/><path fill="#a000c0" d="M512 128a384 384 0 0 0-384 384v1024h1792V128Z" color="#000" style="fill:#ff0;fill-opacity:1" transform="matrix(.06615 0 0 .06615 0 0)"/><g style="-inkscape-font-specification:'Brandon Text, Medium';white-space:pre"><path fill="#fff" d="M4.213 426.987c0 .533.427 1.013 1.014 1.013h6.293c.533 0 1.013-.48 1.013-1.013v-12.534h5.6c6.987 0 11.894-5.386 11.894-12 0-6.453-4.907-11.786-11.947-11.786H5.227c-.587 0-1.014.48-1.014 1.013zm8.32-20.32v-8.16h5.387c2.293 0 3.893 1.706 3.893 3.946 0 2.4-1.6 4.214-3.893 4.214zm22.88 20.32c0 .533.427 1.013 1.014 1.013h22.08c.586 0 1.013-.48 1.013-1.013v-5.814c0-.533-.427-1.013-1.013-1.013H43.733v-7.2h12.16c.534 0 1.014-.427 1.014-1.013v-5.814c0-.533-.48-1.013-1.014-1.013h-12.16v-6.613h14.774c.586 0 1.013-.48 1.013-1.014v-5.813c0-.533-.427-1.013-1.013-1.013h-22.08c-.587 0-1.014.48-1.014 1.013zm30.827 0c0 .533.427 1.013 1.013 1.013H73.6c.533 0 1.013-.48 1.013-1.013v-13.6h3.68l7.094 14.133c.106.213.426.48.853.48h7.093c.907 0 1.28-.853.907-1.547l-7.307-13.546c4.96-1.867 7.894-5.814 7.894-10.72 0-6.347-4.854-11.52-11.627-11.52H67.253c-.586 0-1.013.48-1.013 1.013zm8.373-20.374v-8.32h7.894c2.186 0 4.053 1.547 4.053 4.054 0 2.506-1.867 4.266-4.053 4.266zm24.96 20.214c-.107.693.373 1.173 1.013 1.173h6.294c.533 0 .96-.427 1.013-.853l2.347-16.48h.106l9.014 17.28c.16.32.586.586.906.586h.96c.267 0 .747-.266.907-.586l8.96-17.28h.107l2.4 16.48c.053.426.533.853 1.013.853h6.293c.64 0 1.12-.48 1.014-1.173l-6.027-35.84c-.053-.48-.533-.854-.96-.854h-.853c-.267 0-.747.214-.907.534l-12.373 23.04h-.107l-12.373-23.04c-.16-.32-.64-.534-.907-.534h-.853c-.427 0-.907.374-.96.854zm48.8.16c0 .533.48 1.013 1.013 1.013h6.4c.534 0 1.014-.48 1.014-1.013V391.68c0-.533-.48-1.013-1.014-1.013h-6.4c-.533 0-1.013.48-1.013 1.013zm27.467 1.546c7.84 0 12.586-5.546 12.586-11.04 0-7.253-6.08-9.866-10.773-12.16-3.733-1.813-5.813-3.2-5.813-4.96 0-1.546 1.013-2.933 3.253-2.933 2.827 0 5.973 2.027 7.2 2.88 1.067.64 1.973.213 2.347-.373l2.72-4.107c.213-.373.32-1.333-.32-1.707-1.6-1.173-5.867-4-11.414-4-8.213 0-12.32 5.334-12.32 10.614 0 6.4 5.174 9.28 10.347 11.786 3.52 1.707 5.493 3.147 5.493 5.387 0 1.867-1.546 3.2-3.68 3.2-3.36 0-6.08-1.92-7.573-2.933-.533-.374-1.387-.374-1.813.32l-2.454 4.32c-.373.693-.213 1.173.214 1.6 1.226 1.226 5.066 4.106 12 4.106zm29.493 0c7.84 0 12.587-5.546 12.587-11.04 0-7.253-6.08-9.866-10.774-12.16-3.733-1.813-5.813-3.2-5.813-4.96 0-1.546 1.013-2.933 3.253-2.933 2.827 0 5.974 2.027 7.2 2.88 1.067.64 1.974.213 2.347-.373l2.72-4.107c.213-.373.32-1.333-.32-1.707-1.6-1.173-5.867-4-11.413-4-8.214 0-12.32 5.334-12.32 10.614 0 6.4 5.173 9.28 10.346 11.786 3.52 1.707 5.494 3.147 5.494 5.387 0 1.867-1.547 3.2-3.68 3.2-3.36 0-6.08-1.92-7.574-2.933-.533-.374-1.386-.374-1.813.32l-2.453 4.32c-.374.693-.214 1.173.213 1.6 1.227 1.226 5.067 4.106 12 4.106zm18.88-1.546c0 .533.48 1.013 1.013 1.013h6.4c.534 0 1.014-.48 1.014-1.013V391.68c0-.533-.48-1.013-1.014-1.013h-6.4c-.533 0-1.013.48-1.013 1.013zm14.72-17.6c0 10.666 8.48 19.146 19.147 19.146 10.666 0 19.2-8.48 19.2-19.146 0-10.667-8.534-19.254-19.2-19.254-10.667 0-19.147 8.587-19.147 19.254zm8.533 0c0-5.867 4.8-10.72 10.614-10.72 5.866 0 10.666 4.853 10.666 10.72 0 5.813-4.8 10.613-10.666 10.613-5.814 0-10.614-4.8-10.614-10.613zm36.107 17.6c0 .533.48 1.013 1.013 1.013h6.347c.586 0 1.013-.48 1.013-1.013v-19.894H292l20.747 20.854c.427.426.8.586 1.333.586h.534c.533 0 1.013-.32 1.013-.96V391.68c0-.533-.48-1.013-1.013-1.013h-6.4c-.587 0-1.014.48-1.014 1.013v18.933h-.053l-20.48-19.68c-.427-.426-.8-.8-1.333-.8h-.8c-.534 0-1.014.427-1.014.96z" aria-label="PERMISSION" color="#000" font-family="'Brandon Text'" font-size="53.333" font-weight="500" style="-inkscape-font-specification:'Brandon Text, Medium';-inkscape-stroke:none" transform="translate(25.421 10.232) scale(.26458)"/></g><path d="M59.669 92.199c-8.487-2.794-12.769-7.025-12.832-12.682-.019-1.678.177-3.696.435-4.484.458-1.403.39-1.424-3.329-1.035-3.231.337-4.324.155-7.341-1.227-4.39-2.01-8.611-5.838-11.952-10.84-3.158-4.73-3.206-6.164-.292-8.723 8.566-7.52 21.409-8.112 34.322-1.58 1.669.845 3.035 1.243 3.035.886 0-1.207-5.071-5.583-8.617-7.436-3.489-1.823-4.385-3.146-2.596-3.833 1.285-.493 6.984 2.722 10.62 5.991l3.026 2.72-.897-2.981c-1.201-3.992-1.212-12.744-.017-13.203 1.47-.564 2.163.786 1.848 3.6-.383 3.417.83 10.018 2.068 11.257.846.846.954.646.954-1.766 0-4.443 1.88-12.29 3.962-16.546 3.525-7.2 13.52-14.661 17.678-13.198 3.48 1.223 7.108 9.31 7.596 16.93.361 5.643-.437 8.686-3.065 11.679l-1.808 2.06 2.802.749c3.905 1.044 6.984 4.292 7.97 8.406 1.247 5.195-.556 14.302-3.53 17.836-3.791 4.507-12.203 5.225-16.908 1.444-1.406-1.13-2.556-1.86-2.556-1.623 0 .238.89 1.986 1.976 3.887 1.867 3.262 2.094 5.326.586 5.326-.58 0-1.943-1.903-4.836-6.75-.51-.856-.621-.13-.453 2.968.183 3.38-.036 4.547-1.246 6.631-3.367 5.797-9.55 7.858-16.604 5.537zm10.847-3.418c3.59-2.158 4.864-6.339 3.67-12.05-.705-3.373-3.608-9.53-4.493-9.53-.437 0-1.213-.632-1.725-1.404-.885-1.333-1.105-1.364-4.391-.627-9.445 2.118-14.003 6.685-14.003 14.03 0 4.664 4.5 8.577 12.208 10.616 3.856 1.02 5.675.804 8.734-1.035zm-11.62-6.295c-2.168-2.576-2.103-4.712.214-7.028 2.943-2.944 6.996-2.43 8.89 1.125 1.199 2.25.87 4.008-1.124 6.002-2.62 2.62-5.725 2.581-7.98-.098zm6.123-1.647c1.433-1.297 1.481-2.373.165-3.69-1.474-1.472-3.294-1.226-4.497.61-.99 1.512-.985 1.695.084 2.876 1.393 1.54 2.703 1.602 4.248.204zm29.79-5.966c4.016-1.823 5.542-5.452 5.554-13.21.01-5.367-.124-6.003-1.588-7.591-1.92-2.083-4.411-3.212-8.404-3.807-2.559-.382-3.393-.198-5.984 1.32-4.322 2.534-9.455 7.816-8.878 9.137.251.576.505 1.648.564 2.382.155 1.931 2.406 5.3 5.571 8.337 5.058 4.853 8.218 5.677 13.165 3.432zm-8.685-7.052c-3.87-3.605-1.52-9.567 3.77-9.567 3.216 0 5.989 3.08 5.424 6.027-.812 4.243-6.21 6.321-9.194 3.54zm5.897-2.668c.84-1.198.858-1.603.123-2.716-1.11-1.68-3.148-1.98-4.471-.657-1.307 1.308-1.318 2.493-.034 3.777 1.414 1.414 3.226 1.247 4.382-.404zm-44.456 4.864c.93-.539 3.271-1.982 5.204-3.208 1.933-1.225 5.6-2.846 8.147-3.602 2.548-.756 4.633-1.646 4.633-1.977 0-1.112-9.782.037-14.875 1.748-2.733.918-6.883 2.877-9.22 4.354l-4.252 2.685 1.873.829c2.18.964 6.05.586 8.49-.829zm-8.933-4.091c6.677-4.558 15.487-7.63 21.965-7.66 3.055-.015 3.031-.697-.087-2.45-2.993-1.682-7.651-1.835-13.198-.433-3.757.95-14.102 5.749-16.587 7.696-1.253.981-1.231 1.044 1.108 3.2 1.313 1.21 2.538 2.199 2.723 2.199.185 0 2.019-1.149 4.076-2.552zm33.574-1.67c1.532-.588 1.258-1.638-1.754-6.746-2.712-4.598-4.935-6.232-5.715-4.2-.335.873 5.225 11.319 6.03 11.329.236.002.883-.17 1.439-.383zm-39.47-5.47c5.118-3.113 10.287-5.242 15.412-6.348l3.663-.79-2.556-.801c-3.523-1.104-12.366-1.101-15.502.005-3.375 1.19-7.782 4.002-8.271 5.277-.396 1.032 1.54 5.32 2.402 5.32.26 0 2.444-1.198 4.852-2.663zm44.459-5.029c1.853-1.77 5.67-4.382 8.481-5.803 2.812-1.421 5.605-3.027 6.207-3.568 1.18-1.061 3.445-6.406 2.93-6.92-.653-.654-9.289 4.259-12.597 7.168-5.021 4.414-10.606 12.342-8.695 12.342.167 0 1.82-1.448 3.674-3.219zm-3.387-3.874c3.199-4.714 9.234-9.88 14.792-12.662 2.678-1.34 5.243-2.562 5.7-2.714.676-.226.682-.895.033-3.6-.438-1.828-.942-3.323-1.119-3.323-.177 0-2.27 1.023-4.65 2.274-6.044 3.176-12.124 8.386-15.25 13.068-2.208 3.305-2.654 4.497-2.654 7.095 0 1.717.216 3.114.48 3.105.263-.009 1.464-1.468 2.668-3.243zM75.33 36.25c3.58-3.581 10.895-8.666 14.833-10.311l2.237-.934-1.298-2.545c-1.504-2.948-2.654-3.17-6.438-1.239-3.48 1.776-7.362 5.386-9.244 8.597-1.487 2.537-4.32 9.906-3.808 9.906.133 0 1.807-1.563 3.718-3.474z"/></svg>