<svg width="512" height="512" viewBox="0 0 135.467 135.467" xml:space="preserve" xmlns="http://www.w3.org/2000/svg"><path fill-rule="evenodd" d="M406 0a135 135 0 0 1 136 135v271a135 135 0 0 1-136 136H0V0Z" style="font-variation-settings:normal;-inkscape-stroke:none" transform="matrix(.24994 0 0 .24994 0 0)"/><path fill="#ffc000" d="M406 34a102 102 0 0 1 102 101v271H34V34Z" color="#000" style="fill:#1fe545;fill-opacity:1" transform="matrix(.24994 0 0 .24994 0 0)"/><g style="-inkscape-font-specification:'Brandon Text, Medium';white-space:pre"><path fill="#fff" d="M4.213 426.987c0 .533.427 1.013 1.014 1.013h6.293c.533 0 1.013-.48 1.013-1.013v-12.534h5.6c6.987 0 11.894-5.386 11.894-12 0-6.453-4.907-11.786-11.947-11.786H5.227c-.587 0-1.014.48-1.014 1.013zm8.32-20.32v-8.16h5.387c2.293 0 3.893 1.706 3.893 3.946 0 2.4-1.6 4.214-3.893 4.214zm22.88 20.32c0 .533.427 1.013 1.014 1.013h6.346c.534 0 1.014-.48 1.014-1.013v-13.6h3.68l7.093 14.133c.107.213.427.48.853.48h7.094c.906 0 1.28-.853.906-1.547l-7.306-13.546c4.96-1.867 7.893-5.814 7.893-10.72 0-6.347-4.853-11.52-11.627-11.52H36.427c-.587 0-1.014.48-1.014 1.013zm8.374-20.374v-8.32h7.893c2.187 0 4.053 1.547 4.053 4.054 0 2.506-1.866 4.266-4.053 4.266zm24.8 2.774c0 10.666 8.48 19.146 19.146 19.146 10.667 0 19.2-8.48 19.2-19.146 0-10.667-8.533-19.254-19.2-19.254-10.666 0-19.146 8.587-19.146 19.254zm8.533 0c0-5.867 4.8-10.72 10.613-10.72 5.867 0 10.667 4.853 10.667 10.72C98.4 415.2 93.6 420 87.733 420c-5.813 0-10.613-4.8-10.613-10.613zm36.106 17.6c0 .533.427 1.013 1.014 1.013h6.293c.533 0 1.013-.48 1.013-1.013v-12.534h5.6c6.987 0 11.894-5.386 11.894-12 0-6.453-4.907-11.786-11.947-11.786H114.24c-.587 0-1.014.48-1.014 1.013zm8.32-20.32v-8.16h5.387c2.293 0 3.893 1.706 3.893 3.946 0 2.4-1.6 4.214-3.893 4.214zm22.88 20.32c0 .533.427 1.013 1.014 1.013h22.08c.586 0 1.013-.48 1.013-1.013v-5.814c0-.533-.427-1.013-1.013-1.013h-14.774v-7.2h12.16c.534 0 1.014-.427 1.014-1.013v-5.814c0-.533-.48-1.013-1.014-1.013h-12.16v-6.613h14.774c.586 0 1.013-.48 1.013-1.014v-5.813c0-.533-.427-1.013-1.013-1.013h-22.08c-.587 0-1.014.48-1.014 1.013zm30.827 0c0 .533.427 1.013 1.013 1.013h6.347c.533 0 1.013-.48 1.013-1.013v-13.6h3.68l7.094 14.133c.106.213.426.48.853.48h7.093c.907 0 1.28-.853.907-1.547l-7.307-13.546c4.96-1.867 7.894-5.814 7.894-10.72 0-6.347-4.854-11.52-11.627-11.52h-15.947c-.586 0-1.013.48-1.013 1.013zm8.373-20.374v-8.32h7.894c2.186 0 4.053 1.547 4.053 4.054 0 2.506-1.867 4.266-4.053 4.266zm32.747 20.374c0 .533.48 1.013 1.013 1.013h6.4c.534 0 1.014-.48 1.014-1.013v-28.48h7.626c.587 0 1.014-.48 1.014-1.014v-5.813c0-.533-.427-1.013-1.014-1.013h-23.68c-.586 0-1.013.48-1.013 1.013v5.813c0 .534.427 1.014 1.013 1.014h7.627zm30.293 0c0 .533.427 1.013 1.013 1.013h6.347c.533 0 1.013-.48 1.013-1.013v-17.014l11.947-17.76c.427-.693 0-1.546-.853-1.546h-6.934c-.48 0-.693.266-.853.48l-7.413 10.933-7.414-10.933c-.16-.214-.426-.48-.853-.48h-6.933c-.854 0-1.28.853-.854 1.546l11.787 17.814z" aria-label="PROPERTY" color="#000" font-family="'Brandon Text'" font-size="53.333" font-weight="500" style="-inkscape-font-specification:'Brandon Text, Medium';-inkscape-stroke:none" transform="translate(31.834 10.169) scale(.26458)"/></g><path d="M29.73 92.73c-.22-.22-.4-14.555-.4-31.854V29.423l4.582-6.245c2.714-3.698 5-6.245 5.607-6.245.613 0 2.865 2.559 5.617 6.384l4.593 6.383v10.632h7.8V29.7l4.593-6.383c2.719-3.78 5.006-6.384 5.606-6.384.6 0 2.887 2.605 5.606 6.384l4.593 6.383v10.632h7.8V29.726l4.612-6.396c2.704-3.752 5.027-6.397 5.617-6.397.583 0 2.933 2.627 5.593 6.252l4.588 6.253-.156 31.695-.155 31.696-9.554.166c-7.242.126-9.672-.02-10.04-.6-.268-.421-.49-2.588-.496-4.815l-.009-4.05h-7.8v3.85c0 6.109.638 5.75-10.2 5.75-10.836 0-10.199.359-10.199-5.75v-3.85h-7.8v3.85c0 6.107.634 5.75-10.163 5.75-5.19 0-9.615-.18-9.835-.4zm16.4-32.465V30.4l-3.011-4.184c-1.656-2.3-3.236-4.26-3.511-4.353-.276-.094-1.891 1.734-3.59 4.062l-3.088 4.233V90.13h13.2zm-8 16.865c-.733-.732-.413-3.042.53-3.825 1.378-1.144 2.959.59 2.436 2.674-.37 1.473-2.009 2.109-2.966 1.151zm0-26.398c-.733-.733-.413-3.043.53-3.825 1.378-1.145 2.959.59 2.436 2.674-.37 1.473-2.009 2.108-2.966 1.15zm36.198 9.515V30.365l-3.041-4.316c-1.672-2.374-3.24-4.316-3.484-4.316-.244 0-1.778 1.816-3.41 4.035l-2.965 4.035-.3 6.614-.3 6.615-5.7.3-5.7.3-.174 4.65-.176 4.65h8.978l.186-2.25c.148-1.788.433-2.25 1.386-2.25 1.174 0 1.204.452 1.358 20.849l.158 20.849h13.184zM66.162 75.98c-.263-1.048-.073-1.867.588-2.528.904-.904 1.052-.904 1.956 0 .66.661.851 1.48.588 2.528-.528 2.105-2.604 2.105-3.132 0zm0-26.398c-.263-1.048-.073-1.868.588-2.529.904-.903 1.052-.903 1.956 0 1.316 1.317.654 4.08-.978 4.08-.765 0-1.313-.543-1.566-1.551zm36.364 10.563V30.158l-3.073-4.212c-1.69-2.317-3.262-4.213-3.491-4.213-.23 0-1.75 1.822-3.376 4.05l-2.96 4.05-.3 22.498-.3 22.5-1.31.186c-1.127.16-1.339-.136-1.5-2.1l-.189-2.286h-8.4v9l5.7.299 5.7.3.174 4.95.174 4.95h13.151zm-8.081 16.244c-.398-1.255.54-3.658 1.43-3.658.965 0 1.942 1.743 1.748 3.117-.261 1.84-2.638 2.244-3.178.54zM94.37 49.62c-.54-2.152 1.031-3.871 2.457-2.688 1.407 1.168.929 3.853-.73 4.089-1.01.143-1.423-.191-1.727-1.401zM57.829 75.13v-4.5h-8.4l-.176 4.677-.175 4.677 4.375-.177 4.376-.177zm-.3-13.199v-5.4h-7.8v10.8h7.8zm28.198.6v-4.8h-7.8v9.6h7.8zm.473-13.65-.173-5.25h-8.4l-.178 4.445c-.098 2.444-.039 4.806.131 5.25.22.569 1.554.805 4.552.805h4.242z"/></svg>