<?xml version="1.0" encoding="UTF-8" standalone="no"?>
<svg
   width="512"
   height="512"
   viewBox="0 0 135.46666 135.46667"
   version="1.1"
   id="svg14"
   sodipodi:docname="property.svg"
   xml:space="preserve"
   inkscape:version="1.2 (dc2aedaf03, 2022-05-15)"
   xmlns:inkscape="http://www.inkscape.org/namespaces/inkscape"
   xmlns:sodipodi="http://sodipodi.sourceforge.net/DTD/sodipodi-0.dtd"
   xmlns="http://www.w3.org/2000/svg"
   xmlns:svg="http://www.w3.org/2000/svg"><defs
     id="defs18"><rect
       x="128.47232"
       y="1534.1107"
       width="1703.2304"
       height="420.79972"
       id="rect377" /><rect
       x="128.47232"
       y="1534.1107"
       width="1442.088"
       height="411.57035"
       id="rect6519" /><rect
       x="458.85301"
       y="1631.1052"
       width="1235.8888"
       height="318.18275"
       id="rect353" /><rect
       x="128.47232"
       y="1534.1107"
       width="1919.5277"
       height="513.8893"
       id="rect358" /><path
       id="a"
       d="M128 1536h1841v529H128z" /></defs><sodipodi:namedview
     id="namedview16"
     pagecolor="#505050"
     bordercolor="#eeeeee"
     borderopacity="1"
     inkscape:showpageshadow="0"
     inkscape:pageopacity="0"
     inkscape:pagecheckerboard="0"
     inkscape:deskcolor="#505050"
     showgrid="false"
     inkscape:zoom="0.77441738"
     inkscape:cx="194.33965"
     inkscape:cy="255.67608"
     inkscape:window-width="1366"
     inkscape:window-height="705"
     inkscape:window-x="-8"
     inkscape:window-y="-8"
     inkscape:window-maximized="1"
     inkscape:current-layer="g160" /><g
     id="g160"
     transform="matrix(0.24993507,0,0,0.24993507,4.6222024e-4,9.2506936e-4)"><path
       fill-rule="evenodd"
       d="M 406,0 A 135,135 0 0 1 542,135 V 406 A 135,135 0 0 1 406,542 H 0 V 0 Z"
       style="font-variation-settings:normal;-inkscape-stroke:none"
       id="path5" /><path
       fill="#ffc000"
       d="M 406,34 A 102,102 0 0 1 508,135 V 406 H 34 V 34 Z"
       color="#000000"
       style="fill:#1fe545;fill-opacity:1"
       id="path7" /></g><g
     style="-inkscape-font-specification:'Brandon Text, Medium';white-space:pre"
     id="g10"
     transform="translate(0,3.3248486)"><path
       fill="#ffffff"
       d="m 4.2133308,426.98664 c 0,0.53333 0.4266664,1.01333 1.0133328,1.01333 h 6.2933294 c 0.533333,0 1.013333,-0.48 1.013333,-1.01333 v -12.53332 h 5.599997 c 6.986662,0 11.893326,-5.38667 11.893326,-12 0,-6.45333 -4.906664,-11.78666 -11.94666,-11.78666 H 5.2266636 c -0.5866664,0 -1.0133328,0.48 -1.0133328,1.01334 z m 8.3199952,-20.31999 v -8.15999 h 5.386663 c 2.293332,0 3.893331,1.70666 3.893331,3.94666 0,2.4 -1.599999,4.21333 -3.893331,4.21333 z m 22.879937,20.31999 c 0,0.53333 0.426666,1.01333 1.013333,1.01333 h 6.346663 c 0.533333,0 1.013332,-0.48 1.013332,-1.01333 v -13.59999 h 3.679998 l 7.093329,14.13332 c 0.106667,0.21334 0.426667,0.48 0.853333,0.48 h 7.093329 c 0.906666,0 1.279999,-0.85333 0.906666,-1.54666 l -7.306662,-13.54666 c 4.959997,-1.86667 7.893329,-5.81333 7.893329,-10.71999 0,-6.34667 -4.853331,-11.52 -11.62666,-11.52 H 36.426596 c -0.586667,0 -1.013333,0.48 -1.013333,1.01334 z m 8.373328,-20.37332 v -8.32 h 7.893329 c 2.186665,0 4.053331,1.54667 4.053331,4.05334 0,2.50666 -1.866666,4.26666 -4.053331,4.26666 z m 24.799923,2.77333 c 0,10.66666 8.479995,19.14666 19.146656,19.14666 10.66666,0 19.19999,-8.48 19.19999,-19.14666 0,-10.66666 -8.53333,-19.25332 -19.19999,-19.25332 -10.666661,0 -19.146656,8.58666 -19.146656,19.25332 z m 8.533329,0 c 0,-5.86666 4.799997,-10.71999 10.613327,-10.71999 5.866663,0 10.66666,4.85333 10.66666,10.71999 0,5.81333 -4.799997,10.61333 -10.66666,10.61333 -5.81333,0 -10.613327,-4.8 -10.613327,-10.61333 z m 36.106587,17.59999 c 0,0.53333 0.42667,1.01333 1.01333,1.01333 h 6.29333 c 0.53334,0 1.01334,-0.48 1.01334,-1.01333 v -12.53332 h 5.59999 c 6.98666,0 11.89333,-5.38667 11.89333,-12 0,-6.45333 -4.90667,-11.78666 -11.94666,-11.78666 h -12.85333 c -0.58666,0 -1.01333,0.48 -1.01333,1.01334 z m 8.32,-20.31999 v -8.15999 h 5.38666 c 2.29333,0 3.89333,1.70666 3.89333,3.94666 0,2.4 -1.6,4.21333 -3.89333,4.21333 z m 22.87993,20.31999 c 0,0.53333 0.42667,1.01333 1.01333,1.01333 h 22.07999 c 0.58666,0 1.01333,-0.48 1.01333,-1.01333 v -5.81333 c 0,-0.53333 -0.42667,-1.01333 -1.01333,-1.01333 h -14.77333 v -7.2 h 12.16 c 0.53333,0 1.01333,-0.42666 1.01333,-1.01333 v -5.81333 c 0,-0.53333 -0.48,-1.01333 -1.01333,-1.01333 h -12.16 v -6.61333 h 14.77333 c 0.58666,0 1.01333,-0.48 1.01333,-1.01333 V 391.68 c 0,-0.53334 -0.42667,-1.01334 -1.01333,-1.01334 h -22.07999 c -0.58666,0 -1.01333,0.48 -1.01333,1.01334 z m 30.8266,0 c 0,0.53333 0.42666,1.01333 1.01333,1.01333 h 6.34666 c 0.53334,0 1.01334,-0.48 1.01334,-1.01333 v -13.59999 h 3.67999 l 7.09333,14.13332 c 0.10667,0.21334 0.42667,0.48 0.85334,0.48 h 7.09333 c 0.90666,0 1.27999,-0.85333 0.90666,-1.54666 l -7.30666,-13.54666 c 4.96,-1.86667 7.89333,-5.81333 7.89333,-10.71999 0,-6.34667 -4.85333,-11.52 -11.62666,-11.52 h -15.94666 c -0.58667,0 -1.01333,0.48 -1.01333,1.01334 z m 8.37333,-20.37332 v -8.32 h 7.89332 c 2.18667,0 4.05334,1.54667 4.05334,4.05334 0,2.50666 -1.86667,4.26666 -4.05334,4.26666 z m 32.74658,20.37332 c 0,0.53333 0.48,1.01333 1.01333,1.01333 h 6.4 c 0.53333,0 1.01333,-0.48 1.01333,-1.01333 v -28.47998 h 7.62666 c 0.58667,0 1.01333,-0.48 1.01333,-1.01333 V 391.68 c 0,-0.53334 -0.42666,-1.01334 -1.01333,-1.01334 h -23.67998 c -0.58667,0 -1.01334,0.48 -1.01334,1.01334 v 5.81333 c 0,0.53333 0.42667,1.01333 1.01334,1.01333 h 7.62666 z m 30.29323,0 c 0,0.53333 0.42667,1.01333 1.01334,1.01333 h 6.34666 c 0.53333,0 1.01333,-0.48 1.01333,-1.01333 v -17.01332 l 11.94666,-17.75999 c 0.42667,-0.69333 0,-1.54667 -0.85333,-1.54667 h -6.93333 c -0.48,0 -0.69333,0.26667 -0.85333,0.48 l -7.41333,10.93333 -7.41333,-10.93333 c -0.16,-0.21333 -0.42667,-0.48 -0.85333,-0.48 h -6.93333 c -0.85334,0 -1.28,0.85334 -0.85334,1.54667 l 11.78666,17.81332 z"
       aria-label="PROPERTY"
       color="#000000"
       font-family="'Brandon Text'"
       font-size="53.3333px"
       font-weight="500"
       style="-inkscape-font-specification:'Brandon Text, Medium';-inkscape-stroke:none"
       transform="matrix(0.26458,0,0,0.26458,31.833766,6.8438898)"
       id="path8" /></g><path
     d="M29.729967 92.72937c-.219979-.21998-.399979-14.5539-.399979-31.853128V29.423095l4.582138-6.244881c2.713893-3.698695 4.999774-6.244881 5.606442-6.244881.61377 0 2.865164 2.558345 5.617334 6.383186l4.593032 6.383189V40.33211h7.799598V29.699708l4.59303-6.383189c2.719026-3.778777 5.006515-6.383186 5.606443-6.383186.599929 0 2.887418 2.604409 5.606441 6.383186l4.593032 6.383189V40.33211h7.799597V29.725969l4.611477-6.396318c2.70445-3.751188 5.02744-6.396318 5.617335-6.396318.583331 0 2.932895 2.626309 5.593323 6.252142l4.58747 6.252144-.15531 31.695873-.15531 31.695878-9.55435.16576c-7.241709.12564-9.671976-.0197-10.040296-.59997-.267268-.42115-.490076-2.58813-.495128-4.81552l-.0093-4.04978h-7.799597v3.85072c0 6.10801.637366 5.74877-10.199474 5.74877-10.836839 0-10.199474.35924-10.199474-5.74877v-3.85073h-7.799508v3.85073c0 6.10663.632694 5.74877-10.163669 5.74877-5.189426 0-9.615311-.17998-9.8353-.39998zm16.399152-32.464794V30.399643l-3.010153-4.183287c-1.655584-2.30081-3.235613-4.259989-3.511175-4.353732-.27556-.09374-1.89084 1.734397-3.589505 4.062533l-3.088484 4.232978V90.12951h13.199317zM38.129532 77.13019c-.732579-.73259-.412433-3.04257.530086-3.824794 1.37878-1.144284 2.959093.590384 2.43612 2.674074-.36963 1.47271-2.008442 2.10848-2.966206 1.15072zm0-26.398624c-.732579-.732579-.412433-3.04257.530086-3.824791 1.37878-1.144285 2.959093.590385 2.43612 2.674069-.36963 1.472719-2.008442 2.108486-2.966206 1.150722zm36.198132 9.515656V30.364937l-3.040735-4.315928c-1.672404-2.373758-3.24025-4.315926-3.4841-4.315926-.243849 0-1.777869 1.815657-3.40893 4.034792l-2.965569 4.034791-.299985 6.614652-.299983 6.614651-5.699707.299985-5.699707.299983-.17524 4.649757-.175217 4.649758h8.977576l.186215-2.249884c.147961-1.787833.432635-2.249881 1.386148-2.249881 1.173891 0 1.203363.452567 1.357705 20.848909l.157756 20.848914h13.183771zM66.161726 75.97947c-.263109-1.04831-.07245-1.86746.588539-2.528444.903673-.903672 1.051806-.903672 1.955478 0 .660979.660984.85165 1.480134.58854 2.528444-.52814 2.10427-2.604415 2.10427-3.132557 0zm0-26.398626c-.263109-1.048312-.07245-1.867462.588539-2.528437.903673-.903674 1.051806-.903674 1.955478 0 1.316514 1.316511.654332 4.079139-.977738 4.079139-.765459 0-1.313179-.542271-1.566279-1.550702zm36.364484 10.562978V30.158135l-3.073567-4.212526c-1.690459-2.316889-3.261388-4.212526-3.490956-4.212526-.229564 0-1.748813 1.822405-3.376104 4.049787l-2.958709 4.04979-.299985 22.498822-.299985 22.498828-1.311525.18669c-1.126303.16032-1.338131-.13624-1.499922-2.099892l-.188392-2.286582h-8.399567v8.999534l5.699706.29998 5.699704.29998.174265 4.94975.174265 4.94974h13.150792zM94.444917 76.38787c-.39821-1.25466.540767-3.657455 1.429277-3.657455.966005 0 1.943204 1.742095 1.748322 3.116815-.260699 1.83904-2.637168 2.24337-3.177599.54064zm-.07488-26.768075c-.540103-2.151946 1.031083-3.870983 2.456677-2.687845 1.40776 1.168337.929135 3.852774-.728977 4.088552-1.011605.143856-1.423947-.190456-1.7277-1.400707zM57.828512 75.13029v-4.499764h-8.399568l-.175716 4.676564-.175716 4.67656 4.375496-.17681 4.375495-.17678zm-.299984-13.199309v-5.399717H49.72893v10.799433h7.799598zm28.198543.599968v-4.79975h-7.799597v9.599498h7.799597zm.473336-13.649287-.173358-5.249725h-8.399567l-.178165 4.443617c-.09801 2.44399-.03898 4.806367.131158 5.249725.218597.569657 1.55361.806109 4.551304.806109h4.24197z"
     id="path12" /></svg>
