<svg xmlns="http://www.w3.org/2000/svg" width="512" height="512" viewBox="0 0 135.46666 135.46667">
  <path fill-rule="evenodd" d="M16.933335 0H118.53333c9.38107 0 16.93333 7.5522663 16.93333 16.933332V118.53333c0 9.38106-7.55226 16.93333-16.93333 16.93333H16.933335c-9.381066 0-16.93333227-7.55227-16.93333227-16.93333V16.933332C.00000273 7.5522663 7.552269 0 16.933335 0Z" color="#000" style="-inkscape-stroke:none"/>
  <path fill="#1fe545" fill-rule="evenodd" d="M16.933332 8.5685921H118.53333c4.69054 0 8.46667 3.7761329 8.46667 8.4666659v84.666662c0 4.69054-3.77613 8.46667-8.46667 8.46667H16.933332c-4.690533 0-8.4666658-3.77613-8.4666658-8.46667V17.035258c0-4.690533 3.7761328-8.4666659 8.4666658-8.4666659z" color="#000" style="-inkscape-stroke:none"/>
  <path fill-rule="evenodd" d="M8.4666689 101.60001H127c4.69053 0 8.46666 3.77614 8.46666 8.46667v8.46667c0 4.69053-3.77613 8.46666-8.46666 8.46666H8.4666689c-4.690533 0-8.46666617-3.77613-8.46666617-8.46666v-8.46667c0-4.69053 3.77613317-8.46667 8.46666617-8.46667z" color="#000" style="-inkscape-stroke:none"/>
  <g style="-inkscape-font-specification:'Brandon Text, Medium';white-space:pre">
    <path fill="#fff" d="M4.2133308 426.98664c0 .53333.4266664 1.01333 1.0133328 1.01333h6.2933294c.533333 0 1.013333-.48 1.013333-1.01333v-12.53332h5.599997c6.986662 0 11.893326-5.38667 11.893326-12 0-6.45333-4.906664-11.78666-11.94666-11.78666H5.2266636c-.5866664 0-1.0133328.48-1.0133328 1.01334zm8.3199952-20.31999v-8.15999h5.386663c2.293332 0 3.893331 1.70666 3.893331 3.94666 0 2.4-1.599999 4.21333-3.893331 4.21333zm22.879937 20.31999c0 .53333.426666 1.01333 1.013333 1.01333h6.346663c.533333 0 1.013332-.48 1.013332-1.01333v-13.59999h3.679998l7.093329 14.13332c.106667.21334.426667.48.853333.48h7.093329c.906666 0 1.279999-.85333.906666-1.54666l-7.306662-13.54666c4.959997-1.86667 7.893329-5.81333 7.893329-10.71999 0-6.34667-4.853331-11.52-11.62666-11.52H36.426596c-.586667 0-1.013333.48-1.013333 1.01334zm8.373328-20.37332v-8.32h7.893329c2.186665 0 4.053331 1.54667 4.053331 4.05334 0 2.50666-1.866666 4.26666-4.053331 4.26666zm24.799923 2.77333c0 10.66666 8.479995 19.14666 19.146656 19.14666 10.66666 0 19.19999-8.48 19.19999-19.14666s-8.53333-19.25332-19.19999-19.25332c-10.666661 0-19.146656 8.58666-19.146656 19.25332zm8.533329 0c0-5.86666 4.799997-10.71999 10.613327-10.71999 5.866663 0 10.66666 4.85333 10.66666 10.71999 0 5.81333-4.799997 10.61333-10.66666 10.61333-5.81333 0-10.613327-4.8-10.613327-10.61333zm36.106587 17.59999c0 .53333.42667 1.01333 1.01333 1.01333h6.29333c.53334 0 1.01334-.48 1.01334-1.01333v-12.53332h5.59999c6.98666 0 11.89333-5.38667 11.89333-12 0-6.45333-4.90667-11.78666-11.94666-11.78666h-12.85333c-.58666 0-1.01333.48-1.01333 1.01334zm8.32-20.31999v-8.15999h5.38666c2.29333 0 3.89333 1.70666 3.89333 3.94666 0 2.4-1.6 4.21333-3.89333 4.21333zm22.87993 20.31999c0 .53333.42667 1.01333 1.01333 1.01333h22.07999c.58666 0 1.01333-.48 1.01333-1.01333v-5.81333c0-.53333-.42667-1.01333-1.01333-1.01333h-14.77333v-7.2h12.16c.53333 0 1.01333-.42666 1.01333-1.01333v-5.81333c0-.53333-.48-1.01333-1.01333-1.01333h-12.16v-6.61333h14.77333c.58666 0 1.01333-.48 1.01333-1.01333V391.68c0-.53334-.42667-1.01334-1.01333-1.01334h-22.07999c-.58666 0-1.01333.48-1.01333 1.01334zm30.8266 0c0 .53333.42666 1.01333 1.01333 1.01333h6.34666c.53334 0 1.01334-.48 1.01334-1.01333v-13.59999h3.67999l7.09333 14.13332c.10667.21334.42667.48.85334.48h7.09333c.90666 0 1.27999-.85333.90666-1.54666l-7.30666-13.54666c4.96-1.86667 7.89333-5.81333 7.89333-10.71999 0-6.34667-4.85333-11.52-11.62666-11.52h-15.94666c-.58667 0-1.01333.48-1.01333 1.01334zm8.37333-20.37332v-8.32h7.89332c2.18667 0 4.05334 1.54667 4.05334 4.05334 0 2.50666-1.86667 4.26666-4.05334 4.26666zm32.74658 20.37332c0 .53333.48 1.01333 1.01333 1.01333h6.4c.53333 0 1.01333-.48 1.01333-1.01333v-28.47998h7.62666c.58667 0 1.01333-.48 1.01333-1.01333V391.68c0-.53334-.42666-1.01334-1.01333-1.01334h-23.67998c-.58667 0-1.01334.48-1.01334 1.01334v5.81333c0 .53333.42667 1.01333 1.01334 1.01333h7.62666zm30.29323 0c0 .53333.42667 1.01333 1.01334 1.01333h6.34666c.53333 0 1.01333-.48 1.01333-1.01333v-17.01332l11.94666-17.75999c.42667-.69333 0-1.54667-.85333-1.54667h-6.93333c-.48 0-.69333.26667-.85333.48l-7.41333 10.93333-7.41333-10.93333c-.16-.21333-.42667-.48-.85333-.48h-6.93333c-.85334 0-1.28.85334-.85334 1.54667l11.78666 17.81332z" aria-label="PROPERTY" color="#000" font-family="Brandon Text" font-size="53.3333px" font-weight="500" style="-inkscape-font-specification:'Brandon Text, Medium';-inkscape-stroke:none" transform="translate(31.833766 6.8438898) scale(.26458)"/>
  </g>
  <path d="M29.729967 92.72937c-.219979-.21998-.399979-14.5539-.399979-31.853128V29.423095l4.582138-6.244881c2.713893-3.698695 4.999774-6.244881 5.606442-6.244881.61377 0 2.865164 2.558345 5.617334 6.383186l4.593032 6.383189V40.33211h7.799598V29.699708l4.59303-6.383189c2.719026-3.778777 5.006515-6.383186 5.606443-6.383186.599929 0 2.887418 2.604409 5.606441 6.383186l4.593032 6.383189V40.33211h7.799597V29.725969l4.611477-6.396318c2.70445-3.751188 5.02744-6.396318 5.617335-6.396318.583331 0 2.932895 2.626309 5.593323 6.252142l4.58747 6.252144-.15531 31.695873-.15531 31.695878-9.55435.16576c-7.241709.12564-9.671976-.0197-10.040296-.59997-.267268-.42115-.490076-2.58813-.495128-4.81552l-.0093-4.04978h-7.799597v3.85072c0 6.10801.637366 5.74877-10.199474 5.74877-10.836839 0-10.199474.35924-10.199474-5.74877v-3.85073h-7.799508v3.85073c0 6.10663.632694 5.74877-10.163669 5.74877-5.189426 0-9.615311-.17998-9.8353-.39998zm16.399152-32.464794V30.399643l-3.010153-4.183287c-1.655584-2.30081-3.235613-4.259989-3.511175-4.353732-.27556-.09374-1.89084 1.734397-3.589505 4.062533l-3.088484 4.232978V90.12951h13.199317zM38.129532 77.13019c-.732579-.73259-.412433-3.04257.530086-3.824794 1.37878-1.144284 2.959093.590384 2.43612 2.674074-.36963 1.47271-2.008442 2.10848-2.966206 1.15072zm0-26.398624c-.732579-.732579-.412433-3.04257.530086-3.824791 1.37878-1.144285 2.959093.590385 2.43612 2.674069-.36963 1.472719-2.008442 2.108486-2.966206 1.150722zm36.198132 9.515656V30.364937l-3.040735-4.315928c-1.672404-2.373758-3.24025-4.315926-3.4841-4.315926-.243849 0-1.777869 1.815657-3.40893 4.034792l-2.965569 4.034791-.299985 6.614652-.299983 6.614651-5.699707.299985-5.699707.299983-.17524 4.649757-.175217 4.649758h8.977576l.186215-2.249884c.147961-1.787833.432635-2.249881 1.386148-2.249881 1.173891 0 1.203363.452567 1.357705 20.848909l.157756 20.848914h13.183771zM66.161726 75.97947c-.263109-1.04831-.07245-1.86746.588539-2.528444.903673-.903672 1.051806-.903672 1.955478 0 .660979.660984.85165 1.480134.58854 2.528444-.52814 2.10427-2.604415 2.10427-3.132557 0zm0-26.398626c-.263109-1.048312-.07245-1.867462.588539-2.528437.903673-.903674 1.051806-.903674 1.955478 0 1.316514 1.316511.654332 4.079139-.977738 4.079139-.765459 0-1.313179-.542271-1.566279-1.550702zm36.364484 10.562978V30.158135l-3.073567-4.212526c-1.690459-2.316889-3.261388-4.212526-3.490956-4.212526-.229564 0-1.748813 1.822405-3.376104 4.049787l-2.958709 4.04979-.299985 22.498822-.299985 22.498828-1.311525.18669c-1.126303.16032-1.338131-.13624-1.499922-2.099892l-.188392-2.286582h-8.399567v8.999534l5.699706.29998 5.699704.29998.174265 4.94975.174265 4.94974h13.150792zM94.444917 76.38787c-.39821-1.25466.540767-3.657455 1.429277-3.657455.966005 0 1.943204 1.742095 1.748322 3.116815-.260699 1.83904-2.637168 2.24337-3.177599.54064zm-.07488-26.768075c-.540103-2.151946 1.031083-3.870983 2.456677-2.687845 1.40776 1.168337.929135 3.852774-.728977 4.088552-1.011605.143856-1.423947-.190456-1.7277-1.400707zM57.828512 75.13029v-4.499764h-8.399568l-.175716 4.676564-.175716 4.67656 4.375496-.17681 4.375495-.17678zm-.299984-13.199309v-5.399717H49.72893v10.799433h7.799598zm28.198543.599968v-4.79975h-7.799597v9.599498h7.799597zm.473336-13.649287-.173358-5.249725h-8.399567l-.178165 4.443617c-.09801 2.44399-.03898 4.806367.131158 5.249725.218597.569657 1.55361.806109 4.551304.806109h4.24197z"/>
</svg>
