<?xml version="1.0" encoding="UTF-8" standalone="no"?>
<svg
   width="512"
   height="512"
   viewBox="0 0 135.46666 135.46667"
   version="1.1"
   id="svg14"
   sodipodi:docname="restriction.svg"
   xml:space="preserve"
   inkscape:version="1.2 (dc2aedaf03, 2022-05-15)"
   xmlns:inkscape="http://www.inkscape.org/namespaces/inkscape"
   xmlns:sodipodi="http://sodipodi.sourceforge.net/DTD/sodipodi-0.dtd"
   xmlns="http://www.w3.org/2000/svg"
   xmlns:svg="http://www.w3.org/2000/svg"><defs
     id="defs18"><rect
       x="128.47232"
       y="1534.1107"
       width="1703.2304"
       height="420.79972"
       id="rect377" /><rect
       x="128.47232"
       y="1534.1107"
       width="1442.088"
       height="411.57035"
       id="rect6519" /><rect
       x="458.85301"
       y="1631.1052"
       width="1235.8888"
       height="318.18275"
       id="rect353" /><rect
       x="128.47232"
       y="1534.1107"
       width="1919.5277"
       height="513.8893"
       id="rect358" /><path
       id="a"
       d="M128 1536h1841v529H128z" /><rect
       x="128.47232"
       y="1534.1107"
       width="1703.2304"
       height="420.79972"
       id="rect377-0" /><rect
       x="128.47232"
       y="1534.1107"
       width="1442.088"
       height="411.57035"
       id="rect6519-6" /><rect
       x="458.85301"
       y="1631.1052"
       width="1235.8888"
       height="318.18275"
       id="rect353-9" /><rect
       x="128.47232"
       y="1534.1107"
       width="1919.5277"
       height="513.8893"
       id="rect358-9" /><path
       id="a-5"
       d="M128 1536h1841v529H128z" /></defs><sodipodi:namedview
     id="namedview16"
     pagecolor="#505050"
     bordercolor="#eeeeee"
     borderopacity="1"
     inkscape:showpageshadow="0"
     inkscape:pageopacity="0"
     inkscape:pagecheckerboard="0"
     inkscape:deskcolor="#505050"
     showgrid="false"
     inkscape:zoom="0.77441738"
     inkscape:cx="149.14438"
     inkscape:cy="256.96737"
     inkscape:window-width="1366"
     inkscape:window-height="705"
     inkscape:window-x="-8"
     inkscape:window-y="-8"
     inkscape:window-maximized="1"
     inkscape:current-layer="g483" /><g
     id="g483"
     transform="matrix(0.24993507,0,0,0.24993507,4.6222024e-4,9.2506936e-4)"><path
       fill-rule="evenodd"
       d="M 406,0 A 135,135 0 0 1 542,135 V 406 A 135,135 0 0 1 406,542 H 0 V 0 Z"
       style="font-variation-settings:normal;-inkscape-stroke:none"
       id="path5-0" /><path
       fill="#ffc000"
       d="M 406,34 A 102,102 0 0 1 508,135 V 406 H 34 V 34 Z"
       color="#000000"
       style="fill:#2876ff;fill-opacity:1"
       id="path7-4" /></g><g
     style="-inkscape-font-specification:'Brandon Text, Medium';white-space:pre"
     id="g10"
     transform="translate(0,3.3248486)"><path
       fill="#ffffff"
       d="m 4.2133308,426.98664 c 0,0.53333 0.4266664,1.01333 1.0133328,1.01333 h 6.3466624 c 0.533333,0 1.013333,-0.48 1.013333,-1.01333 v -13.59999 h 3.679998 l 7.093329,14.13332 c 0.106667,0.21334 0.426666,0.48 0.853333,0.48 h 7.093329 c 0.906666,0 1.279999,-0.85333 0.906666,-1.54666 l -7.306662,-13.54666 c 4.959997,-1.86667 7.893328,-5.81333 7.893328,-10.71999 0,-6.34667 -4.85333,-11.52 -11.626659,-11.52 H 5.2266636 c -0.5866664,0 -1.0133328,0.48 -1.0133328,1.01334 z m 8.3733282,-20.37332 v -8.32 h 7.893329 c 2.186665,0 4.053331,1.54667 4.053331,4.05334 0,2.50666 -1.866666,4.26666 -4.053331,4.26666 z m 26.933251,20.37332 c 0,0.53333 0.426667,1.01333 1.013333,1.01333 H 62.61323 c 0.586666,0 1.013333,-0.48 1.013333,-1.01333 v -5.81333 c 0,-0.53333 -0.426667,-1.01333 -1.013333,-1.01333 H 47.839905 v -7.2 h 12.159993 c 0.533333,0 1.013333,-0.42666 1.013333,-1.01333 v -5.81333 c 0,-0.53333 -0.48,-1.01333 -1.013333,-1.01333 H 47.839905 v -6.61333 H 62.61323 c 0.586666,0 1.013333,-0.48 1.013333,-1.01333 V 391.68 c 0,-0.53334 -0.426667,-1.01334 -1.013333,-1.01334 H 40.533243 c -0.586666,0 -1.013333,0.48 -1.013333,1.01334 z m 41.439927,1.54667 c 7.839995,0 12.586659,-5.54667 12.586659,-11.04 0,-7.25333 -6.079997,-9.86666 -10.773327,-12.15999 -3.733331,-1.81333 -5.81333,-3.2 -5.81333,-4.96 0,-1.54666 1.013333,-2.93333 3.253331,-2.93333 2.826665,0 5.97333,2.02667 7.199996,2.88 1.066666,0.64 1.973332,0.21333 2.346665,-0.37333 l 2.719999,-4.10667 c 0.213333,-0.37333 0.319999,-1.33333 -0.32,-1.70666 -1.599999,-1.17334 -5.866663,-4 -11.413327,-4 -8.213328,0 -12.319992,5.33333 -12.319992,10.61333 0,6.39999 5.17333,9.27999 10.34666,11.78666 3.519998,1.70666 5.49333,3.14666 5.49333,5.38666 0,1.86667 -1.546666,3.2 -3.679998,3.2 -3.359998,0 -6.079996,-1.92 -7.573328,-2.93333 -0.533333,-0.37334 -1.386666,-0.37334 -1.813333,0.32 l -2.453332,4.31999 c -0.373333,0.69334 -0.213333,1.17334 0.213334,1.6 1.226666,1.22667 5.066663,4.10667 11.999993,4.10667 z m 24.693293,-1.54667 c 0,0.53333 0.48,1.01333 1.01333,1.01333 h 6.39999 c 0.53334,0 1.01334,-0.48 1.01334,-1.01333 v -28.47998 h 7.62666 c 0.58667,0 1.01333,-0.48 1.01333,-1.01333 V 391.68 c 0,-0.53334 -0.42666,-1.01334 -1.01333,-1.01334 H 98.026463 c -0.586666,0 -1.013332,0.48 -1.013332,1.01334 v 5.81333 c 0,0.53333 0.426666,1.01333 1.013332,1.01333 h 7.626667 z m 22.66657,0 c 0,0.53333 0.42667,1.01333 1.01333,1.01333 h 6.34667 c 0.53333,0 1.01333,-0.48 1.01333,-1.01333 v -13.59999 h 3.68 l 7.09333,14.13332 c 0.10666,0.21334 0.42666,0.48 0.85333,0.48 h 7.09333 c 0.90666,0 1.28,-0.85333 0.90666,-1.54666 l -7.30666,-13.54666 c 4.96,-1.86667 7.89333,-5.81333 7.89333,-10.71999 0,-6.34667 -4.85333,-11.52 -11.62666,-11.52 h -15.94666 c -0.58666,0 -1.01333,0.48 -1.01333,1.01334 z m 8.37333,-20.37332 v -8.32 h 7.89333 c 2.18666,0 4.05333,1.54667 4.05333,4.05334 0,2.50666 -1.86667,4.26666 -4.05333,4.26666 z m 26.93325,20.37332 c 0,0.53333 0.48,1.01333 1.01333,1.01333 h 6.4 c 0.53333,0 1.01333,-0.48 1.01333,-1.01333 V 391.68 c 0,-0.53334 -0.48,-1.01334 -1.01333,-1.01334 h -6.4 c -0.53333,0 -1.01333,0.48 -1.01333,1.01334 z m 14.71998,-17.59999 c 0,10.66666 8.58667,19.14666 19.25333,19.14666 4.74666,0 9.33332,-1.65334 12.95999,-5.17333 0.37333,-0.37334 0.42667,-1.06667 0.0533,-1.44 l -4.16,-4.42667 c -0.32,-0.37333 -1.01333,-0.37333 -1.38666,-0.0533 -1.92,1.65333 -4.21333,2.56 -7.14666,2.56 -6.02667,0 -10.50666,-4.90667 -10.50666,-10.82666 0,-5.97333 4.42666,-10.98666 10.45332,-10.98666 2.61333,0 5.01333,0.8 7.2,2.72 0.37333,0.37333 0.96,0.37333 1.33333,0 l 4.16,-4.32 c 0.42667,-0.42667 0.42667,-1.06667 -0.0533,-1.49333 -3.62667,-3.30667 -7.57333,-4.96 -12.90666,-4.96 -10.66666,0 -19.25333,8.58666 -19.25333,19.25332 z m 44.15992,17.59999 c 0,0.53333 0.48,1.01333 1.01334,1.01333 h 6.39999 c 0.53334,0 1.01334,-0.48 1.01334,-1.01333 v -28.47998 h 7.62666 c 0.58666,0 1.01333,-0.48 1.01333,-1.01333 V 391.68 c 0,-0.53334 -0.42667,-1.01334 -1.01333,-1.01334 h -23.67999 c -0.58667,0 -1.01333,0.48 -1.01333,1.01334 v 5.81333 c 0,0.53333 0.42666,1.01333 1.01333,1.01333 h 7.62666 z m 22.66658,0 c 0,0.53333 0.48,1.01333 1.01333,1.01333 h 6.4 c 0.53333,0 1.01333,-0.48 1.01333,-1.01333 V 391.68 c 0,-0.53334 -0.48,-1.01334 -1.01333,-1.01334 h -6.4 c -0.53333,0 -1.01333,0.48 -1.01333,1.01334 z m 14.71998,-17.59999 c 0,10.66666 8.48,19.14666 19.14666,19.14666 10.66666,0 19.19999,-8.48 19.19999,-19.14666 0,-10.66666 -8.53333,-19.25332 -19.19999,-19.25332 -10.66666,0 -19.14666,8.58666 -19.14666,19.25332 z m 8.53333,0 c 0,-5.86666 4.8,-10.71999 10.61333,-10.71999 5.86666,0 10.66666,4.85333 10.66666,10.71999 0,5.81333 -4.8,10.61333 -10.66666,10.61333 -5.81333,0 -10.61333,-4.8 -10.61333,-10.61333 z m 36.1066,17.59999 c 0,0.53333 0.48,1.01333 1.01333,1.01333 h 6.34666 c 0.58667,0 1.01334,-0.48 1.01334,-1.01333 v -19.89332 h 0.0533 l 20.74665,20.85332 c 0.42667,0.42667 0.8,0.58667 1.33334,0.58667 h 0.53333 c 0.53333,0 1.01333,-0.32 1.01333,-0.96 V 391.68 c 0,-0.53334 -0.48,-1.01334 -1.01333,-1.01334 h -6.4 c -0.58666,0 -1.01333,0.48 -1.01333,1.01334 v 18.93332 h -0.0533 L 307.626,390.93333 c -0.42667,-0.42667 -0.8,-0.8 -1.33333,-0.8 h -0.8 c -0.53334,0 -1.01334,0.42667 -1.01334,0.96 z"
       aria-label="RESTRICTION"
       color="#000000"
       font-family="'Brandon Text'"
       font-size="53.3333px"
       font-weight="500"
       style="-inkscape-font-specification:'Brandon Text, Medium';-inkscape-stroke:none"
       transform="matrix(0.26458,0,0,0.26458,22.648424,6.8438898)"
       id="path8" /></g><path
     d="M59.108804 91.576036c-1.183774-1.50492-1.238963-2.29229-1.238963-17.67628V57.79856l-1.345019.191027c-1.17046.166221-1.394597.6527-1.727022 3.748409-.579187 5.39363-3.715363 7.34425-6.818608 4.24101-1.353884-1.35389-1.467295-1.91044-1.467295-7.200613 0-5.290175.11342-5.846726 1.467295-7.20061.807012-.807014 1.87154-1.467295 2.365619-1.467295.760475 0 .925177-1.693056 1.073298-11.033016l.174964-11.033013-1.79336-.175484c-1.74024-.170287-1.798669-.277292-1.972637-3.612756l-.179279-3.437275h16.124151l.187323-1.942804.187322-1.942807h7.173439l.187323 1.942807.187322 1.942804h16.124152l-.17928 3.437275c-.172728 3.311619-.245458 3.448198-1.989618 3.736164l-1.810341.298894.02101 10.663334.02101 10.663334 1.891723.795409c2.675834 1.125102 3.181434 2.482938 3.181434 8.544015 0 4.495917-.195591 5.587427-1.23896 6.913847-1.445975 1.83825-3.448517 2.02866-5.328173.50661-1.041866-.84365-1.338807-1.75556-1.411244-4.33395-.09451-3.363817-.529055-4.137221-2.33344-4.153009-.970578-.0086-1.046127 1.150627-1.046127 16.050459 0 15.34193-.05538 16.13002-1.23896 17.63471-1.529474 1.94441-4.089283 2.08754-5.692382.31827-.945965-1.04401-1.189384-2.4863-1.437668-8.51846-.278391-6.76348-.380911-7.26164-1.494468-7.26164-1.113571 0-1.216073.49816-1.494466 7.26306-.248325 6.03428-.491555 7.47546-1.43767 8.51846-1.6035 1.76771-4.163525 1.62394-5.69238-.31969zm4.141116-9.13364c.331727-8.12978.773421-9.01824 4.4834-9.01824 3.714765 0 4.151688.88353 4.483398 9.06611.244144 6.02244.463149 7.37303 1.195575 7.37303.769564 0 .939052-2.45757 1.195573-17.33582l.298893-17.335803 2.912958.103071c5.567969.197038 5.677905.287329 5.877185 4.827042.145209 3.30816.366924 4.0606 1.245852 4.22821.974524.18586 1.053921-.28631.89668-5.332291-.196157-6.294649.152732-5.938659-6.588996-6.723173l-3.427547-.398854-.870432 2.083243c-2.469333 5.909945-11.968943 5.909945-14.438276 0l-.870435-2.083232-3.427546.398854c-6.74949.785418-6.41648.446678-6.41648 6.526858 0 4.345535.166583 5.337065.89668 5.337065.690921 0 .937217-.92487 1.073336-4.03049.199276-4.546737.307999-4.636142 5.877185-4.83322l2.912958-.103072.151557 16.738032c.08337 9.20591.285255 17.09664.448655 17.53496.163396.43832.633206.68579 1.044012.54992.520615-.17219.837478-2.46642 1.045811-7.57219zm7.725362-27.901649c2.300704-1.935916 2.537105-5.104811.539448-7.231217-1.779204-1.893877-2.184529-1.748964-2.400303.858151-.147423 1.781331-.431064 2.241698-1.381107 2.241698-.950041 0-1.233674-.460367-1.381103-2.241698-.215429-2.602964-.447847-2.697464-2.316536-.941923-2.116272 1.988136-1.90836 5.325782.455678 7.314989 1.011574.851184 2.470457 1.547605 3.241961 1.547605.771504 0 2.230388-.696421 3.241962-1.547605zm-10.300532-7.56864c.928596-1.397325 2.554578-2.944099 3.613292-3.437273l1.924938-.89668.01288-5.459804c.01175-4.962813-.09591-5.488266-1.182646-5.772454-.807896-.211272-1.195571-.815391-1.195571-1.863081 0-1.539515-.03366-1.550432-4.782294-1.550432h-4.782293V49.5127h2.351636c2.103263 0 2.529952-.268328 4.039992-2.540593zm20.508768-8.219566V27.992383h-4.782291c-4.748623 0-4.782294.01085-4.782294 1.550432 0 1.04769-.387676 1.651809-1.195574 1.863081-1.088418.284626-1.195571.815391-1.195571 5.921901 0 4.74329.14767 5.609252.956458 5.609252.844674 0 2.829132 1.842708 5.858308 5.439857.604078.717344 1.727288 1.135794 3.04871 1.135794h2.092254zM68.741573 27.24515l.187322-1.942806 8.219566-.166311c6.688119-.135336 8.219564-.327095 8.219564-1.029257 0-.702161-1.531445-.89393-8.219564-1.029256l-8.219566-.16631-.189152-1.643913c-.245461-2.133266-1.767382-2.133266-2.01284 0l-.189153 1.643913-8.219566.16631c-6.688119.135335-8.219565.327097-8.219565 1.029259 0 .702161 1.531446.893927 8.219565 1.029256l8.219566.166311.187323 1.942806c.111635 1.157805.519023 1.942807 1.008251 1.942807.489229 0 .896619-.785002 1.008254-1.942807z"
     id="path12" /><g
     id="g337"
     transform="matrix(0.24993507,0,0,0.24993507,-279.13491,-199.5303)"><path
       fill-rule="evenodd"
       d="M 406,0 A 135,135 0 0 1 542,135 V 406 A 135,135 0 0 1 406,542 H 0 V 0 Z"
       style="font-variation-settings:normal;-inkscape-stroke:none"
       id="path5" /><path
       fill="#ffc000"
       d="M 406,34 A 102,102 0 0 1 508,135 V 406 H 34 V 34 Z"
       color="#000000"
       style="fill:#ffffff;fill-opacity:1"
       id="path7" /></g></svg>
