<svg width="512" height="512" viewBox="0 0 135.467 135.467" xml:space="preserve" xmlns="http://www.w3.org/2000/svg"><path fill-rule="evenodd" d="M406 0a135 135 0 0 1 136 135v271a135 135 0 0 1-136 136H0V0Z" style="font-variation-settings:normal;-inkscape-stroke:none" transform="matrix(.24994 0 0 .24994 0 0)"/><path fill="#ffc000" d="M406 34a102 102 0 0 1 102 101v271H34V34Z" color="#000" style="fill:#2876ff;fill-opacity:1" transform="matrix(.24994 0 0 .24994 0 0)"/><g style="-inkscape-font-specification:'Brandon Text, Medium';white-space:pre"><path fill="#fff" d="M4.213 426.987c0 .533.427 1.013 1.014 1.013h6.346c.534 0 1.014-.48 1.014-1.013v-13.6h3.68l7.093 14.133c.107.213.427.48.853.48h7.094c.906 0 1.28-.853.906-1.547l-7.306-13.546c4.96-1.867 7.893-5.814 7.893-10.72 0-6.347-4.853-11.52-11.627-11.52H5.227c-.587 0-1.014.48-1.014 1.013zm8.374-20.374v-8.32h7.893c2.187 0 4.053 1.547 4.053 4.054 0 2.506-1.866 4.266-4.053 4.266zm26.933 20.374c0 .533.427 1.013 1.013 1.013h22.08c.587 0 1.014-.48 1.014-1.013v-5.814c0-.533-.427-1.013-1.014-1.013H47.84v-7.2H60c.533 0 1.013-.427 1.013-1.013v-5.814c0-.533-.48-1.013-1.013-1.013H47.84v-6.613h14.773c.587 0 1.014-.48 1.014-1.014v-5.813c0-.533-.427-1.013-1.014-1.013h-22.08c-.586 0-1.013.48-1.013 1.013zm41.44 1.546c7.84 0 12.586-5.546 12.586-11.04 0-7.253-6.08-9.866-10.773-12.16-3.733-1.813-5.813-3.2-5.813-4.96 0-1.546 1.013-2.933 3.253-2.933 2.827 0 5.974 2.027 7.2 2.88 1.067.64 1.973.213 2.347-.373l2.72-4.107c.213-.373.32-1.333-.32-1.707-1.6-1.173-5.867-4-11.413-4-8.214 0-12.32 5.334-12.32 10.614 0 6.4 5.173 9.28 10.346 11.786 3.52 1.707 5.494 3.147 5.494 5.387 0 1.867-1.547 3.2-3.68 3.2-3.36 0-6.08-1.92-7.574-2.933-.533-.374-1.386-.374-1.813.32l-2.453 4.32c-.374.693-.214 1.173.213 1.6 1.227 1.226 5.067 4.106 12 4.106zm24.693-1.546c0 .533.48 1.013 1.013 1.013h6.4c.534 0 1.014-.48 1.014-1.013v-28.48h7.626c.587 0 1.014-.48 1.014-1.014v-5.813c0-.533-.427-1.013-1.014-1.013h-23.68c-.586 0-1.013.48-1.013 1.013v5.813c0 .534.427 1.014 1.013 1.014h7.627zm22.667 0c0 .533.426 1.013 1.013 1.013h6.347c.533 0 1.013-.48 1.013-1.013v-13.6h3.68l7.093 14.133c.107.213.427.48.854.48h7.093c.907 0 1.28-.853.907-1.547l-7.307-13.546c4.96-1.867 7.893-5.814 7.893-10.72 0-6.347-4.853-11.52-11.626-11.52h-15.947c-.587 0-1.013.48-1.013 1.013zm8.373-20.374v-8.32h7.893c2.187 0 4.054 1.547 4.054 4.054 0 2.506-1.867 4.266-4.054 4.266zm26.933 20.374c0 .533.48 1.013 1.014 1.013h6.4c.533 0 1.013-.48 1.013-1.013V391.68c0-.533-.48-1.013-1.013-1.013h-6.4c-.534 0-1.014.48-1.014 1.013zm14.72-17.6c0 10.666 8.587 19.146 19.254 19.146 4.746 0 9.333-1.653 12.96-5.173.373-.373.426-1.067.053-1.44l-4.16-4.427c-.32-.373-1.013-.373-1.387-.053-1.92 1.653-4.213 2.56-7.146 2.56-6.027 0-10.507-4.907-10.507-10.827 0-5.973 4.427-10.986 10.453-10.986 2.614 0 5.014.8 7.2 2.72a.934.934 0 0 0 1.334 0l4.16-4.32c.426-.427.426-1.067-.054-1.494-3.626-3.306-7.573-4.96-12.906-4.96a19.21 19.21 0 0 0-19.254 19.254zm44.16 17.6c0 .533.48 1.013 1.014 1.013h6.4c.533 0 1.013-.48 1.013-1.013v-28.48h7.627c.586 0 1.013-.48 1.013-1.014v-5.813c0-.533-.427-1.013-1.013-1.013h-23.68c-.587 0-1.014.48-1.014 1.013v5.813c0 .534.427 1.014 1.014 1.014h7.626zm22.667 0c0 .533.48 1.013 1.013 1.013h6.4c.533 0 1.013-.48 1.013-1.013V391.68c0-.533-.48-1.013-1.013-1.013h-6.4c-.533 0-1.013.48-1.013 1.013zm14.72-17.6c0 10.666 8.48 19.146 19.146 19.146 10.667 0 19.2-8.48 19.2-19.146 0-10.667-8.533-19.254-19.2-19.254-10.666 0-19.146 8.587-19.146 19.254zm8.533 0c0-5.867 4.8-10.72 10.613-10.72 5.867 0 10.667 4.853 10.667 10.72 0 5.813-4.8 10.613-10.667 10.613-5.813 0-10.613-4.8-10.613-10.613zm36.107 17.6c0 .533.48 1.013 1.013 1.013h6.347c.586 0 1.013-.48 1.013-1.013v-19.894h.053l20.747 20.854c.427.426.8.586 1.333.586h.534c.533 0 1.013-.32 1.013-.96V391.68c0-.533-.48-1.013-1.013-1.013h-6.4c-.587 0-1.014.48-1.014 1.013v18.933h-.053l-20.48-19.68c-.427-.426-.8-.8-1.333-.8h-.8c-.534 0-1.014.427-1.014.96z" aria-label="RESTRICTION" color="#000" font-family="'Brandon Text'" font-size="53.333" font-weight="500" style="-inkscape-font-specification:'Brandon Text, Medium';-inkscape-stroke:none" transform="translate(22.648 10.169) scale(.26458)"/></g><path d="M59.109 91.576c-1.184-1.505-1.24-2.292-1.24-17.676V57.799l-1.344.19c-1.17.167-1.395.653-1.727 3.749-.58 5.394-3.716 7.344-6.819 4.241-1.354-1.354-1.467-1.91-1.467-7.2s.113-5.847 1.467-7.201c.807-.807 1.872-1.468 2.366-1.468.76 0 .925-1.693 1.073-11.033l.175-11.033-1.793-.175c-1.74-.17-1.799-.277-1.973-3.613l-.18-3.437h16.125l.187-1.943.188-1.943h7.173l.187 1.943.188 1.943h16.124l-.18 3.437c-.172 3.312-.245 3.448-1.99 3.736l-1.81.3.022 10.663.02 10.663 1.892.795c2.676 1.125 3.182 2.483 3.182 8.544 0 4.496-.196 5.588-1.24 6.914-1.445 1.838-3.448 2.029-5.327.507-1.042-.844-1.34-1.756-1.412-4.334-.094-3.364-.529-4.137-2.333-4.153-.97-.009-1.046 1.15-1.046 16.05 0 15.342-.056 16.13-1.24 17.635-1.529 1.944-4.088 2.088-5.692.318-.945-1.044-1.189-2.486-1.437-8.518-.279-6.764-.381-7.262-1.495-7.262-1.113 0-1.216.498-1.494 7.263-.248 6.035-.492 7.476-1.438 8.519-1.603 1.767-4.163 1.624-5.692-.32zm4.14-9.134c.333-8.13.774-9.018 4.484-9.018 3.715 0 4.152.884 4.484 9.066.244 6.023.463 7.373 1.195 7.373.77 0 .94-2.457 1.196-17.336l.299-17.335 2.913.103c5.568.197 5.678.287 5.877 4.827.145 3.308.367 4.06 1.246 4.228.974.186 1.054-.286.896-5.332-.196-6.295.153-5.939-6.589-6.723l-3.427-.4-.87 2.084c-2.47 5.91-11.97 5.91-14.439 0l-.87-2.083-3.428.399c-6.75.785-6.416.446-6.416 6.526 0 4.346.166 5.337.896 5.337.691 0 .938-.924 1.074-4.03.199-4.547.308-4.636 5.877-4.833l2.913-.103.151 16.738c.084 9.206.286 17.096.45 17.535.162.438.632.685 1.043.55.52-.173.838-2.467 1.046-7.573zm7.726-27.901c2.301-1.936 2.537-5.105.54-7.231-1.78-1.894-2.185-1.75-2.4.858-.148 1.781-.432 2.241-1.382 2.241s-1.233-.46-1.38-2.241c-.216-2.603-.449-2.698-2.317-.942-2.117 1.988-1.909 5.326.455 7.315 1.012.85 2.47 1.547 3.242 1.547.772 0 2.23-.696 3.242-1.547zm-10.3-7.569c.928-1.397 2.554-2.944 3.613-3.437l1.925-.897.013-5.46c.012-4.962-.096-5.488-1.183-5.772-.808-.211-1.195-.815-1.195-1.863 0-1.54-.034-1.55-4.783-1.55h-4.782v21.52h2.352c2.103 0 2.53-.269 4.04-2.54zm20.509-8.22v-10.76H76.4c-4.748 0-4.782.011-4.782 1.55 0 1.049-.388 1.653-1.196 1.864-1.088.285-1.195.815-1.195 5.922 0 4.743.147 5.609.956 5.609.845 0 2.83 1.843 5.859 5.44.604.717 1.727 1.136 3.048 1.136h2.093zM68.742 27.246l.187-1.943 8.22-.166c6.688-.135 8.219-.327 8.219-1.03 0-.701-1.531-.893-8.22-1.028l-8.22-.167-.188-1.644c-.246-2.133-1.768-2.133-2.013 0l-.19 1.644-8.219.167c-6.688.135-8.22.327-8.22 1.029s1.532.894 8.22 1.029l8.22.166.187 1.943c.112 1.158.52 1.943 1.008 1.943.49 0 .897-.785 1.009-1.943z"/><path fill-rule="evenodd" d="M406 0a135 135 0 0 1 136 135v271a135 135 0 0 1-136 136H0V0Z" style="font-variation-settings:normal;-inkscape-stroke:none" transform="matrix(.24994 0 0 .24994 -279.135 -199.53)"/><path fill="#ffc000" d="M406 34a102 102 0 0 1 102 101v271H34V34Z" color="#000" style="fill:#fff;fill-opacity:1" transform="matrix(.24994 0 0 .24994 -279.135 -199.53)"/></svg>