<svg xmlns="http://www.w3.org/2000/svg" width="512" height="512" viewBox="0 0 135.46666 135.46667">
  <path fill-rule="evenodd" d="M16.933335 0H118.53333c9.38107 0 16.93333 7.5522663 16.93333 16.933332V118.53333c0 9.38106-7.55226 16.93333-16.93333 16.93333H16.933335c-9.381066 0-16.93333227-7.55227-16.93333227-16.93333V16.933332C.00000273 7.5522663 7.552269 0 16.933335 0Z" color="#000" style="-inkscape-stroke:none"/>
  <path fill="#2876ff" fill-rule="evenodd" d="M16.933332 8.5685921H118.53333c4.69054 0 8.46667 3.7761329 8.46667 8.4666659v84.666662c0 4.69054-3.77613 8.46667-8.46667 8.46667H16.933332c-4.690533 0-8.4666658-3.77613-8.4666658-8.46667V17.035258c0-4.690533 3.7761328-8.4666659 8.4666658-8.4666659z" color="#000" style="-inkscape-stroke:none"/>
  <path fill-rule="evenodd" d="M8.4666689 101.60001H127c4.69053 0 8.46666 3.77614 8.46666 8.46667v8.46667c0 4.69053-3.77613 8.46666-8.46666 8.46666H8.4666689c-4.690533 0-8.46666617-3.77613-8.46666617-8.46666v-8.46667c0-4.69053 3.77613317-8.46667 8.46666617-8.46667z" color="#000" style="-inkscape-stroke:none"/>
  <g style="-inkscape-font-specification:'Brandon Text, Medium';white-space:pre">
    <path fill="#fff" d="M4.2133308 426.98664c0 .53333.4266664 1.01333 1.0133328 1.01333h6.3466624c.533333 0 1.013333-.48 1.013333-1.01333v-13.59999h3.679998l7.093329 14.13332c.106667.21334.426666.48.853333.48h7.093329c.906666 0 1.279999-.85333.906666-1.54666l-7.306662-13.54666c4.959997-1.86667 7.893328-5.81333 7.893328-10.71999 0-6.34667-4.85333-11.52-11.626659-11.52H5.2266636c-.5866664 0-1.0133328.48-1.0133328 1.01334zm8.3733282-20.37332v-8.32h7.893329c2.186665 0 4.053331 1.54667 4.053331 4.05334 0 2.50666-1.866666 4.26666-4.053331 4.26666zm26.933251 20.37332c0 .53333.426667 1.01333 1.013333 1.01333H62.61323c.586666 0 1.013333-.48 1.013333-1.01333v-5.81333c0-.53333-.426667-1.01333-1.013333-1.01333H47.839905v-7.2h12.159993c.533333 0 1.013333-.42666 1.013333-1.01333v-5.81333c0-.53333-.48-1.01333-1.013333-1.01333H47.839905v-6.61333H62.61323c.586666 0 1.013333-.48 1.013333-1.01333V391.68c0-.53334-.426667-1.01334-1.013333-1.01334H40.533243c-.586666 0-1.013333.48-1.013333 1.01334zm41.439927 1.54667c7.839995 0 12.586659-5.54667 12.586659-11.04 0-7.25333-6.079997-9.86666-10.773327-12.15999-3.733331-1.81333-5.81333-3.2-5.81333-4.96 0-1.54666 1.013333-2.93333 3.253331-2.93333 2.826665 0 5.97333 2.02667 7.199996 2.88 1.066666.64 1.973332.21333 2.346665-.37333l2.719999-4.10667c.213333-.37333.319999-1.33333-.32-1.70666-1.599999-1.17334-5.866663-4-11.413327-4-8.213328 0-12.319992 5.33333-12.319992 10.61333 0 6.39999 5.17333 9.27999 10.34666 11.78666 3.519998 1.70666 5.49333 3.14666 5.49333 5.38666 0 1.86667-1.546666 3.2-3.679998 3.2-3.359998 0-6.079996-1.92-7.573328-2.93333-.533333-.37334-1.386666-.37334-1.813333.32l-2.453332 4.31999c-.373333.69334-.213333 1.17334.213334 1.6 1.226666 1.22667 5.066663 4.10667 11.999993 4.10667zm24.693293-1.54667c0 .53333.48 1.01333 1.01333 1.01333h6.39999c.53334 0 1.01334-.48 1.01334-1.01333v-28.47998h7.62666c.58667 0 1.01333-.48 1.01333-1.01333V391.68c0-.53334-.42666-1.01334-1.01333-1.01334H98.026463c-.586666 0-1.013332.48-1.013332 1.01334v5.81333c0 .53333.426666 1.01333 1.013332 1.01333h7.626667zm22.66657 0c0 .53333.42667 1.01333 1.01333 1.01333h6.34667c.53333 0 1.01333-.48 1.01333-1.01333v-13.59999h3.68l7.09333 14.13332c.10666.21334.42666.48.85333.48h7.09333c.90666 0 1.28-.85333.90666-1.54666l-7.30666-13.54666c4.96-1.86667 7.89333-5.81333 7.89333-10.71999 0-6.34667-4.85333-11.52-11.62666-11.52h-15.94666c-.58666 0-1.01333.48-1.01333 1.01334zm8.37333-20.37332v-8.32h7.89333c2.18666 0 4.05333 1.54667 4.05333 4.05334 0 2.50666-1.86667 4.26666-4.05333 4.26666zm26.93325 20.37332c0 .53333.48 1.01333 1.01333 1.01333h6.4c.53333 0 1.01333-.48 1.01333-1.01333V391.68c0-.53334-.48-1.01334-1.01333-1.01334h-6.4c-.53333 0-1.01333.48-1.01333 1.01334zm14.71998-17.59999c0 10.66666 8.58667 19.14666 19.25333 19.14666 4.74666 0 9.33332-1.65334 12.95999-5.17333.37333-.37334.42667-1.06667.0533-1.44l-4.16-4.42667c-.32-.37333-1.01333-.37333-1.38666-.0533-1.92 1.65333-4.21333 2.56-7.14666 2.56-6.02667 0-10.50666-4.90667-10.50666-10.82666 0-5.97333 4.42666-10.98666 10.45332-10.98666 2.61333 0 5.01333.8 7.2 2.72.37333.37333.96.37333 1.33333 0l4.16-4.32c.42667-.42667.42667-1.06667-.0533-1.49333-3.62667-3.30667-7.57333-4.96-12.90666-4.96-10.66666 0-19.25333 8.58666-19.25333 19.25332zm44.15992 17.59999c0 .53333.48 1.01333 1.01334 1.01333h6.39999c.53334 0 1.01334-.48 1.01334-1.01333v-28.47998h7.62666c.58666 0 1.01333-.48 1.01333-1.01333V391.68c0-.53334-.42667-1.01334-1.01333-1.01334h-23.67999c-.58667 0-1.01333.48-1.01333 1.01334v5.81333c0 .53333.42666 1.01333 1.01333 1.01333h7.62666zm22.66658 0c0 .53333.48 1.01333 1.01333 1.01333h6.4c.53333 0 1.01333-.48 1.01333-1.01333V391.68c0-.53334-.48-1.01334-1.01333-1.01334h-6.4c-.53333 0-1.01333.48-1.01333 1.01334zm14.71998-17.59999c0 10.66666 8.48 19.14666 19.14666 19.14666s19.19999-8.48 19.19999-19.14666-8.53333-19.25332-19.19999-19.25332-19.14666 8.58666-19.14666 19.25332zm8.53333 0c0-5.86666 4.8-10.71999 10.61333-10.71999 5.86666 0 10.66666 4.85333 10.66666 10.71999 0 5.81333-4.8 10.61333-10.66666 10.61333-5.81333 0-10.61333-4.8-10.61333-10.61333zm36.1066 17.59999c0 .53333.48 1.01333 1.01333 1.01333h6.34666c.58667 0 1.01334-.48 1.01334-1.01333v-19.89332h.0533l20.74665 20.85332c.42667.42667.8.58667 1.33334.58667h.53333c.53333 0 1.01333-.32 1.01333-.96V391.68c0-.53334-.48-1.01334-1.01333-1.01334h-6.4c-.58666 0-1.01333.48-1.01333 1.01334v18.93332h-.0533L307.626 390.93333c-.42667-.42667-.8-.8-1.33333-.8h-.8c-.53334 0-1.01334.42667-1.01334.96z" aria-label="RESTRICTION" color="#000" font-family="Brandon Text" font-size="53.3333px" font-weight="500" style="-inkscape-font-specification:'Brandon Text, Medium';-inkscape-stroke:none" transform="translate(22.648424 6.8438898) scale(.26458)"/>
  </g>
  <path d="M59.108804 91.576036c-1.183774-1.50492-1.238963-2.29229-1.238963-17.67628V57.79856l-1.345019.191027c-1.17046.166221-1.394597.6527-1.727022 3.748409-.579187 5.39363-3.715363 7.34425-6.818608 4.24101-1.353884-1.35389-1.467295-1.91044-1.467295-7.200613 0-5.290175.11342-5.846726 1.467295-7.20061.807012-.807014 1.87154-1.467295 2.365619-1.467295.760475 0 .925177-1.693056 1.073298-11.033016l.174964-11.033013-1.79336-.175484c-1.74024-.170287-1.798669-.277292-1.972637-3.612756l-.179279-3.437275h16.124151l.187323-1.942804.187322-1.942807h7.173439l.187323 1.942807.187322 1.942804h16.124152l-.17928 3.437275c-.172728 3.311619-.245458 3.448198-1.989618 3.736164l-1.810341.298894.02101 10.663334.02101 10.663334 1.891723.795409c2.675834 1.125102 3.181434 2.482938 3.181434 8.544015 0 4.495917-.195591 5.587427-1.23896 6.913847-1.445975 1.83825-3.448517 2.02866-5.328173.50661-1.041866-.84365-1.338807-1.75556-1.411244-4.33395-.09451-3.363817-.529055-4.137221-2.33344-4.153009-.970578-.0086-1.046127 1.150627-1.046127 16.050459 0 15.34193-.05538 16.13002-1.23896 17.63471-1.529474 1.94441-4.089283 2.08754-5.692382.31827-.945965-1.04401-1.189384-2.4863-1.437668-8.51846-.278391-6.76348-.380911-7.26164-1.494468-7.26164-1.113571 0-1.216073.49816-1.494466 7.26306-.248325 6.03428-.491555 7.47546-1.43767 8.51846-1.6035 1.76771-4.163525 1.62394-5.69238-.31969zm4.141116-9.13364c.331727-8.12978.773421-9.01824 4.4834-9.01824 3.714765 0 4.151688.88353 4.483398 9.06611.244144 6.02244.463149 7.37303 1.195575 7.37303.769564 0 .939052-2.45757 1.195573-17.33582l.298893-17.335803 2.912958.103071c5.567969.197038 5.677905.287329 5.877185 4.827042.145209 3.30816.366924 4.0606 1.245852 4.22821.974524.18586 1.053921-.28631.89668-5.332291-.196157-6.294649.152732-5.938659-6.588996-6.723173l-3.427547-.398854-.870432 2.083243c-2.469333 5.909945-11.968943 5.909945-14.438276 0l-.870435-2.083232-3.427546.398854c-6.74949.785418-6.41648.446678-6.41648 6.526858 0 4.345535.166583 5.337065.89668 5.337065.690921 0 .937217-.92487 1.073336-4.03049.199276-4.546737.307999-4.636142 5.877185-4.83322l2.912958-.103072.151557 16.738032c.08337 9.20591.285255 17.09664.448655 17.53496.163396.43832.633206.68579 1.044012.54992.520615-.17219.837478-2.46642 1.045811-7.57219zm7.725362-27.901649c2.300704-1.935916 2.537105-5.104811.539448-7.231217-1.779204-1.893877-2.184529-1.748964-2.400303.858151-.147423 1.781331-.431064 2.241698-1.381107 2.241698-.950041 0-1.233674-.460367-1.381103-2.241698-.215429-2.602964-.447847-2.697464-2.316536-.941923-2.116272 1.988136-1.90836 5.325782.455678 7.314989 1.011574.851184 2.470457 1.547605 3.241961 1.547605.771504 0 2.230388-.696421 3.241962-1.547605zm-10.300532-7.56864c.928596-1.397325 2.554578-2.944099 3.613292-3.437273l1.924938-.89668.01288-5.459804c.01175-4.962813-.09591-5.488266-1.182646-5.772454-.807896-.211272-1.195571-.815391-1.195571-1.863081 0-1.539515-.03366-1.550432-4.782294-1.550432h-4.782293V49.5127h2.351636c2.103263 0 2.529952-.268328 4.039992-2.540593zm20.508768-8.219566V27.992383h-4.782291c-4.748623 0-4.782294.01085-4.782294 1.550432 0 1.04769-.387676 1.651809-1.195574 1.863081-1.088418.284626-1.195571.815391-1.195571 5.921901 0 4.74329.14767 5.609252.956458 5.609252.844674 0 2.829132 1.842708 5.858308 5.439857.604078.717344 1.727288 1.135794 3.04871 1.135794h2.092254zM68.741573 27.24515l.187322-1.942806 8.219566-.166311c6.688119-.135336 8.219564-.327095 8.219564-1.029257 0-.702161-1.531445-.89393-8.219564-1.029256l-8.219566-.16631-.189152-1.643913c-.245461-2.133266-1.767382-2.133266-2.01284 0l-.189153 1.643913-8.219566.16631c-6.688119.135335-8.219565.327097-8.219565 1.029259 0 .702161 1.531446.893927 8.219565 1.029256l8.219566.166311.187323 1.942806c.111635 1.157805.519023 1.942807 1.008251 1.942807.489229 0 .896619-.785002 1.008254-1.942807z"/>
</svg>
