<svg width="512" height="512" viewBox="0 0 135.467 135.467" xml:space="preserve" xmlns="http://www.w3.org/2000/svg"><path fill-rule="evenodd" d="M406 0a135 135 0 0 1 136 135v271a135 135 0 0 1-136 136H0V0Z" style="font-variation-settings:normal;-inkscape-stroke:none" transform="matrix(.24994 0 0 .24994 0 0)"/><path fill="#ffc000" d="M406 34a102 102 0 0 1 102 101v271H34V34Z" color="#000" style="fill:#ff7b09;fill-opacity:1" transform="matrix(.24994 0 0 .24994 0 0)"/><g style="-inkscape-font-specification:'Brandon Text, Medium';white-space:pre"><path fill="#fff" d="M14.827 428.533c7.84 0 12.586-5.546 12.586-11.04 0-7.253-6.08-9.866-10.773-12.16-3.733-1.813-5.813-3.2-5.813-4.96 0-1.546 1.013-2.933 3.253-2.933 2.827 0 5.973 2.027 7.2 2.88 1.067.64 1.973.213 2.347-.373l2.72-4.107c.213-.373.32-1.333-.32-1.707-1.6-1.173-5.867-4-11.414-4-8.213 0-12.32 5.334-12.32 10.614 0 6.4 5.174 9.28 10.347 11.786 3.52 1.707 5.493 3.147 5.493 5.387 0 1.867-1.546 3.2-3.68 3.2-3.36 0-6.08-1.92-7.573-2.933-.533-.374-1.387-.374-1.813.32l-2.454 4.32c-.373.693-.213 1.173.214 1.6 1.226 1.226 5.066 4.106 12 4.106zm18.506-14.186c0 8.106 6.774 14.186 15.147 14.186 8.427 0 15.253-6.08 15.253-14.186V391.68c0-.533-.48-1.013-1.013-1.013h-6.56c-.587 0-1.013.48-1.013 1.013v22.24c0 3.893-2.827 6.08-6.667 6.08-3.787 0-6.56-2.187-6.56-6.08v-22.24c0-.533-.427-1.013-1.013-1.013h-6.56c-.534 0-1.014.48-1.014 1.013zm38.454 12.64c0 .533.426 1.013 1.013 1.013h6.293c.534 0 1.014-.48 1.014-1.013v-12.534h5.6c6.986 0 11.893-5.386 11.893-12 0-6.453-4.907-11.786-11.947-11.786H72.8c-.587 0-1.013.48-1.013 1.013zm8.32-20.32v-8.16h5.386c2.294 0 3.894 1.706 3.894 3.946 0 2.4-1.6 4.214-3.894 4.214zm22.88 20.32c0 .533.426 1.013 1.013 1.013h6.346c.534 0 1.014-.48 1.014-1.013v-13.6h3.68l7.093 14.133c.107.213.427.48.853.48h7.094c.906 0 1.28-.853.906-1.547l-7.306-13.546c4.96-1.867 7.893-5.814 7.893-10.72 0-6.347-4.853-11.52-11.627-11.52H104c-.587 0-1.014.48-1.014 1.013zm8.373-20.374v-8.32h7.893c2.187 0 4.053 1.547 4.053 4.054 0 2.506-1.866 4.266-4.053 4.266zm26.933 20.374c0 .533.427 1.013 1.013 1.013h22.08c.587 0 1.014-.48 1.014-1.013v-5.814c0-.533-.427-1.013-1.014-1.013h-14.773v-7.2h12.16c.533 0 1.013-.427 1.013-1.013v-5.814c0-.533-.48-1.013-1.013-1.013h-12.16v-6.613h14.773c.587 0 1.014-.48 1.014-1.014v-5.813c0-.533-.427-1.013-1.014-1.013h-22.08c-.586 0-1.013.48-1.013 1.013zm28.853-.16c-.106.693.374 1.173 1.014 1.173h6.293c.533 0 .96-.427 1.013-.853l2.347-16.48h.107l9.013 17.28c.16.32.587.586.907.586h.96c.266 0 .746-.266.906-.586l8.96-17.28h.107l2.4 16.48c.053.426.533.853 1.013.853h6.294c.64 0 1.12-.48 1.013-1.173l-6.027-35.84c-.053-.48-.533-.854-.96-.854h-.853c-.267 0-.747.214-.907.534l-12.373 23.04h-.107l-12.373-23.04c-.16-.32-.64-.534-.907-.534h-.853c-.427 0-.907.374-.96.854zM212.64 428h5.866c1.067 0 1.654-.64 1.92-1.28l1.92-4.267h14.507l1.92 4.214c.48 1.013.907 1.333 1.867 1.333h5.92c.8 0 1.226-.693.906-1.387l-16.693-35.893c-.16-.32-.533-.587-.907-.587h-.533c-.373 0-.747.267-.907.587l-16.693 35.893c-.32.694.107 1.387.907 1.387zm12.906-12.8 4-8.8h.053l4.054 8.8zm22.987-5.813c0 10.666 8.586 19.146 19.253 19.146 4.747 0 9.333-1.653 12.96-5.173.373-.373.427-1.067.053-1.44l-4.16-4.427c-.32-.373-1.013-.373-1.386-.053-1.92 1.653-4.214 2.56-7.147 2.56-6.027 0-10.507-4.907-10.507-10.827 0-5.973 4.427-10.986 10.454-10.986 2.613 0 5.013.8 7.2 2.72a.934.934 0 0 0 1.333 0l4.16-4.32c.427-.427.427-1.067-.053-1.494-3.627-3.306-7.574-4.96-12.907-4.96a19.21 19.21 0 0 0-19.253 19.254zm45.973 17.6c0 .533.427 1.013 1.013 1.013h6.347c.533 0 1.013-.48 1.013-1.013v-17.014l11.947-17.76c.427-.693 0-1.546-.853-1.546h-6.934c-.48 0-.693.266-.853.48l-7.413 10.933-7.414-10.933c-.16-.214-.426-.48-.853-.48h-6.933c-.854 0-1.28.853-.854 1.546l11.787 17.814z" aria-label="SUPREMACY" color="#000" font-family="'Brandon Text'" font-size="53.333" font-weight="500" style="-inkscape-font-specification:'Brandon Text, Medium';-inkscape-stroke:none" transform="translate(25.759 10.169) scale(.26458)"/></g><path d="M59.667 89.717c-6.23-3.91-10.093-6.967-11.092-8.78-.89-1.614-1.07-11.87-.219-12.45.358-.243-.836-1.81-2.86-3.756-3.396-3.263-3.467-3.396-3.094-5.841.62-4.061.555-5.252-.534-9.954-2.243-9.688-.073-18.66 5.95-24.599 9.123-8.992 26.915-9.947 37.631-2.02 4.126 3.053 7.556 8.417 8.605 13.455.817 3.927.365 11.538-.948 15.959-.666 2.242-.747 3.476-.304 4.64 1.293 3.4.792 4.923-2.771 8.43-1.856 1.826-3.117 3.497-2.802 3.712.819.56.6 10.865-.264 12.432-.887 1.61-6.086 5.646-12.024 9.335-6.322 3.927-8.232 3.857-15.274-.563zm16.783-3.972c8.232-5.528 8.851-6.346 8.278-10.939-.367-2.93-.547-3.326-1.097-2.403-3.027 5.079-4.157 6.392-5.355 6.22-.797-.113-1.337-.689-1.46-1.556-.259-1.829-2.022-1.487-2.487.482-.434 1.838-2.117 2.278-2.54.664-.225-.861-.65-1.093-1.567-.854-.692.181-1.258.7-1.258 1.154 0 .453-.536.824-1.192.824-.656 0-1.192-.37-1.192-.824 0-1.413-2.24-1.557-3.14-.202-.937 1.41-2.225.95-2.225-.797 0-.636-.112-1.157-.25-1.157-.137 0-.64-.15-1.118-.334-.579-.222-.998.177-1.252 1.192-.211.84-.793 1.526-1.295 1.526-1.176 0-3.458-2.472-4.702-5.095-.537-1.132-1.165-2.057-1.396-2.056-.23 0-.5 1.59-.6 3.531-.162 3.168-.009 3.716 1.49 5.34.92.994 4.341 3.562 7.604 5.707 7.936 5.216 8.374 5.205 16.754-.423zm-9.87-12.667c0-1.093.318-1.49 1.192-1.49.883 0 1.192.397 1.192 1.532 0 1.247.25 1.496 1.341 1.341.862-.122 1.41-.67 1.532-1.532.206-1.449 1.251-1.747 2.333-.666 1.198 1.199 2.384.083 2.79-2.627.218-1.453.961-3.249 1.652-3.99 1.053-1.13 1.689-1.298 3.96-1.042 2.446.276 2.95.1 5.281-1.85l2.578-2.154-.371-3.621c-.26-2.526-.056-4.918.67-7.905 2.817-11.592-1.353-21.891-10.738-26.521-8.744-4.313-20.358-3.493-27.973 1.975-7.009 5.034-9.81 14.727-7.145 24.73.637 2.39.837 4.798.611 7.36l-.335 3.807 2.518 2.249c2.325 2.076 2.73 2.225 5.26 1.933 2.318-.268 2.935-.108 4 1.035.693.743 1.438 2.54 1.656 3.994.379 2.528 1.973 4.224 2.496 2.655.41-1.232 1.932-.756 2.52.787.346.913 1.034 1.49 1.773 1.49.89 0 1.207-.39 1.207-1.49zm-3.225-5.603c-1.336-1.476-1.177-3.473.545-6.867.818-1.613 1.488-3.37 1.488-3.904 0-2.645 3.28-3.237 4.232-.764.347.902 1.28 2.985 2.074 4.63 2.737 5.672 1.585 7.952-4.017 7.952-2.462 0-3.63-.283-4.322-1.047zm5.277-2.472c.526.437 1.128.623 1.338.413.385-.385-1.647-5.139-2.198-5.142-.485-.003-2.873 4.666-2.551 4.988.162.162.78-.008 1.375-.38.823-.514 1.306-.485 2.036.12zm-19.068-6.8c-1.2-1.2-1.463-2.055-1.463-4.76 0-2.799.262-3.59 1.739-5.243 1.687-1.888 1.9-1.953 7.166-2.155 7.08-.273 8.382.443 8.382 4.606 0 3.53-1.522 5.41-6.105 7.544-4.19 1.95-7.774 1.953-9.72.008zm9.322-2.9c2.751-1.45 4.38-3.795 3.76-5.413-.38-.987-1.504-1.183-6.389-1.11-4.38.066-6.24 2.4-4.992 6.266.452 1.403.852 1.64 2.761 1.64 1.228 0 3.415-.623 4.86-1.384zm18.355 3.54c-2.679-.957-5.703-3.075-6.49-4.544-.327-.612-.595-2.33-.595-3.82 0-3.962 1.392-4.704 8.32-4.434 4.898.19 5.505.35 6.977 1.822 1.29 1.29 1.662 2.301 1.861 5.066.22 3.063.076 3.64-1.273 5.094-1.216 1.31-2.035 1.634-4.083 1.613-1.41-.015-3.532-.373-4.717-.796zm6.86-3.1c.683-1.78.36-4.292-.722-5.63-.938-1.158-1.664-1.342-5.378-1.364-2.362-.014-4.571.252-4.91.59-1.582 1.583 1.03 5.159 4.901 6.709 2.319.928 5.7.76 6.109-.305zm-27.868 16.59c-.162-.574-.47-1.915-.684-2.98-.326-1.62-.65-1.93-1.982-1.896-.875.023-2.128.273-2.784.554-.992.427-.86.52.79.555 1.731.036 2.107.342 2.98 2.42.988 2.352 2.247 3.362 1.68 1.347zm24.653-1.341c1.03-2.017 1.513-2.39 3.142-2.426 1.616-.036 1.734-.124.733-.555-.656-.281-1.909-.53-2.784-.554-1.332-.035-1.656.275-1.982 1.896-.215 1.065-.522 2.406-.684 2.98-.515 1.832.319 1.122 1.575-1.341z"/></svg>