<?xml version="1.0" encoding="UTF-8" standalone="no"?>
<!-- Created with Inkscape (http://www.inkscape.org/) -->

<svg
   width="512"
   height="512"
   viewBox="0 0 135.46666 135.46667"
   version="1.1"
   id="svg5"
   inkscape:version="1.1 (c68e22c387, 2021-05-23)"
   sodipodi:docname="anarchy.svg"
   xmlns:inkscape="http://www.inkscape.org/namespaces/inkscape"
   xmlns:sodipodi="http://sodipodi.sourceforge.net/DTD/sodipodi-0.dtd"
   xmlns="http://www.w3.org/2000/svg"
   xmlns:svg="http://www.w3.org/2000/svg">
  <sodipodi:namedview
     id="namedview7"
     pagecolor="#505050"
     bordercolor="#eeeeee"
     borderopacity="1"
     inkscape:pageshadow="0"
     inkscape:pageopacity="0"
     inkscape:pagecheckerboard="0"
     inkscape:document-units="px"
     showgrid="false"
     inkscape:zoom="0.46324355"
     inkscape:cx="93.903088"
     inkscape:cy="227.74197"
     inkscape:window-width="1366"
     inkscape:window-height="705"
     inkscape:window-x="-8"
     inkscape:window-y="-8"
     inkscape:window-maximized="1"
     inkscape:current-layer="layer1"
     units="px" />
  <defs
     id="defs2">
    <rect
       x="0"
       y="384.00006"
       width="511.99998"
       height="127.99992"
       id="rect12253" />
  </defs>
  <g
     inkscape:label="Calque 1"
     inkscape:groupmode="layer"
     id="layer1">
    <path
       style="color:#000000;fill:#000000;fill-rule:evenodd;stroke-width:8.46667;-inkscape-stroke:none"
       d="M 16.933335,0 H 118.53333 c 9.38107,0 16.93333,7.5522663 16.93333,16.933332 V 118.53333 c 0,9.38106 -7.55226,16.93333 -16.93333,16.93333 H 16.933335 C 7.552269,135.46666 2.7270507e-6,127.91439 2.7270507e-6,118.53333 V 16.933332 C 2.7270507e-6,7.5522663 7.552269,0 16.933335,0 Z"
       id="rect846" />
    <path
       style="color:#000000;fill:#ff3a17;fill-rule:evenodd;stroke-width:8.46667;-inkscape-stroke:none"
       d="M 16.933332,8.5685921 H 118.53333 c 4.69054,0 8.46667,3.7761329 8.46667,8.4666659 v 84.666662 c 0,4.69054 -3.77613,8.46667 -8.46667,8.46667 H 16.933332 c -4.690533,0 -8.4666658,-3.77613 -8.4666658,-8.46667 V 17.035258 c 0,-4.690533 3.7761328,-8.4666659 8.4666658,-8.4666659 z"
       id="rect846-1" />
    <path
       style="color:#000000;fill:#000000;fill-rule:evenodd;stroke-width:0.264583;-inkscape-stroke:none"
       d="M 8.4666689,101.60001 H 127 c 4.69053,0 8.46666,3.77614 8.46666,8.46667 v 8.46667 c 0,4.69053 -3.77613,8.46666 -8.46666,8.46666 H 8.4666689 c -4.690533,0 -8.4666661729493,-3.77613 -8.4666661729493,-8.46666 v -8.46667 c 0,-4.69053 3.7761331729493,-8.46667 8.4666661729493,-8.46667 z"
       id="rect1024" />
    <g
       aria-label="ANARCHY"
       transform="matrix(0.26458333,0,0,0.26458333,33.851678,6.8438898)"
       id="text12251"
       style="font-weight:500;font-size:53.3333px;font-family:'Brandon Text';-inkscape-font-specification:'Brandon Text, Medium';white-space:pre;fill:#ffffff">
      <path
         style="color:#000000;-inkscape-font-specification:'Brandon Text, Medium';-inkscape-stroke:none"
         d="M 0.90666613,427.99997 H 6.7733293 c 1.066666,0 1.6533323,-0.64 1.9199989,-1.28 l 1.9199988,-4.26666 h 14.506658 l 1.919999,4.21333 c 0.48,1.01333 0.906666,1.33333 1.866665,1.33333 h 5.919997 c 0.799999,0 1.226666,-0.69333 0.906666,-1.38666 L 19.039989,390.72 c -0.16,-0.32 -0.533333,-0.58667 -0.906666,-0.58667 H 17.59999 c -0.373334,0 -0.746667,0.26667 -0.906667,0.58667 L 0,426.61331 c -0.31999981,0.69333 0.1066666,1.38666 0.90666613,1.38666 z m 12.90665887,-12.79999 3.999998,-8.79999 h 0.05333 l 4.053331,8.79999 z"
         id="path870" />
      <path
         style="color:#000000;-inkscape-font-specification:'Brandon Text, Medium';-inkscape-stroke:none"
         d="m 39.946546,426.98664 c 0,0.53333 0.48,1.01333 1.013333,1.01333 h 6.346663 c 0.586666,0 1.013332,-0.48 1.013332,-1.01333 v -19.89332 c 0,0 0.05333,0 0.05333,0 l 20.746654,20.85332 c 0.426667,0.42667 0.8,0.58667 1.333333,0.58667 h 0.533333 c 0.533333,0 1.013332,-0.32 1.013332,-0.96 V 391.68 c 0,-0.53334 -0.479999,-1.01334 -1.013332,-1.01334 h -6.399997 c -0.586666,0 -1.013332,0.48 -1.013332,1.01334 v 18.93332 c 0,0 -0.05333,0 -0.05333,0 L 43.039878,390.93333 c -0.426667,-0.42667 -0.8,-0.8 -1.333333,-0.8 h -0.799999 c -0.533333,0 -1.013333,0.42667 -1.013333,0.96 z"
         id="path872" />
      <path
         style="color:#000000;-inkscape-font-specification:'Brandon Text, Medium';-inkscape-stroke:none"
         d="m 77.119801,427.99997 h 5.866663 c 1.066666,0 1.653332,-0.64 1.919999,-1.28 l 1.919999,-4.26666 h 14.506658 l 1.92,4.21333 c 0.48,1.01333 0.90666,1.33333 1.86666,1.33333 h 5.92 c 0.8,0 1.22667,-0.69333 0.90667,-1.38666 L 95.253123,390.72 c -0.159999,-0.32 -0.533333,-0.58667 -0.906666,-0.58667 h -0.533333 c -0.373333,0 -0.746666,0.26667 -0.906666,0.58667 l -16.693323,35.89331 c -0.32,0.69333 0.106666,1.38666 0.906666,1.38666 z m 12.906659,-12.79999 3.999997,-8.79999 h 0.05333 l 4.053331,8.79999 z"
         id="path874" />
      <path
         style="color:#000000;-inkscape-font-specification:'Brandon Text, Medium';-inkscape-stroke:none"
         d="m 116.15968,426.98664 c 0,0.53333 0.42667,1.01333 1.01333,1.01333 h 6.34667 c 0.53333,0 1.01333,-0.48 1.01333,-1.01333 v -13.59999 h 3.68 l 7.09333,14.13332 c 0.10666,0.21334 0.42666,0.48 0.85333,0.48 h 7.09333 c 0.90666,0 1.28,-0.85333 0.90666,-1.54666 L 136.853,412.90665 c 4.96,-1.86667 7.89333,-5.81333 7.89333,-10.71999 0,-6.34667 -4.85333,-11.52 -11.62666,-11.52 h -15.94666 c -0.58666,0 -1.01333,0.48 -1.01333,1.01334 z m 8.37333,-20.37332 v -8.32 h 7.89333 c 2.18666,0 4.05333,1.54667 4.05333,4.05334 0,2.50666 -1.86667,4.26666 -4.05333,4.26666 z"
         id="path876" />
      <path
         style="color:#000000;-inkscape-font-specification:'Brandon Text, Medium';-inkscape-stroke:none"
         d="m 149.33293,409.38665 c 0,10.66666 8.58666,19.14666 19.25332,19.14666 4.74666,0 9.33333,-1.65334 12.95999,-5.17333 0.37334,-0.37334 0.42667,-1.06667 0.0533,-1.44 l -4.16,-4.42667 c -0.32,-0.37333 -1.01333,-0.37333 -1.38667,-0.0533 -1.92,1.65333 -4.21333,2.56 -7.14666,2.56 -6.02666,0 -10.50666,-4.90667 -10.50666,-10.82666 0,-5.97333 4.42666,-10.98666 10.45333,-10.98666 2.61333,0 5.01333,0.8 7.19999,2.72 0.37334,0.37333 0.96,0.37333 1.33334,0 l 4.15999,-4.32 c 0.42667,-0.42667 0.42667,-1.06667 -0.0533,-1.49333 -3.62667,-3.30667 -7.57333,-4.96 -12.90666,-4.96 -10.66666,0 -19.25332,8.58666 -19.25332,19.25332 z"
         id="path878" />
      <path
         style="color:#000000;-inkscape-font-specification:'Brandon Text, Medium';-inkscape-stroke:none"
         d="m 187.67952,426.98664 c 0,0.53333 0.48,1.01333 1.01333,1.01333 h 6.34666 c 0.58667,0 1.01334,-0.48 1.01334,-1.01333 v -14.02666 h 15.25332 v 14.02666 c 0,0.53333 0.42667,1.01333 1.01333,1.01333 h 6.34667 c 0.53333,0 1.01333,-0.48 1.01333,-1.01333 V 391.68 c 0,-0.53334 -0.48,-1.01334 -1.01333,-1.01334 h -6.34667 c -0.58666,0 -1.01333,0.48 -1.01333,1.01334 v 13.43999 H 196.05285 V 391.68 c 0,-0.53334 -0.42667,-1.01334 -1.01334,-1.01334 h -6.34666 c -0.53333,0 -1.01333,0.48 -1.01333,1.01334 z"
         id="path880" />
      <path
         style="color:#000000;-inkscape-font-specification:'Brandon Text, Medium';-inkscape-stroke:none"
         d="m 235.73278,426.98664 c 0,0.53333 0.42667,1.01333 1.01334,1.01333 h 6.34666 c 0.53333,0 1.01333,-0.48 1.01333,-1.01333 v -17.01332 l 11.94666,-17.75999 c 0.42667,-0.69333 0,-1.54667 -0.85333,-1.54667 h -6.93333 c -0.48,0 -0.69333,0.26667 -0.85333,0.48 l -7.41333,10.93333 -7.41333,-10.93333 c -0.16,-0.21333 -0.42667,-0.48 -0.85333,-0.48 h -6.93333 c -0.85333,0 -1.28,0.85334 -0.85333,1.54667 l 11.78665,17.81332 z"
         id="path882" />
    </g>
    <path
       style="fill:#000000;stroke-width:0.596678"
       d="m 45.690484,93.133067 c -0.55292,-0.0099 -1.54235,-0.31116 -2.1987,-0.669287 -0.65634,-0.358134 -3.69615,-3.102151 -6.75512,-6.097818 -3.05895,-2.99566 -5.96916,-6.217673 -6.4671,-7.160013 -0.61068,-1.155683 -0.77422,-2.412342 -0.50247,-3.860883 0.32905,-1.753992 2.27325,-4.037338 10.60947,-12.460112 6.18344,-6.247626 11.17641,-10.782047 12.66693,-11.503593 1.71197,-0.82875 3.68245,-1.191015 6.47831,-1.191015 2.31959,0 4.69909,-0.358537 5.62926,-0.848206 0.886165,-0.466514 2.948289,-2.216494 4.582473,-3.888844 2.682543,-2.745208 2.896716,-3.159962 2.204245,-4.268779 -0.69042,-1.105548 -0.500151,-1.494972 1.906156,-3.901272 2.347133,-2.347129 2.815034,-2.584515 3.836671,-1.946484 1.002105,0.625817 1.496325,0.447289 3.561539,-1.286571 1.93394,-1.623638 2.467896,-2.523316 2.759286,-4.649215 0.198681,-1.449795 0.904097,-3.514269 1.567522,-4.587716 0.663447,-1.073448 1.611745,-2.107324 2.107339,-2.297504 0.575001,-0.220645 1.0929,0.135806 1.431084,0.984984 0.291481,0.73192 0.694885,1.845546 0.89643,2.474726 0.276528,0.863285 0.535082,0.975308 1.053839,0.456571 0.378056,-0.378067 0.839147,-2.616817 1.024611,-4.975003 0.185376,-2.358189 0.63907,-4.387164 1.00797,-4.508837 0.368923,-0.121666 1.548262,0.517166 2.620796,1.419642 1.072536,0.902475 2.442978,2.725996 3.045423,4.052265 0.602422,1.32627 1.101243,3.015537 1.108437,3.753927 0.009,0.911025 0.373275,1.342528 1.133695,1.342528 0.61631,0 1.50837,-0.584049 1.98234,-1.297885 0.60073,-0.904749 1.19075,-1.171648 1.94781,-0.881133 0.94881,0.364094 1.04096,0.899431 0.72932,4.236762 -0.1962,2.101005 -0.74254,4.743373 -1.21407,5.871932 -0.76917,1.840869 -0.74322,2.382447 0.25226,5.265452 0.85929,2.488593 1.11398,5.001265 1.12907,11.138253 0.0158,6.738171 -0.12403,7.979781 -0.93885,8.292464 -0.5271,0.202265 -2.09768,-0.185781 -3.49018,-0.862314 -2.531854,-1.230065 -2.531854,-1.230065 -5.241234,1.479304 -1.507015,1.507019 -3.003251,2.527734 -3.371633,2.30007 -0.425775,-0.263146 -0.662252,-2.969836 -0.662252,-7.580123 0,-7.170827 0,-7.170827 -1.876907,-9.047745 -1.77396,-1.773957 -1.901196,-1.811323 -2.319281,-0.681152 -0.243288,0.657669 -1.566077,2.211001 -2.939542,3.451848 -2.09099,1.889074 -2.645152,2.133317 -3.406542,1.50142 -0.770139,-0.639156 -1.539827,-0.107729 -5.028728,3.472102 -4.119422,4.226765 -4.119422,4.226765 -4.132525,8.623321 -0.009,3.027631 -0.361142,5.139689 -1.130898,6.78327 -0.677159,1.445889 -5.082109,6.314972 -11.174624,12.352092 -5.53127,5.480952 -10.81273,10.246924 -11.73656,10.591046 -0.92386,0.344116 -2.13213,0.617509 -2.68507,0.607525 z m 0.26922,-2.965246 c 1.51412,0 3.03034,-1.216641 9.38899,-7.533893 4.17079,-4.143646 7.5053,-7.593311 7.41005,-7.665921 -0.0952,-0.07262 -1.74159,-0.437355 -3.65845,-0.810535 -1.91689,-0.373186 -5.13897,-1.41914 -7.16016,-2.324349 -2.02121,-0.905209 -5.04907,-2.763004 -6.72858,-4.128427 -3.05367,-2.482587 -3.05367,-2.482587 -7.90601,2.395074 -3.85373,3.873866 -4.85233,5.236745 -4.85233,6.6225 0,1.412231 1.11521,2.860023 5.85038,7.595187 4.82516,4.82515 6.1668,5.850364 7.65611,5.850364 z M 63.605574,72.21671 c 1.68429,0.03861 2.580202,-0.341492 3.747883,-1.59012 0.843973,-0.902476 1.64343,-2.177877 1.776597,-2.834222 0.133055,-0.656347 0.376478,-3.12634 0.540767,-5.488878 0.164176,-2.362532 0.614285,-4.913334 1.00003,-5.668446 0.385747,-0.75511 2.342712,-3.052391 4.348819,-5.105066 3.647461,-3.732135 3.647461,-3.732135 1.725517,-5.654078 -1.921942,-1.921943 -1.921942,-1.921943 -5.654085,1.725523 -2.052675,2.006105 -4.34406,3.959925 -5.091986,4.341819 -0.747922,0.381896 -3.701502,0.854402 -6.563482,1.050013 -5.20362,0.355659 -5.20362,0.355659 -10.27539,5.340897 -5.07178,4.985237 -5.07178,4.985237 -2.68506,7.03413 1.31269,1.126887 3.81929,2.781054 5.57022,3.67593 1.75094,0.894867 4.57024,1.963347 6.26515,2.374391 1.69489,0.411054 4.07765,0.7702 5.29502,0.798107 z M 94.922732,57.947168 c 0.228179,0 1.1629,-0.716662 2.077167,-1.592583 1.543187,-1.478461 1.780702,-1.533279 3.314391,-0.764994 0.90866,0.455173 1.8754,0.933015 2.14832,1.06187 0.27294,0.12886 0.40719,-3.218846 0.29834,-7.439337 -0.18493,-7.167963 -0.30233,-7.824757 -1.78271,-9.967203 -0.87167,-1.261473 -2.616221,-2.994426 -3.876791,-3.85101 -1.611565,-1.095075 -3.301113,-1.63042 -5.691273,-1.803307 -2.617325,-0.189321 -4.006485,0.04803 -6.038751,1.031841 -1.451673,0.702747 -3.124623,1.813859 -3.717642,2.469136 -1.0489,1.15902 -1.023529,1.247831 0.93321,3.266676 1.611092,1.662225 2.46907,2.075265 4.310729,2.075265 1.26463,0 3.08694,0.407305 4.049603,0.905118 0.962685,0.497817 2.157631,1.692755 2.655436,2.655424 0.601994,1.164099 0.905134,3.458846 0.905134,6.851705 0,2.805769 0.186727,5.101399 0.414837,5.101399 z M 82.633158,47.80363 c 0.215368,0 0.738025,-0.417305 1.16132,-0.927346 0.657764,-0.792537 0.217623,-1.484403 -3.028193,-4.759239 -3.598163,-3.630425 -3.8555,-3.779708 -4.894569,-2.83937 -1.050568,0.950748 -0.939592,1.151047 2.636516,4.759236 2.053284,2.071697 3.909511,3.766719 4.124926,3.766719 z M 101.83888,34.69659 c 0.25803,-0.231673 0.62202,-1.363086 0.80881,-2.514252 0.33965,-2.093031 0.33965,-2.093031 -2.24175,-2.03688 -2.581395,0.05615 -2.581395,0.05615 -2.985475,-2.698242 -0.22236,-1.51492 -0.813551,-3.528708 -1.313996,-4.47509 -0.658508,-1.245333 -0.992182,-1.473436 -1.207754,-0.825676 -0.163725,0.492259 -0.460076,1.874672 -0.658374,3.072031 -0.198229,1.197356 -0.890452,2.850741 -1.538181,3.674184 -0.647729,0.823446 -1.17767,1.621885 -1.17767,1.774309 0,0.152426 1.00851,0.438404 2.241162,0.635509 1.232628,0.197102 3.447811,1.13619 4.922599,2.086852 1.474789,0.950662 2.892569,1.538928 3.150629,1.307255 z M 88.242748,31.09663 c 0.82043,0 1.482772,-0.201386 1.471857,-0.44751 -0.01128,-0.246131 -0.523852,-1.051646 -1.13985,-1.790036 -0.615977,-0.73839 -1.278319,-1.342526 -1.471835,-1.342526 -0.193494,0 -0.351874,0.805515 -0.351874,1.790036 0,1.511584 0.232056,1.790036 1.491702,1.790036 z"
       id="path1045" />
  </g>
</svg>
