<svg xmlns="http://www.w3.org/2000/svg" width="512" height="512" viewBox="0 0 135.46666 135.46667">
  <path fill-rule="evenodd" d="M16.933335 0H118.53333c9.38107 0 16.93333 7.5522663 16.93333 16.933332V118.53333c0 9.38106-7.55226 16.93333-16.93333 16.93333H16.933335c-9.381066 0-16.93333227-7.55227-16.93333227-16.93333V16.933332C.00000273 7.5522663 7.552269 0 16.933335 0Z" color="#000" style="-inkscape-stroke:none"/>
  <path fill="#ff3a17" fill-rule="evenodd" d="M16.933332 8.5685921H118.53333c4.69054 0 8.46667 3.7761329 8.46667 8.4666659v84.666662c0 4.69054-3.77613 8.46667-8.46667 8.46667H16.933332c-4.690533 0-8.4666658-3.77613-8.4666658-8.46667V17.035258c0-4.690533 3.7761328-8.4666659 8.4666658-8.4666659z" color="#000" style="-inkscape-stroke:none"/>
  <path fill-rule="evenodd" d="M8.4666689 101.60001H127c4.69053 0 8.46666 3.77614 8.46666 8.46667v8.46667c0 4.69053-3.77613 8.46666-8.46666 8.46666H8.4666689c-4.690533 0-8.46666617-3.77613-8.46666617-8.46666v-8.46667c0-4.69053 3.77613317-8.46667 8.46666617-8.46667z" color="#000" style="-inkscape-stroke:none"/>
  <g style="-inkscape-font-specification:'Brandon Text, Medium';white-space:pre">
    <path fill="#fff" d="M.90666613 427.99997H6.7733293c1.066666 0 1.6533323-.64 1.9199989-1.28l1.9199988-4.26666h14.506658l1.919999 4.21333c.48 1.01333.906666 1.33333 1.866665 1.33333h5.919997c.799999 0 1.226666-.69333.906666-1.38666L19.039989 390.72c-.16-.32-.533333-.58667-.906666-.58667h-.533333c-.373334 0-.746667.26667-.906667.58667L0 426.61331c-.31999981.69333.1066666 1.38666.90666613 1.38666zM13.813325 415.19998l3.999998-8.79999h.05333l4.053331 8.79999zm26.133221 11.78666c0 .53333.48 1.01333 1.013333 1.01333h6.346663c.586666 0 1.013332-.48 1.013332-1.01333v-19.89332h.05333l20.746654 20.85332c.426667.42667.8.58667 1.333333.58667h.533333c.533333 0 1.013332-.32 1.013332-.96V391.68c0-.53334-.479999-1.01334-1.013332-1.01334h-6.399997c-.586666 0-1.013332.48-1.013332 1.01334v18.93332h-.05333l-20.479987-19.67999c-.426667-.42667-.8-.8-1.333333-.8h-.799999c-.533333 0-1.013333.42667-1.013333.96zm37.173255 1.01333h5.866663c1.066666 0 1.653332-.64 1.919999-1.28l1.919999-4.26666h14.506658l1.92 4.21333c.48 1.01333.90666 1.33333 1.86666 1.33333h5.92c.8 0 1.22667-.69333.90667-1.38666L95.253123 390.72c-.159999-.32-.533333-.58667-.906666-.58667h-.533333c-.373333 0-.746666.26667-.906666.58667l-16.693323 35.89331c-.32.69333.106666 1.38666.906666 1.38666zm12.906659-12.79999 3.999997-8.79999h.05333l4.053331 8.79999zm26.13322 11.78666c0 .53333.42667 1.01333 1.01333 1.01333h6.34667c.53333 0 1.01333-.48 1.01333-1.01333v-13.59999h3.68l7.09333 14.13332c.10666.21334.42666.48.85333.48h7.09333c.90666 0 1.28-.85333.90666-1.54666l-7.30666-13.54666c4.96-1.86667 7.89333-5.81333 7.89333-10.71999 0-6.34667-4.85333-11.52-11.62666-11.52h-15.94666c-.58666 0-1.01333.48-1.01333 1.01334zm8.37333-20.37332v-8.32h7.89333c2.18666 0 4.05333 1.54667 4.05333 4.05334 0 2.50666-1.86667 4.26666-4.05333 4.26666zm24.79992 2.77333c0 10.66666 8.58666 19.14666 19.25332 19.14666 4.74666 0 9.33333-1.65334 12.95999-5.17333.37334-.37334.42667-1.06667.0533-1.44l-4.16-4.42667c-.32-.37333-1.01333-.37333-1.38667-.0533-1.92 1.65333-4.21333 2.56-7.14666 2.56-6.02666 0-10.50666-4.90667-10.50666-10.82666 0-5.97333 4.42666-10.98666 10.45333-10.98666 2.61333 0 5.01333.8 7.19999 2.72.37334.37333.96.37333 1.33334 0l4.15999-4.32c.42667-.42667.42667-1.06667-.0533-1.49333-3.62667-3.30667-7.57333-4.96-12.90666-4.96-10.66666 0-19.25332 8.58666-19.25332 19.25332zm38.34659 17.59999c0 .53333.48 1.01333 1.01333 1.01333h6.34666c.58667 0 1.01334-.48 1.01334-1.01333v-14.02666h15.25332v14.02666c0 .53333.42667 1.01333 1.01333 1.01333h6.34667c.53333 0 1.01333-.48 1.01333-1.01333V391.68c0-.53334-.48-1.01334-1.01333-1.01334h-6.34667c-.58666 0-1.01333.48-1.01333 1.01334v13.43999h-15.25332V391.68c0-.53334-.42667-1.01334-1.01334-1.01334h-6.34666c-.53333 0-1.01333.48-1.01333 1.01334zm48.05326 0c0 .53333.42667 1.01333 1.01334 1.01333h6.34666c.53333 0 1.01333-.48 1.01333-1.01333v-17.01332l11.94666-17.75999c.42667-.69333 0-1.54667-.85333-1.54667h-6.93333c-.48 0-.69333.26667-.85333.48l-7.41333 10.93333-7.41333-10.93333c-.16-.21333-.42667-.48-.85333-.48h-6.93333c-.85333 0-1.28.85334-.85333 1.54667l11.78665 17.81332z" aria-label="ANARCHY" color="#000" font-family="Brandon Text" font-size="53.3333px" font-weight="500" style="-inkscape-font-specification:'Brandon Text, Medium';-inkscape-stroke:none" transform="translate(33.851678 6.8438898) scale(.26458)"/>
  </g>
  <path d="M45.690484 93.133067c-.55292-.0099-1.54235-.31116-2.1987-.669287-.65634-.358134-3.69615-3.102151-6.75512-6.097818-3.05895-2.99566-5.96916-6.217673-6.4671-7.160013-.61068-1.155683-.77422-2.412342-.50247-3.860883.32905-1.753992 2.27325-4.037338 10.60947-12.460112 6.18344-6.247626 11.17641-10.782047 12.66693-11.503593 1.71197-.82875 3.68245-1.191015 6.47831-1.191015 2.31959 0 4.69909-.358537 5.62926-.848206.886165-.466514 2.948289-2.216494 4.582473-3.888844 2.682543-2.745208 2.896716-3.159962 2.204245-4.268779-.69042-1.105548-.500151-1.494972 1.906156-3.901272 2.347133-2.347129 2.815034-2.584515 3.836671-1.946484 1.002105.625817 1.496325.447289 3.561539-1.286571 1.93394-1.623638 2.467896-2.523316 2.759286-4.649215.198681-1.449795.904097-3.514269 1.567522-4.587716.663447-1.073448 1.611745-2.107324 2.107339-2.297504.575001-.220645 1.0929.135806 1.431084.984984.291481.73192.694885 1.845546.89643 2.474726.276528.863285.535082.975308 1.053839.456571.378056-.378067.839147-2.616817 1.024611-4.975003.185376-2.358189.63907-4.387164 1.00797-4.508837.368923-.121666 1.548262.517166 2.620796 1.419642 1.072536.902475 2.442978 2.725996 3.045423 4.052265.602422 1.32627 1.101243 3.015537 1.108437 3.753927.009.911025.373275 1.342528 1.133695 1.342528.61631 0 1.50837-.584049 1.98234-1.297885.60073-.904749 1.19075-1.171648 1.94781-.881133.94881.364094 1.04096.899431.72932 4.236762-.1962 2.101005-.74254 4.743373-1.21407 5.871932-.76917 1.840869-.74322 2.382447.25226 5.265452.85929 2.488593 1.11398 5.001265 1.12907 11.138253.0158 6.738171-.12403 7.979781-.93885 8.292464-.5271.202265-2.09768-.185781-3.49018-.862314-2.531854-1.230065-2.531854-1.230065-5.241234 1.479304-1.507015 1.507019-3.003251 2.527734-3.371633 2.30007-.425775-.263146-.662252-2.969836-.662252-7.580123 0-7.170827 0-7.170827-1.876907-9.047745-1.77396-1.773957-1.901196-1.811323-2.319281-.681152-.243288.657669-1.566077 2.211001-2.939542 3.451848-2.09099 1.889074-2.645152 2.133317-3.406542 1.50142-.770139-.639156-1.539827-.107729-5.028728 3.472102-4.119422 4.226765-4.119422 4.226765-4.132525 8.623321-.009 3.027631-.361142 5.139689-1.130898 6.78327-.677159 1.445889-5.082109 6.314972-11.174624 12.352092-5.53127 5.480952-10.81273 10.246924-11.73656 10.591046-.92386.344116-2.13213.617509-2.68507.607525zm.26922-2.965246c1.51412 0 3.03034-1.216641 9.38899-7.533893 4.17079-4.143646 7.5053-7.593311 7.41005-7.665921-.0952-.07262-1.74159-.437355-3.65845-.810535-1.91689-.373186-5.13897-1.41914-7.16016-2.324349-2.02121-.905209-5.04907-2.763004-6.72858-4.128427-3.05367-2.482587-3.05367-2.482587-7.90601 2.395074-3.85373 3.873866-4.85233 5.236745-4.85233 6.6225 0 1.412231 1.11521 2.860023 5.85038 7.595187 4.82516 4.82515 6.1668 5.850364 7.65611 5.850364zm17.64587-17.951111c1.68429.03861 2.580202-.341492 3.747883-1.59012.843973-.902476 1.64343-2.177877 1.776597-2.834222.133055-.656347.376478-3.12634.540767-5.488878.164176-2.362532.614285-4.913334 1.00003-5.668446.385747-.75511 2.342712-3.052391 4.348819-5.105066 3.647461-3.732135 3.647461-3.732135 1.725517-5.654078-1.921942-1.921943-1.921942-1.921943-5.654085 1.725523-2.052675 2.006105-4.34406 3.959925-5.091986 4.341819-.747922.381896-3.701502.854402-6.563482 1.050013-5.20362.355659-5.20362.355659-10.27539 5.340897-5.07178 4.985237-5.07178 4.985237-2.68506 7.03413 1.31269 1.126887 3.81929 2.781054 5.57022 3.67593 1.75094.894867 4.57024 1.963347 6.26515 2.374391 1.69489.411054 4.07765.7702 5.29502.798107zm31.317158-14.269542c.228179 0 1.1629-.716662 2.077167-1.592583 1.543187-1.478461 1.780702-1.533279 3.314391-.764994.90866.455173 1.8754.933015 2.14832 1.06187.27294.12886.40719-3.218846.29834-7.439337-.18493-7.167963-.30233-7.824757-1.78271-9.967203-.87167-1.261473-2.616221-2.994426-3.876791-3.85101-1.611565-1.095075-3.301113-1.63042-5.691273-1.803307-2.617325-.189321-4.006485.04803-6.038751 1.031841-1.451673.702747-3.124623 1.813859-3.717642 2.469136-1.0489 1.15902-1.023529 1.247831.93321 3.266676 1.611092 1.662225 2.46907 2.075265 4.310729 2.075265 1.26463 0 3.08694.407305 4.049603.905118.962685.497817 2.157631 1.692755 2.655436 2.655424.601994 1.164099.905134 3.458846.905134 6.851705 0 2.805769.186727 5.101399.414837 5.101399zM82.633158 47.80363c.215368 0 .738025-.417305 1.16132-.927346.657764-.792537.217623-1.484403-3.028193-4.759239-3.598163-3.630425-3.8555-3.779708-4.894569-2.83937-1.050568.950748-.939592 1.151047 2.636516 4.759236 2.053284 2.071697 3.909511 3.766719 4.124926 3.766719zm19.205722-13.10704c.25803-.231673.62202-1.363086.80881-2.514252.33965-2.093031.33965-2.093031-2.24175-2.03688-2.581395.05615-2.581395.05615-2.985475-2.698242-.22236-1.51492-.813551-3.528708-1.313996-4.47509-.658508-1.245333-.992182-1.473436-1.207754-.825676-.163725.492259-.460076 1.874672-.658374 3.072031-.198229 1.197356-.890452 2.850741-1.538181 3.674184-.647729.823446-1.17767 1.621885-1.17767 1.774309 0 .152426 1.00851.438404 2.241162.635509 1.232628.197102 3.447811 1.13619 4.922599 2.086852 1.474789.950662 2.892569 1.538928 3.150629 1.307255zm-13.596132-3.59996c.82043 0 1.482772-.201386 1.471857-.44751-.01128-.246131-.523852-1.051646-1.13985-1.790036-.615977-.73839-1.278319-1.342526-1.471835-1.342526-.193494 0-.351874.805515-.351874 1.790036 0 1.511584.232056 1.790036 1.491702 1.790036z"/>
</svg>
