<?xml version="1.0" encoding="UTF-8" standalone="no"?>
<!-- Created with Inkscape (http://www.inkscape.org/) -->

<svg
   width="512"
   height="512"
   viewBox="0 0 135.46666 135.46667"
   version="1.1"
   id="svg5"
   inkscape:version="1.1 (c68e22c387, 2021-05-23)"
   sodipodi:docname="commerce.svg"
   xmlns:inkscape="http://www.inkscape.org/namespaces/inkscape"
   xmlns:sodipodi="http://sodipodi.sourceforge.net/DTD/sodipodi-0.dtd"
   xmlns="http://www.w3.org/2000/svg"
   xmlns:svg="http://www.w3.org/2000/svg">
  <sodipodi:namedview
     id="namedview7"
     pagecolor="#505050"
     bordercolor="#eeeeee"
     borderopacity="1"
     inkscape:pageshadow="0"
     inkscape:pageopacity="0"
     inkscape:pagecheckerboard="0"
     inkscape:document-units="px"
     showgrid="false"
     inkscape:zoom="0.46324355"
     inkscape:cx="93.903088"
     inkscape:cy="227.74197"
     inkscape:window-width="1366"
     inkscape:window-height="705"
     inkscape:window-x="-8"
     inkscape:window-y="-8"
     inkscape:window-maximized="1"
     inkscape:current-layer="layer1"
     units="px" />
  <defs
     id="defs2">
    <rect
       x="0"
       y="384.00006"
       width="511.99998"
       height="127.99992"
       id="rect12253" />
  </defs>
  <g
     inkscape:label="Calque 1"
     inkscape:groupmode="layer"
     id="layer1">
    <path
       style="color:#000000;fill:#000000;fill-rule:evenodd;stroke-width:8.46667;-inkscape-stroke:none"
       d="M 16.933335,0 H 118.53333 c 9.38107,0 16.93333,7.5522663 16.93333,16.933332 V 118.53333 c 0,9.38106 -7.55226,16.93333 -16.93333,16.93333 H 16.933335 C 7.552269,135.46666 2.7270507e-6,127.91439 2.7270507e-6,118.53333 V 16.933332 C 2.7270507e-6,7.5522663 7.552269,0 16.933335,0 Z"
       id="rect846" />
    <path
       style="color:#000000;fill:#ffc100;fill-rule:evenodd;stroke-width:8.46667;-inkscape-stroke:none"
       d="M 16.933332,8.5685921 H 118.53333 c 4.69054,0 8.46667,3.7761329 8.46667,8.4666659 v 84.666662 c 0,4.69054 -3.77613,8.46667 -8.46667,8.46667 H 16.933332 c -4.690533,0 -8.4666658,-3.77613 -8.4666658,-8.46667 V 17.035258 c 0,-4.690533 3.7761328,-8.4666659 8.4666658,-8.4666659 z"
       id="rect846-1" />
    <path
       style="color:#000000;fill:#000000;fill-rule:evenodd;stroke-width:0.264583;-inkscape-stroke:none"
       d="M 8.4666689,101.60001 H 127 c 4.69053,0 8.46666,3.77614 8.46666,8.46667 v 8.46667 c 0,4.69053 -3.77613,8.46666 -8.46666,8.46666 H 8.4666689 c -4.690533,0 -8.4666661729493,-3.77613 -8.4666661729493,-8.46666 v -8.46667 c 0,-4.69053 3.7761331729493,-8.46667 8.4666661729493,-8.46667 z"
       id="rect1024" />
    <g
       aria-label="COMMERCE"
       transform="matrix(0.26458333,0,0,0.26458333,27.537932,6.8438898)"
       id="text12251"
       style="font-weight:500;font-size:53.3333px;font-family:'Brandon Text';-inkscape-font-specification:'Brandon Text, Medium';white-space:pre;fill:#ffffff">
      <path
         style="color:#000000;-inkscape-font-specification:'Brandon Text, Medium';-inkscape-stroke:none"
         d="m 2.0799988,409.38665 c 0,10.66666 8.5866612,19.14666 19.2533222,19.14666 4.746663,0 9.333327,-1.65334 12.959992,-5.17333 0.373333,-0.37334 0.426666,-1.06667 0.05333,-1.44 l -4.159997,-4.42667 c -0.32,-0.37333 -1.013333,-0.37333 -1.386666,-0.0533 -1.919999,1.65333 -4.213331,2.56 -7.146663,2.56 -6.026663,0 -10.50666,-4.90667 -10.50666,-10.82666 0,-5.97333 4.426664,-10.98666 10.453327,-10.98666 2.613332,0 5.01333,0.8 7.199996,2.72 0.373333,0.37333 0.959999,0.37333 1.333332,0 l 4.159998,-4.32 c 0.426666,-0.42667 0.426666,-1.06667 -0.05333,-1.49333 -3.626665,-3.30667 -7.573329,-4.96 -12.906659,-4.96 -10.666661,0 -19.2533222,8.58666 -19.2533222,19.25332 z"
         id="path827" />
      <path
         style="color:#000000;-inkscape-font-specification:'Brandon Text, Medium';-inkscape-stroke:none"
         d="m 37.333173,409.38665 c 0,10.66666 8.479995,19.14666 19.146655,19.14666 10.66666,0 19.199988,-8.48 19.199988,-19.14666 0,-10.66666 -8.533328,-19.25332 -19.199988,-19.25332 -10.66666,0 -19.146655,8.58666 -19.146655,19.25332 z m 8.533328,0 c 0,-5.86666 4.799997,-10.71999 10.613327,-10.71999 5.866663,0 10.66666,4.85333 10.66666,10.71999 0,5.81333 -4.799997,10.61333 -10.66666,10.61333 -5.81333,0 -10.613327,-4.8 -10.613327,-10.61333 z"
         id="path829" />
      <path
         style="color:#000000;-inkscape-font-specification:'Brandon Text, Medium';-inkscape-stroke:none"
         d="m 79.679726,426.82664 c -0.106666,0.69333 0.373334,1.17333 1.013333,1.17333 h 6.29333 c 0.533333,0 0.959999,-0.42666 1.013332,-0.85333 l 2.346666,-16.47999 h 0.106666 l 9.013328,17.27999 c 0.16,0.32 0.586669,0.58667 0.906669,0.58667 h 0.96 c 0.26666,0 0.74666,-0.26667 0.90666,-0.58667 l 8.96,-17.27999 h 0.10666 l 2.4,16.47999 c 0.0533,0.42667 0.53334,0.85333 1.01334,0.85333 h 6.29333 c 0.63999,0 1.11999,-0.48 1.01333,-1.17333 l -6.02667,-35.83998 c -0.0533,-0.48 -0.53333,-0.85333 -0.95999,-0.85333 h -0.85334 c -0.26666,0 -0.74666,0.21333 -0.90666,0.53333 l -12.37333,23.03999 h -0.10667 L 88.426388,390.66666 c -0.16,-0.32 -0.64,-0.53333 -0.906666,-0.53333 h -0.853333 c -0.426666,0 -0.906666,0.37333 -0.959999,0.85333 z"
         id="path831" />
      <path
         style="color:#000000;-inkscape-font-specification:'Brandon Text, Medium';-inkscape-stroke:none"
         d="m 126.50628,426.82664 c -0.10667,0.69333 0.37333,1.17333 1.01333,1.17333 h 6.29333 c 0.53334,0 0.96,-0.42666 1.01333,-0.85333 l 2.34667,-16.47999 h 0.10667 l 9.01332,17.27999 c 0.16,0.32 0.58667,0.58667 0.90667,0.58667 h 0.96 c 0.26667,0 0.74667,-0.26667 0.90667,-0.58667 l 8.95999,-17.27999 h 0.10667 l 2.4,16.47999 c 0.0533,0.42667 0.53333,0.85333 1.01333,0.85333 h 6.29333 c 0.64,0 1.12,-0.48 1.01333,-1.17333 l -6.02666,-35.83998 c -0.0533,-0.48 -0.53333,-0.85333 -0.96,-0.85333 h -0.85333 c -0.26667,0 -0.74667,0.21333 -0.90667,0.53333 l -12.37333,23.03999 h -0.10666 l -12.37333,-23.03999 c -0.16,-0.32 -0.64,-0.53333 -0.90666,-0.53333 h -0.85334 c -0.42666,0 -0.90666,0.37333 -0.96,0.85333 z"
         id="path833" />
      <path
         style="color:#000000;-inkscape-font-specification:'Brandon Text, Medium';-inkscape-stroke:none"
         d="m 175.30617,426.98664 c 0,0.53333 0.42666,1.01333 1.01333,1.01333 h 22.07998 c 0.58667,0 1.01334,-0.48 1.01334,-1.01333 v -5.81333 c 0,-0.53333 -0.42667,-1.01333 -1.01334,-1.01333 h -14.77332 v -7.2 h 12.15999 c 0.53334,0 1.01334,-0.42666 1.01334,-1.01333 v -5.81333 c 0,-0.53333 -0.48,-1.01333 -1.01334,-1.01333 h -12.15999 v -6.61333 h 14.77332 c 0.58667,0 1.01334,-0.48 1.01334,-1.01333 V 391.68 c 0,-0.53334 -0.42667,-1.01334 -1.01334,-1.01334 H 176.3195 c -0.58667,0 -1.01333,0.48 -1.01333,1.01334 z"
         id="path835" />
      <path
         style="color:#000000;-inkscape-font-specification:'Brandon Text, Medium';-inkscape-stroke:none"
         d="m 206.13276,426.98664 c 0,0.53333 0.42667,1.01333 1.01334,1.01333 h 6.34666 c 0.53333,0 1.01333,-0.48 1.01333,-1.01333 v -13.59999 h 3.68 l 7.09333,14.13332 c 0.10667,0.21334 0.42667,0.48 0.85333,0.48 h 7.09333 c 0.90667,0 1.28,-0.85333 0.90667,-1.54666 l -7.30666,-13.54666 c 4.95999,-1.86667 7.89332,-5.81333 7.89332,-10.71999 0,-6.34667 -4.85333,-11.52 -11.62666,-11.52 H 207.1461 c -0.58667,0 -1.01334,0.48 -1.01334,1.01334 z m 8.37333,-20.37332 v -8.32 h 7.89333 c 2.18667,0 4.05333,1.54667 4.05333,4.05334 0,2.50666 -1.86666,4.26666 -4.05333,4.26666 z"
         id="path837" />
      <path
         style="color:#000000;-inkscape-font-specification:'Brandon Text, Medium';-inkscape-stroke:none"
         d="m 239.30601,409.38665 c 0,10.66666 8.58666,19.14666 19.25332,19.14666 4.74667,0 9.33333,-1.65334 12.96,-5.17333 0.37333,-0.37334 0.42666,-1.06667 0.0533,-1.44 l -4.16,-4.42667 c -0.32,-0.37333 -1.01333,-0.37333 -1.38666,-0.0533 -1.92,1.65333 -4.21333,2.56 -7.14667,2.56 -6.02666,0 -10.50666,-4.90667 -10.50666,-10.82666 0,-5.97333 4.42667,-10.98666 10.45333,-10.98666 2.61333,0 5.01333,0.8 7.2,2.72 0.37333,0.37333 0.96,0.37333 1.33333,0 l 4.16,-4.32 c 0.42666,-0.42667 0.42666,-1.06667 -0.0533,-1.49333 -3.62666,-3.30667 -7.57333,-4.96 -12.90666,-4.96 -10.66666,0 -19.25332,8.58666 -19.25332,19.25332 z"
         id="path839" />
      <path
         style="color:#000000;-inkscape-font-specification:'Brandon Text, Medium';-inkscape-stroke:none"
         d="m 277.6526,426.98664 c 0,0.53333 0.42667,1.01333 1.01333,1.01333 h 22.07999 c 0.58667,0 1.01333,-0.48 1.01333,-1.01333 v -5.81333 c 0,-0.53333 -0.42666,-1.01333 -1.01333,-1.01333 H 285.9726 v -7.2 h 12.15999 c 0.53333,0 1.01333,-0.42666 1.01333,-1.01333 v -5.81333 c 0,-0.53333 -0.48,-1.01333 -1.01333,-1.01333 H 285.9726 v -6.61333 h 14.77332 c 0.58667,0 1.01333,-0.48 1.01333,-1.01333 V 391.68 c 0,-0.53334 -0.42666,-1.01334 -1.01333,-1.01334 h -22.07999 c -0.58666,0 -1.01333,0.48 -1.01333,1.01334 z"
         id="path841" />
    </g>
    <path
       style="fill:#000000;stroke-width:0.595162"
       d="m 52.472801,92.289586 c -4.044123,-1.760819 -5.884598,-6.446303 -4.282343,-10.902 l 0.911918,-2.535936 h -3.11162 c -2.255211,0 -3.668211,-0.374553 -5.133908,-1.360876 -6.007342,-4.042559 -2.829923,-12.923029 4.623844,-12.923029 2.389783,0 2.577196,-0.109007 2.302352,-1.339115 -2.260097,-10.115388 -2.255056,-9.968977 -0.343259,-9.968977 0.884123,0 1.287156,0.88984 2.089143,4.612512 0.546529,2.53688 1.127107,5.081202 1.290173,5.654045 0.360059,1.264859 3.192082,1.444769 3.192082,0.202787 0,-1.641574 -8.853101,-40.762016 -9.496775,-41.964734 -0.846769,-1.582209 -2.384166,-1.934855 -7.477784,-1.715236 -3.697212,0.159417 -4.153683,0.309902 -4.153683,1.369417 0,1.065573 0.455256,1.208713 4.34383,1.365773 3.062017,0.123674 4.438783,0.422889 4.665607,1.013982 0.750102,1.954738 2.947277,12.636458 2.732061,13.282106 -0.129275,0.387814 -0.730304,0.705115 -1.335628,0.705115 -0.908719,0 -1.332257,-1.037583 -2.42943,-5.951628 l -1.328838,-5.951627 h -3.499646 c -2.922122,0 -3.740717,-0.241074 -4.960495,-1.460855 -1.882215,-1.882218 -1.861149,-4.14458 0.05646,-6.062182 1.447376,-1.447378 1.776027,-1.507845 7.131444,-1.312064 5.370285,0.196331 5.694682,0.285823 7.468392,2.060439 1.493321,1.494086 2.105937,2.942188 3.147284,7.439536 l 1.293036,5.584335 2.796811,0.180675 2.796811,0.180652 0.166818,-7.620199 0.166818,-7.620199 14.102029,-0.159485 14.102046,-0.159485 0.18184,2.837717 0.18185,2.837718 5.95162,0.29758 5.95161,0.297582 0.17382,4.612512 0.17383,4.61251 h 2.87052 c 3.311899,0 6.005129,1.686367 6.009669,3.762966 0.006,2.674681 -7.881439,28.671477 -9.105639,30.012523 l -1.22243,1.339117 H 69.381654 c -25.289826,0 -26.119587,0.03622 -27.273697,1.190326 -1.530356,1.530358 -1.530356,4.42127 0,5.951625 1.155361,1.155366 1.983871,1.190324 28.206508,1.190324 22.403686,0 27.069916,0.14005 27.330936,0.820218 0.54124,1.410465 -0.90193,2.155597 -4.17498,2.155597 -1.7349,0 -3.15436,0.09277 -3.15436,0.206138 0,0.113372 0.43368,1.075484 0.96374,2.138009 2.65964,5.331386 -1.90272,11.944745 -8.23536,11.937531 -5.87454,-0.0067 -10.05569,-7.186299 -7.29456,-12.525747 l 0.90802,-1.755933 H 69.87202 63.086132 l 0.911917,2.535936 c 2.665746,7.413145 -4.333062,14.033479 -11.525239,10.902002 z m 7.535782,-3.869551 c 1.287991,-1.287992 1.739703,-2.304345 1.739703,-3.91434 0,-3.023885 -2.630154,-5.654045 -5.654035,-5.654045 -3.023885,0 -5.654038,2.63016 -5.654038,5.654045 0,1.609995 0.451712,2.626348 1.739702,3.91434 2.401072,2.401077 5.427597,2.401077 7.828668,0 z M 54.8231,85.104841 c -0.206138,-0.537205 -0.08942,-1.262121 0.259374,-1.610921 0.906794,-0.906796 2.624908,-0.07801 2.388041,1.151931 -0.263835,1.369993 -2.170952,1.700637 -2.647415,0.45899 z m 32.562921,3.315194 c 1.28799,-1.287992 1.73971,-2.304345 1.73971,-3.91434 0,-3.023885 -2.63016,-5.654045 -5.65404,-5.654045 -3.02388,0 -5.65404,2.63016 -5.65404,5.654045 0,1.609995 0.45171,2.626348 1.73971,3.91434 2.40107,2.401077 5.42759,2.401077 7.82866,0 z m -5.20236,-3.359184 c -0.5416,-1.411391 0.72777,-2.406813 1.86531,-1.462741 0.70492,0.585032 0.76444,0.961759 0.24993,1.581716 -0.89125,1.073882 -1.6744,1.029834 -2.11524,-0.118975 z M 64.536441,62.335886 c -0.186883,-1.227523 -0.523539,-4.17358 -0.748129,-6.546792 l -0.408343,-4.314929 h -4.386812 c -3.110877,0 -4.387793,0.216395 -4.390184,0.743953 -0.0018,0.409174 0.57806,3.355231 1.288701,6.546791 l 1.292077,5.802836 h 3.846238 3.84624 z m 10.90057,-4.31493 v -6.546791 h -4.82582 c -4.701693,0 -4.81766,0.03444 -4.508832,1.339115 0.174332,0.736514 0.492729,3.213879 0.70753,5.505256 0.609222,6.498921 0.417473,6.249209 4.798672,6.249209 h 3.82845 z m 10.9601,2.529442 c 0.22636,-2.209543 0.56921,-5.167549 0.76189,-6.573349 l 0.35031,-2.555998 -4.69704,0.175343 -4.69704,0.175344 -0.1725,5.609398 c -0.0949,3.085169 -0.0363,5.964269 0.1301,6.398001 0.20756,0.540903 1.49776,0.788599 4.10766,0.788599 h 3.80504 z m 8.68023,3.867303 c 0,-0.08253 0.80347,-2.96106 1.78549,-6.396745 0.98202,-3.435687 1.78548,-6.314222 1.78548,-6.396745 0,-0.08253 -1.85671,-0.150037 -4.12602,-0.150037 -4.74841,0 -4.51115,-0.304623 -5.09898,6.546791 -0.21064,2.455046 -0.51572,4.932411 -0.67797,5.505254 -0.25562,0.902543 0.1472,1.041535 3.01851,1.041535 1.82242,0 3.31349,-0.06753 3.31349,-0.150037 z M 62.631677,45.671326 c -0.191358,-1.55486 -0.535854,-4.433961 -0.765536,-6.397998 l -0.417608,-3.570977 -5.206578,-0.171969 c -3.940001,-0.13013 -5.207402,0.01462 -5.209956,0.595162 -0.0018,0.42192 0.578061,3.378403 1.288704,6.569963 l 1.292077,5.802836 h 4.683413 4.683416 z m 12.805334,-3.719765 v -6.546792 h -5.720278 -5.720272 l 0.343947,1.93428 c 0.189177,1.063854 0.523741,4.009908 0.743491,6.546789 l 0.399541,4.612512 h 4.976781 4.97679 z m 12.69643,3.719765 c 0.19327,-1.55486 0.53018,-4.500917 0.74871,-6.546789 l 0.39732,-3.719768 h -5.73091 -5.73091 v 6.150016 c 0,3.382508 0.17854,6.328565 0.39678,6.54679 0.21821,0.218217 2.46021,0.396775 4.9822,0.396775 h 4.58542 z m 13.159279,-2.869389 c 0.88911,-3.133028 1.46972,-6.079083 1.29025,-6.54679 -0.24703,-0.643743 -1.54205,-0.850378 -5.329489,-0.850378 h -5.00315 l -0.35874,1.793663 c -0.1973,0.986514 -0.53711,3.932569 -0.75512,6.546789 l -0.3964,4.753129 h 4.46805 4.46804 z m -25.136799,-14.985493 0.17384,-4.612512 2.82702,-0.181394 c 2.55236,-0.163781 2.82701,-0.322789 2.82701,-1.636697 V 19.930544 H 70.378141 58.772488 v 6.249208 6.249209 h 8.604808 8.604815 z m 17.7311,1.339116 v -3.273395 h -7.43952 -7.43952 v 3.273395 3.273394 h 7.43952 7.43952 z M 44.550659,46.751406 c -1.013363,-0.62652 -0.437684,-2.419195 0.776875,-2.419195 1.306737,0 1.795176,1.191962 0.868177,2.118659 -0.511447,0.511281 -1.123366,0.623073 -1.645052,0.300536 z"
       id="path827-9" />
  </g>
</svg>
