<?xml version="1.0" encoding="UTF-8" standalone="no"?>
<!-- Created with Inkscape (http://www.inkscape.org/) -->

<svg
   width="512"
   height="512"
   viewBox="0 0 135.46666 135.46667"
   version="1.1"
   id="svg5"
   inkscape:version="1.1 (c68e22c387, 2021-05-23)"
   sodipodi:docname="coordination.svg"
   xmlns:inkscape="http://www.inkscape.org/namespaces/inkscape"
   xmlns:sodipodi="http://sodipodi.sourceforge.net/DTD/sodipodi-0.dtd"
   xmlns="http://www.w3.org/2000/svg"
   xmlns:svg="http://www.w3.org/2000/svg">
  <sodipodi:namedview
     id="namedview7"
     pagecolor="#505050"
     bordercolor="#eeeeee"
     borderopacity="1"
     inkscape:pageshadow="0"
     inkscape:pageopacity="0"
     inkscape:pagecheckerboard="0"
     inkscape:document-units="px"
     showgrid="false"
     inkscape:zoom="0.46324355"
     inkscape:cx="93.903088"
     inkscape:cy="227.74197"
     inkscape:window-width="1366"
     inkscape:window-height="705"
     inkscape:window-x="-8"
     inkscape:window-y="-8"
     inkscape:window-maximized="1"
     inkscape:current-layer="layer1"
     units="px" />
  <defs
     id="defs2">
    <rect
       x="0"
       y="384.00006"
       width="511.99998"
       height="127.99992"
       id="rect12253" />
  </defs>
  <g
     inkscape:label="Calque 1"
     inkscape:groupmode="layer"
     id="layer1">
    <path
       style="color:#000000;fill:#000000;fill-rule:evenodd;stroke-width:8.46667;-inkscape-stroke:none"
       d="M 16.933335,0 H 118.53333 c 9.38107,0 16.93333,7.5522663 16.93333,16.933332 V 118.53333 c 0,9.38106 -7.55226,16.93333 -16.93333,16.93333 H 16.933335 C 7.552269,135.46666 2.7270507e-6,127.91439 2.7270507e-6,118.53333 V 16.933332 C 2.7270507e-6,7.5522663 7.552269,0 16.933335,0 Z"
       id="rect846" />
    <path
       style="color:#000000;fill:#b900d3;fill-rule:evenodd;stroke-width:8.46667;-inkscape-stroke:none"
       d="M 16.933332,8.5685921 H 118.53333 c 4.69054,0 8.46667,3.7761329 8.46667,8.4666659 v 84.666662 c 0,4.69054 -3.77613,8.46667 -8.46667,8.46667 H 16.933332 c -4.690533,0 -8.4666658,-3.77613 -8.4666658,-8.46667 V 17.035258 c 0,-4.690533 3.7761328,-8.4666659 8.4666658,-8.4666659 z"
       id="rect846-1" />
    <path
       style="color:#000000;fill:#000000;fill-rule:evenodd;stroke-width:0.264583;-inkscape-stroke:none"
       d="M 8.4666689,101.60001 H 127 c 4.69053,0 8.46666,3.77614 8.46666,8.46667 v 8.46667 c 0,4.69053 -3.77613,8.46666 -8.46666,8.46666 H 8.4666689 c -4.690533,0 -8.4666661729493,-3.77613 -8.4666661729493,-8.46666 v -8.46667 c 0,-4.69053 3.7761331729493,-8.46667 8.4666661729493,-8.46667 z"
       id="rect1024" />
    <g
       aria-label="COORDINATION"
       transform="matrix(0.26458333,0,0,0.26458333,13.306912,6.8438898)"
       id="text12251"
       style="font-weight:500;font-size:53.3333px;font-family:'Brandon Text';-inkscape-font-specification:'Brandon Text, Medium';white-space:pre;fill:#ffffff">
      <path
         style="color:#000000;-inkscape-font-specification:'Brandon Text, Medium';-inkscape-stroke:none"
         d="m 2.0799988,409.38665 c 0,10.66666 8.5866612,19.14666 19.2533222,19.14666 4.746663,0 9.333327,-1.65334 12.959992,-5.17333 0.373333,-0.37334 0.426666,-1.06667 0.05333,-1.44 l -4.159997,-4.42667 c -0.32,-0.37333 -1.013333,-0.37333 -1.386666,-0.0533 -1.919999,1.65333 -4.213331,2.56 -7.146663,2.56 -6.026663,0 -10.50666,-4.90667 -10.50666,-10.82666 0,-5.97333 4.426664,-10.98666 10.453327,-10.98666 2.613332,0 5.01333,0.8 7.199996,2.72 0.373333,0.37333 0.959999,0.37333 1.333332,0 l 4.159998,-4.32 c 0.426666,-0.42667 0.426666,-1.06667 -0.05333,-1.49333 -3.626665,-3.30667 -7.573329,-4.96 -12.906659,-4.96 -10.666661,0 -19.2533222,8.58666 -19.2533222,19.25332 z"
         id="path870" />
      <path
         style="color:#000000;-inkscape-font-specification:'Brandon Text, Medium';-inkscape-stroke:none"
         d="m 37.333173,409.38665 c 0,10.66666 8.479995,19.14666 19.146655,19.14666 10.66666,0 19.199988,-8.48 19.199988,-19.14666 0,-10.66666 -8.533328,-19.25332 -19.199988,-19.25332 -10.66666,0 -19.146655,8.58666 -19.146655,19.25332 z m 8.533328,0 c 0,-5.86666 4.799997,-10.71999 10.613327,-10.71999 5.866663,0 10.66666,4.85333 10.66666,10.71999 0,5.81333 -4.799997,10.61333 -10.66666,10.61333 -5.81333,0 -10.613327,-4.8 -10.613327,-10.61333 z"
         id="path872" />
      <path
         style="color:#000000;-inkscape-font-specification:'Brandon Text, Medium';-inkscape-stroke:none"
         d="m 79.839764,409.38665 c 0,10.66666 8.479995,19.14666 19.146656,19.14666 10.66666,0 19.19999,-8.48 19.19999,-19.14666 0,-10.66666 -8.53333,-19.25332 -19.19999,-19.25332 -10.666661,0 -19.146656,8.58666 -19.146656,19.25332 z m 8.533329,0 c 0,-5.86666 4.799997,-10.71999 10.613327,-10.71999 5.86666,0 10.66666,4.85333 10.66666,10.71999 0,5.81333 -4.8,10.61333 -10.66666,10.61333 -5.81333,0 -10.613327,-4.8 -10.613327,-10.61333 z"
         id="path874" />
      <path
         style="color:#000000;-inkscape-font-specification:'Brandon Text, Medium';-inkscape-stroke:none"
         d="m 124.47968,426.98664 c 0,0.53333 0.42667,1.01333 1.01333,1.01333 h 6.34667 c 0.53333,0 1.01333,-0.48 1.01333,-1.01333 v -13.59999 h 3.68 l 7.09333,14.13332 c 0.10666,0.21334 0.42666,0.48 0.85333,0.48 h 7.09333 c 0.90666,0 1.28,-0.85333 0.90666,-1.54666 L 145.173,412.90665 c 4.96,-1.86667 7.89333,-5.81333 7.89333,-10.71999 0,-6.34667 -4.85333,-11.52 -11.62666,-11.52 h -15.94666 c -0.58666,0 -1.01333,0.48 -1.01333,1.01334 z m 8.37333,-20.37332 v -8.32 h 7.89333 c 2.18666,0 4.05333,1.54667 4.05333,4.05334 0,2.50666 -1.86667,4.26666 -4.05333,4.26666 z"
         id="path876" />
      <path
         style="color:#000000;-inkscape-font-specification:'Brandon Text, Medium';-inkscape-stroke:none"
         d="m 159.78627,426.98664 c 0,0.53333 0.42666,1.01333 0.96,1.01333 h 13.01332 c 10.29333,0 18.71999,-8.37332 18.71999,-18.71999 0,-10.23999 -8.42666,-18.61332 -18.71999,-18.61332 h -13.01332 c -0.53334,0 -0.96,0.48 -0.96,1.01334 z m 8.31999,-6.87999 v -21.59999 h 5.6 c 6.02666,0 9.91999,4.74666 9.91999,10.77332 0,6.08 -3.89333,10.82667 -9.91999,10.82667 z"
         id="path878" />
      <path
         style="color:#000000;-inkscape-font-specification:'Brandon Text, Medium';-inkscape-stroke:none"
         d="m 198.82615,426.98664 c 0,0.53333 0.48,1.01333 1.01334,1.01333 h 6.39999 c 0.53334,0 1.01334,-0.48 1.01334,-1.01333 V 391.68 c 0,-0.53334 -0.48,-1.01334 -1.01334,-1.01334 h -6.39999 c -0.53334,0 -1.01334,0.48 -1.01334,1.01334 z"
         id="path880" />
      <path
         style="color:#000000;-inkscape-font-specification:'Brandon Text, Medium';-inkscape-stroke:none"
         d="m 215.67947,426.98664 c 0,0.53333 0.48,1.01333 1.01333,1.01333 h 6.34667 c 0.58666,0 1.01333,-0.48 1.01333,-1.01333 v -19.89332 c 0,0 0.0533,0 0.0533,0 l 20.74666,20.85332 c 0.42666,0.42667 0.8,0.58667 1.33333,0.58667 h 0.53333 c 0.53334,0 1.01334,-0.32 1.01334,-0.96 V 391.68 c 0,-0.53334 -0.48,-1.01334 -1.01334,-1.01334 h -6.39999 c -0.58667,0 -1.01334,0.48 -1.01334,1.01334 v 18.93332 c 0,0 -0.0533,0 -0.0533,0 L 218.7728,390.93333 c -0.42666,-0.42667 -0.8,-0.8 -1.33333,-0.8 h -0.8 c -0.53333,0 -1.01333,0.42667 -1.01333,0.96 z"
         id="path882" />
      <path
         style="color:#000000;-inkscape-font-specification:'Brandon Text, Medium';-inkscape-stroke:none"
         d="m 252.85273,427.99997 h 5.86666 c 1.06667,0 1.65333,-0.64 1.92,-1.28 l 1.92,-4.26666 h 14.50666 l 1.91999,4.21333 c 0.48,1.01333 0.90667,1.33333 1.86667,1.33333 h 5.92 c 0.8,0 1.22666,-0.69333 0.90666,-1.38666 L 270.98605,390.72 c -0.16,-0.32 -0.53333,-0.58667 -0.90667,-0.58667 h -0.53333 c -0.37333,0 -0.74667,0.26667 -0.90667,0.58667 l -16.69332,35.89331 c -0.32,0.69333 0.10667,1.38666 0.90667,1.38666 z m 12.90666,-12.79999 3.99999,-8.79999 h 0.0533 l 4.05333,8.79999 z"
         id="path884" />
      <path
         style="color:#000000;-inkscape-font-specification:'Brandon Text, Medium';-inkscape-stroke:none"
         d="m 295.25252,426.98664 c 0,0.53333 0.48,1.01333 1.01333,1.01333 h 6.4 c 0.53333,0 1.01333,-0.48 1.01333,-1.01333 v -28.47998 h 7.62667 c 0.58666,0 1.01333,-0.48 1.01333,-1.01333 V 391.68 c 0,-0.53334 -0.42667,-1.01334 -1.01333,-1.01334 h -23.67999 c -0.58667,0 -1.01333,0.48 -1.01333,1.01334 v 5.81333 c 0,0.53333 0.42666,1.01333 1.01333,1.01333 h 7.62666 z"
         id="path886" />
      <path
         style="color:#000000;-inkscape-font-specification:'Brandon Text, Medium';-inkscape-stroke:none"
         d="m 317.91911,426.98664 c 0,0.53333 0.48,1.01333 1.01333,1.01333 h 6.4 c 0.53333,0 1.01333,-0.48 1.01333,-1.01333 V 391.68 c 0,-0.53334 -0.48,-1.01334 -1.01333,-1.01334 h -6.4 c -0.53333,0 -1.01333,0.48 -1.01333,1.01334 z"
         id="path888" />
      <path
         style="color:#000000;-inkscape-font-specification:'Brandon Text, Medium';-inkscape-stroke:none"
         d="m 332.63908,409.38665 c 0,10.66666 8.48,19.14666 19.14666,19.14666 10.66666,0 19.19998,-8.48 19.19998,-19.14666 0,-10.66666 -8.53332,-19.25332 -19.19998,-19.25332 -10.66666,0 -19.14666,8.58666 -19.14666,19.25332 z m 8.53333,0 c 0,-5.86666 4.8,-10.71999 10.61333,-10.71999 5.86666,0 10.66666,4.85333 10.66666,10.71999 0,5.81333 -4.8,10.61333 -10.66666,10.61333 -5.81333,0 -10.61333,-4.8 -10.61333,-10.61333 z"
         id="path890" />
      <path
         style="color:#000000;-inkscape-font-specification:'Brandon Text, Medium';-inkscape-stroke:none"
         d="m 377.279,426.98664 c 0,0.53333 0.48,1.01333 1.01334,1.01333 h 6.34666 c 0.58667,0 1.01333,-0.48 1.01333,-1.01333 v -19.89332 c 0,0 0.0533,0 0.0533,0 l 20.74665,20.85332 c 0.42667,0.42667 0.8,0.58667 1.33333,0.58667 h 0.53334 c 0.53333,0 1.01333,-0.32 1.01333,-0.96 V 391.68 c 0,-0.53334 -0.48,-1.01334 -1.01333,-1.01334 h -6.4 c -0.58667,0 -1.01333,0.48 -1.01333,1.01334 v 18.93332 c 0,0 -0.0533,0 -0.0533,0 l -20.47998,-19.67999 c -0.42667,-0.42667 -0.8,-0.8 -1.33334,-0.8 h -0.8 c -0.53333,0 -1.01333,0.42667 -1.01333,0.96 z"
         id="path892" />
    </g>
    <path
       style="fill:#000000;stroke-width:0.595312"
       d="M 39.56122,91.672108 38.1,90.21089 V 57.71224 25.21359 l 1.46122,-1.461222 c 1.43001,-1.429997 1.66534,-1.461222 11.01329,-1.461222 h 9.552064 v -1.752181 c 0,-2.828981 1.759637,-3.605632 8.169195,-3.605632 6.109363,0 7.904257,0.878697 7.904257,3.869532 v 1.488281 h 9.459076 c 11.456761,0 11.994407,0.240885 12.436503,5.571996 l 0.281008,3.388543 3.163587,-2.991987 c 2.79808,-2.64631 3.4619,-2.991989 5.74567,-2.991989 1.42015,0 3.179,0.418097 3.90858,0.929106 2.70293,1.893213 3.85067,6.015024 2.4459,8.783858 -0.36284,0.715175 -3.97104,4.648949 -8.01822,8.741724 l -7.358485,7.441404 -0.167334,19.84734 -0.167332,19.847349 -1.405405,1.13742 c -1.337392,1.08238 -2.714373,1.137422 -28.453255,1.137422 H 41.02244 Z M 94.888705,89.21511 c 0.529369,-1.379511 0.442204,-34.777089 -0.09077,-34.777089 -0.248662,0 -0.851417,0.602753 -1.339454,1.339453 -0.706131,1.065912 -0.94813,4.439587 -1.185,16.519923 L 91.975824,87.477865 68.530372,87.633677 C 51.71881,87.74539 44.85474,87.598437 44.27138,87.114294 c -1.11945,-0.92905 -1.21519,-57.63497 -0.0992,-58.750961 0.43351,-0.43351 2.54001,-0.714375 5.35782,-0.714375 4.2723,0 4.64343,-0.09677 4.64343,-1.210765 0,-1.152871 -0.306,-1.202686 -6.3996,-1.041798 l -6.39962,0.168975 -0.1548,31.551562 c -0.085,17.353362 -0.0266,31.886424 0.13027,32.295701 0.22208,0.57987 6.12298,0.744143 26.731306,0.744143 23.566503,0 26.485766,-0.102533 26.807766,-0.941661 z m -5.13322,-17.06654 c 0.144787,-11.115841 -0.19485,-14.259386 -1.244956,-11.522833 -0.439935,1.146452 -16.97073,9.457039 -18.014506,9.0565 -1.393493,-0.534732 -1.010633,-1.832384 2.787911,-9.449073 3.35797,-6.733224 4.124523,-7.784536 10.147689,-13.917017 l 6.515343,-6.633592 -0.176197,-4.379689 -0.176198,-4.379687 -3.748966,-0.177975 c -3.292361,-0.156285 -3.968599,0.0068 -5.55233,1.339452 -1.78639,1.503148 -1.903975,1.517422 -12.500359,1.517422 -10.616406,0 -10.708226,-0.01125 -12.185306,-1.488283 -1.28006,-1.280061 -2.02587,-1.48828 -5.33076,-1.48828 H 46.43439 V 57.719667 84.813811 L 68.014474,84.657548 89.594578,84.501286 Z M 76.469689,63.867463 c 1.733874,-0.790008 1.869121,-1.251769 0.660398,-2.254925 -0.697793,-0.579114 -1.030546,-0.372629 -1.801239,1.11773 -1.058918,2.047725 -0.995761,2.110685 1.140841,1.137195 z m 6.868289,-3.269927 c 1.497916,-0.884842 1.605893,-1.157197 1.069111,-2.696994 -0.744099,-2.134519 -3.738649,-3.858287 -4.952548,-2.850851 -1.656226,1.37455 -1.616198,2.910719 0.123975,4.754349 1.973635,2.091058 1.671055,2.027198 3.759552,0.793496 z M 96.979695,47.648311 c 7.100365,-7.111462 9.064835,-9.410211 8.747815,-10.236354 -0.33272,-0.867029 -2.16764,0.690834 -9.855129,8.367056 -5.679995,5.671668 -9.323305,9.752974 -9.137814,10.236355 0.169673,0.442146 0.483984,0.803903 0.698484,0.803903 0.214492,0 4.510486,-4.126932 9.546644,-9.17096 z m -3.040597,-4.103055 c 5.000942,-5.008756 8.904432,-9.295005 8.674442,-9.525 -0.22999,-0.229995 -0.84558,-0.418171 -1.36796,-0.418171 -1.16813,0 -19.299567,18.049089 -18.716838,18.631827 1.142618,1.14262 3.027333,-0.292533 11.410356,-8.688656 z m 0.222278,-7.951845 c 0.846624,-0.766181 1.088677,-1.864764 1.088677,-4.941094 0,-2.283028 -0.302092,-4.25795 -0.714376,-4.670233 -0.463152,-0.463149 -2.870732,-0.714375 -6.846102,-0.714375 -5.694264,0 -6.131732,0.08329 -6.131732,1.167448 0,1.057667 0.489825,1.183622 5.208998,1.339452 l 5.208988,0.172013 0.174915,4.316015 c 0.09619,2.373809 0.342996,4.316016 0.548437,4.316016 0.205447,0 0.863434,-0.443355 1.462201,-0.985235 z M 111.3235,32.010032 c 0,-3.40943 -4.61743,-4.966632 -7.04979,-2.377503 l -1.3042,1.388257 1.45698,0.663847 c 0.80134,0.365114 2.06136,1.481314 2.80005,2.480445 l 1.34308,1.816599 1.37694,-1.293567 c 0.75732,-0.711463 1.37694,-1.916599 1.37694,-2.678078 z m -32.856822,-4.212245 0.18315,-2.530078 H 67.899971 57.15012 v 1.737247 c 0,3.743942 -0.25144,3.663784 10.933429,3.485498 L 78.28373,30.327869 Z m -5.354847,-6.548439 c -0.165826,-0.86899 -0.979246,-1.070925 -4.903295,-1.217414 -4.501556,-0.168052 -5.658665,0.200475 -5.691582,1.812728 -0.0045,0.245565 2.421542,0.446484 5.392355,0.446484 4.823149,0 5.38016,-0.111533 5.202522,-1.041798 z"
       id="path827" />
  </g>
</svg>
