<svg xmlns="http://www.w3.org/2000/svg" width="512" height="512" viewBox="0 0 135.46666 135.46667">
  <path fill-rule="evenodd" d="M16.933335 0H118.53333c9.38107 0 16.93333 7.5522663 16.93333 16.933332V118.53333c0 9.38106-7.55226 16.93333-16.93333 16.93333H16.933335c-9.381066 0-16.93333227-7.55227-16.93333227-16.93333V16.933332C.00000273 7.5522663 7.552269 0 16.933335 0Z" color="#000" style="-inkscape-stroke:none"/>
  <path fill="#b900d3" fill-rule="evenodd" d="M16.933332 8.5685921H118.53333c4.69054 0 8.46667 3.7761329 8.46667 8.4666659v84.666662c0 4.69054-3.77613 8.46667-8.46667 8.46667H16.933332c-4.690533 0-8.4666658-3.77613-8.4666658-8.46667V17.035258c0-4.690533 3.7761328-8.4666659 8.4666658-8.4666659z" color="#000" style="-inkscape-stroke:none"/>
  <path fill-rule="evenodd" d="M8.4666689 101.60001H127c4.69053 0 8.46666 3.77614 8.46666 8.46667v8.46667c0 4.69053-3.77613 8.46666-8.46666 8.46666H8.4666689c-4.690533 0-8.46666617-3.77613-8.46666617-8.46666v-8.46667c0-4.69053 3.77613317-8.46667 8.46666617-8.46667z" color="#000" style="-inkscape-stroke:none"/>
  <g style="-inkscape-font-specification:'Brandon Text, Medium';white-space:pre">
    <path fill="#fff" d="M2.0799988 409.38665c0 10.66666 8.5866612 19.14666 19.2533222 19.14666 4.746663 0 9.333327-1.65334 12.959992-5.17333.373333-.37334.426666-1.06667.05333-1.44l-4.159997-4.42667c-.32-.37333-1.013333-.37333-1.386666-.0533-1.919999 1.65333-4.213331 2.56-7.146663 2.56-6.026663 0-10.50666-4.90667-10.50666-10.82666 0-5.97333 4.426664-10.98666 10.453327-10.98666 2.613332 0 5.01333.8 7.199996 2.72.373333.37333.959999.37333 1.333332 0l4.159998-4.32c.426666-.42667.426666-1.06667-.05333-1.49333-3.626665-3.30667-7.573329-4.96-12.906659-4.96-10.666661 0-19.2533222 8.58666-19.2533222 19.25332zm35.2531742 0c0 10.66666 8.479995 19.14666 19.146655 19.14666 10.66666 0 19.199988-8.48 19.199988-19.14666s-8.533328-19.25332-19.199988-19.25332c-10.66666 0-19.146655 8.58666-19.146655 19.25332zm8.533328 0c0-5.86666 4.799997-10.71999 10.613327-10.71999 5.866663 0 10.66666 4.85333 10.66666 10.71999 0 5.81333-4.799997 10.61333-10.66666 10.61333-5.81333 0-10.613327-4.8-10.613327-10.61333zm33.973263 0c0 10.66666 8.479995 19.14666 19.146656 19.14666 10.66666 0 19.19999-8.48 19.19999-19.14666s-8.53333-19.25332-19.19999-19.25332c-10.666661 0-19.146656 8.58666-19.146656 19.25332zm8.533329 0c0-5.86666 4.799997-10.71999 10.613327-10.71999 5.86666 0 10.66666 4.85333 10.66666 10.71999 0 5.81333-4.8 10.61333-10.66666 10.61333-5.81333 0-10.613327-4.8-10.613327-10.61333zm36.106587 17.59999c0 .53333.42667 1.01333 1.01333 1.01333h6.34667c.53333 0 1.01333-.48 1.01333-1.01333v-13.59999h3.68l7.09333 14.13332c.10666.21334.42666.48.85333.48h7.09333c.90666 0 1.28-.85333.90666-1.54666l-7.30666-13.54666c4.96-1.86667 7.89333-5.81333 7.89333-10.71999 0-6.34667-4.85333-11.52-11.62666-11.52h-15.94666c-.58666 0-1.01333.48-1.01333 1.01334zm8.37333-20.37332v-8.32h7.89333c2.18666 0 4.05333 1.54667 4.05333 4.05334 0 2.50666-1.86667 4.26666-4.05333 4.26666zm26.93326 20.37332c0 .53333.42666 1.01333.96 1.01333h13.01332c10.29333 0 18.71999-8.37332 18.71999-18.71999 0-10.23999-8.42666-18.61332-18.71999-18.61332h-13.01332c-.53334 0-.96.48-.96 1.01334zm8.31999-6.87999v-21.59999h5.6c6.02666 0 9.91999 4.74666 9.91999 10.77332 0 6.08-3.89333 10.82667-9.91999 10.82667zm30.71989 6.87999c0 .53333.48 1.01333 1.01334 1.01333h6.39999c.53334 0 1.01334-.48 1.01334-1.01333V391.68c0-.53334-.48-1.01334-1.01334-1.01334h-6.39999c-.53334 0-1.01334.48-1.01334 1.01334zm16.85332 0c0 .53333.48 1.01333 1.01333 1.01333h6.34667c.58666 0 1.01333-.48 1.01333-1.01333v-19.89332h.0533l20.74666 20.85332c.42666.42667.8.58667 1.33333.58667h.53333c.53334 0 1.01334-.32 1.01334-.96V391.68c0-.53334-.48-1.01334-1.01334-1.01334h-6.39999c-.58667 0-1.01334.48-1.01334 1.01334v18.93332h-.0533l-20.47999-19.67999c-.42666-.42667-.8-.8-1.33333-.8h-.8c-.53333 0-1.01333.42667-1.01333.96zm37.17326 1.01333h5.86666c1.06667 0 1.65333-.64 1.92-1.28l1.92-4.26666h14.50666l1.91999 4.21333c.48 1.01333.90667 1.33333 1.86667 1.33333h5.92c.8 0 1.22666-.69333.90666-1.38666L270.98605 390.72c-.16-.32-.53333-.58667-.90667-.58667h-.53333c-.37333 0-.74667.26667-.90667.58667l-16.69332 35.89331c-.32.69333.10667 1.38666.90667 1.38666zm12.90666-12.79999 3.99999-8.79999h.0533l4.05333 8.79999zm29.49313 11.78666c0 .53333.48 1.01333 1.01333 1.01333h6.4c.53333 0 1.01333-.48 1.01333-1.01333v-28.47998h7.62667c.58666 0 1.01333-.48 1.01333-1.01333V391.68c0-.53334-.42667-1.01334-1.01333-1.01334h-23.67999c-.58667 0-1.01333.48-1.01333 1.01334v5.81333c0 .53333.42666 1.01333 1.01333 1.01333h7.62666zm22.66659 0c0 .53333.48 1.01333 1.01333 1.01333h6.4c.53333 0 1.01333-.48 1.01333-1.01333V391.68c0-.53334-.48-1.01334-1.01333-1.01334h-6.4c-.53333 0-1.01333.48-1.01333 1.01334zm14.71997-17.59999c0 10.66666 8.48 19.14666 19.14666 19.14666s19.19998-8.48 19.19998-19.14666-8.53332-19.25332-19.19998-19.25332-19.14666 8.58666-19.14666 19.25332zm8.53333 0c0-5.86666 4.8-10.71999 10.61333-10.71999 5.86666 0 10.66666 4.85333 10.66666 10.71999 0 5.81333-4.8 10.61333-10.66666 10.61333-5.81333 0-10.61333-4.8-10.61333-10.61333zm36.10659 17.59999c0 .53333.48 1.01333 1.01334 1.01333h6.34666c.58667 0 1.01333-.48 1.01333-1.01333v-19.89332h.0533l20.74665 20.85332c.42667.42667.8.58667 1.33333.58667h.53334c.53333 0 1.01333-.32 1.01333-.96V391.68c0-.53334-.48-1.01334-1.01333-1.01334h-6.4c-.58667 0-1.01333.48-1.01333 1.01334v18.93332h-.0533l-20.47998-19.67999c-.42667-.42667-.8-.8-1.33334-.8h-.8c-.53333 0-1.01333.42667-1.01333.96z" aria-label="COORDINATION" color="#000" font-family="Brandon Text" font-size="53.3333px" font-weight="500" style="-inkscape-font-specification:'Brandon Text, Medium';-inkscape-stroke:none" transform="translate(13.306912 6.8438898) scale(.26458)"/>
  </g>
  <path d="M39.56122 91.672108 38.1 90.21089v-64.9973l1.46122-1.461222c1.43001-1.429997 1.66534-1.461222 11.01329-1.461222h9.552064v-1.752181c0-2.828981 1.759637-3.605632 8.169195-3.605632 6.109363 0 7.904257.878697 7.904257 3.869532v1.488281h9.459076c11.456761 0 11.994407.240885 12.436503 5.571996l.281008 3.388543 3.163587-2.991987c2.79808-2.64631 3.4619-2.991989 5.74567-2.991989 1.42015 0 3.179.418097 3.90858.929106 2.70293 1.893213 3.85067 6.015024 2.4459 8.783858-.36284.715175-3.97104 4.648949-8.01822 8.741724l-7.358485 7.441404-.167334 19.84734-.167332 19.847349-1.405405 1.13742c-1.337392 1.08238-2.714373 1.137422-28.453255 1.137422H41.02244Zm55.327485-2.456998c.529369-1.379511.442204-34.777089-.09077-34.777089-.248662 0-.851417.602753-1.339454 1.339453-.706131 1.065912-.94813 4.439587-1.185 16.519923l-.297657 15.180468-23.445452.155812c-16.811562.111713-23.675632-.03524-24.258992-.519383-1.11945-.92905-1.21519-57.63497-.0992-58.750961.43351-.43351 2.54001-.714375 5.35782-.714375 4.2723 0 4.64343-.09677 4.64343-1.210765 0-1.152871-.306-1.202686-6.3996-1.041798l-6.39962.168975-.1548 31.551562c-.085 17.353362-.0266 31.886424.13027 32.295701.22208.57987 6.12298.744143 26.731306.744143 23.566503 0 26.485766-.102533 26.807766-.941661zm-5.13322-17.06654c.144787-11.115841-.19485-14.259386-1.244956-11.522833-.439935 1.146452-16.97073 9.457039-18.014506 9.0565-1.393493-.534732-1.010633-1.832384 2.787911-9.449073 3.35797-6.733224 4.124523-7.784536 10.147689-13.917017l6.515343-6.633592-.176197-4.379689-.176198-4.379687-3.748966-.177975c-3.292361-.156285-3.968599.0068-5.55233 1.339452-1.78639 1.503148-1.903975 1.517422-12.500359 1.517422-10.616406 0-10.708226-.01125-12.185306-1.488283-1.28006-1.280061-2.02587-1.48828-5.33076-1.48828h-3.84246v54.188296l21.580084-.156263 21.580104-.156262Zm-13.285796-8.281107c1.733874-.790008 1.869121-1.251769.660398-2.254925-.697793-.579114-1.030546-.372629-1.801239 1.11773-1.058918 2.047725-.995761 2.110685 1.140841 1.137195zm6.868289-3.269927c1.497916-.884842 1.605893-1.157197 1.069111-2.696994-.744099-2.134519-3.738649-3.858287-4.952548-2.850851-1.656226 1.37455-1.616198 2.910719.123975 4.754349 1.973635 2.091058 1.671055 2.027198 3.759552.793496zm13.641717-12.949225c7.100365-7.111462 9.064835-9.410211 8.747815-10.236354-.33272-.867029-2.16764.690834-9.855129 8.367056-5.679995 5.671668-9.323305 9.752974-9.137814 10.236355.169673.442146.483984.803903.698484.803903.214492 0 4.510486-4.126932 9.546644-9.17096zm-3.040597-4.103055c5.000942-5.008756 8.904432-9.295005 8.674442-9.525-.22999-.229995-.84558-.418171-1.36796-.418171-1.16813 0-19.299567 18.049089-18.716838 18.631827 1.142618 1.14262 3.027333-.292533 11.410356-8.688656zm.222278-7.951845c.846624-.766181 1.088677-1.864764 1.088677-4.941094 0-2.283028-.302092-4.25795-.714376-4.670233-.463152-.463149-2.870732-.714375-6.846102-.714375-5.694264 0-6.131732.08329-6.131732 1.167448 0 1.057667.489825 1.183622 5.208998 1.339452l5.208988.172013.174915 4.316015c.09619 2.373809.342996 4.316016.548437 4.316016.205447 0 .863434-.443355 1.462201-.985235zm17.162124-3.583379c0-3.40943-4.61743-4.966632-7.04979-2.377503l-1.3042 1.388257 1.45698.663847c.80134.365114 2.06136 1.481314 2.80005 2.480445l1.34308 1.816599 1.37694-1.293567c.75732-.711463 1.37694-1.916599 1.37694-2.678078zm-32.856822-4.212245.18315-2.530078H57.15012v1.737247c0 3.743942-.25144 3.663784 10.933429 3.485498l10.200181-.162585Zm-5.354847-6.548439c-.165826-.86899-.979246-1.070925-4.903295-1.217414-4.501556-.168052-5.658665.200475-5.691582 1.812728-.0045.245565 2.421542.446484 5.392355.446484 4.823149 0 5.38016-.111533 5.202522-1.041798z"/>
</svg>
