<?xml version="1.0" encoding="UTF-8" standalone="no"?>
<!-- Created with Inkscape (http://www.inkscape.org/) -->

<svg
   width="512"
   height="512"
   viewBox="0 0 135.46666 135.46667"
   version="1.1"
   id="svg5"
   inkscape:version="1.1 (c68e22c387, 2021-05-23)"
   sodipodi:docname="dominion.svg"
   xmlns:inkscape="http://www.inkscape.org/namespaces/inkscape"
   xmlns:sodipodi="http://sodipodi.sourceforge.net/DTD/sodipodi-0.dtd"
   xmlns="http://www.w3.org/2000/svg"
   xmlns:svg="http://www.w3.org/2000/svg">
  <sodipodi:namedview
     id="namedview7"
     pagecolor="#505050"
     bordercolor="#eeeeee"
     borderopacity="1"
     inkscape:pageshadow="0"
     inkscape:pageopacity="0"
     inkscape:pagecheckerboard="0"
     inkscape:document-units="px"
     showgrid="false"
     inkscape:zoom="0.46324355"
     inkscape:cx="93.903088"
     inkscape:cy="227.74197"
     inkscape:window-width="1366"
     inkscape:window-height="705"
     inkscape:window-x="-8"
     inkscape:window-y="-8"
     inkscape:window-maximized="1"
     inkscape:current-layer="layer1"
     units="px" />
  <defs
     id="defs2">
    <rect
       x="0"
       y="384.00006"
       width="511.99998"
       height="127.99992"
       id="rect12253" />
  </defs>
  <g
     inkscape:label="Calque 1"
     inkscape:groupmode="layer"
     id="layer1">
    <path
       style="color:#000000;fill:#000000;fill-rule:evenodd;stroke-width:8.46667;-inkscape-stroke:none"
       d="M 16.933335,0 H 118.53333 c 9.38107,0 16.93333,7.5522663 16.93333,16.933332 V 118.53333 c 0,9.38106 -7.55226,16.93333 -16.93333,16.93333 H 16.933335 C 7.552269,135.46666 2.7270507e-6,127.91439 2.7270507e-6,118.53333 V 16.933332 C 2.7270507e-6,7.5522663 7.552269,0 16.933335,0 Z"
       id="rect846" />
    <path
       style="color:#000000;fill:#0cd1a5;fill-rule:evenodd;stroke-width:8.46667;-inkscape-stroke:none"
       d="M 16.933332,8.5685921 H 118.53333 c 4.69054,0 8.46667,3.7761329 8.46667,8.4666659 v 84.666662 c 0,4.69054 -3.77613,8.46667 -8.46667,8.46667 H 16.933332 c -4.690533,0 -8.4666658,-3.77613 -8.4666658,-8.46667 V 17.035258 c 0,-4.690533 3.7761328,-8.4666659 8.4666658,-8.4666659 z"
       id="rect846-1" />
    <path
       style="color:#000000;fill:#000000;fill-rule:evenodd;stroke-width:0.264583;-inkscape-stroke:none"
       d="M 8.4666689,101.60001 H 127 c 4.69053,0 8.46666,3.77614 8.46666,8.46667 v 8.46667 c 0,4.69053 -3.77613,8.46666 -8.46666,8.46666 H 8.4666689 c -4.690533,0 -8.4666661729493,-3.77613 -8.4666661729493,-8.46666 v -8.46667 c 0,-4.69053 3.7761331729493,-8.46667 8.4666661729493,-8.46667 z"
       id="rect1024" />
    <g
       aria-label="DOMINION"
       transform="matrix(0.26458333,0,0,0.26458333,30.000293,6.8438898)"
       id="text12251"
       style="font-weight:500;font-size:53.3333px;font-family:'Brandon Text';-inkscape-font-specification:'Brandon Text, Medium';white-space:pre;fill:#ffffff">
      <path
         style="color:#000000;-inkscape-font-specification:'Brandon Text, Medium';-inkscape-stroke:none"
         d="m 4.2133308,426.98664 c 0,0.53333 0.4266664,1.01333 0.9599994,1.01333 H 18.186656 c 10.293327,0 18.719989,-8.37332 18.719989,-18.71999 0,-10.23999 -8.426662,-18.61332 -18.719989,-18.61332 H 5.1733302 c -0.533333,0 -0.9599994,0.48 -0.9599994,1.01334 z m 8.3199952,-6.87999 v -21.59999 h 5.599997 c 6.026663,0 9.919994,4.74666 9.919994,10.77332 0,6.08 -3.893331,10.82667 -9.919994,10.82667 z"
         id="path877" />
      <path
         style="color:#000000;-inkscape-font-specification:'Brandon Text, Medium';-inkscape-stroke:none"
         d="m 41.119893,409.38665 c 0,10.66666 8.479995,19.14666 19.146655,19.14666 10.66666,0 19.199989,-8.48 19.199989,-19.14666 0,-10.66666 -8.533329,-19.25332 -19.199989,-19.25332 -10.66666,0 -19.146655,8.58666 -19.146655,19.25332 z m 8.533328,0 c 0,-5.86666 4.799997,-10.71999 10.613327,-10.71999 5.866663,0 10.66666,4.85333 10.66666,10.71999 0,5.81333 -4.799997,10.61333 -10.66666,10.61333 -5.81333,0 -10.613327,-4.8 -10.613327,-10.61333 z"
         id="path879" />
      <path
         style="color:#000000;-inkscape-font-specification:'Brandon Text, Medium';-inkscape-stroke:none"
         d="m 83.466454,426.82664 c -0.106666,0.69333 0.373333,1.17333 1.013333,1.17333 h 6.29333 c 0.533333,0 0.959999,-0.42666 1.013332,-0.85333 l 2.346666,-16.47999 h 0.106666 l 9.013329,17.27999 c 0.16,0.32 0.58667,0.58667 0.90667,0.58667 h 0.95999 c 0.26667,0 0.74667,-0.26667 0.90667,-0.58667 l 8.96,-17.27999 h 0.10666 l 2.4,16.47999 c 0.0533,0.42667 0.53333,0.85333 1.01333,0.85333 h 6.29333 c 0.64,0 1.12,-0.48 1.01334,-1.17333 l -6.02667,-35.83998 c -0.0533,-0.48 -0.53333,-0.85333 -0.96,-0.85333 h -0.85333 c -0.26667,0 -0.74667,0.21333 -0.90667,0.53333 l -12.37332,23.03999 h -0.10667 L 92.213116,390.66666 c -0.16,-0.32 -0.64,-0.53333 -0.906666,-0.53333 h -0.853333 c -0.426667,0 -0.906666,0.37333 -0.96,0.85333 z"
         id="path881" />
      <path
         style="color:#000000;-inkscape-font-specification:'Brandon Text, Medium';-inkscape-stroke:none"
         d="m 132.26634,426.98664 c 0,0.53333 0.48,1.01333 1.01333,1.01333 h 6.4 c 0.53333,0 1.01333,-0.48 1.01333,-1.01333 V 391.68 c 0,-0.53334 -0.48,-1.01334 -1.01333,-1.01334 h -6.4 c -0.53333,0 -1.01333,0.48 -1.01333,1.01334 z"
         id="path883" />
      <path
         style="color:#000000;-inkscape-font-specification:'Brandon Text, Medium';-inkscape-stroke:none"
         d="m 149.11966,426.98664 c 0,0.53333 0.48,1.01333 1.01333,1.01333 h 6.34666 c 0.58667,0 1.01334,-0.48 1.01334,-1.01333 v -19.89332 c 0,0 0.0533,0 0.0533,0 l 20.74665,20.85332 c 0.42667,0.42667 0.8,0.58667 1.33334,0.58667 h 0.53333 c 0.53333,0 1.01333,-0.32 1.01333,-0.96 V 391.68 c 0,-0.53334 -0.48,-1.01334 -1.01333,-1.01334 h -6.4 c -0.58666,0 -1.01333,0.48 -1.01333,1.01334 v 18.93332 c 0,0 -0.0533,0 -0.0533,0 l -20.47999,-19.67999 c -0.42667,-0.42667 -0.8,-0.8 -1.33333,-0.8 h -0.8 c -0.53334,0 -1.01334,0.42667 -1.01334,0.96 z"
         id="path885" />
      <path
         style="color:#000000;-inkscape-font-specification:'Brandon Text, Medium';-inkscape-stroke:none"
         d="m 189.59958,426.98664 c 0,0.53333 0.48,1.01333 1.01333,1.01333 h 6.4 c 0.53333,0 1.01333,-0.48 1.01333,-1.01333 V 391.68 c 0,-0.53334 -0.48,-1.01334 -1.01333,-1.01334 h -6.4 c -0.53333,0 -1.01333,0.48 -1.01333,1.01334 z"
         id="path887" />
      <path
         style="color:#000000;-inkscape-font-specification:'Brandon Text, Medium';-inkscape-stroke:none"
         d="m 204.31956,409.38665 c 0,10.66666 8.48,19.14666 19.14666,19.14666 10.66666,0 19.19999,-8.48 19.19999,-19.14666 0,-10.66666 -8.53333,-19.25332 -19.19999,-19.25332 -10.66666,0 -19.14666,8.58666 -19.14666,19.25332 z m 8.53333,0 c 0,-5.86666 4.8,-10.71999 10.61333,-10.71999 5.86666,0 10.66666,4.85333 10.66666,10.71999 0,5.81333 -4.8,10.61333 -10.66666,10.61333 -5.81333,0 -10.61333,-4.8 -10.61333,-10.61333 z"
         id="path889" />
      <path
         style="color:#000000;-inkscape-font-specification:'Brandon Text, Medium';-inkscape-stroke:none"
         d="m 248.95949,426.98664 c 0,0.53333 0.48,1.01333 1.01333,1.01333 h 6.34666 c 0.58667,0 1.01333,-0.48 1.01333,-1.01333 v -19.89332 c 0,0 0.0533,0 0.0533,0 l 20.74665,20.85332 c 0.42667,0.42667 0.8,0.58667 1.33333,0.58667 h 0.53334 c 0.53333,0 1.01333,-0.32 1.01333,-0.96 V 391.68 c 0,-0.53334 -0.48,-1.01334 -1.01333,-1.01334 h -6.4 c -0.58667,0 -1.01333,0.48 -1.01333,1.01334 v 18.93332 c 0,0 -0.0533,0 -0.0533,0 l -20.47998,-19.67999 c -0.42667,-0.42667 -0.8,-0.8 -1.33334,-0.8 h -0.79999 c -0.53334,0 -1.01334,0.42667 -1.01334,0.96 z"
         id="path891" />
    </g>
    <path
       style="fill:#000000;stroke-width:0.59454"
       d="m 33.294606,92.164453 c -0.55427,-1.444413 0.32268,-2.109366 2.78186,-2.109366 h 2.34308 V 82.3467 c 0,-7.543516 -0.0382,-7.768544 -1.78362,-10.520872 -3.06091,-4.826548 -1.84562,-9.430344 3.17133,-12.013648 3.44182,-1.772244 6.181726,-1.382177 9.096125,1.294963 2.416694,2.219983 3.15603,4.771711 3.176411,10.963078 l 0.01348,4.310423 H 69.334956 86.57664 v 6.837219 6.837224 h 3.864514 3.864513 v -8.393718 -8.393724 l 1.783623,-2.031441 c 4.37807,-4.98635 -0.591522,-11.903334 -6.395673,-8.901885 -2.111427,1.091863 -2.534142,1.971331 -3.036365,6.317291 l -0.377883,3.269975 -14.492391,0.159364 c -14.871931,0.163542 -17.044484,-0.120467 -15.466452,-2.02188 0.533685,-0.643055 3.443958,-0.812927 13.926782,-0.812927 h 13.252109 l 0.385093,-2.279353 c 1.134762,-6.716601 6.692833,-9.970383 12.16079,-7.119119 4.9219,2.566521 6.16809,8.199847 2.792885,12.624981 -1.49866,1.96484 -1.559815,2.348264 -1.559815,9.779539 v 7.734516 l 2.526799,0.182823 c 2.069501,0.149723 2.526801,0.398022 2.526801,1.371904 0,1.128587 -0.4514,1.197482 -8.872839,1.354203 -6.699814,0.124691 -8.990895,-0.0209 -9.35491,-0.594541 -0.265142,-0.417813 -0.486173,-3.635755 -0.49118,-7.15098 l -0.0092,-6.391317 H 66.362269 49.120596 v -6.272203 c 0,-7.109041 -0.703472,-9.188729 -3.499945,-10.347067 -5.749745,-2.381624 -10.523425,4.676607 -6.012725,8.890239 l 1.78363,1.666155 v 8.679577 8.679582 h 3.864506 3.864534 v -3.206367 c 0,-3.469528 1.224728,-4.894263 2.369077,-2.755989 0.659744,1.232746 0.819422,6.4918 0.24273,7.994621 -0.515863,1.344359 -17.924267,1.417149 -18.438487,0.0771 z m 22.773961,0.044 c -0.709158,-1.848058 0.961115,-2.15336 11.780741,-2.15336 10.819626,0 12.489905,0.305302 11.780745,2.153345 -0.462739,1.205877 -23.098751,1.205877 -23.561486,0 z M 42.186446,67.719832 c -0.54103,-1.409924 0.72703,-2.404306 1.863371,-1.461214 0.70419,0.584422 0.763648,0.960748 0.249673,1.580058 -0.890317,1.072767 -1.672654,1.028764 -2.113044,-0.118849 z m 49.212691,0.118848 c -0.513982,-0.61931 -0.454517,-0.995636 0.249669,-1.580057 1.13635,-0.943093 2.404399,0.0513 1.863361,1.461213 -0.440377,1.147609 -1.222718,1.191611 -2.11303,0.118849 z M 54.472149,48.192975 V 33.085214 l 2.526788,-1.208661 c 4.125765,-1.973505 7.905679,-2.653026 12.86638,-2.313012 5.018198,0.343955 10.430657,2.271483 11.384886,4.054475 0.61619,1.151364 0.789002,26.132526 0.196081,28.345003 -0.358232,1.336746 -0.368192,1.337721 -13.666321,1.337721 H 54.472149 Z M 78.848314,47.511967 V 34.695901 l -2.82407,-1.286565 c -4.017223,-1.830133 -12.332649,-1.830133 -16.349873,0 l -2.824068,1.286565 V 47.511967 60.328032 H 67.849308 78.848314 Z M 47.337659,38.045702 V 19.842459 l 1.57316,-1.457965 c 3.107088,-2.879561 7.40563,-1.04373 8.263519,3.529209 0.46305,2.468278 0.263361,2.407157 4.080876,1.249074 3.731843,-1.132095 9.456344,-1.132095 13.188187,0 1.605208,0.486956 3.087456,0.888271 3.293885,0.891811 0.206417,0.0036 0.669963,-1.163683 1.030079,-2.593828 1.101228,-4.373375 5.262691,-5.946483 8.134273,-3.074901 l 1.459328,1.459328 v 18.160528 c 0,17.764167 -0.02595,18.160528 -1.189082,18.160528 -0.653994,0 -1.245959,-0.0669 -1.315473,-0.148645 -0.06952,-0.08175 -0.270173,-8.174941 -0.445906,-17.98487 L 85.090992,20.196506 h -1.486353 c -1.342013,0 -1.501578,0.25981 -1.643142,2.675435 -0.08624,1.471489 -0.299229,3.30624 -0.473314,4.077223 -0.35894,1.58964 -0.698025,1.561775 -6.504385,-0.534524 -5.005734,-1.807245 -12.345049,-1.463019 -16.723365,0.784354 -1.676911,0.86075 -3.215278,1.398644 -3.418617,1.195319 -0.20336,-0.203325 -0.369667,-1.745446 -0.369667,-3.426934 0,-3.447942 -1.012356,-5.303684 -2.714747,-4.976394 -1.098194,0.211134 -1.163112,1.020818 -1.447054,18.049518 l -0.297266,17.828471 -1.337712,0.189991 -1.337711,0.189991 z"
       id="path827" />
  </g>
</svg>
