<svg xmlns="http://www.w3.org/2000/svg" width="512" height="512" viewBox="0 0 135.46666 135.46667">
  <path fill-rule="evenodd" d="M16.933335 0H118.53333c9.38107 0 16.93333 7.5522663 16.93333 16.933332V118.53333c0 9.38106-7.55226 16.93333-16.93333 16.93333H16.933335c-9.381066 0-16.93333227-7.55227-16.93333227-16.93333V16.933332C.00000273 7.5522663 7.552269 0 16.933335 0Z" color="#000" style="-inkscape-stroke:none"/>
  <path fill="#0cd1a5" fill-rule="evenodd" d="M16.933332 8.5685921H118.53333c4.69054 0 8.46667 3.7761329 8.46667 8.4666659v84.666662c0 4.69054-3.77613 8.46667-8.46667 8.46667H16.933332c-4.690533 0-8.4666658-3.77613-8.4666658-8.46667V17.035258c0-4.690533 3.7761328-8.4666659 8.4666658-8.4666659z" color="#000" style="-inkscape-stroke:none"/>
  <path fill-rule="evenodd" d="M8.4666689 101.60001H127c4.69053 0 8.46666 3.77614 8.46666 8.46667v8.46667c0 4.69053-3.77613 8.46666-8.46666 8.46666H8.4666689c-4.690533 0-8.46666617-3.77613-8.46666617-8.46666v-8.46667c0-4.69053 3.77613317-8.46667 8.46666617-8.46667z" color="#000" style="-inkscape-stroke:none"/>
  <g style="-inkscape-font-specification:'Brandon Text, Medium';white-space:pre">
    <path fill="#fff" d="M4.2133308 426.98664c0 .53333.4266664 1.01333.9599994 1.01333H18.186656c10.293327 0 18.719989-8.37332 18.719989-18.71999 0-10.23999-8.426662-18.61332-18.719989-18.61332H5.1733302c-.533333 0-.9599994.48-.9599994 1.01334zm8.3199952-6.87999v-21.59999h5.599997c6.026663 0 9.919994 4.74666 9.919994 10.77332 0 6.08-3.893331 10.82667-9.919994 10.82667zm28.586567-10.72c0 10.66666 8.479995 19.14666 19.146655 19.14666 10.66666 0 19.199989-8.48 19.199989-19.14666s-8.533329-19.25332-19.199989-19.25332c-10.66666 0-19.146655 8.58666-19.146655 19.25332zm8.533328 0c0-5.86666 4.799997-10.71999 10.613327-10.71999 5.866663 0 10.66666 4.85333 10.66666 10.71999 0 5.81333-4.799997 10.61333-10.66666 10.61333-5.81333 0-10.613327-4.8-10.613327-10.61333zm33.813233 17.43999c-.106666.69333.373333 1.17333 1.013333 1.17333h6.29333c.533333 0 .959999-.42666 1.013332-.85333l2.346666-16.47999h.106666l9.013329 17.27999c.16.32.58667.58667.90667.58667h.95999c.26667 0 .74667-.26667.90667-.58667l8.96-17.27999h.10666l2.4 16.47999c.0533.42667.53333.85333 1.01333.85333h6.29333c.64 0 1.12-.48 1.01334-1.17333l-6.02667-35.83998c-.0533-.48-.53333-.85333-.96-.85333h-.85333c-.26667 0-.74667.21333-.90667.53333l-12.37332 23.03999h-.10667l-12.373324-23.03999c-.16-.32-.64-.53333-.906666-.53333h-.853333c-.426667 0-.906666.37333-.96.85333zm48.799886.16c0 .53333.48 1.01333 1.01333 1.01333h6.4c.53333 0 1.01333-.48 1.01333-1.01333V391.68c0-.53334-.48-1.01334-1.01333-1.01334h-6.4c-.53333 0-1.01333.48-1.01333 1.01334zm16.85332 0c0 .53333.48 1.01333 1.01333 1.01333h6.34666c.58667 0 1.01334-.48 1.01334-1.01333v-19.89332h.0533l20.74665 20.85332c.42667.42667.8.58667 1.33334.58667h.53333c.53333 0 1.01333-.32 1.01333-.96V391.68c0-.53334-.48-1.01334-1.01333-1.01334h-6.4c-.58666 0-1.01333.48-1.01333 1.01334v18.93332h-.0533l-20.47999-19.67999c-.42667-.42667-.8-.8-1.33333-.8h-.8c-.53334 0-1.01334.42667-1.01334.96zm40.47992 0c0 .53333.48 1.01333 1.01333 1.01333h6.4c.53333 0 1.01333-.48 1.01333-1.01333V391.68c0-.53334-.48-1.01334-1.01333-1.01334h-6.4c-.53333 0-1.01333.48-1.01333 1.01334zm14.71998-17.59999c0 10.66666 8.48 19.14666 19.14666 19.14666s19.19999-8.48 19.19999-19.14666-8.53333-19.25332-19.19999-19.25332-19.14666 8.58666-19.14666 19.25332zm8.53333 0c0-5.86666 4.8-10.71999 10.61333-10.71999 5.86666 0 10.66666 4.85333 10.66666 10.71999 0 5.81333-4.8 10.61333-10.66666 10.61333-5.81333 0-10.61333-4.8-10.61333-10.61333zm36.1066 17.59999c0 .53333.48 1.01333 1.01333 1.01333h6.34666c.58667 0 1.01333-.48 1.01333-1.01333v-19.89332h.0533l20.74665 20.85332c.42667.42667.8.58667 1.33333.58667h.53334c.53333 0 1.01333-.32 1.01333-.96V391.68c0-.53334-.48-1.01334-1.01333-1.01334h-6.4c-.58667 0-1.01333.48-1.01333 1.01334v18.93332h-.0533l-20.47998-19.67999c-.42667-.42667-.8-.8-1.33334-.8h-.79999c-.53334 0-1.01334.42667-1.01334.96z" aria-label="DOMINION" color="#000" font-family="Brandon Text" font-size="53.3333px" font-weight="500" style="-inkscape-font-specification:'Brandon Text, Medium';-inkscape-stroke:none" transform="translate(30.000293 6.8438898) scale(.26458)"/>
  </g>
  <path d="M33.294606 92.164453c-.55427-1.444413.32268-2.109366 2.78186-2.109366h2.34308V82.3467c0-7.543516-.0382-7.768544-1.78362-10.520872-3.06091-4.826548-1.84562-9.430344 3.17133-12.013648 3.44182-1.772244 6.181726-1.382177 9.096125 1.294963 2.416694 2.219983 3.15603 4.771711 3.176411 10.963078l.01348 4.310423H86.57664v13.674443h7.729027V73.267645l1.783623-2.031441c4.37807-4.98635-.591522-11.903334-6.395673-8.901885-2.111427 1.091863-2.534142 1.971331-3.036365 6.317291l-.377883 3.269975-14.492391.159364c-14.871931.163542-17.044484-.120467-15.466452-2.02188.533685-.643055 3.443958-.812927 13.926782-.812927h13.252109l.385093-2.279353c1.134762-6.716601 6.692833-9.970383 12.16079-7.119119 4.9219 2.566521 6.16809 8.199847 2.792885 12.624981-1.49866 1.96484-1.559815 2.348264-1.559815 9.779539v7.734516l2.526799.182823c2.069501.149723 2.526801.398022 2.526801 1.371904 0 1.128587-.4514 1.197482-8.872839 1.354203-6.699814.124691-8.990895-.0209-9.35491-.594541-.265142-.417813-.486173-3.635755-.49118-7.15098l-.0092-6.391317H49.120596v-6.272203c0-7.109041-.703472-9.188729-3.499945-10.347067-5.749745-2.381624-10.523425 4.676607-6.012725 8.890239l1.78363 1.666155v17.359159h7.72904v-3.206367c0-3.469528 1.224728-4.894263 2.369077-2.755989.659744 1.232746.819422 6.4918.24273 7.994621-.515863 1.344359-17.924267 1.417149-18.438487.0771zm22.773961.044c-.709158-1.848058.961115-2.15336 11.780741-2.15336 10.819626 0 12.489905.305302 11.780745 2.153345-.462739 1.205877-23.098751 1.205877-23.561486 0zM42.186446 67.719832c-.54103-1.409924.72703-2.404306 1.863371-1.461214.70419.584422.763648.960748.249673 1.580058-.890317 1.072767-1.672654 1.028764-2.113044-.118849zm49.212691.118848c-.513982-.61931-.454517-.995636.249669-1.580057 1.13635-.943093 2.404399.0513 1.863361 1.461213-.440377 1.147609-1.222718 1.191611-2.11303.118849zM54.472149 48.192975V33.085214l2.526788-1.208661c4.125765-1.973505 7.905679-2.653026 12.86638-2.313012 5.018198.343955 10.430657 2.271483 11.384886 4.054475.61619 1.151364.789002 26.132526.196081 28.345003-.358232 1.336746-.368192 1.337721-13.666321 1.337721H54.472149Zm24.376165-.681008V34.695901l-2.82407-1.286565c-4.017223-1.830133-12.332649-1.830133-16.349873 0l-2.824068 1.286565v25.632131h21.998011Zm-31.510655-9.466265V19.842459l1.57316-1.457965c3.107088-2.879561 7.40563-1.04373 8.263519 3.529209.46305 2.468278.263361 2.407157 4.080876 1.249074 3.731843-1.132095 9.456344-1.132095 13.188187 0 1.605208.486956 3.087456.888271 3.293885.891811.206417.0036.669963-1.163683 1.030079-2.593828 1.101228-4.373375 5.262691-5.946483 8.134273-3.074901l1.459328 1.459328v18.160528c0 17.764167-.02595 18.160528-1.189082 18.160528-.653994 0-1.245959-.0669-1.315473-.148645-.06952-.08175-.270173-8.174941-.445906-17.98487l-.319513-17.836222h-1.486353c-1.342013 0-1.501578.25981-1.643142 2.675435-.08624 1.471489-.299229 3.30624-.473314 4.077223-.35894 1.58964-.698025 1.561775-6.504385-.534524-5.005734-1.807245-12.345049-1.463019-16.723365.784354-1.676911.86075-3.215278 1.398644-3.418617 1.195319-.20336-.203325-.369667-1.745446-.369667-3.426934 0-3.447942-1.012356-5.303684-2.714747-4.976394-1.098194.211134-1.163112 1.020818-1.447054 18.049518l-.297266 17.828471-1.337712.189991-1.337711.189991z"/>
</svg>
