<?xml version="1.0" encoding="UTF-8" standalone="no"?>
<!-- Created with Inkscape (http://www.inkscape.org/) -->

<svg
   width="512"
   height="512"
   viewBox="0 0 135.46666 135.46667"
   version="1.1"
   id="svg5"
   inkscape:version="1.1 (c68e22c387, 2021-05-23)"
   sodipodi:docname="equality.svg"
   xmlns:inkscape="http://www.inkscape.org/namespaces/inkscape"
   xmlns:sodipodi="http://sodipodi.sourceforge.net/DTD/sodipodi-0.dtd"
   xmlns="http://www.w3.org/2000/svg"
   xmlns:svg="http://www.w3.org/2000/svg">
  <sodipodi:namedview
     id="namedview7"
     pagecolor="#505050"
     bordercolor="#eeeeee"
     borderopacity="1"
     inkscape:pageshadow="0"
     inkscape:pageopacity="0"
     inkscape:pagecheckerboard="0"
     inkscape:document-units="px"
     showgrid="false"
     inkscape:zoom="0.46324355"
     inkscape:cx="93.903088"
     inkscape:cy="227.74197"
     inkscape:window-width="1366"
     inkscape:window-height="705"
     inkscape:window-x="-8"
     inkscape:window-y="-8"
     inkscape:window-maximized="1"
     inkscape:current-layer="layer1"
     units="px" />
  <defs
     id="defs2">
    <rect
       x="0"
       y="384.00006"
       width="511.99998"
       height="127.99992"
       id="rect12253" />
  </defs>
  <g
     inkscape:label="Calque 1"
     inkscape:groupmode="layer"
     id="layer1">
    <path
       style="color:#000000;fill:#000000;fill-rule:evenodd;stroke-width:8.46667;-inkscape-stroke:none"
       d="M 16.933335,0 H 118.53333 c 9.38107,0 16.93333,7.5522663 16.93333,16.933332 V 118.53333 c 0,9.38106 -7.55226,16.93333 -16.93333,16.93333 H 16.933335 C 7.552269,135.46666 2.7270507e-6,127.91439 2.7270507e-6,118.53333 V 16.933332 C 2.7270507e-6,7.5522663 7.552269,0 16.933335,0 Z"
       id="rect846" />
    <path
       style="color:#000000;fill:#ff0c57;fill-rule:evenodd;stroke-width:8.46667;-inkscape-stroke:none"
       d="M 16.933332,8.5685921 H 118.53333 c 4.69054,0 8.46667,3.7761329 8.46667,8.4666659 v 84.666662 c 0,4.69054 -3.77613,8.46667 -8.46667,8.46667 H 16.933332 c -4.690533,0 -8.4666658,-3.77613 -8.4666658,-8.46667 V 17.035258 c 0,-4.690533 3.7761328,-8.4666659 8.4666658,-8.4666659 z"
       id="rect846-1" />
    <path
       style="color:#000000;fill:#000000;fill-rule:evenodd;stroke-width:0.264583;-inkscape-stroke:none"
       d="M 8.4666689,101.60001 H 127 c 4.69053,0 8.46666,3.77614 8.46666,8.46667 v 8.46667 c 0,4.69053 -3.77613,8.46666 -8.46666,8.46666 H 8.4666689 c -4.690533,0 -8.4666661729493,-3.77613 -8.4666661729493,-8.46666 v -8.46667 c 0,-4.69053 3.7761331729493,-8.46667 8.4666661729493,-8.46667 z"
       id="rect1024" />
    <g
       aria-label="EQUALITY"
       transform="matrix(0.26458333,0,0,0.26458333,34.070399,6.8438898)"
       id="text12251"
       style="font-weight:500;font-size:53.3333px;font-family:'Brandon Text';-inkscape-font-specification:'Brandon Text, Medium';white-space:pre;fill:#ffffff">
      <path
         style="color:#000000;-inkscape-font-specification:'Brandon Text, Medium';-inkscape-stroke:none"
         d="m 4.2133308,426.98664 c 0,0.53333 0.4266664,1.01333 1.0133328,1.01333 H 27.30665 c 0.586667,0 1.013333,-0.48 1.013333,-1.01333 v -5.81333 c 0,-0.53333 -0.426666,-1.01333 -1.013333,-1.01333 H 12.533326 v -7.2 h 12.159993 c 0.533333,0 1.013332,-0.42666 1.013332,-1.01333 v -5.81333 c 0,-0.53333 -0.479999,-1.01333 -1.013332,-1.01333 H 12.533326 v -6.61333 H 27.30665 c 0.586667,0 1.013333,-0.48 1.013333,-1.01333 V 391.68 c 0,-0.53334 -0.426666,-1.01334 -1.013333,-1.01334 H 5.2266636 c -0.5866664,0 -1.0133328,0.48 -1.0133328,1.01334 z"
         id="path828" />
      <path
         style="color:#000000;-inkscape-font-specification:'Brandon Text, Medium';-inkscape-stroke:none"
         d="m 32.31985,409.38665 c 0,10.66666 8.479995,19.14666 19.146655,19.14666 0.373333,0 1.013333,0 1.653332,-0.0533 l 5.65333,9.54666 c 0.16,0.26667 0.426667,0.53334 0.853333,0.53334 h 7.199996 c 0.853333,0 1.279999,-0.85334 0.853333,-1.6 l -6.879996,-10.77333 c 5.866663,-3.57333 9.866661,-9.86666 9.866661,-16.79999 0,-10.66666 -8.533329,-19.25332 -19.199989,-19.25332 -10.66666,0 -19.146655,8.58666 -19.146655,19.25332 z m 8.533328,0 c 0,-5.86666 4.799997,-10.71999 10.613327,-10.71999 5.866663,0 10.66666,4.85333 10.66666,10.71999 0,5.81333 -4.799997,10.61333 -10.66666,10.61333 -5.81333,0 -10.613327,-4.8 -10.613327,-10.61333 z"
         id="path830" />
      <path
         style="color:#000000;-inkscape-font-specification:'Brandon Text, Medium';-inkscape-stroke:none"
         d="m 76.586435,414.34665 c 0,8.10666 6.773329,14.18666 15.146657,14.18666 8.426658,0 15.253328,-6.08 15.253328,-14.18666 V 391.68 c 0,-0.53334 -0.48,-1.01334 -1.01334,-1.01334 h -6.559992 c -0.586666,0 -1.013333,0.48 -1.013333,1.01334 v 22.23998 c 0,3.89333 -2.826665,6.08 -6.666663,6.08 -3.786664,0 -6.559996,-2.18667 -6.559996,-6.08 V 391.68 c 0,-0.53334 -0.426666,-1.01334 -1.013332,-1.01334 h -6.559996 c -0.533334,0 -1.013333,0.48 -1.013333,1.01334 z"
         id="path832" />
      <path
         style="color:#000000;-inkscape-font-specification:'Brandon Text, Medium';-inkscape-stroke:none"
         d="m 110.55962,427.99997 h 5.86666 c 1.06667,0 1.65334,-0.64 1.92,-1.28 l 1.92,-4.26666 h 14.50666 l 1.92,4.21333 c 0.48,1.01333 0.90666,1.33333 1.86666,1.33333 h 5.92 c 0.8,0 1.22667,-0.69333 0.90667,-1.38666 L 128.69294,390.72 c -0.16,-0.32 -0.53333,-0.58667 -0.90666,-0.58667 h -0.53334 c -0.37333,0 -0.74666,0.26667 -0.90666,0.58667 l -16.69333,35.89331 c -0.32,0.69333 0.10667,1.38666 0.90667,1.38666 z m 12.90666,-12.79999 4,-8.79999 h 0.0533 l 4.05333,8.79999 z"
         id="path834" />
      <path
         style="color:#000000;-inkscape-font-specification:'Brandon Text, Medium';-inkscape-stroke:none"
         d="m 149.5995,426.98664 c 0,0.53333 0.42667,1.01333 1.01333,1.01333 h 20.05332 c 0.58667,0 1.01334,-0.48 1.01334,-1.01333 v -5.81333 c 0,-0.53333 -0.42667,-1.01333 -1.01334,-1.01333 H 157.97283 V 391.68 c 0,-0.53334 -0.48,-1.01334 -1.01333,-1.01334 h -6.34667 c -0.58666,0 -1.01333,0.48 -1.01333,1.01334 z"
         id="path836" />
      <path
         style="color:#000000;-inkscape-font-specification:'Brandon Text, Medium';-inkscape-stroke:none"
         d="m 176.79939,426.98664 c 0,0.53333 0.48,1.01333 1.01333,1.01333 h 6.4 c 0.53333,0 1.01333,-0.48 1.01333,-1.01333 V 391.68 c 0,-0.53334 -0.48,-1.01334 -1.01333,-1.01334 h -6.4 c -0.53333,0 -1.01333,0.48 -1.01333,1.01334 z"
         id="path838" />
      <path
         style="color:#000000;-inkscape-font-specification:'Brandon Text, Medium';-inkscape-stroke:none"
         d="m 199.46605,426.98664 c 0,0.53333 0.48,1.01333 1.01334,1.01333 h 6.39999 c 0.53333,0 1.01333,-0.48 1.01333,-1.01333 v -28.47998 h 7.62667 c 0.58666,0 1.01333,-0.48 1.01333,-1.01333 V 391.68 c 0,-0.53334 -0.42667,-1.01334 -1.01333,-1.01334 h -23.67999 c -0.58667,0 -1.01333,0.48 -1.01333,1.01334 v 5.81333 c 0,0.53333 0.42666,1.01333 1.01333,1.01333 h 7.62666 z"
         id="path840" />
      <path
         style="color:#000000;-inkscape-font-specification:'Brandon Text, Medium';-inkscape-stroke:none"
         d="m 229.75927,426.98664 c 0,0.53333 0.42667,1.01333 1.01334,1.01333 h 6.34666 c 0.53333,0 1.01333,-0.48 1.01333,-1.01333 v -17.01332 l 11.94666,-17.75999 c 0.42667,-0.69333 0,-1.54667 -0.85333,-1.54667 h -6.93333 c -0.48,0 -0.69333,0.26667 -0.85333,0.48 l -7.41333,10.93333 -7.41333,-10.93333 c -0.16,-0.21333 -0.42667,-0.48 -0.85333,-0.48 h -6.93333 c -0.85334,0 -1.28,0.85334 -0.85334,1.54667 l 11.78666,17.81332 z"
         id="path842" />
    </g>
    <path
       style="fill:#000000;stroke-width:0.605248"
       d="m 54.257373,90.625132 c -7.357604,-2.752363 -7.768597,-3.262788 -6.201499,-7.701789 0.933515,-2.644295 0.923821,-2.729914 -0.426834,-3.769351 -1.746714,-1.344234 -1.793718,-1.342448 -4.349163,0.165298 -3.523398,2.078855 -4.459466,1.528979 -8.319784,-4.887302 -1.90265,-3.162426 -3.47788,-6.373157 -3.50053,-7.134961 -0.0302,-1.012979 0.68542,-1.826011 2.66333,-3.026243 2.120152,-1.28656 2.708603,-1.996174 2.723609,-3.284289 0.02059,-1.827077 -0.942244,-2.528266 -4.308109,-3.135204 -3.57316,-0.644318 -3.81566,-1.350907 -2.66651,-7.769497 1.2378,-6.913797 1.98345,-9.349655 2.97899,-9.731681 0.42279,-0.162233 1.975695,-0.06199 3.450917,0.222739 1.475221,0.284746 2.853446,0.529581 3.062725,0.544077 0.209289,0.01441 0.715467,-0.782305 1.124864,-1.770677 0.682772,-1.648353 0.588696,-1.993567 -1.137068,-4.172524 -1.034796,-1.306521 -1.88142,-2.8007 -1.88142,-3.320399 0,-0.99211 11.103298,-10.683253 12.239977,-10.683253 0.361722,0 1.712956,1.109331 3.002744,2.465179 2.029548,2.133499 2.586978,2.412048 4.143028,2.070282 1.682606,-0.369562 1.797959,-0.57733 1.797959,-3.238381 0,-1.593999 0.41402,-3.434578 0.942193,-4.188653 0.883781,-1.261773 1.388228,-1.34517 8.136542,-1.34517 6.748316,0 7.252764,0.0834 8.136542,1.34517 0.528176,0.754075 0.942194,2.594654 0.942194,4.188653 0,2.661051 0.115361,2.868819 1.797961,3.238381 1.55605,0.341766 2.113479,0.06322 4.143028,-2.070282 1.289788,-1.355848 2.641024,-2.465179 3.002744,-2.465179 1.136679,0 12.239981,9.691143 12.239981,10.683253 0,0.519699 -0.84664,2.013878 -1.881423,3.320399 -1.725771,2.178957 -1.819844,2.524171 -1.137071,4.172529 0.409393,0.988372 0.915585,1.785175 1.124862,1.770677 0.209266,-0.01441 1.587509,-0.259331 3.062724,-0.544077 1.475224,-0.284746 3.028124,-0.38498 3.450904,-0.222739 0.99555,0.382026 1.7412,2.817883 2.97901,9.731681 1.14914,6.41859 0.90664,7.125179 -2.66652,7.769496 -3.365865,0.606939 -4.329381,1.308127 -4.308105,3.135205 0.0151,1.288115 0.603469,1.997728 2.723625,3.284288 1.97789,1.200233 2.69342,2.013264 2.66331,3.026244 -0.0226,0.761804 -1.59788,3.972534 -3.50053,7.13496 -3.860311,6.416282 -4.796383,6.966158 -8.319779,4.887303 -2.555444,-1.507748 -2.602446,-1.509535 -4.34916,-0.165299 -1.350655,1.039438 -1.360349,1.125057 -0.426835,3.769352 1.585908,4.49228 1.207848,4.93287 -6.704364,7.813245 -6.718642,2.445866 -7.070246,2.510313 -8.186111,1.500467 -0.641271,-0.580336 -1.479068,-2.100268 -1.861771,-3.377623 -0.643206,-2.14683 -0.864417,-2.322461 -2.925216,-2.322461 -2.072367,0 -2.279906,0.168615 -2.946637,2.393958 -0.766953,2.559859 -2.139269,4.305271 -3.300398,4.197687 -0.392331,-0.03637 -3.645347,-1.16292 -7.228926,-2.503484 z m 7.827795,-4.361617 c 1.050468,-3.03673 1.567421,-3.33747 5.756246,-3.348771 3.856313,-0.01052 5.00761,0.734845 5.649402,3.656895 0.225027,1.024578 0.742289,1.990706 1.149456,2.146953 1.303007,0.500007 9.763624,-3.11242 9.497966,-4.055351 -0.131695,-0.467439 -0.525213,-1.859251 -0.874487,-3.092925 -0.726134,-2.564773 -0.184514,-3.443164 3.844942,-6.235574 l 2.32479,-1.611082 2.730714,1.60031 2.730721,1.600307 0.856863,-1.397451 c 0.471276,-0.768608 1.714868,-2.83336 2.763536,-4.588345 l 1.906673,-3.190885 -2.708024,-1.635703 c -1.489407,-0.899636 -2.799917,-2.051178 -2.912234,-2.558981 -0.327626,-1.481203 1.183233,-7.389014 2.022277,-7.907573 0.421738,-0.260646 1.959826,-0.652811 3.417971,-0.871474 2.10741,-0.316023 2.58882,-0.60636 2.34713,-1.415516 -0.16724,-0.55987 -0.6184,-2.869018 -1.00259,-5.13144 l -0.69853,-4.113493 -3.387743,0.179367 -3.387742,0.179367 -1.992479,-3.019323 c -1.095864,-1.660613 -1.992481,-3.325424 -1.992481,-3.699567 0,-0.374142 0.824284,-1.717482 1.831739,-2.985199 1.007456,-1.267718 1.756452,-2.499174 1.664435,-2.73657 -0.09201,-0.237396 -1.895404,-1.870224 -4.00752,-3.628507 l -3.84022,-3.196875 -1.502514,1.919857 c -2.398019,3.0641 -3.220629,3.258277 -7.232678,1.707277 l -3.557586,-1.37531 -0.181517,-3.446551 -0.181518,-3.446553 H 67.733331 62.3465 l -0.181517,3.446553 -0.181518,3.446551 -3.557583,1.37531 c -4.012049,1.551 -4.834659,1.356823 -7.232678,-1.707277 l -1.502514,-1.919857 -3.84022,3.196875 c -2.112121,1.758283 -3.915507,3.391111 -4.007521,3.628507 -0.09201,0.237396 0.656979,1.468852 1.664435,2.73657 1.007455,1.267717 1.831737,2.611057 1.831737,2.985199 0,0.374143 -0.896616,2.038954 -1.992482,3.699583 l -1.992481,3.019323 -3.387739,-0.179367 -3.387755,-0.179367 -0.698528,4.113493 c -0.384172,2.262422 -0.835343,4.57157 -1.002593,5.13144 -0.24168,0.809156 0.23974,1.099493 2.347126,1.415516 1.458157,0.218668 2.996263,0.610828 3.417997,0.871474 0.839036,0.518559 2.349895,6.42637 2.02227,7.907573 -0.112319,0.507803 -1.42283,1.659345 -2.912244,2.558981 l -2.708008,1.635703 1.906655,3.190885 c 1.048684,1.754985 2.292267,3.819737 2.763543,4.588345 l 0.856865,1.397451 2.730719,-1.600307 2.73072,-1.60031 2.32479,1.611082 c 4.029446,2.79241 4.571073,3.670801 3.844941,6.235574 -0.349273,1.233674 -0.742792,2.626315 -0.874486,3.094765 -0.161845,0.575684 1.133696,1.399391 3.997297,2.541508 2.330209,0.929376 4.618187,1.635545 5.084398,1.569265 0.466208,-0.06627 1.219976,-1.196837 1.675039,-2.512339 z M 61.983463,76.040585 C 55.580861,73.914545 50.159577,69.256506 47.61409,63.694238 45.721564,59.558781 45.72586,50.560394 47.62229,46.414555 50.881692,39.289279 58.607924,33.981849 66.548095,33.413732 c 4.46335,-0.31935 6.632424,0.434026 6.632424,2.303617 0,1.065833 -0.428132,1.189203 -4.12689,1.189203 -6.507795,0 -10.020588,1.339801 -14.026344,5.349735 -5.265795,5.271285 -6.847596,12.118167 -4.437142,19.206342 1.472257,4.329322 6.812146,9.524344 11.098272,10.797183 6.833511,2.029339 13.1965,0.760853 18.043516,-3.597032 4.196914,-3.773389 5.750054,-7.21096 6.144093,-13.598757 0.292132,-4.735795 0.423868,-5.159764 1.657766,-5.335221 1.020069,-0.145054 1.436459,0.192063 1.742275,1.410525 0.668339,2.66286 -0.140525,9.492633 -1.489169,12.574163 -1.877369,4.289594 -6.667089,9.039188 -11.139706,11.046382 -4.433426,1.989597 -10.843075,2.549412 -14.663777,1.280713 z M 80.808667,42.53493 c -3.658316,-3.629259 -4.356622,-5.628378 -1.966026,-5.628378 1.806485,0 7.810124,6.150343 7.300365,7.478756 -0.718423,1.872179 -2.046266,1.411577 -5.334339,-1.850378 z"
       id="path827" />
  </g>
</svg>
