<svg xmlns="http://www.w3.org/2000/svg" width="512" height="512" viewBox="0 0 135.46666 135.46667">
  <path fill-rule="evenodd" d="M16.933335 0H118.53333c9.38107 0 16.93333 7.5522663 16.93333 16.933332V118.53333c0 9.38106-7.55226 16.93333-16.93333 16.93333H16.933335c-9.381066 0-16.93333227-7.55227-16.93333227-16.93333V16.933332C.00000273 7.5522663 7.552269 0 16.933335 0Z" color="#000" style="-inkscape-stroke:none"/>
  <path fill="#ff0c57" fill-rule="evenodd" d="M16.933332 8.5685921H118.53333c4.69054 0 8.46667 3.7761329 8.46667 8.4666659v84.666662c0 4.69054-3.77613 8.46667-8.46667 8.46667H16.933332c-4.690533 0-8.4666658-3.77613-8.4666658-8.46667V17.035258c0-4.690533 3.7761328-8.4666659 8.4666658-8.4666659z" color="#000" style="-inkscape-stroke:none"/>
  <path fill-rule="evenodd" d="M8.4666689 101.60001H127c4.69053 0 8.46666 3.77614 8.46666 8.46667v8.46667c0 4.69053-3.77613 8.46666-8.46666 8.46666H8.4666689c-4.690533 0-8.46666617-3.77613-8.46666617-8.46666v-8.46667c0-4.69053 3.77613317-8.46667 8.46666617-8.46667z" color="#000" style="-inkscape-stroke:none"/>
  <g style="-inkscape-font-specification:'Brandon Text, Medium';white-space:pre">
    <path fill="#fff" d="M4.2133308 426.98664c0 .53333.4266664 1.01333 1.0133328 1.01333H27.30665c.586667 0 1.013333-.48 1.013333-1.01333v-5.81333c0-.53333-.426666-1.01333-1.013333-1.01333H12.533326v-7.2h12.159993c.533333 0 1.013332-.42666 1.013332-1.01333v-5.81333c0-.53333-.479999-1.01333-1.013332-1.01333H12.533326v-6.61333H27.30665c.586667 0 1.013333-.48 1.013333-1.01333V391.68c0-.53334-.426666-1.01334-1.013333-1.01334H5.2266636c-.5866664 0-1.0133328.48-1.0133328 1.01334zM32.31985 409.38665c0 10.66666 8.479995 19.14666 19.146655 19.14666.373333 0 1.013333 0 1.653332-.0533l5.65333 9.54666c.16.26667.426667.53334.853333.53334h7.199996c.853333 0 1.279999-.85334.853333-1.6l-6.879996-10.77333c5.866663-3.57333 9.866661-9.86666 9.866661-16.79999 0-10.66666-8.533329-19.25332-19.199989-19.25332-10.66666 0-19.146655 8.58666-19.146655 19.25332zm8.533328 0c0-5.86666 4.799997-10.71999 10.613327-10.71999 5.866663 0 10.66666 4.85333 10.66666 10.71999 0 5.81333-4.799997 10.61333-10.66666 10.61333-5.81333 0-10.613327-4.8-10.613327-10.61333zm35.733257 4.96c0 8.10666 6.773329 14.18666 15.146657 14.18666 8.426658 0 15.253328-6.08 15.253328-14.18666V391.68c0-.53334-.48-1.01334-1.01334-1.01334h-6.559992c-.586666 0-1.013333.48-1.013333 1.01334v22.23998c0 3.89333-2.826665 6.08-6.666663 6.08-3.786664 0-6.559996-2.18667-6.559996-6.08V391.68c0-.53334-.426666-1.01334-1.013332-1.01334h-6.559996c-.533334 0-1.013333.48-1.013333 1.01334zm33.973185 13.65332h5.86666c1.06667 0 1.65334-.64 1.92-1.28l1.92-4.26666h14.50666l1.92 4.21333c.48 1.01333.90666 1.33333 1.86666 1.33333h5.92c.8 0 1.22667-.69333.90667-1.38666L128.69294 390.72c-.16-.32-.53333-.58667-.90666-.58667h-.53334c-.37333 0-.74666.26667-.90666.58667l-16.69333 35.89331c-.32.69333.10667 1.38666.90667 1.38666zm12.90666-12.79999 4-8.79999h.0533l4.05333 8.79999zm26.13322 11.78666c0 .53333.42667 1.01333 1.01333 1.01333h20.05332c.58667 0 1.01334-.48 1.01334-1.01333v-5.81333c0-.53333-.42667-1.01333-1.01334-1.01333h-12.69332V391.68c0-.53334-.48-1.01334-1.01333-1.01334h-6.34667c-.58666 0-1.01333.48-1.01333 1.01334zm27.19989 0c0 .53333.48 1.01333 1.01333 1.01333h6.4c.53333 0 1.01333-.48 1.01333-1.01333V391.68c0-.53334-.48-1.01334-1.01333-1.01334h-6.4c-.53333 0-1.01333.48-1.01333 1.01334zm22.66666 0c0 .53333.48 1.01333 1.01334 1.01333h6.39999c.53333 0 1.01333-.48 1.01333-1.01333v-28.47998h7.62667c.58666 0 1.01333-.48 1.01333-1.01333V391.68c0-.53334-.42667-1.01334-1.01333-1.01334h-23.67999c-.58667 0-1.01333.48-1.01333 1.01334v5.81333c0 .53333.42666 1.01333 1.01333 1.01333h7.62666zm30.29322 0c0 .53333.42667 1.01333 1.01334 1.01333h6.34666c.53333 0 1.01333-.48 1.01333-1.01333v-17.01332l11.94666-17.75999c.42667-.69333 0-1.54667-.85333-1.54667h-6.93333c-.48 0-.69333.26667-.85333.48l-7.41333 10.93333-7.41333-10.93333c-.16-.21333-.42667-.48-.85333-.48h-6.93333c-.85334 0-1.28.85334-.85334 1.54667l11.78666 17.81332z" aria-label="EQUALITY" color="#000" font-family="Brandon Text" font-size="53.3333px" font-weight="500" style="-inkscape-font-specification:'Brandon Text, Medium';-inkscape-stroke:none" transform="translate(34.070399 6.8438898) scale(.26458)"/>
  </g>
  <path d="M54.257373 90.625132c-7.357604-2.752363-7.768597-3.262788-6.201499-7.701789.933515-2.644295.923821-2.729914-.426834-3.769351-1.746714-1.344234-1.793718-1.342448-4.349163.165298-3.523398 2.078855-4.459466 1.528979-8.319784-4.887302-1.90265-3.162426-3.47788-6.373157-3.50053-7.134961-.0302-1.012979.68542-1.826011 2.66333-3.026243 2.120152-1.28656 2.708603-1.996174 2.723609-3.284289.02059-1.827077-.942244-2.528266-4.308109-3.135204-3.57316-.644318-3.81566-1.350907-2.66651-7.769497 1.2378-6.913797 1.98345-9.349655 2.97899-9.731681.42279-.162233 1.975695-.06199 3.450917.222739 1.475221.284746 2.853446.529581 3.062725.544077.209289.01441.715467-.782305 1.124864-1.770677.682772-1.648353.588696-1.993567-1.137068-4.172524-1.034796-1.306521-1.88142-2.8007-1.88142-3.320399 0-.99211 11.103298-10.683253 12.239977-10.683253.361722 0 1.712956 1.109331 3.002744 2.465179 2.029548 2.133499 2.586978 2.412048 4.143028 2.070282 1.682606-.369562 1.797959-.57733 1.797959-3.238381 0-1.593999.41402-3.434578.942193-4.188653.883781-1.261773 1.388228-1.34517 8.136542-1.34517 6.748316 0 7.252764.0834 8.136542 1.34517.528176.754075.942194 2.594654.942194 4.188653 0 2.661051.115361 2.868819 1.797961 3.238381 1.55605.341766 2.113479.06322 4.143028-2.070282 1.289788-1.355848 2.641024-2.465179 3.002744-2.465179 1.136679 0 12.239981 9.691143 12.239981 10.683253 0 .519699-.84664 2.013878-1.881423 3.320399-1.725771 2.178957-1.819844 2.524171-1.137071 4.172529.409393.988372.915585 1.785175 1.124862 1.770677.209266-.01441 1.587509-.259331 3.062724-.544077 1.475224-.284746 3.028124-.38498 3.450904-.222739.99555.382026 1.7412 2.817883 2.97901 9.731681 1.14914 6.41859.90664 7.125179-2.66652 7.769496-3.365865.606939-4.329381 1.308127-4.308105 3.135205.0151 1.288115.603469 1.997728 2.723625 3.284288 1.97789 1.200233 2.69342 2.013264 2.66331 3.026244-.0226.761804-1.59788 3.972534-3.50053 7.13496-3.860311 6.416282-4.796383 6.966158-8.319779 4.887303-2.555444-1.507748-2.602446-1.509535-4.34916-.165299-1.350655 1.039438-1.360349 1.125057-.426835 3.769352 1.585908 4.49228 1.207848 4.93287-6.704364 7.813245-6.718642 2.445866-7.070246 2.510313-8.186111 1.500467-.641271-.580336-1.479068-2.100268-1.861771-3.377623-.643206-2.14683-.864417-2.322461-2.925216-2.322461-2.072367 0-2.279906.168615-2.946637 2.393958-.766953 2.559859-2.139269 4.305271-3.300398 4.197687-.392331-.03637-3.645347-1.16292-7.228926-2.503484zm7.827795-4.361617c1.050468-3.03673 1.567421-3.33747 5.756246-3.348771 3.856313-.01052 5.00761.734845 5.649402 3.656895.225027 1.024578.742289 1.990706 1.149456 2.146953 1.303007.500007 9.763624-3.11242 9.497966-4.055351-.131695-.467439-.525213-1.859251-.874487-3.092925-.726134-2.564773-.184514-3.443164 3.844942-6.235574l2.32479-1.611082 2.730714 1.60031 2.730721 1.600307.856863-1.397451c.471276-.768608 1.714868-2.83336 2.763536-4.588345l1.906673-3.190885-2.708024-1.635703c-1.489407-.899636-2.799917-2.051178-2.912234-2.558981-.327626-1.481203 1.183233-7.389014 2.022277-7.907573.421738-.260646 1.959826-.652811 3.417971-.871474 2.10741-.316023 2.58882-.60636 2.34713-1.415516-.16724-.55987-.6184-2.869018-1.00259-5.13144l-.69853-4.113493-3.387743.179367-3.387742.179367-1.992479-3.019323c-1.095864-1.660613-1.992481-3.325424-1.992481-3.699567 0-.374142.824284-1.717482 1.831739-2.985199 1.007456-1.267718 1.756452-2.499174 1.664435-2.73657-.09201-.237396-1.895404-1.870224-4.00752-3.628507l-3.84022-3.196875-1.502514 1.919857c-2.398019 3.0641-3.220629 3.258277-7.232678 1.707277l-3.557586-1.37531-.181517-3.446551-.181518-3.446553H62.3465l-.181517 3.446553-.181518 3.446551-3.557583 1.37531c-4.012049 1.551-4.834659 1.356823-7.232678-1.707277l-1.502514-1.919857-3.84022 3.196875c-2.112121 1.758283-3.915507 3.391111-4.007521 3.628507-.09201.237396.656979 1.468852 1.664435 2.73657 1.007455 1.267717 1.831737 2.611057 1.831737 2.985199 0 .374143-.896616 2.038954-1.992482 3.699583l-1.992481 3.019323-3.387739-.179367-3.387755-.179367-.698528 4.113493c-.384172 2.262422-.835343 4.57157-1.002593 5.13144-.24168.809156.23974 1.099493 2.347126 1.415516 1.458157.218668 2.996263.610828 3.417997.871474.839036.518559 2.349895 6.42637 2.02227 7.907573-.112319.507803-1.42283 1.659345-2.912244 2.558981l-2.708008 1.635703 1.906655 3.190885c1.048684 1.754985 2.292267 3.819737 2.763543 4.588345l.856865 1.397451 2.730719-1.600307 2.73072-1.60031 2.32479 1.611082c4.029446 2.79241 4.571073 3.670801 3.844941 6.235574-.349273 1.233674-.742792 2.626315-.874486 3.094765-.161845.575684 1.133696 1.399391 3.997297 2.541508 2.330209.929376 4.618187 1.635545 5.084398 1.569265.466208-.06627 1.219976-1.196837 1.675039-2.512339zm-.101705-10.22293c-6.402602-2.12604-11.823886-6.784079-14.369373-12.346347-1.892526-4.135457-1.88823-13.133844.0082-17.279683 3.259402-7.125276 10.985634-12.432706 18.925805-13.000823 4.46335-.31935 6.632424.434026 6.632424 2.303617 0 1.065833-.428132 1.189203-4.12689 1.189203-6.507795 0-10.020588 1.339801-14.026344 5.349735-5.265795 5.271285-6.847596 12.118167-4.437142 19.206342 1.472257 4.329322 6.812146 9.524344 11.098272 10.797183 6.833511 2.029339 13.1965.760853 18.043516-3.597032 4.196914-3.773389 5.750054-7.21096 6.144093-13.598757.292132-4.735795.423868-5.159764 1.657766-5.335221 1.020069-.145054 1.436459.192063 1.742275 1.410525.668339 2.66286-.140525 9.492633-1.489169 12.574163-1.877369 4.289594-6.667089 9.039188-11.139706 11.046382-4.433426 1.989597-10.843075 2.549412-14.663777 1.280713zM80.808667 42.53493c-3.658316-3.629259-4.356622-5.628378-1.966026-5.628378 1.806485 0 7.810124 6.150343 7.300365 7.478756-.718423 1.872179-2.046266 1.411577-5.334339-1.850378z"/>
</svg>
