<?xml version="1.0" encoding="UTF-8" standalone="no"?>
<!-- Created with Inkscape (http://www.inkscape.org/) -->

<svg
   width="512"
   height="512"
   viewBox="0 0 135.46666 135.46667"
   version="1.1"
   id="svg5"
   inkscape:version="1.1 (c68e22c387, 2021-05-23)"
   sodipodi:docname="heritage.svg"
   xmlns:inkscape="http://www.inkscape.org/namespaces/inkscape"
   xmlns:sodipodi="http://sodipodi.sourceforge.net/DTD/sodipodi-0.dtd"
   xmlns="http://www.w3.org/2000/svg"
   xmlns:svg="http://www.w3.org/2000/svg">
  <sodipodi:namedview
     id="namedview7"
     pagecolor="#505050"
     bordercolor="#eeeeee"
     borderopacity="1"
     inkscape:pageshadow="0"
     inkscape:pageopacity="0"
     inkscape:pagecheckerboard="0"
     inkscape:document-units="px"
     showgrid="false"
     inkscape:zoom="0.46324355"
     inkscape:cx="93.903088"
     inkscape:cy="227.74197"
     inkscape:window-width="1366"
     inkscape:window-height="705"
     inkscape:window-x="-8"
     inkscape:window-y="-8"
     inkscape:window-maximized="1"
     inkscape:current-layer="layer1"
     units="px" />
  <defs
     id="defs2">
    <rect
       x="0"
       y="384.00006"
       width="511.99998"
       height="127.99992"
       id="rect12253" />
    <pattern
       id="EMFhbasepattern"
       patternUnits="userSpaceOnUse"
       width="6"
       height="6"
       x="0"
       y="0" />
  </defs>
  <g
     inkscape:label="Calque 1"
     inkscape:groupmode="layer"
     id="layer1">
    <path
       style="color:#000000;fill:#000000;fill-rule:evenodd;stroke-width:8.46667;-inkscape-stroke:none"
       d="M 16.933335,0 H 118.53333 c 9.38107,0 16.93333,7.5522663 16.93333,16.933332 V 118.53333 c 0,9.38106 -7.55226,16.93333 -16.93333,16.93333 H 16.933335 C 7.552269,135.46666 2.7270507e-6,127.91439 2.7270507e-6,118.53333 V 16.933332 C 2.7270507e-6,7.5522663 7.552269,0 16.933335,0 Z"
       id="rect846" />
    <path
       style="color:#000000;fill:#9bf122;fill-rule:evenodd;stroke-width:8.46667;-inkscape-stroke:none"
       d="M 16.933332,8.5685921 H 118.53333 c 4.69054,0 8.46667,3.7761329 8.46667,8.4666659 v 84.666662 c 0,4.69054 -3.77613,8.46667 -8.46667,8.46667 H 16.933332 c -4.690533,0 -8.4666658,-3.77613 -8.4666658,-8.46667 V 17.035258 c 0,-4.690533 3.7761328,-8.4666659 8.4666658,-8.4666659 z"
       id="rect846-1" />
    <path
       style="color:#000000;fill:#000000;fill-rule:evenodd;stroke-width:0.264583;-inkscape-stroke:none"
       d="M 8.4666689,101.60001 H 127 c 4.69053,0 8.46666,3.77614 8.46666,8.46667 v 8.46667 c 0,4.69053 -3.77613,8.46666 -8.46666,8.46666 H 8.4666689 c -4.690533,0 -8.4666661729493,-3.77613 -8.4666661729493,-8.46666 v -8.46667 c 0,-4.69053 3.7761331729493,-8.46667 8.4666661729493,-8.46667 z"
       id="rect1024" />
    <g
       aria-label="HERITAGE"
       transform="matrix(0.26458333,0,0,0.26458333,34.064304,6.8438898)"
       id="text12251"
       style="font-weight:500;font-size:53.3333px;font-family:'Brandon Text';-inkscape-font-specification:'Brandon Text, Medium';white-space:pre;fill:#ffffff">
      <path
         style="color:#000000;-inkscape-font-specification:'Brandon Text, Medium';-inkscape-stroke:none"
         d="m 4.2133308,426.98664 c 0,0.53333 0.4799997,1.01333 1.0133328,1.01333 h 6.3466624 c 0.586667,0 1.013333,-0.48 1.013333,-1.01333 v -14.02666 h 15.253324 v 14.02666 c 0,0.53333 0.426667,1.01333 1.013333,1.01333 h 6.346663 c 0.533333,0 1.013333,-0.48 1.013333,-1.01333 V 391.68 c 0,-0.53334 -0.48,-1.01334 -1.013333,-1.01334 h -6.346663 c -0.586666,0 -1.013333,0.48 -1.013333,1.01334 v 13.43999 H 12.586659 V 391.68 c 0,-0.53334 -0.426666,-1.01334 -1.013333,-1.01334 H 5.2266636 c -0.5333331,0 -1.0133328,0.48 -1.0133328,1.01334 z"
         id="path872" />
      <path
         style="color:#000000;-inkscape-font-specification:'Brandon Text, Medium';-inkscape-stroke:none"
         d="m 44.639944,426.98664 c 0,0.53333 0.426666,1.01333 1.013332,1.01333 h 22.079987 c 0.586667,0 1.013333,-0.48 1.013333,-1.01333 v -5.81333 c 0,-0.53333 -0.426666,-1.01333 -1.013333,-1.01333 H 52.959939 v -7.2 h 12.159992 c 0.533333,0 1.013333,-0.42666 1.013333,-1.01333 v -5.81333 c 0,-0.53333 -0.48,-1.01333 -1.013333,-1.01333 H 52.959939 v -6.61333 h 14.773324 c 0.586667,0 1.013333,-0.48 1.013333,-1.01333 V 391.68 c 0,-0.53334 -0.426666,-1.01334 -1.013333,-1.01334 H 45.653276 c -0.586666,0 -1.013332,0.48 -1.013332,1.01334 z"
         id="path874" />
      <path
         style="color:#000000;-inkscape-font-specification:'Brandon Text, Medium';-inkscape-stroke:none"
         d="m 75.466543,426.98664 c 0,0.53333 0.426666,1.01333 1.013333,1.01333 h 6.346662 c 0.533333,0 1.013333,-0.48 1.013333,-1.01333 v -13.59999 h 3.679998 l 7.093329,14.13332 c 0.106667,0.21334 0.426666,0.48 0.853333,0.48 h 7.093329 c 0.90667,0 1.28,-0.85333 0.90667,-1.54666 l -7.306666,-13.54666 c 4.959996,-1.86667 7.893326,-5.81333 7.893326,-10.71999 0,-6.34667 -4.853328,-11.52 -11.626657,-11.52 H 76.479876 c -0.586667,0 -1.013333,0.48 -1.013333,1.01334 z m 8.373328,-20.37332 v -8.32 H 91.7332 c 2.186665,0 4.053331,1.54667 4.053331,4.05334 0,2.50666 -1.866666,4.26666 -4.053331,4.26666 z"
         id="path876" />
      <path
         style="color:#000000;-inkscape-font-specification:'Brandon Text, Medium';-inkscape-stroke:none"
         d="m 110.77312,426.98664 c 0,0.53333 0.48,1.01333 1.01334,1.01333 h 6.39999 c 0.53333,0 1.01333,-0.48 1.01333,-1.01333 V 391.68 c 0,-0.53334 -0.48,-1.01334 -1.01333,-1.01334 h -6.39999 c -0.53334,0 -1.01334,0.48 -1.01334,1.01334 z"
         id="path878" />
      <path
         style="color:#000000;-inkscape-font-specification:'Brandon Text, Medium';-inkscape-stroke:none"
         d="m 133.43978,426.98664 c 0,0.53333 0.48,1.01333 1.01333,1.01333 h 6.4 c 0.53333,0 1.01333,-0.48 1.01333,-1.01333 v -28.47998 h 7.62666 c 0.58667,0 1.01333,-0.48 1.01333,-1.01333 V 391.68 c 0,-0.53334 -0.42666,-1.01334 -1.01333,-1.01334 h -23.67998 c -0.58667,0 -1.01334,0.48 -1.01334,1.01334 v 5.81333 c 0,0.53333 0.42667,1.01333 1.01334,1.01333 h 7.62666 z"
         id="path880" />
      <path
         style="color:#000000;-inkscape-font-specification:'Brandon Text, Medium';-inkscape-stroke:none"
         d="m 150.34627,427.99997 h 5.86667 c 1.06666,0 1.65333,-0.64 1.91999,-1.28 l 1.92,-4.26666 h 14.50666 l 1.92,4.21333 c 0.48,1.01333 0.90667,1.33333 1.86667,1.33333 h 5.91999 c 0.8,0 1.22667,-0.69333 0.90667,-1.38666 L 168.47959,390.72 c -0.16,-0.32 -0.53333,-0.58667 -0.90666,-0.58667 h -0.53333 c -0.37334,0 -0.74667,0.26667 -0.90667,0.58667 l -16.69332,35.89331 c -0.32,0.69333 0.10666,1.38666 0.90666,1.38666 z m 12.90666,-12.79999 4,-8.79999 h 0.0533 l 4.05333,8.79999 z"
         id="path882" />
      <path
         style="color:#000000;-inkscape-font-specification:'Brandon Text, Medium';-inkscape-stroke:none"
         d="m 186.23944,409.38665 c 0,10.66666 8.53333,19.09332 19.14665,19.09332 7.73333,0 13.22666,-3.46666 13.22666,-3.46666 0.21334,-0.16 0.42667,-0.37333 0.42667,-0.85333 l -0.0533,-14.34666 c 0,-0.53334 -0.42666,-1.01333 -0.95999,-1.01333 h -10.72 c -0.58666,0 -1.01333,0.42666 -1.01333,1.01333 v 5.27999 c 0,0.53334 0.42667,0.96 1.01333,0.96 h 3.36 v 3.09334 c -1.6,0.64 -3.2,0.85333 -4.74666,0.85333 -5.81333,0 -10.56,-4.8 -10.56,-10.61333 0,-5.86666 4.69333,-10.77333 10.50666,-10.77333 2.61333,0 4.96,0.69334 6.98667,2.56 0.42666,0.32 1.01333,0.32 1.43999,-0.0533 l 4.21334,-4.48 c 0.42666,-0.42666 0.37333,-1.06666 -0.10667,-1.44 -3.62667,-3.14666 -8.53333,-5.01333 -13.01333,-5.01333 -10.61332,0 -19.14665,8.53333 -19.14665,19.19999 z"
         id="path884" />
      <path
         style="color:#000000;-inkscape-font-specification:'Brandon Text, Medium';-inkscape-stroke:none"
         d="m 226.18606,426.98664 c 0,0.53333 0.42667,1.01333 1.01334,1.01333 h 22.07998 c 0.58667,0 1.01334,-0.48 1.01334,-1.01333 v -5.81333 c 0,-0.53333 -0.42667,-1.01333 -1.01334,-1.01333 h -14.77332 v -7.2 h 12.15999 c 0.53333,0 1.01333,-0.42666 1.01333,-1.01333 v -5.81333 c 0,-0.53333 -0.48,-1.01333 -1.01333,-1.01333 h -12.15999 v -6.61333 h 14.77332 c 0.58667,0 1.01334,-0.48 1.01334,-1.01333 V 391.68 c 0,-0.53334 -0.42667,-1.01334 -1.01334,-1.01334 H 227.1994 c -0.58667,0 -1.01334,0.48 -1.01334,1.01334 z"
         id="path886" />
    </g>
    <path
       style="fill:#000000;stroke-width:0.596052"
       d="m 43.796251,92.435419 c -0.17054,-0.444231 -0.2303,-2.794274 -0.13292,-5.222306 l 0.17707,-4.414614 3.54106,-0.182161 3.54108,-0.182161 -3.00277,-1.714954 c -3.61306,-2.063485 -7.93115,-6.718826 -9.67681,-10.43259 -3.87276,-8.23894 -3.1094,-16.835162 2.62049,-29.509824 3.89069,-8.606346 3.88699,-8.195535 0.0712,-7.879099 -3.0015,0.248907 -3.37184,0.128995 -5.43186,-1.758875 -1.76669,-1.619057 -2.26532,-2.560627 -2.48254,-4.687755 -0.51625,-5.055463 2.77707,-8.866557 8.10429,-9.378437 6.17188,-0.593038 11.24524,2.975089 12.49129,8.785206 0.36052,1.681125 0.6555,3.445724 0.6555,3.921331 0,0.525021 0.58542,0.864741 1.49014,0.864741 1.45823,0 1.49011,-0.09658 1.49011,-4.511849 0,-4.338021 0.0516,-4.504511 1.34114,-4.32138 1.23063,0.174779 1.35553,0.54645 1.51624,4.511849 0.16806,4.144017 0.23521,4.32138 1.63913,4.32138 1.45774,0 1.46403,-0.02579 1.46403,-6.00198 0,-5.883342 0.0266,-5.998215 1.34111,-5.81151 1.27225,0.180687 1.34988,0.488898 1.51172,6.001979 0.16761,5.708492 0.19622,5.811511 1.61755,5.811511 1.4213,0 1.44998,-0.103021 1.61757,-5.811511 0.16175,-5.513081 0.23945,-5.821292 1.51171,-6.001979 1.3146,-0.186705 1.34111,-0.07183 1.34111,5.81151 0,5.976196 0.007,6.00198 1.46401,6.00198 1.40394,0 1.47121,-0.177363 1.63915,-4.32138 0.16063,-3.965399 0.28561,-4.33707 1.51625,-4.511849 1.28945,-0.18313 1.34111,-0.01665 1.34111,4.32138 0,4.415271 0.032,4.511849 1.49013,4.511849 1.161002,0 1.490134,-0.305239 1.490134,-1.381947 0,-2.688041 1.781601,-7.329518 3.413278,-8.89241 6.161709,-5.901906 16.419427,-3.864121 17.808027,3.537719 1.03622,5.523567 -2.384291,9.367985 -7.96782,8.955257 -3.71853,-0.274869 -3.726235,-0.66975 0.154316,7.914269 5.729894,12.674662 6.493234,21.270884 2.620473,29.509824 -1.745668,3.713764 -6.063757,8.369105 -9.676789,10.432603 l -3.002773,1.714955 3.541055,0.182161 3.541079,0.182161 v 5.066444 5.066444 l -23.70916,0.155871 c -19.50525,0.128207 -23.7641,0.01262 -24.01907,-0.651853 z M 88.842233,87.864944 V 85.480735 H 67.682391 46.522541 v 2.384209 2.384208 h 21.15985 21.159842 z M 77.243001,81.593508 c 11.645707,-2.973164 18.567171,-10.475221 19.20532,-20.816342 0.344542,-5.583078 -0.903799,-10.660964 -4.62136,-18.798488 -1.647311,-3.605844 -3.278492,-7.877488 -3.62486,-9.492542 -1.246494,-5.812131 0.234944,-10.159803 2.012692,-5.906827 1.23933,2.964911 2.5692,3.758285 5.929086,3.537198 1.805592,-0.118812 3.427288,-2.28824 3.427288,-4.584882 0,-3.248415 -2.63203,-5.616647 -6.24229,-5.616647 -4.902532,0 -8.290622,2.774494 -8.967723,7.343592 -0.254769,1.719192 0.117371,4.523245 1.200447,9.047849 4.598247,19.207546 4.412864,28.10284 -0.695212,33.362482 -2.858414,2.943199 -6.130028,4.343571 -12.130108,5.192087 -5.73056,0.810412 -13.35495,0.02904 -17.46759,-1.790207 -9.17076,-4.056667 -10.90676,-13.77117 -6.09053,-34.082127 1.58786,-6.69632 2.08969,-9.924402 1.82352,-11.730084 -0.67329,-4.567648 -4.06244,-7.343592 -8.96577,-7.343592 -2.25323,0 -3.0764,0.318714 -4.49999,1.742306 -3.41188,3.411882 -1.65732,8.390585 2.95694,8.390585 2.46907,0 3.74654,-1.00469 4.79976,-3.774867 0.8346,-2.195136 2.06902,-1.749466 2.32807,0.840508 0.32629,3.262312 -1.0198,8.122544 -4.15691,15.009052 -5.34268,11.728071 -6.03426,19.483295 -2.39641,26.872814 3.11271,6.322808 8.44296,10.308248 16.78017,12.546525 4.3955,1.180053 14.86628,1.207918 19.39546,0.05161 z M 69.172511,52.995884 V 33.624183 h -1.49012 -1.49013 v 19.371701 19.371698 h 1.49013 1.49012 z m -5.9605,-0.298027 V 33.624183 h -1.49014 -1.49013 V 52.697857 71.77153 h 1.49013 1.49014 z m 11.92102,0 V 33.624183 h -1.49011 -1.49014 V 52.697857 71.77153 h 1.49014 1.49011 z m -18.02195,-0.447041 -0.1577,-18.328608 -1.8563,-0.180742 c -1.61007,-0.156772 -1.90527,0.04091 -2.2254,1.49013 -3.47248,15.72051 -4.18414,23.24979 -2.67395,28.290336 0.66793,2.22939 5.08245,7.057497 6.45292,7.057497 0.41663,0 0.56662,-5.971901 0.46036,-18.328608 z m 24.814104,15.93832 c 1.782479,-1.643023 2.829262,-3.233547 3.348373,-5.087659 1.140095,-4.072019 0.409581,-14.09997 -1.626292,-22.324668 -1.68865,-6.821868 -1.705208,-6.854601 -3.466345,-6.854601 h -1.7696 l -0.15769,18.328608 c -0.10634,12.356707 0.0437,18.328609 0.46036,18.328609 0.3399,0 1.784905,-1.075629 3.211126,-2.390289 z"
       id="path827" />
  </g>
</svg>
