<?xml version="1.0" encoding="UTF-8" standalone="no"?>
<!-- Created with Inkscape (http://www.inkscape.org/) -->

<svg
   width="512"
   height="512"
   viewBox="0 0 135.46666 135.46667"
   version="1.1"
   id="svg5"
   inkscape:version="1.1 (c68e22c387, 2021-05-23)"
   sodipodi:docname="inclusivity.svg"
   xmlns:inkscape="http://www.inkscape.org/namespaces/inkscape"
   xmlns:sodipodi="http://sodipodi.sourceforge.net/DTD/sodipodi-0.dtd"
   xmlns="http://www.w3.org/2000/svg"
   xmlns:svg="http://www.w3.org/2000/svg">
  <sodipodi:namedview
     id="namedview7"
     pagecolor="#505050"
     bordercolor="#eeeeee"
     borderopacity="1"
     inkscape:pageshadow="0"
     inkscape:pageopacity="0"
     inkscape:pagecheckerboard="0"
     inkscape:document-units="px"
     showgrid="false"
     inkscape:zoom="0.46324355"
     inkscape:cx="93.903088"
     inkscape:cy="227.74197"
     inkscape:window-width="1366"
     inkscape:window-height="705"
     inkscape:window-x="-8"
     inkscape:window-y="-8"
     inkscape:window-maximized="1"
     inkscape:current-layer="layer1"
     units="px" />
  <defs
     id="defs2">
    <rect
       x="0"
       y="384.00006"
       width="511.99998"
       height="127.99992"
       id="rect12253" />
  </defs>
  <g
     inkscape:label="Calque 1"
     inkscape:groupmode="layer"
     id="layer1">
    <path
       style="color:#000000;fill:#000000;fill-rule:evenodd;stroke-width:8.46667;-inkscape-stroke:none"
       d="M 16.933335,0 H 118.53333 c 9.38107,0 16.93333,7.5522663 16.93333,16.933332 V 118.53333 c 0,9.38106 -7.55226,16.93333 -16.93333,16.93333 H 16.933335 C 7.552269,135.46666 2.7270507e-6,127.91439 2.7270507e-6,118.53333 V 16.933332 C 2.7270507e-6,7.5522663 7.552269,0 16.933335,0 Z"
       id="rect846" />
    <path
       style="color:#000000;fill:#ff15a8;fill-rule:evenodd;stroke-width:8.46667;-inkscape-stroke:none"
       d="M 16.933332,8.5685921 H 118.53333 c 4.69054,0 8.46667,3.7761329 8.46667,8.4666659 v 84.666662 c 0,4.69054 -3.77613,8.46667 -8.46667,8.46667 H 16.933332 c -4.690533,0 -8.4666658,-3.77613 -8.4666658,-8.46667 V 17.035258 c 0,-4.690533 3.7761328,-8.4666659 8.4666658,-8.4666659 z"
       id="rect846-1" />
    <path
       style="color:#000000;fill:#000000;fill-rule:evenodd;stroke-width:0.264583;-inkscape-stroke:none"
       d="M 8.4666689,101.60001 H 127 c 4.69053,0 8.46666,3.77614 8.46666,8.46667 v 8.46667 c 0,4.69053 -3.77613,8.46666 -8.46666,8.46666 H 8.4666689 c -4.690533,0 -8.4666661729493,-3.77613 -8.4666661729493,-8.46666 v -8.46667 c 0,-4.69053 3.7761331729493,-8.46667 8.4666661729493,-8.46667 z"
       id="rect1024" />
    <g
       aria-label="INCLUSIVITY"
       transform="matrix(0.26458333,0,0,0.26458333,25.131002,6.8438898)"
       id="text12251"
       style="font-weight:500;font-size:53.3333px;font-family:'Brandon Text';-inkscape-font-specification:'Brandon Text, Medium';white-space:pre;fill:#ffffff">
      <path
         style="color:#000000;-inkscape-font-specification:'Brandon Text, Medium';-inkscape-stroke:none"
         d="m 4.2133308,426.98664 c 0,0.53333 0.4799997,1.01333 1.0133328,1.01333 H 11.62666 c 0.533333,0 1.013332,-0.48 1.013332,-1.01333 V 391.68 c 0,-0.53334 -0.479999,-1.01334 -1.013332,-1.01334 H 5.2266636 c -0.5333331,0 -1.0133328,0.48 -1.0133328,1.01334 z"
         id="path863" />
      <path
         style="color:#000000;-inkscape-font-specification:'Brandon Text, Medium';-inkscape-stroke:none"
         d="m 21.066654,426.98664 c 0,0.53333 0.48,1.01333 1.013333,1.01333 h 6.346662 c 0.586667,0 1.013333,-0.48 1.013333,-1.01333 v -19.89332 c 0,0 0.05333,0 0.05333,0 l 20.746655,20.85332 c 0.426666,0.42667 0.799999,0.58667 1.333332,0.58667 h 0.533333 c 0.533333,0 1.013333,-0.32 1.013333,-0.96 V 391.68 c 0,-0.53334 -0.48,-1.01334 -1.013333,-1.01334 h -6.399996 c -0.586666,0 -1.013333,0.48 -1.013333,1.01334 v 18.93332 c 0,0 -0.05333,0 -0.05333,0 L 24.159985,390.93333 c -0.426666,-0.42667 -0.799999,-0.8 -1.333332,-0.8 h -0.8 c -0.533333,0 -1.013332,0.42667 -1.013332,0.96 z"
         id="path865" />
      <path
         style="color:#000000;-inkscape-font-specification:'Brandon Text, Medium';-inkscape-stroke:none"
         d="m 59.413235,409.38665 c 0,10.66666 8.586662,19.14666 19.253322,19.14666 4.746664,0 9.333328,-1.65334 12.959993,-5.17333 0.373333,-0.37334 0.426666,-1.06667 0.05333,-1.44 l -4.159998,-4.42667 c -0.319999,-0.37333 -1.013332,-0.37333 -1.386665,-0.0533 -1.919999,1.65333 -4.213331,2.56 -7.146663,2.56 -6.026663,0 -10.50666,-4.90667 -10.50666,-10.82666 0,-5.97333 4.426664,-10.98666 10.453327,-10.98666 2.613332,0 5.01333,0.8 7.199996,2.72 0.373333,0.37333 0.959999,0.37333 1.333332,0 l 4.159998,-4.32 c 0.426666,-0.42667 0.426666,-1.06667 -0.05333,-1.49333 -3.626664,-3.30667 -7.573329,-4.96 -12.906659,-4.96 -10.66666,0 -19.253322,8.58666 -19.253322,19.25332 z"
         id="path867" />
      <path
         style="color:#000000;-inkscape-font-specification:'Brandon Text, Medium';-inkscape-stroke:none"
         d="m 97.759824,426.98664 c 0,0.53333 0.426667,1.01333 1.013333,1.01333 h 20.053323 c 0.58666,0 1.01333,-0.48 1.01333,-1.01333 v -5.81333 c 0,-0.53333 -0.42667,-1.01333 -1.01333,-1.01333 H 106.13315 V 391.68 c 0,-0.53334 -0.48,-1.01334 -1.01333,-1.01334 h -6.346663 c -0.586666,0 -1.013333,0.48 -1.013333,1.01334 z"
         id="path869" />
      <path
         style="color:#000000;-inkscape-font-specification:'Brandon Text, Medium';-inkscape-stroke:none"
         d="m 123.89303,414.34665 c 0,8.10666 6.77333,14.18666 15.14666,14.18666 8.42666,0 15.25332,-6.08 15.25332,-14.18666 V 391.68 c 0,-0.53334 -0.48,-1.01334 -1.01333,-1.01334 h -6.56 c -0.58666,0 -1.01333,0.48 -1.01333,1.01334 v 22.23998 c 0,3.89333 -2.82667,6.08 -6.66666,6.08 -3.78667,0 -6.56,-2.18667 -6.56,-6.08 V 391.68 c 0,-0.53334 -0.42667,-1.01334 -1.01333,-1.01334 h -6.56 c -0.53333,0 -1.01333,0.48 -1.01333,1.01334 z"
         id="path871" />
      <path
         style="color:#000000;-inkscape-font-specification:'Brandon Text, Medium';-inkscape-stroke:none"
         d="m 172.95961,428.53331 c 7.83999,0 12.58666,-5.54667 12.58666,-11.04 0,-7.25333 -6.08,-9.86666 -10.77333,-12.15999 -3.73333,-1.81333 -5.81333,-3.2 -5.81333,-4.96 0,-1.54666 1.01333,-2.93333 3.25333,-2.93333 2.82667,0 5.97333,2.02667 7.2,2.88 1.06666,0.64 1.97333,0.21333 2.34666,-0.37333 l 2.72,-4.10667 c 0.21333,-0.37333 0.32,-1.33333 -0.32,-1.70666 -1.6,-1.17334 -5.86666,-4 -11.41333,-4 -8.21332,0 -12.31999,5.33333 -12.31999,10.61333 0,6.39999 5.17333,9.27999 10.34666,11.78666 3.52,1.70666 5.49333,3.14666 5.49333,5.38666 0,1.86667 -1.54666,3.2 -3.68,3.2 -3.35999,0 -6.07999,-1.92 -7.57332,-2.93333 -0.53334,-0.37334 -1.38667,-0.37334 -1.81334,0.32 l -2.45333,4.31999 c -0.37333,0.69334 -0.21333,1.17334 0.21333,1.6 1.22667,1.22667 5.06667,4.10667 12,4.10667 z"
         id="path873" />
      <path
         style="color:#000000;-inkscape-font-specification:'Brandon Text, Medium';-inkscape-stroke:none"
         d="m 191.83957,426.98664 c 0,0.53333 0.48,1.01333 1.01333,1.01333 h 6.4 c 0.53333,0 1.01333,-0.48 1.01333,-1.01333 V 391.68 c 0,-0.53334 -0.48,-1.01334 -1.01333,-1.01334 h -6.4 c -0.53333,0 -1.01333,0.48 -1.01333,1.01334 z"
         id="path875" />
      <path
         style="color:#000000;-inkscape-font-specification:'Brandon Text, Medium';-inkscape-stroke:none"
         d="m 222.50621,410.71998 h -0.32 l -8.8,-19.46665 c -0.10666,-0.26667 -0.48,-0.58667 -0.90666,-0.58667 h -7.09333 c -0.8,0 -1.22667,0.69334 -0.90667,1.38667 l 16.63999,35.89331 c 0.16,0.32 0.48,0.58667 0.90667,0.58667 h 0.53333 c 0.42667,0 0.74667,-0.26667 0.90667,-0.58667 l 16.74666,-35.89331 c 0.32,-0.69333 -0.10667,-1.38667 -0.90667,-1.38667 h -7.09333 c -0.42667,0 -0.8,0.32 -0.90667,0.58667 z"
         id="path877" />
      <path
         style="color:#000000;-inkscape-font-specification:'Brandon Text, Medium';-inkscape-stroke:none"
         d="m 244.3728,426.98664 c 0,0.53333 0.48,1.01333 1.01333,1.01333 h 6.4 c 0.53333,0 1.01333,-0.48 1.01333,-1.01333 V 391.68 c 0,-0.53334 -0.48,-1.01334 -1.01333,-1.01334 h -6.4 c -0.53333,0 -1.01333,0.48 -1.01333,1.01334 z"
         id="path879" />
      <path
         style="color:#000000;-inkscape-font-specification:'Brandon Text, Medium';-inkscape-stroke:none"
         d="m 267.03945,426.98664 c 0,0.53333 0.48,1.01333 1.01333,1.01333 h 6.4 c 0.53333,0 1.01333,-0.48 1.01333,-1.01333 v -28.47998 h 7.62666 c 0.58667,0 1.01333,-0.48 1.01333,-1.01333 V 391.68 c 0,-0.53334 -0.42666,-1.01334 -1.01333,-1.01334 h -23.67998 c -0.58667,0 -1.01334,0.48 -1.01334,1.01334 v 5.81333 c 0,0.53333 0.42667,1.01333 1.01334,1.01333 h 7.62666 z"
         id="path881" />
      <path
         style="color:#000000;-inkscape-font-specification:'Brandon Text, Medium';-inkscape-stroke:none"
         d="m 297.33267,426.98664 c 0,0.53333 0.42667,1.01333 1.01333,1.01333 h 6.34666 c 0.53334,0 1.01334,-0.48 1.01334,-1.01333 v -17.01332 l 11.94666,-17.75999 c 0.42666,-0.69333 0,-1.54667 -0.85334,-1.54667 h -6.93333 c -0.48,0 -0.69333,0.26667 -0.85333,0.48 l -7.41333,10.93333 -7.41333,-10.93333 c -0.16,-0.21333 -0.42666,-0.48 -0.85333,-0.48 h -6.93333 c -0.85333,0 -1.28,0.85334 -0.85333,1.54667 l 11.78666,17.81332 z"
         id="path883" />
    </g>
    <path
       style="fill:#000000;stroke-width:0.596456"
       d="m 40.321316,92.339541 c -2.155417,-0.93884 -4.890344,-4.022162 -5.412286,-6.101739 -0.2044,-0.814372 -0.230719,-2.73077 -0.0585,-4.258666 0.5583,-4.953206 4.85951,-7.09117 7.982759,-3.967919 1.316247,1.316249 1.47941,1.871701 1.151735,3.920864 -0.519796,3.250629 0.214206,2.605854 3.481062,-3.057929 2.272506,-3.939853 3.070933,-4.836411 4.672108,-5.246327 1.716655,-0.439487 2.544144,-1.548509 7.448428,-9.982576 3.034475,-5.218491 5.517227,-10.074733 5.517227,-10.791649 0,-3.205381 -7.191438,-6.835992 -9.465014,-4.778433 -1.975968,1.788225 -3.435621,1.149214 -3.086699,-1.351306 0.260498,-1.86685 -0.682847,-3.619964 -2.578222,-4.79137 -2.381509,-1.471856 -4.706341,-1.600271 -5.769941,-0.318712 -0.421527,0.507908 -1.326711,0.843415 -2.011518,0.745573 -1.043727,-0.149124 -1.245106,-0.59621 -1.245106,-2.764288 0,-1.998161 -0.320248,-2.845993 -1.408106,-3.727853 -1.683749,-1.364916 -4.420362,-1.488807 -5.451149,-0.246784 -0.971549,1.170647 -2.923153,1.146345 -3.379194,-0.04209 -0.803838,-2.094766 8.978315,-10.048779 17.136018,-13.933552 6.250184,-2.976393 10.73762,-4.175243 17.258931,-4.610842 5.783004,-0.386283 10.39751,0.324923 15.512062,2.390784 2.976516,1.202268 3.661596,1.301619 4.232446,0.613788 0.374601,-0.451363 1.205268,-0.820662 1.845927,-0.820662 0.928559,0 1.128145,0.349751 0.983968,1.724274 -0.153294,1.461423 0.298648,2.103308 2.9647,4.210704 5.89145,4.65692 10.148858,11.591576 12.777238,20.812137 1.71961,6.032545 1.86019,17.908166 0.29058,24.548178 -1.33086,5.63004 -1.83015,6.489344 -3.24987,5.593286 -0.750457,-0.473645 -1.007971,-1.263426 -0.880252,-2.699688 0.347234,-3.90492 -4.71366,-6.433182 -7.617355,-3.805371 -0.969958,0.877798 -1.355501,0.938572 -2.08953,0.329386 -0.557222,-0.46245 -0.769376,-1.267893 -0.556927,-2.114361 0.973443,-3.878517 -5.727737,-7.453449 -8.78504,-4.686625 -1.617199,1.463546 -3.083949,0.621154 -2.61736,-1.503211 0.708643,-3.226425 -4.919061,-7.767599 -8.471837,-6.836192 -0.606635,0.159042 -3.505602,4.496412 -6.793158,10.163788 -5.198532,8.96168 -5.677117,10.039512 -5.116847,11.523832 0.670494,1.776345 -0.51633,4.585883 -4.71415,11.159686 -3.114708,4.877645 -7.932271,6.690185 -12.497121,4.701855 z m 6.76933,-2.976782 c 1.627296,-0.842096 7.362339,-9.711809 7.502364,-11.603014 0.04475,-0.604347 -0.378224,-0.98379 -1.096641,-0.98379 -0.833654,0 -1.998376,1.411933 -4.05602,4.916922 -3.200639,5.451958 -4.688358,6.39251 -7.351372,4.647635 -1.241772,-0.813638 -1.508926,-1.422241 -1.403425,-3.197148 0.18889,-3.177665 0.06393,-3.683353 -0.910137,-3.683353 -2.084746,0 -2.823973,4.914715 -1.128445,7.502419 1.936434,2.955374 5.444152,3.952531 8.443676,2.400329 z M 101.81295,62.974001 c 0.76933,-8.209904 -0.5719,-16.186631 -3.937316,-23.416557 -0.977193,-2.099306 -1.88253,-3.70974 -2.011853,-3.578741 -0.129331,0.130999 0.04015,1.714412 0.376542,3.518695 0.817259,4.383089 0.19554,14.055588 -1.296332,20.168205 -1.454461,5.959286 -1.439831,5.476002 -0.166414,5.495082 0.574091,0.0086 2.117421,0.523689 3.429626,1.144634 1.312206,0.620945 2.564237,1.150716 2.782277,1.17727 0.21804,0.02653 0.58861,-2.002308 0.82347,-4.508588 z m -9.246997,-6.261988 c 1.99155,-9.651743 1.322083,-18.95775 -1.787403,-24.845847 l -1.167254,-2.210307 -0.02638,2.858315 c -0.03941,4.273507 -1.615676,11.132826 -4.263384,18.552665 -1.299751,3.642372 -2.421468,6.874277 -2.492707,7.182015 -0.07124,0.307733 0.809898,0.727748 1.958078,0.933363 2.435618,0.436169 4.255796,1.342056 5.353048,2.664164 0.429835,0.517915 0.892285,0.83089 1.027675,0.6955 0.135395,-0.135395 0.764629,-2.75883 1.398311,-5.829868 z m -10.619761,-4.68902 c 2.391026,-6.130069 4.108889,-12.900649 4.463767,-17.592946 0.329069,-4.35106 -0.123199,-8.667349 -0.904496,-8.632306 -0.231172,0.01037 -1.148103,1.218195 -2.037621,2.684056 -0.889519,1.465864 -1.904464,2.665203 -2.255433,2.665203 -1.235004,0 -1.354384,-1.921325 -0.253522,-4.080297 0.612071,-1.200374 1.209327,-2.383805 1.327235,-2.629842 0.402174,-0.839208 -1.889455,-0.449652 -4.343593,0.738375 -3.917517,1.89644 -10.075277,7.339437 -15.007675,13.265659 l -4.570009,5.490817 1.729243,0.738224 c 0.951085,0.406025 2.045641,0.750332 2.432345,0.765127 0.386707,0.01488 1.702877,0.969813 2.924825,2.122258 1.221947,1.152445 2.287634,2.024763 2.368193,1.938486 0.08055,-0.08627 1.940068,-3.243535 4.132244,-7.016126 4.401077,-7.573967 5.253564,-8.682956 6.216964,-8.087541 1.217991,0.75276 0.662316,2.264226 -3.521505,9.578685 -2.296358,4.01466 -4.175199,7.46876 -4.175199,7.675775 0,0.207015 0.681708,0.376393 1.514905,0.376393 1.969436,0 6.044776,2.090957 6.973364,3.57786 0.908622,1.454935 1.12324,1.197775 2.985968,-3.57786 z M 62.20817,34.683518 c 3.973042,-4.523752 7.676728,-7.866191 12.140755,-10.956582 l 2.385827,-1.651679 -3.03328,0.320951 c -6.887696,0.728787 -15.086566,4.910473 -21.928911,11.184447 l -4.086203,3.746777 2.493623,1.173622 c 1.371496,0.645492 3.064226,1.945399 3.761624,2.888683 l 1.268002,1.715064 1.516317,-1.952816 c 0.833977,-1.074049 3.300988,-3.984858 5.482246,-6.468467 z M 47.764376,33.226667 c 4.896434,-4.769516 9.311127,-7.952193 14.058956,-10.135505 2.296359,-1.055991 4.84621,-2.231347 5.66634,-2.611902 2.17978,-1.011459 -5.765614,-0.36844 -10.437995,0.844745 -4.444883,1.154116 -12.15981,4.905313 -16.082292,7.819628 -2.715583,2.017617 -2.865052,2.252912 -1.80847,2.846952 0.633477,0.356156 1.965585,1.485724 2.960243,2.51015 0.994659,1.024425 1.911698,1.896742 2.037866,1.938484 0.126175,0.04175 1.748577,-1.403906 3.605352,-3.212552 z"
       id="path827" />
  </g>
</svg>
