<?xml version="1.0" encoding="UTF-8" standalone="no"?>
<!-- Created with Inkscape (http://www.inkscape.org/) -->

<svg
   width="512"
   height="512"
   viewBox="0 0 135.46666 135.46667"
   version="1.1"
   id="svg5"
   inkscape:version="1.1 (c68e22c387, 2021-05-23)"
   sodipodi:docname="inclusivity.svg"
   xmlns:inkscape="http://www.inkscape.org/namespaces/inkscape"
   xmlns:sodipodi="http://sodipodi.sourceforge.net/DTD/sodipodi-0.dtd"
   xmlns="http://www.w3.org/2000/svg"
   xmlns:svg="http://www.w3.org/2000/svg">
  <sodipodi:namedview
     id="namedview7"
     pagecolor="#505050"
     bordercolor="#eeeeee"
     borderopacity="1"
     inkscape:pageshadow="0"
     inkscape:pageopacity="0"
     inkscape:pagecheckerboard="0"
     inkscape:document-units="px"
     showgrid="false"
     inkscape:zoom="0.46324355"
     inkscape:cx="93.903088"
     inkscape:cy="227.74197"
     inkscape:window-width="1366"
     inkscape:window-height="705"
     inkscape:window-x="-8"
     inkscape:window-y="-8"
     inkscape:window-maximized="1"
     inkscape:current-layer="layer1"
     units="px" />
  <defs
     id="defs2">
    <rect
       x="0"
       y="384.00006"
       width="511.99998"
       height="127.99992"
       id="rect12253" />
  </defs>
  <g
     inkscape:label="Calque 1"
     inkscape:groupmode="layer"
     id="layer1">
    <path
       style="color:#000000;fill:#000000;fill-rule:evenodd;stroke-width:8.46667;-inkscape-stroke:none"
       d="M 16.933335,0 H 118.53333 c 9.38107,0 16.93333,7.5522663 16.93333,16.933332 V 118.53333 c 0,9.38106 -7.55226,16.93333 -16.93333,16.93333 H 16.933335 C 7.552269,135.46666 2.7270507e-6,127.91439 2.7270507e-6,118.53333 V 16.933332 C 2.7270507e-6,7.5522663 7.552269,0 16.933335,0 Z"
       id="rect846" />
    <path
       style="color:#000000;fill:#ff15a8;fill-rule:evenodd;stroke-width:8.46667;-inkscape-stroke:none"
       d="M 16.933332,8.5685921 H 118.53333 c 4.69054,0 8.46667,3.7761329 8.46667,8.4666659 v 84.666662 c 0,4.69054 -3.77613,8.46667 -8.46667,8.46667 H 16.933332 c -4.690533,0 -8.4666658,-3.77613 -8.4666658,-8.46667 V 17.035258 c 0,-4.690533 3.7761328,-8.4666659 8.4666658,-8.4666659 z"
       id="rect846-1" />
    <path
       style="color:#000000;fill:#000000;fill-rule:evenodd;stroke-width:0.264583;-inkscape-stroke:none"
       d="M 8.4666689,101.60001 H 127 c 4.69053,0 8.46666,3.77614 8.46666,8.46667 v 8.46667 c 0,4.69053 -3.77613,8.46666 -8.46666,8.46666 H 8.4666689 c -4.690533,0 -8.4666661729493,-3.77613 -8.4666661729493,-8.46666 v -8.46667 c 0,-4.69053 3.7761331729493,-8.46667 8.4666661729493,-8.46667 z"
       id="rect1024" />
    <g
       aria-label="INCLUSIVITY"
       transform="matrix(0.26458333,0,0,0.26458333,25.131002,6.8438898)"
       id="text12251"
       style="font-weight:500;font-size:53.3333px;font-family:'Brandon Text';-inkscape-font-specification:'Brandon Text, Medium';white-space:pre;fill:#ffffff">
      <path
         style="color:#000000;-inkscape-font-specification:'Brandon Text, Medium';-inkscape-stroke:none"
         d="m 4.2133308,426.98664 c 0,0.53333 0.4799997,1.01333 1.0133328,1.01333 H 11.62666 c 0.533333,0 1.013332,-0.48 1.013332,-1.01333 V 391.68 c 0,-0.53334 -0.479999,-1.01334 -1.013332,-1.01334 H 5.2266636 c -0.5333331,0 -1.0133328,0.48 -1.0133328,1.01334 z"
         id="path863" />
      <path
         style="color:#000000;-inkscape-font-specification:'Brandon Text, Medium';-inkscape-stroke:none"
         d="m 21.066654,426.98664 c 0,0.53333 0.48,1.01333 1.013333,1.01333 h 6.346662 c 0.586667,0 1.013333,-0.48 1.013333,-1.01333 v -19.89332 c 0,0 0.05333,0 0.05333,0 l 20.746655,20.85332 c 0.426666,0.42667 0.799999,0.58667 1.333332,0.58667 h 0.533333 c 0.533333,0 1.013333,-0.32 1.013333,-0.96 V 391.68 c 0,-0.53334 -0.48,-1.01334 -1.013333,-1.01334 h -6.399996 c -0.586666,0 -1.013333,0.48 -1.013333,1.01334 v 18.93332 c 0,0 -0.05333,0 -0.05333,0 L 24.159985,390.93333 c -0.426666,-0.42667 -0.799999,-0.8 -1.333332,-0.8 h -0.8 c -0.533333,0 -1.013332,0.42667 -1.013332,0.96 z"
         id="path865" />
      <path
         style="color:#000000;-inkscape-font-specification:'Brandon Text, Medium';-inkscape-stroke:none"
         d="m 59.413235,409.38665 c 0,10.66666 8.586662,19.14666 19.253322,19.14666 4.746664,0 9.333328,-1.65334 12.959993,-5.17333 0.373333,-0.37334 0.426666,-1.06667 0.05333,-1.44 l -4.159998,-4.42667 c -0.319999,-0.37333 -1.013332,-0.37333 -1.386665,-0.0533 -1.919999,1.65333 -4.213331,2.56 -7.146663,2.56 -6.026663,0 -10.50666,-4.90667 -10.50666,-10.82666 0,-5.97333 4.426664,-10.98666 10.453327,-10.98666 2.613332,0 5.01333,0.8 7.199996,2.72 0.373333,0.37333 0.959999,0.37333 1.333332,0 l 4.159998,-4.32 c 0.426666,-0.42667 0.426666,-1.06667 -0.05333,-1.49333 -3.626664,-3.30667 -7.573329,-4.96 -12.906659,-4.96 -10.66666,0 -19.253322,8.58666 -19.253322,19.25332 z"
         id="path867" />
      <path
         style="color:#000000;-inkscape-font-specification:'Brandon Text, Medium';-inkscape-stroke:none"
         d="m 97.759824,426.98664 c 0,0.53333 0.426667,1.01333 1.013333,1.01333 h 20.053323 c 0.58666,0 1.01333,-0.48 1.01333,-1.01333 v -5.81333 c 0,-0.53333 -0.42667,-1.01333 -1.01333,-1.01333 H 106.13315 V 391.68 c 0,-0.53334 -0.48,-1.01334 -1.01333,-1.01334 h -6.346663 c -0.586666,0 -1.013333,0.48 -1.013333,1.01334 z"
         id="path869" />
      <path
         style="color:#000000;-inkscape-font-specification:'Brandon Text, Medium';-inkscape-stroke:none"
         d="m 123.89303,414.34665 c 0,8.10666 6.77333,14.18666 15.14666,14.18666 8.42666,0 15.25332,-6.08 15.25332,-14.18666 V 391.68 c 0,-0.53334 -0.48,-1.01334 -1.01333,-1.01334 h -6.56 c -0.58666,0 -1.01333,0.48 -1.01333,1.01334 v 22.23998 c 0,3.89333 -2.82667,6.08 -6.66666,6.08 -3.78667,0 -6.56,-2.18667 -6.56,-6.08 V 391.68 c 0,-0.53334 -0.42667,-1.01334 -1.01333,-1.01334 h -6.56 c -0.53333,0 -1.01333,0.48 -1.01333,1.01334 z"
         id="path871" />
      <path
         style="color:#000000;-inkscape-font-specification:'Brandon Text, Medium';-inkscape-stroke:none"
         d="m 172.95961,428.53331 c 7.83999,0 12.58666,-5.54667 12.58666,-11.04 0,-7.25333 -6.08,-9.86666 -10.77333,-12.15999 -3.73333,-1.81333 -5.81333,-3.2 -5.81333,-4.96 0,-1.54666 1.01333,-2.93333 3.25333,-2.93333 2.82667,0 5.97333,2.02667 7.2,2.88 1.06666,0.64 1.97333,0.21333 2.34666,-0.37333 l 2.72,-4.10667 c 0.21333,-0.37333 0.32,-1.33333 -0.32,-1.70666 -1.6,-1.17334 -5.86666,-4 -11.41333,-4 -8.21332,0 -12.31999,5.33333 -12.31999,10.61333 0,6.39999 5.17333,9.27999 10.34666,11.78666 3.52,1.70666 5.49333,3.14666 5.49333,5.38666 0,1.86667 -1.54666,3.2 -3.68,3.2 -3.35999,0 -6.07999,-1.92 -7.57332,-2.93333 -0.53334,-0.37334 -1.38667,-0.37334 -1.81334,0.32 l -2.45333,4.31999 c -0.37333,0.69334 -0.21333,1.17334 0.21333,1.6 1.22667,1.22667 5.06667,4.10667 12,4.10667 z"
         id="path873" />
      <path
         style="color:#000000;-inkscape-font-specification:'Brandon Text, Medium';-inkscape-stroke:none"
         d="m 191.83957,426.98664 c 0,0.53333 0.48,1.01333 1.01333,1.01333 h 6.4 c 0.53333,0 1.01333,-0.48 1.01333,-1.01333 V 391.68 c 0,-0.53334 -0.48,-1.01334 -1.01333,-1.01334 h -6.4 c -0.53333,0 -1.01333,0.48 -1.01333,1.01334 z"
         id="path875" />
      <path
         style="color:#000000;-inkscape-font-specification:'Brandon Text, Medium';-inkscape-stroke:none"
         d="m 222.50621,410.71998 h -0.32 l -8.8,-19.46665 c -0.10666,-0.26667 -0.48,-0.58667 -0.90666,-0.58667 h -7.09333 c -0.8,0 -1.22667,0.69334 -0.90667,1.38667 l 16.63999,35.89331 c 0.16,0.32 0.48,0.58667 0.90667,0.58667 h 0.53333 c 0.42667,0 0.74667,-0.26667 0.90667,-0.58667 l 16.74666,-35.89331 c 0.32,-0.69333 -0.10667,-1.38667 -0.90667,-1.38667 h -7.09333 c -0.42667,0 -0.8,0.32 -0.90667,0.58667 z"
         id="path877" />
      <path
         style="color:#000000;-inkscape-font-specification:'Brandon Text, Medium';-inkscape-stroke:none"
         d="m 244.3728,426.98664 c 0,0.53333 0.48,1.01333 1.01333,1.01333 h 6.4 c 0.53333,0 1.01333,-0.48 1.01333,-1.01333 V 391.68 c 0,-0.53334 -0.48,-1.01334 -1.01333,-1.01334 h -6.4 c -0.53333,0 -1.01333,0.48 -1.01333,1.01334 z"
         id="path879" />
      <path
         style="color:#000000;-inkscape-font-specification:'Brandon Text, Medium';-inkscape-stroke:none"
         d="m 267.03945,426.98664 c 0,0.53333 0.48,1.01333 1.01333,1.01333 h 6.4 c 0.53333,0 1.01333,-0.48 1.01333,-1.01333 v -28.47998 h 7.62666 c 0.58667,0 1.01333,-0.48 1.01333,-1.01333 V 391.68 c 0,-0.53334 -0.42666,-1.01334 -1.01333,-1.01334 h -23.67998 c -0.58667,0 -1.01334,0.48 -1.01334,1.01334 v 5.81333 c 0,0.53333 0.42667,1.01333 1.01334,1.01333 h 7.62666 z"
         id="path881" />
      <path
         style="color:#000000;-inkscape-font-specification:'Brandon Text, Medium';-inkscape-stroke:none"
         d="m 297.33267,426.98664 c 0,0.53333 0.42667,1.01333 1.01333,1.01333 h 6.34666 c 0.53334,0 1.01334,-0.48 1.01334,-1.01333 v -17.01332 l 11.94666,-17.75999 c 0.42666,-0.69333 0,-1.54667 -0.85334,-1.54667 h -6.93333 c -0.48,0 -0.69333,0.26667 -0.85333,0.48 l -7.41333,10.93333 -7.41333,-10.93333 c -0.16,-0.21333 -0.42666,-0.48 -0.85333,-0.48 h -6.93333 c -0.85333,0 -1.28,0.85334 -0.85333,1.54667 l 11.78666,17.81332 z"
         id="path883" />
    </g>
    <path
       d="m 58.865339,18.044319 c -8.910143,2.065263 -17.525247,6.608842 -24.075076,12.804631 -3.009386,2.773353 -4.071529,4.130525 -3.776486,4.838614 0.472076,1.239159 2.360299,1.298166 3.363441,0.118024 1.003132,-1.239159 3.540433,-1.062136 5.310674,0.295037 1.180144,0.885111 1.475188,1.65221 1.475188,3.658465 0,2.124271 0.177012,2.537322 1.239156,2.714346 0.649086,0.118023 1.593198,-0.23603 2.006264,-0.767097 2.124275,-2.537324 8.32005,0.767097 8.202038,4.425562 -0.11808,2.537322 0.05908,2.950376 0.944121,2.950376 0.531067,0 1.5932,-0.413054 2.3603,-0.944121 1.003142,-0.649081 2.006266,-0.826105 3.245419,-0.531068 2.419311,0.531068 6.451682,3.858719 6.451682,5.510928 L 54.103727,73.296141 c -1.884868,-0.786023 -4.331362,1.654648 -6.57363,5.549145 -3.186418,5.605713 -3.888697,5.995535 -3.357631,2.750122 0.03582,-1.520144 -0.304434,-3.4581 -1.185963,-4.354005 -3.142261,-3.193516 -7.488151,-0.484611 -7.901197,5.357133 -0.177022,2.773353 0.32408,3.523032 1.212555,5.369683 3.127388,4.602587 7.579572,6.030381 12.241158,3.61107 2.183276,-1.121142 3.186409,-2.430919 5.841751,-6.797475 3.009388,-4.956631 4.421259,-8.662127 2.237407,-10.092722 L 68.295869,54.525945 c 3.127396,-1.180149 10.159984,3.820504 9.451894,6.947902 -0.413052,2.006254 1.121143,2.891368 2.655339,1.475187 2.832362,-2.59633 9.382202,0.708091 8.67411,4.366557 -0.531068,2.59633 0.826106,3.422435 3.009385,1.829232 3.068394,-2.242284 7.611978,0.413054 7.080906,4.130525 -0.354045,2.183278 0.826105,3.481444 2.124277,2.419309 1.23917,-1.062135 2.77335,-8.320059 3.1274,-15.105923 0.76709,-13.571726 -4.01252,-26.140327 -12.981665,-34.224355 -1.947249,-1.770225 -3.717476,-3.245413 -3.953507,-3.245413 -0.23603,0 -0.295037,-0.826106 -0.118005,-1.770225 0.177021,-1.416181 0.05901,-1.770226 -0.885114,-1.770226 -0.590076,0 -1.416182,0.295038 -1.71122,0.590075 C 84.2976,20.64065 82.704397,20.345614 79.458982,19.224471 73.73525,17.277222 64.412047,16.746155 58.865339,18.044319 Z m 8.556098,2.832362 c -0.826107,0.354044 -3.068384,1.357172 -4.956628,2.183277 -4.189533,1.770227 -9.972292,5.959759 -14.633868,10.44433 L 44.4085,36.867716 43.169344,35.274513 c -0.649087,-0.826106 -2.006264,-1.947247 -2.950386,-2.478314 -0.94413,-0.472062 -1.593198,-1.180152 -1.357176,-1.47519 0.767099,-1.298164 9.08716,-6.313802 13.040678,-7.907005 4.602579,-1.829233 10.444327,-3.127398 14.338836,-3.127398 2.419295,-0.05901 2.537318,0 1.180141,0.590075 z m 6.077781,3.717473 c -4.30756,2.891369 -9.264189,7.670977 -14.043801,13.453711 l -4.130516,5.015638 -1.475208,-1.711217 c -0.826099,-0.944121 -2.4783,-2.183278 -3.717475,-2.773353 l -2.242267,-1.062135 3.717465,-3.481442 C 58.983361,27.190485 67.8345,22.76492 74.502347,22.587898 l 2.065264,-0.05901 z m 8.556096,0.118023 c -0.118022,0.295036 -0.708091,1.41618 -1.298166,2.655338 -1.121143,2.12427 -1.003129,4.012509 0.23603,4.012509 0.354045,0 1.357175,-1.180149 2.242286,-2.655338 0.885113,-1.416179 1.770229,-2.655338 1.947251,-2.655338 1.652211,-0.05901 1.416181,9.323185 -0.354047,16.109051 -2.006256,7.78899 -5.605717,16.817139 -5.605717,14.102794 0,-1.121143 -5.310679,-4.24854 -7.198919,-4.24854 -0.885118,0 -1.652215,-0.177024 -1.652215,-0.354046 0,-0.23603 1.888243,-3.658465 4.13053,-7.611968 4.13053,-7.257925 4.661597,-8.733111 3.481446,-9.50021 -0.94412,-0.590075 -1.770227,0.53107 -6.136795,8.025021 -2.183265,3.717473 -4.012498,6.844871 -4.071509,6.962886 -0.118089,0.05901 -1.121148,-0.767097 -2.242296,-1.829232 -1.121146,-1.062135 -3.186406,-2.301292 -4.543581,-2.655336 -2.950381,-0.944122 -2.950381,-0.944122 2.832373,-7.611968 4.602578,-5.310676 10.208301,-10.149293 13.925778,-11.978525 2.360302,-1.180152 4.720604,-1.593203 4.307551,-0.767098 z m 9.61823,10.208298 c 1.180152,3.245412 1.416182,4.95663 1.416182,11.211426 0,5.074647 -0.354046,8.792121 -1.062136,11.978526 l -1.062135,4.602584 -1.829235,-1.534193 c -1.593203,-1.357173 -2.41931,-1.711217 -5.487701,-2.242285 -1.416182,-0.236031 -1.475191,0.295036 1.41618,-7.847999 2.65534,-7.375939 4.189537,-14.161802 4.189537,-18.351337 0,-3.422435 0.590075,-2.891367 2.419308,2.183278 z m 5.841749,4.838617 c 3.304437,7.080899 4.602597,15.046913 3.835497,23.130943 -0.35404,3.953503 -0.53106,4.48457 -1.357182,4.130524 -0.590074,-0.236029 -2.183278,-0.826104 -3.658466,-1.298164 -1.475189,-0.47206 -2.714347,-0.94412 -2.832363,-1.003128 -0.05901,-0.05901 0.472061,-2.478316 1.180151,-5.369683 1.298166,-5.428691 1.829233,-17.230194 0.944122,-21.360718 -0.649083,-2.891367 0,-2.301293 1.888241,1.770226 z m -42.9043,37.797212 c -0.177022,1.829232 -5.776931,10.588944 -7.370139,11.415049 -2.950377,1.534195 -6.431828,0.531067 -8.379072,-2.3603 -1.829222,-2.83236 -0.805318,-8.726373 1.49598,-7.84126 0.7671,0.295037 1.041341,1.468449 0.746308,3.592719 -0.354035,2.3603 0.198457,2.670143 1.431308,3.761492 3.114849,0.990153 3.879376,0.664071 6.652739,-4.174543 1.357166,-2.301294 2.714343,-4.602587 3.068376,-5.015639 0.826111,-1.003129 2.413511,-0.557669 2.3545,0.622482 z"
       id="path2"
       sodipodi:nodetypes="cccccscccsccccccsccccccccccccccscssccccccccccccccccccccccccscccsssccccscccccscccccsccccscccccccsccccc"
       style="fill:#000000;stroke:#000000;stroke-width:0.785505;stroke-miterlimit:4;stroke-dasharray:none;stroke-opacity:1" />
  </g>
</svg>
