<svg xmlns="http://www.w3.org/2000/svg" width="512" height="512" viewBox="0 0 135.46666 135.46667">
  <path fill-rule="evenodd" d="M16.933335 0H118.53333c9.38107 0 16.93333 7.5522663 16.93333 16.933332V118.53333c0 9.38106-7.55226 16.93333-16.93333 16.93333H16.933335c-9.381066 0-16.93333227-7.55227-16.93333227-16.93333V16.933332C.00000273 7.5522663 7.552269 0 16.933335 0Z" color="#000" style="-inkscape-stroke:none"/>
  <path fill="#ff15a8" fill-rule="evenodd" d="M16.933332 8.5685921H118.53333c4.69054 0 8.46667 3.7761329 8.46667 8.4666659v84.666662c0 4.69054-3.77613 8.46667-8.46667 8.46667H16.933332c-4.690533 0-8.4666658-3.77613-8.4666658-8.46667V17.035258c0-4.690533 3.7761328-8.4666659 8.4666658-8.4666659z" color="#000" style="-inkscape-stroke:none"/>
  <path fill-rule="evenodd" d="M8.4666689 101.60001H127c4.69053 0 8.46666 3.77614 8.46666 8.46667v8.46667c0 4.69053-3.77613 8.46666-8.46666 8.46666H8.4666689c-4.690533 0-8.46666617-3.77613-8.46666617-8.46666v-8.46667c0-4.69053 3.77613317-8.46667 8.46666617-8.46667z" color="#000" style="-inkscape-stroke:none"/>
  <g style="-inkscape-font-specification:'Brandon Text, Medium';white-space:pre">
    <path fill="#fff" d="M4.2133308 426.98664c0 .53333.4799997 1.01333 1.0133328 1.01333H11.62666c.533333 0 1.013332-.48 1.013332-1.01333V391.68c0-.53334-.479999-1.01334-1.013332-1.01334H5.2266636c-.5333331 0-1.0133328.48-1.0133328 1.01334zm16.8533232 0c0 .53333.48 1.01333 1.013333 1.01333h6.346662c.586667 0 1.013333-.48 1.013333-1.01333v-19.89332h.05333l20.746655 20.85332c.426666.42667.799999.58667 1.333332.58667h.533333c.533333 0 1.013333-.32 1.013333-.96V391.68c0-.53334-.48-1.01334-1.013333-1.01334h-6.399996c-.586666 0-1.013333.48-1.013333 1.01334v18.93332h-.05333l-20.479988-19.67999c-.426666-.42667-.799999-.8-1.333332-.8h-.8c-.533333 0-1.013332.42667-1.013332.96zm38.346581-17.59999c0 10.66666 8.586662 19.14666 19.253322 19.14666 4.746664 0 9.333328-1.65334 12.959993-5.17333.373333-.37334.426666-1.06667.05333-1.44l-4.159998-4.42667c-.319999-.37333-1.013332-.37333-1.386665-.0533-1.919999 1.65333-4.213331 2.56-7.146663 2.56-6.026663 0-10.50666-4.90667-10.50666-10.82666 0-5.97333 4.426664-10.98666 10.453327-10.98666 2.613332 0 5.01333.8 7.199996 2.72.373333.37333.959999.37333 1.333332 0l4.159998-4.32c.426666-.42667.426666-1.06667-.05333-1.49333-3.626664-3.30667-7.573329-4.96-12.906659-4.96-10.66666 0-19.253322 8.58666-19.253322 19.25332zm38.346589 17.59999c0 .53333.426667 1.01333 1.013333 1.01333h20.053323c.58666 0 1.01333-.48 1.01333-1.01333v-5.81333c0-.53333-.42667-1.01333-1.01333-1.01333h-12.69333V391.68c0-.53334-.48-1.01334-1.01333-1.01334h-6.346663c-.586666 0-1.013333.48-1.013333 1.01334zm26.133206-12.63999c0 8.10666 6.77333 14.18666 15.14666 14.18666 8.42666 0 15.25332-6.08 15.25332-14.18666V391.68c0-.53334-.48-1.01334-1.01333-1.01334h-6.56c-.58666 0-1.01333.48-1.01333 1.01334v22.23998c0 3.89333-2.82667 6.08-6.66666 6.08-3.78667 0-6.56-2.18667-6.56-6.08V391.68c0-.53334-.42667-1.01334-1.01333-1.01334h-6.56c-.53333 0-1.01333.48-1.01333 1.01334zm49.06658 14.18666c7.83999 0 12.58666-5.54667 12.58666-11.04 0-7.25333-6.08-9.86666-10.77333-12.15999-3.73333-1.81333-5.81333-3.2-5.81333-4.96 0-1.54666 1.01333-2.93333 3.25333-2.93333 2.82667 0 5.97333 2.02667 7.2 2.88 1.06666.64 1.97333.21333 2.34666-.37333l2.72-4.10667c.21333-.37333.32-1.33333-.32-1.70666-1.6-1.17334-5.86666-4-11.41333-4-8.21332 0-12.31999 5.33333-12.31999 10.61333 0 6.39999 5.17333 9.27999 10.34666 11.78666 3.52 1.70666 5.49333 3.14666 5.49333 5.38666 0 1.86667-1.54666 3.2-3.68 3.2-3.35999 0-6.07999-1.92-7.57332-2.93333-.53334-.37334-1.38667-.37334-1.81334.32l-2.45333 4.31999c-.37333.69334-.21333 1.17334.21333 1.6 1.22667 1.22667 5.06667 4.10667 12 4.10667zm18.87996-1.54667c0 .53333.48 1.01333 1.01333 1.01333h6.4c.53333 0 1.01333-.48 1.01333-1.01333V391.68c0-.53334-.48-1.01334-1.01333-1.01334h-6.4c-.53333 0-1.01333.48-1.01333 1.01334zm30.66664-16.26666h-.32l-8.8-19.46665c-.10666-.26667-.48-.58667-.90666-.58667h-7.09333c-.8 0-1.22667.69334-.90667 1.38667l16.63999 35.89331c.16.32.48.58667.90667.58667h.53333c.42667 0 .74667-.26667.90667-.58667l16.74666-35.89331c.32-.69333-.10667-1.38667-.90667-1.38667h-7.09333c-.42667 0-.8.32-.90667.58667zm21.86659 16.26666c0 .53333.48 1.01333 1.01333 1.01333h6.4c.53333 0 1.01333-.48 1.01333-1.01333V391.68c0-.53334-.48-1.01334-1.01333-1.01334h-6.4c-.53333 0-1.01333.48-1.01333 1.01334zm22.66665 0c0 .53333.48 1.01333 1.01333 1.01333h6.4c.53333 0 1.01333-.48 1.01333-1.01333v-28.47998h7.62666c.58667 0 1.01333-.48 1.01333-1.01333V391.68c0-.53334-.42666-1.01334-1.01333-1.01334h-23.67998c-.58667 0-1.01334.48-1.01334 1.01334v5.81333c0 .53333.42667 1.01333 1.01334 1.01333h7.62666zm30.29322 0c0 .53333.42667 1.01333 1.01333 1.01333h6.34666c.53334 0 1.01334-.48 1.01334-1.01333v-17.01332l11.94666-17.75999c.42666-.69333 0-1.54667-.85334-1.54667h-6.93333c-.48 0-.69333.26667-.85333.48l-7.41333 10.93333-7.41333-10.93333c-.16-.21333-.42666-.48-.85333-.48h-6.93333c-.85333 0-1.28.85334-.85333 1.54667l11.78666 17.81332z" aria-label="INCLUSIVITY" color="#000" font-family="Brandon Text" font-size="53.3333px" font-weight="500" style="-inkscape-font-specification:'Brandon Text, Medium';-inkscape-stroke:none" transform="translate(25.131002 6.8438898) scale(.26458)"/>
  </g>
  <path d="M40.321316 92.339541c-2.155417-.93884-4.890344-4.022162-5.412286-6.101739-.2044-.814372-.230719-2.73077-.0585-4.258666.5583-4.953206 4.85951-7.09117 7.982759-3.967919 1.316247 1.316249 1.47941 1.871701 1.151735 3.920864-.519796 3.250629.214206 2.605854 3.481062-3.057929 2.272506-3.939853 3.070933-4.836411 4.672108-5.246327 1.716655-.439487 2.544144-1.548509 7.448428-9.982576 3.034475-5.218491 5.517227-10.074733 5.517227-10.791649 0-3.205381-7.191438-6.835992-9.465014-4.778433-1.975968 1.788225-3.435621 1.149214-3.086699-1.351306.260498-1.86685-.682847-3.619964-2.578222-4.79137-2.381509-1.471856-4.706341-1.600271-5.769941-.318712-.421527.507908-1.326711.843415-2.011518.745573-1.043727-.149124-1.245106-.59621-1.245106-2.764288 0-1.998161-.320248-2.845993-1.408106-3.727853-1.683749-1.364916-4.420362-1.488807-5.451149-.246784-.971549 1.170647-2.923153 1.146345-3.379194-.04209-.803838-2.094766 8.978315-10.048779 17.136018-13.933552 6.250184-2.976393 10.73762-4.175243 17.258931-4.610842 5.783004-.386283 10.39751.324923 15.512062 2.390784 2.976516 1.202268 3.661596 1.301619 4.232446.613788.374601-.451363 1.205268-.820662 1.845927-.820662.928559 0 1.128145.349751.983968 1.724274-.153294 1.461423.298648 2.103308 2.9647 4.210704 5.89145 4.65692 10.148858 11.591576 12.777238 20.812137 1.71961 6.032545 1.86019 17.908166.29058 24.548178-1.33086 5.63004-1.83015 6.489344-3.24987 5.593286-.750457-.473645-1.007971-1.263426-.880252-2.699688.347234-3.90492-4.71366-6.433182-7.617355-3.805371-.969958.877798-1.355501.938572-2.08953.329386-.557222-.46245-.769376-1.267893-.556927-2.114361.973443-3.878517-5.727737-7.453449-8.78504-4.686625-1.617199 1.463546-3.083949.621154-2.61736-1.503211.708643-3.226425-4.919061-7.767599-8.471837-6.836192-.606635.159042-3.505602 4.496412-6.793158 10.163788-5.198532 8.96168-5.677117 10.039512-5.116847 11.523832.670494 1.776345-.51633 4.585883-4.71415 11.159686-3.114708 4.877645-7.932271 6.690185-12.497121 4.701855zm6.76933-2.976782c1.627296-.842096 7.362339-9.711809 7.502364-11.603014.04475-.604347-.378224-.98379-1.096641-.98379-.833654 0-1.998376 1.411933-4.05602 4.916922-3.200639 5.451958-4.688358 6.39251-7.351372 4.647635-1.241772-.813638-1.508926-1.422241-1.403425-3.197148.18889-3.177665.06393-3.683353-.910137-3.683353-2.084746 0-2.823973 4.914715-1.128445 7.502419 1.936434 2.955374 5.444152 3.952531 8.443676 2.400329zm54.722304-26.388758c.76933-8.209904-.5719-16.186631-3.937316-23.416557-.977193-2.099306-1.88253-3.70974-2.011853-3.578741-.129331.130999.04015 1.714412.376542 3.518695.817259 4.383089.19554 14.055588-1.296332 20.168205-1.454461 5.959286-1.439831 5.476002-.166414 5.495082.574091.0086 2.117421.523689 3.429626 1.144634 1.312206.620945 2.564237 1.150716 2.782277 1.17727.21804.02653.58861-2.002308.82347-4.508588zm-9.246997-6.261988c1.99155-9.651743 1.322083-18.95775-1.787403-24.845847l-1.167254-2.210307-.02638 2.858315c-.03941 4.273507-1.615676 11.132826-4.263384 18.552665-1.299751 3.642372-2.421468 6.874277-2.492707 7.182015-.07124.307733.809898.727748 1.958078.933363 2.435618.436169 4.255796 1.342056 5.353048 2.664164.429835.517915.892285.83089 1.027675.6955.135395-.135395.764629-2.75883 1.398311-5.829868zm-10.619761-4.68902c2.391026-6.130069 4.108889-12.900649 4.463767-17.592946.329069-4.35106-.123199-8.667349-.904496-8.632306-.231172.01037-1.148103 1.218195-2.037621 2.684056-.889519 1.465864-1.904464 2.665203-2.255433 2.665203-1.235004 0-1.354384-1.921325-.253522-4.080297.612071-1.200374 1.209327-2.383805 1.327235-2.629842.402174-.839208-1.889455-.449652-4.343593.738375-3.917517 1.89644-10.075277 7.339437-15.007675 13.265659l-4.570009 5.490817 1.729243.738224c.951085.406025 2.045641.750332 2.432345.765127.386707.01488 1.702877.969813 2.924825 2.122258 1.221947 1.152445 2.287634 2.024763 2.368193 1.938486.08055-.08627 1.940068-3.243535 4.132244-7.016126 4.401077-7.573967 5.253564-8.682956 6.216964-8.087541 1.217991.75276.662316 2.264226-3.521505 9.578685-2.296358 4.01466-4.175199 7.46876-4.175199 7.675775 0 .207015.681708.376393 1.514905.376393 1.969436 0 6.044776 2.090957 6.973364 3.57786.908622 1.454935 1.12324 1.197775 2.985968-3.57786zM62.20817 34.683518c3.973042-4.523752 7.676728-7.866191 12.140755-10.956582l2.385827-1.651679-3.03328.320951c-6.887696.728787-15.086566 4.910473-21.928911 11.184447l-4.086203 3.746777 2.493623 1.173622c1.371496.645492 3.064226 1.945399 3.761624 2.888683l1.268002 1.715064 1.516317-1.952816c.833977-1.074049 3.300988-3.984858 5.482246-6.468467zm-14.443794-1.456851c4.896434-4.769516 9.311127-7.952193 14.058956-10.135505 2.296359-1.055991 4.84621-2.231347 5.66634-2.611902 2.17978-1.011459-5.765614-.36844-10.437995.844745-4.444883 1.154116-12.15981 4.905313-16.082292 7.819628-2.715583 2.017617-2.865052 2.252912-1.80847 2.846952.633477.356156 1.965585 1.485724 2.960243 2.51015.994659 1.024425 1.911698 1.896742 2.037866 1.938484.126175.04175 1.748577-1.403906 3.605352-3.212552z"/>
</svg>
