<?xml version="1.0" encoding="UTF-8" standalone="no"?>
<!-- Created with Inkscape (http://www.inkscape.org/) -->

<svg
   width="512"
   height="512"
   viewBox="0 0 135.46666 135.46667"
   version="1.1"
   id="svg5"
   inkscape:version="1.1 (c68e22c387, 2021-05-23)"
   sodipodi:docname="novelty.svg"
   xmlns:inkscape="http://www.inkscape.org/namespaces/inkscape"
   xmlns:sodipodi="http://sodipodi.sourceforge.net/DTD/sodipodi-0.dtd"
   xmlns="http://www.w3.org/2000/svg"
   xmlns:svg="http://www.w3.org/2000/svg">
  <sodipodi:namedview
     id="namedview7"
     pagecolor="#505050"
     bordercolor="#eeeeee"
     borderopacity="1"
     inkscape:pageshadow="0"
     inkscape:pageopacity="0"
     inkscape:pagecheckerboard="0"
     inkscape:document-units="px"
     showgrid="false"
     inkscape:zoom="0.46324355"
     inkscape:cx="93.903088"
     inkscape:cy="227.74197"
     inkscape:window-width="1366"
     inkscape:window-height="705"
     inkscape:window-x="-8"
     inkscape:window-y="-8"
     inkscape:window-maximized="1"
     inkscape:current-layer="layer1"
     units="px" />
  <defs
     id="defs2">
    <rect
       x="0"
       y="384.00006"
       width="511.99998"
       height="127.99992"
       id="rect12253" />
    <pattern
       id="EMFhbasepattern"
       patternUnits="userSpaceOnUse"
       width="6"
       height="6"
       x="0"
       y="0" />
  </defs>
  <g
     inkscape:label="Calque 1"
     inkscape:groupmode="layer"
     id="layer1">
    <path
       style="color:#000000;fill:#000000;fill-rule:evenodd;stroke-width:8.46667;-inkscape-stroke:none"
       d="M 16.933335,0 H 118.53333 c 9.38107,0 16.93333,7.5522663 16.93333,16.933332 V 118.53333 c 0,9.38106 -7.55226,16.93333 -16.93333,16.93333 H 16.933335 C 7.552269,135.46666 2.7270507e-6,127.91439 2.7270507e-6,118.53333 V 16.933332 C 2.7270507e-6,7.5522663 7.552269,0 16.933335,0 Z"
       id="rect846" />
    <path
       style="color:#000000;fill:#894efa;fill-rule:evenodd;stroke-width:8.46667;-inkscape-stroke:none"
       d="M 16.933332,8.5685921 H 118.53333 c 4.69054,0 8.46667,3.7761329 8.46667,8.4666659 v 84.666662 c 0,4.69054 -3.77613,8.46667 -8.46667,8.46667 H 16.933332 c -4.690533,0 -8.4666658,-3.77613 -8.4666658,-8.46667 V 17.035258 c 0,-4.690533 3.7761328,-8.4666659 8.4666658,-8.4666659 z"
       id="rect846-1" />
    <path
       style="color:#000000;fill:#000000;fill-rule:evenodd;stroke-width:0.264583;-inkscape-stroke:none"
       d="M 8.4666689,101.60001 H 127 c 4.69053,0 8.46666,3.77614 8.46666,8.46667 v 8.46667 c 0,4.69053 -3.77613,8.46666 -8.46666,8.46666 H 8.4666689 c -4.690533,0 -8.4666661729493,-3.77613 -8.4666661729493,-8.46666 v -8.46667 c 0,-4.69053 3.7761331729493,-8.46667 8.4666661729493,-8.46667 z"
       id="rect1024" />
    <g
       aria-label="NOVELTY"
       transform="matrix(0.26458333,0,0,0.26458333,36.187048,6.8438898)"
       id="text12251"
       style="font-weight:500;font-size:53.3333px;font-family:'Brandon Text';-inkscape-font-specification:'Brandon Text, Medium';white-space:pre;fill:#ffffff">
      <path
         style="color:#000000;-inkscape-font-specification:'Brandon Text, Medium';-inkscape-stroke:none"
         d="m 4.2133308,426.98664 c 0,0.53333 0.4799997,1.01333 1.0133328,1.01333 h 6.3466624 c 0.586667,0 1.013333,-0.48 1.013333,-1.01333 v -19.89332 c 0,0 0.05333,0 0.05333,0 l 20.746655,20.85332 c 0.426666,0.42667 0.799999,0.58667 1.333332,0.58667 h 0.533333 c 0.533333,0 1.013333,-0.32 1.013333,-0.96 V 391.68 c 0,-0.53334 -0.48,-1.01334 -1.013333,-1.01334 h -6.399996 c -0.586666,0 -1.013333,0.48 -1.013333,1.01334 v 18.93332 c 0,0 -0.05333,0 -0.05333,0 L 7.3066623,390.93333 c -0.4266664,-0.42667 -0.7999995,-0.8 -1.3333325,-0.8 H 5.1733302 c -0.533333,0 -1.0133327,0.42667 -1.0133327,0.96 z"
         id="path872" />
      <path
         style="color:#000000;-inkscape-font-specification:'Brandon Text, Medium';-inkscape-stroke:none"
         d="m 42.559914,409.38665 c 0,10.66666 8.479995,19.14666 19.146656,19.14666 10.66666,0 19.199988,-8.48 19.199988,-19.14666 0,-10.66666 -8.533328,-19.25332 -19.199988,-19.25332 -10.666661,0 -19.146656,8.58666 -19.146656,19.25332 z m 8.533329,0 c 0,-5.86666 4.799997,-10.71999 10.613327,-10.71999 5.866663,0 10.66666,4.85333 10.66666,10.71999 0,5.81333 -4.799997,10.61333 -10.66666,10.61333 -5.81333,0 -10.613327,-4.8 -10.613327,-10.61333 z"
         id="path874" />
      <path
         style="color:#000000;-inkscape-font-specification:'Brandon Text, Medium';-inkscape-stroke:none"
         d="m 99.99977,410.71998 h -0.32 l -8.799995,-19.46665 c -0.106666,-0.26667 -0.479999,-0.58667 -0.906666,-0.58667 H 82.87978 c -0.799999,0 -1.226666,0.69334 -0.906666,1.38667 l 16.63999,35.89331 c 0.16,0.32 0.48,0.58667 0.906666,0.58667 h 0.53333 c 0.42667,0 0.74667,-0.26667 0.90667,-0.58667 l 16.74666,-35.89331 c 0.32,-0.69333 -0.10667,-1.38667 -0.90667,-1.38667 h -7.09333 c -0.42667,0 -0.8,0.32 -0.90667,0.58667 z"
         id="path876" />
      <path
         style="color:#000000;-inkscape-font-specification:'Brandon Text, Medium';-inkscape-stroke:none"
         d="m 121.86636,426.98664 c 0,0.53333 0.42667,1.01333 1.01333,1.01333 h 22.07999 c 0.58667,0 1.01333,-0.48 1.01333,-1.01333 v -5.81333 c 0,-0.53333 -0.42666,-1.01333 -1.01333,-1.01333 h -14.77332 v -7.2 h 12.15999 c 0.53333,0 1.01333,-0.42666 1.01333,-1.01333 v -5.81333 c 0,-0.53333 -0.48,-1.01333 -1.01333,-1.01333 h -12.15999 v -6.61333 h 14.77332 c 0.58667,0 1.01333,-0.48 1.01333,-1.01333 V 391.68 c 0,-0.53334 -0.42666,-1.01334 -1.01333,-1.01334 h -22.07999 c -0.58666,0 -1.01333,0.48 -1.01333,1.01334 z"
         id="path878" />
      <path
         style="color:#000000;-inkscape-font-specification:'Brandon Text, Medium';-inkscape-stroke:none"
         d="m 152.69296,426.98664 c 0,0.53333 0.42667,1.01333 1.01333,1.01333 h 20.05332 c 0.58667,0 1.01334,-0.48 1.01334,-1.01333 v -5.81333 c 0,-0.53333 -0.42667,-1.01333 -1.01334,-1.01333 H 161.06629 V 391.68 c 0,-0.53334 -0.48,-1.01334 -1.01333,-1.01334 h -6.34667 c -0.58666,0 -1.01333,0.48 -1.01333,1.01334 z"
         id="path880" />
      <path
         style="color:#000000;-inkscape-font-specification:'Brandon Text, Medium';-inkscape-stroke:none"
         d="m 183.5195,426.98664 c 0,0.53333 0.48,1.01333 1.01334,1.01333 h 6.39999 c 0.53334,0 1.01334,-0.48 1.01334,-1.01333 v -28.47998 h 7.62666 c 0.58666,0 1.01333,-0.48 1.01333,-1.01333 V 391.68 c 0,-0.53334 -0.42667,-1.01334 -1.01333,-1.01334 h -23.67999 c -0.58666,0 -1.01333,0.48 -1.01333,1.01334 v 5.81333 c 0,0.53333 0.42667,1.01333 1.01333,1.01333 h 7.62666 z"
         id="path882" />
      <path
         style="color:#000000;-inkscape-font-specification:'Brandon Text, Medium';-inkscape-stroke:none"
         d="m 213.81274,426.98664 c 0,0.53333 0.42667,1.01333 1.01333,1.01333 h 6.34667 c 0.53333,0 1.01333,-0.48 1.01333,-1.01333 v -17.01332 l 11.94666,-17.75999 c 0.42667,-0.69333 0,-1.54667 -0.85333,-1.54667 h -6.93333 c -0.48,0 -0.69334,0.26667 -0.85334,0.48 l -7.41333,10.93333 -7.41332,-10.93333 c -0.16,-0.21333 -0.42667,-0.48 -0.85334,-0.48 h -6.93333 c -0.85333,0 -1.28,0.85334 -0.85333,1.54667 l 11.78666,17.81332 z"
         id="path884" />
    </g>
    <path
       style="color:#000000;fill:#000000;stroke:#000000;stroke-width:0.525511;stroke-miterlimit:4;stroke-dasharray:none;stroke-opacity:1"
       d="m 19.04222,48.39773 c 0.156022,-0.554366 0.423304,-1.277966 0.593979,-1.608003 0.501,-0.968828 2.003668,-2.451084 3.038944,-2.997655 l 0.96011,-0.506892 9.850157,-0.09564 9.85016,-0.09564 0.718937,-0.446993 c 1.893189,-1.177072 2.385545,-4.090531 0.974639,-5.767303 -0.669529,-0.795695 -1.283957,-1.074168 -2.676884,-1.213216 -4.202967,-0.419554 -6.824052,-3.732159 -6.528635,-8.251077 0.208656,-3.191694 2.609244,-5.892884 5.847786,-6.58003 0.669833,-0.14212 4.119423,-0.215052 10.171947,-0.215052 h 9.158394 l 2.164657,-0.563821 c 1.190567,-0.310099 2.937256,-0.827647 3.881526,-1.1501 4.202672,-1.435138 10.334612,-2.042852 15.428928,-1.529106 7.483169,0.754649 14.182905,3.416665 19.959665,7.930609 1.88148,1.470184 5.17996,4.853241 6.64551,6.815925 10.15404,13.598415 10.07308,32.336762 -0.19798,45.822617 C 99.192568,90.671245 82.402219,95.96193 67.251662,91.064839 61.385703,89.168792 57.124065,86.568814 52.175898,81.867286 50.429426,80.207872 49.528435,79.488383 49.020025,79.347189 48.574557,79.223465 44.752784,79.149166 38.800193,79.148501 c -9.121497,-7.23e-4 -9.550974,-0.01706 -10.558152,-0.393875 -1.465279,-0.548235 -2.830122,-1.835793 -3.5968,-3.393128 -0.594043,-1.206691 -0.627456,-1.386792 -0.627456,-3.382496 0,-1.906052 0.04973,-2.209247 0.5195,-3.165714 0.748974,-1.525021 1.672331,-2.510982 3.05218,-3.259111 l 1.209949,-0.656011 5.275175,-0.09563 5.275169,-0.09564 0.722682,-0.55159 c 1.899718,-1.449963 1.89966,-4.523854 -1.08e-4,-5.97363 L 39.349534,57.63008 31.588029,57.53444 23.826515,57.4388 22.738201,56.904358 C 21.320024,56.207931 19.870662,54.625931 19.328406,53.182509 18.794441,51.761158 18.671961,49.713355 19.04222,48.397712 Z m 3.706513,3.496031 c 0.191567,0.421685 0.666058,1.045693 1.054419,1.386675 l 0.706106,0.619974 h 7.060741 c 4.49441,0 7.429141,0.07808 8.074302,0.214829 2.173722,0.460735 3.643854,1.637511 4.690073,3.754206 0.685772,1.387448 0.722271,1.555 0.716509,3.288995 -0.0051,1.446226 -0.09733,2.056182 -0.443848,2.926205 -0.577359,1.449595 -2.044115,3.039004 -3.434655,3.721856 l -1.088316,0.534442 -5.164161,0.09564 c -4.731126,0.08761 -5.219115,0.127915 -5.819485,0.480644 -0.925945,0.544005 -1.544227,1.800674 -1.544227,3.138648 0,1.286445 0.418309,2.160061 1.424307,2.974575 l 0.714615,0.578582 10.263003,0.09563 10.263001,0.09564 0.959965,0.532331 c 0.527986,0.292786 1.862062,1.391807 2.964618,2.442271 3.865593,3.682972 5.864492,5.12635 9.655251,6.971931 9.425192,4.588771 20.052228,4.656102 29.495615,0.186868 9.725194,-4.60261 16.492484,-13.094714 18.887864,-23.701891 2.601,-11.517813 -1.1104,-23.748702 -9.70702,-31.989368 -6.008895,-5.760081 -13.631235,-8.945732 -22.409302,-9.365638 -3.836165,-0.183507 -9.358837,0.511707 -11.83186,1.489441 -0.545885,0.21582 -2.068388,0.703548 -3.383336,1.083833 l -2.390815,0.691433 -10.137059,0.104205 c -10.075636,0.103568 -10.141983,0.106828 -10.949721,0.538323 -0.446965,0.238771 -1.042801,0.781889 -1.324079,1.206928 -1.027569,1.552766 -0.72311,4.14696 0.625685,5.331217 0.365018,0.320495 0.684457,0.582709 0.709852,0.582709 0.02537,0 0.772959,0.09114 1.661243,0.202519 2.831228,0.355005 4.612702,1.636492 5.801122,4.172992 0.528218,1.127387 0.592961,1.456288 0.588204,2.988207 -0.0066,2.117483 -0.439006,3.343567 -1.756795,4.980998 -0.686704,0.85328 -1.246534,1.30764 -2.228793,1.808923 l -1.311746,0.669428 -9.487317,0.048 c -5.218023,0.02639 -9.674343,0.09093 -9.902921,0.143393 -0.659299,0.151337 -1.616055,1.063274 -1.998226,1.904619 -0.446069,0.982014 -0.447081,2.091857 -0.0029,3.0698 z m 25.397438,-0.288535 c 0.857228,-5.653202 2.184255,-9.354037 4.800814,-13.38858 10.894217,-16.798095 34.608363,-18.883685 48.255915,-4.243966 3.75312,4.025978 6.41883,9.191025 7.66978,14.860888 0.36034,1.633203 0.42276,2.508669 0.42945,6.023164 0.007,3.564822 -0.0492,4.373146 -0.42005,6.072494 -0.9079,4.15956 -2.36766,7.629228 -4.66373,11.085139 -1.79648,2.703973 -5.614433,6.560637 -8.181135,8.264097 -10.746536,7.132227 -23.791234,7.152316 -34.531447,0.05313 -2.476021,-1.636615 -6.432692,-5.553914 -8.054269,-7.974109 -3.767967,-5.623671 -5.462802,-11.14365 -5.402751,-17.596414 0.01366,-1.472742 0.05754,-2.892887 0.09742,-3.155875 z m 6.144592,1.530117 c 2.947722,0 3.305445,0.118627 3.667701,1.216267 0.26176,0.793136 0.04287,1.447759 -0.672045,2.010127 -0.469749,0.369506 -0.755725,0.407653 -3.056321,0.407653 h -2.53809 l 0.09207,0.812878 c 0.726543,6.414798 3.312026,11.82046 7.8024,16.313042 3.145883,3.147434 6.559496,5.304257 10.467089,6.613423 1.862272,0.623921 5.10902,1.316416 6.171953,1.316416 h 0.648188 l 0.06232,-2.672947 c 0.05783,-2.483374 0.09317,-2.703806 0.497935,-3.108062 0.666817,-0.665987 2.025891,-0.613736 2.641144,0.10153 0.438457,0.509741 0.461603,0.665568 0.461603,3.108063 v 2.571416 l 0.621608,-5.71e-4 c 1.182725,-0.0015 4.07229,-0.598982 6.005984,-1.242573 3.850666,-1.281652 7.143961,-3.258859 10.12122,-6.076537 2.275745,-2.153757 3.960758,-4.400891 5.411298,-7.216486 1.59716,-3.10024 2.47923,-5.94003 2.86647,-9.228556 l 0.15203,-1.291036 h -2.46175 c -2.7608,0 -3.383203,-0.185761 -3.772638,-1.125941 -0.312817,-0.755199 -0.09943,-1.644119 0.509669,-2.123237 0.434839,-0.342037 0.773729,-0.384869 3.045559,-0.384869 h 2.55628 v -0.758277 c 0,-1.105079 -0.65028,-4.28181 -1.23621,-6.039147 -2.198,-6.592282 -7.373101,-12.523812 -13.586836,-15.5728 -3.089395,-1.515928 -5.926972,-2.367032 -9.228543,-2.768022 l -1.004149,-0.121951 v 2.58565 c 0,2.550567 -0.0072,2.593638 -0.525976,3.174034 -0.840015,0.939666 -2.399076,0.764436 -2.895667,-0.325461 -0.120845,-0.26523 -0.212393,-1.536798 -0.212393,-2.95019 v -2.484033 l -1.00414,0.121222 c -11.138534,1.344666 -20.164248,8.937874 -23.184607,19.504859 -0.399137,1.396434 -0.952316,4.266787 -1.039736,5.395035 -0.01402,0.180592 0.626134,0.239081 2.616624,0.239081 z m 12.857331,12.257441 c 3.050685,-3.721047 5.546694,-6.798964 5.546694,-6.839808 0,-0.04085 -0.181005,-0.609485 -0.402231,-1.263645 -0.49821,-1.473162 -0.440682,-4.017086 0.11645,-5.149801 l 0.348687,-0.708927 -2.278816,-2.423128 c -4.539525,-4.826993 -4.669645,-4.98856 -4.669645,-5.798178 0,-1.029326 0.727881,-1.741137 1.780446,-1.741137 0.864436,0 1.09039,0.203038 5.503336,4.945185 l 2.199053,2.363115 1.303584,-0.402644 c 1.55179,-0.479292 2.329129,-0.501377 3.853009,-0.109446 2.168271,0.557669 3.879899,2.120114 4.697439,4.288026 0.325641,0.863538 0.38489,1.363817 0.318167,2.686869 -0.09466,1.877309 -0.517584,2.941927 -1.704204,4.290007 -1.692536,1.922822 -4.891762,2.741526 -7.233194,1.851024 -0.574844,-0.218624 -1.100199,-0.334207 -1.167442,-0.256837 -0.06723,0.07736 -2.456815,2.994728 -5.31015,6.483025 -2.853349,3.488297 -5.426462,6.530019 -5.718048,6.759379 -1.100438,0.865609 -2.72983,-0.02791 -2.72983,-1.496995 0,-0.648015 0.488111,-1.305913 5.546695,-7.476084 z m 8.846019,-8.812719 c 0.756643,1.111743 1.366995,1.432549 2.725526,1.432549 1.358532,0 1.968891,-0.320806 2.725529,-1.432549 0.52633,-0.773336 0.577619,-2.215869 0.113559,-3.193799 -1.042252,-2.196393 -4.594046,-2.215874 -5.670483,-0.03108 -0.468868,0.951615 -0.419581,2.452869 0.105869,3.22491 z M 20.731098,25.75436 c 0.771262,-1.829295 1.801137,-2.869002 3.705509,-3.740855 0.895968,-0.410184 1.383471,-0.505613 2.544306,-0.498051 2.761926,0.01799 4.952325,1.385301 6.163936,3.84769 0.570434,1.159311 0.626993,1.43195 0.622316,2.999962 -0.0044,1.502229 -0.07394,1.860494 -0.538352,2.776725 -1.520235,2.99926 -4.703527,4.531958 -7.777121,3.74454 -2.127399,-0.545011 -3.530287,-1.666246 -4.539777,-3.628357 -0.408174,-0.793353 -0.515219,-1.300274 -0.569797,-2.698262 -0.05769,-1.478497 -0.0029,-1.874063 0.38898,-2.803392 z m 3.56764,4.034963 c 0.804022,1.576014 3.014315,2.144619 4.479683,1.152413 2.332173,-1.57913 1.65311,-5.1042 -1.103004,-5.725808 -2.541847,-0.573283 -4.588291,2.198439 -3.376679,4.573395 z"
       id="path936" />
  </g>
</svg>
