<?xml version="1.0" encoding="UTF-8" standalone="no"?>
<!-- Created with Inkscape (http://www.inkscape.org/) -->

<svg
   width="512"
   height="512"
   viewBox="0 0 135.46666 135.46667"
   version="1.1"
   id="svg5"
   inkscape:version="1.1 (c68e22c387, 2021-05-23)"
   sodipodi:docname="property.svg"
   xmlns:inkscape="http://www.inkscape.org/namespaces/inkscape"
   xmlns:sodipodi="http://sodipodi.sourceforge.net/DTD/sodipodi-0.dtd"
   xmlns="http://www.w3.org/2000/svg"
   xmlns:svg="http://www.w3.org/2000/svg">
  <sodipodi:namedview
     id="namedview7"
     pagecolor="#505050"
     bordercolor="#eeeeee"
     borderopacity="1"
     inkscape:pageshadow="0"
     inkscape:pageopacity="0"
     inkscape:pagecheckerboard="0"
     inkscape:document-units="px"
     showgrid="false"
     inkscape:zoom="0.46324355"
     inkscape:cx="93.903088"
     inkscape:cy="227.74197"
     inkscape:window-width="1366"
     inkscape:window-height="705"
     inkscape:window-x="-8"
     inkscape:window-y="-8"
     inkscape:window-maximized="1"
     inkscape:current-layer="layer1"
     units="px" />
  <defs
     id="defs2">
    <rect
       x="0"
       y="384.00006"
       width="511.99998"
       height="127.99992"
       id="rect12253" />
  </defs>
  <g
     inkscape:label="Calque 1"
     inkscape:groupmode="layer"
     id="layer1">
    <path
       style="color:#000000;fill:#000000;fill-rule:evenodd;stroke-width:8.46667;-inkscape-stroke:none"
       d="M 16.933335,0 H 118.53333 c 9.38107,0 16.93333,7.5522663 16.93333,16.933332 V 118.53333 c 0,9.38106 -7.55226,16.93333 -16.93333,16.93333 H 16.933335 C 7.552269,135.46666 2.7270507e-6,127.91439 2.7270507e-6,118.53333 V 16.933332 C 2.7270507e-6,7.5522663 7.552269,0 16.933335,0 Z"
       id="rect846" />
    <path
       style="color:#000000;fill:#1fe545;fill-rule:evenodd;stroke-width:8.46667;-inkscape-stroke:none"
       d="M 16.933332,8.5685921 H 118.53333 c 4.69054,0 8.46667,3.7761329 8.46667,8.4666659 v 84.666662 c 0,4.69054 -3.77613,8.46667 -8.46667,8.46667 H 16.933332 c -4.690533,0 -8.4666658,-3.77613 -8.4666658,-8.46667 V 17.035258 c 0,-4.690533 3.7761328,-8.4666659 8.4666658,-8.4666659 z"
       id="rect846-1" />
    <path
       style="color:#000000;fill:#000000;fill-rule:evenodd;stroke-width:0.264583;-inkscape-stroke:none"
       d="M 8.4666689,101.60001 H 127 c 4.69053,0 8.46666,3.77614 8.46666,8.46667 v 8.46667 c 0,4.69053 -3.77613,8.46666 -8.46666,8.46666 H 8.4666689 c -4.690533,0 -8.4666661729493,-3.77613 -8.4666661729493,-8.46666 v -8.46667 c 0,-4.69053 3.7761331729493,-8.46667 8.4666661729493,-8.46667 z"
       id="rect1024" />
    <g
       aria-label="PROPERTY"
       transform="matrix(0.26458333,0,0,0.26458333,31.833766,6.8438898)"
       id="text12251"
       style="font-weight:500;font-size:53.3333px;font-family:'Brandon Text';-inkscape-font-specification:'Brandon Text, Medium';white-space:pre;fill:#ffffff">
      <path
         style="color:#000000;-inkscape-font-specification:'Brandon Text, Medium';-inkscape-stroke:none"
         d="m 4.2133308,426.98664 c 0,0.53333 0.4266664,1.01333 1.0133328,1.01333 h 6.2933294 c 0.533333,0 1.013333,-0.48 1.013333,-1.01333 v -12.53332 h 5.599997 c 6.986662,0 11.893326,-5.38667 11.893326,-12 0,-6.45333 -4.906664,-11.78666 -11.94666,-11.78666 H 5.2266636 c -0.5866664,0 -1.0133328,0.48 -1.0133328,1.01334 z m 8.3199952,-20.31999 v -8.15999 h 5.386663 c 2.293332,0 3.893331,1.70666 3.893331,3.94666 0,2.4 -1.599999,4.21333 -3.893331,4.21333 z"
         id="path828" />
      <path
         style="color:#000000;-inkscape-font-specification:'Brandon Text, Medium';-inkscape-stroke:none"
         d="m 35.413263,426.98664 c 0,0.53333 0.426666,1.01333 1.013333,1.01333 h 6.346663 c 0.533333,0 1.013332,-0.48 1.013332,-1.01333 v -13.59999 h 3.679998 l 7.093329,14.13332 c 0.106667,0.21334 0.426667,0.48 0.853333,0.48 h 7.093329 c 0.906666,0 1.279999,-0.85333 0.906666,-1.54666 l -7.306662,-13.54666 c 4.959997,-1.86667 7.893329,-5.81333 7.893329,-10.71999 0,-6.34667 -4.853331,-11.52 -11.62666,-11.52 H 36.426596 c -0.586667,0 -1.013333,0.48 -1.013333,1.01334 z m 8.373328,-20.37332 v -8.32 h 7.893329 c 2.186665,0 4.053331,1.54667 4.053331,4.05334 0,2.50666 -1.866666,4.26666 -4.053331,4.26666 z"
         id="path830" />
      <path
         style="color:#000000;-inkscape-font-specification:'Brandon Text, Medium';-inkscape-stroke:none"
         d="m 68.586514,409.38665 c 0,10.66666 8.479995,19.14666 19.146656,19.14666 10.66666,0 19.19999,-8.48 19.19999,-19.14666 0,-10.66666 -8.53333,-19.25332 -19.19999,-19.25332 -10.666661,0 -19.146656,8.58666 -19.146656,19.25332 z m 8.533329,0 c 0,-5.86666 4.799997,-10.71999 10.613327,-10.71999 5.866663,0 10.66666,4.85333 10.66666,10.71999 0,5.81333 -4.799997,10.61333 -10.66666,10.61333 -5.81333,0 -10.613327,-4.8 -10.613327,-10.61333 z"
         id="path832" />
      <path
         style="color:#000000;-inkscape-font-specification:'Brandon Text, Medium';-inkscape-stroke:none"
         d="m 113.22643,426.98664 c 0,0.53333 0.42667,1.01333 1.01333,1.01333 h 6.29333 c 0.53334,0 1.01334,-0.48 1.01334,-1.01333 v -12.53332 h 5.59999 c 6.98666,0 11.89333,-5.38667 11.89333,-12 0,-6.45333 -4.90667,-11.78666 -11.94666,-11.78666 h -12.85333 c -0.58666,0 -1.01333,0.48 -1.01333,1.01334 z m 8.32,-20.31999 v -8.15999 h 5.38666 c 2.29333,0 3.89333,1.70666 3.89333,3.94666 0,2.4 -1.6,4.21333 -3.89333,4.21333 z"
         id="path834" />
      <path
         style="color:#000000;-inkscape-font-specification:'Brandon Text, Medium';-inkscape-stroke:none"
         d="m 144.42636,426.98664 c 0,0.53333 0.42667,1.01333 1.01333,1.01333 h 22.07999 c 0.58666,0 1.01333,-0.48 1.01333,-1.01333 v -5.81333 c 0,-0.53333 -0.42667,-1.01333 -1.01333,-1.01333 h -14.77333 v -7.2 h 12.16 c 0.53333,0 1.01333,-0.42666 1.01333,-1.01333 v -5.81333 c 0,-0.53333 -0.48,-1.01333 -1.01333,-1.01333 h -12.16 v -6.61333 h 14.77333 c 0.58666,0 1.01333,-0.48 1.01333,-1.01333 V 391.68 c 0,-0.53334 -0.42667,-1.01334 -1.01333,-1.01334 h -22.07999 c -0.58666,0 -1.01333,0.48 -1.01333,1.01334 z"
         id="path836" />
      <path
         style="color:#000000;-inkscape-font-specification:'Brandon Text, Medium';-inkscape-stroke:none"
         d="m 175.25296,426.98664 c 0,0.53333 0.42666,1.01333 1.01333,1.01333 h 6.34666 c 0.53334,0 1.01334,-0.48 1.01334,-1.01333 v -13.59999 h 3.67999 l 7.09333,14.13332 c 0.10667,0.21334 0.42667,0.48 0.85334,0.48 h 7.09333 c 0.90666,0 1.27999,-0.85333 0.90666,-1.54666 l -7.30666,-13.54666 c 4.96,-1.86667 7.89333,-5.81333 7.89333,-10.71999 0,-6.34667 -4.85333,-11.52 -11.62666,-11.52 h -15.94666 c -0.58667,0 -1.01333,0.48 -1.01333,1.01334 z m 8.37333,-20.37332 v -8.32 h 7.89332 c 2.18667,0 4.05334,1.54667 4.05334,4.05334 0,2.50666 -1.86667,4.26666 -4.05334,4.26666 z"
         id="path838" />
      <path
         style="color:#000000;-inkscape-font-specification:'Brandon Text, Medium';-inkscape-stroke:none"
         d="m 216.37287,426.98664 c 0,0.53333 0.48,1.01333 1.01333,1.01333 h 6.4 c 0.53333,0 1.01333,-0.48 1.01333,-1.01333 v -28.47998 h 7.62666 c 0.58667,0 1.01333,-0.48 1.01333,-1.01333 V 391.68 c 0,-0.53334 -0.42666,-1.01334 -1.01333,-1.01334 h -23.67998 c -0.58667,0 -1.01334,0.48 -1.01334,1.01334 v 5.81333 c 0,0.53333 0.42667,1.01333 1.01334,1.01333 h 7.62666 z"
         id="path840" />
      <path
         style="color:#000000;-inkscape-font-specification:'Brandon Text, Medium';-inkscape-stroke:none"
         d="m 246.6661,426.98664 c 0,0.53333 0.42667,1.01333 1.01334,1.01333 h 6.34666 c 0.53333,0 1.01333,-0.48 1.01333,-1.01333 v -17.01332 l 11.94666,-17.75999 c 0.42667,-0.69333 0,-1.54667 -0.85333,-1.54667 h -6.93333 c -0.48,0 -0.69333,0.26667 -0.85333,0.48 l -7.41333,10.93333 -7.41333,-10.93333 c -0.16,-0.21333 -0.42667,-0.48 -0.85333,-0.48 h -6.93333 c -0.85334,0 -1.28,0.85334 -0.85334,1.54667 l 11.78666,17.81332 z"
         id="path842" />
    </g>
    <path
       style="fill:#000000;stroke-width:0.599968"
       d="M 29.729967,92.72937 C 29.509988,92.50939 29.329988,78.17547 29.329988,60.876242 V 29.423095 l 4.582138,-6.244881 c 2.713893,-3.698695 4.999774,-6.244881 5.606442,-6.244881 0.61377,0 2.865164,2.558345 5.617334,6.383186 l 4.593032,6.383189 v 5.3162 5.316202 h 3.899799 3.899799 v -5.316202 -5.3162 l 4.59303,-6.383189 c 2.719026,-3.778777 5.006515,-6.383186 5.606443,-6.383186 0.599929,0 2.887418,2.604409 5.606441,6.383186 l 4.593032,6.383189 v 5.3162 5.316202 h 3.899798 3.899799 v -5.30307 -5.303071 l 4.611477,-6.396318 c 2.70445,-3.751188 5.02744,-6.396318 5.617335,-6.396318 0.583331,0 2.932895,2.626309 5.593323,6.252142 l 4.58747,6.252144 -0.15531,31.695873 -0.15531,31.695878 -9.55435,0.16576 c -7.241709,0.12564 -9.671976,-0.0197 -10.040296,-0.59997 -0.267268,-0.42115 -0.490076,-2.58813 -0.495128,-4.81552 l -0.0093,-4.04978 h -3.899799 -3.899798 v 3.85072 c 0,6.10801 0.637366,5.74877 -10.199474,5.74877 -10.836839,0 -10.199474,0.35924 -10.199474,-5.74877 v -3.85073 h -3.899709 -3.899799 v 3.85073 c 0,6.10663 0.632694,5.74877 -10.163669,5.74877 -5.189426,0 -9.615311,-0.17998 -9.8353,-0.39998 z M 46.129119,60.264576 V 30.399643 l -3.010153,-4.183287 c -1.655584,-2.30081 -3.235613,-4.259989 -3.511175,-4.353732 -0.27556,-0.09374 -1.89084,1.734397 -3.589505,4.062533 l -3.088484,4.232978 V 60.143822 90.12951 h 6.599657 6.59966 z M 38.129532,77.13019 c -0.732579,-0.73259 -0.412433,-3.04257 0.530086,-3.824794 1.37878,-1.144284 2.959093,0.590384 2.43612,2.674074 -0.36963,1.47271 -2.008442,2.10848 -2.966206,1.15072 z m 0,-26.398624 c -0.732579,-0.732579 -0.412433,-3.04257 0.530086,-3.824791 1.37878,-1.144285 2.959093,0.590385 2.43612,2.674069 -0.36963,1.472719 -2.008442,2.108486 -2.966206,1.150722 z m 36.198132,9.515656 V 30.364937 l -3.040735,-4.315928 c -1.672404,-2.373758 -3.24025,-4.315926 -3.4841,-4.315926 -0.243849,0 -1.777869,1.815657 -3.40893,4.034792 l -2.965569,4.034791 -0.299985,6.614652 -0.299983,6.614651 -5.699707,0.299985 -5.699707,0.299983 -0.17524,4.649757 -0.175217,4.649758 h 4.48879 4.488786 l 0.186215,-2.249884 c 0.147961,-1.787833 0.432635,-2.249881 1.386148,-2.249881 1.173891,0 1.203363,0.452567 1.357705,20.848909 l 0.157756,20.848914 h 6.591887 6.591884 z M 66.161726,75.97947 c -0.263109,-1.04831 -0.07245,-1.86746 0.588539,-2.528444 0.903673,-0.903672 1.051806,-0.903672 1.955478,0 0.660979,0.660984 0.85165,1.480134 0.58854,2.528444 -0.52814,2.10427 -2.604415,2.10427 -3.132557,0 z m 0,-26.398626 c -0.263109,-1.048312 -0.07245,-1.867462 0.588539,-2.528437 0.903673,-0.903674 1.051806,-0.903674 1.955478,0 1.316514,1.316511 0.654332,4.079139 -0.977738,4.079139 -0.765459,0 -1.313179,-0.542271 -1.566279,-1.550702 z M 102.52621,60.143822 V 30.158135 l -3.073567,-4.212526 c -1.690459,-2.316889 -3.261388,-4.212526 -3.490956,-4.212526 -0.229564,0 -1.748813,1.822405 -3.376104,4.049787 L 89.626874,29.83266 89.326889,52.331482 89.026904,74.83031 87.715379,75.017 c -1.126303,0.16032 -1.338131,-0.13624 -1.499922,-2.099892 l -0.188392,-2.286582 h -4.199784 -4.199783 v 4.499764 4.49977 l 5.699706,0.29998 5.699704,0.29998 0.174265,4.94975 0.174265,4.94974 h 6.575394 6.575398 z M 94.444917,76.38787 c -0.39821,-1.25466 0.540767,-3.657455 1.429277,-3.657455 0.966005,0 1.943204,1.742095 1.748322,3.116815 -0.260699,1.83904 -2.637168,2.24337 -3.177599,0.54064 z m -0.07488,-26.768075 c -0.540103,-2.151946 1.031083,-3.870983 2.456677,-2.687845 1.40776,1.168337 0.929135,3.852774 -0.728977,4.088552 -1.011605,0.143856 -1.423947,-0.190456 -1.7277,-1.400707 z M 57.828512,75.13029 v -4.499764 h -4.199783 -4.199785 l -0.175716,4.676564 -0.175716,4.67656 4.375496,-0.17681 4.375495,-0.17678 z M 57.528528,61.930981 V 56.531264 H 53.628729 49.72893 v 5.399717 5.399716 h 3.899799 3.899799 z m 28.198543,0.599968 v -4.79975 h -3.899799 -3.899798 v 4.79975 4.799748 h 3.899798 3.899799 z m 0.473336,-13.649287 -0.173358,-5.249725 h -4.199784 -4.199783 l -0.178165,4.443617 c -0.09801,2.44399 -0.03898,4.806367 0.131158,5.249725 0.218597,0.569657 1.55361,0.806109 4.551304,0.806109 h 4.24197 z"
       id="path827" />
  </g>
</svg>
