<?xml version="1.0" encoding="UTF-8" standalone="no"?>
<!-- Created with Inkscape (http://www.inkscape.org/) -->

<svg
   width="512"
   height="512"
   viewBox="0 0 135.46666 135.46667"
   version="1.1"
   id="svg5"
   inkscape:version="1.1 (c68e22c387, 2021-05-23)"
   sodipodi:docname="restriction.svg"
   xmlns:inkscape="http://www.inkscape.org/namespaces/inkscape"
   xmlns:sodipodi="http://sodipodi.sourceforge.net/DTD/sodipodi-0.dtd"
   xmlns="http://www.w3.org/2000/svg"
   xmlns:svg="http://www.w3.org/2000/svg">
  <sodipodi:namedview
     id="namedview7"
     pagecolor="#505050"
     bordercolor="#eeeeee"
     borderopacity="1"
     inkscape:pageshadow="0"
     inkscape:pageopacity="0"
     inkscape:pagecheckerboard="0"
     inkscape:document-units="px"
     showgrid="false"
     inkscape:zoom="0.5"
     inkscape:cx="93"
     inkscape:cy="227"
     inkscape:window-width="1366"
     inkscape:window-height="705"
     inkscape:window-x="-8"
     inkscape:window-y="-8"
     inkscape:window-maximized="1"
     inkscape:current-layer="layer1"
     units="px" />
  <defs
     id="defs2">
    <rect
       x="0"
       y="384.00006"
       width="511.99998"
       height="127.99992"
       id="rect12253" />
  </defs>
  <g
     inkscape:label="Calque 1"
     inkscape:groupmode="layer"
     id="layer1">
    <path
       style="color:#000000;fill:#000000;fill-rule:evenodd;stroke-width:8.46667;-inkscape-stroke:none"
       d="M 16.933335,0 H 118.53333 c 9.38107,0 16.93333,7.5522663 16.93333,16.933332 V 118.53333 c 0,9.38106 -7.55226,16.93333 -16.93333,16.93333 H 16.933335 C 7.552269,135.46666 2.7270507e-6,127.91439 2.7270507e-6,118.53333 V 16.933332 C 2.7270507e-6,7.5522663 7.552269,0 16.933335,0 Z"
       id="rect846" />
    <path
       style="color:#000000;fill:#2876ff;fill-rule:evenodd;stroke-width:8.46667;-inkscape-stroke:none"
       d="M 16.933332,8.5685921 H 118.53333 c 4.69054,0 8.46667,3.7761329 8.46667,8.4666659 v 84.666662 c 0,4.69054 -3.77613,8.46667 -8.46667,8.46667 H 16.933332 c -4.690533,0 -8.4666658,-3.77613 -8.4666658,-8.46667 V 17.035258 c 0,-4.690533 3.7761328,-8.4666659 8.4666658,-8.4666659 z"
       id="rect846-1" />
    <path
       style="color:#000000;fill:#000000;fill-rule:evenodd;stroke-width:0.264583;-inkscape-stroke:none"
       d="M 8.4666689,101.60001 H 127 c 4.69053,0 8.46666,3.77614 8.46666,8.46667 v 8.46667 c 0,4.69053 -3.77613,8.46666 -8.46666,8.46666 H 8.4666689 c -4.690533,0 -8.4666661729493,-3.77613 -8.4666661729493,-8.46666 v -8.46667 c 0,-4.69053 3.7761331729493,-8.46667 8.4666661729493,-8.46667 z"
       id="rect1024" />
    <g
       aria-label="RESTRICTION"
       transform="matrix(0.26458333,0,0,0.26458333,22.648424,6.8438898)"
       id="text12251"
       style="font-weight:500;font-size:53.3333px;font-family:'Brandon Text';-inkscape-font-specification:'Brandon Text, Medium';white-space:pre;fill:#ffffff">
      <path
         style="color:#000000;-inkscape-font-specification:'Brandon Text, Medium';-inkscape-stroke:none"
         d="m 4.2133308,426.98664 c 0,0.53333 0.4266664,1.01333 1.0133328,1.01333 h 6.3466624 c 0.533333,0 1.013333,-0.48 1.013333,-1.01333 v -13.59999 h 3.679998 l 7.093329,14.13332 c 0.106667,0.21334 0.426666,0.48 0.853333,0.48 h 7.093329 c 0.906666,0 1.279999,-0.85333 0.906666,-1.54666 l -7.306662,-13.54666 c 4.959997,-1.86667 7.893328,-5.81333 7.893328,-10.71999 0,-6.34667 -4.85333,-11.52 -11.626659,-11.52 H 5.2266636 c -0.5866664,0 -1.0133328,0.48 -1.0133328,1.01334 z m 8.3733282,-20.37332 v -8.32 h 7.893329 c 2.186665,0 4.053331,1.54667 4.053331,4.05334 0,2.50666 -1.866666,4.26666 -4.053331,4.26666 z"
         id="path882" />
      <path
         style="color:#000000;-inkscape-font-specification:'Brandon Text, Medium';-inkscape-stroke:none"
         d="m 39.51991,426.98664 c 0,0.53333 0.426667,1.01333 1.013333,1.01333 H 62.61323 c 0.586666,0 1.013333,-0.48 1.013333,-1.01333 v -5.81333 c 0,-0.53333 -0.426667,-1.01333 -1.013333,-1.01333 H 47.839905 v -7.2 h 12.159993 c 0.533333,0 1.013333,-0.42666 1.013333,-1.01333 v -5.81333 c 0,-0.53333 -0.48,-1.01333 -1.013333,-1.01333 H 47.839905 v -6.61333 H 62.61323 c 0.586666,0 1.013333,-0.48 1.013333,-1.01333 V 391.68 c 0,-0.53334 -0.426667,-1.01334 -1.013333,-1.01334 H 40.533243 c -0.586666,0 -1.013333,0.48 -1.013333,1.01334 z"
         id="path884" />
      <path
         style="color:#000000;-inkscape-font-specification:'Brandon Text, Medium';-inkscape-stroke:none"
         d="m 80.959837,428.53331 c 7.839995,0 12.586659,-5.54667 12.586659,-11.04 0,-7.25333 -6.079997,-9.86666 -10.773327,-12.15999 -3.733331,-1.81333 -5.81333,-3.2 -5.81333,-4.96 0,-1.54666 1.013333,-2.93333 3.253331,-2.93333 2.826665,0 5.97333,2.02667 7.199996,2.88 1.066666,0.64 1.973332,0.21333 2.346665,-0.37333 l 2.719999,-4.10667 c 0.213333,-0.37333 0.319999,-1.33333 -0.32,-1.70666 -1.599999,-1.17334 -5.866663,-4 -11.413327,-4 -8.213328,0 -12.319992,5.33333 -12.319992,10.61333 0,6.39999 5.17333,9.27999 10.34666,11.78666 3.519998,1.70666 5.49333,3.14666 5.49333,5.38666 0,1.86667 -1.546666,3.2 -3.679998,3.2 -3.359998,0 -6.079996,-1.92 -7.573328,-2.93333 -0.533333,-0.37334 -1.386666,-0.37334 -1.813333,0.32 l -2.453332,4.31999 c -0.373333,0.69334 -0.213333,1.17334 0.213334,1.6 1.226666,1.22667 5.066663,4.10667 11.999993,4.10667 z"
         id="path886" />
      <path
         style="color:#000000;-inkscape-font-specification:'Brandon Text, Medium';-inkscape-stroke:none"
         d="m 105.65313,426.98664 c 0,0.53333 0.48,1.01333 1.01333,1.01333 h 6.39999 c 0.53334,0 1.01334,-0.48 1.01334,-1.01333 v -28.47998 h 7.62666 c 0.58667,0 1.01333,-0.48 1.01333,-1.01333 V 391.68 c 0,-0.53334 -0.42666,-1.01334 -1.01333,-1.01334 H 98.026463 c -0.586666,0 -1.013332,0.48 -1.013332,1.01334 v 5.81333 c 0,0.53333 0.426666,1.01333 1.013332,1.01333 h 7.626667 z"
         id="path888" />
      <path
         style="color:#000000;-inkscape-font-specification:'Brandon Text, Medium';-inkscape-stroke:none"
         d="m 128.3197,426.98664 c 0,0.53333 0.42667,1.01333 1.01333,1.01333 h 6.34667 c 0.53333,0 1.01333,-0.48 1.01333,-1.01333 v -13.59999 h 3.68 l 7.09333,14.13332 c 0.10666,0.21334 0.42666,0.48 0.85333,0.48 h 7.09333 c 0.90666,0 1.28,-0.85333 0.90666,-1.54666 l -7.30666,-13.54666 c 4.96,-1.86667 7.89333,-5.81333 7.89333,-10.71999 0,-6.34667 -4.85333,-11.52 -11.62666,-11.52 h -15.94666 c -0.58666,0 -1.01333,0.48 -1.01333,1.01334 z m 8.37333,-20.37332 v -8.32 h 7.89333 c 2.18666,0 4.05333,1.54667 4.05333,4.05334 0,2.50666 -1.86667,4.26666 -4.05333,4.26666 z"
         id="path890" />
      <path
         style="color:#000000;-inkscape-font-specification:'Brandon Text, Medium';-inkscape-stroke:none"
         d="m 163.62628,426.98664 c 0,0.53333 0.48,1.01333 1.01333,1.01333 h 6.4 c 0.53333,0 1.01333,-0.48 1.01333,-1.01333 V 391.68 c 0,-0.53334 -0.48,-1.01334 -1.01333,-1.01334 h -6.4 c -0.53333,0 -1.01333,0.48 -1.01333,1.01334 z"
         id="path892" />
      <path
         style="color:#000000;-inkscape-font-specification:'Brandon Text, Medium';-inkscape-stroke:none"
         d="m 178.34626,409.38665 c 0,10.66666 8.58667,19.14666 19.25333,19.14666 4.74666,0 9.33332,-1.65334 12.95999,-5.17333 0.37333,-0.37334 0.42667,-1.06667 0.0533,-1.44 l -4.16,-4.42667 c -0.32,-0.37333 -1.01333,-0.37333 -1.38666,-0.0533 -1.92,1.65333 -4.21333,2.56 -7.14666,2.56 -6.02667,0 -10.50666,-4.90667 -10.50666,-10.82666 0,-5.97333 4.42666,-10.98666 10.45332,-10.98666 2.61333,0 5.01333,0.8 7.2,2.72 0.37333,0.37333 0.96,0.37333 1.33333,0 l 4.16,-4.32 c 0.42667,-0.42667 0.42667,-1.06667 -0.0533,-1.49333 -3.62667,-3.30667 -7.57333,-4.96 -12.90666,-4.96 -10.66666,0 -19.25333,8.58666 -19.25333,19.25332 z"
         id="path894" />
      <path
         style="color:#000000;-inkscape-font-specification:'Brandon Text, Medium';-inkscape-stroke:none"
         d="m 222.50618,426.98664 c 0,0.53333 0.48,1.01333 1.01334,1.01333 h 6.39999 c 0.53334,0 1.01334,-0.48 1.01334,-1.01333 v -28.47998 h 7.62666 c 0.58666,0 1.01333,-0.48 1.01333,-1.01333 V 391.68 c 0,-0.53334 -0.42667,-1.01334 -1.01333,-1.01334 h -23.67999 c -0.58667,0 -1.01333,0.48 -1.01333,1.01334 v 5.81333 c 0,0.53333 0.42666,1.01333 1.01333,1.01333 h 7.62666 z"
         id="path896" />
      <path
         style="color:#000000;-inkscape-font-specification:'Brandon Text, Medium';-inkscape-stroke:none"
         d="m 245.17276,426.98664 c 0,0.53333 0.48,1.01333 1.01333,1.01333 h 6.4 c 0.53333,0 1.01333,-0.48 1.01333,-1.01333 V 391.68 c 0,-0.53334 -0.48,-1.01334 -1.01333,-1.01334 h -6.4 c -0.53333,0 -1.01333,0.48 -1.01333,1.01334 z"
         id="path898" />
      <path
         style="color:#000000;-inkscape-font-specification:'Brandon Text, Medium';-inkscape-stroke:none"
         d="m 259.89274,409.38665 c 0,10.66666 8.48,19.14666 19.14666,19.14666 10.66666,0 19.19999,-8.48 19.19999,-19.14666 0,-10.66666 -8.53333,-19.25332 -19.19999,-19.25332 -10.66666,0 -19.14666,8.58666 -19.14666,19.25332 z m 8.53333,0 c 0,-5.86666 4.8,-10.71999 10.61333,-10.71999 5.86666,0 10.66666,4.85333 10.66666,10.71999 0,5.81333 -4.8,10.61333 -10.66666,10.61333 -5.81333,0 -10.61333,-4.8 -10.61333,-10.61333 z"
         id="path900" />
      <path
         style="color:#000000;-inkscape-font-specification:'Brandon Text, Medium';-inkscape-stroke:none"
         d="m 304.53267,426.98664 c 0,0.53333 0.48,1.01333 1.01333,1.01333 h 6.34666 c 0.58667,0 1.01334,-0.48 1.01334,-1.01333 v -19.89332 c 0,0 0.0533,0 0.0533,0 l 20.74665,20.85332 c 0.42667,0.42667 0.8,0.58667 1.33334,0.58667 h 0.53333 c 0.53333,0 1.01333,-0.32 1.01333,-0.96 V 391.68 c 0,-0.53334 -0.48,-1.01334 -1.01333,-1.01334 h -6.4 c -0.58666,0 -1.01333,0.48 -1.01333,1.01334 v 18.93332 c 0,0 -0.0533,0 -0.0533,0 L 307.626,390.93333 c -0.42667,-0.42667 -0.8,-0.8 -1.33333,-0.8 h -0.8 c -0.53334,0 -1.01334,0.42667 -1.01334,0.96 z"
         id="path902" />
    </g>
    <path
       style="fill:#000000;stroke-width:0.597786"
       d="m 59.108804,91.576036 c -1.183774,-1.50492 -1.238963,-2.29229 -1.238963,-17.67628 V 57.79856 l -1.345019,0.191027 c -1.17046,0.166221 -1.394597,0.6527 -1.727022,3.748409 -0.579187,5.39363 -3.715363,7.34425 -6.818608,4.24101 -1.353884,-1.35389 -1.467295,-1.91044 -1.467295,-7.200613 0,-5.290175 0.11342,-5.846726 1.467295,-7.20061 0.807012,-0.807014 1.87154,-1.467295 2.365619,-1.467295 0.760475,0 0.925177,-1.693056 1.073298,-11.033016 l 0.174964,-11.033013 -1.79336,-0.175484 c -1.74024,-0.170287 -1.798669,-0.277292 -1.972637,-3.612756 l -0.179279,-3.437275 h 8.062076 8.062075 l 0.187323,-1.942804 0.187322,-1.942807 h 3.58672 3.586719 l 0.187323,1.942807 0.187322,1.942804 h 8.062077 8.062075 l -0.17928,3.437275 c -0.172728,3.311619 -0.245458,3.448198 -1.989618,3.736164 l -1.810341,0.298894 0.02101,10.663334 0.02101,10.663334 1.891723,0.795409 c 2.675834,1.125102 3.181434,2.482938 3.181434,8.544015 0,4.495917 -0.195591,5.587427 -1.23896,6.913847 -1.445975,1.83825 -3.448517,2.02866 -5.328173,0.50661 -1.041866,-0.84365 -1.338807,-1.75556 -1.411244,-4.33395 -0.09451,-3.363817 -0.529055,-4.137221 -2.33344,-4.153009 -0.970578,-0.0086 -1.046127,1.150627 -1.046127,16.050459 0,15.34193 -0.05538,16.13002 -1.23896,17.63471 -1.529474,1.94441 -4.089283,2.08754 -5.692382,0.31827 -0.945965,-1.04401 -1.189384,-2.4863 -1.437668,-8.51846 -0.278391,-6.76348 -0.380911,-7.26164 -1.494468,-7.26164 -1.113571,0 -1.216073,0.49816 -1.494466,7.26306 -0.248325,6.03428 -0.491555,7.47546 -1.43767,8.51846 -1.6035,1.76771 -4.163525,1.62394 -5.69238,-0.31969 z m 4.141116,-9.13364 c 0.331727,-8.12978 0.773421,-9.01824 4.4834,-9.01824 3.714765,0 4.151688,0.88353 4.483398,9.06611 0.244144,6.02244 0.463149,7.37303 1.195575,7.37303 0.769564,0 0.939052,-2.45757 1.195573,-17.33582 l 0.298893,-17.335803 2.912958,0.103071 c 5.567969,0.197038 5.677905,0.287329 5.877185,4.827042 0.145209,3.30816 0.366924,4.0606 1.245852,4.22821 0.974524,0.18586 1.053921,-0.28631 0.89668,-5.332291 -0.196157,-6.294649 0.152732,-5.938659 -6.588996,-6.723173 l -3.427547,-0.398854 -0.870432,2.083243 c -2.469333,5.909945 -11.968943,5.909945 -14.438276,0 l -0.870435,-2.083232 -3.427546,0.398854 c -6.74949,0.785418 -6.41648,0.446678 -6.41648,6.526858 0,4.345535 0.166583,5.337065 0.89668,5.337065 0.690921,0 0.937217,-0.92487 1.073336,-4.03049 0.199276,-4.546737 0.307999,-4.636142 5.877185,-4.83322 l 2.912958,-0.103072 0.151557,16.738032 c 0.08337,9.20591 0.285255,17.09664 0.448655,17.53496 0.163396,0.43832 0.633206,0.68579 1.044012,0.54992 0.520615,-0.17219 0.837478,-2.46642 1.045811,-7.57219 z m 7.725362,-27.901649 c 2.300704,-1.935916 2.537105,-5.104811 0.539448,-7.231217 -1.779204,-1.893877 -2.184529,-1.748964 -2.400303,0.858151 -0.147423,1.781331 -0.431064,2.241698 -1.381107,2.241698 -0.950041,0 -1.233674,-0.460367 -1.381103,-2.241698 -0.215429,-2.602964 -0.447847,-2.697464 -2.316536,-0.941923 -2.116272,1.988136 -1.90836,5.325782 0.455678,7.314989 1.011574,0.851184 2.470457,1.547605 3.241961,1.547605 0.771504,0 2.230388,-0.696421 3.241962,-1.547605 z M 60.67475,46.972107 c 0.928596,-1.397325 2.554578,-2.944099 3.613292,-3.437273 l 1.924938,-0.89668 0.01288,-5.459804 c 0.01175,-4.962813 -0.09591,-5.488266 -1.182646,-5.772454 -0.807896,-0.211272 -1.195571,-0.815391 -1.195571,-1.863081 0,-1.539515 -0.03366,-1.550432 -4.782294,-1.550432 H 54.283056 V 38.752541 49.5127 h 2.351636 c 2.103263,0 2.529952,-0.268328 4.039992,-2.540593 z M 81.183518,38.752541 V 27.992383 h -4.782291 c -4.748623,0 -4.782294,0.01085 -4.782294,1.550432 0,1.04769 -0.387676,1.651809 -1.195574,1.863081 -1.088418,0.284626 -1.195571,0.815391 -1.195571,5.921901 0,4.74329 0.14767,5.609252 0.956458,5.609252 0.844674,0 2.829132,1.842708 5.858308,5.439857 0.604078,0.717344 1.727288,1.135794 3.04871,1.135794 h 2.092254 z M 68.741573,27.24515 l 0.187322,-1.942806 8.219566,-0.166311 c 6.688119,-0.135336 8.219564,-0.327095 8.219564,-1.029257 0,-0.702161 -1.531445,-0.89393 -8.219564,-1.029256 l -8.219566,-0.16631 -0.189152,-1.643913 c -0.245461,-2.133266 -1.767382,-2.133266 -2.01284,0 l -0.189153,1.643913 -8.219566,0.16631 c -6.688119,0.135335 -8.219565,0.327097 -8.219565,1.029259 0,0.702161 1.531446,0.893927 8.219565,1.029256 l 8.219566,0.166311 0.187323,1.942806 c 0.111635,1.157805 0.519023,1.942807 1.008251,1.942807 0.489229,0 0.896619,-0.785002 1.008254,-1.942807 z"
       id="path827" />
  </g>
</svg>
