<svg xmlns="http://www.w3.org/2000/svg" width="512" height="512" viewBox="0 0 135.46666 135.46667">
  <path fill-rule="evenodd" d="M16.933335 0H118.53333c9.38107 0 16.93333 7.5522663 16.93333 16.933332V118.53333c0 9.38106-7.55226 16.93333-16.93333 16.93333H16.933335c-9.381066 0-16.93333227-7.55227-16.93333227-16.93333V16.933332C.00000273 7.5522663 7.552269 0 16.933335 0Z" color="#000" style="-inkscape-stroke:none"/>
  <path fill="#ff7b09" fill-rule="evenodd" d="M16.933332 8.5685921H118.53333c4.69054 0 8.46667 3.7761329 8.46667 8.4666659v84.666662c0 4.69054-3.77613 8.46667-8.46667 8.46667H16.933332c-4.690533 0-8.4666658-3.77613-8.4666658-8.46667V17.035258c0-4.690533 3.7761328-8.4666659 8.4666658-8.4666659z" color="#000" style="-inkscape-stroke:none"/>
  <path fill-rule="evenodd" d="M8.4666689 101.60001H127c4.69053 0 8.46666 3.77614 8.46666 8.46667v8.46667c0 4.69053-3.77613 8.46666-8.46666 8.46666H8.4666689c-4.690533 0-8.46666617-3.77613-8.46666617-8.46666v-8.46667c0-4.69053 3.77613317-8.46667 8.46666617-8.46667z" color="#000" style="-inkscape-stroke:none"/>
  <g style="-inkscape-font-specification:'Brandon Text, Medium';white-space:pre">
    <path fill="#fff" d="M14.826658 428.53331c7.839995 0 12.586659-5.54667 12.586659-11.04 0-7.25333-6.079996-9.86666-10.773327-12.15999-3.733331-1.81333-5.81333-3.2-5.81333-4.96 0-1.54666 1.013333-2.93333 3.253332-2.93333 2.826665 0 5.973329 2.02667 7.199995 2.88 1.066666.64 1.973332.21333 2.346666-.37333l2.719998-4.10667c.213333-.37333.32-1.33333-.32-1.70666-1.599999-1.17334-5.866663-4-11.413326-4-8.2133288 0-12.319993 5.33333-12.319993 10.61333 0 6.39999 5.1733302 9.27999 10.34666 11.78666 3.519998 1.70666 5.493331 3.14666 5.493331 5.38666 0 1.86667-1.546666 3.2-3.679998 3.2-3.359998 0-6.0799967-1.92-7.5733291-2.93333-.533333-.37334-1.3866658-.37334-1.8133323.32l-2.4533318 4.31999c-.3733331.69334-.2133332 1.17334.2133332 1.6 1.2266659 1.22667 5.0666636 4.10667 11.999993 4.10667zm18.506628-14.18666c0 8.10666 6.773329 14.18666 15.146657 14.18666 8.426662 0 15.253325-6.08 15.253325-14.18666V391.68c0-.53334-.48-1.01334-1.013333-1.01334h-6.559996c-.586667 0-1.013333.48-1.013333 1.01334v22.23998c0 3.89333-2.826665 6.08-6.666663 6.08-3.786664 0-6.559996-2.18667-6.559996-6.08V391.68c0-.53334-.426666-1.01334-1.013332-1.01334h-6.559997c-.533333 0-1.013332.48-1.013332 1.01334zm38.453249 12.63999c0 .53333.426666 1.01333 1.013333 1.01333h6.293329c.533333 0 1.013333-.48 1.013333-1.01333v-12.53332h5.599997c6.986662 0 11.893326-5.38667 11.893326-12 0-6.45333-4.906664-11.78666-11.94666-11.78666H72.799868c-.586667 0-1.013333.48-1.013333 1.01334zm8.319995-20.31999v-8.15999h5.386663c2.293332 0 3.893331 1.70666 3.893331 3.94666 0 2.4-1.599999 4.21333-3.893331 4.21333zm22.87993 20.31999c0 .53333.42667 1.01333 1.01334 1.01333h6.34666c.53333 0 1.01333-.48 1.01333-1.01333v-13.59999h3.68l7.09333 14.13332c.10667.21334.42666.48.85333.48h7.09333c.90667 0 1.28-.85333.90667-1.54666l-7.30667-13.54666c4.96-1.86667 7.89333-5.81333 7.89333-10.71999 0-6.34667-4.85333-11.52-11.62666-11.52H103.9998c-.58667 0-1.01334.48-1.01334 1.01334zm8.37333-20.37332v-8.32h7.89333c2.18667 0 4.05333 1.54667 4.05333 4.05334 0 2.50666-1.86666 4.26666-4.05333 4.26666zm26.93325 20.37332c0 .53333.42667 1.01333 1.01334 1.01333h22.07998c.58667 0 1.01334-.48 1.01334-1.01333v-5.81333c0-.53333-.42667-1.01333-1.01334-1.01333h-14.77332v-7.2h12.15999c.53333 0 1.01333-.42666 1.01333-1.01333v-5.81333c0-.53333-.48-1.01333-1.01333-1.01333h-12.15999v-6.61333h14.77332c.58667 0 1.01334-.48 1.01334-1.01333V391.68c0-.53334-.42667-1.01334-1.01334-1.01334h-22.07998c-.58667 0-1.01334.48-1.01334 1.01334zm28.85327-.16c-.10667.69333.37333 1.17333 1.01333 1.17333h6.29333c.53334 0 .96-.42666 1.01333-.85333l2.34667-16.47999h.10667l9.01332 17.27999c.16.32.58667.58667.90667.58667h.96c.26667 0 .74667-.26667.90667-.58667l8.95999-17.27999h.10667l2.4 16.47999c.0533.42667.53333.85333 1.01333.85333h6.29333c.64 0 1.12-.48 1.01333-1.17333l-6.02666-35.83998c-.0533-.48-.53333-.85333-.96-.85333h-.85333c-.26667 0-.74667.21333-.90667.53333l-12.37333 23.03999h-.10666l-12.37333-23.03999c-.16-.32-.64-.53333-.90666-.53333h-.85334c-.42666 0-.90666.37333-.96.85333zm45.49322 1.17333h5.86666c1.06667 0 1.65334-.64 1.92-1.28l1.92-4.26666h14.50666l1.92 4.21333c.48 1.01333.90666 1.33333 1.86666 1.33333h5.92c.8 0 1.22667-.69333.90667-1.38666L230.77285 390.72c-.16-.32-.53333-.58667-.90666-.58667h-.53334c-.37333 0-.74666.26667-.90666.58667l-16.69333 35.89331c-.32.69333.10667 1.38666.90667 1.38666zm12.90666-12.79999 4-8.79999h.0533l4.05333 8.79999zm22.98651-5.81333c0 10.66666 8.58666 19.14666 19.25332 19.14666 4.74666 0 9.33333-1.65334 12.95999-5.17333.37333-.37334.42667-1.06667.0533-1.44l-4.15999-4.42667c-.32-.37333-1.01334-.37333-1.38667-.0533-1.92 1.65333-4.21333 2.56-7.14666 2.56-6.02666 0-10.50666-4.90667-10.50666-10.82666 0-5.97333 4.42666-10.98666 10.45332-10.98666 2.61334 0 5.01334.8 7.2 2.72.37333.37333.96.37333 1.33333 0l4.16-4.32c.42667-.42667.42667-1.06667-.0533-1.49333-3.62667-3.30667-7.57333-4.96-12.90666-4.96-10.66666 0-19.25332 8.58666-19.25332 19.25332zm45.97325 17.59999c0 .53333.42666 1.01333 1.01333 1.01333h6.34666c.53334 0 1.01334-.48 1.01334-1.01333v-17.01332l11.94666-17.75999c.42666-.69333 0-1.54667-.85334-1.54667h-6.93333c-.48 0-.69333.26667-.85333.48l-7.41333 10.93333-7.41333-10.93333c-.16-.21333-.42666-.48-.85333-.48h-6.93333c-.85333 0-1.28.85334-.85333 1.54667l11.78666 17.81332z" aria-label="SUPREMACY" color="#000" font-family="Brandon Text" font-size="53.3333px" font-weight="500" style="-inkscape-font-specification:'Brandon Text, Medium';-inkscape-stroke:none" transform="translate(25.758953 6.8438898) scale(.26458)"/>
  </g>
  <path d="M59.666526 89.717304c-6.229983-3.90976-10.092581-6.96765-11.091928-8.7811-.889227-1.61363-1.069148-11.86972-.218382-12.44844.357844-.24342-.836338-1.81163-2.860846-3.75689-3.395783-3.262842-3.466381-3.396146-3.093499-5.841238.619291-4.060871.555473-5.25143-.533533-9.953475-2.243715-9.687783-.07331-18.659868 5.950594-24.598669 9.121665-8.992805 26.913643-9.947794 37.630194-2.019807 4.12568 3.052134 7.55606 8.415819 8.604481 13.453832.817225 3.927046.365444 11.53891-.94721 15.959088-.665902 2.242334-.746908 3.476339-.304581 4.639752 1.292753 3.40019.791865 4.923966-2.77127 8.430597-1.855631 1.82621-3.116177 3.49684-2.801215 3.71251.818182.56026.598857 10.86424-.26461 12.43141-.886943 1.60979-6.085719 5.64593-12.024085 9.33505-6.322046 3.92748-8.231478 3.85715-15.274112-.56262zm16.783725-3.97181c8.232167-5.52812 8.851198-6.34623 8.277332-10.93928-.366148-2.93055-.546562-3.32587-1.09661-2.40289-3.026579 5.07859-4.156714 6.39131-5.355117 6.22031-.796776-.11369-1.3364-.68924-1.459325-1.55647-.25925-1.82899-2.022529-1.48737-2.487414.48192-.43383 1.83773-2.117402 2.27763-2.539495.66354-.225141-.86093-.651357-1.09303-1.567331-.8535-.691956.18096-1.258101.70009-1.258101 1.15364 0 .45354-.536493.82463-1.192207.82463-.655715 0-1.192207-.37109-1.192207-.82463 0-1.41302-2.240714-1.5572-3.140479-.20207-.936644 1.41065-2.224448.94937-2.224448-.79679 0-.63636-.112176-1.15702-.249299-1.15702-.137117 0-.640509-.15012-1.118661-.33361-.578398-.22194-.997531.17706-1.252317 1.19221-.210632.83919-.79302 1.52581-1.294215 1.52581-1.175977 0-3.457936-2.4725-4.702429-5.09507-.537166-1.13199-1.165265-2.05743-1.395775-2.05654-.23051.0009-.500421 1.5902-.599798 3.53178-.162147 3.168-.0092 3.71567 1.490258 5.3386.919021.99464 4.340499 3.56317 7.603288 5.70781 7.936043 5.21641 8.373819 5.20537 16.75435-.42238zm-9.870475-12.66718c0-1.09286.317921-1.49026 1.192207-1.49026.882889 0 1.192207.3974 1.192207 1.53172 0 1.24748.248883 1.49637 1.341231 1.34123.861939-.1224 1.409303-.66978 1.531719-1.53172.205833-1.44928 1.250988-1.74767 2.332688-.66597 1.198515 1.19851 2.384114.0823 2.790403-2.62697.217954-1.45345.9611-3.24889 1.651426-3.98986 1.053841-1.13116 1.688901-1.29835 3.959695-1.04239 2.446907.2758 2.950088.0996 5.281932-1.84958l2.577376-2.154418-.37103-3.621476c-.258804-2.526059-.056118-4.917153.670083-7.905015 2.817355-11.591633-1.352636-21.891045-10.737616-26.520715-8.743719-4.313332-20.357946-3.493121-27.972837 1.975472-7.009148 5.033585-9.809725 14.726829-7.144902 24.729634.636796 2.390303.836706 4.798477.61095 7.35968l-.335554 3.806848 2.518593 2.249354c2.324179 2.075716 2.730169 2.224926 5.2595 1.932846 2.317947-.26766 2.935243-.10792 4.000255 1.03524.692639.74346 1.437675 2.54093 1.655633 3.99438.379104 2.52805 1.973147 4.22366 2.496014 2.65506.410679-1.23203 1.932638-.75669 2.519512.78691.346882.91237 1.034624 1.49026 1.773555 1.49026.890023 0 1.20696-.39133 1.20696-1.49026zm-3.224712-5.60347c-1.335636-1.47586-1.177242-3.4725.544744-6.866686.818269-1.612881 1.487763-3.369895 1.487763-3.90447 0-2.644902 3.281288-3.236619 4.232899-.763323.346897.901605 1.280008 2.984763 2.073581 4.629242 2.737097 5.671937 1.584918 7.952877-4.017239 7.952817-2.461352-.00003-3.630116-.28333-4.321748-1.04758zm5.277073-2.47213c.526333.43681 1.128271.6229 1.337643.41353.384952-.38495-1.646802-5.138827-2.197797-5.14238-.485089-.0032-2.873043 4.66584-2.551041 4.98784.162328.16233.780953-.008 1.374697-.37902.823643-.51438 1.306373-.48592 2.036498.12004zm-19.068396-6.799869c-1.200678-1.200677-1.463162-2.054491-1.463162-4.759417 0-2.799452.262094-3.589659 1.738993-5.242991 1.687236-1.888799 1.900532-1.952953 7.166589-2.155573 7.079838-.272406 8.38141.442917 8.38141 4.606302 0 3.529469-1.521916 5.410128-6.104715 7.543708-4.18993 1.950674-7.77347 1.953614-9.719115.0079zm9.321962-2.900606c2.751492-1.448695 4.380729-3.794186 3.759699-5.412558-.378783-.987098-1.503385-1.182396-6.388105-1.109368-4.380628.06549-6.24043 2.399628-4.992563 6.265898.452603 1.402293.851819 1.639282 2.761434 1.639282 1.227788 0 3.414579-.622464 4.859535-1.383254zm18.355421 3.541371c-2.678666-.957248-5.70351-3.075528-6.489839-4.544793-.32719-.611359-.59489-2.330121-.59489-3.819471 0-3.96254 1.391252-4.704135 8.319184-4.434482 4.89797.190648 5.505819.349341 6.977615 1.821717 1.290728 1.291238 1.661832 2.301691 1.860885 5.066873.220433 3.062193.07606 3.639935-1.272824 5.093269-1.216187 1.31037-2.035489 1.634032-4.08336 1.613117-1.409046-.01442-3.531593-.372693-4.716771-.79623zm6.859919-3.101025c.683063-1.780033.360774-4.29124-.72242-5.628926-.937912-1.158271-1.663753-1.342423-5.377958-1.364435-2.36154-.01397-4.570941.251785-4.90978.590625-1.581834 1.581833 1.031004 5.157666 4.901381 6.707846 2.318399.928577 5.700182.759669 6.108777-.30511zM56.232645 72.333184c-.161539-.57375-.469182-1.91498-.683638-2.98051-.32611-1.6203-.650426-1.93048-1.981836-1.89544-.875556.0231-2.128414.27244-2.784128.55421-.991962.42626-.859373.51934.789397.5542 1.731629.0366 2.107612.34192 2.980515 2.42025.988018 2.3524 2.247027 3.36226 1.67969 1.34729zm24.653607-1.34123c1.028987-2.01698 1.513109-2.39087 3.141657-2.42631 1.616582-.0352 1.734093-.12403.733014-.5542-.655715-.28177-1.908572-.53117-2.784128-.55421-1.33141-.035-1.655728.27514-1.981839 1.89544-.214461 1.06553-.52209 2.40676-.683636 2.98051-.515803 1.83194.318623 1.12134 1.574932-1.34123z"/>
</svg>
