<?xml version="1.0" encoding="UTF-8" standalone="no"?>
<!-- Created with Inkscape (http://www.inkscape.org/) -->

<svg
   width="512"
   height="512"
   viewBox="0 0 135.46666 135.46667"
   version="1.1"
   id="svg5"
   inkscape:version="1.1 (c68e22c387, 2021-05-23)"
   sodipodi:docname="supremacy.svg"
   xmlns:inkscape="http://www.inkscape.org/namespaces/inkscape"
   xmlns:sodipodi="http://sodipodi.sourceforge.net/DTD/sodipodi-0.dtd"
   xmlns="http://www.w3.org/2000/svg"
   xmlns:svg="http://www.w3.org/2000/svg">
  <sodipodi:namedview
     id="namedview7"
     pagecolor="#505050"
     bordercolor="#eeeeee"
     borderopacity="1"
     inkscape:pageshadow="0"
     inkscape:pageopacity="0"
     inkscape:pagecheckerboard="0"
     inkscape:document-units="px"
     showgrid="false"
     inkscape:zoom="0.91100744"
     inkscape:cx="165.20172"
     inkscape:cy="227.76982"
     inkscape:window-width="1366"
     inkscape:window-height="705"
     inkscape:window-x="-8"
     inkscape:window-y="-8"
     inkscape:window-maximized="1"
     inkscape:current-layer="layer1"
     units="px" />
  <defs
     id="defs2">
    <rect
       x="0"
       y="384.00006"
       width="511.99998"
       height="127.99992"
       id="rect12253" />
  </defs>
  <g
     inkscape:label="Calque 1"
     inkscape:groupmode="layer"
     id="layer1">
    <path
       style="color:#000000;fill:#000000;fill-rule:evenodd;stroke-width:8.46667;-inkscape-stroke:none"
       d="M 16.933335,0 H 118.53333 c 9.38107,0 16.93333,7.5522663 16.93333,16.933332 V 118.53333 c 0,9.38106 -7.55226,16.93333 -16.93333,16.93333 H 16.933335 C 7.552269,135.46666 2.7270507e-6,127.91439 2.7270507e-6,118.53333 V 16.933332 C 2.7270507e-6,7.5522663 7.552269,0 16.933335,0 Z"
       id="rect846" />
    <path
       style="color:#000000;fill:#ff7b09;fill-rule:evenodd;stroke-width:8.46667;-inkscape-stroke:none"
       d="M 16.933332,8.5685921 H 118.53333 c 4.69054,0 8.46667,3.7761329 8.46667,8.4666659 v 84.666662 c 0,4.69054 -3.77613,8.46667 -8.46667,8.46667 H 16.933332 c -4.690533,0 -8.4666658,-3.77613 -8.4666658,-8.46667 V 17.035258 c 0,-4.690533 3.7761328,-8.4666659 8.4666658,-8.4666659 z"
       id="rect846-1" />
    <path
       style="color:#000000;fill:#000000;fill-rule:evenodd;stroke-width:0.264583;-inkscape-stroke:none"
       d="M 8.4666689,101.60001 H 127 c 4.69053,0 8.46666,3.77614 8.46666,8.46667 v 8.46667 c 0,4.69053 -3.77613,8.46666 -8.46666,8.46666 H 8.4666689 c -4.690533,0 -8.4666661729493,-3.77613 -8.4666661729493,-8.46666 v -8.46667 c 0,-4.69053 3.7761331729493,-8.46667 8.4666661729493,-8.46667 z"
       id="rect1024" />
    <g
       aria-label="SUPREMACY"
       transform="matrix(0.26458333,0,0,0.26458333,25.758953,6.8438898)"
       id="text12251"
       style="font-weight:500;font-size:53.3333px;font-family:'Brandon Text';-inkscape-font-specification:'Brandon Text, Medium';white-space:pre;fill:#ffffff">
      <path
         style="color:#000000;-inkscape-font-specification:'Brandon Text, Medium';-inkscape-stroke:none"
         d="m 14.826658,428.53331 c 7.839995,0 12.586659,-5.54667 12.586659,-11.04 0,-7.25333 -6.079996,-9.86666 -10.773327,-12.15999 -3.733331,-1.81333 -5.81333,-3.2 -5.81333,-4.96 0,-1.54666 1.013333,-2.93333 3.253332,-2.93333 2.826665,0 5.973329,2.02667 7.199995,2.88 1.066666,0.64 1.973332,0.21333 2.346666,-0.37333 l 2.719998,-4.10667 c 0.213333,-0.37333 0.32,-1.33333 -0.32,-1.70666 -1.599999,-1.17334 -5.866663,-4 -11.413326,-4 -8.2133288,0 -12.319993,5.33333 -12.319993,10.61333 0,6.39999 5.1733302,9.27999 10.34666,11.78666 3.519998,1.70666 5.493331,3.14666 5.493331,5.38666 0,1.86667 -1.546666,3.2 -3.679998,3.2 -3.359998,0 -6.0799967,-1.92 -7.5733291,-2.93333 -0.533333,-0.37334 -1.3866658,-0.37334 -1.8133323,0.32 l -2.4533318,4.31999 c -0.3733331,0.69334 -0.2133332,1.17334 0.2133332,1.6 1.2266659,1.22667 5.0666636,4.10667 11.999993,4.10667 z"
         id="path827" />
      <path
         style="color:#000000;-inkscape-font-specification:'Brandon Text, Medium';-inkscape-stroke:none"
         d="m 33.333286,414.34665 c 0,8.10666 6.773329,14.18666 15.146657,14.18666 8.426662,0 15.253325,-6.08 15.253325,-14.18666 V 391.68 c 0,-0.53334 -0.48,-1.01334 -1.013333,-1.01334 h -6.559996 c -0.586667,0 -1.013333,0.48 -1.013333,1.01334 v 22.23998 c 0,3.89333 -2.826665,6.08 -6.666663,6.08 -3.786664,0 -6.559996,-2.18667 -6.559996,-6.08 V 391.68 c 0,-0.53334 -0.426666,-1.01334 -1.013332,-1.01334 h -6.559997 c -0.533333,0 -1.013332,0.48 -1.013332,1.01334 z"
         id="path829" />
      <path
         style="color:#000000;-inkscape-font-specification:'Brandon Text, Medium';-inkscape-stroke:none"
         d="m 71.786535,426.98664 c 0,0.53333 0.426666,1.01333 1.013333,1.01333 h 6.293329 c 0.533333,0 1.013333,-0.48 1.013333,-1.01333 v -12.53332 h 5.599997 c 6.986662,0 11.893326,-5.38667 11.893326,-12 0,-6.45333 -4.906664,-11.78666 -11.94666,-11.78666 H 72.799868 c -0.586667,0 -1.013333,0.48 -1.013333,1.01334 z m 8.319995,-20.31999 v -8.15999 h 5.386663 c 2.293332,0 3.893331,1.70666 3.893331,3.94666 0,2.4 -1.599999,4.21333 -3.893331,4.21333 z"
         id="path831" />
      <path
         style="color:#000000;-inkscape-font-specification:'Brandon Text, Medium';-inkscape-stroke:none"
         d="m 102.98646,426.98664 c 0,0.53333 0.42667,1.01333 1.01334,1.01333 h 6.34666 c 0.53333,0 1.01333,-0.48 1.01333,-1.01333 v -13.59999 h 3.68 l 7.09333,14.13332 c 0.10667,0.21334 0.42666,0.48 0.85333,0.48 h 7.09333 c 0.90667,0 1.28,-0.85333 0.90667,-1.54666 l -7.30667,-13.54666 c 4.96,-1.86667 7.89333,-5.81333 7.89333,-10.71999 0,-6.34667 -4.85333,-11.52 -11.62666,-11.52 H 103.9998 c -0.58667,0 -1.01334,0.48 -1.01334,1.01334 z m 8.37333,-20.37332 v -8.32 h 7.89333 c 2.18667,0 4.05333,1.54667 4.05333,4.05334 0,2.50666 -1.86666,4.26666 -4.05333,4.26666 z"
         id="path833" />
      <path
         style="color:#000000;-inkscape-font-specification:'Brandon Text, Medium';-inkscape-stroke:none"
         d="m 138.29304,426.98664 c 0,0.53333 0.42667,1.01333 1.01334,1.01333 h 22.07998 c 0.58667,0 1.01334,-0.48 1.01334,-1.01333 v -5.81333 c 0,-0.53333 -0.42667,-1.01333 -1.01334,-1.01333 h -14.77332 v -7.2 h 12.15999 c 0.53333,0 1.01333,-0.42666 1.01333,-1.01333 v -5.81333 c 0,-0.53333 -0.48,-1.01333 -1.01333,-1.01333 h -12.15999 v -6.61333 h 14.77332 c 0.58667,0 1.01334,-0.48 1.01334,-1.01333 V 391.68 c 0,-0.53334 -0.42667,-1.01334 -1.01334,-1.01334 h -22.07998 c -0.58667,0 -1.01334,0.48 -1.01334,1.01334 z"
         id="path835" />
      <path
         style="color:#000000;-inkscape-font-specification:'Brandon Text, Medium';-inkscape-stroke:none"
         d="m 167.14631,426.82664 c -0.10667,0.69333 0.37333,1.17333 1.01333,1.17333 h 6.29333 c 0.53334,0 0.96,-0.42666 1.01333,-0.85333 l 2.34667,-16.47999 h 0.10667 l 9.01332,17.27999 c 0.16,0.32 0.58667,0.58667 0.90667,0.58667 h 0.96 c 0.26667,0 0.74667,-0.26667 0.90667,-0.58667 l 8.95999,-17.27999 h 0.10667 l 2.4,16.47999 c 0.0533,0.42667 0.53333,0.85333 1.01333,0.85333 h 6.29333 c 0.64,0 1.12,-0.48 1.01333,-1.17333 l -6.02666,-35.83998 c -0.0533,-0.48 -0.53333,-0.85333 -0.96,-0.85333 h -0.85333 c -0.26667,0 -0.74667,0.21333 -0.90667,0.53333 l -12.37333,23.03999 h -0.10666 l -12.37333,-23.03999 c -0.16,-0.32 -0.64,-0.53333 -0.90666,-0.53333 h -0.85334 c -0.42666,0 -0.90666,0.37333 -0.96,0.85333 z"
         id="path837" />
      <path
         style="color:#000000;-inkscape-font-specification:'Brandon Text, Medium';-inkscape-stroke:none"
         d="m 212.63953,427.99997 h 5.86666 c 1.06667,0 1.65334,-0.64 1.92,-1.28 l 1.92,-4.26666 h 14.50666 l 1.92,4.21333 c 0.48,1.01333 0.90666,1.33333 1.86666,1.33333 h 5.92 c 0.8,0 1.22667,-0.69333 0.90667,-1.38666 L 230.77285,390.72 c -0.16,-0.32 -0.53333,-0.58667 -0.90666,-0.58667 h -0.53334 c -0.37333,0 -0.74666,0.26667 -0.90666,0.58667 l -16.69333,35.89331 c -0.32,0.69333 0.10667,1.38666 0.90667,1.38666 z m 12.90666,-12.79999 4,-8.79999 h 0.0533 l 4.05333,8.79999 z"
         id="path839" />
      <path
         style="color:#000000;-inkscape-font-specification:'Brandon Text, Medium';-inkscape-stroke:none"
         d="m 248.5327,409.38665 c 0,10.66666 8.58666,19.14666 19.25332,19.14666 4.74666,0 9.33333,-1.65334 12.95999,-5.17333 0.37333,-0.37334 0.42667,-1.06667 0.0533,-1.44 l -4.15999,-4.42667 c -0.32,-0.37333 -1.01334,-0.37333 -1.38667,-0.0533 -1.92,1.65333 -4.21333,2.56 -7.14666,2.56 -6.02666,0 -10.50666,-4.90667 -10.50666,-10.82666 0,-5.97333 4.42666,-10.98666 10.45332,-10.98666 2.61334,0 5.01334,0.8 7.2,2.72 0.37333,0.37333 0.96,0.37333 1.33333,0 l 4.16,-4.32 c 0.42667,-0.42667 0.42667,-1.06667 -0.0533,-1.49333 -3.62667,-3.30667 -7.57333,-4.96 -12.90666,-4.96 -10.66666,0 -19.25332,8.58666 -19.25332,19.25332 z"
         id="path841" />
      <path
         style="color:#000000;-inkscape-font-specification:'Brandon Text, Medium';-inkscape-stroke:none"
         d="m 294.50595,426.98664 c 0,0.53333 0.42666,1.01333 1.01333,1.01333 h 6.34666 c 0.53334,0 1.01334,-0.48 1.01334,-1.01333 v -17.01332 l 11.94666,-17.75999 c 0.42666,-0.69333 0,-1.54667 -0.85334,-1.54667 h -6.93333 c -0.48,0 -0.69333,0.26667 -0.85333,0.48 l -7.41333,10.93333 -7.41333,-10.93333 c -0.16,-0.21333 -0.42666,-0.48 -0.85333,-0.48 h -6.93333 c -0.85333,0 -1.28,0.85334 -0.85333,1.54667 l 11.78666,17.81332 z"
         id="path843" />
    </g>
    <path
       style="fill:#000000;stroke-width:0.596102"
       d="m 59.666526,89.717304 c -6.229983,-3.90976 -10.092581,-6.96765 -11.091928,-8.7811 -0.889227,-1.61363 -1.069148,-11.86972 -0.218382,-12.44844 0.357844,-0.24342 -0.836338,-1.81163 -2.860846,-3.75689 -3.395783,-3.262842 -3.466381,-3.396146 -3.093499,-5.841238 0.619291,-4.060871 0.555473,-5.25143 -0.533533,-9.953475 -2.243715,-9.687783 -0.07331,-18.659868 5.950594,-24.598669 9.121665,-8.992805 26.913643,-9.947794 37.630194,-2.019807 4.12568,3.052134 7.55606,8.415819 8.604481,13.453832 0.817225,3.927046 0.365444,11.53891 -0.94721,15.959088 -0.665902,2.242334 -0.746908,3.476339 -0.304581,4.639752 1.292753,3.40019 0.791865,4.923966 -2.77127,8.430597 -1.855631,1.82621 -3.116177,3.49684 -2.801215,3.71251 0.818182,0.56026 0.598857,10.86424 -0.26461,12.43141 -0.886943,1.60979 -6.085719,5.64593 -12.024085,9.33505 -6.322046,3.92748 -8.231478,3.85715 -15.274112,-0.56262 z m 16.783725,-3.97181 c 8.232167,-5.52812 8.851198,-6.34623 8.277332,-10.93928 -0.366148,-2.93055 -0.546562,-3.32587 -1.09661,-2.40289 -3.026579,5.07859 -4.156714,6.39131 -5.355117,6.22031 -0.796776,-0.11369 -1.3364,-0.68924 -1.459325,-1.55647 -0.25925,-1.82899 -2.022529,-1.48737 -2.487414,0.48192 -0.43383,1.83773 -2.117402,2.27763 -2.539495,0.66354 -0.225141,-0.86093 -0.651357,-1.09303 -1.567331,-0.8535 -0.691956,0.18096 -1.258101,0.70009 -1.258101,1.15364 0,0.45354 -0.536493,0.82463 -1.192207,0.82463 -0.655715,0 -1.192207,-0.37109 -1.192207,-0.82463 0,-1.41302 -2.240714,-1.5572 -3.140479,-0.20207 -0.936644,1.41065 -2.224448,0.94937 -2.224448,-0.79679 0,-0.63636 -0.112176,-1.15702 -0.249299,-1.15702 -0.137117,0 -0.640509,-0.15012 -1.118661,-0.33361 -0.578398,-0.22194 -0.997531,0.17706 -1.252317,1.19221 -0.210632,0.83919 -0.79302,1.52581 -1.294215,1.52581 -1.175977,0 -3.457936,-2.4725 -4.702429,-5.09507 -0.537166,-1.13199 -1.165265,-2.05743 -1.395775,-2.05654 -0.23051,9e-4 -0.500421,1.5902 -0.599798,3.53178 -0.162147,3.168 -0.0092,3.71567 1.490258,5.3386 0.919021,0.99464 4.340499,3.56317 7.603288,5.70781 7.936043,5.21641 8.373819,5.20537 16.75435,-0.42238 z m -9.870475,-12.66718 c 0,-1.09286 0.317921,-1.49026 1.192207,-1.49026 0.882889,0 1.192207,0.3974 1.192207,1.53172 0,1.24748 0.248883,1.49637 1.341231,1.34123 0.861939,-0.1224 1.409303,-0.66978 1.531719,-1.53172 0.205833,-1.44928 1.250988,-1.74767 2.332688,-0.66597 1.198515,1.19851 2.384114,0.0823 2.790403,-2.62697 0.217954,-1.45345 0.9611,-3.24889 1.651426,-3.98986 1.053841,-1.13116 1.688901,-1.29835 3.959695,-1.04239 2.446907,0.2758 2.950088,0.0996 5.281932,-1.84958 L 90.43066,60.600096 90.05963,56.97862 C 89.800826,54.452561 90.003512,52.061467 90.729713,49.073605 93.547068,37.481972 89.377077,27.18256 79.992097,22.55289 71.248378,18.239558 59.634151,19.059769 52.01926,24.528362 c -7.009148,5.033585 -9.809725,14.726829 -7.144902,24.729634 0.636796,2.390303 0.836706,4.798477 0.61095,7.35968 l -0.335554,3.806848 2.518593,2.249354 c 2.324179,2.075716 2.730169,2.224926 5.2595,1.932846 2.317947,-0.26766 2.935243,-0.10792 4.000255,1.03524 0.692639,0.74346 1.437675,2.54093 1.655633,3.99438 0.379104,2.52805 1.973147,4.22366 2.496014,2.65506 0.410679,-1.23203 1.932638,-0.75669 2.519512,0.78691 0.346882,0.91237 1.034624,1.49026 1.773555,1.49026 0.890023,0 1.20696,-0.39133 1.20696,-1.49026 z m -3.224712,-5.60347 c -1.335636,-1.47586 -1.177242,-3.4725 0.544744,-6.866686 0.818269,-1.612881 1.487763,-3.369895 1.487763,-3.90447 0,-2.644902 3.281288,-3.236619 4.232899,-0.763323 0.346897,0.901605 1.280008,2.984763 2.073581,4.629242 2.737097,5.671937 1.584918,7.952877 -4.017239,7.952817 -2.461352,-3e-5 -3.630116,-0.28333 -4.321748,-1.04758 z m 5.277073,-2.47213 c 0.526333,0.43681 1.128271,0.6229 1.337643,0.41353 0.384952,-0.38495 -1.646802,-5.138827 -2.197797,-5.14238 -0.485089,-0.0032 -2.873043,4.66584 -2.551041,4.98784 0.162328,0.16233 0.780953,-0.008 1.374697,-0.37902 0.823643,-0.51438 1.306373,-0.48592 2.036498,0.12004 z M 49.563741,58.202845 c -1.200678,-1.200677 -1.463162,-2.054491 -1.463162,-4.759417 0,-2.799452 0.262094,-3.589659 1.738993,-5.242991 1.687236,-1.888799 1.900532,-1.952953 7.166589,-2.155573 7.079838,-0.272406 8.38141,0.442917 8.38141,4.606302 0,3.529469 -1.521916,5.410128 -6.104715,7.543708 -4.18993,1.950674 -7.77347,1.953614 -9.719115,0.0079 z m 9.321962,-2.900606 c 2.751492,-1.448695 4.380729,-3.794186 3.759699,-5.412558 -0.378783,-0.987098 -1.503385,-1.182396 -6.388105,-1.109368 -4.380628,0.06549 -6.24043,2.399628 -4.992563,6.265898 0.452603,1.402293 0.851819,1.639282 2.761434,1.639282 1.227788,0 3.414579,-0.622464 4.859535,-1.383254 z m 18.355421,3.541371 c -2.678666,-0.957248 -5.70351,-3.075528 -6.489839,-4.544793 -0.32719,-0.611359 -0.59489,-2.330121 -0.59489,-3.819471 0,-3.96254 1.391252,-4.704135 8.319184,-4.434482 4.89797,0.190648 5.505819,0.349341 6.977615,1.821717 1.290728,1.291238 1.661832,2.301691 1.860885,5.066873 0.220433,3.062193 0.07606,3.639935 -1.272824,5.093269 -1.216187,1.31037 -2.035489,1.634032 -4.08336,1.613117 -1.409046,-0.01442 -3.531593,-0.372693 -4.716771,-0.79623 z m 6.859919,-3.101025 c 0.683063,-1.780033 0.360774,-4.29124 -0.72242,-5.628926 -0.937912,-1.158271 -1.663753,-1.342423 -5.377958,-1.364435 -2.36154,-0.01397 -4.570941,0.251785 -4.90978,0.590625 -1.581834,1.581833 1.031004,5.157666 4.901381,6.707846 2.318399,0.928577 5.700182,0.759669 6.108777,-0.30511 z M 56.232645,72.333184 c -0.161539,-0.57375 -0.469182,-1.91498 -0.683638,-2.98051 -0.32611,-1.6203 -0.650426,-1.93048 -1.981836,-1.89544 -0.875556,0.0231 -2.128414,0.27244 -2.784128,0.55421 -0.991962,0.42626 -0.859373,0.51934 0.789397,0.5542 1.731629,0.0366 2.107612,0.34192 2.980515,2.42025 0.988018,2.3524 2.247027,3.36226 1.67969,1.34729 z m 24.653607,-1.34123 c 1.028987,-2.01698 1.513109,-2.39087 3.141657,-2.42631 1.616582,-0.0352 1.734093,-0.12403 0.733014,-0.5542 -0.655715,-0.28177 -1.908572,-0.53117 -2.784128,-0.55421 -1.33141,-0.035 -1.655728,0.27514 -1.981839,1.89544 -0.214461,1.06553 -0.52209,2.40676 -0.683636,2.98051 -0.515803,1.83194 0.318623,1.12134 1.574932,-1.34123 z"
       id="path827-3" />
  </g>
</svg>
